<svg width="221" height="240" viewBox="0 0 221 240" fill="none" xmlns="http://www.w3.org/2000/svg">
<path d="M103.923 3.29165C101.653 5.67527 100.404 6.3563 99.1559 5.56176C98.2478 4.99423 95.9777 4.54021 94.2751 4.54021C92.3456 4.54021 89.9619 5.67527 88.3729 7.37784C86.7838 8.96692 85.5352 11.464 85.5352 13.0531C85.5352 15.3232 84.9677 15.8907 82.6976 15.8907C81.1085 15.8907 78.4979 17.1393 77.0223 18.7284C75.3198 20.3174 74.1847 22.9281 74.1847 24.7442C74.1847 26.4467 74.6387 28.6033 75.2063 29.5114C76.0008 30.7599 75.3198 32.122 72.9361 34.3921C71.1201 36.0947 69.6445 38.4783 69.6445 39.7269C69.6445 40.9754 70.3255 43.2455 71.0066 44.8346C71.8011 46.4237 72.7091 47.7857 73.0497 47.6722C73.3902 47.6722 74.2982 48.1262 75.0928 48.5803C76.3413 49.2613 76.3413 49.9423 75.0928 52.553C73.9577 54.9366 73.1632 55.5041 71.3471 54.8231C70.0985 54.4825 68.1689 54.0285 67.0339 54.0285C65.8988 53.915 65.1043 53.007 65.1043 51.6449C65.1043 50.3964 64.3097 48.2398 63.4017 46.7642C62.4937 45.4021 60.4506 43.6995 58.8615 43.132C56.8184 42.3375 55.0023 42.451 52.7322 43.359C49.6676 44.7211 49.2135 44.6076 47.0569 41.6564C45.3544 39.3863 43.6518 38.5918 40.9276 38.5918C38.9981 38.5918 36.1604 39.3863 34.6849 40.2944C33.3228 41.2024 32.1877 42.7915 32.1877 43.6995C32.1877 45.1751 31.8472 45.1751 28.7826 43.6995C26.853 42.7915 24.2424 42.224 22.7668 42.5645C21.4047 42.905 19.2481 44.1536 17.9996 45.5156C16.751 46.8777 15.7295 49.3748 15.7295 51.1909C15.7295 53.915 15.2754 54.4825 12.8918 54.4825C11.3028 54.4825 9.03265 55.1636 7.7841 55.9581C6.53554 56.8662 5.17347 58.9093 4.60595 60.4983C4.15193 62.2009 4.26543 64.8115 4.94646 66.4006C5.85451 68.7842 5.62749 69.6923 3.24388 72.0759C1.31429 74.0055 0.40625 76.1621 0.40625 78.8862C0.40625 81.3833 1.31429 83.7669 2.67636 85.129C3.92491 86.3775 5.51399 87.3991 6.08152 87.3991C6.64904 87.3991 6.42203 89.1017 5.40048 91.0313C3.81141 94.3229 3.81141 95.231 5.05997 98.0686C5.96801 99.8847 7.55709 101.814 8.57863 102.268C9.71369 102.836 11.8703 103.29 13.4594 103.29C15.0484 103.29 16.1835 103.971 16.1835 104.652C16.07 105.446 16.07 107.035 16.1835 108.057C16.1835 109.192 17.3185 111.122 18.5671 112.37C19.9292 113.732 22.3128 114.64 24.5829 114.64C26.626 114.64 29.0096 113.959 29.8041 113.165C31.0527 112.03 31.5067 112.143 31.9607 113.505C32.3012 114.413 33.5498 116.116 34.6849 117.137C36.6144 119.067 36.6144 119.294 34.4578 121.451C33.2093 122.699 32.1877 124.288 32.1877 124.856C32.1877 125.613 31.431 125.613 29.9176 124.856C28.6691 124.288 26.2855 123.721 24.4694 123.721C22.7668 123.607 20.2697 124.515 18.7941 125.65C17.0915 126.899 16.07 129.056 15.9565 131.439C15.7295 134.504 15.2754 135.071 12.8918 135.071C11.3028 135.071 9.03265 135.752 7.7841 136.547C6.53554 137.455 5.17347 139.498 4.60595 141.087C4.15193 143.13 4.37894 145.4 5.51399 147.557C6.42203 149.486 6.76255 150.962 6.08152 150.962C5.40048 150.962 3.92491 151.984 2.67636 153.232C1.31429 154.594 0.40625 156.978 0.40625 159.475C0.40625 161.972 1.31429 164.356 2.67636 165.718C3.92491 166.966 5.51399 167.988 6.08152 167.988C6.76255 167.988 6.42203 169.463 5.51399 171.393C4.60595 173.323 4.15193 175.933 4.49244 177.295C4.94646 178.771 6.08152 180.814 7.10307 181.949C8.12461 183.084 10.3947 183.879 12.3243 183.879C15.389 183.879 15.7295 184.219 15.9565 187.511C16.1835 189.554 17.205 192.164 18.2266 193.3C19.3616 194.321 21.4047 195.456 22.7668 195.797C24.2424 196.137 26.853 195.57 28.7826 194.662C31.8472 193.186 32.1877 193.186 32.1877 194.662C32.1877 195.57 33.3228 197.159 34.6849 198.067C36.1604 198.975 38.6575 199.769 40.3601 199.769C42.2897 199.769 44.7868 198.521 46.6029 196.591C49.554 193.64 50.0081 193.527 52.8457 194.889C55.1158 195.91 56.8184 196.024 58.8615 195.229C60.4506 194.548 62.4937 192.959 63.4017 191.483C64.3097 190.121 65.1043 187.851 65.1043 186.376C65.1043 184.446 65.7853 183.879 68.2824 183.879C69.985 183.879 72.0281 183.198 72.8226 182.403C73.9577 181.381 74.1847 181.608 74.1847 183.879C74.1847 185.468 74.6387 187.511 75.2063 188.419C76.0008 189.667 75.3198 191.029 72.9361 193.186C70.8931 195.229 69.6445 197.499 69.6445 199.429C69.6445 201.245 70.5525 203.629 71.5741 204.877C72.7091 206.239 74.2982 207.488 75.2063 207.715C76.4548 208.169 76.5683 208.85 75.4333 210.779C74.7522 212.255 74.1847 214.525 74.1847 215.887C74.1847 217.363 74.9792 219.633 75.8873 220.995C76.9088 222.584 79.1789 223.832 81.5626 224.173C84.7407 224.627 85.5352 225.195 85.5352 227.238C85.5352 228.713 86.3298 230.983 87.2378 232.345C88.1459 233.821 90.5295 235.183 92.5726 235.637C95.0697 235.978 97.2263 235.637 98.8154 234.502C101.199 232.799 101.426 232.799 101.994 234.956C102.334 236.205 104.377 238.021 106.534 238.929C109.485 240.177 111.301 240.291 113.344 239.496C114.933 238.815 116.976 237.34 117.884 236.091C119.246 234.275 120.041 234.048 121.857 234.956C123.105 235.637 125.149 236.091 126.397 236.091C127.646 236.091 130.029 234.956 131.618 233.48C133.207 232.118 134.57 229.621 134.683 227.919C134.91 225.422 135.478 224.741 137.521 224.741C138.996 224.741 141.72 223.265 143.536 221.335C145.353 219.406 146.828 217.136 146.828 216.228C146.828 215.32 146.261 213.39 145.58 211.914C144.558 209.758 144.785 208.963 147.282 206.239C149.325 204.196 150.233 201.926 150.233 199.202C150.233 196.137 149.439 194.662 146.942 192.618C143.99 190.348 143.877 189.894 145.353 187.851C146.261 186.489 146.601 184.446 146.261 182.744C145.466 180.019 145.58 180.019 147.623 181.835C148.758 182.971 151.028 183.879 152.73 183.879C155.227 183.879 155.909 184.446 155.909 186.376C155.909 187.851 156.703 190.121 157.611 191.483C158.519 192.959 160.562 194.548 162.151 195.229C164.194 196.024 165.897 195.91 168.054 194.889C171.005 193.527 171.459 193.64 174.296 196.591C176.226 198.521 178.723 199.769 180.539 199.769C182.355 199.769 184.852 198.975 186.214 198.067C187.69 197.159 188.825 195.57 188.825 194.662C188.825 193.186 189.166 193.186 192.23 194.662C194.16 195.57 196.77 196.137 198.133 195.797C199.608 195.456 201.765 194.208 203.013 192.846C204.262 191.483 205.283 188.986 205.283 187.17C205.283 184.446 205.737 183.879 208.121 183.879C209.71 183.879 212.094 183.084 213.456 182.176C214.931 181.268 216.293 178.884 216.747 176.728C217.088 174.344 216.747 172.188 215.612 170.485C214.591 169.123 214.364 167.988 214.931 167.988C215.612 167.988 217.088 166.966 218.336 165.718C219.699 164.356 220.607 161.972 220.607 159.475C220.607 156.978 219.699 154.594 218.336 153.232C217.088 151.984 215.612 150.962 214.931 150.962C214.25 150.962 214.591 149.827 215.612 148.351C216.747 146.762 217.088 144.606 216.747 142.109C216.293 140.066 214.931 137.682 213.456 136.774C212.094 135.866 209.71 135.071 208.121 135.071C205.737 135.071 205.283 134.504 205.17 131.326C205.056 128.942 204.035 127.012 202.332 125.65C200.857 124.515 197.905 123.607 195.862 123.721C193.933 123.721 192.003 124.288 191.663 124.856C191.322 125.423 190.641 125.991 189.96 125.991C189.279 125.991 188.825 125.196 188.825 124.288C188.825 123.38 187.804 121.791 186.555 120.883C184.398 119.294 184.398 119.067 186.328 117.137C187.463 116.116 188.712 114.413 189.052 113.505C189.506 112.143 189.96 112.03 191.209 113.278C192.117 114.073 194.16 114.64 195.862 114.64C197.678 114.64 199.835 114.3 200.857 113.732C201.878 113.278 203.467 111.462 204.375 109.533C205.283 107.603 205.737 105.446 205.397 104.652C204.943 103.744 205.851 103.29 208.121 103.29C210.051 103.29 212.548 102.268 213.796 101.02C215.045 99.7712 216.407 97.3875 216.747 95.5715C217.088 93.6419 216.747 91.5988 215.612 89.8962C214.591 88.5341 214.25 87.3991 214.931 87.3991C215.612 87.3991 217.088 86.3775 218.336 85.129C219.699 83.7669 220.607 81.3833 220.607 79.1132C220.607 77.1836 219.812 74.346 218.904 72.8704C217.996 71.5083 216.407 70.3733 215.499 70.3733C214.023 70.3733 214.023 70.0328 215.499 66.9681C216.407 65.152 216.974 62.4279 216.634 60.9523C216.293 59.5903 215.158 57.5472 214.137 56.4121C213.002 55.2771 210.732 54.2555 209.029 54.142C206.645 53.915 205.851 53.234 205.397 50.5099C205.056 48.6938 203.921 46.3102 202.786 45.2886C201.651 44.2671 199.608 43.132 198.246 42.678C196.77 42.3375 194.5 42.5645 193.138 43.2455C190.868 44.2671 190.074 44.0401 187.463 41.5429C185.306 39.4998 183.036 38.5918 180.312 38.5918C177.361 38.5918 175.658 39.3863 173.729 41.77C171.459 44.6076 171.005 44.7211 168.054 43.4725C165.897 42.451 164.194 42.3375 162.151 43.132C160.562 43.6995 158.519 45.4021 157.611 46.7642C156.703 48.2398 155.909 50.5099 155.909 51.8719C155.909 53.915 155.227 54.4825 152.73 54.4825C151.028 54.4825 149.098 55.0501 148.531 55.6176C147.774 56.45 146.904 55.8068 145.92 53.688C144.444 50.7369 144.558 50.2829 147.282 47.3317C149.325 45.2886 150.233 43.0185 150.233 40.2944C150.233 37.2297 149.439 35.7542 146.942 33.7111C143.877 31.441 143.763 30.9869 145.239 28.3763C146.147 26.7873 146.828 24.8577 146.828 24.0631C146.828 23.3821 145.58 21.112 143.99 19.2959C142.099 17.0258 140.093 15.8907 137.975 15.8907C135.478 15.8907 134.91 15.3232 134.683 12.7126C134.57 11.01 133.207 8.5129 131.845 7.03733C130.256 5.44825 127.873 4.54021 125.716 4.54021C123.9 4.54021 121.857 5.10774 121.176 5.78877C120.495 6.58331 119.019 5.90228 116.409 3.51866C114.252 1.47557 111.528 0 109.825 0C108.009 0 105.739 1.24856 103.923 3.29165Z" fill="black"/>
<path d="M106.08 4.88068C105.398 5.56171 104.944 7.71831 105.058 9.53439C105.285 11.3505 106.193 13.2801 107.101 13.9611C108.009 14.5286 110.166 14.7556 111.982 14.3016C114.138 13.8476 115.273 12.7125 115.727 10.4424C116.181 8.28584 115.727 6.81027 114.252 5.3347C113.117 4.19964 111.074 3.2916 109.825 3.40511C108.463 3.40511 106.761 4.08614 106.08 4.76717V4.88068ZM90.0753 9.42089C89.1672 10.1019 88.5997 11.918 88.7132 13.3936C88.8267 14.8691 89.7348 16.7987 90.6428 17.7068C91.5508 18.6148 93.2534 19.4094 94.3885 19.4094C95.41 19.5229 97.3396 18.3878 98.5882 17.1393C100.404 15.2097 100.631 14.1881 99.7232 11.691C98.8152 9.42089 97.6801 8.51285 95.183 8.28584C93.2534 8.05883 90.9833 8.62635 90.0753 9.42089ZM121.289 10.8965C119.814 13.3936 119.814 14.0746 121.289 16.5717C122.424 18.3878 124.013 19.4094 125.829 19.4094C127.646 19.4094 129.235 18.3878 130.37 16.5717C131.845 14.0746 131.845 13.3936 130.37 10.8965C129.235 9.08037 127.646 8.05883 125.829 8.05883C124.013 8.05883 122.424 9.08037 121.289 10.8965ZM78.7247 20.7714C77.8167 21.566 77.2492 23.382 77.3627 24.9711C77.4762 26.6737 78.1572 28.6033 78.9517 29.3978C79.7463 30.1924 81.4489 30.7599 82.6974 30.7599C83.946 30.8734 85.8756 29.9654 86.8971 28.8303C88.0322 27.6952 88.9402 25.9927 88.9402 25.0846C88.9402 24.1766 88.1457 22.474 87.0106 21.4525C85.8756 20.3174 83.946 19.4094 82.6974 19.4094C81.3354 19.4094 79.6328 19.9769 78.7247 20.7714ZM105.966 20.7714C105.058 21.4525 104.49 23.382 104.604 24.9711C104.717 26.6737 105.398 28.6033 106.193 29.3978C106.988 30.1924 108.69 30.7599 109.939 30.7599C111.187 30.8734 113.23 29.7383 114.479 28.4898C116.636 26.2197 116.636 25.8792 115.046 23.0415C114.025 21.2254 112.095 19.8634 110.506 19.6364C108.917 19.4094 106.874 19.9769 105.966 20.7714ZM132.64 22.247C131.164 24.7441 131.164 25.4251 132.64 27.9223C133.775 29.7383 135.364 30.7599 137.18 30.7599C138.996 30.7599 140.585 29.7383 141.72 27.9223C143.196 25.4251 143.196 24.7441 141.72 22.247C140.585 20.4309 138.996 19.4094 137.18 19.4094C135.364 19.4094 133.775 20.4309 132.64 22.247ZM98.5882 21.3389C98.0206 21.6795 97.6801 22.474 97.7936 23.0415C97.9071 23.4955 98.8152 23.9496 99.7232 23.9496C100.631 23.9496 101.426 23.155 101.426 22.247C101.426 21.3389 100.972 20.5444 100.518 20.5444C99.9502 20.5444 99.1557 20.8849 98.5882 21.3389ZM118.906 21.3389C118.452 21.6795 118.111 22.474 118.225 23.0415C118.338 23.4955 119.246 23.9496 120.154 23.9496C121.062 23.9496 121.857 23.4955 121.97 22.928C122.084 22.247 121.63 21.566 120.949 21.2254C120.381 20.8849 119.473 20.8849 118.906 21.3389ZM92.3454 28.7168C91.4373 29.3978 90.8698 31.2139 90.9833 32.6895C91.0968 34.165 92.0049 36.0946 92.9129 37.0027C93.8209 37.9107 95.5235 38.7053 96.6586 38.7053C97.6801 38.8188 99.6097 37.6837 100.858 36.4352C102.674 34.5056 102.901 33.484 101.993 30.9869C101.085 28.7168 99.9502 27.8087 97.4531 27.5817C95.5235 27.3547 93.2534 27.9223 92.3454 28.7168ZM118.452 29.5113C117.771 30.7599 117.203 32.576 117.203 33.484C117.317 34.5056 118.565 36.0946 120.154 37.0027C121.743 37.9107 124.013 38.4782 125.262 38.1377C126.624 37.7972 127.873 36.2081 128.213 34.3921C128.667 32.6895 128.44 30.5329 127.873 29.6248C127.192 28.7168 125.148 27.8087 123.219 27.5817C120.722 27.3547 119.473 27.8088 118.452 29.5113ZM74.1845 37.4567C73.5035 38.7053 72.8225 40.4078 72.936 41.2024C72.936 41.9969 73.844 43.586 74.9791 44.721C76.4546 46.1966 77.9302 46.6506 80.2003 46.1966C82.3569 45.7426 83.492 44.6075 83.946 42.4509C84.4 40.6349 84.173 38.4782 83.6055 37.5702C82.9244 36.6622 80.8813 35.7541 78.9517 35.5271C76.4546 35.3001 75.2061 35.7541 74.1845 37.4567ZM106.08 36.6622C105.398 37.4567 104.944 39.6133 105.058 41.5429C105.285 44.04 106.193 45.1751 108.463 46.0831C110.96 46.9911 111.982 46.7641 113.911 44.9481C115.16 43.6995 116.295 41.7699 116.181 40.6348C116.181 39.6133 115.387 37.9107 114.479 37.0027C113.571 36.0946 111.528 35.3001 110.052 35.3001C108.577 35.3001 106.761 35.9811 106.08 36.7757V36.6622ZM137.18 37.0027C136.158 37.9107 135.364 39.6133 135.364 40.6348C135.364 41.6564 136.499 43.586 137.747 44.8345C139.677 46.6506 140.699 46.8776 143.196 45.9696C145.466 45.0616 146.374 43.9265 146.601 41.4294C146.714 39.4998 146.26 37.3432 145.466 36.5487C144.671 35.7541 142.855 35.0731 141.493 35.1866C140.131 35.1866 138.202 35.9811 137.18 37.0027ZM130.37 38.5918C130.029 39.1593 130.029 40.0673 130.37 40.5213C130.71 41.0889 131.732 41.0889 132.64 40.5213C133.548 40.0673 134.115 39.1593 133.775 38.5918C133.434 38.0242 132.753 37.4567 132.072 37.4567C131.505 37.4567 130.824 38.0242 130.37 38.5918ZM87.8052 40.8619C87.8052 41.4294 88.8267 41.9969 90.0753 41.9969C91.3238 41.9969 92.3454 41.4294 92.3454 40.8619C92.3454 40.2943 91.3238 39.7268 90.0753 39.7268C88.8267 39.7268 87.8052 40.2943 87.8052 40.8619ZM35.5927 44.1535C34.9117 45.4021 34.3442 47.2182 34.3442 48.1262C34.4577 49.1478 35.7062 50.7368 37.2953 51.6449C38.8844 52.5529 41.1545 53.1204 42.403 52.7799C43.7651 52.4394 45.0137 50.8503 45.3542 49.0342C45.8082 47.3317 45.5812 45.1751 45.0137 44.267C44.3326 43.359 42.2895 42.4509 40.3599 42.2239C37.8628 41.9969 36.6143 42.4509 35.5927 44.1535ZM93.3669 43.9265C92.0049 44.8345 90.9833 46.6506 90.9833 48.0127C91.0968 49.3748 92.2319 51.5314 93.4804 52.7799C95.5235 54.7095 96.2046 54.823 98.5882 53.5745C100.177 52.8934 101.766 51.3044 102.107 50.1693C102.561 49.1478 102.334 47.2182 101.766 45.9696C101.199 44.721 99.6097 43.359 98.2476 43.0185C96.7721 42.5644 94.729 42.905 93.3669 43.9265ZM119.019 44.8345C117.544 47.3317 117.544 48.0127 119.019 50.5098C120.041 52.2124 121.743 53.3474 123.332 53.3474C124.808 53.3474 126.51 52.6664 127.305 51.8719C128.1 51.1908 128.667 49.2613 128.667 47.6722C128.667 46.0831 128.1 44.1535 127.305 43.359C126.51 42.5644 124.694 41.9969 123.332 41.9969C121.857 41.9969 120.041 43.132 119.019 44.8345ZM176.339 43.359C175.431 44.04 174.864 45.8561 174.977 47.3317C175.091 48.8072 175.999 50.7368 176.907 51.6449C177.815 52.5529 179.29 53.3474 180.085 53.3474C180.766 53.461 182.696 52.4394 184.285 51.1908C186.782 49.2613 187.009 48.5802 185.987 45.7426C185.079 43.359 183.944 42.4509 181.447 42.2239C179.517 41.9969 177.247 42.5644 176.339 43.359ZM20.837 47.6722C19.5885 48.9207 18.5669 50.5098 18.5669 51.0773C18.5669 51.6449 19.1345 53.2339 19.702 54.4825C20.383 55.9581 21.9721 56.7526 24.0152 56.7526C25.7178 56.7526 27.7609 56.0716 28.5554 55.277C29.3499 54.596 29.9175 52.5529 29.9175 50.7368C29.9175 48.8072 29.1229 47.2182 27.6474 46.5371C26.3988 45.9696 24.9232 45.4021 24.2422 45.4021C23.6747 45.4021 22.0856 46.4236 20.837 47.6722ZM52.051 47.4452C50.9159 48.5802 50.0079 50.5098 50.1214 51.7584C50.2349 52.8934 50.9159 54.596 51.7105 55.3905C52.505 56.1851 54.4346 56.7526 56.1372 56.7526C57.7263 56.7526 59.5423 56.0716 60.3369 55.277C61.1314 54.596 61.6989 52.8934 61.6989 51.6449C61.8124 50.3963 60.9044 48.4667 59.7694 47.4452C58.6343 46.3101 56.9317 45.4021 55.9102 45.4021C54.8886 45.4021 53.186 46.3101 52.051 47.4452ZM161.016 47.4452C159.881 48.5802 158.973 50.5098 159.086 51.7584C159.2 52.8934 159.881 54.596 160.676 55.3905C161.47 56.1851 163.4 56.7526 165.102 56.7526C166.691 56.7526 168.507 56.0716 169.302 55.3905C170.097 54.596 170.664 52.8934 170.664 51.6449C170.778 50.3963 169.869 48.4667 168.734 47.4452C167.599 46.3101 165.897 45.4021 164.875 45.4021C163.854 45.4021 162.151 46.3101 161.016 47.4452ZM193.252 46.8776C192.23 47.5587 191.095 49.0342 190.754 49.9423C190.414 50.8503 190.868 52.7799 191.776 54.2555C192.798 55.9581 194.5 56.7526 196.77 56.7526C199.04 56.7526 200.554 55.9959 201.31 54.4825C201.991 53.2339 202.446 51.6449 202.446 51.0773C202.446 50.5098 201.424 48.9207 200.175 47.6722C198.927 46.4236 197.224 45.4021 196.43 45.4021C195.635 45.4021 194.16 46.0831 193.252 46.8776ZM106.534 51.7584C105.512 52.6664 104.717 54.596 104.717 55.9581C104.717 57.3201 105.398 59.1362 106.193 59.9308C106.988 60.7253 109.144 61.1793 111.074 61.0658C113.571 60.8388 114.706 59.9308 115.614 57.6606C116.522 55.1635 116.295 54.142 114.479 52.2124C113.23 50.9638 111.301 49.8288 110.279 49.9423C109.258 49.9423 107.555 50.7368 106.534 51.7584ZM78.8382 52.4394C78.1572 53.2339 77.7032 55.3905 77.8167 57.3201C78.0437 59.8172 78.9518 60.9523 81.3354 61.8603C83.946 62.7684 84.854 62.5414 87.0106 60.4983C89.0537 58.3417 89.2807 57.4336 88.3727 54.823C87.4646 52.4394 86.3296 51.5314 83.719 51.3044C81.7894 51.0773 79.6328 51.6449 78.8382 52.4394ZM133.207 52.4394C132.299 53.2339 131.732 55.277 131.845 56.9796C131.959 59.0227 132.98 60.6118 134.683 61.4063C136.499 62.3144 137.861 62.3144 139.791 61.4063C141.153 60.7253 142.515 59.1362 142.855 57.8877C143.196 56.6391 142.969 54.596 142.288 53.3474C141.607 51.8719 140.018 51.0773 137.975 51.0773C136.272 51.0773 134.115 51.6449 133.207 52.4394ZM10.8486 58.0012C9.4865 58.5687 8.12444 60.0443 7.78392 61.2928C7.44341 62.5414 7.78392 64.5845 8.35145 65.833C9.03248 67.0816 10.6216 68.4437 12.0971 68.7842C13.6862 69.1247 15.3888 68.6707 16.6373 67.3086C17.7724 66.1736 18.5669 64.0169 18.3399 62.5414C18.1129 61.0658 16.9779 59.2497 15.7293 58.4552C14.2159 57.4715 12.589 57.3201 10.8486 58.0012ZM64.0826 58.4552C62.38 59.7037 61.4719 61.2928 61.5854 63.1089C61.5854 64.698 62.834 66.5141 64.5366 67.5356C67.0337 69.0112 67.7147 69.0112 70.2118 67.5356C72.0279 66.4006 73.0495 64.8115 73.0495 62.9954C73.0495 61.2928 72.0279 59.4767 70.5524 58.4552C69.0768 57.5471 67.7147 56.7526 67.3742 56.7526C67.0337 56.7526 65.5581 57.5471 64.0826 58.4552ZM98.5882 57.5471C98.0206 57.8877 97.6801 58.6822 97.7936 59.2497C97.9071 59.7037 98.8152 60.1578 99.7232 60.1578C100.631 60.1578 101.426 59.3632 101.426 58.4552C101.426 57.5471 100.972 56.7526 100.518 56.7526C99.9502 56.7526 99.1557 57.0931 98.5882 57.5471ZM119.587 58.4552C119.587 59.3632 120.381 60.1578 121.289 60.1578C122.197 60.1578 122.992 59.3632 122.992 58.4552C122.992 57.5471 122.197 56.7526 121.289 56.7526C120.381 56.7526 119.587 57.5471 119.587 58.4552ZM150.347 58.4552C148.644 59.7037 147.736 61.2928 147.849 63.1089C147.849 64.698 149.098 66.5141 150.801 67.5356C153.298 69.0112 153.979 69.0112 156.476 67.5356C158.292 66.4006 159.313 64.8115 159.313 62.9954C159.313 61.2928 158.292 59.4767 156.816 58.4552C155.341 57.5471 153.979 56.7526 153.638 56.7526C153.298 56.7526 151.822 57.5471 150.347 58.4552ZM205.851 57.5471C204.943 57.8877 203.808 58.7957 203.354 59.4767C202.9 60.1578 202.446 61.8603 202.446 63.3359C202.446 64.698 203.581 66.6276 205.056 67.5356C206.418 68.4437 207.894 69.2382 208.461 69.2382C208.915 69.2382 210.277 68.2166 211.526 66.9681C212.774 65.7195 213.796 63.9034 213.796 62.9954C213.796 62.0874 212.774 60.2713 211.526 59.0227C210.277 57.7742 208.915 56.7526 208.461 56.8661C207.894 56.8661 206.759 57.2066 205.851 57.5471ZM35.5927 59.2497C34.6847 60.0443 34.1172 61.6333 34.2307 62.9954C34.3442 64.244 35.2522 66.1735 36.3873 67.1951C37.5223 68.3301 39.2249 69.2382 40.1329 69.2382C41.041 69.2382 42.7436 68.4437 43.7651 67.3086C44.9002 66.1736 45.8082 64.244 45.8082 62.9954C45.8082 61.7468 45.2407 60.0443 44.4461 59.2497C43.6516 58.4552 41.722 57.8877 40.1329 57.8877C38.4304 57.8877 36.5008 58.4552 35.5927 59.2497ZM176.339 59.2497C175.431 60.0443 174.864 62.0874 174.977 63.7899C175.091 65.833 176.112 67.4221 177.815 68.2166C179.631 69.1247 180.993 69.1247 182.923 68.2166C184.285 67.5356 185.647 65.9465 185.987 64.698C186.328 63.4494 186.101 61.4063 185.42 60.1578C184.739 58.6822 183.15 57.8877 181.107 57.8877C179.404 57.8877 177.247 58.4552 176.339 59.2497ZM28.7824 60.7253C28.7824 61.6333 29.3499 62.3144 30.1445 62.2009C30.8255 61.9738 31.5065 61.1793 31.5065 60.4983C31.62 59.7037 31.0525 59.0227 30.258 59.0227C29.4634 59.0227 28.7824 59.8172 28.7824 60.7253ZM48.6458 60.1578C48.3053 60.7253 48.6458 61.5198 49.2134 61.8603C49.8944 62.2009 50.9159 62.2009 51.4835 61.8603C52.1645 61.5198 52.3915 60.7253 52.051 60.1578C51.7105 59.5902 51.0294 59.0227 50.3484 59.0227C49.7809 59.0227 49.0999 59.5902 48.6458 60.1578ZM168.961 60.1578C168.621 60.7253 168.848 61.5198 169.529 61.8603C170.21 62.2009 171.118 62.2009 171.799 61.8603C172.48 61.5198 172.707 60.7253 172.367 60.1578C172.026 59.5902 171.345 59.0227 170.664 59.0227C170.097 59.0227 169.415 59.5902 168.961 60.1578ZM188.938 60.2713C189.165 61.0658 190.073 61.8603 190.868 61.9738C191.549 62.2009 192.23 61.6333 192.23 60.7253C192.23 59.8172 191.435 59.0227 190.414 59.0227C189.392 59.0227 188.711 59.5902 188.938 60.2713ZM90.0753 63.7899C89.1672 64.5845 88.5997 66.287 88.7132 67.7626C88.8267 69.2382 89.7348 71.1678 90.6428 72.0758C91.5508 72.9839 93.2534 73.7784 94.3885 73.7784C95.41 73.8919 97.2261 72.9839 98.2476 71.8488C99.3827 70.7138 100.291 68.8977 100.291 67.8761C100.291 66.7411 99.4962 65.0385 98.5882 64.1305C97.6801 63.2224 95.7505 62.4279 94.275 62.4279C92.7994 62.4279 90.9833 62.9954 90.0753 63.7899ZM121.289 65.2655C119.814 67.7626 119.814 68.4437 121.289 70.9408C122.424 72.7569 124.013 73.7784 125.829 73.7784C127.646 73.7784 129.235 72.7569 130.37 70.9408C131.845 68.4437 131.845 67.7626 130.37 65.2655C129.235 63.4494 127.646 62.4279 125.829 62.4279C124.013 62.4279 122.424 63.4494 121.289 65.2655ZM23.1071 66.9681C21.8586 68.2166 20.837 69.8057 20.837 70.3732C20.837 70.9408 21.4046 72.5298 21.9721 73.7784C22.7666 75.3675 24.2422 76.0485 27.0798 76.0485C29.9175 76.0485 31.393 75.3675 32.1876 73.7784C32.8686 72.5298 33.3226 70.9408 33.3226 70.3732C33.3226 69.8057 32.3011 68.2166 31.0525 66.9681C29.804 65.7195 27.9879 64.698 27.0798 64.698C26.1718 64.698 24.3557 65.7195 23.1071 66.9681ZM50.0079 66.1735C48.6458 67.0816 48.0783 68.6328 48.3053 70.8273C48.5323 72.6434 49.4404 74.5729 50.3484 75.254C51.2565 75.8215 53.4131 76.0485 55.2291 75.5945C57.3857 75.1405 58.4073 74.0054 58.8613 72.0758C59.2018 70.2597 58.6343 68.3301 57.3857 66.8546C56.3642 65.606 54.6616 64.5845 53.7536 64.698C52.732 64.698 51.0294 65.379 50.0079 66.1735ZM163.286 66.7411C162.151 67.8761 161.243 69.8057 161.357 71.0543C161.47 72.1893 162.151 73.8919 162.946 74.6864C163.74 75.481 165.67 76.0485 167.372 76.0485C168.961 76.0485 170.778 75.3675 171.572 74.6864C172.367 73.8919 172.934 72.1893 172.934 70.9408C173.048 69.6922 172.14 67.7626 171.005 66.7411C169.869 65.606 168.167 64.698 167.145 64.698C166.124 64.698 164.421 65.606 163.286 66.7411ZM189.392 67.5356C187.917 70.0327 187.917 70.7138 189.392 73.2109C190.527 75.027 192.117 76.0485 193.933 76.0485C195.749 76.0485 197.338 75.027 198.473 73.2109C199.948 70.7138 199.948 70.0327 198.473 67.5356C197.338 65.7195 195.749 64.698 193.933 64.698C192.117 64.698 190.527 65.7195 189.392 67.5356ZM107.215 67.5356C105.512 68.7842 104.604 70.3732 104.717 72.1893C104.717 73.6649 105.966 75.708 107.442 76.616C108.804 77.5241 110.279 78.3186 110.847 78.3186C111.301 78.3186 112.663 77.2971 113.911 76.0485C115.16 74.8 116.181 72.9839 116.181 72.0758C116.181 71.1678 115.16 69.3517 113.911 68.1031C112.663 66.8546 111.301 65.833 110.847 65.833C110.279 65.833 108.69 66.6276 107.215 67.5356ZM5.96784 74.1189C4.94629 74.8 3.81124 76.2755 3.47072 77.1836C3.13021 78.0916 3.58423 80.0212 4.49227 81.4968C5.51382 83.1994 7.2164 83.9939 9.4865 83.9939C11.7566 83.9939 13.27 83.2372 14.0267 81.7238C14.7077 80.4752 15.1618 78.8861 15.1618 78.3186C15.1618 77.7511 14.1402 76.162 12.8917 74.9135C11.6431 73.6649 9.94052 72.6433 9.14599 72.6433C8.35145 72.6433 6.87588 73.3244 5.96784 74.1189ZM36.6143 74.8C34.2307 76.616 34.0036 77.4106 35.0252 80.2482C35.9332 82.6318 37.0683 83.5399 39.5654 83.7669C41.495 83.8804 43.6516 83.4264 44.4461 82.6318C45.2407 81.8373 45.9217 80.1347 45.9217 78.8861C45.9217 77.6376 45.0137 75.708 43.8786 74.6864C42.7436 73.5514 41.268 72.6433 40.587 72.6433C39.9059 72.6433 38.0898 73.6649 36.6143 74.8ZM67.9417 74.6864C66.8067 75.8215 65.8986 77.7511 66.0121 78.9997C66.0121 80.1347 66.8067 81.8373 67.6012 82.6318C68.3958 83.4264 70.5524 83.8804 72.4819 83.7669C74.9791 83.5399 76.1141 82.6318 77.0222 80.2482C78.0437 77.4106 77.8167 76.7295 75.3196 74.8C73.7305 73.5514 71.9144 72.5298 71.2334 72.6433C70.5524 72.6433 69.0768 73.5514 67.9417 74.6864ZM145.579 74.8C143.196 76.616 142.969 77.4106 143.99 80.2482C144.898 82.6318 146.033 83.5399 148.531 83.7669C150.46 83.8804 152.617 83.4264 153.411 82.6318C154.206 81.8373 154.887 80.1347 154.887 78.8861C154.887 77.6376 153.979 75.708 152.844 74.6864C151.709 73.5514 150.233 72.6433 149.552 72.6433C148.871 72.6433 147.055 73.6649 145.579 74.8ZM176.907 74.6864C175.772 75.8215 174.864 77.7511 174.977 78.9997C174.977 80.1347 175.772 81.8373 176.566 82.6318C177.361 83.4264 179.517 83.8804 181.447 83.7669C183.944 83.5399 185.079 82.6318 185.987 80.2482C187.009 77.4106 186.782 76.7295 184.285 74.8C182.696 73.5514 180.879 72.5298 180.198 72.6433C179.517 72.6433 178.042 73.5514 176.907 74.6864ZM209.596 73.4379C208.802 73.6649 207.667 74.9135 206.986 76.162C206.229 77.5998 206.229 79.2645 206.986 81.1563C207.78 83.3129 208.915 83.9939 211.412 83.9939C213.229 83.9939 215.612 83.1993 216.52 82.2913C217.542 81.3833 218.336 79.7942 218.336 78.8861C218.336 77.9781 217.315 76.162 216.066 74.9135C214.818 73.6649 213.115 72.6433 212.434 72.7569C211.639 72.7569 210.277 73.0974 209.596 73.4379ZM60.5639 77.7511C60.5639 78.6591 61.3584 79.4537 62.2665 79.4537C63.1745 79.4537 63.969 78.6591 63.969 77.7511C63.969 76.8431 63.1745 76.0485 62.2665 76.0485C61.3584 76.0485 60.5639 76.8431 60.5639 77.7511ZM200.743 77.1836C200.402 77.7511 200.743 78.5456 201.31 78.8861C201.991 79.2267 203.013 79.2267 203.581 78.8861C204.262 78.5456 204.489 77.7511 204.148 77.1836C203.808 76.616 203.127 76.0485 202.446 76.0485C201.878 76.0485 201.197 76.616 200.743 77.1836ZM18.5669 78.8861C18.5669 79.7942 19.3615 80.5887 20.2695 80.5887C21.1775 80.5887 21.9721 79.7942 21.9721 78.8861C21.9721 77.9781 21.1775 77.1836 20.2695 77.1836C19.3615 77.1836 18.5669 77.9781 18.5669 78.8861ZM159.427 78.7726C159.427 79.7942 159.995 80.3617 160.789 80.2482C161.47 80.0212 162.038 79.3402 161.924 78.7726C161.697 78.2051 161.13 77.5241 160.562 77.4106C159.995 77.1836 159.541 77.7511 159.427 78.7726ZM22.5396 83.0858C21.4046 84.4479 20.61 86.264 20.7235 87.0585C20.837 87.8531 21.6316 89.3286 22.5396 90.2367C23.4477 91.1447 25.4908 91.9393 27.0798 91.9393C28.7824 91.9393 30.5985 90.9177 31.5065 89.4421C32.4146 87.9666 32.8686 86.037 32.5281 85.1289C32.1876 84.2209 31.0525 82.7453 30.031 81.9508C29.0094 81.1562 27.3068 80.5887 26.2853 80.5887C25.2637 80.5887 23.5612 81.7238 22.5396 83.0858ZM49.2134 81.9508C48.3053 82.7453 47.7378 84.3344 47.8513 85.6965C47.9648 86.945 48.8728 88.8746 50.0079 89.8962C51.1429 91.0312 52.8455 91.9393 53.7536 91.9393C54.6616 91.9393 56.3642 91.1447 57.3857 90.0097C58.5208 88.8746 59.4288 86.945 59.4288 85.6965C59.4288 84.4479 58.8613 82.7453 58.0668 81.9508C57.2722 81.1562 55.3426 80.5887 53.7536 80.5887C52.051 80.5887 50.1214 81.1562 49.2134 81.9508ZM163.286 82.4048C162.265 83.3129 161.47 85.2424 161.47 86.6045C161.47 87.9666 162.151 89.7827 162.946 90.5772C163.74 91.3717 165.897 91.8258 167.826 91.7123C170.324 91.4852 171.459 90.5772 172.367 88.3071C173.275 85.81 173.048 84.7884 171.232 82.8588C169.983 81.6103 168.053 80.4752 167.032 80.5887C166.01 80.5887 164.308 81.3833 163.286 82.4048ZM189.506 83.1994C188.598 84.5614 188.144 86.491 188.484 87.399C188.825 88.3071 189.96 89.7827 190.981 90.5772C192.003 91.3717 193.479 91.9393 194.273 91.9393C194.954 91.9393 196.657 90.9177 197.905 89.6692C199.154 88.4206 200.175 86.6045 200.175 85.6965C200.175 84.7884 199.381 83.1993 198.473 82.2913C197.565 81.3833 195.522 80.5887 193.933 80.5887C192.344 80.5887 190.527 81.6103 189.506 83.1994ZM8.69196 91.4852C6.98939 93.8688 6.87588 94.7769 8.12444 97.1605C9.03248 99.0901 10.3945 99.8846 12.6647 99.8846C14.3672 99.8846 16.4103 99.2036 17.2049 98.5226C17.9994 97.728 18.5669 95.6849 18.5669 93.9824C18.5669 91.9393 17.7724 90.3502 16.2968 89.6692C15.0483 89.1016 13.2322 88.5341 12.3241 88.5341C11.4161 88.5341 9.71351 89.8962 8.69196 91.4852ZM35.2522 91.2582C34.1172 93.6418 34.2307 94.5499 35.9332 96.9335C36.9548 98.5226 38.6574 99.8846 39.5654 99.8846C40.4735 99.8846 42.2895 99.3171 43.5381 98.7496C45.0137 98.0685 45.8082 96.4795 45.8082 94.5499C45.8082 92.7338 45.2407 90.6907 44.4461 89.8962C43.6516 89.1016 41.6085 88.5341 39.7924 88.5341C37.6358 88.5341 36.2738 89.3286 35.2522 91.2582ZM63.288 90.9177C61.5854 92.7338 61.3584 93.7553 62.2665 96.2525C63.1745 98.5226 64.3096 99.4306 66.8067 99.6576C68.7363 99.7711 70.8929 99.3171 71.6874 98.5226C72.482 97.728 73.163 95.9119 73.0495 94.5499C73.0495 93.0743 72.2549 91.1447 71.3469 90.2367C70.4389 89.3286 68.7363 88.5341 67.4877 88.5341C66.3527 88.5341 64.4231 89.5556 63.288 90.9177ZM149.666 90.5772C148.53 91.7123 147.622 93.6418 147.736 94.8904C147.849 96.0254 148.53 97.728 149.325 98.5226C150.12 99.3171 152.049 99.8846 153.752 99.8846C155.341 99.8846 157.157 99.2036 157.951 98.4091C158.746 97.728 159.313 96.0254 159.313 94.7769C159.427 93.5283 158.519 91.5987 157.384 90.5772C156.249 89.4421 154.546 88.5341 153.525 88.5341C152.503 88.5341 150.801 89.4421 149.666 90.5772ZM176.339 89.8962C175.431 90.6907 174.864 92.2798 174.977 93.6418C175.091 94.8904 175.999 96.82 177.134 97.8415C178.269 98.9766 179.971 99.8846 180.88 99.8846C181.788 99.8846 183.49 99.0901 184.512 97.955C185.647 96.82 186.555 94.8904 186.555 93.6418C186.555 92.3933 185.987 90.6907 185.193 89.8962C184.398 89.1016 182.469 88.5341 180.88 88.5341C179.177 88.5341 177.247 89.1016 176.339 89.8962ZM204.262 89.7827C202.786 90.4637 202.105 92.0528 202.219 93.9824C202.332 95.6849 203.013 97.728 203.808 98.5226C204.602 99.3171 206.759 99.7711 208.688 99.6576C211.185 99.4306 212.32 98.5226 213.229 96.2525C214.137 93.7553 213.91 92.7338 212.093 90.8042C210.845 89.5556 209.029 88.5341 208.121 88.5341C207.213 88.5341 205.397 89.1016 204.262 89.7827ZM49.7809 95.0039C49.2134 95.3444 48.8728 96.139 48.9864 96.7065C49.0999 97.1605 50.0079 97.6145 50.9159 97.6145C51.824 97.6145 52.6185 96.82 52.6185 95.9119C52.6185 95.0039 52.1645 94.2094 51.7105 94.2094C51.1429 94.2094 50.3484 94.5499 49.7809 95.0039ZM190.641 95.5714C190.187 96.366 190.187 97.501 190.868 98.1821C191.625 98.9388 192.268 98.7496 192.798 97.6145C193.252 96.7065 193.138 95.4579 192.571 95.0039C192.003 94.4364 191.208 94.6634 190.641 95.5714ZM28.7824 97.047C28.7824 97.955 29.3499 98.6361 30.1445 98.4091C30.8255 98.2956 31.5065 97.501 31.5065 96.7065C31.62 96.0254 31.0525 95.3444 30.258 95.3444C29.4634 95.3444 28.7824 96.139 28.7824 97.047ZM169.188 96.139C168.734 96.7065 168.734 97.3875 168.961 97.8415C169.302 98.4091 170.097 98.7496 170.664 98.7496C171.345 98.7496 171.799 97.955 171.799 97.047C171.799 96.139 171.345 95.3444 170.891 95.3444C170.324 95.3444 169.529 95.6849 169.188 96.139ZM20.837 102.155C19.5885 103.403 18.5669 105.106 18.5669 105.9C18.5669 106.581 19.1345 108.057 19.929 109.079C20.7235 110.1 22.1991 111.235 23.1071 111.576C24.0152 111.916 25.9448 111.462 27.4203 110.554C29.1229 109.533 29.9175 107.83 29.9175 105.56C29.9175 103.29 29.1608 101.776 27.6474 101.02C26.3988 100.452 24.9232 99.8846 24.2422 99.8846C23.6747 99.8846 22.0856 100.906 20.837 102.155ZM52.1645 101.928C51.1429 102.949 50.4619 105.106 50.5754 106.695C50.8024 108.284 52.051 110.1 53.7536 110.895C56.0237 112.03 57.0452 112.03 58.8613 110.781C60.1099 109.987 61.2449 108.057 61.4719 106.581C61.5854 105.106 60.9044 102.949 59.7694 101.814C58.6343 100.679 56.9317 99.7711 55.9102 99.8846C54.8886 99.8846 53.186 100.793 52.1645 101.928ZM161.016 101.928C159.881 103.063 158.973 104.992 159.086 106.241C159.2 107.376 159.881 109.079 160.676 109.873C161.47 110.668 163.4 111.235 165.102 111.235C166.691 111.235 168.507 110.554 169.302 109.873C170.097 109.079 170.664 107.376 170.664 106.127C170.778 104.879 169.869 102.949 168.734 101.928C167.599 100.793 165.897 99.8846 164.875 99.8846C163.854 99.8846 162.151 100.793 161.016 101.928ZM193.252 101.36C192.23 102.041 191.095 103.63 190.641 104.765C190.187 106.014 190.981 107.716 192.798 109.533C194.614 111.349 196.316 112.143 197.678 111.689C198.7 111.235 200.289 110.1 201.083 109.079C201.878 108.057 202.446 106.581 202.446 105.787C202.446 105.106 201.424 103.403 200.175 102.155C198.927 100.906 197.224 99.8846 196.43 99.8846C195.635 99.8846 194.16 100.566 193.252 101.36ZM36.2738 106.468C34.9117 107.717 34.4577 109.419 34.9117 111.576C35.3657 113.732 36.5008 114.867 38.7709 115.321C40.4735 115.775 42.6301 115.548 43.5381 114.981C44.4461 114.3 45.3542 112.37 45.5812 110.554C45.8082 108.36 45.2407 106.771 43.8786 105.787C42.7436 104.992 41.041 104.425 40.0194 104.425C38.9979 104.425 37.2953 105.333 36.2738 106.468ZM177.134 105.9C175.772 106.808 175.204 108.36 175.431 110.554C175.658 112.37 176.566 114.3 177.474 114.981C178.382 115.548 180.539 115.775 182.355 115.321C184.512 114.867 185.533 113.732 185.987 111.803C186.328 109.987 185.76 108.057 184.512 106.581C183.49 105.333 181.788 104.311 180.88 104.425C179.858 104.425 178.155 105.106 177.134 105.9ZM36.1603 124.402C35.1387 125.31 34.3442 127.012 34.3442 128.034C34.3442 129.055 35.4792 130.985 36.7278 132.234C38.6574 134.05 39.6789 134.277 42.176 133.369C44.4461 132.461 45.3542 131.326 45.5812 128.828C45.6947 126.899 45.2407 124.742 44.4461 123.948C43.6516 123.153 41.8355 122.472 40.4735 122.586C39.1114 122.586 37.1818 123.38 36.1603 124.402ZM176.339 123.948C175.431 124.742 174.864 126.445 174.977 127.92C175.091 129.396 175.999 131.326 176.907 132.234C177.815 133.142 179.517 133.936 180.652 133.936C181.674 134.05 183.49 133.142 184.512 132.007C185.647 130.872 186.555 129.055 186.555 127.92C186.555 126.899 185.76 125.196 184.852 124.288C183.944 123.38 182.015 122.586 180.539 122.586C179.063 122.586 177.247 123.153 176.339 123.948ZM20.9505 128.147C19.5885 129.51 18.5669 131.099 18.5669 131.666C18.5669 132.234 18.9074 133.596 19.475 134.617C19.929 135.639 21.1775 137.001 22.3126 137.455C23.4477 138.022 25.3772 138.022 27.0798 137.341C29.1229 136.547 29.9175 135.412 29.9175 133.028C29.9175 131.326 29.4634 129.396 29.0094 128.715C28.5554 128.034 27.0798 127.126 25.7178 126.672C24.0152 126.104 22.5396 126.558 20.9505 128.147ZM52.732 127.693C51.0294 128.942 50.1214 130.531 50.2349 132.347C50.2349 133.936 51.4835 135.752 53.186 136.774C55.6832 138.249 56.3642 138.249 58.8613 136.774C60.6774 135.639 61.6989 134.05 61.6989 132.234C61.6989 130.531 60.6774 128.715 59.2018 127.693C57.7263 126.785 56.3642 125.991 56.0237 125.991C55.6832 125.991 54.2076 126.785 52.732 127.693ZM161.697 127.693C159.995 128.942 159.086 130.531 159.2 132.347C159.2 133.936 160.449 135.752 162.151 136.774C164.648 138.249 165.329 138.249 167.826 136.774C169.642 135.639 170.664 134.05 170.664 132.234C170.664 130.531 169.642 128.715 168.167 127.693C166.691 126.785 165.329 125.991 164.989 125.991C164.648 125.991 163.173 126.785 161.697 127.693ZM192.798 128.828C190.641 130.985 190.187 132.347 190.868 134.05C191.322 135.412 192.798 137.001 194.273 137.455C195.635 138.022 197.678 138.022 198.813 137.455C199.835 137.001 201.083 135.639 201.651 134.617C202.105 133.596 202.446 132.234 202.446 131.666C202.446 131.099 201.424 129.51 200.175 128.261C198.927 127.012 197.338 125.991 196.77 125.991C196.089 125.991 194.273 127.239 192.798 128.828ZM64.0826 139.044C62.38 140.293 61.4719 141.882 61.5854 143.698C61.5854 145.287 62.834 147.103 64.5366 148.124C67.0337 149.6 67.7147 149.6 70.2118 148.124C72.0279 146.989 73.0495 145.4 73.0495 143.584C73.0495 141.882 72.0279 140.066 70.5524 139.044C69.0768 138.136 67.7147 137.341 67.3742 137.341C67.0337 137.341 65.5581 138.136 64.0826 139.044ZM204.829 139.044C202.9 140.406 202.218 141.882 202.332 144.265C202.446 146.649 203.24 147.897 205.283 148.692C206.986 149.373 208.915 149.373 210.164 148.805C211.185 148.351 212.434 146.989 213.002 145.968C213.456 144.946 213.796 143.698 213.796 143.017C213.796 142.336 212.774 140.86 211.526 139.611C210.277 138.363 208.915 137.341 208.461 137.341C207.894 137.341 206.305 138.136 204.829 139.044ZM8.35145 140.633C7.67042 141.882 7.10289 143.698 7.10289 144.606C7.2164 145.627 8.46496 147.216 10.054 148.124C11.6431 149.032 13.9132 149.6 15.1618 149.259C16.5238 148.919 17.7724 147.33 18.1129 145.627C18.5669 143.811 18.3399 141.655 17.7724 140.747C17.0914 139.839 15.0483 138.93 13.1187 138.703C10.6216 138.476 9.373 138.93 8.35145 140.633ZM35.5927 139.838C34.6847 140.52 34.1172 142.222 34.2307 143.471C34.3442 144.833 35.2522 146.762 36.3873 147.897C37.8628 149.373 39.3384 149.827 41.6085 149.373C43.7651 148.919 44.9002 147.784 45.3542 145.627C45.8082 143.811 45.5812 141.655 45.0137 140.747C44.3326 139.839 42.403 138.93 40.587 138.703C38.7709 138.476 36.5008 139.044 35.5927 139.838ZM149.098 139.838C148.19 140.633 147.622 142.222 147.736 143.471C147.849 144.833 148.985 146.876 150.233 148.124C152.503 150.281 152.844 150.281 155.681 148.692C157.497 147.67 158.859 145.741 159.086 144.152C159.2 142.563 158.746 140.633 157.951 139.838C157.157 139.044 155.227 138.363 153.638 138.476C151.936 138.476 150.006 139.044 149.098 139.838ZM177.134 139.952C175.772 140.86 175.204 142.411 175.431 144.606C175.658 146.422 176.566 148.351 177.474 149.032C178.382 149.6 180.539 149.827 182.355 149.373C184.512 148.919 185.533 147.784 185.987 145.854C186.328 144.038 185.76 142.109 184.512 140.633C183.49 139.384 181.788 138.363 180.88 138.476C179.858 138.476 178.155 139.157 177.134 139.952ZM28.7824 141.314C28.7824 142.222 29.5769 143.017 30.485 143.017C31.393 143.017 32.1876 142.222 32.1876 141.314C32.1876 140.406 31.393 139.611 30.485 139.611C29.5769 139.611 28.7824 140.406 28.7824 141.314ZM48.6458 140.747C48.3053 141.428 48.6458 142.109 49.2134 142.449C49.8944 142.79 50.9159 142.79 51.4835 142.449C52.1645 142.109 52.3915 141.428 52.051 140.747C51.7105 140.066 51.0294 139.611 50.3484 139.611C49.7809 139.611 49.0999 140.066 48.6458 140.747ZM189.619 140.52C189.165 140.974 189.165 141.655 189.392 142.222C189.733 142.676 190.527 143.017 191.095 143.017C191.776 143.017 192.23 142.222 192.23 141.314C192.23 140.406 191.776 139.611 191.322 139.611C190.754 139.611 189.96 139.952 189.619 140.52ZM168.507 141.882C168.734 142.563 169.415 143.13 169.983 143.357C170.551 143.471 171.118 142.903 171.118 142.222C171.232 141.428 170.551 140.747 169.756 140.747C168.848 140.747 168.28 141.201 168.507 141.882ZM24.3557 146.535C23.1071 147.103 21.7451 148.578 21.4046 149.827C21.064 151.076 21.4046 153.119 21.9721 154.367C22.6531 155.616 24.1287 156.864 25.3772 157.205C26.6258 157.545 28.6689 157.318 29.9175 156.637C31.166 155.956 32.4146 154.481 32.7551 153.232C33.0956 151.984 32.8686 150.054 32.3011 149.032C31.847 147.897 30.3715 146.649 29.1229 146.308C27.7609 145.968 25.7178 146.081 24.3557 146.535ZM49.8944 146.535C48.4188 147.216 47.7378 148.692 47.8513 150.735C47.9648 152.438 48.6458 154.481 49.4404 155.275C50.2349 156.07 52.278 156.637 54.0941 156.637C56.0237 156.637 57.6128 155.843 58.2938 154.367C58.9748 153.119 59.4288 151.643 59.4288 150.962C59.4288 150.281 58.4073 148.805 57.1587 147.557C55.9102 146.308 54.2076 145.287 53.5266 145.287C52.732 145.287 51.0294 145.854 49.8944 146.535ZM163.173 148.805C161.47 150.622 161.243 151.643 162.151 154.14C163.059 156.41 164.194 157.318 166.691 157.545C168.621 157.659 170.778 157.205 171.572 156.41C172.367 155.616 173.048 153.8 172.934 152.438C172.934 150.962 172.14 149.032 171.232 148.124C170.324 147.216 168.621 146.422 167.372 146.422C166.237 146.422 164.308 147.443 163.173 148.805ZM190.073 147.897C189.392 148.578 188.938 150.735 189.052 152.665C189.279 155.162 190.187 156.297 192.457 157.205C194.954 158.113 195.976 157.886 197.905 156.07C199.154 154.821 200.289 152.892 200.175 151.87C200.175 150.735 199.381 149.032 198.473 148.124C197.565 147.216 195.522 146.422 194.046 146.422C192.571 146.422 190.754 147.103 190.073 147.897ZM6.98939 154.14C6.08134 154.254 4.83278 155.616 4.15175 156.978C3.47072 158.453 3.35722 160.496 3.92474 162.086C4.49227 163.448 5.96784 164.81 7.2164 165.15C8.46496 165.491 10.5081 165.264 11.7566 164.583C13.0052 163.902 14.2537 162.426 14.5942 161.177C14.9348 159.929 14.7077 157.999 14.1402 156.978C13.6862 155.843 12.2106 154.708 10.8486 154.367C9.60001 154.027 7.89743 153.913 6.98939 154.14ZM37.8628 154.708C35.8197 155.729 35.0252 157.091 35.0252 159.475C35.0252 161.859 35.8197 163.221 38.0898 164.583C40.9275 166.172 41.268 166.172 43.5381 164.015C45.0137 162.653 45.8082 160.723 45.5812 159.021C45.3542 157.545 44.2191 155.616 42.9706 154.821C41.041 153.573 40.0194 153.573 37.8628 154.708ZM68.3958 155.162C67.0337 156.07 66.0121 157.886 66.0121 159.248C66.1257 160.61 67.2607 162.767 68.5093 164.015C70.5524 165.945 71.2334 166.058 73.617 164.923C75.2061 164.129 76.6816 162.426 77.0222 161.177C77.3627 159.929 77.1357 157.999 76.5681 156.864C76.1141 155.843 74.525 154.594 73.163 154.254C71.8009 153.8 69.7578 154.14 68.3958 155.162ZM146.828 154.708C144.785 155.729 143.99 157.091 143.99 159.475C143.99 161.859 144.785 163.221 147.055 164.583C149.893 166.172 150.233 166.172 152.503 164.015C153.979 162.653 154.773 160.723 154.546 159.021C154.319 157.545 153.184 155.616 151.936 154.821C150.006 153.573 148.985 153.573 146.828 154.708ZM177.361 155.162C175.999 156.07 174.977 157.886 174.977 159.248C175.091 160.61 176.226 162.767 177.474 164.015C179.744 166.172 180.085 166.172 182.923 164.583C184.739 163.561 186.101 161.632 186.328 160.042C186.441 158.453 186.214 156.751 185.647 156.07C185.079 155.389 183.49 154.594 182.128 154.254C180.766 153.8 178.723 154.14 177.361 155.162ZM209.369 154.481C208.121 155.048 206.759 156.524 206.418 157.772C206.078 159.021 206.418 161.064 206.986 162.313C207.667 163.561 209.142 164.81 210.391 165.15C211.639 165.491 213.683 165.264 214.931 164.583C216.18 163.902 217.428 162.426 217.769 161.177C218.109 159.929 217.882 157.999 217.315 156.864C216.861 155.843 215.385 154.594 214.137 154.254C212.774 153.913 210.731 154.027 209.369 154.481ZM60.5639 158.34C60.5639 159.248 61.3584 160.042 62.2665 160.042C63.1745 160.042 63.969 159.248 63.969 158.34C63.969 157.432 63.1745 156.637 62.2665 156.637C61.3584 156.637 60.5639 157.432 60.5639 158.34ZM18.5669 159.475C18.5669 160.383 19.3615 161.177 20.2695 161.177C21.1775 161.177 21.9721 160.383 21.9721 159.475C21.9721 158.567 21.1775 157.772 20.2695 157.772C19.3615 157.772 18.5669 158.567 18.5669 159.475ZM199.04 159.475C199.04 160.383 199.835 161.177 200.743 161.177C201.651 161.177 202.446 160.383 202.446 159.475C202.446 158.567 201.651 157.772 200.743 157.772C199.835 157.772 199.04 158.567 199.04 159.475ZM157.043 160.61C157.043 161.518 157.838 162.313 158.746 162.313C159.654 162.313 160.449 161.518 160.449 160.61C160.449 159.702 159.654 158.907 158.746 158.907C157.838 158.907 157.043 159.702 157.043 160.61ZM23.1071 163.448C21.8586 164.696 20.837 166.172 20.837 166.853C20.837 167.534 21.4046 169.009 21.9721 170.258C22.7288 171.771 24.2422 172.528 26.5123 172.528C28.7824 172.528 30.485 171.733 31.5065 169.917C32.4146 168.555 32.8686 166.626 32.5281 165.718C32.1876 164.81 31.0525 163.334 30.031 162.54C29.0094 161.745 27.5338 161.177 26.8528 161.177C26.0583 161.177 24.3557 162.199 23.1071 163.448ZM49.2134 162.54C48.3053 163.221 47.7378 165.037 47.8513 166.512C47.9648 167.988 48.8728 169.917 49.7809 170.825C50.6889 171.733 52.3915 172.528 53.5266 172.528C54.5481 172.642 56.4777 171.506 57.7263 170.258C59.5423 168.328 59.7694 167.307 58.8613 164.81C57.9533 162.54 56.8182 161.632 54.3211 161.404C52.3915 161.177 50.1214 161.745 49.2134 162.54ZM190.527 162.653C189.052 163.675 188.371 165.264 188.484 167.534C188.598 169.35 189.052 171.279 189.619 171.733C190.073 172.301 192.117 172.642 193.933 172.755C195.976 172.755 197.905 171.961 198.813 170.598C199.608 169.463 200.175 167.874 200.175 167.08C200.175 166.399 199.154 164.696 197.905 163.448C196.657 162.199 194.954 161.177 194.16 161.177C193.365 161.177 191.776 161.859 190.527 162.653ZM106.761 163.675C105.398 164.658 104.831 166.247 105.058 168.442C105.285 170.258 106.193 172.188 107.101 172.869C108.009 173.436 110.166 173.663 111.982 173.209C114.138 172.755 115.16 171.62 115.614 169.69C115.954 167.874 115.387 165.945 114.138 164.469C113.117 163.221 111.414 162.199 110.506 162.313C109.485 162.313 107.782 162.994 106.761 163.675ZM162.605 164.469C161.924 165.718 161.47 167.534 161.47 168.442C161.584 169.463 162.946 171.166 164.535 172.188C166.918 173.89 167.826 174.004 170.21 172.755C172.026 171.847 172.934 170.371 172.934 168.215C172.934 166.512 172.367 164.469 171.572 163.675C170.778 162.88 168.734 162.313 167.032 162.313C165.216 162.313 163.4 163.221 162.605 164.469ZM90.1888 168.215C89.5077 169.009 89.0537 171.166 89.1672 173.096C89.3942 175.593 90.3023 176.728 92.6859 177.636C95.2965 178.544 96.2046 178.317 98.3612 176.274C100.404 174.117 100.631 173.209 99.7232 170.598C98.8152 168.215 97.6801 167.307 95.0695 167.08C93.1399 166.853 90.9833 167.42 90.1888 168.215ZM121.289 169.69C119.814 172.188 119.814 172.869 121.289 175.366C122.424 177.182 124.013 178.203 125.829 178.203C127.646 178.203 129.235 177.182 130.37 175.366C131.845 172.869 131.845 172.188 130.37 169.69C129.235 167.874 127.646 166.853 125.829 166.853C124.013 166.853 122.424 167.874 121.289 169.69ZM9.4865 171.393C8.23794 172.642 7.2164 174.458 7.2164 175.366C7.2164 176.274 8.23794 178.09 9.4865 179.338C10.7351 180.587 12.0971 181.608 12.6647 181.608C13.1187 181.608 14.5942 180.814 16.0698 179.906C17.5454 178.884 18.5669 177.068 18.5669 175.366C18.5669 173.663 17.5454 171.847 16.0698 170.825C14.5942 169.917 13.1187 169.123 12.6647 169.123C12.0971 169.123 10.7351 170.144 9.4865 171.393ZM36.1603 171.166C35.0252 172.301 34.1172 174.004 34.2307 174.912C34.3442 175.82 35.4792 177.522 36.7278 178.771C38.6574 180.587 39.6789 180.814 42.176 179.906C44.4461 178.998 45.3542 177.863 45.5812 175.366C45.6947 173.436 45.2407 171.279 44.4461 170.485C43.6516 169.69 41.949 169.009 40.587 169.123C39.2249 169.123 37.2953 170.031 36.1603 171.166ZM63.8555 171.279C61.4719 173.096 61.2449 173.89 62.2665 176.501C62.9475 178.203 64.4231 180.019 65.6716 180.587C67.1472 181.154 68.8498 180.927 70.5524 179.792C71.9144 178.884 73.0495 177.068 73.0495 175.706C73.163 174.231 72.2549 172.188 71.1199 171.166C69.9848 170.031 68.5093 169.123 67.8282 169.123C67.1472 169.123 65.3311 170.144 63.8555 171.279ZM150.347 170.825C148.644 172.074 147.736 173.663 147.849 175.479C147.849 177.068 149.098 178.884 150.801 179.906C153.298 181.381 153.979 181.381 156.476 179.906C158.292 178.771 159.313 177.182 159.313 175.366C159.313 173.663 158.292 171.847 156.816 170.825C155.341 169.917 153.979 169.123 153.638 169.123C153.298 169.123 151.822 169.917 150.347 170.825ZM176.907 171.166C175.772 172.301 174.864 174.231 174.977 175.479C175.091 176.614 175.772 178.317 176.566 179.111C177.361 179.906 179.29 180.473 180.993 180.473C182.582 180.473 184.398 179.792 185.193 179.111C185.987 178.317 186.555 176.614 186.555 175.366C186.668 174.117 185.76 172.188 184.625 171.166C183.49 170.031 181.788 169.123 180.766 169.123C179.744 169.123 178.042 170.031 176.907 171.166ZM204.148 171.166C203.013 172.301 202.105 174.344 202.219 175.706C202.332 177.068 203.581 178.884 205.056 179.792C206.418 180.7 208.348 181.154 209.256 180.814C210.164 180.473 211.639 179.338 212.434 178.317C213.229 177.295 213.796 175.82 213.796 175.139C213.796 174.344 212.774 172.642 211.526 171.393C210.277 170.144 208.575 169.123 207.667 169.123C206.872 169.123 205.283 170.031 204.148 171.166ZM49.8944 176.16C49.4404 176.955 49.4404 178.09 50.1214 178.771C50.8781 179.528 51.5213 179.338 52.051 178.203C52.505 177.295 52.3915 176.047 51.824 175.593C51.2565 175.025 50.4619 175.252 49.8944 176.16ZM28.8959 177.522C28.8959 178.544 29.4634 179.111 30.258 178.998C30.939 178.771 31.5065 178.09 31.393 177.522C31.166 176.955 30.5985 176.274 30.031 176.16C29.4634 175.933 29.0094 176.501 28.8959 177.522ZM168.961 177.068C168.621 177.749 168.961 178.43 169.529 178.771C170.21 179.111 171.232 179.111 171.799 178.771C172.48 178.43 172.707 177.749 172.367 177.068C172.026 176.387 171.345 175.933 170.664 175.933C170.097 175.933 169.415 176.387 168.961 177.068ZM189.392 176.728C188.825 177.068 188.484 177.863 188.598 178.43C188.711 178.884 189.619 179.338 190.527 179.338C191.435 179.338 192.23 178.544 192.23 177.636C192.23 176.728 191.776 175.933 191.322 175.933C190.754 175.933 189.96 176.274 189.392 176.728ZM78.7247 179.565C77.8167 180.36 77.2492 182.176 77.3627 183.765C77.4762 185.468 78.1572 187.397 78.9517 188.192C79.7463 188.986 81.4489 189.554 82.6974 189.554C83.946 189.667 85.8756 188.759 86.8971 187.624C88.0322 186.489 88.9402 184.787 88.9402 183.879C88.9402 182.971 88.1457 181.268 87.0106 180.246C85.8756 179.111 83.946 178.203 82.6974 178.203C81.3354 178.203 79.6328 178.771 78.7247 179.565ZM105.966 179.565C105.058 180.246 104.49 182.176 104.604 183.765C104.717 185.468 105.398 187.397 106.193 188.192C106.988 188.986 108.69 189.554 109.939 189.554C111.187 189.667 113.23 188.532 114.479 187.284C116.636 185.014 116.636 184.673 115.046 181.835C114.025 180.019 112.095 178.657 110.506 178.43C108.917 178.203 106.874 178.771 105.966 179.565ZM132.64 181.041C131.164 183.538 131.164 184.219 132.64 186.716C133.775 188.532 135.364 189.554 137.18 189.554C138.996 189.554 140.585 188.532 141.72 186.716C143.196 184.219 143.196 183.538 141.72 181.041C140.585 179.225 138.996 178.203 137.18 178.203C135.364 178.203 133.775 179.225 132.64 181.041ZM98.5882 180.133C98.0206 180.473 97.6801 181.268 97.7936 181.835C97.9071 182.289 98.8152 182.744 99.7232 182.744C100.631 182.744 101.426 181.949 101.426 181.041C101.426 180.133 100.972 179.338 100.518 179.338C99.9502 179.338 99.1557 179.679 98.5882 180.133ZM118.906 180.133C118.452 180.473 118.111 181.268 118.225 181.835C118.338 182.289 119.246 182.744 120.154 182.744C121.062 182.744 121.857 182.289 121.97 181.722C122.084 181.041 121.63 180.36 120.949 180.019C120.381 179.679 119.473 179.679 118.906 180.133ZM20.837 182.744C19.5885 183.992 18.5669 185.468 18.5669 186.149C18.5669 186.83 18.9074 188.078 19.475 189.1C19.929 190.121 21.1775 191.483 22.3126 191.937C23.4477 192.505 25.3772 192.505 27.0798 191.824C29.2364 190.916 29.9175 189.894 29.9175 187.284C29.9175 185.014 29.0851 183.311 27.4203 182.176C25.9448 181.268 24.4692 180.473 24.0152 180.473C23.4477 180.473 22.0856 181.495 20.837 182.744ZM52.732 182.176C51.0294 183.425 50.1214 185.014 50.2349 186.83C50.2349 188.419 51.4835 190.235 53.186 191.256C55.6832 192.732 56.3642 192.732 58.8613 191.256C60.6774 190.121 61.6989 188.532 61.6989 186.716C61.6989 185.014 60.6774 183.198 59.2018 182.176C57.7263 181.268 56.3642 180.473 56.0237 180.473C55.6832 180.473 54.2076 181.268 52.732 182.176ZM161.697 182.176C159.995 183.425 159.086 185.014 159.2 186.83C159.2 188.419 160.449 190.235 162.151 191.256C164.648 192.732 165.329 192.732 167.826 191.256C169.642 190.121 170.664 188.532 170.664 186.716C170.664 185.014 169.642 183.198 168.167 182.176C166.691 181.268 165.329 180.473 164.989 180.473C164.648 180.473 163.173 181.268 161.697 182.176ZM192.798 183.311C190.641 185.468 190.187 186.83 190.868 188.532C191.322 189.894 192.798 191.483 194.273 191.937C195.635 192.505 197.678 192.505 198.813 191.937C199.835 191.483 201.083 190.121 201.651 189.1C202.105 188.078 202.446 186.83 202.446 186.149C202.446 185.468 201.424 183.992 200.175 182.744C198.927 181.495 197.338 180.473 196.77 180.473C196.089 180.473 194.273 181.722 192.798 183.311ZM36.0467 187.397C34.3442 189.213 34.1172 190.235 35.0252 192.732C35.9332 195.002 37.0683 195.91 39.5654 196.137C41.495 196.251 43.6516 195.797 44.4461 195.002C45.2407 194.208 45.9217 192.164 45.8082 190.462C45.8082 188.419 45.0137 186.83 43.5381 186.149C42.2895 185.468 40.587 185.014 39.6789 185.014C38.8844 185.014 37.1818 186.035 36.0467 187.397ZM121.857 185.808C120.949 186.149 119.473 187.284 118.679 188.305C117.884 189.327 117.317 191.029 117.317 192.164C117.317 193.186 118.679 195.002 120.268 196.137C122.651 197.726 123.559 197.84 125.943 196.705C128.1 195.57 128.554 194.435 128.44 191.71C128.213 189.554 127.192 187.511 125.829 186.716C124.581 185.922 122.765 185.581 121.857 185.808ZM176.907 186.83C175.885 187.738 175.091 189.667 175.091 191.029C175.091 192.391 175.772 194.208 176.566 195.002C177.361 195.797 179.517 196.251 181.447 196.137C183.944 195.91 185.079 195.002 185.987 192.732C186.895 190.235 186.668 189.213 184.852 187.284C183.604 186.035 181.674 184.9 180.652 185.014C179.631 185.014 177.928 185.808 176.907 186.83ZM92.3454 187.511C91.4373 188.305 90.8698 190.008 90.9833 191.483C91.0968 192.959 92.0049 194.889 92.9129 195.797C93.8209 196.705 95.637 197.499 96.7721 197.499C98.0206 197.499 99.8367 196.705 100.745 195.797C101.766 194.889 102.561 193.299 102.561 192.391C102.561 191.483 102.107 189.667 101.426 188.419C100.745 186.943 99.1557 186.149 97.1126 186.149C95.41 186.149 93.2534 186.716 92.3454 187.511ZM74.7521 195.91C73.7305 196.818 72.936 198.634 72.936 199.883C73.0495 201.018 73.844 202.834 74.7521 203.742C75.6601 204.65 77.4762 205.445 78.6112 205.445C79.8598 205.445 81.6759 204.65 82.5839 203.742C83.6055 202.834 84.4 200.904 84.4 199.542C84.4 198.067 83.8325 196.251 83.0379 195.456C82.2434 194.662 80.4273 194.094 79.0653 194.094C77.7032 194.094 75.7736 194.889 74.7521 195.91ZM106.08 195.57C105.398 196.251 104.944 198.407 105.058 200.337C105.285 202.834 106.193 203.969 108.463 204.877C110.96 205.785 111.982 205.558 113.911 203.742C115.16 202.493 116.295 200.564 116.181 199.542C116.181 198.407 115.387 196.705 114.479 195.797C113.571 194.889 111.528 194.094 110.052 194.094C108.577 194.094 106.761 194.775 106.08 195.57ZM137.18 196.137C136.045 197.272 135.137 198.975 135.25 199.883C135.364 200.791 136.499 202.493 137.747 203.742C139.677 205.558 140.699 205.785 143.196 204.877C145.466 203.969 146.374 202.834 146.601 200.337C146.714 198.407 146.26 196.251 145.466 195.456C144.671 194.662 142.969 193.981 141.607 194.094C140.245 194.094 138.315 195.002 137.18 196.137ZM130.37 197.045C129.802 197.499 129.462 198.294 129.575 198.861C129.689 199.315 130.824 199.769 132.072 199.769C133.321 199.769 134.115 199.088 134.002 198.407C133.775 197.613 133.094 196.818 132.413 196.591C131.845 196.478 130.937 196.705 130.37 197.045ZM88.9402 198.634C87.5782 199.429 87.4647 199.996 88.7132 201.131C89.8483 202.266 90.4158 202.38 91.5508 201.245C92.4589 200.223 92.5724 199.429 91.7778 198.634C90.9833 198.067 89.9618 197.953 88.9402 198.634ZM119.587 203.174C118.338 204.423 117.317 206.126 117.317 206.92C117.203 207.601 118.111 209.19 119.246 210.212C120.381 211.347 122.424 212.255 123.9 212.255C125.262 212.255 127.078 211.12 127.986 209.758C128.894 208.282 129.348 206.353 129.008 205.445C128.667 204.537 127.532 203.061 126.51 202.266C125.489 201.472 124.013 200.904 123.332 200.904C122.538 200.904 120.835 201.926 119.587 203.174ZM92.3454 203.401C91.4373 204.082 90.8698 205.785 90.9833 207.034C91.0968 208.396 92.0049 210.325 93.1399 211.347C94.275 212.482 95.9775 213.39 96.8856 213.39C97.7936 213.39 99.6097 212.368 100.858 211.12C102.674 209.19 102.901 208.169 101.993 205.672C101.085 203.401 99.9502 202.493 97.4531 202.266C95.5235 202.039 93.2534 202.607 92.3454 203.401ZM106.534 210.666C105.512 211.574 104.717 213.503 104.717 214.866C104.717 216.228 105.398 218.044 106.193 218.838C106.988 219.633 109.144 220.087 111.074 219.973C113.571 219.746 114.706 218.838 115.614 216.568C116.522 214.071 116.295 213.049 114.479 211.12C113.23 209.871 111.301 208.736 110.279 208.85C109.258 208.85 107.555 209.644 106.534 210.666ZM78.8382 211.347C78.1572 212.141 77.7032 214.298 77.8167 216.228C78.0437 218.725 78.9518 219.86 81.3354 220.768C83.946 221.676 84.854 221.449 87.0106 219.406C89.0537 217.249 89.2807 216.341 88.3727 213.73C87.4646 211.347 86.3296 210.439 83.719 210.212C81.7894 209.985 79.6328 210.552 78.8382 211.347ZM133.207 211.347C132.299 212.141 131.732 214.184 131.845 215.887C131.959 217.93 132.98 219.519 134.683 220.314C136.499 221.222 137.861 221.222 139.791 220.314C141.153 219.633 142.515 218.044 142.855 216.795C143.196 215.547 142.969 213.503 142.288 212.255C141.607 210.779 140.018 209.985 137.975 209.985C136.272 209.985 134.115 210.552 133.207 211.347ZM98.5882 216.455C98.0206 216.795 97.6801 217.59 97.7936 218.157C97.9071 218.611 98.8152 219.065 99.7232 219.065C100.631 219.065 101.426 218.271 101.426 217.363C101.426 216.455 100.972 215.66 100.518 215.66C99.9502 215.66 99.1557 216.001 98.5882 216.455ZM119.587 217.363C119.587 218.271 120.381 219.065 121.289 219.065C122.197 219.065 122.992 218.271 122.992 217.363C122.992 216.455 122.197 215.66 121.289 215.66C120.381 215.66 119.587 216.455 119.587 217.363ZM90.1888 222.697C89.5077 223.492 89.0537 225.649 89.1672 227.578C89.3942 230.075 90.3023 231.21 92.6859 232.118C95.2965 233.026 96.2046 232.799 98.3612 230.756C100.404 228.6 100.631 227.692 99.7232 225.081C98.8152 222.697 97.6801 221.789 95.0695 221.562C93.1399 221.335 90.9833 221.903 90.1888 222.697ZM121.289 224.173C119.814 226.67 119.814 227.351 121.289 229.848C122.424 231.664 124.013 232.686 125.829 232.686C127.646 232.686 129.235 231.664 130.37 229.848C131.845 227.351 131.845 226.67 130.37 224.173C129.235 222.357 127.646 221.335 125.829 221.335C124.013 221.335 122.424 222.357 121.289 224.173ZM105.966 227.238C105.058 228.032 104.49 229.735 104.604 231.21C104.717 232.686 105.625 234.615 106.534 235.523C107.442 236.432 109.031 237.226 109.939 237.226C110.847 237.226 112.663 236.205 113.911 234.956C115.16 233.707 116.181 232.232 116.181 231.551C116.181 230.87 115.727 229.394 115.046 228.146C114.365 226.67 112.776 225.876 110.733 225.876C109.031 225.876 106.874 226.443 105.966 227.238Z" fill="#FEFEFE"/>
</svg>
