<svg width="213" height="240" viewBox="0 0 213 240" fill="none" xmlns="http://www.w3.org/2000/svg">
<path d="M99.2 2.62857C97.6 4 95.6571 6.28571 94.9714 7.77143C94.2857 9.14286 93.7143 11.3143 93.7143 12.5714C93.7143 13.8286 93.3714 14.8571 92.9143 14.8571C92.3429 14.8571 90.5143 14.2857 88.5714 13.4857C85.9429 12.4571 84 12.4571 80.3429 13.6C77.1429 14.5143 74.8571 16.1143 73.2571 18.6286C71.7714 20.8 70.8571 24.2286 70.8571 27.0857C70.8571 31.2 71.5429 32.6857 75.2 36.2286C78.4 39.4286 78.9714 40.5714 77.7143 41.0286C76.8 41.2571 74.8571 42.8571 73.3714 44.4571C72 46.0571 70.5143 49.0286 70.1714 50.8571C69.4857 54.2857 69.4857 54.2857 65.3714 52.9143C62.9714 52.2286 59.6571 52 57.8286 52.3429C56 52.8 54.4 53.4857 54.1714 53.9429C53.9429 54.5143 53.2571 54.8571 52.5714 54.8571C52 54.8571 51.2 53.1429 50.8571 51.0857C50.6286 49.1429 49.3714 46.0571 48 44.2286C46.7429 42.5143 43.7714 40.5714 41.4857 39.8857C38.1714 38.8571 36.1143 38.9714 32.8 40C30.2857 40.6857 27.5429 42.7429 26.2857 44.6857C25.0286 46.5143 24 49.6 24 51.4286C24 53.2571 23.8857 54.8571 23.7714 54.8571C23.5429 54.8571 21.3714 54.1714 18.8571 53.2571C15.6571 52.2286 13.2571 52 10.8571 52.6857C9.02857 53.2571 6.28572 54.8571 4.8 56.3429C3.42857 57.7143 1.71429 60.5714 1.14286 62.5143C0.228571 65.4857 0.457143 67.3143 2.28571 71.4286C3.54286 74.2857 4.91429 76.5714 5.48571 76.5714C5.94286 76.5714 7.08571 77.0286 8 77.6C9.37143 78.4 8.91429 79.3143 5.37143 82.4C2.47619 84.9905 0.799999 87.6191 0.342856 90.2857C-0.114287 93.0286 0.342855 95.6572 1.82857 98.6286C3.2 101.371 5.37143 103.657 7.77143 104.686C9.71429 105.6 12.8 106.286 14.6286 106.286C16.3429 106.286 18.7429 105.6 20 104.571C21.2571 103.657 22.6286 103.314 23.2 103.771C23.6571 104.229 24 105.943 24 107.657C24 109.79 25.3333 112.19 28 114.857L32 118.857C25.2571 125.143 24.1143 127.314 24.1143 129.714C24.1143 131.657 23.7714 133.486 23.4286 133.943C23.0857 134.514 21.1429 134.057 19.2 133.029C16.5714 131.657 14.2857 131.429 11.4286 132C9.25714 132.457 6.17143 134.171 4.57143 135.886C2.97143 137.6 1.37143 140.571 0.914285 142.629C0.342856 144.914 0.571428 147.657 1.48571 149.943C2.4 152 4.57143 154.857 6.4 156.343C9.14286 158.514 9.37143 159.2 8 160C7.08571 160.686 5.94286 161.143 5.48571 161.143C4.91429 161.143 3.54286 162.857 2.28571 164.8C1.02857 166.857 0 170.057 0 172C0 173.943 1.02857 177.143 2.28571 179.086C3.54286 181.143 6.51429 183.657 8.91429 184.686C12.3429 186.171 13.8286 186.286 17.1429 185.143C19.3143 184.457 21.8286 183.657 22.6286 183.314C23.5429 182.971 24 184.114 24 186.857C24 189.943 24.9143 191.771 28 194.857C31.4286 198.286 32.8 198.857 37.2571 198.857C41.6 198.857 43.0857 198.286 46.2857 195.086C48.6857 192.8 50.2857 189.829 50.7429 187.086C51.4286 183.2 51.6571 182.971 54.0571 184.114C55.4286 184.8 58.6286 185.143 61.1429 184.914C63.6571 184.571 66.6286 184 67.7714 183.657C69.3714 182.971 69.7143 183.543 69.7143 187.429C69.7143 191.086 70.5143 192.8 73.8286 196.229C76.6857 199.314 77.4857 200.686 76.4571 201.029C75.5429 201.371 73.7143 202.857 72.2286 204.457C70.8571 206.057 69.3714 208.914 69.0286 210.857C68.6857 212.8 69.1429 216.114 70.1714 218.514C71.2 220.914 73.3714 223.771 75.0857 224.8C76.8 225.943 80.3429 226.857 83.0857 226.857C85.7143 226.857 88.5714 226.171 89.2571 225.371C90.0571 224.686 91.2 224 91.6571 224C92.1143 224 92.5714 225.257 92.5714 226.857C92.5714 228.457 93.3714 231.2 94.2857 233.143C95.2 235.086 97.4857 237.371 99.4286 238.286C101.371 239.2 104.686 240 106.857 240C109.714 240 112 238.971 114.971 236.229C117.638 233.79 119.238 231.124 119.771 228.229C120.343 224.914 121.029 224.114 122.286 224.686C123.2 225.143 126.057 225.714 128.571 225.943C131.771 226.286 134.286 225.714 136.914 224C139.314 222.514 141.029 220.229 141.829 217.371C142.629 214.971 142.743 211.657 142.286 209.714C141.829 207.771 140 204.914 138.171 203.086L134.857 200C140.229 195.543 142.171 192.457 142.743 189.943C143.314 187.657 143.543 185.029 143.086 184.229C142.514 182.971 143.2 183.086 146.629 184.457C148.914 185.486 151.771 186.286 152.914 186.286C153.943 186.286 156.343 185.486 158.286 184.571C160.229 183.543 161.714 182.743 161.714 182.857C161.714 182.857 162.057 185.029 162.514 187.657C163.086 191.086 164.343 193.6 166.743 195.657C169.371 198.057 171.429 198.857 174.857 198.857C177.371 198.857 181.029 197.943 182.857 196.8C184.8 195.771 187.086 193.143 188 191.086C188.914 189.143 189.714 186.4 189.714 185.143C189.714 183.2 190.057 183.086 192 184C193.257 184.686 196.114 185.143 198.286 185.143C200.457 185.143 203.657 184.457 205.486 183.543C207.2 182.743 209.486 180.114 210.629 177.829C211.657 175.543 212.571 172.686 212.571 171.429C212.571 170.171 211.771 167.657 210.857 165.714C209.943 163.771 208.114 161.6 206.857 160.8C204.571 159.429 204.571 159.314 208.571 155.086C211.771 151.657 212.571 149.943 212.571 146.286C212.571 143.771 211.886 140.343 210.971 138.514C210.171 136.8 207.543 134.514 205.257 133.371C202.971 132.343 200.343 131.429 199.429 131.429C198.514 131.429 195.886 132.229 193.714 133.143L189.714 134.857C188.914 127.429 187.657 125.371 184.8 122.857L180.914 119.429C187.2 113.714 188.686 111.086 189.143 108L189.943 103.429C198.971 106.514 199.886 106.514 204 104.457C206.743 103.2 209.371 100.686 210.743 98.2857C212.343 95.4286 212.686 93.1429 212.114 89.9429C211.771 87.4286 210.057 84.3429 208 82.2857L204.571 78.8571C212 71.4286 212.571 70.0571 212.571 65.7143C212.571 61.9429 211.886 59.6571 209.714 57.1429C208.114 55.2 205.143 53.2571 203.2 52.8C201.143 52.2286 198.171 52.2286 196.571 52.6857C194.971 53.1429 192.914 53.8286 192 54.1714C190.743 54.7429 190.057 53.8286 189.257 50.6286C188.8 48.2286 186.971 44.9143 185.257 43.3143C183.657 41.6 180.457 39.8857 178.286 39.4286C175.429 38.8571 173.029 39.2 169.829 40.6857C167.429 41.9429 164.686 44.2286 163.886 45.9429C162.971 47.7714 162.286 50.4 162.286 52C162.286 53.6 161.943 54.8571 161.486 54.8571C160.914 54.8571 160.114 54.4 159.429 53.7143C158.743 53.0286 156.457 52.4571 154.286 52.3429C152.114 52.2286 149.029 52.5714 147.429 53.0286C144.914 53.7143 144.457 53.4857 143.771 50.4C143.2 48.4571 141.371 45.2571 139.429 43.4286L136 40C141.371 35.5429 143.314 32.5714 143.886 30.5143C144.457 28.5714 144.686 25.6 144.343 24C143.886 22.4 142.743 19.7714 141.486 17.9429C140.343 16.2286 137.486 14.2857 135.2 13.4857C131.543 12.4571 130.057 12.5714 126.057 14.0571C121.257 16 121.143 15.8857 121.143 13.7143C121.143 12.4571 120.343 9.71429 119.429 7.65714C118.514 5.71429 116.229 3.08571 114.286 1.94286C112.457 0.914286 108.914 0 106.629 0C103.771 0 101.257 0.914286 99.2 2.62857Z" fill="black"/>
<path d="M102.057 3.77144C100.686 4.57144 98.7427 6.51429 97.8284 8.00001C96.7999 9.60001 95.9999 12.2286 95.9999 14.0571C95.9999 15.8857 97.257 18.6286 99.1999 20.6857C101.486 23.3143 103.314 24.2286 106.286 24.2286C108.457 24.2286 111.428 23.7714 112.914 22.9714C114.286 22.2857 116.228 20.1143 117.143 18.2857C118.057 16.3429 118.628 13.3714 118.286 11.4286C117.943 9.48572 116.228 6.74286 114.286 5.14286C112.343 3.54286 109.486 2.28572 107.771 2.28572C105.943 2.28572 103.428 2.97144 102.057 3.77144ZM79.4284 16.3429C77.4856 17.2571 75.3141 19.3143 74.6284 20.9143C73.8284 22.6286 73.1427 25.3714 73.1427 27.2C73.1427 28.9143 74.057 31.4286 75.1999 32.6857C76.2284 34.0571 78.2856 35.7714 79.7713 36.4571C81.1427 37.1429 83.4284 37.7143 84.9141 37.7143C86.2856 37.7143 88.6856 36.8 90.1713 35.7714C91.7713 34.6286 93.7141 32 94.5141 30.0571C95.7713 26.9714 95.7713 25.6 94.5141 22.6286C93.5999 20.5714 92.2284 18.2857 91.3141 17.4857C90.3999 16.6857 88.2284 15.7714 86.2856 15.4286C84.3427 15.0857 81.3713 15.5429 79.4284 16.3429ZM125.486 16.5714C123.657 17.4857 121.828 19.3143 121.143 20.5714C120.457 21.8286 120 24.6857 120 26.8571C120 29.8286 120.914 31.7714 123.428 34.2857C125.943 36.8 127.886 37.7143 130.971 37.7143C133.943 37.7143 135.886 36.8 138.4 34.2857C140.8 31.7714 141.714 29.7143 141.714 26.8571C141.714 24.6857 141.257 21.8286 140.571 20.5714C139.886 19.3143 137.6 17.4857 135.428 16.5714C133.257 15.6571 130.743 14.8571 130.057 14.8571C129.257 14.9714 127.2 15.6571 125.486 16.5714ZM104.343 29.3714C102.857 29.6 100.457 31.4286 98.857 33.2571C97.257 35.0857 95.9999 37.8286 95.9999 39.4286C95.9999 41.0286 96.5713 43.5429 97.1427 45.1429C97.8284 46.7429 99.8856 48.8 101.714 49.7143C103.657 50.6286 106.4 51.4286 108 51.4286C109.6 51.4286 112.457 50.1714 114.286 48.5714C116.228 46.9714 117.943 44.3429 118.286 42.6286C118.628 40.8 118.4 38.0571 117.714 36.3429C117.143 34.5143 115.428 32.4571 114.057 31.5429C112.571 30.6286 110.4 29.7143 109.143 29.4857C107.886 29.1429 105.714 29.1429 104.343 29.3714ZM32.3427 42.8571C30.2856 43.7714 28.1141 45.6 27.4284 46.8571C26.857 48.1143 26.2856 50.9714 26.2856 53.1429C26.2856 56.1143 27.1998 58.0571 29.7141 60.5714C32.2284 63.0857 34.1713 64 37.257 64C40.2284 64 42.1713 63.0857 44.6856 60.5714C47.0856 58.0571 47.9998 56 47.9998 53.1429C47.9998 50.9714 47.5427 48.1143 46.857 46.8571C46.2856 45.6 43.8856 43.7714 41.7141 42.8571C39.5427 41.9429 37.3713 41.1429 36.9141 41.1429C36.3427 41.2571 34.2856 41.9429 32.3427 42.8571ZM126.057 42.1714C124.686 42.7429 122.514 44.6857 121.143 46.5143C119.886 48.2286 118.743 50.8571 118.857 52.3429C118.857 53.7143 119.657 56.4571 120.571 58.2857C121.486 60.1143 123.543 62.2857 125.143 62.8571C126.743 63.4286 129.257 64 130.857 64C132.457 64 135.428 62.5143 137.486 60.6857C140.686 57.8286 141.143 56.6857 140.914 52.3429C140.8 48.9143 140 46.7429 138.057 44.9143C136.571 43.5429 133.943 42.0571 132 41.7143C130.171 41.4857 127.428 41.7143 126.057 42.1714ZM170.857 42.8571C169.028 43.7714 166.743 45.8286 166.057 47.4286C165.257 49.0286 164.571 51.8857 164.571 53.7143C164.571 56 165.714 58.2857 168 60.5714C170.514 63.0857 172.457 64 175.428 64C178.057 64 180.686 62.9714 182.857 61.1429C185.6 58.8571 186.286 57.3714 186.286 53.7143C186.286 51.2 185.828 48.1143 185.143 46.8571C184.457 45.6 182.514 43.7714 180.571 42.8571C178.743 41.9429 176.457 41.1429 175.771 41.1429C174.971 41.1429 172.8 41.9429 170.857 42.8571ZM76.7999 44.5714C75.4284 45.8286 73.7141 48.2286 73.1427 50.0571C72.3427 52.1143 72.3427 54.2857 73.1427 56.9143C73.7141 58.8571 75.4284 61.3714 76.9141 62.2857C78.2856 63.2 81.5999 64 84.3427 64C88.2284 64 89.5999 63.4286 91.9999 60.5714C93.8284 58.4 94.857 55.7714 94.857 53.1429C94.857 50.1714 93.9427 48.2286 91.4284 45.7143C88.7999 43.0857 86.9713 42.2857 83.657 42.2857C80.9141 42.2857 78.3999 43.0857 76.7999 44.5714ZM6.85698 57.8286C3.77127 60.3429 3.31413 61.4857 3.31413 65.8286C3.42841 69.9429 3.99984 71.3143 6.85698 73.7143C9.02841 75.5429 11.657 76.5714 14.2856 76.5714C16.9141 76.5714 19.5427 75.5429 21.7141 73.7143C24.5713 71.3143 25.1427 70.0571 25.1427 65.7143C25.1427 61.3714 24.5713 60.1143 21.7141 57.7143C19.5427 55.8857 16.9141 54.8571 14.3998 54.8571C11.8856 54.8571 9.1427 55.8857 6.85698 57.8286ZM54.6284 56.5714C52.5713 57.6 50.9713 59.7714 50.2856 62.2857C49.3713 65.3714 49.5998 67.2 50.857 70.2857C51.7713 72.4571 53.5998 74.8571 54.857 75.4286C56.1141 76 58.9713 76.5714 61.257 76.5714C64.2284 76.5714 66.1713 75.6571 68.6856 73.1429C71.0856 70.6286 71.9998 68.5714 71.9998 65.7143C71.9998 62.7429 71.0856 60.8 68.5713 58.2857C66.1713 55.8857 64.1141 54.8571 61.4856 54.8571C59.4284 54.9714 56.3427 55.6571 54.6284 56.5714ZM102.286 56.3429C100.457 57.2571 98.1713 59.3143 97.4856 60.9143C96.6856 62.6286 95.9999 65.0286 95.9999 66.2857C95.9999 67.5429 96.6856 69.9429 97.5999 71.7714C98.3999 73.4857 100.457 75.5429 102.171 76.3429C103.771 77.0286 106.4 77.7143 108 77.7143C109.6 77.7143 112.571 76.2286 114.628 74.4C117.6 71.6571 118.286 70.1714 118.286 66.4C118.286 62.9714 117.486 61.0286 115.428 58.8571C113.828 57.3714 111.086 55.7714 109.143 55.4286C107.314 55.0857 104.228 55.5429 102.286 56.3429ZM145.143 58.1714C142.857 60.5714 141.828 62.7429 141.828 65.6C141.714 68.6857 142.514 70.5143 145.143 73.1429C147.657 75.6571 149.6 76.5714 152.571 76.5714C154.743 76.5714 157.828 75.6571 159.428 74.5143C161.028 73.4857 162.857 71.0857 163.543 69.1429C164.228 66.8571 164.228 64.4571 163.428 61.9429C162.743 59.6571 161.028 57.6 158.857 56.5714C157.028 55.6571 153.828 54.8571 151.886 54.8571C149.486 54.8571 147.314 55.8857 145.143 58.1714ZM193.714 56.2286C192.457 56.9143 190.857 58.4 190.057 59.3143C189.257 60.3429 188.571 63.3143 188.571 66.0571C188.571 69.8286 189.257 71.4286 191.771 73.7143C193.943 75.7714 196.114 76.6857 199.2 76.5714C202.514 76.5714 204.457 75.7714 206.971 73.1429C209.371 70.6286 210.286 68.5714 210.286 65.7143C210.286 62.7429 209.371 60.8 206.857 58.2857C204.457 55.8857 202.4 54.8571 199.771 54.8571C197.714 54.8571 194.971 55.5429 193.714 56.2286ZM29.7141 71.8857C27.4284 74.2857 26.3998 76.4571 26.2856 79.6571C26.2856 82.9714 26.9713 84.6857 29.3713 87.2C31.8856 89.7143 33.5998 90.4 37.257 90.2857C40.9141 90.2857 42.7427 89.6 45.0284 87.2C47.3141 84.8 48.1141 82.8571 47.9998 79.7714C47.9998 76.4571 47.0856 74.5143 44.5713 72C42.057 69.4857 40.1141 68.5714 37.0284 68.5714C34.057 68.5714 32.1141 69.4857 29.7141 71.8857ZM168 71.8857C165.714 74.2857 164.686 76.4571 164.686 79.3143C164.571 82.1714 165.486 84.5714 167.428 86.8571C169.828 89.7143 171.086 90.2857 175.428 90.2857C179.543 90.2857 181.257 89.6 183.428 87.4286C185.486 85.3714 186.286 83.3143 186.286 80C186.286 77.4857 185.943 74.6286 185.486 73.6C184.914 72.5714 183.2 70.9714 181.486 70.1714C179.657 69.2571 176.686 68.5714 174.743 68.5714C172.343 68.5714 170.171 69.6 168 71.8857ZM9.48555 82.1714C8.11412 82.7429 6.05698 84.2286 4.91412 85.7143C3.65698 87.2 2.85698 90.0571 2.85698 92.8C2.85698 96.4571 3.5427 97.9429 6.51413 100.686C8.57127 102.514 11.5427 104 13.1427 104C14.7427 104 17.4856 103.086 19.4284 102.057C21.257 100.914 23.3141 98.8571 23.9998 97.4857C24.5713 96 25.1427 93.6 25.1427 92C25.1427 90.4 23.7713 87.5429 21.9427 85.7143C20.2284 83.7714 17.257 82.0571 15.4284 81.7143C13.4856 81.4857 10.857 81.6 9.48555 82.1714ZM52.5713 84.4571C50.5141 86.6286 49.257 89.1429 49.257 91.3143C49.1427 93.2571 49.7141 96 50.2856 97.3714C50.9713 98.8571 52.5713 100.571 54.057 101.371C55.4284 102.171 57.3713 102.857 58.2856 102.971C59.1998 103.086 61.1427 103.086 62.3998 102.971C63.7713 102.971 66.1713 101.486 67.8856 99.7714C70.2856 97.2571 70.9713 95.4286 70.857 91.7714C70.857 87.7714 70.2856 86.2857 67.4284 84C65.1427 82.1714 62.6284 81.1429 59.8856 81.1429C56.9141 81.1429 54.9713 82.0571 52.5713 84.4571ZM147.886 82.2857C146.514 82.8571 144.571 84.4571 143.543 85.9429C142.514 87.4286 141.714 90.4 141.714 92.5714C141.6 94.8571 142.628 97.9429 144 99.7714C145.371 101.6 147.886 103.2 149.943 103.543C152.114 104 154.971 103.657 156.571 102.857C158.171 102.057 160.343 100.343 161.371 98.9714C162.514 97.7143 163.428 95.2 163.428 93.4857C163.428 91.6571 162.857 89.0286 162.286 87.4286C161.6 85.8286 159.314 83.7714 157.143 82.8571C154.971 81.9429 152.457 81.1429 151.657 81.2571C150.971 81.2571 149.143 81.7143 147.886 82.2857ZM190.857 84.4571C188.571 86.8571 187.543 89.0286 187.543 91.8857C187.428 94.9714 188.228 96.8 190.857 99.4286C193.371 101.943 195.314 102.857 198.286 102.857C200.457 102.857 203.314 102.286 204.571 101.714C205.828 101.143 207.657 98.7429 208.571 96.5714C209.828 93.4857 210.057 91.6571 209.143 88.5714C208.381 85.9048 206.857 84 204.571 82.8571C202.628 81.9429 199.543 81.1429 197.6 81.1429C195.2 81.1429 193.028 82.1714 190.857 84.4571ZM29.7141 98.1714C27.4284 100.571 26.3998 102.743 26.3998 105.6C26.2856 108.686 27.0856 110.514 29.7141 113.143C32.2284 115.657 34.1713 116.571 37.1427 116.571C39.7713 116.571 42.3998 115.543 44.5713 113.714C47.4284 111.429 47.9998 109.943 47.9998 106.057C48.1141 102.171 47.4284 100.457 44.9141 97.9429C42.5141 95.5429 40.6856 94.7429 37.3713 94.8571C34.057 94.8571 32.1141 95.6571 29.7141 98.1714ZM168 98.1714C165.714 100.571 164.686 102.743 164.686 105.6C164.571 108.686 165.371 110.514 168 113.143C170.628 115.771 172.457 116.571 176 116.571C179.428 116.571 181.371 115.886 183.428 113.714C185.6 111.543 186.286 109.6 186.286 105.714C186.286 101.6 185.714 100 183.086 97.7143C180.914 95.6571 178.743 94.7429 175.657 94.8571C172.343 94.8571 170.4 95.6571 168 98.1714ZM31.657 122.857C29.9427 123.771 27.9998 125.6 27.4284 126.857C26.7427 128.114 26.2856 130.629 26.2856 132.571C26.2856 134.514 26.7427 137.029 27.4284 138.286C27.9998 139.543 30.3998 141.371 32.5713 142.286C35.657 143.657 37.3713 143.771 40.457 142.743C42.6284 142.057 45.257 140.457 46.1713 139.086C47.1998 137.714 47.9998 134.629 47.9998 132.229C47.9998 129.486 47.0856 126.971 45.3713 125.143C43.8856 123.429 41.1427 121.943 38.857 121.714C36.457 121.371 33.5998 121.829 31.657 122.857ZM170.857 122.514C169.6 123.2 167.657 124.8 166.628 126.171C165.486 127.429 164.571 129.943 164.571 131.657C164.571 133.486 165.371 136.343 166.286 138.286C167.428 140.571 169.333 142.095 172 142.857C174.171 143.543 176.914 143.771 177.943 143.429C179.086 143.2 181.371 141.943 183.086 140.571C185.828 138.629 186.286 137.486 186.286 132.571C186.286 127.657 185.828 126.514 182.857 124C180.914 122.4 178.057 121.143 176.228 121.143C174.514 121.143 172.114 121.829 170.857 122.514ZM6.28555 137.714C4.3427 139.657 3.5427 141.829 3.42841 145.143C3.42841 148.8 4.11413 150.4 6.85698 153.143C9.37127 155.657 11.3141 156.571 14.3998 156.571C17.3713 156.571 19.3141 155.657 21.8284 153.143C24.3427 150.514 25.1427 148.686 25.1427 145.143C25.1427 141.829 24.3427 139.771 22.2856 137.714C20.1141 135.543 18.2856 134.857 14.2856 134.857C10.1713 134.857 8.45698 135.543 6.28555 137.714ZM53.5998 136.914C52.1141 138.171 50.5141 140.571 50.1713 142.4C49.7141 144.229 49.8284 147.429 50.3998 149.371C51.0856 151.886 52.5713 153.714 54.857 154.857C56.6856 155.771 59.8856 156.571 61.8284 156.571C64.2284 156.571 66.3998 155.429 68.6856 153.143C71.0856 150.629 71.9998 148.571 71.9998 145.714C71.9998 143.086 70.9713 140.457 69.1427 138.286C66.7427 135.429 65.4856 134.857 61.3713 134.857C58.2856 134.857 55.3141 135.657 53.5998 136.914ZM144.571 138.4C142.4 140.8 141.486 143.086 141.6 145.829C141.714 148.457 142.743 150.743 145.143 153.143C147.657 155.657 149.6 156.571 152.571 156.571C155.086 156.571 157.714 155.543 159.657 153.943C161.486 152.457 163.2 149.714 163.657 147.886C164.114 145.943 163.657 143.086 162.743 140.8C161.828 138.857 160.114 136.571 158.857 136C157.6 135.429 154.514 134.857 152.114 134.857C148.571 134.857 146.971 135.543 144.571 138.4ZM191.428 137.714C189.371 139.771 188.686 141.714 188.571 145.714C188.571 150.057 189.143 151.314 192 153.714C194.286 155.543 196.8 156.571 199.543 156.571C202.514 156.571 204.457 155.657 206.971 153.143C209.143 150.857 210.286 148.571 210.286 146.286C210.286 144.343 209.714 141.714 208.914 140.229C208.228 138.857 206.857 137.143 205.828 136.343C204.8 135.543 201.828 134.857 199.086 134.857C195.314 134.857 193.486 135.543 191.428 137.714ZM29.1427 151.543C26.6284 153.943 26.057 155.543 26.1713 158.971C26.2856 162.286 27.1998 164.343 29.7141 166.857C32.2284 169.371 34.1713 170.286 37.257 170.286C40.2284 170.286 42.1713 169.371 44.6856 166.857C47.1998 164.229 47.9998 162.4 47.9998 158.857C47.9998 155.543 47.1998 153.486 45.1427 151.429C42.9713 149.257 41.1427 148.571 37.257 148.571C33.4856 148.571 31.5427 149.257 29.1427 151.543ZM168 151.886C165.714 154.286 164.686 156.457 164.686 159.314C164.571 162.4 165.371 164.229 168 166.857C170.286 169.143 172.571 170.286 174.857 170.286C176.8 170.286 179.428 169.714 180.8 168.914C182.286 168.229 184 166.857 184.8 165.829C185.6 164.8 186.286 161.829 186.286 159.086C186.286 155.429 185.6 153.6 183.428 151.429C181.371 149.371 179.314 148.571 175.886 148.571C172.228 148.571 170.514 149.257 168 151.886ZM7.65698 162.857C5.9427 163.886 4.11413 166.171 3.42841 168.343C2.7427 170.286 2.51412 173.257 2.85698 174.857C3.19984 176.457 4.57127 178.857 6.05698 180.343C7.88555 182.171 9.9427 182.971 13.7141 182.971C18.057 183.086 19.3141 182.514 22.057 179.543C23.7713 177.6 25.1427 174.743 25.1427 173.143C25.1427 171.543 24.3427 168.8 23.4284 166.857C22.5141 164.914 20.6856 162.971 19.4284 162.286C18.1713 161.6 15.7713 161.143 14.057 161.143C12.2284 161.257 9.48555 161.943 7.77127 162.857H7.65698ZM51.8856 164.686C49.7141 167.086 48.7998 169.371 48.9141 172.114C49.0284 174.743 50.057 177.029 52.457 179.429C54.9713 181.943 56.9141 182.857 59.8856 182.857C62.5141 182.857 65.1427 181.829 67.3141 180C70.1713 177.6 70.7427 176.343 70.7427 172C70.7427 168 70.057 166.171 67.8856 164C65.7141 161.829 63.8856 161.143 59.9998 161.143C55.7713 161.143 54.3998 161.714 51.8856 164.686ZM144.914 164.343C142.171 166.743 141.371 168.457 141.371 171.429C141.257 173.6 141.828 176.571 142.628 178.057C143.314 179.429 145.028 181.143 146.4 181.829C147.886 182.514 150.514 183.086 152.457 183.086C154.4 183.086 157.028 182.4 158.4 181.6C159.886 180.686 161.486 178.857 162.171 177.486C162.743 176 163.314 173.371 163.314 171.429C163.314 169.143 162.171 166.857 159.886 164.571C157.371 162.057 155.428 161.143 152.457 161.143C149.714 161.143 147.428 162.171 144.914 164.343ZM190.171 164.914C187.543 168 187.2 169.371 187.657 173.143C188.114 176.114 189.371 178.629 191.2 180.343C193.143 181.943 195.657 182.857 198.171 182.857C200.343 182.857 203.428 181.943 205.143 180.914C206.743 179.771 208.457 177.143 209.143 175.2C209.943 172.457 209.714 170.4 208.457 167.429C207.543 165.257 205.714 162.971 204.457 162.286C203.2 161.6 200.114 161.143 197.714 161.143C194.057 161.143 192.686 161.829 190.171 164.914ZM100.8 163.886C99.5427 164.686 97.5999 166.629 96.5713 168.114C95.657 169.6 94.857 172 94.7427 173.486C94.7427 174.857 95.3141 177.143 95.8856 178.629C96.5713 180 98.1713 181.714 99.657 182.514C101.028 183.2 103.086 184.114 104.228 184.457C105.257 184.8 108 184.343 110.171 183.429C112.457 182.514 114.971 180.229 115.886 178.286C116.8 176.343 117.371 173.371 117.028 171.429C116.686 169.486 114.971 166.743 113.028 165.143C111.086 163.543 108.228 162.286 106.4 162.286C104.686 162.4 102.171 163.086 100.8 163.886ZM172.571 174.629C171.2 174.857 168.914 176.571 167.314 178.4C165.6 180.343 164.457 183.086 164.457 185.143C164.457 187.086 164.914 189.6 165.6 190.857C166.286 192.114 168.228 193.943 170.171 194.857C172.114 195.771 174.857 196.571 176.457 196.571C178.057 196.571 180.8 195.314 182.743 193.714C185.6 191.429 186.171 189.943 186.171 185.943C186.286 182.971 185.486 180.114 184.228 178.514C183.086 177.143 180.571 175.543 178.514 175.086C176.457 174.629 173.828 174.4 172.571 174.629ZM29.0284 177.829C27.1998 179.886 26.2856 182.286 26.2856 185.257C26.1713 188.686 26.9713 190.514 29.5998 193.143C32.1141 195.657 34.057 196.571 37.1427 196.571C40.1141 196.571 42.057 195.657 44.5713 193.143C47.0856 190.514 47.8856 188.686 47.8856 185.143C47.8856 181.829 47.0856 179.771 45.0284 177.714C42.857 175.543 41.0284 174.857 37.0284 174.857C32.7998 174.857 31.1998 175.429 29.0284 177.829ZM80.2284 175.657C78.7427 175.886 76.3427 177.714 74.7427 179.543C72.9141 181.714 71.8856 184.229 71.8856 186.857C71.8856 189.829 72.7999 191.771 75.3141 194.286C77.8284 196.8 79.7713 197.714 82.7427 197.714C85.3713 197.714 87.9999 196.686 90.1713 194.857C92.9141 192.571 93.5999 191.086 93.5999 187.429C93.5999 184.914 93.0284 181.829 92.457 180.571C91.8856 179.314 89.4856 177.486 87.3141 176.571C85.1427 175.657 83.1999 174.971 83.0856 174.971C82.857 175.086 81.5999 175.429 80.2284 175.657ZM121.6 178.857C119.657 180.8 118.857 182.971 118.743 186.286C118.743 189.943 119.428 191.543 122.171 194.286C124.686 196.8 126.628 197.714 129.714 197.714C132.686 197.714 134.628 196.8 137.143 194.286C139.543 191.771 140.457 189.714 140.457 186.514C140.571 183.543 139.657 181.371 137.6 179.086C135.314 176.571 133.714 176 129.6 176C125.486 176 123.771 176.686 121.6 178.857ZM103.086 189.371C101.6 189.6 99.1999 191.429 97.5999 193.486C95.4284 196.343 94.9713 197.943 95.3141 201.714C95.657 204.229 96.7999 207.2 97.8284 208.343C98.9713 209.486 101.714 210.629 103.886 210.971C106.171 211.314 109.257 210.971 111.086 210.057C112.8 209.257 115.086 206.857 116 204.914C116.8 202.857 117.6 200.686 117.6 200C117.6 199.314 116.8 197.371 115.886 195.429C114.971 193.486 112.457 191.2 110.171 190.286C108 189.371 106.057 188.686 105.828 188.686C105.714 188.8 104.457 189.143 103.086 189.371ZM125.714 202.057C124.343 202.286 122.057 204 120.457 205.829C118.628 208 117.6 210.514 117.6 213.143C117.6 216.114 118.514 218.057 121.028 220.571C123.314 222.857 125.6 224 127.886 224C129.828 224 132.8 223.2 134.743 222.286C136.914 221.257 138.628 219.2 139.314 216.8C140 214.857 140.228 211.886 139.886 210.286C139.543 208.686 138.4 206.514 137.371 205.486C136.228 204.343 133.714 203.086 131.657 202.629C129.6 202.057 126.971 201.829 125.714 202.057ZM75.657 204.914C73.9427 206.4 72.1141 209.029 71.5427 210.629C71.0856 212.571 71.3141 215.2 72.457 217.714C73.5999 220.229 75.5427 222.286 77.8284 223.314C80.1141 224.229 82.9713 224.686 84.9141 224.229C86.7427 223.771 89.4856 222.057 90.9713 220.229C92.5713 218.286 93.5999 215.657 93.5999 213.143C93.5999 210.171 92.6856 208.229 90.1713 205.714C87.657 203.2 85.5999 202.286 82.857 202.286C80.457 202.286 77.7141 203.314 75.657 204.914ZM100.686 216.914C98.6284 217.943 96.457 220.114 95.7713 221.714C95.0856 223.314 94.857 226.514 95.1999 228.8C95.7713 232.114 96.7999 233.714 99.5427 235.429C101.6 236.686 104.686 237.714 106.4 237.714C108.228 237.714 111.086 236.457 113.028 234.857C114.971 233.257 116.686 230.629 117.028 228.8C117.371 227.086 117.143 224.343 116.457 222.514C115.886 220.8 113.6 218.4 111.543 217.143C109.6 215.886 107.086 214.857 106.171 214.857C105.257 214.857 102.743 215.771 100.686 216.914Z" fill="#FEFEFE"/>
<path fill-rule="evenodd" clip-rule="evenodd" d="M92.6857 64.1142C93.1428 64 93.3714 64.6857 93.3714 65.3714C93.4857 66.1714 93.4857 68 93.6 69.3714C93.6 70.8571 95.5428 73.8285 97.7142 76C100.914 79.2 102.629 80 106.286 80C108.8 80 112.343 79.2 114.286 78.2857C116.229 77.3714 118.514 75.0857 119.429 73.1428C120.343 71.2 121.143 68.4571 121.143 66.8571C121.143 64.3428 121.486 64.1142 123.429 65.1428C124.686 65.7142 127.886 66.2857 130.629 66.2857C133.371 66.2857 136.114 65.6 136.914 64.8C137.943 63.7714 138.4 64.4571 139.086 68C139.543 70.8571 141.257 73.9428 143.657 76.2285C147.086 79.6571 147.2 80 145.143 80.5714C143.886 80.9142 141.829 82.8571 140.571 84.8C139.314 86.8571 138.4 90.4 138.4 92.5714C138.4 94.7428 139.314 98.0571 140.457 100C141.6 101.943 144.114 104.114 145.829 104.914C147.657 105.829 151.2 106.286 153.714 105.943C156.229 105.714 159.2 105.029 160.457 104.457C161.829 103.771 162.514 103.886 162.286 104.571C162.171 105.143 162.057 107.086 162.171 108.8C162.286 110.857 163.771 113.371 170.057 119.429L167.086 121.714C165.486 122.971 163.543 125.714 162.629 127.657C161.829 129.714 161.486 132.114 162.057 132.8C162.629 133.829 162.286 133.943 160.571 133.257C159.314 132.8 156.229 132.114 153.714 131.771C150.4 131.429 148.114 132 145.486 133.6C143.429 134.971 140.914 137.943 139.886 140.229C138.4 143.771 138.286 145.371 139.314 148.8C140 151.2 142.057 154.4 144 156C147.314 158.743 147.314 158.857 145.143 160C143.886 160.686 141.829 162.857 140.571 164.8C139.314 166.857 138.286 169.943 138.286 171.657C138.286 174.286 137.943 174.743 136.343 174.057C135.2 173.714 132.8 173.143 130.857 172.8C128.914 172.457 125.829 173.029 123.771 174.171C120 176 120 176 120 173.143C120 171.543 119.314 168.914 118.4 167.086C117.6 165.371 115.543 163.086 113.829 161.943C112.114 160.8 108.686 160 105.714 160C101.943 160 99.6571 160.686 97.1428 162.857C95.2 164.457 93.0285 167.771 92.3428 170.171C90.9714 174.171 90.6285 174.629 88.5714 173.486C87.3142 172.8 84.4571 172.571 82.2857 172.8C80.1142 173.143 77.3714 173.714 76.3428 174.057C74.7428 174.743 74.2857 174.286 74.2857 172C74.2857 170.4 73.4857 167.657 72.5714 165.714C71.6571 163.771 69.8285 161.6 68.5714 160.8C66.2857 159.429 66.2857 159.314 70.2857 155.086C72.4571 152.8 74.2857 149.714 74.4 148.229C74.5142 146.857 74.4 144.457 74.2857 142.857C74.1714 141.257 73.1428 138.743 72.1142 137.257C71.0857 135.771 68.9142 133.829 67.2 133.029C65.3714 132.114 62.6285 131.429 60.9142 131.429C59.0857 131.429 56.3428 132.229 54.6285 133.143C51.6571 134.743 51.4285 134.743 51.4285 132.571C51.4285 131.314 50.6285 128.571 49.7142 126.514C48.8 124.571 46.7428 122.057 42.1714 119.429L45.2571 117.143C46.9714 115.886 49.0285 113.486 49.8285 111.657C50.7428 109.943 51.4285 107.543 51.4285 106.286C51.4285 104.571 51.8857 104.229 53.4857 104.8C54.5142 105.143 56.9142 105.714 58.8571 106.057C60.8 106.286 63.8857 105.714 66.0571 104.686C68 103.657 70.7428 101.143 72 99.0857C73.2571 97.1428 74.2857 93.9428 74.2857 92C74.2857 90.0571 73.2571 86.8571 72 84.8C70.7428 82.8571 68.9142 80.9142 68 80.5714C66.7428 80.1142 67.2 79.0857 70.2857 76C72.4571 73.8285 74.4 70.8571 74.4 69.3714C74.5142 68 74.4 66.2857 74.2857 65.7142C74.1714 65.0285 74.9714 64.9142 76.6857 65.6C78.1714 66.0571 81.1428 66.7428 83.2 67.0857C85.4857 67.3142 88 66.8571 89.4857 65.9428C90.8571 65.0285 92.3428 64.2285 92.6857 64.1142ZM48.8 89.1428C49.0285 90.0571 49.0285 92.1142 48.8 93.7142C48.4571 95.4285 48.3428 94.7428 48.3428 92C48.2285 89.4857 48.4571 88.2285 48.8 89.1428Z" fill="black"/>
<path d="M186.628 105.714C186.628 108.457 186.743 109.143 187.086 107.429C187.314 105.829 187.314 103.771 187.086 102.857C186.743 101.943 186.514 103.2 186.628 105.714ZM12.3428 134.514C13.8285 134.743 15.8856 134.743 16.9142 134.514C17.9428 134.171 16.7999 133.943 14.2856 134.057C11.7713 134.057 10.8571 134.286 12.3428 134.514Z" fill="black"/>
</svg>
