<svg width="218" height="240" viewBox="0 0 218 240" fill="none" xmlns="http://www.w3.org/2000/svg">
<path d="M105.002 0.761182C103.761 1.55056 101.957 3.1293 101.055 4.25698C99.7015 6.17403 98.9121 6.2868 96.7695 5.27189C95.4163 4.59528 93.2737 4.03145 92.0333 4.03145C90.68 4.03145 88.4247 5.27189 86.9587 6.85064C85.1544 8.54215 84.1395 11.023 84.1395 13.0529C84.1395 15.8721 83.8012 16.3231 81.8842 15.8721C80.3806 15.4962 78.5011 16.4359 76.2458 18.6912C74.3287 20.4955 72.8627 23.0892 72.8627 24.3296C72.8627 25.5701 73.4266 27.5999 73.9904 28.8403C74.8926 30.6446 74.5543 31.5468 72.5244 33.1255C71.1712 34.2532 69.7052 36.6213 69.1414 38.2001C68.6903 40.0043 68.9159 42.2597 69.5925 43.8384C70.2691 45.1917 71.8478 47.1087 73.0883 48.0109C75.0053 49.4768 75.1181 50.0407 73.7649 52.7471C72.6372 55.228 71.8478 55.5663 70.3819 54.7769C69.2542 54.1003 67.3371 53.6492 66.0967 53.6492C64.4052 53.6492 63.8413 52.8599 63.8413 50.83C63.8413 49.2513 62.6009 46.7704 61.0221 45.1917C59.4434 43.6129 57.188 42.3725 55.9476 42.3725C54.7071 42.3725 52.5645 42.9363 51.0986 43.6129C48.956 44.6278 48.2794 44.4023 46.1368 41.5831C44.3325 39.1022 42.8665 38.4256 39.5963 38.4256C36.326 38.4256 34.86 39.1022 32.7174 41.8086C30.5749 44.5151 29.7855 44.9661 28.6578 43.7257C27.8684 42.9363 25.7258 42.3725 24.0343 42.3725C22.23 42.3725 19.7491 43.5001 18.1704 45.1917C16.5917 46.7704 15.3512 49.2513 15.3512 50.83C15.3512 52.6343 14.6746 53.6492 13.6597 53.6492C12.7576 53.6492 10.7277 54.3258 9.14899 55.0025C7.57024 55.7918 5.65319 58.0472 4.97658 59.8515C3.96167 62.4451 3.96167 64.0239 4.97658 66.6175C6.10426 69.5495 5.99149 70.2261 4.07444 71.4665C2.83399 72.1431 1.25525 74.173 0.691408 75.8645C-0.210734 78.0071 -0.210734 79.9241 0.57864 81.8412C1.25525 83.4199 3.05953 85.4497 4.52551 86.3519C7.11917 87.9306 7.23194 88.2689 5.65319 90.2987C4.75105 91.5392 4.07444 93.6818 4.07444 95.1478C4.07444 96.501 5.31488 98.8691 6.89363 100.448C8.47238 102.027 10.9533 103.267 12.532 103.267C14.7874 103.267 15.3512 103.831 15.3512 106.086C15.3512 107.665 16.5917 110.146 18.1704 111.725C19.8619 113.416 22.23 114.544 24.0343 114.544C25.8386 114.544 27.9812 114.093 28.8833 113.529C30.1238 112.74 31.477 113.416 33.6196 115.784L36.7771 119.055C31.477 124.693 30.1238 125.369 28.8833 124.58C27.9812 124.016 25.7258 123.565 24.0343 123.565C22.1173 123.565 19.7491 124.693 18.1704 126.384C16.5917 127.963 15.3512 130.444 15.3512 132.023C15.3512 134.278 14.7874 134.842 12.532 134.842C10.9533 134.842 8.35961 136.082 6.89363 137.661C5.31488 139.24 4.07444 141.721 4.07444 143.3C4.07444 144.878 4.63828 147.134 5.20212 148.374C6.10426 150.178 5.76596 151.081 3.39783 153.223C1.14248 155.027 0.353105 156.832 0.353105 159.651C0.353105 162.696 1.14248 164.274 3.62337 166.191C6.55533 168.56 6.78087 169.123 5.42765 171.604C4.75105 173.07 4.07444 175.326 4.07444 176.566C4.07444 177.806 5.31488 180.062 6.89363 181.641C8.47238 183.219 10.9533 184.46 12.532 184.46C14.7874 184.46 15.3512 185.024 15.3512 187.279C15.3512 188.858 16.5917 191.339 18.1704 192.917C19.8619 194.609 22.23 195.737 24.1471 195.737C25.8386 195.737 27.9812 195.285 28.8833 194.722C30.1238 193.932 31.477 194.609 33.7323 196.977C35.5366 198.894 37.9047 200.247 39.709 200.247C41.4005 200.247 44.107 198.781 46.1368 196.751C48.6177 194.383 50.0837 193.707 50.873 194.609C51.4369 195.173 53.4667 195.737 55.1582 195.737C56.9625 195.737 59.4434 194.609 61.0221 192.917C62.6009 191.339 63.8413 188.858 63.8413 187.279C63.8413 185.136 64.4052 184.46 66.3222 184.46C67.7882 184.46 69.7052 184.009 70.6074 183.332C71.9606 182.543 72.6372 183.219 73.6521 186.49C74.8926 190.211 74.7798 190.888 72.9755 192.354C71.8478 193.256 70.2691 195.173 69.5925 196.639C68.9159 198.105 68.6903 200.36 69.1414 202.164C69.7052 203.743 71.1712 206.111 72.5244 207.239C74.5543 208.818 74.8926 209.72 73.9904 211.524C73.4266 212.764 72.8627 214.794 72.8627 216.035C72.8627 217.275 74.3287 219.756 76.2458 221.673C78.5011 223.928 80.3806 224.868 81.8842 224.492C83.5757 224.041 84.1395 224.492 84.1395 226.184C84.1395 227.424 84.8161 229.68 85.4927 231.258C86.2821 232.837 88.4247 234.754 90.3417 235.431C93.0482 236.446 94.2886 236.446 96.6567 235.092C99.3632 233.626 99.7015 233.739 100.716 235.769C101.28 237.01 103.31 238.588 105.114 239.265C107.708 240.28 109.174 240.28 112.106 239.039C114.023 238.137 115.94 236.446 116.278 235.205C116.842 233.063 116.955 233.063 119.323 234.754C121.015 235.882 123.044 236.22 124.961 235.882C126.766 235.544 129.134 234.19 130.374 232.95C131.615 231.709 132.63 229.341 132.63 227.537C132.63 225.056 133.193 224.492 135.787 224.267C137.479 224.154 139.96 222.801 141.426 221.222C142.779 219.643 143.906 217.275 143.906 216.035C143.906 214.794 143.455 212.764 142.779 211.524C141.877 209.72 142.215 208.818 144.132 207.239C145.598 206.111 147.064 203.743 147.515 202.164C148.079 200.134 147.853 197.879 146.726 195.737C145.823 193.819 144.019 192.128 142.779 191.79C140.636 191.226 140.636 191.113 142.44 188.068C143.455 186.377 144.019 184.009 143.794 182.655C143.343 180.287 143.343 180.287 146.162 182.43C147.741 183.558 150.109 184.573 151.575 184.46C153.604 184.46 154.055 185.024 154.055 187.843C154.055 190.211 154.958 191.902 157.1 193.481C158.905 194.834 161.16 195.849 162.175 195.737C163.302 195.737 165.219 195.285 166.46 194.609C168.264 193.707 169.392 194.158 172.098 196.864C174.015 198.781 176.271 200.247 177.173 200.247C178.075 200.247 180.105 199.571 181.684 198.781C183.262 198.105 184.841 196.526 185.067 195.398C185.443 194.12 186.269 193.707 187.548 194.158C188.675 194.609 190.818 195.173 192.397 195.398C193.975 195.737 196.343 195.285 197.809 194.496C199.163 193.594 200.854 191.564 201.418 189.76C202.095 188.068 202.32 186.264 201.982 185.587C201.643 184.911 202.546 184.46 203.899 184.46C205.365 184.46 207.62 183.67 208.973 182.768C210.439 181.866 212.018 179.836 212.695 178.258C213.484 176.228 213.371 174.536 212.356 172.281C211.003 169.462 211.116 169.011 214.048 166.079C216.078 164.162 217.205 161.906 217.205 159.651C217.205 157.396 216.078 155.253 213.935 153.11C211.68 151.193 210.89 149.727 211.68 148.938C212.244 148.261 212.807 146.232 213.033 144.202C213.146 141.721 212.469 139.804 210.439 137.661C208.748 135.97 206.38 134.842 204.463 134.842C202.546 134.842 201.531 134.278 201.869 133.376C202.095 132.699 201.643 130.331 200.741 128.301C199.726 125.933 198.148 124.467 196.005 124.016C194.314 123.678 192.171 123.565 191.269 123.904C190.367 124.129 188.675 124.693 187.548 125.144C186.194 125.595 185.405 125.144 185.067 123.565C184.728 122.325 183.375 120.972 181.909 120.633C179.428 119.957 179.428 119.957 182.473 117.814C184.277 116.574 185.63 114.882 185.63 113.98C185.63 113.078 186.082 112.288 186.758 112.288C187.435 112.288 188.111 112.852 188.45 113.416C188.788 113.98 190.818 114.544 192.96 114.544C195.441 114.544 197.809 113.642 199.163 112.288C200.403 111.048 201.531 109.131 201.531 108.003C201.643 106.988 201.643 105.41 201.531 104.62C201.418 103.831 202.658 103.267 204.463 103.267C206.267 103.267 208.635 102.252 209.988 100.786C211.341 99.3202 212.695 97.1776 213.146 95.9371C213.484 94.6967 213.146 92.4413 212.244 90.8626C210.778 88.2689 210.89 87.8178 213.935 85.4497C216.303 83.6454 217.205 81.9539 217.205 79.2475C217.205 77.3304 216.416 74.5113 215.514 73.0453C214.612 71.6921 213.033 70.5644 212.131 70.5644C211.229 70.5644 210.439 70.0006 210.439 69.4367C210.439 68.8729 210.89 68.0835 211.567 67.7452C212.244 67.4069 212.695 65.1515 212.695 62.6707C212.695 59.0621 212.131 57.7089 209.537 55.9046C207.846 54.5514 205.365 53.5365 203.899 53.6492C201.869 53.6492 201.418 53.0854 201.531 50.4917C201.643 48.4619 200.629 46.5449 198.712 44.8534C197.133 43.5001 194.765 42.3725 193.524 42.3725C192.284 42.3725 190.254 42.9363 189.013 43.5001C187.209 44.4023 186.082 43.9512 183.375 41.2448C181.458 39.4405 178.977 37.8618 177.624 37.8618C176.383 37.8618 173.79 39.4405 171.986 41.2448C169.279 43.9512 168.264 44.4023 166.46 43.5001C165.219 42.9363 163.302 42.3725 162.175 42.3725C161.16 42.2597 158.905 43.2746 157.1 44.6278C154.958 46.2066 154.055 47.8981 154.055 50.2662C154.055 52.9726 153.604 53.6492 151.462 53.6492C150.109 53.6492 147.853 54.4386 146.387 55.3408C144.132 56.9195 143.906 56.8067 143.906 55.0025C143.906 53.9875 143.343 52.4088 142.553 51.6194C141.313 50.379 141.538 49.8151 143.455 48.2364C144.809 47.2215 146.5 45.1917 147.177 43.7257C147.853 42.3725 148.417 40.4554 148.417 39.5533C148.417 38.6511 146.951 36.283 145.034 34.4787C142.328 31.7723 141.877 30.6446 142.779 28.8403C143.455 27.5999 143.906 25.4573 143.906 23.9913C143.906 22.6381 142.891 20.3828 141.651 18.9168C140.411 17.5636 137.817 16.0976 136.013 15.5338C133.419 14.9699 132.63 14.0678 132.63 12.1507C132.63 10.7975 131.389 8.42939 129.81 6.85064C128.232 5.27189 125.976 4.03145 124.736 4.03145C123.495 4.03145 121.353 4.59528 119.887 5.27189C117.744 6.2868 117.068 6.06126 115.151 3.58037C113.91 2.00163 111.655 0.422879 110.076 0.0845758C108.497 -0.14096 106.242 0.0845757 105.002 0.761182Z" fill="black"/>
<path d="M103.874 5.72302C102.972 7.30177 102.408 9.55712 102.746 10.7976C103.085 12.038 104.438 13.6168 105.904 14.2934C107.708 15.1955 109.061 15.1955 110.978 14.2934C112.332 13.6168 113.798 11.6997 114.136 9.89542C114.587 7.75284 114.136 6.28686 112.67 4.82088C111.542 3.6932 109.512 2.79106 108.159 2.90382C106.693 2.90382 104.889 4.14427 103.874 5.72302ZM88.6503 8.76775C87.7482 9.55712 87.1843 11.3614 87.2971 12.9402C87.4099 14.6317 88.0865 16.5487 88.8759 17.3381C89.6652 18.1275 91.5823 18.6913 93.161 18.6913C94.8525 18.6913 96.6568 18.0147 97.4462 17.2253C98.2356 16.5487 98.7994 14.6317 98.7994 13.0529C98.7994 11.4742 98.2356 9.55712 97.4462 8.76775C96.6568 7.97837 94.7398 7.41453 93.161 7.41453C91.4695 7.41453 89.5525 7.97837 88.6503 8.76775ZM119.098 8.76775C118.195 9.55712 117.632 11.3614 117.744 12.9402C117.857 14.6317 118.534 16.5487 119.323 17.3381C120.113 18.1275 122.142 18.6913 123.947 18.6913C125.976 18.6913 127.555 17.7892 128.683 15.8721C130.149 13.3912 130.149 12.7146 128.683 10.2337C127.555 8.31668 125.976 7.41453 123.834 7.41453C122.142 7.41453 120 7.97837 119.098 8.76775ZM77.3735 20.0445C76.4714 20.8339 75.9076 22.6382 76.0203 24.2169C76.1331 25.9084 77.2608 28.1638 78.5012 29.4042C80.7566 31.5468 81.0949 31.5468 83.9141 29.9681C85.6056 28.9532 87.0716 27.0361 87.2971 25.4574C87.5226 23.8786 86.9588 21.736 85.9439 20.6084C84.929 19.5934 83.0119 18.6913 81.546 18.6913C80.08 18.6913 78.2757 19.2551 77.3735 20.0445ZM103.874 20.7211C102.746 21.8488 101.844 23.5403 101.957 24.4425C102.07 25.3446 102.972 27.2617 104.099 28.7276C105.678 30.8702 106.806 31.2085 109.287 30.6447C110.978 30.3064 113.008 28.7276 113.798 27.2617C114.925 24.8935 114.812 23.9914 113.234 21.6233C111.993 19.819 110.076 18.6913 108.497 18.6913C107.144 18.6913 105.002 19.5934 103.874 20.7211ZM130.262 20.8339C129.585 22.0743 129.134 24.1042 129.134 25.3446C129.247 26.6978 130.487 28.5021 132.066 29.4042C134.547 30.8702 135.223 30.8702 137.704 29.4042C139.621 28.2766 140.523 26.6978 140.523 24.5552C140.523 22.8637 139.96 20.8339 139.17 20.0445C138.381 19.2551 136.351 18.6913 134.66 18.6913C132.855 18.6913 131.051 19.5934 130.262 20.8339ZM97.1079 20.9467C96.7696 21.6233 96.7696 22.5254 97.1079 23.202C97.4462 23.8786 98.2356 24.3297 98.7994 24.3297C99.3633 24.3297 99.9271 23.3148 99.9271 22.0743C99.9271 20.8339 99.476 19.819 98.7994 19.819C98.2356 19.819 97.559 20.2701 97.1079 20.9467ZM116.955 21.9616C116.842 23.3148 117.406 24.2169 118.195 23.9914C118.985 23.7659 119.661 22.8637 119.661 22.0743C119.661 21.285 119.098 20.3828 118.421 20.0445C117.632 19.819 117.068 20.7211 116.955 21.9616ZM90.9057 27.9383C90.0035 28.7276 89.4397 30.7575 89.5525 32.449C89.6652 34.4788 90.7929 36.1703 92.5972 37.298C95.0781 38.764 95.7547 38.764 98.2356 37.298C99.8143 36.3958 101.055 34.5916 101.055 33.3511C101.055 32.1107 100.491 30.0808 99.9271 28.8404C99.2505 27.3744 97.6717 26.585 95.6419 26.585C93.9504 26.585 91.8078 27.1489 90.9057 27.9383ZM116.842 27.9383C115.94 28.7276 115.376 30.5319 115.489 32.1107C115.602 33.8022 116.278 35.7192 117.068 36.5086C117.857 37.298 119.774 37.8618 121.466 37.8618C123.044 37.8618 124.849 37.1852 125.638 36.5086C126.428 35.7192 126.991 33.8022 126.991 32.2234C126.991 30.6447 126.428 28.7276 125.638 27.9383C124.849 27.1489 122.932 26.585 121.24 26.585C119.661 26.585 117.744 27.1489 116.842 27.9383ZM73.4267 36.2831C72.4118 37.1852 71.6224 39.215 71.6224 40.7938C71.7352 42.3725 72.8628 44.1768 74.5544 45.1917C77.0353 46.6577 77.7119 46.6577 80.1927 45.1917C82.1098 44.064 83.0119 42.4853 83.0119 40.3427C83.0119 38.6512 82.4481 36.6214 81.6587 35.832C80.8694 35.0426 79.0651 34.4788 77.7119 34.4788C76.3586 34.4788 74.4416 35.2682 73.4267 36.2831ZM103.874 37.298C102.972 38.8767 102.408 41.1321 102.746 42.3725C103.085 43.613 104.438 45.1917 105.904 45.8683C107.708 46.7705 109.061 46.7705 110.978 45.8683C112.332 45.1917 113.798 43.2747 114.136 41.4704C114.587 39.3278 114.136 37.8618 112.67 36.3958C111.542 35.2682 109.512 34.366 108.159 34.4788C106.693 34.4788 104.889 35.7192 103.874 37.298ZM134.885 35.832C133.983 36.6214 133.419 38.6512 133.532 40.3427C133.645 42.3725 134.772 44.064 136.577 45.1917C139.057 46.6577 139.734 46.6577 142.215 45.1917C144.019 44.064 145.034 42.4853 145.034 40.681C145.034 39.1023 144.245 37.0724 143.343 36.1703C142.441 35.2682 140.523 34.4788 139.057 34.4788C137.592 34.4788 135.787 35.0426 134.885 35.832ZM128.119 39.5533C128.119 40.4555 128.908 41.2448 129.811 41.2448C130.713 41.2448 131.502 40.4555 131.502 39.5533C131.502 38.6512 130.713 37.8618 129.811 37.8618C128.908 37.8618 128.119 38.6512 128.119 39.5533ZM86.9588 40.1172C86.6205 40.681 86.9588 41.4704 87.5226 41.8087C88.0865 42.147 89.2142 42.147 89.778 41.8087C90.3418 41.4704 90.6801 40.681 90.3418 40.1172C90.0035 39.5533 89.3269 38.9895 88.6503 38.9895C88.0865 38.9895 87.4099 39.5533 86.9588 40.1172ZM35.0857 44.064C34.1835 45.6428 33.6197 47.8981 33.958 49.1386C34.2963 50.379 35.6495 51.9578 37.1155 52.6344C38.9198 53.5365 40.273 53.5365 42.19 52.6344C43.5432 51.9578 45.0092 50.0407 45.3475 48.2364C45.7986 46.0939 45.3475 44.6279 43.8815 43.1619C42.7539 42.0342 40.7241 41.1321 39.3708 41.2448C37.9049 41.2448 36.1006 42.4853 35.0857 44.064ZM117.406 43.2747C116.278 44.4023 115.376 46.4322 115.489 47.7854C115.602 49.1386 116.504 51.0556 117.406 51.9578C118.308 52.8599 120.225 53.6493 121.691 53.6493C123.157 53.6493 124.849 52.9727 125.638 52.1833C126.428 51.5067 126.991 49.4769 126.991 47.6726C126.991 45.9811 126.202 43.8385 125.3 42.9364C124.398 42.0342 122.706 41.2448 121.466 41.2448C120.338 41.2448 118.534 42.147 117.406 43.2747ZM173.226 42.5981C172.324 43.3874 171.76 45.4173 171.873 47.1088C171.986 49.1386 173.113 50.8301 174.918 51.9578C177.399 53.4238 178.075 53.4238 180.556 51.9578C182.473 50.8301 183.375 49.2514 183.375 47.1088C183.375 45.4173 182.811 43.3874 182.022 42.5981C181.233 41.8087 179.316 41.2448 177.624 41.2448C176.045 41.2448 174.128 41.8087 173.226 42.5981ZM90.9057 43.7257C90.0035 44.5151 89.4397 46.5449 89.5525 48.2364C89.6652 50.2663 90.7929 51.9578 92.5972 53.0855C94.627 54.3259 95.9802 54.4387 97.6717 53.6493C98.9122 53.0855 100.265 51.3939 100.604 49.928C100.942 48.5748 100.716 46.3194 100.04 44.8534C99.1377 43.1619 97.7845 42.3725 95.6419 42.3725C93.9504 42.3725 91.8078 42.9364 90.9057 43.7257ZM21.1025 46.3194C19.2982 47.5598 18.5088 49.1386 18.5088 51.1684C18.6216 52.8599 19.2982 54.8897 20.0876 55.6791C20.8769 56.4685 22.794 57.0323 24.3727 57.0323C26.0642 57.0323 27.8685 56.3557 28.6579 55.5664C29.4473 54.8897 30.0111 52.8599 30.0111 51.0556C30.0111 49.1386 29.109 47.3343 27.4175 46.3194C26.0642 45.4173 24.711 44.6279 24.3727 44.6279C24.0344 44.6279 22.5684 45.4173 21.1025 46.3194ZM51.5497 46.3194C50.0838 47.3343 48.9561 49.1386 49.0689 50.379C49.0689 51.5067 49.6327 53.5365 50.3093 54.777C51.0611 56.2805 52.5647 57.0323 54.82 57.0323C57.1881 57.0323 58.6541 56.243 59.8946 54.2131C61.135 52.1833 61.2478 50.8301 60.4584 49.1386C59.7818 47.8981 58.3158 46.3194 57.0754 45.7556C55.8349 45.1917 54.7072 44.6279 54.4817 44.6279C54.3689 44.6279 53.0157 45.4173 51.5497 46.3194ZM158.679 46.7705C157.439 48.1237 156.311 50.1535 156.311 51.3939C156.311 52.6344 157.1 54.4387 158.002 55.3408C158.905 56.243 160.934 57.0323 162.513 57.0323C164.205 57.0323 166.009 56.0174 167.024 54.5514C168.377 52.5216 168.49 51.2812 167.588 48.9131C167.024 47.1088 166.009 45.7556 165.332 45.7556C164.656 45.7556 163.528 45.4173 162.626 45.079C161.837 44.7406 160.032 45.53 158.679 46.7705ZM191.156 45.8683C190.141 46.4322 188.788 48.0109 187.999 49.1386C187.097 50.9429 187.097 51.9578 188.45 54.2131C189.69 56.243 191.156 57.0323 193.524 57.0323C195.78 57.0323 197.283 56.2805 198.035 54.777C198.712 53.5365 199.163 51.5067 199.163 50.2663C199.163 49.0258 198.035 47.2215 196.569 46.3194C195.216 45.4173 193.863 44.6279 193.524 44.6279C193.186 44.6279 192.171 45.1917 191.156 45.8683ZM105.791 49.928C105.002 50.2663 103.874 51.845 103.197 53.5365C102.408 55.6791 102.521 57.1451 103.874 58.9494C104.889 60.4154 106.693 61.543 108.272 61.543C109.851 61.543 111.88 60.7537 112.783 59.8515C113.798 58.9494 114.587 57.1451 114.587 55.9047C114.587 54.6642 113.572 52.6344 112.332 51.3939C111.091 50.1535 109.4 49.1386 108.61 49.2514C107.934 49.2514 106.58 49.5897 105.791 49.928ZM77.3735 51.6195C76.4714 52.4089 75.9076 54.4387 76.0203 56.1302C76.1331 57.8217 77.0352 60.0771 77.9374 60.9792C78.8395 61.8813 80.3055 62.6707 80.9821 62.6707C81.7715 62.6707 83.5758 61.8813 84.929 60.9792C86.5077 59.9643 87.5226 58.16 87.5226 56.4685C87.5226 54.8897 86.7333 52.8599 85.8311 51.9578C84.929 51.0556 83.0119 50.2663 81.546 50.2663C80.08 50.2663 78.2757 50.8301 77.3735 51.6195ZM130.938 52.0705C129.923 52.9727 129.134 55.0025 129.134 56.5813C129.247 58.0472 130.374 60.0771 131.728 60.9792C133.194 61.8813 134.885 62.6707 135.674 62.6707C136.351 62.6707 137.817 61.8813 138.719 60.9792C139.734 60.0771 140.523 57.9345 140.523 56.243C140.523 54.4387 139.96 52.4089 139.17 51.6195C138.381 50.8301 136.577 50.2663 135.223 50.2663C133.87 50.2663 131.953 51.0556 130.938 52.0705ZM117.519 56.8068C117.181 57.2579 117.406 58.3855 117.97 59.2877C118.647 60.4154 119.436 60.6409 120.338 59.8515C121.015 59.2877 121.24 58.0472 120.902 57.2579C120.564 56.5813 119.774 55.9047 119.098 55.9047C118.534 55.9047 117.857 56.243 117.519 56.694V56.8068ZM8.58525 58.4983C7.68311 59.2877 7.11927 61.3175 7.23204 63.009C7.34481 65.0388 8.47248 66.7304 10.2768 67.858C12.7577 69.324 13.4343 69.324 15.9152 67.858C17.4939 66.9559 18.7343 65.1516 18.7343 63.9112C18.7343 62.6707 18.1705 60.6409 17.6067 59.4005C16.9301 57.9345 15.3513 57.1451 13.3215 57.1451C11.63 57.1451 9.48739 57.7089 8.58525 58.4983ZM35.1984 59.1749C33.8452 60.4154 33.3941 62.1069 33.8452 64.2495C34.1835 65.941 35.6495 67.858 37.0027 68.5346C38.9198 69.4368 40.273 69.4368 42.0773 68.5346C43.5432 67.858 44.8965 66.2793 45.2348 65.0388C45.5731 63.7984 45.0092 61.543 44.1071 59.9643C43.0922 58.2728 41.4007 57.1451 39.7091 57.1451C38.3559 57.1451 36.2133 58.0472 35.1984 59.1749ZM61.2478 59.9643C60.2329 61.9941 60.2329 63.4601 61.135 65.3771C61.8116 66.7304 63.2776 68.1963 64.518 68.6474C65.6457 68.9857 67.7883 68.6474 69.1415 67.7453C70.833 66.7304 71.7352 65.0388 71.7352 63.1218C71.7352 61.3175 71.1713 59.2877 70.382 58.4983C69.5926 57.7089 67.5628 57.1451 65.7585 57.1451C63.6159 57.1451 62.2627 57.9345 61.2478 59.9643ZM96.5441 58.8366C96.5441 59.7388 97.3334 60.5281 98.2356 60.5281C99.1377 60.5281 99.9271 59.7388 99.9271 58.8366C99.9271 57.9345 99.1377 57.1451 98.2356 57.1451C97.3334 57.1451 96.5441 57.9345 96.5441 58.8366ZM146.726 58.9494C145.711 59.8515 144.921 61.4303 144.921 62.3324C145.034 63.2346 145.372 64.7005 145.824 65.7154C146.387 66.7304 147.628 68.0836 148.643 68.5346C149.883 69.2112 151.8 68.9857 153.492 68.0836C155.071 67.407 156.649 65.8282 156.875 64.7005C157.213 63.6856 156.649 61.543 155.747 59.9643C154.732 58.16 153.041 57.1451 151.349 57.1451C149.77 57.1451 147.741 57.9345 146.726 58.9494ZM173.226 58.4983C172.324 59.2877 171.76 61.092 171.873 62.7835C171.986 64.3622 173.113 66.6176 174.354 67.858C176.609 70.0006 176.947 70.0006 179.767 68.4219C181.458 67.407 182.924 65.4899 183.15 63.9112C183.375 62.3324 182.811 60.1898 181.796 59.0621C180.782 58.0472 178.864 57.1451 177.399 57.1451C175.933 57.1451 174.128 57.7089 173.226 58.4983ZM200.629 58.4983C199.952 59.2877 199.163 60.8664 198.824 61.8813C198.261 63.2346 199.05 64.9261 200.854 66.7304C202.997 68.8729 204.237 69.324 206.154 68.7602C207.507 68.1963 209.086 66.7304 209.763 65.3771C210.665 63.4601 210.665 62.1069 209.537 59.9643C208.522 57.9345 207.282 57.1451 204.914 57.1451C203.11 57.1451 201.192 57.8217 200.629 58.6111V58.4983ZM28.3196 59.2877C27.9813 59.8515 27.9813 60.9792 28.3196 61.543C28.6579 62.1069 29.3345 62.6707 30.0111 62.6707C30.575 62.6707 31.1388 61.6558 31.1388 60.4154C31.1388 59.1749 30.6877 58.16 30.0111 58.16C29.4473 58.16 28.7707 58.7238 28.3196 59.2877ZM48.1667 60.3026C48.0539 61.6558 48.6178 62.5579 49.4072 62.3324C50.1965 62.1069 50.8731 61.2047 50.8731 60.4154C50.8731 59.626 50.3093 58.7238 49.6327 58.3855C48.8433 58.16 48.2795 59.0622 48.1667 60.3026ZM166.798 59.7388C166.911 60.8664 167.475 61.6558 168.152 61.6558C168.828 61.543 169.279 60.9792 169.279 60.1898C169.279 59.5132 168.715 58.7238 167.926 58.3855C167.137 58.16 166.686 58.7238 166.798 59.7388ZM186.082 59.626C185.743 60.3026 185.969 61.543 186.645 62.1069C187.548 62.8963 188.337 62.6707 189.014 61.543C189.577 60.6409 189.803 59.5132 189.465 58.9494C189.239 58.4983 188.563 58.16 187.886 58.16C187.322 58.16 186.533 58.8366 186.082 59.5132V59.626ZM89.4397 63.009C87.9737 64.0239 87.5226 65.6027 87.7482 68.4219C87.9737 71.4666 88.7631 72.5943 91.1312 73.4964C93.6121 74.3986 94.627 74.173 96.5441 72.3687C97.7845 71.1283 98.9122 69.0985 98.9122 67.858C98.9122 66.6176 98.01 64.7005 96.8824 63.6856C95.7547 62.5579 94.0632 61.6558 93.161 61.6558C92.1461 61.6558 90.4546 62.3324 89.4397 63.1218V63.009ZM119.661 63.5729C118.534 64.7005 117.632 66.6176 117.744 67.858C117.857 68.9857 118.759 70.9028 119.887 71.9177C121.015 73.0453 122.706 73.9475 123.608 73.9475C124.51 73.9475 126.202 73.3837 127.33 72.5943C128.683 71.6921 129.472 69.7751 129.472 67.7453C129.472 65.7154 128.683 63.7984 127.33 62.8963C126.202 62.1069 124.51 61.543 123.496 61.543C122.481 61.543 120.789 62.4452 119.661 63.5729ZM49.2944 65.4899C47.4901 66.7304 46.7007 68.3091 46.7007 70.3389C46.8135 72.0304 47.4901 74.0603 48.2795 74.8496C49.0689 75.639 50.9859 76.2028 52.5647 76.2028C54.2562 76.2028 56.0605 75.5262 56.8498 74.7369C57.6392 74.0603 58.203 72.0304 58.203 70.2261C58.203 68.3091 57.3009 66.5048 55.6094 65.4899C54.2562 64.5878 52.903 63.7984 52.5647 63.7984C52.2264 63.7984 50.7604 64.5878 49.2944 65.4899ZM186.758 66.0537C185.518 67.2942 184.503 69.2112 184.503 70.3389C184.39 71.3538 185.292 73.1581 186.42 74.173C187.548 75.3007 189.465 76.2028 190.705 76.2028C191.946 76.2028 193.863 75.4135 194.877 74.2858C196.005 73.1581 196.907 71.3538 196.907 70.3389C196.907 69.2112 195.892 67.2942 194.652 66.0537C193.412 64.8133 191.607 63.7984 190.705 63.7984C189.803 63.7984 187.999 64.8133 186.758 66.0537ZM22.1174 66.2793C21.2152 67.0687 20.6514 69.0985 20.7642 70.79C20.8769 72.8198 22.0046 74.5113 23.8089 75.639C26.2898 77.105 26.9664 77.105 29.4473 75.639C31.3643 74.5113 32.2665 72.9326 32.2665 70.79C32.2665 69.0985 31.7026 67.0687 30.9133 66.2793C30.1239 65.4899 28.2068 64.9261 26.5153 64.9261C24.9366 64.9261 23.0195 65.4899 22.1174 66.2793ZM160.258 66.7304C159.243 67.6325 158.454 69.324 158.454 70.3389C158.454 71.3538 159.13 73.1581 159.92 74.2858C160.822 75.639 162.739 76.4284 164.769 76.4284C166.798 76.4284 168.715 75.639 169.618 74.2858C170.407 73.1581 170.971 71.4666 170.971 70.5645C171.084 69.6623 170.181 67.9708 169.054 66.9559C167.926 65.8282 165.896 64.9261 164.543 64.9261C163.19 64.9261 161.273 65.7154 160.258 66.7304ZM103.874 68.8729C102.972 70.4517 102.408 72.707 102.746 73.9475C103.085 75.1879 104.438 76.7667 105.791 77.4433C107.708 78.3454 109.061 78.3454 110.866 77.4433C112.332 76.7667 113.798 74.8496 114.136 73.0453C114.587 70.9028 114.136 69.4368 112.67 67.9708C111.542 66.8431 109.512 65.941 108.159 66.0537C106.693 66.0537 104.889 67.2942 103.874 68.8729ZM3.96178 74.9624C3.28517 76.2028 2.8341 78.2327 2.8341 79.4731C2.94687 80.8263 4.18731 82.6306 5.76606 83.5327C8.24695 84.9987 8.92355 84.9987 11.4044 83.5327C13.3215 82.4051 14.2236 80.8263 14.2236 78.6837C14.2236 76.9922 13.6598 74.9624 12.8704 74.173C12.081 73.3836 10.0512 72.8198 8.35971 72.8198C6.55543 72.8198 4.75115 73.722 3.96178 74.9624ZM35.0857 75.3007C33.958 76.6539 33.1686 78.4582 33.2814 79.2476C33.3941 80.0369 34.4091 81.7285 35.6495 82.9689C36.8899 84.2094 38.6942 85.2243 39.5964 85.2243C40.4985 85.2243 42.3028 84.2094 43.5432 82.9689C44.7837 81.7285 45.7986 79.6986 45.7986 78.4582C45.7986 77.2178 45.0092 75.4135 44.1071 74.5113C43.2049 73.6092 41.1751 72.8198 39.5964 72.8198C38.1304 72.8198 36.1006 73.9475 35.0857 75.3007ZM66.0968 74.173C65.1946 74.9624 64.6308 76.9922 64.7436 78.6837C64.8563 80.7136 65.984 82.4051 67.7883 83.5327C70.2692 84.9987 70.9458 84.9987 73.4267 83.5327C75.3437 82.4051 76.2459 80.8263 76.2459 78.6837C76.2459 76.9922 75.682 74.9624 74.8927 74.173C74.1033 73.3836 72.1862 72.8198 70.4947 72.8198C68.916 72.8198 66.9989 73.3836 66.0968 74.173ZM142.215 75.639C140.862 77.8944 140.749 79.022 141.764 80.9391C142.553 82.4051 143.681 83.871 144.358 84.3221C145.034 84.7732 146.275 85.2243 146.951 85.2243C147.741 85.2243 149.432 84.2094 150.673 82.9689C151.913 81.7285 152.928 79.6986 152.928 78.4582C152.928 77.2178 152.139 75.4135 151.236 74.5113C150.334 73.6092 148.304 72.8198 146.726 72.8198C144.921 72.8198 143.343 73.8347 142.215 75.639ZM173.226 74.173C172.324 74.9624 171.76 76.9922 171.873 78.6837C171.986 80.7136 173.113 82.4051 174.918 83.5327C177.399 84.9987 178.075 84.9987 180.556 83.5327C182.473 82.4051 183.375 80.8263 183.375 78.6837C183.375 76.9922 182.811 74.9624 182.022 74.173C181.233 73.3836 179.316 72.8198 177.624 72.8198C176.045 72.8198 174.128 73.3836 173.226 74.173ZM204.35 74.7369C202.997 76.0901 202.546 77.7816 202.997 79.8114C203.335 81.6157 204.801 83.5327 206.154 84.2094C208.071 85.1115 209.425 85.1115 211.229 84.2094C212.695 83.5327 214.161 81.6157 214.499 79.8114C214.95 77.6688 214.499 76.2028 213.033 74.7369C211.905 73.6092 209.988 72.707 208.635 72.8198C207.282 72.8198 205.365 73.7219 204.35 74.7369ZM60.0073 76.2028C59.669 76.7667 59.5563 77.8944 59.8946 78.4582C60.2329 79.022 60.9095 79.5859 61.5861 79.5859C62.1499 79.5859 62.7138 78.9093 62.8265 78.0071C62.9393 77.105 62.3754 76.0901 61.8116 75.639C61.135 75.3007 60.3456 75.5262 60.0073 76.2028ZM198.261 76.7667C197.246 78.1199 197.246 78.571 198.261 79.1348C199.05 79.4731 200.178 79.2476 200.854 78.571C201.606 77.744 201.606 76.9546 200.854 76.2028C199.952 75.3007 199.163 75.5262 198.261 76.7667ZM156.762 76.9922C156.311 77.3305 155.973 78.3454 156.085 79.2476C156.198 80.0369 157.1 80.7136 158.002 80.7136C158.905 80.7136 159.694 80.0369 159.807 79.1348C159.92 78.2327 159.468 77.2178 158.792 76.8795C158.228 76.5411 157.326 76.5411 156.762 76.9922ZM17.8322 78.6837C18.1705 79.4731 19.0726 80.1497 19.862 80.1497C20.6514 80.1497 21.5535 79.4731 21.7791 78.6837C22.0046 77.8944 21.1025 77.3305 19.7493 77.3305C18.2833 77.3305 17.4939 77.8944 17.8322 78.6837ZM48.6178 81.6157C47.4901 82.7434 46.588 84.6604 46.7007 85.9009C46.8135 87.0285 47.9412 89.0584 49.1816 90.2988C51.0987 92.1031 52.1136 92.3286 54.5945 91.4265C56.9626 90.5243 57.752 89.3967 57.9775 86.3519C58.203 83.5327 57.752 81.954 56.286 80.9391C55.1583 80.1497 53.4668 79.5859 52.4519 79.5859C51.437 79.5859 49.7455 80.488 48.6178 81.6157ZM187.322 81.0519C185.856 82.0668 185.179 83.7583 185.292 85.9009C185.292 87.7052 186.307 89.8477 187.548 90.6371C188.675 91.4265 190.367 91.9903 191.269 91.9903C192.171 92.1031 193.863 91.201 194.877 90.0733C196.005 88.9456 196.907 87.0285 196.907 85.7881C196.907 84.5477 196.118 82.6306 194.99 81.6157C193.863 80.488 192.171 79.5859 191.269 79.5859C190.254 79.5859 188.563 80.2625 187.322 81.0519ZM22.1174 82.0668C21.2152 82.7434 20.6514 84.6604 20.7642 86.3519C20.7642 87.9307 21.5535 89.8477 22.3429 90.6371C23.1323 91.4265 25.2749 91.8776 27.1919 91.7648C29.6728 91.5393 30.8005 90.6371 31.7026 88.269C32.492 86.1264 32.492 84.5477 31.5899 83.1944C30.9133 82.1795 28.8834 81.1646 27.0792 80.9391C25.2749 80.7136 23.0195 81.2774 22.1174 82.0668ZM159.581 83.1944C158.905 84.6604 158.679 86.9158 159.017 88.269C159.356 89.735 160.822 91.3137 162.175 91.8776C163.641 92.4414 165.558 92.4414 166.686 91.8776C167.813 91.3137 169.166 89.8477 169.843 88.6073C170.632 86.9158 170.52 85.5626 169.279 83.5327C168.039 81.5029 166.573 80.7136 164.205 80.7136C161.837 80.7136 160.483 81.5029 159.581 83.1944ZM106.129 83.1944C105.678 83.9838 105.678 85.5626 106.017 86.5775C106.355 87.7052 107.595 88.4945 108.61 88.269C109.963 88.1562 110.64 87.0285 110.64 85.2243C110.64 83.5327 109.851 82.2923 108.723 82.0668C107.708 81.8412 106.468 82.2923 106.129 83.1944ZM98.9122 88.0435C98.2356 88.9456 97.8973 90.5243 98.2356 91.4265C98.5739 92.3286 99.8143 93.118 101.055 93.118C102.295 93.118 103.536 92.2159 103.874 91.0882C104.212 90.0733 103.761 88.4945 103.085 87.7052C102.295 86.9158 101.28 86.2392 100.942 86.3519C100.491 86.3519 99.5888 87.1413 98.9122 88.0435ZM114.023 87.0285C113.572 87.4796 113.121 88.8328 113.234 89.9605C113.346 91.0882 114.136 92.2159 114.812 92.4414C115.602 92.6669 116.955 92.5542 117.744 92.2159C118.647 91.7648 119.098 90.4116 118.872 89.1711C118.647 87.9307 117.744 86.803 116.729 86.5775C115.827 86.4647 114.587 86.5775 114.023 87.0285ZM37.0027 88.269C36.2133 88.6073 35.0857 90.186 34.4091 91.8776C33.6197 94.0201 33.7325 95.4861 35.0857 97.2904C35.9878 98.7564 37.9049 99.8841 39.2581 99.8841C40.724 99.9968 42.7539 99.0947 43.7688 97.967C44.8965 96.8393 45.7986 94.8095 45.7986 93.3435C45.7986 91.9903 44.6709 90.0733 43.2049 89.1711C41.8517 88.269 40.1602 87.4796 39.5964 87.5924C38.9198 87.5924 37.7921 87.9307 37.0027 88.269ZM173.79 89.5094C172.662 90.6371 171.76 92.6669 171.873 94.0201C171.986 95.3734 172.888 97.2904 173.79 98.1926C174.692 99.0947 176.609 99.8841 177.962 99.8841C179.428 99.9968 181.345 99.0947 182.248 97.967C183.037 96.8393 183.826 94.6968 183.714 93.118C183.601 91.5393 182.699 89.6222 181.458 88.8328C180.33 88.0435 178.639 87.4796 177.624 87.4796C176.609 87.4796 174.918 88.3818 173.79 89.5094ZM8.58525 89.9605C7.68311 90.7499 7.11927 92.7797 7.23204 94.4712C7.34481 96.501 8.47248 98.1926 10.2768 99.3202C12.7577 100.786 13.4343 100.786 15.9152 99.3202C17.4939 98.4181 18.7343 96.6138 18.7343 95.3734C18.7343 94.1329 18.1705 92.1031 17.6067 90.8627C16.9301 89.3967 15.3513 88.6073 13.3215 88.6073C11.63 88.6073 9.48739 89.1711 8.58525 89.9605ZM62.1499 90.4116C61.135 91.3137 60.3456 92.8925 60.3456 93.7946C60.4584 94.6968 60.7967 96.1627 61.2478 97.1776C61.8116 98.1926 63.0521 99.5458 64.067 99.9968C65.3074 100.561 66.9989 100.561 68.3521 99.8841C69.5926 99.3202 71.0586 97.7415 71.7352 96.501C72.5245 94.8095 72.4118 93.4563 71.1713 91.4265C70.1564 89.6222 68.4649 88.6073 66.7734 88.6073C65.1946 88.6073 63.1648 89.3967 62.1499 90.4116ZM146.726 90.4116C145.711 91.3137 144.921 93.118 144.921 94.3584C145.034 95.4861 146.049 97.5159 147.29 98.7564C148.53 99.9968 150.334 101.012 151.236 101.012C152.139 101.012 153.943 99.9968 155.183 98.7564C156.424 97.5159 157.439 95.8244 157.439 95.0351C157.439 94.3584 156.649 92.5542 155.747 91.0882C154.732 89.6222 152.928 88.6073 151.349 88.6073C149.77 88.6073 147.741 89.3967 146.726 90.4116ZM200.29 89.9605C199.388 90.7499 198.824 92.7797 198.937 94.4712C199.05 96.501 200.178 98.1926 201.982 99.3202C204.463 100.786 205.139 100.786 207.62 99.3202C209.199 98.4181 210.439 96.6138 210.439 95.3734C210.439 94.1329 209.876 92.1031 209.312 90.8627C208.635 89.3967 207.056 88.6073 205.027 88.6073C203.335 88.6073 201.192 89.1711 200.29 89.9605ZM106.129 92.2159C105.678 93.0052 105.678 94.584 106.017 95.5989C106.355 96.7266 107.595 97.5159 108.61 97.2904C109.963 97.1776 110.64 96.05 110.64 94.2457C110.64 92.5542 109.851 91.3137 108.723 91.0882C107.708 90.8626 106.468 91.3137 106.129 92.2159ZM28.2068 95.0351C27.7558 95.3734 27.4175 96.3883 27.5302 97.2904C27.643 98.0798 28.5451 98.7564 29.4473 98.7564C30.3494 98.7564 31.1388 98.0798 31.2516 97.1776C31.3643 96.2755 30.9133 95.2606 30.2367 94.9223C29.6728 94.584 28.7707 94.584 28.2068 95.0351ZM49.5199 95.8244C49.6327 96.9521 50.1965 97.7415 50.8731 97.7415C51.437 97.6287 52.0008 97.0649 52.0008 96.2755C52.0008 95.5989 51.437 94.8095 50.6476 94.4712C49.8582 94.2457 49.4072 94.8095 49.5199 95.8244ZM114.136 95.5989C112.783 96.6138 112.219 97.7415 112.67 98.9819C113.121 100.11 114.474 101.012 115.715 101.012C116.955 101.012 118.308 100.222 118.759 99.3202C119.323 98.1926 118.985 96.8393 117.97 95.8244C116.504 94.4712 115.827 94.4712 114.136 95.5989ZM166.686 95.9372C165.671 97.2904 165.671 97.7415 166.686 98.3053C167.475 98.6436 168.603 98.4181 169.279 97.7415C170.031 96.9145 170.031 96.1251 169.279 95.3734C168.377 94.4712 167.588 94.6968 166.686 95.9372ZM187.322 95.3734C186.984 95.9372 186.984 97.0649 187.322 97.6287C187.66 98.1926 188.337 98.5309 189.014 98.1926C189.577 97.8542 190.141 96.8393 190.141 95.9372C190.141 95.0351 189.69 94.2457 189.014 94.2457C188.45 94.2457 187.773 94.8095 187.322 95.3734ZM82.2226 97.0649C81.7715 98.0798 81.7715 99.3202 82.4481 99.9968C83.0119 100.673 84.5907 101.012 85.8311 100.786C87.1843 100.561 88.0865 99.5458 88.0865 98.1926C88.0865 96.7266 87.1843 95.8244 85.6056 95.5989C84.1396 95.3734 82.7864 95.9372 82.2226 97.0649ZM98.3483 97.2904C97.8973 98.4181 98.3483 100.11 99.3633 101.012C100.829 102.478 101.28 102.478 102.972 100.786C104.212 99.5458 104.663 98.1926 104.099 97.0649C103.648 96.1627 102.295 95.3734 101.168 95.3734C99.9271 95.3734 98.6866 96.2755 98.3483 97.2904ZM128.457 97.0649C128.006 98.0798 128.006 99.3202 128.683 99.9968C129.247 100.673 130.825 101.012 132.066 100.786C133.419 100.561 134.321 99.5458 134.321 98.1926C134.321 96.7266 133.419 95.8244 131.84 95.5989C130.374 95.3734 129.021 95.9372 128.457 97.0649ZM76.3586 100.448C75.682 101.35 75.3437 102.929 75.682 103.831C76.0203 104.733 77.2608 105.522 78.5012 105.522C79.7417 105.522 80.9821 104.733 81.3204 103.831C81.6587 102.929 81.0949 101.35 80.1927 100.448C79.2906 99.5458 78.2757 98.7564 78.0502 98.7564C77.8246 98.7564 77.0352 99.5458 76.3586 100.448ZM90.4546 100.673C90.0035 101.801 90.4546 103.493 91.4695 104.395C92.9355 105.861 93.3866 105.861 95.0781 104.169C96.3185 102.929 96.7696 101.576 96.2058 100.448C95.7547 99.5458 94.4015 98.7564 93.2738 98.7564C92.0334 98.7564 90.7929 99.6585 90.4546 100.673ZM122.481 99.6585C121.804 100.11 121.353 101.463 121.578 102.703C121.804 104.056 122.932 105.071 124.51 105.184C126.428 105.41 126.991 104.959 126.991 102.816C126.879 101.35 126.202 99.8841 125.3 99.5458C124.51 99.2075 123.157 99.3202 122.481 99.6585ZM136.464 100.11C136.013 100.899 136.126 102.478 136.464 103.493C136.802 104.62 137.817 105.522 138.494 105.522C139.283 105.635 140.636 104.846 141.313 103.831C142.441 102.478 142.441 101.801 141.313 100.448C140.636 99.433 139.283 98.6436 138.494 98.7564C137.704 98.7564 136.802 99.433 136.464 100.11ZM19.862 101.237C18.9599 102.027 18.396 104.056 18.5088 105.748C18.6216 107.44 19.5237 109.695 20.4259 110.597C21.328 111.499 23.0195 112.289 24.0344 112.289C25.1621 112.401 26.9664 111.499 27.9813 110.371C29.109 109.244 30.0111 107.214 30.0111 105.748C30.0111 104.395 29.2217 102.478 28.3196 101.576C27.4175 100.673 25.5004 99.8841 24.0344 99.8841C22.5684 99.8841 20.7642 100.448 19.862 101.237ZM50.8731 101.914C49.7455 103.042 48.8433 104.959 48.9561 106.199C49.0689 107.327 49.971 109.244 51.0987 110.371C52.5647 111.837 54.0306 112.289 56.1732 111.837C58.203 111.386 59.7818 110.033 60.4584 108.003C61.3605 105.635 61.2478 104.395 59.8946 102.365C58.9924 101.012 57.0754 99.8841 55.4966 99.8841C54.1434 99.8841 52.0008 100.786 50.8731 101.914ZM105.791 101.576C105.34 102.703 105.678 104.056 106.693 105.071C108.159 106.65 108.61 106.65 110.302 105.071C111.429 104.056 112.106 102.478 111.768 101.576C111.429 100.673 110.189 99.8841 108.949 99.8841C107.708 99.8841 106.242 100.673 105.791 101.576ZM158.002 101.914C156.875 103.042 155.973 104.959 156.085 106.199C156.198 107.327 157.1 109.244 158.228 110.371C159.694 111.837 161.16 112.289 163.303 111.837C165.107 111.499 167.137 109.92 167.813 108.454C169.054 106.086 168.941 105.184 167.249 102.816C166.122 101.012 164.205 99.8841 162.626 99.8841C161.273 99.8841 159.13 100.786 158.002 101.914ZM188.901 101.801C188.111 102.929 187.435 105.071 187.548 106.65C187.66 108.229 188.563 110.146 189.803 110.935C190.931 111.725 192.622 112.289 193.524 112.289C194.426 112.401 196.118 111.499 197.133 110.371C198.261 109.244 199.163 107.214 199.163 105.748C199.163 104.395 198.373 102.478 197.471 101.576C196.569 100.673 194.539 99.8841 193.073 99.8841C191.607 99.8841 189.69 100.786 188.901 101.801ZM83.1247 105.41C82.1098 107.327 82.2226 108.003 83.5758 108.905C84.4779 109.469 86.0567 109.808 86.9588 109.469C87.9737 109.131 88.5375 107.778 88.312 106.425C88.1992 104.959 87.2971 103.718 86.2822 103.493C85.1545 103.267 83.8013 104.169 83.1247 105.41ZM129.134 104.959C127.781 106.537 127.781 106.988 129.472 108.68C130.713 109.808 132.066 110.259 133.194 109.695C134.096 109.244 134.772 107.778 134.547 106.425C134.434 104.959 133.532 103.718 132.517 103.493C131.502 103.38 130.036 103.944 129.134 104.959ZM35.0857 106.876C33.958 108.229 33.1686 110.033 33.2814 110.823C33.3941 111.612 34.4091 113.303 35.6495 114.544C36.8899 115.784 38.6942 116.799 39.5964 116.799C40.4985 116.799 42.3028 115.784 43.5432 114.544C44.7837 113.303 45.7986 111.274 45.7986 110.033C45.7986 108.793 45.0092 106.988 44.1071 106.086C43.2049 105.184 41.1751 104.395 39.5964 104.395C38.1304 104.395 36.1006 105.522 35.0857 106.876ZM173.226 105.748C172.324 106.537 171.76 108.567 171.873 110.259C171.986 112.289 173.113 113.98 174.918 115.108C177.399 116.574 178.075 116.574 180.556 115.108C182.473 113.98 183.375 112.401 183.375 110.259C183.375 108.567 182.811 106.537 182.022 105.748C181.233 104.959 179.316 104.395 177.624 104.395C176.045 104.395 174.128 104.959 173.226 105.748ZM75.5693 109.131C75.1182 109.92 75.231 111.499 75.5693 112.514C75.9076 113.642 76.9225 114.544 77.5991 114.544C78.3885 114.657 79.7417 113.867 80.4183 112.852C81.546 111.499 81.546 110.823 80.4183 109.469C79.7417 108.454 78.3885 107.665 77.5991 107.778C76.8097 107.778 75.9076 108.454 75.5693 109.131ZM90.0035 109.469C89.5525 110.597 90.0035 112.063 91.1312 113.191C92.9355 114.882 93.3866 114.882 94.8525 113.416C95.8675 112.514 96.3185 110.823 95.9802 109.695C95.6419 108.68 94.4015 107.778 93.161 107.778C91.9206 107.778 90.4546 108.567 90.0035 109.469ZM106.129 109.469C105.114 110.484 104.776 111.837 105.227 112.965C105.791 113.867 107.144 114.544 108.385 114.318C109.625 114.093 110.753 112.965 110.978 111.725C111.204 110.484 110.527 109.131 109.625 108.68C108.61 108.229 107.144 108.567 106.129 109.469ZM121.804 109.131C121.353 109.92 121.466 111.499 121.804 112.514C122.142 113.642 123.157 114.544 123.834 114.544C124.623 114.657 125.976 113.867 126.653 112.852C127.781 111.499 127.781 110.823 126.653 109.469C125.976 108.454 124.623 107.665 123.834 107.778C123.044 107.778 122.142 108.454 121.804 109.131ZM136.238 109.469C135.787 110.597 136.238 112.063 137.366 113.191C139.17 114.882 139.621 114.882 141.087 113.416C142.102 112.514 142.553 110.823 142.215 109.695C141.877 108.68 140.636 107.778 139.396 107.778C138.155 107.778 136.689 108.567 136.238 109.469ZM83.5758 113.642C83.1247 114.431 83.1247 116.01 83.463 117.025C83.8013 118.152 85.0418 118.942 86.0567 118.716C87.4099 118.604 88.0865 117.476 88.0865 115.672C88.0865 113.98 87.2971 112.74 86.1694 112.514C85.1545 112.289 83.9141 112.74 83.5758 113.642ZM98.9122 113.98C98.2356 114.882 97.8973 116.461 98.2356 117.363C98.5739 118.265 99.8143 119.055 101.055 119.055C102.295 119.055 103.536 118.265 103.874 117.363C104.212 116.461 103.761 114.882 102.972 113.98C102.295 112.965 101.28 112.176 100.942 112.289C100.491 112.289 99.5888 113.078 98.9122 113.98ZM112.895 113.078C112.332 113.416 111.993 114.769 112.106 115.897C112.219 117.025 113.234 118.152 114.249 118.491C115.376 118.829 117.068 118.378 117.97 117.476C119.436 116.01 119.436 115.559 117.97 113.98C117.068 112.965 115.715 112.176 115.038 112.289C114.361 112.289 113.459 112.627 112.895 113.078ZM129.472 113.642C128.457 114.769 128.457 115.559 129.585 117.138C130.487 118.604 131.502 118.942 132.968 118.265C134.208 117.701 134.885 116.461 134.66 115.108C134.434 113.867 133.532 112.74 132.517 112.514C131.502 112.401 130.149 112.852 129.472 113.642ZM106.129 118.152C105.678 118.942 105.678 120.521 106.017 121.535C106.355 122.663 107.595 123.453 108.61 123.227C109.963 123.114 110.64 121.987 110.64 120.182C110.64 118.491 109.851 117.25 108.723 117.025C107.708 116.799 106.468 117.25 106.129 118.152ZM37.2283 122.776C35.9878 123.34 34.7474 124.919 34.2963 126.272C33.8452 127.512 33.958 129.542 34.6346 130.557C35.1984 131.685 36.5516 133.038 37.5665 133.602C38.807 134.165 40.724 134.165 42.0773 133.602C43.5432 133.038 45.0092 131.459 45.3475 129.993C45.6858 128.64 45.5731 126.497 44.8965 125.257C44.3326 124.016 42.8666 122.663 41.6262 122.325C40.3857 121.987 38.3559 122.099 37.2283 122.776ZM82.5609 123.227C82.1098 124.355 82.5609 126.046 83.5758 126.948C85.0418 128.414 85.4928 128.414 87.1843 126.723C88.4248 125.482 88.8759 124.129 88.312 123.001C87.8609 122.099 86.5077 121.31 85.3801 121.31C84.1396 121.31 82.8992 122.212 82.5609 123.227ZM98.3483 123.227C97.8973 124.355 98.3483 126.046 99.3633 126.948C100.829 128.414 101.28 128.414 102.972 126.723C104.212 125.482 104.663 124.129 104.099 123.001C103.648 122.099 102.295 121.31 101.168 121.31C99.9271 121.31 98.6866 122.212 98.3483 123.227ZM112.67 123.227C112.219 124.58 112.783 125.821 114.136 126.723C115.94 127.85 116.617 127.85 117.97 126.497C118.985 125.482 119.323 124.129 118.759 123.001C118.308 122.099 116.955 121.31 115.715 121.31C114.474 121.31 113.121 122.212 112.67 123.227ZM128.345 123.001C127.893 124.129 128.345 125.595 129.472 126.723C131.389 128.527 131.615 128.527 133.419 126.723C134.66 125.482 135.111 124.129 134.547 123.001C134.096 122.099 132.742 121.31 131.502 121.31C130.262 121.31 128.796 122.099 128.345 123.001ZM175.481 122.776C173.339 123.904 172.662 125.031 172.662 128.076C172.662 131.121 173.339 132.248 175.481 133.376C177.737 134.504 178.752 134.504 180.556 133.263C182.022 132.248 182.811 130.444 182.811 128.076C182.811 125.595 182.06 123.866 180.556 122.889C178.639 121.648 177.624 121.648 175.481 122.776ZM90.4546 126.61C90.0035 127.738 90.4546 129.429 91.4695 130.331C92.9355 131.797 93.3866 131.797 95.0781 130.106C96.3185 128.865 96.7696 127.512 96.2058 126.384C95.7547 125.482 94.4015 124.693 93.2738 124.693C92.0334 124.693 90.7929 125.595 90.4546 126.61ZM136.464 126.046C136.013 126.836 136.126 128.414 136.464 129.429C136.802 130.557 138.043 131.346 139.057 131.121C140.185 131.008 141.087 129.993 141.2 128.753C141.313 127.625 140.862 126.272 140.185 125.708C139.396 125.144 138.494 124.693 137.93 124.693C137.479 124.693 136.802 125.37 136.464 126.046ZM20.4259 127.85C19.2982 128.978 18.396 131.121 18.5088 132.699C18.6216 134.165 19.2982 136.083 20.0876 136.872C20.8769 137.661 22.6812 138.225 24.0344 138.225C25.3876 138.225 27.3047 137.436 28.2068 136.534C29.2217 135.631 30.0111 133.602 30.0111 132.023C30.0111 130.331 28.9962 128.527 27.5302 127.512C26.0642 126.61 24.3727 125.821 23.6961 125.821C23.0195 125.821 21.5535 126.723 20.4259 127.85ZM51.5497 127.512C49.8582 128.753 48.9561 130.331 49.0689 132.136C49.0689 133.602 49.971 135.631 50.8731 136.534C51.7753 137.436 53.8051 138.225 55.3839 138.225C57.0754 138.225 58.8796 137.21 59.8946 135.631C61.135 133.94 61.3605 132.361 60.6839 130.331C60.1201 128.753 58.8796 127.174 57.8647 126.61C56.7371 126.159 55.6094 125.821 55.0455 125.821C54.5945 125.821 53.0157 126.61 51.5497 127.512ZM75.682 126.61C75.1182 126.948 74.7799 128.302 74.8927 129.429C75.0054 130.557 75.9076 131.685 76.8097 132.023C77.7119 132.361 79.2906 131.797 80.1927 130.895C81.0949 129.993 81.6587 128.414 81.3204 127.512C80.9821 126.61 79.8544 125.821 78.7268 125.821C77.5991 125.821 76.2459 126.159 75.682 126.61ZM106.129 126.61C105.565 126.948 105.227 128.302 105.34 129.429C105.453 130.557 106.468 131.685 107.595 132.023C108.61 132.361 110.189 132.023 110.978 131.233C111.768 130.444 112.106 128.865 111.768 127.738C111.429 126.723 110.302 125.821 109.174 125.821C108.046 125.821 106.693 126.159 106.129 126.61ZM121.917 126.497C121.466 126.948 121.015 128.302 121.127 129.429C121.24 130.557 122.03 131.685 122.819 131.91C123.496 132.136 124.849 132.023 125.638 131.685C126.54 131.233 126.991 129.88 126.766 128.64C126.54 127.399 125.638 126.272 124.623 126.046C123.721 125.933 122.481 126.046 121.917 126.497ZM158.566 128.076C157.326 129.316 156.311 131.233 156.311 132.248C156.198 133.376 157.1 135.18 158.228 136.195C159.356 137.323 161.385 138.225 162.851 138.225C164.205 138.225 166.122 137.097 167.024 135.631C167.926 134.278 168.715 132.474 168.715 131.685C168.715 131.008 167.7 129.316 166.46 128.076C165.22 126.836 163.415 125.821 162.513 125.821C161.611 125.821 159.807 126.836 158.566 128.076ZM190.592 126.723C189.916 127.174 188.788 128.527 188.111 129.768C187.209 131.459 187.322 132.812 188.224 134.842C189.014 136.534 190.818 137.774 192.397 138C193.975 138.225 196.118 137.661 197.246 136.646C198.261 135.631 199.163 133.602 199.163 132.023C199.163 130.331 198.148 128.527 196.682 127.512C195.216 126.61 193.637 125.821 192.96 125.821C192.284 125.821 191.269 126.272 190.592 126.723ZM83.5758 130.895C82.5609 131.91 82.2226 133.263 82.7864 134.391C83.2375 135.293 84.5907 135.97 85.8311 135.744C87.0716 135.519 88.1993 134.391 88.4248 133.151C88.6503 131.91 87.9737 130.557 87.0716 130.106C86.0567 129.655 84.5907 129.993 83.5758 130.895ZM130.036 130.557C128.796 131.459 128.232 132.812 128.57 133.94C129.021 135.068 130.262 135.97 131.502 135.97C132.742 135.97 134.096 135.18 134.66 134.278C135.111 133.151 134.772 131.797 133.757 130.782C132.291 129.429 131.615 129.429 130.036 130.557ZM76.3586 135.406C75.682 136.308 75.3437 137.887 75.682 138.789C76.0203 139.691 77.2608 140.48 78.5012 140.48C79.7417 140.48 80.9821 139.578 81.3204 138.451C81.6587 137.436 81.2077 135.857 80.531 135.068C79.7417 134.278 78.7268 133.602 78.3885 133.714C77.9374 133.714 77.0352 134.504 76.3586 135.406ZM90.2291 135.068C89.778 135.857 89.8908 137.436 90.2291 138.451C90.5674 139.578 91.5823 140.48 92.3717 140.48C93.0483 140.593 94.4015 139.804 95.1909 138.789C96.3185 137.436 96.3185 136.759 95.1909 135.406C94.4015 134.391 93.0483 133.602 92.2589 133.714C91.4695 133.714 90.5674 134.391 90.2291 135.068ZM106.017 135.744C104.438 137.436 104.438 137.887 106.017 139.353C107.031 140.368 108.385 140.706 109.512 140.142C110.414 139.691 111.204 138.338 111.204 137.21C111.091 136.083 110.414 134.842 109.4 134.391C108.497 134.053 107.031 134.729 106.017 135.744ZM122.706 134.617C121.804 135.068 121.353 136.421 121.578 137.661C121.804 139.014 122.932 140.029 124.51 140.142C126.54 140.48 126.991 140.029 126.766 137.436C126.54 135.857 125.976 134.278 125.3 134.053C124.623 133.94 123.496 134.165 122.706 134.617ZM136.464 135.068C136.013 135.857 136.126 137.436 136.464 138.451C136.802 139.578 137.817 140.48 138.606 140.48C139.283 140.593 140.636 139.804 141.426 138.789C142.553 137.436 142.553 136.759 141.426 135.406C140.636 134.391 139.283 133.602 138.494 133.714C137.704 133.714 136.802 134.391 136.464 135.068ZM9.60016 138.902C8.02141 140.029 7.23204 141.721 7.23204 143.638C7.34481 145.329 8.02141 147.359 8.81079 148.149C9.60016 148.938 11.7427 149.389 13.6598 149.276C16.1407 149.051 17.2684 148.149 18.1705 145.781C18.9223 143.676 18.9223 142.022 18.1705 140.819C17.6067 139.917 15.9152 138.676 14.5619 138.225C12.9832 137.548 11.2917 137.887 9.60016 138.902ZM62.7138 139.353C61.4733 140.593 60.4584 142.397 60.4584 143.3C60.4584 144.202 61.0222 146.006 61.5861 147.247C62.2627 148.712 63.8414 149.502 65.8713 149.502C67.5628 149.615 69.4798 148.938 70.1564 148.149C70.833 147.359 71.7352 145.781 72.0735 144.653C72.6373 143.412 71.8479 141.721 70.0437 139.917C68.4649 138.338 66.7734 137.097 66.0968 137.097C65.5329 137.097 63.9542 138.112 62.7138 139.353ZM148.756 138.338C147.628 138.789 146.162 140.368 145.711 141.834C145.147 143.3 145.372 145.442 146.049 146.908C146.951 148.712 148.304 149.502 150.673 149.502C153.041 149.502 154.507 148.712 155.747 146.683C156.988 144.653 157.1 143.3 156.311 141.608C155.634 140.368 154.281 138.902 153.153 138.338C151.913 137.774 149.996 137.774 148.756 138.338ZM200.854 139.917C199.05 141.721 198.261 143.412 198.824 144.653C199.163 145.781 200.065 147.359 200.741 148.149C201.418 148.938 203.335 149.615 205.139 149.502C207.056 149.502 208.635 148.712 209.312 147.247C209.988 146.006 210.439 143.976 210.439 142.736C210.439 141.495 209.312 139.691 207.959 138.789C206.493 137.887 204.914 137.097 204.463 137.097C204.012 137.097 202.32 138.338 200.854 139.917ZM35.1984 140.142C33.8452 141.495 33.3941 143.187 33.8452 145.217C34.2963 147.021 35.5367 148.825 37.1155 149.389C38.4687 149.84 40.6113 149.953 41.739 149.615C42.9794 149.276 44.4454 147.81 45.122 146.457C46.1369 144.54 45.9114 143.412 44.4454 141.157C43.2049 139.353 41.2879 138.225 39.7091 138.225C38.3559 138.225 36.2133 139.127 35.1984 140.142ZM83.5758 139.578C83.1247 140.368 83.1247 141.946 83.463 142.961C83.8013 144.089 85.0418 144.878 86.1694 144.653C87.4099 144.54 88.0865 143.412 88.0865 141.608C88.0865 139.917 87.2971 138.676 86.1694 138.451C85.1545 138.225 83.9141 138.676 83.5758 139.578ZM98.9122 139.917C98.2356 140.819 97.8973 142.397 98.2356 143.3C98.5739 144.202 99.8143 144.991 101.055 144.991C102.295 144.991 103.536 144.202 103.874 143.3C104.212 142.397 103.761 140.819 103.085 139.917C102.295 138.902 101.28 138.112 100.942 138.225C100.491 138.225 99.5888 139.014 98.9122 139.917ZM112.557 139.917C112.106 141.044 112.557 142.51 113.798 143.638C115.489 145.329 115.94 145.329 117.406 143.863C118.421 142.961 118.872 141.27 118.534 140.142C118.195 139.127 116.955 138.225 115.715 138.225C114.474 138.225 113.008 139.014 112.557 139.917ZM129.134 139.917C127.781 141.495 127.781 141.946 129.472 143.638C130.713 144.766 132.066 145.217 133.194 144.653C134.096 144.202 134.772 142.736 134.66 141.383C134.434 139.917 133.532 138.676 132.517 138.451C131.502 138.338 130.036 138.902 129.134 139.917ZM173.79 140.029C172.775 140.932 171.986 142.961 171.986 144.54C172.098 146.006 172.888 148.036 173.79 148.938C174.692 149.84 176.384 150.63 177.511 150.63C178.526 150.742 180.33 149.84 181.345 148.712C182.473 147.585 183.375 145.555 183.375 144.089C183.375 142.736 182.586 140.819 181.684 139.917C180.782 139.014 178.977 138.225 177.85 138.225C176.609 138.225 174.805 139.014 173.79 140.029ZM28.3196 140.48C27.9813 141.157 27.9813 142.059 28.3196 142.736C28.6579 143.412 29.4473 143.638 30.0111 143.3C30.6877 142.961 31.1388 141.946 31.1388 141.044C31.1388 140.142 30.6877 139.353 30.0111 139.353C29.4473 139.353 28.7707 139.804 28.3196 140.48ZM48.3923 140.932C48.505 142.059 49.1816 142.849 49.7455 142.849C50.4221 142.736 50.8731 142.172 50.8731 141.383C50.8731 140.706 50.3093 139.917 49.5199 139.578C48.7306 139.353 48.2795 139.917 48.3923 140.932ZM186.082 140.706C185.743 141.495 185.969 142.623 186.645 143.3C187.472 144.051 188.299 144.051 189.126 143.3C189.803 142.623 190.028 141.495 189.69 140.706C189.352 140.029 188.563 139.353 187.886 139.353C187.322 139.353 186.533 140.029 186.082 140.706ZM165.332 142.172C165.332 143.074 166.122 143.863 167.024 143.863C167.926 143.863 168.715 143.074 168.715 142.172C168.715 141.27 167.926 140.48 167.024 140.48C166.122 140.48 165.332 141.27 165.332 142.172ZM106.129 144.089C105.678 144.878 105.678 146.457 106.017 147.472C106.355 148.6 107.595 149.389 108.723 149.164C109.963 149.051 110.64 147.923 110.64 146.119C110.64 144.427 109.851 143.187 108.723 142.961C107.708 142.736 106.468 143.187 106.129 144.089ZM23.3578 146.683C21.5535 147.923 20.7642 149.502 20.7642 151.532C20.8769 153.223 21.5535 155.253 22.3429 156.042C23.1323 156.832 25.0493 157.396 26.6281 157.396C28.3196 157.396 30.1239 156.719 30.9133 155.93C31.7026 155.253 32.2665 153.223 32.2665 151.419C32.2665 149.502 31.3643 147.698 29.7856 146.683C28.3196 145.781 26.9664 144.991 26.6281 144.991C26.2898 144.991 24.8238 145.781 23.3578 146.683ZM48.6178 147.021C47.4901 148.149 46.588 149.953 46.7007 150.968C46.8135 151.983 47.4901 153.9 48.0539 155.14C48.7306 156.606 50.3093 157.396 52.3391 157.396C54.0306 157.396 56.0605 156.719 56.8498 155.93C57.6392 155.253 58.203 153.336 58.203 151.757C58.3158 150.178 57.4137 148.036 56.286 147.021C55.1583 145.893 53.4668 144.991 52.4519 144.991C51.437 144.991 49.7455 145.893 48.6178 147.021ZM160.822 148.374C159.581 149.615 158.566 151.532 158.566 152.547C158.454 153.674 159.356 155.479 160.483 156.493C161.611 157.621 163.641 158.523 165.107 158.523C166.46 158.523 168.377 157.396 169.279 155.93C170.181 154.576 170.971 152.772 170.971 151.983C170.971 151.306 169.956 149.615 168.715 148.374C167.475 147.134 165.671 146.119 164.769 146.119C163.866 146.119 162.062 147.134 160.822 148.374ZM186.758 147.472C185.856 148.261 185.292 150.291 185.405 151.983C185.518 154.013 186.645 155.704 188.45 156.832C190.931 158.298 191.607 158.298 194.088 156.832C195.667 155.93 196.907 154.125 196.907 152.885C196.907 151.644 196.456 149.615 195.78 148.374C195.103 146.908 193.524 146.119 191.494 146.119C189.803 146.119 187.66 146.683 186.758 147.472ZM98.3483 149.164C97.8973 150.291 98.3483 151.983 99.3633 152.885C100.829 154.351 101.28 154.351 103.085 152.659C104.212 151.419 104.663 150.066 104.212 148.938C103.648 148.036 102.295 147.247 101.168 147.247C99.9271 147.247 98.6866 148.149 98.3483 149.164ZM112.67 148.938C112.219 149.953 112.219 151.193 112.895 151.87C113.572 152.547 115.038 152.885 116.278 152.659C117.632 152.434 118.534 151.419 118.534 150.066C118.534 148.6 117.632 147.698 116.053 147.472C114.587 147.246 113.234 147.81 112.67 148.938ZM106.129 152.547C105.565 152.885 105.227 154.238 105.34 155.366C105.453 156.493 106.468 157.621 107.595 158.072C108.723 158.411 110.076 157.847 110.866 156.606C111.655 155.479 111.993 153.9 111.655 153.11C111.429 152.434 110.302 151.757 109.174 151.757C108.046 151.757 106.693 152.096 106.129 152.547ZM4.07454 155.366C3.1724 156.155 2.60856 157.959 2.72133 159.538C2.8341 161.23 3.51071 163.147 4.30008 163.936C5.08945 164.726 7.0065 165.289 8.69802 165.289C10.2768 165.289 12.081 164.613 12.8704 163.823C13.6598 163.147 14.2236 161.23 14.2236 159.651C14.2236 158.072 13.6598 156.155 12.8704 155.366C12.081 154.576 10.164 154.013 8.58525 154.013C6.89374 154.013 4.97668 154.576 4.07454 155.366ZM35.0857 156.042C33.958 157.17 33.0558 158.862 33.1686 159.764C33.2814 160.666 34.1835 162.245 35.3112 163.26C36.4389 164.387 38.6942 165.289 40.4985 165.289C42.6411 165.289 43.9943 164.5 45.0092 162.47C46.1369 160.215 46.1369 159.087 45.0092 156.832C43.9943 154.802 42.6411 154.013 40.273 154.013C38.5815 154.013 36.2133 154.915 35.0857 156.042ZM66.0968 155.366C65.1946 156.155 64.6308 157.959 64.7436 159.538C64.8563 161.23 65.5329 163.147 66.3223 163.936C67.1117 164.726 69.0287 165.289 70.7203 165.289C72.299 165.289 74.1033 164.613 74.8927 163.823C75.682 163.147 76.2459 161.23 76.2459 159.651C76.2459 158.072 75.682 156.155 74.8927 155.366C74.1033 154.576 72.1862 154.013 70.6075 154.013C68.916 154.013 66.9989 154.576 66.0968 155.366ZM142.215 156.832C140.749 159.313 140.749 159.989 142.215 162.47C143.455 164.5 144.921 165.289 147.29 165.289C149.77 165.289 151.011 164.5 152.139 162.47C153.266 160.215 153.266 159.087 152.139 156.832C151.011 154.802 149.77 154.013 147.29 154.013C144.921 154.013 143.455 154.802 142.215 156.832ZM173.226 155.366C172.324 156.155 171.76 157.959 171.873 159.538C171.986 161.23 172.662 163.147 173.452 163.936C174.241 164.726 176.158 165.289 177.85 165.289C179.428 165.289 181.233 164.613 182.022 163.823C182.811 163.147 183.375 161.23 183.375 159.651C183.375 158.072 182.811 156.155 182.022 155.366C181.233 154.576 179.316 154.013 177.737 154.013C176.045 154.013 174.128 154.576 173.226 155.366ZM203.673 156.155C202.997 157.396 202.32 159.087 202.433 159.876C202.433 160.666 203.335 162.245 204.463 163.26C205.59 164.387 207.507 165.289 208.748 165.289C209.988 165.289 212.018 164.274 213.259 163.034C215.063 161.117 215.288 160.102 214.386 157.621C213.484 155.14 212.357 154.464 209.086 154.238C205.929 154.013 204.688 154.464 203.673 156.155ZM60.0073 157.396C59.669 157.959 59.5563 158.974 59.8946 159.651C60.2329 160.328 61.0222 160.779 61.5861 160.779C62.2627 160.779 62.7138 160.102 62.8265 159.2C62.9393 158.298 62.3754 157.283 61.8116 156.832C61.135 156.493 60.3456 156.719 60.0073 157.396ZM18.0577 158.749C17.7194 159.538 17.945 160.666 18.6216 161.342C19.4485 162.094 20.2755 162.094 21.1025 161.342C21.7791 160.666 22.0046 159.538 21.6663 158.749C21.328 158.072 20.5386 157.396 19.862 157.396C19.2982 157.396 18.5088 158.072 18.0577 158.749ZM196.343 158.523C196.005 159.2 196.005 160.102 196.343 160.779C196.682 161.455 197.471 161.681 198.035 161.342C198.712 161.004 199.163 159.989 199.163 159.087C199.163 158.185 198.712 157.396 198.035 157.396C197.471 157.396 196.795 157.847 196.343 158.523ZM154.507 159.876C154.168 160.666 154.394 161.794 155.07 162.47C155.897 163.222 156.724 163.222 157.551 162.47C158.228 161.794 158.454 160.666 158.115 159.876C157.777 159.2 156.988 158.523 156.311 158.523C155.747 158.523 154.958 159.2 154.507 159.876ZM23.3578 162.47C21.5535 163.711 20.7642 165.289 20.7642 167.319C20.8769 169.011 21.5535 171.04 22.3429 171.83C23.1323 172.619 25.1621 173.183 26.9664 173.183C28.8834 173.183 30.4622 172.394 31.1388 170.928C31.8154 169.687 32.2665 167.657 32.2665 166.417C32.2665 165.177 31.1388 163.372 29.7856 162.47C28.3196 161.568 26.9664 160.779 26.6281 160.779C26.2898 160.779 24.8238 161.568 23.3578 162.47ZM48.6178 162.583C47.6029 163.485 46.8135 165.402 46.8135 166.755C46.8135 168.109 47.9412 170.251 49.1816 171.492C51.0987 173.296 52.1136 173.521 54.5945 172.619C56.9626 171.717 57.752 170.589 57.9775 167.545C58.0903 165.402 57.6392 162.921 56.8498 162.132C56.0605 161.342 54.2562 160.666 52.903 160.779C51.5498 160.779 49.6327 161.568 48.6178 162.583ZM104.438 164.162C103.197 165.402 102.182 167.094 102.182 167.77C102.182 168.56 102.972 170.364 103.874 171.717C104.889 173.296 106.693 174.311 108.385 174.311C110.076 174.311 111.88 173.296 112.895 171.717C113.798 170.364 114.587 168.56 114.587 167.77C114.587 167.094 113.572 165.402 112.332 164.162C111.091 162.921 109.287 161.906 108.385 161.906C107.483 161.906 105.678 162.921 104.438 164.162ZM160.258 164.725C159.356 166.304 158.792 168.56 159.13 169.8C159.468 171.04 160.822 172.619 162.288 173.296C164.092 174.198 165.445 174.198 167.362 173.296C168.715 172.619 170.181 170.702 170.52 168.898C170.971 166.755 170.52 165.289 169.054 163.823C167.926 162.696 165.896 161.794 164.543 161.906C163.077 161.906 161.273 163.147 160.258 164.725ZM186.307 164.387C185.405 165.853 184.954 167.77 185.292 168.672C185.631 169.575 186.533 171.04 187.209 171.83C187.886 172.619 189.803 173.296 191.607 173.183C193.75 173.183 195.103 172.281 196.118 170.364C197.246 168.109 197.246 166.981 196.118 164.725C194.99 162.696 193.75 161.906 191.269 161.906C189.126 161.906 187.435 162.808 186.307 164.387ZM89.4397 167.77C87.9737 168.785 87.5226 170.364 87.7482 173.183C87.9737 176.228 88.7631 177.355 91.1312 178.258C93.6121 179.16 94.627 178.934 96.5441 177.13C97.7845 175.89 98.9122 173.747 98.7994 172.281C98.7994 170.928 98.01 169.011 97.1079 168.109C96.2058 167.206 94.5142 166.417 93.3866 166.417C92.2589 166.417 90.4546 167.094 89.4397 167.77ZM119.661 168.447C118.534 169.575 117.632 171.492 117.744 172.732C117.857 173.86 118.985 175.89 120.225 177.13C122.142 178.934 123.157 179.16 125.525 178.258C127.104 177.581 128.796 176.115 129.359 174.875C129.811 173.521 129.585 171.379 128.796 169.8C128.006 168.109 126.427 166.868 124.623 166.643C122.932 166.417 120.902 167.206 119.661 168.447ZM36.2133 170.138C34.7474 171.153 34.0708 172.845 34.1835 174.987C34.1835 176.792 35.1984 178.934 36.4389 179.724C37.5666 180.513 39.2581 181.077 40.1602 181.077C41.0624 181.19 42.7539 180.287 43.7688 179.16C44.8965 178.032 45.7986 176.115 45.7986 174.875C45.7986 173.634 45.0092 171.717 43.8815 170.702C42.7539 169.575 41.0624 168.672 40.1602 168.672C39.1453 168.672 37.4538 169.349 36.2133 170.138ZM174.467 170.364C173.001 171.379 171.873 173.183 171.986 174.424C171.986 175.551 172.662 177.581 173.226 178.821C173.903 180.287 175.481 181.077 177.511 181.077C179.203 181.077 181.233 180.4 182.022 179.611C182.811 178.934 183.375 176.904 183.375 175.1C183.375 173.183 182.473 171.379 180.894 170.364C179.428 169.462 178.075 168.672 177.737 168.672C177.399 168.672 175.933 169.462 174.467 170.364ZM201.305 170.477C199.727 171.604 198.937 173.296 198.937 175.213C199.05 176.904 199.727 178.934 200.516 179.724C201.305 180.513 203.448 180.964 205.365 180.851C207.846 180.626 208.973 179.724 209.876 177.355C210.627 175.25 210.627 173.597 209.876 172.394C209.312 171.492 207.62 170.251 206.267 169.8C204.688 169.123 202.997 169.462 201.305 170.477ZM8.58525 171.153C7.68311 171.943 7.11927 173.747 7.23204 175.326C7.34481 177.017 8.02141 178.934 8.81079 179.724C9.60016 180.513 11.5172 181.077 13.2087 181.077C14.7875 181.077 16.5918 180.4 17.3811 179.611C18.1705 178.934 18.7343 177.017 18.7343 175.438C18.7343 173.86 18.1705 171.943 17.3811 171.153C16.5918 170.364 14.6747 169.8 13.096 169.8C11.4044 169.8 9.48739 170.364 8.58525 171.153ZM61.2478 172.619C60.2329 174.875 60.2329 176.002 61.3605 178.258C62.3755 180.287 63.6159 181.077 66.0968 181.077C68.4649 181.077 69.9309 180.287 71.1713 178.258C72.6373 175.777 72.6373 175.1 71.1713 172.619C69.9309 170.589 68.4649 169.8 66.0968 169.8C63.6159 169.8 62.2627 170.589 61.2478 172.619ZM145.824 172.619C144.809 174.649 144.809 176.115 145.711 177.919C146.387 179.385 147.966 180.851 149.319 181.302C151.011 181.979 152.702 181.528 154.619 179.949C156.198 178.709 157.439 176.792 157.439 175.664C157.551 174.649 156.649 172.845 155.522 171.83C154.394 170.702 152.139 169.8 150.334 169.8C148.192 169.8 146.838 170.589 145.824 172.619ZM28.4324 176.566C28.0941 177.13 27.9813 178.145 28.3196 178.821C28.6579 179.498 29.4473 179.949 30.0111 179.949C30.6877 179.949 31.1388 179.273 31.2516 178.37C31.3643 177.468 30.8005 176.453 30.2367 176.002C29.56 175.664 28.7707 175.89 28.4324 176.566ZM48.8433 176.228C48.3922 176.792 48.3923 177.468 48.6178 177.919C48.9561 178.483 49.971 178.821 50.8731 178.821C51.7753 178.821 52.5647 178.032 52.5647 177.13C52.5647 176.228 51.888 175.438 51.0987 175.438C50.1965 175.438 49.1816 175.777 48.8433 176.228ZM167.024 176.904C166.347 178.032 166.235 179.273 166.798 179.724C167.249 180.175 168.264 179.836 169.054 179.047C169.956 178.145 170.069 177.243 169.279 176.341C168.377 175.438 167.813 175.551 167.024 176.904ZM186.194 176.792C185.743 177.581 185.969 178.709 186.645 179.385C187.472 180.137 188.262 180.137 189.014 179.385C189.916 178.596 189.69 177.807 188.675 176.792C187.322 175.551 186.984 175.551 186.194 176.792ZM77.9374 179.498C76.9225 180.4 76.1331 182.543 76.1331 184.234C76.1331 185.926 76.8097 187.956 77.5991 188.745C78.3885 189.534 80.1927 190.098 81.546 190.098C82.8992 190.098 84.8162 189.309 85.7184 188.407C86.7333 187.505 87.5226 185.588 87.5226 184.122C87.6354 182.768 86.7333 180.739 85.6056 179.724C84.4779 178.596 82.6736 177.694 81.6587 177.694C80.6438 177.694 78.9523 178.483 77.9374 179.498ZM104.438 179.949C103.197 181.19 102.182 183.107 102.182 184.122C102.07 185.249 102.972 187.054 104.099 188.068C105.227 189.196 107.257 190.098 108.723 190.098C110.076 190.098 111.993 188.971 112.895 187.505C113.798 186.151 114.587 184.347 114.587 183.558C114.587 182.881 113.572 181.19 112.332 179.949C111.091 178.709 109.287 177.694 108.385 177.694C107.483 177.694 105.678 178.709 104.438 179.949ZM130.938 179.724C129.811 180.851 128.908 182.768 129.021 184.009C129.134 185.136 130.036 187.054 131.164 188.068C132.291 189.196 134.208 190.098 135.562 190.098C136.802 190.098 138.381 189.422 139.17 188.632C139.96 187.956 140.523 185.588 140.523 183.558C140.523 181.077 139.847 179.611 138.268 178.821C137.028 178.145 135.336 177.694 134.434 177.694C133.645 177.694 132.066 178.596 130.938 179.724ZM96.5441 181.641C96.5441 182.543 97.3334 183.332 98.2356 183.332C99.1377 183.332 99.9271 182.543 99.9271 181.641C99.9271 180.739 99.1377 179.949 98.2356 179.949C97.3334 179.949 96.5441 180.739 96.5441 181.641ZM116.842 181.641C116.842 182.543 117.632 183.332 118.534 183.332C119.436 183.332 120.225 182.543 120.225 181.641C120.225 180.739 119.436 179.949 118.534 179.949C117.632 179.949 116.842 180.739 116.842 181.641ZM19.862 182.43C18.9599 183.219 18.396 185.249 18.5088 186.941C18.6216 188.971 19.7493 190.662 21.5535 191.79C24.0344 193.256 24.711 193.256 27.1919 191.79C28.7707 190.888 30.0111 189.083 30.0111 187.843C30.0111 186.602 29.56 184.573 28.8834 183.332C28.2068 181.866 26.6281 181.077 24.5983 181.077C22.9068 181.077 20.7642 181.641 19.862 182.43ZM50.8731 182.881C49.8582 183.783 49.0689 185.813 49.0689 187.392C49.1816 188.971 50.3093 190.775 52.0008 191.79C53.5796 192.692 55.7222 193.256 56.8498 192.917C57.8647 192.692 59.4435 191 60.2329 189.309C61.4733 186.602 61.3605 185.7 59.8946 183.558C58.8796 182.204 57.0754 181.077 55.4966 181.077C53.9179 181.077 51.8881 181.866 50.8731 182.881ZM158.002 182.881C156.988 183.783 156.198 185.588 156.198 186.828C156.311 187.956 157.326 189.985 158.566 191.226C159.807 192.466 161.611 193.481 162.513 193.481C163.415 193.481 165.22 192.466 166.46 191.226C167.7 189.985 168.715 188.294 168.715 187.505C168.715 186.828 167.926 185.024 167.024 183.558C166.009 182.092 164.205 181.077 162.626 181.077C161.047 181.077 159.017 181.866 158.002 182.881ZM188.45 183.896C186.984 186.377 186.984 187.054 188.45 189.534C189.352 191.113 190.931 192.579 191.833 192.917C192.735 193.256 194.765 192.692 196.343 191.79C198.148 190.662 199.163 189.083 199.163 187.279C199.163 185.7 198.373 183.67 197.471 182.768C196.569 181.866 194.539 181.077 192.96 181.077C191.156 181.077 189.577 182.092 188.45 183.896ZM37.2283 185.926C35.9878 186.49 34.6346 187.956 34.1835 189.083C33.7325 190.324 34.0708 192.466 35.0857 194.045C36.1006 195.849 37.7921 196.864 39.4836 196.864C41.0624 196.864 43.0922 196.075 43.9943 195.173C45.0092 194.271 45.7986 192.579 45.7986 191.451C45.7986 190.437 45.2348 188.745 44.4454 187.73C43.656 186.715 42.19 185.7 41.1751 185.362C40.1602 185.024 38.3559 185.249 37.2283 185.926ZM175.481 185.926C173.677 186.941 172.549 188.519 172.324 190.775C172.211 192.579 172.662 194.722 173.452 195.511C174.241 196.3 176.158 196.977 177.737 196.977C179.316 196.977 181.233 196.3 182.022 195.511C182.811 194.722 183.262 192.579 183.15 190.775C182.924 188.971 181.796 186.828 180.556 186.039C178.639 184.798 177.737 184.798 175.481 185.926ZM91.4695 187.392C90.4546 188.294 89.6652 190.437 89.6652 192.128C89.6652 193.82 90.3418 195.849 91.1312 196.639C91.9206 197.428 93.7249 197.992 95.0781 197.992C96.4313 197.992 98.3483 197.203 99.2505 196.3C100.265 195.398 101.055 193.481 101.055 192.015C101.168 190.662 100.265 188.632 99.1377 187.617C98.01 186.49 96.2058 185.588 95.1909 185.588C94.1759 185.588 92.4844 186.377 91.4695 187.392ZM117.406 187.392C116.391 188.294 115.602 190.211 115.602 191.564C115.602 192.917 116.504 194.947 117.632 195.962C118.759 197.09 120.451 197.992 121.353 197.992C122.255 197.992 123.947 197.203 124.962 196.075C126.089 194.947 126.991 192.917 126.991 191.451C126.991 190.098 126.202 188.181 125.3 187.279C124.398 186.377 122.593 185.588 121.466 185.588C120.225 185.588 118.421 186.377 117.406 187.392ZM73.4267 195.511C72.299 196.639 71.3969 198.669 71.5096 200.022C71.6224 201.375 72.5245 203.292 73.4267 204.194C74.3288 205.096 75.9076 205.886 76.8097 205.886C77.7119 205.886 79.5161 205.435 80.7566 204.758C82.2602 204.006 83.0119 202.503 83.0119 200.247C83.0119 198.33 82.2226 196.075 81.3204 195.173C80.4183 194.271 78.7268 193.481 77.4863 193.481C76.3586 193.481 74.5544 194.383 73.4267 195.511ZM104.438 195.737C103.197 196.977 102.182 198.669 102.182 199.345C102.182 200.135 102.972 201.939 103.874 203.292C104.889 204.871 106.693 205.886 108.385 205.886C110.076 205.886 111.88 204.871 112.895 203.292C113.798 201.939 114.587 200.135 114.587 199.345C114.587 198.669 113.572 196.977 112.332 195.737C111.091 194.496 109.287 193.481 108.385 193.481C107.483 193.481 105.678 194.496 104.438 195.737ZM135.449 195.286C134.434 196.188 133.645 198.556 133.645 200.36C133.757 202.503 134.547 204.081 136.013 204.758C137.253 205.435 138.945 205.886 139.847 205.886C140.749 205.886 142.328 205.096 143.23 204.194C144.245 203.292 145.034 201.375 145.034 199.909C145.147 198.556 144.245 196.526 143.117 195.511C141.989 194.383 140.185 193.481 139.17 193.481C138.155 193.481 136.464 194.271 135.449 195.286ZM128.119 198.556C128.119 199.458 128.908 200.247 129.811 200.247C130.713 200.247 131.502 199.458 131.502 198.556C131.502 197.654 130.713 196.864 129.811 196.864C128.908 196.864 128.119 197.654 128.119 198.556ZM86.846 199.345C86.5077 200.135 86.7333 201.262 87.4099 201.939C88.2368 202.691 89.0638 202.691 89.8908 201.939C90.5674 201.262 90.7929 200.135 90.4546 199.345C90.1163 198.669 89.3269 197.992 88.6503 197.992C88.0865 197.992 87.2971 198.669 86.846 199.345ZM91.695 202.728C90.2291 203.743 89.778 205.322 90.0035 208.141C90.2291 211.186 91.0184 212.313 93.3866 213.216C95.8675 214.118 96.8824 213.892 98.7994 212.088C100.04 210.847 101.168 208.818 101.168 207.577C101.168 206.337 100.265 204.42 99.1377 203.405C98.01 202.277 96.3185 201.375 95.4164 201.375C94.4015 201.375 92.71 202.052 91.695 202.728ZM116.842 202.728C115.94 203.518 115.376 205.322 115.489 206.901C115.602 208.592 116.278 210.509 117.068 211.299C117.857 212.088 119.774 212.652 121.466 212.652C123.044 212.652 124.849 211.975 125.638 211.186C126.428 210.509 126.991 208.592 126.991 207.013C126.991 205.435 126.428 203.518 125.638 202.728C124.849 201.939 122.932 201.375 121.353 201.375C119.661 201.375 117.744 201.939 116.842 202.728ZM77.9374 211.073C76.9225 211.975 76.1331 214.118 76.1331 215.809C76.1331 217.501 76.8097 219.531 77.5991 220.32C78.3885 221.109 80.1927 221.673 81.546 221.673C82.8992 221.673 84.8162 220.884 85.7184 219.982C86.7333 219.08 87.5226 217.05 87.5226 215.471C87.5226 213.779 86.5077 211.975 85.0418 210.96C83.5758 210.058 81.8843 209.269 81.0949 209.269C80.4183 209.269 78.9523 210.058 77.9374 211.073ZM103.874 211.75C102.408 213.892 102.295 214.794 103.536 217.501C104.325 219.192 105.34 220.546 105.904 220.546C106.355 220.546 107.483 220.771 108.385 221.109C109.287 221.448 111.091 220.658 112.332 219.418C113.572 218.177 114.587 216.148 114.587 214.907C114.587 213.667 113.798 211.862 112.895 210.96C111.993 210.058 109.963 209.269 108.385 209.269C106.806 209.269 104.889 210.284 103.874 211.75ZM130.938 211.299C129.811 212.426 128.908 214.343 129.021 215.584C129.134 216.711 130.036 218.628 131.164 219.643C132.291 220.771 134.208 221.673 135.562 221.673C136.802 221.673 138.381 220.997 139.17 220.207C139.96 219.531 140.523 217.162 140.523 215.133C140.523 212.652 139.847 211.186 138.268 210.396C137.028 209.72 135.336 209.269 134.434 209.269C133.645 209.269 132.066 210.171 130.938 211.299ZM96.7696 217.839C96.8824 218.741 97.559 219.643 98.2356 219.756C98.7994 219.869 99.3633 219.08 99.476 217.952C99.476 216.937 98.7994 216.035 97.8973 216.035C97.1079 216.035 96.5441 216.824 96.7696 217.839ZM117.406 217.162C117.068 217.839 117.406 218.516 117.97 218.854C118.647 219.192 119.661 219.192 120.225 218.854C120.902 218.516 121.353 217.839 121.353 217.162C121.353 216.486 120.564 216.035 119.661 216.035C118.872 216.035 117.857 216.486 117.406 217.162ZM89.8908 222.237C88.0865 223.477 87.2971 225.056 87.2971 227.086C87.4099 228.778 88.0865 230.807 88.8759 231.597C89.6652 232.386 91.6951 232.95 93.4993 232.95C95.4164 232.95 96.9951 232.161 97.6717 230.695C98.3483 229.454 98.7994 227.424 98.7994 226.184C98.7994 224.943 97.6717 223.139 96.3185 222.237C94.8525 221.335 93.4993 220.546 93.161 220.546C92.8227 220.546 91.3567 221.335 89.8908 222.237ZM120.338 222.237C118.872 223.252 117.744 225.056 117.857 226.297C117.857 227.424 118.534 229.454 119.098 230.695C119.849 232.198 121.353 232.95 123.608 232.95C125.976 232.95 127.442 232.161 128.683 230.131C129.923 228.101 130.036 226.748 129.247 225.056C128.683 223.816 127.104 222.35 125.864 221.673C124.623 220.997 123.496 220.546 123.383 220.546C123.157 220.546 121.804 221.335 120.338 222.237ZM104.438 227.312C103.197 228.552 102.182 230.244 102.182 230.92C102.182 231.71 102.972 233.514 103.874 234.867C104.889 236.446 106.693 237.461 108.385 237.461C110.076 237.461 111.88 236.446 112.895 234.867C113.798 233.514 114.587 231.71 114.587 230.92C114.587 230.244 113.572 228.552 112.332 227.312C111.091 226.071 109.287 225.056 108.385 225.056C107.483 225.056 105.678 226.071 104.438 227.312Z" fill="#FEFEFE"/>
</svg>
