<svg width="241" height="240" viewBox="0 0 241 240" fill="none" xmlns="http://www.w3.org/2000/svg">
<path d="M118.18 0.132183C117.534 0.308427 116.359 0.895906 115.537 1.48339C114.714 2.01212 113.598 3.59831 113.01 4.89077C112.482 6.24197 112.012 7.88691 112.012 8.53314C112.012 9.17937 111.836 9.7081 111.542 9.7081C111.307 9.64935 110.484 9.29686 109.662 8.82688C108.839 8.35689 107.253 8.00441 106.137 8.00441C105.021 8.00441 103.082 8.59189 101.848 9.29686C100.615 10.0018 99.2635 11.4705 98.7935 12.4692C98.3235 13.5267 97.9123 15.2304 97.9123 16.1704C97.9123 17.1103 98.3235 18.8728 98.7935 19.989C99.2635 21.1052 100.145 22.2802 100.732 22.6326C101.261 22.9264 102.142 23.4551 102.612 23.7489C103.317 24.2188 103.023 24.7476 100.732 26.8625C99.0285 28.3899 97.7948 30.1524 97.501 31.3273C97.266 32.3848 96.9135 33.2073 96.7373 33.2073C96.5611 33.266 95.7973 32.561 94.9749 31.7386C94.1524 30.9161 92.7424 30.0936 91.7437 29.8586C90.745 29.6236 89.7463 29.3887 89.3938 29.3299C89.0413 29.2712 88.4538 29.2124 88.0426 29.1537C87.5726 29.0949 87.6901 28.3312 88.5713 26.3338C89.5113 24.1601 89.6875 22.9851 89.3351 21.1639C89.1001 19.8715 88.2776 18.1091 87.5139 17.2278C86.7502 16.2879 85.5752 15.4066 84.8702 15.2304C84.1065 14.9954 82.8728 14.7604 82.0503 14.7017C81.2278 14.6429 79.7004 14.8192 78.6429 15.0542C77.5267 15.3479 75.9993 16.5229 74.8243 17.9328C73.8256 19.2253 72.7681 20.2827 72.4744 20.2827C72.2394 20.2827 71.7107 19.5777 71.2994 18.6965C70.8882 17.7566 69.4783 16.4641 67.9508 15.7004C66.0709 14.7604 64.7784 14.4667 63.5447 14.7604C62.546 14.9954 61.0773 15.5241 60.1373 15.9354C59.2561 16.4054 58.0224 17.6391 57.3762 18.6965C56.73 19.754 56.2012 21.5752 56.2012 22.9264C56.26 24.2188 56.6125 25.9225 57.0824 26.745C57.5524 27.5675 57.9049 28.3899 57.9637 28.6837C57.9637 28.9187 57.3174 29.0949 56.495 29.0949C55.6725 29.0949 54.145 29.4474 53.0876 29.9174C52.0889 30.3286 50.5614 31.4448 49.7389 32.3261C48.7402 33.3835 48.2115 34.7347 48.0353 36.6147C47.9178 38.3771 48.1528 40.0808 48.799 41.3145C49.3277 42.3132 50.6202 43.7232 51.6189 44.3694C52.6763 45.0156 54.4388 45.5443 55.4375 45.5443C56.495 45.5443 57.3762 45.7206 57.3762 46.0143C57.3762 46.2493 56.9649 47.483 56.495 48.7755C55.8487 50.3029 55.6725 51.7716 55.9662 52.8878C56.2012 53.8865 56.6712 55.1202 57.0237 55.649C57.3762 56.1777 57.5524 56.8239 57.3762 57.0002C57.1999 57.1764 55.9075 57.0002 54.4388 56.589C52.2064 56.0015 51.3839 56.0602 49.1515 56.8827C47.6828 57.4114 46.3316 57.8814 46.0378 57.8814C45.8028 57.8814 45.6266 56.7064 45.6266 55.2377C45.6266 53.1816 45.2741 52.1829 43.9816 50.7729C43.1004 49.7154 41.6905 48.5405 40.7505 48.1292C39.8693 47.6593 38.5181 47.3068 37.6956 47.3068C36.8732 47.3068 35.2282 47.7768 33.9945 48.423C32.8195 49.0105 31.3508 50.1854 30.7634 51.0666C30.2346 51.8891 29.5884 53.769 29.2947 55.2377C29.0597 56.7064 28.8834 57.8814 28.8834 57.8814C28.8834 57.8814 27.826 57.4702 26.5335 56.9414C25.2411 56.4127 23.2436 56.119 22.1274 56.2365C21.0112 56.4127 19.19 57.0589 18.1326 57.7639C16.8988 58.6451 15.9589 59.9963 15.3127 61.8763C14.3727 64.4024 14.3727 64.8137 15.3127 67.1636C15.9001 68.7498 17.0163 70.101 18.3088 70.9822C19.425 71.6872 20.365 72.4509 20.365 72.7446C20.365 72.9796 19.5425 73.6846 18.6025 74.3308C17.6626 74.9771 16.4289 76.2695 15.9589 77.2682C15.4889 78.2669 15.0777 80.0294 15.0777 81.2631C15.0777 82.438 15.6064 84.318 16.2526 85.3754C16.8988 86.3742 18.1326 87.7253 19.0725 88.2541C19.9537 88.8416 21.8337 89.3115 23.3611 89.3115C24.8298 89.3115 26.4748 88.9591 27.0035 88.5478C27.591 88.1953 28.2959 87.9603 28.5897 88.1366C28.8834 88.3128 29.1772 89.1353 29.1772 90.0753C29.1772 90.9565 29.7059 92.5427 30.3521 93.6001C30.9984 94.5989 31.9383 95.5976 32.4083 95.7738C32.8783 95.9501 33.2895 96.4788 33.2895 96.9488C33.2895 97.5363 32.702 97.83 31.6446 97.83C30.5284 97.83 29.2947 98.6525 27.5322 100.474C26.181 101.942 24.8886 102.941 24.5948 102.765C24.3598 102.589 23.8899 101.825 23.5961 101.179C23.3024 100.474 22.0687 99.2987 20.9525 98.5937C19.66 97.7125 18.0151 97.1838 16.5464 97.1838C15.0777 97.1838 13.4327 97.7125 12.1403 98.5937C11.0241 99.2987 9.6141 100.826 9.08537 101.942C8.55664 103.059 8.08666 104.586 8.02791 105.35C8.02791 106.055 8.55664 107.641 9.20287 108.875C9.79035 110.05 10.1428 111.225 9.96659 111.518C9.79035 111.753 8.79163 111.93 7.79292 111.93C6.7942 111.93 5.03176 112.517 3.91555 113.222C2.79934 113.986 1.38939 115.513 0.801913 116.629C0.0381896 118.098 -0.138055 119.332 0.096937 121.035C0.331929 122.328 0.978156 124.09 1.62438 125.03C2.21186 125.912 3.56307 127.028 4.50303 127.498C5.443 127.968 6.97045 128.379 7.85167 128.379C8.79163 128.379 9.67285 128.496 9.90784 128.673C10.2016 128.849 9.96659 129.965 9.43786 131.199C8.79163 132.726 8.61539 134.195 8.85038 136.016C9.08537 137.485 9.79035 139.247 10.5541 140.07C11.259 140.833 12.7865 141.832 13.9027 142.302C15.3127 142.89 16.7226 143.007 18.3088 142.713C19.9537 142.42 21.3049 141.597 22.7149 140.07L24.7711 137.837C27.9435 141.245 29.4709 142.067 31.2333 142.478L33.877 143.066C30.2346 147.237 29.7646 148.294 29.7646 149.998C29.7646 151.173 29.6472 152.348 29.4709 152.642C29.2947 152.877 28.1785 152.524 26.9447 151.878C25.7698 151.232 23.8899 150.703 22.8324 150.703C21.8337 150.703 20.13 151.114 19.19 151.584C18.2501 152.054 16.8988 153.171 16.3114 154.111C15.6651 154.992 15.0189 156.519 14.7839 157.459C14.4902 158.575 14.7252 160.103 15.3127 161.748C15.9001 163.216 17.0163 164.744 18.1326 165.508C19.19 166.213 20.1887 166.859 20.365 166.976C20.5412 167.094 19.66 168.093 18.4263 169.091C17.1338 170.207 15.9001 171.97 15.4301 173.321C14.9014 174.907 14.7839 176.317 15.1364 177.727C15.4301 178.843 16.2526 180.43 16.9576 181.135C17.7213 181.898 19.0138 182.897 19.895 183.367C20.835 183.837 22.2449 184.189 23.1261 184.189C24.0661 184.189 25.5935 183.778 26.5335 183.308C27.5322 182.78 28.6484 182.545 29.0009 182.721C29.4122 182.897 29.5884 183.367 29.4122 183.778C29.1772 184.131 29.4709 185.599 29.9996 187.009C30.5284 188.361 31.6446 189.947 32.5258 190.593C33.4658 191.18 34.8757 191.827 35.7569 192.062C36.6969 192.238 38.4006 192.238 39.5756 192.003C40.9268 191.768 42.5717 190.828 43.6879 189.653C45.2154 188.126 45.6266 187.244 45.6266 185.364C45.6266 183.132 45.6853 183.015 47.2128 183.367C48.1528 183.543 49.9152 183.837 51.2076 184.013C52.7351 184.189 54.2038 184.013 55.4375 183.367C56.495 182.838 57.4937 182.486 57.6699 182.603C57.8462 182.662 57.5524 183.719 57.0824 184.953C56.6125 186.128 56.2012 187.597 56.2012 188.184C56.2012 188.713 56.73 190.182 57.3762 191.415C58.0224 192.59 58.3749 193.707 58.0812 193.824C57.8462 193.942 56.495 194.177 55.0263 194.353C52.9113 194.647 51.9126 195.234 50.1502 197.114C48.9752 198.406 47.859 200.286 47.624 201.403C47.4478 202.46 47.6828 204.164 48.2115 205.339C48.6815 206.455 49.6802 207.982 50.4439 208.746C51.2664 209.569 52.9113 210.274 54.6738 210.509C56.2012 210.744 57.6112 211.096 57.7287 211.39C57.8462 211.625 57.5524 212.8 57.0237 214.033C56.3775 215.443 56.2012 216.912 56.4362 218.263C56.6125 219.379 57.1999 220.907 57.6699 221.671C58.1399 222.376 59.4324 223.492 60.4898 224.138C61.4885 224.784 63.251 225.313 64.2497 225.313C65.3072 225.313 67.1871 224.843 68.362 224.314C69.537 223.727 70.947 222.552 71.4757 221.671C71.9457 220.731 72.4744 220.026 72.6506 220.026C72.8269 219.967 74.0018 221.024 75.2943 222.317C76.5868 223.551 78.4079 224.784 79.4067 225.019C80.4054 225.254 82.1091 225.254 83.2253 225.019C84.3415 224.784 86.1039 223.786 87.1026 222.728C88.2776 221.612 89.1588 219.967 89.3938 218.557C89.6875 217.206 89.6288 215.561 89.2763 214.738C88.9238 213.916 88.5126 212.8 88.2776 212.212C87.9839 211.449 88.2189 211.214 89.3938 211.214C90.2163 211.214 91.8025 210.802 92.9187 210.332C94.0349 209.862 95.3861 208.805 95.8561 207.982C96.3261 207.16 96.9723 206.514 97.3248 206.514C97.6773 206.514 97.9123 207.101 97.9123 207.865C97.9123 208.57 98.441 210.039 99.0872 211.096C99.7334 212.095 100.908 213.328 101.731 213.74C102.553 214.092 103.2 214.68 103.2 215.032C103.2 215.385 102.377 216.09 101.437 216.677C100.438 217.206 99.146 218.557 98.4997 219.614C97.8535 220.613 97.3248 222.376 97.3248 223.433C97.3248 224.432 97.6773 226.018 98.1472 226.958C98.6172 227.839 99.6159 229.132 100.38 229.837C101.143 230.6 102.906 231.305 104.375 231.54C106.313 231.834 107.606 231.658 109.074 230.953C110.191 230.424 111.307 230.013 111.601 230.013C111.836 230.013 112.012 230.835 112.012 231.775C112.012 232.715 112.364 234.243 112.834 235.183C113.245 236.064 114.42 237.474 115.478 238.414C116.888 239.648 117.887 240 119.943 240C121.411 240 123.35 239.589 124.349 239.119C125.348 238.649 126.64 237.356 127.286 236.299C127.932 235.3 128.461 233.538 128.461 232.48C128.461 231.482 128.637 230.483 128.931 230.365C129.166 230.189 130.517 230.483 131.986 230.953C133.514 231.482 135.393 231.658 136.392 231.482C137.391 231.247 138.742 230.718 139.506 230.248C140.211 229.778 141.327 228.544 141.973 227.487C142.619 226.488 143.148 224.726 143.148 223.668C143.148 222.669 142.678 220.848 142.149 219.732C141.562 218.616 140.505 217.323 139.741 216.971C139.036 216.56 138.448 215.737 138.448 215.208C138.448 214.621 138.86 214.151 139.33 214.151C139.8 214.151 140.74 213.446 141.327 212.565C141.973 211.625 142.678 210.039 142.972 208.981C143.207 207.924 143.559 207.101 143.736 207.101C143.912 207.16 144.852 207.865 145.792 208.805C146.849 209.804 148.553 210.567 150.08 210.802C151.432 211.037 152.548 211.39 152.548 211.683C152.548 211.918 152.313 212.33 152.019 212.682C151.725 213.035 151.373 214.21 151.314 215.326C151.255 216.442 151.197 218.087 151.255 219.027C151.314 219.908 152.078 221.377 153.018 222.317C153.899 223.257 155.72 224.314 157.13 224.667C159.128 225.196 160.009 225.137 161.83 224.432C163.005 223.962 164.826 222.552 165.825 221.318L167.646 219.144C169.232 221.847 170.466 223.257 171.523 223.962C172.698 224.784 174.285 225.313 175.753 225.313C177.104 225.313 178.926 224.784 180.042 224.138C181.041 223.492 182.451 222.082 183.097 221.083C183.743 220.026 184.272 218.205 184.272 217.088C184.272 215.972 183.743 214.21 183.097 213.27L181.981 211.507C186.269 210.979 188.208 210.332 189.089 209.686C189.97 209.099 191.145 207.63 191.674 206.514C192.203 205.397 192.673 203.811 192.673 202.989C192.614 202.166 192.144 200.463 191.556 199.229C190.91 197.936 189.618 196.409 188.678 195.822C187.738 195.234 185.917 194.764 184.742 194.764C183.156 194.764 182.509 194.529 182.509 193.883C182.509 193.413 182.744 192.884 183.097 192.708C183.449 192.532 183.919 191.415 184.272 190.24C184.624 188.889 184.624 187.303 184.33 186.246C184.037 185.306 183.567 183.954 183.332 183.367C182.803 182.251 182.862 182.251 184.742 183.191C185.74 183.719 187.62 184.189 188.854 184.189C190.029 184.189 191.556 183.837 192.203 183.308C192.849 182.838 193.554 182.662 193.848 182.897C194.083 183.132 194.259 183.778 194.259 184.366C194.259 184.894 194.729 186.363 195.375 187.597C195.963 188.772 197.196 190.299 198.136 190.887C199.194 191.592 200.897 192.062 202.601 192.062C204.481 192.12 205.832 191.768 206.948 190.945C207.771 190.299 209.005 189.124 209.651 188.302C210.238 187.479 210.943 185.717 211.178 184.366L211.59 181.898C215.114 184.013 216.348 184.307 218.052 184.131C219.344 183.954 221.107 183.367 222.047 182.838C222.928 182.31 224.22 180.723 224.867 179.372C226.042 177.022 226.1 176.67 225.337 173.967C224.749 171.852 223.868 170.56 222.282 169.267L220.108 167.446C222.81 165.86 224.044 164.803 224.514 164.098C224.984 163.334 225.572 161.689 225.748 160.397C225.983 158.869 225.807 157.459 225.278 156.284C224.749 155.344 223.574 153.817 222.517 152.936C221.107 151.643 220.108 151.291 217.934 151.291C216.348 151.291 214.586 151.643 213.939 152.172C213.293 152.642 212.412 153.053 212.06 153.053C211.59 153.053 211.296 152.231 211.296 150.703C211.296 149.234 210.826 147.648 210.003 146.473C209.298 145.416 208.417 144.358 208.065 144.182C207.771 143.947 207.653 143.477 207.947 143.125C208.182 142.772 208.946 142.478 209.592 142.478C210.297 142.478 211.883 141.421 213.176 140.129C214.468 138.836 215.761 137.779 216.054 137.779C216.348 137.779 216.583 138.19 216.583 138.66C216.583 139.13 217.464 140.187 218.522 140.951C219.52 141.715 221.342 142.537 222.458 142.772C223.75 143.007 225.278 142.831 226.57 142.243C227.686 141.773 229.214 140.775 229.919 140.011C230.683 139.247 231.388 137.485 231.623 136.016C231.916 134.077 231.74 132.844 231.035 131.493C230.506 130.435 230.213 129.378 230.33 129.143C230.448 128.849 231.858 128.496 233.385 128.261C235.147 128.026 236.792 127.321 237.615 126.499C238.379 125.735 239.377 124.443 239.847 123.562C240.317 122.622 240.67 121.035 240.67 120.037C240.67 118.979 240.141 117.217 239.495 116.218C238.849 115.161 237.732 113.868 237.027 113.398C236.264 112.928 234.56 112.282 233.15 112.047C231.799 111.812 230.683 111.518 230.683 111.342C230.683 111.166 231.094 110.402 231.564 109.58C232.034 108.757 232.386 107.053 232.445 105.761C232.445 104.41 231.916 102.589 231.27 101.531C230.565 100.356 229.038 99.1225 227.451 98.4175C225.16 97.4188 224.455 97.36 222.34 97.8887C220.93 98.2412 219.109 99.2987 218.228 100.239C217.288 101.179 216.583 102.177 216.583 102.53C216.583 102.882 216.348 103.117 215.996 103.117C215.643 103.117 214.938 102.236 214.351 101.237C213.763 100.18 212.647 98.9462 211.825 98.5937C211.061 98.1825 209.592 97.595 208.652 97.2425L206.89 96.5963C208.946 95.3038 209.945 94.1289 210.415 93.1302C210.885 92.1314 211.296 90.604 211.296 89.6053C211.296 88.6066 211.472 87.8428 211.766 87.8428C212.001 87.8428 213.117 88.2541 214.233 88.7828C215.643 89.429 216.936 89.664 218.346 89.3703C219.462 89.1941 220.989 88.6066 221.753 88.1366C222.458 87.6666 223.574 86.3742 224.22 85.3754C224.867 84.318 225.395 82.4968 225.395 81.3806C225.395 80.2644 224.925 78.3844 224.338 77.2682C223.692 76.152 222.517 74.8596 221.635 74.5071C220.813 74.0958 220.108 73.3909 220.108 73.0384C220.108 72.6271 220.93 71.8047 221.87 71.2759C222.869 70.6885 224.162 69.3373 224.808 68.3385C225.454 67.2811 225.983 65.4599 225.983 64.3437C225.983 63.2275 225.454 61.4063 224.808 60.4076C224.162 59.3501 223.045 58.0576 222.34 57.5877C221.577 57.1177 219.932 56.5302 218.639 56.354C217.053 56.0602 215.702 56.2952 214.409 56.9414C213.352 57.4702 212.236 57.8814 211.883 57.8814C211.531 57.8814 211.296 56.7652 211.296 55.414C211.296 53.3578 210.943 52.4178 209.298 50.5379C207.36 48.2467 207.242 48.188 203.482 48.188C200.192 48.188 199.429 48.423 198.078 49.6567C197.196 50.4792 196.08 52.0066 195.669 53.0641C195.199 54.0628 194.846 55.5902 194.846 56.4127C194.846 57.2352 194.67 57.8227 194.376 57.7639C194.141 57.6464 192.614 57.0589 191.028 56.4715C188.267 55.414 187.973 55.414 185.74 56.2952C184.448 56.8239 183.332 57.2352 183.273 57.1177C183.156 57.0589 183.567 55.8252 184.095 54.3565C184.918 52.1241 184.918 51.3604 184.33 49.6567C183.919 48.5405 183.508 47.3655 183.332 47.013C183.214 46.7193 184.154 46.2493 185.447 46.0143C186.739 45.7206 188.737 44.7806 189.853 43.7819C191.204 42.6069 192.026 41.3145 192.32 39.8458C192.555 38.6121 192.673 37.2021 192.555 36.7321C192.496 36.2622 191.968 34.9697 191.439 33.8535C190.852 32.7373 189.618 31.3273 188.678 30.7399C187.738 30.1524 186.093 29.6824 185.153 29.6824C184.213 29.6824 183.214 29.5649 182.979 29.3887C182.686 29.2124 183.038 27.92 183.684 26.4513C184.507 24.6301 184.742 23.2201 184.507 21.9277C184.272 20.8702 183.626 19.284 183.038 18.4028C182.392 17.4628 181.041 16.3466 180.042 15.8179C178.691 15.1129 177.222 14.9367 175.166 15.1717C172.581 15.4066 171.935 15.7591 169.937 17.9916C168.292 19.8715 167.587 20.3415 167.352 19.6952C167.176 19.2253 166.236 17.9916 165.237 17.0516C164.18 15.9941 162.476 15.0542 161.243 14.8192C159.598 14.5254 158.305 14.7017 156.366 15.5829C154.428 16.4641 153.429 17.3453 152.548 19.1078C151.902 20.4002 151.373 22.1627 151.373 23.1026C151.373 23.9838 151.784 25.5113 152.254 26.4513C152.783 27.45 153.135 28.3899 153.135 28.6837C153.135 28.9187 152.195 29.0949 151.079 29.0949C149.963 29.0949 148.2 29.5062 147.261 29.9761C146.321 30.4461 145.087 31.4448 144.617 32.2086L143.794 33.501C142.854 30.7986 142.208 29.3299 141.738 28.5074C141.268 27.685 140.211 26.6863 139.388 26.3338C138.566 25.9225 137.861 25.335 137.861 24.9826C137.861 24.6888 138.625 23.9251 139.623 23.3964C140.563 22.8089 141.797 21.3989 142.326 20.2827C142.972 18.9315 143.148 17.4628 142.913 15.8766C142.737 14.5842 142.091 12.8805 141.503 12.058C140.916 11.2355 139.506 10.1193 138.39 9.53185C136.921 8.76813 135.687 8.53314 133.749 8.82688C132.28 9.00312 130.752 9.41436 130.4 9.7081C129.989 10.0606 129.401 10.1781 129.049 10.0018C128.696 9.82559 128.461 8.76813 128.461 7.65192C128.461 6.53571 128.05 4.89077 127.521 4.00955C126.992 3.06958 126.053 1.95337 125.348 1.42464C124.643 0.895906 122.998 0.308427 121.705 0.132183C120.413 -0.044061 118.827 -0.044061 118.18 0.132183Z" fill="black"/>
<path d="M116.124 3.1284C114.832 4.18586 114.186 5.41957 113.951 7.06451C113.755 8.63112 113.97 10.0411 114.597 11.2944C115.125 12.4693 116.359 13.5855 117.593 14.1143C118.709 14.5842 120.06 14.9955 120.53 14.9955C121 14.9955 122.351 14.5255 123.526 13.938C124.701 13.4093 126.053 12.1168 126.581 11.1769C127.11 10.0607 127.286 8.59196 127.11 7.06451C126.875 5.47832 126.229 4.18586 124.995 3.06965C123.585 1.83595 122.586 1.48346 120.53 1.48346C118.474 1.48346 117.475 1.83595 116.124 3.06965V3.1284ZM103.2 10.2369C101.907 10.8831 100.732 12.0581 100.027 13.5855C99.0873 15.5242 99.0285 16.2879 99.5573 17.9916C99.9098 19.1078 100.791 20.6353 101.555 21.3403C102.318 22.0452 103.67 22.6327 104.668 22.7502C105.667 22.809 107.018 22.809 107.782 22.809C108.487 22.7502 109.838 21.869 110.837 20.929C112.247 19.5191 112.599 18.6379 112.599 16.6404C112.658 15.0542 112.247 13.5855 111.424 12.5281C110.778 11.6469 109.486 10.5306 108.487 10.0607C107.488 9.59067 106.372 9.17944 106.02 9.17944C105.608 9.17944 104.316 9.64942 103.2 10.2369ZM130.4 11.9406C129.401 12.8806 128.461 14.2318 128.168 15.0542C127.933 15.8767 127.933 17.3454 128.109 18.2854C128.285 19.2253 129.049 20.6353 129.754 21.2815C130.517 21.9865 131.692 22.8677 132.456 23.2202C133.161 23.5727 134.336 23.8664 135.1 23.8664C135.805 23.8664 137.156 23.3964 138.155 22.809C139.153 22.2215 140.387 20.7528 140.975 19.5778C141.738 17.8741 141.856 16.9929 141.386 15.4655C141.092 14.4668 140.093 12.8218 139.212 11.9406C137.861 10.5894 137.038 10.2956 134.865 10.3544C132.691 10.3544 131.751 10.7069 130.4 11.9993V11.9406ZM60.0199 18.1091C58.4925 19.5778 57.9637 20.6353 57.8462 22.4565C57.7287 23.7489 58.0225 25.4526 58.4337 26.2163C58.845 26.9801 59.9612 28.0963 60.9011 28.625C61.8999 29.2125 63.6035 29.6825 64.7198 29.6825C66.1297 29.6825 67.3634 29.1537 68.5971 28.0375C69.5371 27.1563 70.6533 25.5114 71.0058 24.3952C71.417 22.8677 71.3583 21.9277 70.7708 20.6353C70.3596 19.6953 69.3021 18.2854 68.4209 17.5216C67.3047 16.5817 66.0122 16.1704 64.426 16.1704C62.5461 16.1704 61.6649 16.5817 60.0199 18.1091ZM77.938 16.9929C77.1156 17.4629 75.9994 18.6966 75.3531 19.7541C74.5894 21.164 74.3544 22.3977 74.5894 23.8077C74.8244 24.9239 75.7056 26.6276 76.5868 27.5088C77.5268 28.39 79.1717 29.2712 80.288 29.4475C81.4629 29.6237 83.0491 29.4475 84.0478 28.9775C84.9878 28.5663 86.2215 27.5088 86.809 26.6276C87.4552 25.6876 87.9252 23.9252 87.9252 22.6327C87.9252 20.7528 87.5139 19.8716 85.869 18.2266C84.2241 16.5817 83.3428 16.1704 81.6392 16.1704C80.4055 16.2292 78.7605 16.5817 77.938 16.9929ZM155.485 17.7566C154.487 18.6966 153.429 20.2828 153.077 21.2815C152.724 22.6915 152.783 23.7489 153.37 25.1001C153.782 26.1576 154.663 27.5088 155.25 28.0963C155.897 28.625 157.424 29.2712 158.716 29.5062C160.479 29.7412 161.536 29.565 163.005 28.7425C164.063 28.155 165.296 26.7451 165.766 25.7464C166.236 24.6889 166.647 23.3964 166.647 22.9265C166.647 22.4565 166.177 21.1053 165.649 19.9303C165.061 18.7554 163.886 17.4042 163.005 16.9929C162.065 16.5229 160.479 16.1704 159.363 16.1704C158.011 16.1704 156.719 16.6992 155.485 17.7566ZM173.286 17.0517C172.228 17.5216 170.936 18.7554 170.466 19.6953C169.996 20.6353 169.585 22.3977 169.585 23.5139C169.585 25.1001 170.055 26.0401 171.641 27.6263C173.345 29.33 174.108 29.6825 176.223 29.6825C177.575 29.6825 179.278 29.2712 180.042 28.8012C180.747 28.3313 181.746 27.0976 182.216 26.1576C182.686 25.2176 183.097 23.5727 183.097 22.6327C183.097 21.4578 182.47 20.1849 181.217 18.8141C179.924 17.4041 178.573 16.6404 177.222 16.4642C176.047 16.2879 174.343 16.5229 173.227 17.0517H173.286ZM117.945 18.8141C116.829 19.2841 115.419 20.459 114.89 21.4578C114.303 22.3977 113.833 24.0427 113.833 24.9826C113.833 25.9226 114.186 27.45 114.655 28.3313C115.067 29.2712 116.418 30.4462 117.593 30.9749C119.12 31.7386 120.295 31.9149 121.881 31.5624C123.174 31.3274 124.643 30.3874 125.7 29.2125C126.875 27.8613 127.345 26.6863 127.345 25.1001C127.404 23.6902 126.934 22.339 126.053 21.2228C125.289 20.2828 123.82 19.1666 122.821 18.6966C121.764 18.2854 120.707 17.9329 120.472 17.9916C120.178 17.9916 119.062 18.4029 117.945 18.8141ZM102.847 27.0976C101.496 27.685 100.556 28.6838 99.7335 30.5637C98.5586 33.2073 98.5586 33.2073 99.6748 35.6748C100.497 37.4372 101.496 38.5534 103.082 39.3171C105.08 40.3158 105.55 40.3746 107.664 39.6109C109.133 39.0821 110.484 38.0247 111.307 36.7322C112.071 35.616 112.658 34.0298 112.658 33.2073C112.658 32.3849 112.306 31.0924 111.894 30.2699C111.542 29.5062 110.249 28.2138 109.133 27.5088C108.017 26.7451 106.548 26.1576 105.902 26.2163C105.256 26.2163 103.846 26.6276 102.847 27.0976ZM130.047 28.5663C127.874 30.7399 127.698 31.2099 127.991 33.0898C128.168 34.3236 128.814 35.9685 129.46 36.8497C130.047 37.7309 131.164 38.6709 131.927 39.0234C132.632 39.3759 134.16 39.6696 135.276 39.6696C136.568 39.6696 137.92 39.1409 138.977 38.3184C139.858 37.5547 140.916 36.1447 141.327 35.2048C141.973 33.9123 141.973 32.9724 141.503 31.2687C141.092 29.9762 140.093 28.5075 138.977 27.6263C137.685 26.6863 136.275 26.1576 134.747 26.1576C132.867 26.1576 132.104 26.5688 130.047 28.5663ZM69.8308 31.0337C69.0084 31.4449 67.7746 32.6786 67.0109 33.7948C66.2472 34.911 65.601 36.4972 65.601 37.3197C65.601 38.1422 66.2472 39.7284 67.0109 40.8446C67.7746 42.0783 69.1846 43.1945 70.3596 43.6057C71.7695 44.0757 73.1207 44.1345 74.6482 43.7232C76.0581 43.3707 77.2331 42.5483 77.9968 41.4321C78.7018 40.3746 79.1717 38.6709 79.1717 37.3197C79.1717 36.0272 78.7018 34.2648 78.173 33.4423C77.5855 32.5611 76.4106 31.5037 75.5294 31.0924C74.5894 30.6224 73.2969 30.2699 72.592 30.2699C71.8283 30.2699 70.5945 30.6224 69.8308 31.0337ZM52.7352 31.6799C51.9127 32.0911 50.7965 33.5011 50.1503 34.7348C49.4453 36.2035 49.2103 37.6722 49.4453 38.7884C49.6215 39.7871 50.5615 41.3146 51.5602 42.3133C53.0877 43.782 53.9101 44.0757 56.26 44.0757C58.2575 44.0757 59.4324 43.7232 60.3724 42.9008C61.1361 42.2545 62.0761 40.8446 62.4873 39.7871C63.0748 38.4359 63.1336 37.3784 62.7811 35.9685C62.4286 34.9698 61.3711 33.3836 60.4312 32.4436C59.0799 31.3274 58.0225 30.8574 56.4363 30.8574C55.2026 30.9162 53.5576 31.2687 52.7352 31.6799ZM86.104 31.7386C85.164 32.2086 84.0478 33.3836 83.5778 34.3823C83.1079 35.381 82.6966 37.026 82.6966 38.0247C82.6966 39.2584 83.2841 40.6683 84.2828 41.9608C85.634 43.547 86.4565 43.9582 88.9239 44.3107C91.8613 44.6632 92.0375 44.6044 94.0937 42.4308C95.7974 40.6683 96.2086 39.7871 96.2086 37.9072C96.2086 36.6147 95.7387 34.8523 95.2099 34.0298C94.6224 33.1486 93.4475 32.0911 92.5663 31.6799C91.6263 31.2099 90.2164 30.8574 89.3351 30.8574C88.3952 30.9162 86.9852 31.2687 86.104 31.7386ZM147.026 32.1499C146.086 32.9136 145.028 34.3823 144.558 35.381C143.971 36.9672 143.912 37.7309 144.558 39.4934C144.911 40.6683 146.027 42.1958 146.908 42.842C148.005 43.6645 149.454 44.0757 151.255 44.0757C153.547 44.0757 154.134 43.782 155.897 41.8433C157.248 40.3746 157.894 39.0821 157.894 37.9072C157.894 36.9085 157.483 35.381 157.013 34.3823C156.543 33.3836 155.544 32.2086 154.839 31.7386C154.075 31.2687 152.43 30.8574 151.079 30.8574C149.473 30.8574 148.122 31.2882 147.026 32.1499ZM163.828 32.3261C162.829 33.1486 161.771 34.676 161.478 35.6748C161.184 36.7322 161.125 38.2597 161.301 39.0821C161.536 39.9046 161.948 40.9621 162.3 41.4908C162.653 41.9608 163.534 42.842 164.356 43.3707C165.179 43.9582 166.706 44.3695 167.764 44.3695C168.762 44.3695 170.349 44.017 171.289 43.547C172.17 43.1357 173.345 41.7845 173.932 40.6096C174.461 39.4346 174.931 38.0834 174.931 37.6134C174.931 37.1435 174.52 35.9685 174.05 34.9698C173.58 33.9711 172.463 32.6786 171.582 32.0324C170.584 31.3274 169.056 30.7987 167.764 30.8574C166.412 30.8574 165.003 31.3862 163.828 32.3261ZM180.982 32.0324C179.924 32.6786 178.632 34.2061 178.103 35.381C177.575 36.7322 177.34 38.2009 177.575 39.0821C177.81 39.9046 178.926 41.4908 180.042 42.607C182.039 44.5457 182.274 44.6632 185.153 44.3107C187.503 43.9582 188.443 43.547 189.442 42.2545C190.205 41.3146 190.969 39.7871 191.145 38.7884C191.38 37.7897 191.204 36.321 190.734 35.2635C190.264 34.3236 188.972 32.9136 187.855 32.2086C186.739 31.4449 185.153 30.8574 184.331 30.8574C183.508 30.8574 181.981 31.3862 180.982 32.0324ZM119.355 34.7935C118.709 34.911 117.652 35.3223 116.888 35.7335C116.124 36.1447 115.008 37.4959 114.421 38.7884C113.481 40.6683 113.363 41.5495 113.833 43.312C114.186 44.6044 115.125 46.0731 116.065 46.7781C116.947 47.4243 118.18 48.1293 118.827 48.3056C119.473 48.4818 120.707 48.4231 121.647 48.2468C122.528 48.0706 124.055 47.2481 124.995 46.4256C126.17 45.4269 126.875 44.1932 127.11 42.7245C127.286 41.5495 127.169 39.9046 126.816 39.0821C126.464 38.2597 125.759 37.1435 125.171 36.6147C124.584 36.0272 123.291 35.381 122.293 35.0873C121.294 34.8523 119.943 34.7348 119.355 34.7935ZM62.1348 45.0157C61.0774 45.3094 59.6674 46.1319 59.08 46.8369C58.4925 47.6006 57.8462 49.128 57.67 50.2442C57.435 51.5954 57.6113 53.0054 58.1987 54.3566C58.7862 55.6491 59.9024 56.824 61.1949 57.4115C62.3698 57.999 63.8973 58.469 64.661 58.469C65.366 58.469 66.7759 57.9402 67.7159 57.294C68.7146 56.6478 69.7721 55.5316 70.1833 54.7678C70.5945 54.0629 70.8883 52.4767 70.947 51.243C70.947 49.6568 70.477 48.5993 69.3608 47.3068C68.4209 46.3081 66.8934 45.3094 65.8947 45.0157C64.896 44.7807 63.1923 44.7807 62.1348 45.0157ZM78.2905 45.7207C77.3506 46.1906 76.0581 47.2481 75.5294 48.0706C74.9419 48.9518 74.2957 50.2442 74.1194 50.9492C73.9432 51.7717 74.2369 53.2991 74.9419 54.6503C75.7056 56.2365 76.8218 57.3527 78.3493 58.1165C80.288 58.9977 80.9929 59.1152 82.8729 58.5277C84.0478 58.1752 85.5753 57.1765 86.2802 56.2365C86.9265 55.3553 87.6314 54.0041 87.8077 53.1816C87.9839 52.3592 87.9252 51.1255 87.7489 50.3617C87.5727 49.6568 86.6915 48.3056 85.8103 47.3068C84.8115 46.3081 83.3428 45.4857 82.1091 45.2507C80.9929 45.0744 79.2892 45.3094 78.2905 45.7207ZM157.483 45.3682C156.719 45.4857 155.485 46.4256 154.663 47.3656C153.84 48.3056 153.018 49.6568 152.842 50.3617C152.665 51.1255 152.607 52.3592 152.783 53.1816C152.959 54.0041 153.664 55.3553 154.31 56.2365C155.015 57.1765 156.543 58.1752 157.776 58.5277C159.598 59.1152 160.303 59.0564 162.3 58.1165C163.945 57.3527 165.002 56.2953 165.766 54.6503C166.824 52.5354 166.824 52.0654 166.06 50.0093C165.59 48.7168 164.591 47.2481 163.769 46.6606C162.946 46.0144 161.478 45.4269 160.538 45.3094C159.598 45.1919 158.188 45.1919 157.483 45.3682ZM173.051 45.8382C172.111 46.3081 170.995 47.4831 170.525 48.4818C170.055 49.4805 169.644 51.1842 169.644 52.3004C169.644 53.8866 170.114 54.8266 171.7 56.4128C173.403 58.1165 174.167 58.469 176.282 58.469C177.633 58.469 179.337 58.0577 180.101 57.5877C180.806 57.1178 181.804 55.9428 182.274 54.9441C182.744 53.9454 183.156 52.5354 183.156 51.7129C183.156 50.8905 182.744 49.4805 182.274 48.4818C181.804 47.4831 180.571 46.3081 179.631 45.8382C178.691 45.3682 177.163 44.9569 176.282 44.9569C175.342 45.0157 173.932 45.3682 173.051 45.8382ZM34.6996 49.6568C33.9946 49.8918 32.8784 50.8905 32.1734 51.8304C31.4684 52.8292 30.9397 54.3566 30.9984 55.6491C30.9984 56.8828 31.4684 58.5865 31.9971 59.4089C32.5846 60.2901 33.7596 61.3476 34.6408 61.7588C35.5808 62.2288 36.8145 62.5813 37.4607 62.5813C38.1069 62.5813 39.5169 62.1701 40.5156 61.7001C41.5731 61.2301 42.9243 60.0552 43.453 59.0564C44.0405 58.1165 44.5105 56.6478 44.5105 55.8253C44.5105 55.0028 44.0992 53.5929 43.6292 52.5942C43.1593 51.5954 41.9256 50.4205 40.9856 49.9505C39.9869 49.4805 38.5182 49.0693 37.5782 49.128C36.697 49.128 35.4045 49.363 34.6996 49.6568ZM200.251 50.1268C199.194 50.6555 197.901 51.8304 197.49 52.7117C197.02 53.6516 196.668 55.2966 196.668 56.4128C196.668 57.8815 197.196 59.0564 198.371 60.3489C199.899 62.1113 200.428 62.2876 203.365 62.2876C206.067 62.2876 206.89 62.0526 208.123 60.8189C208.946 59.9964 209.768 58.4102 209.945 57.294C210.238 55.884 210.003 54.5328 209.24 53.0054C208.535 51.5954 207.418 50.4205 206.185 49.8918C205.186 49.4218 203.835 49.0693 203.247 49.0693C202.719 49.0693 201.367 49.5393 200.251 50.1268ZM116.947 52.2417C116.3 52.6529 115.302 53.6516 114.773 54.4153C114.303 55.1791 113.892 56.7065 113.833 57.7052C113.833 59.1739 114.362 60.1726 115.889 61.7001C117.475 63.2863 118.415 63.7563 120.002 63.7563C121.47 63.7563 122.645 63.2275 123.996 62.0526C125.583 60.5839 125.876 59.9377 125.876 57.5877C125.876 55.2378 125.583 54.5916 123.996 53.1229C122.645 51.9479 121.47 51.4192 120.178 51.4192C119.12 51.478 117.652 51.8304 116.947 52.2417ZM21.4813 57.9402C20.3651 58.1752 18.8964 59.1739 17.8976 60.3489C16.8989 61.5826 16.3114 62.9925 16.3114 64.1675C16.3114 65.225 16.8989 66.9287 17.6039 67.9861C18.3676 68.9848 19.8363 70.2185 20.835 70.6298C21.8925 71.041 23.4787 71.2173 24.3599 71.041C25.2999 70.8648 26.5336 70.2773 27.2386 69.7486C27.8848 69.2198 28.766 68.1624 29.1185 67.3986C29.5297 66.6937 29.8235 65.1662 29.8235 64.05C29.8235 62.7576 29.2947 61.4064 28.4723 60.3489C27.7085 59.4677 26.2986 58.469 25.2411 58.1165C24.2424 57.764 22.5975 57.7052 21.4813 57.9402ZM185.682 57.8227C184.977 58.1165 184.037 58.8214 183.567 59.4089C183.038 60.0552 182.333 61.2889 181.981 62.2876C181.569 63.5213 181.511 64.5787 181.922 65.8124C182.274 66.8112 183.156 68.1624 183.861 68.9261C184.683 69.7486 186.269 70.3948 187.855 70.6298C190.264 70.9823 190.675 70.806 192.79 68.9848C194.788 67.2224 195.081 66.6937 195.14 64.1675C195.199 61.5826 194.964 61.1126 193.025 59.2914C191.38 57.8227 190.264 57.294 188.913 57.3527C187.855 57.3527 186.387 57.5877 185.682 57.8227ZM47.7416 59.7027C45.9204 61.2889 45.6267 61.8763 45.6267 64.285C45.6267 66.1062 46.0379 67.5161 46.8604 68.5736C47.5066 69.5136 49.0341 70.5123 50.2678 70.8648C51.4427 71.2173 53.0877 71.3348 53.9101 71.1585C54.7326 70.9823 56.0838 70.101 56.965 69.2198C57.8462 68.2799 58.7275 66.9287 58.9037 66.1062C59.1387 65.2837 59.0212 63.6388 58.6687 62.4051C58.2575 61.1126 57.3175 59.7614 56.26 59.0564C55.2613 58.3515 53.4989 57.8815 52.1477 57.8815C50.3853 57.8815 49.3278 58.3515 47.7416 59.7027ZM213.646 58.9389C212.882 59.5852 211.883 60.8189 211.472 61.7588C210.943 62.7576 210.826 64.3437 211.002 65.6362C211.237 67.0462 211.942 68.3974 213 69.2198C213.881 69.9836 215.408 70.806 216.348 71.041C217.523 71.3152 218.855 71.1585 220.343 70.571C221.636 69.9836 222.869 68.9261 223.398 67.8686C223.868 66.8699 224.279 65.1662 224.279 64.05C224.279 62.4638 223.809 61.5238 222.223 59.9377C220.519 58.234 219.756 57.8815 217.641 57.8815C216.054 57.8815 214.527 58.2927 213.646 58.9389ZM103.258 59.8789C102.436 60.2901 101.437 61.5826 100.967 62.6401C100.38 64.1088 100.262 65.225 100.673 66.6349C100.967 67.7511 101.966 69.2198 102.847 69.8661C103.905 70.6298 105.432 71.0998 106.901 71.0998C108.781 71.0998 109.544 70.7473 110.954 69.1611C112.247 67.7511 112.658 66.6937 112.658 64.9312C112.658 63.11 112.247 62.1701 110.896 60.8189C109.544 59.4677 108.604 59.0564 106.96 59.0564C105.726 59.1152 104.081 59.4677 103.258 59.8789ZM130.87 59.9377C129.871 60.3489 128.52 61.4651 127.874 62.3463C127.228 63.2863 126.699 64.6375 126.758 65.3425C126.758 66.1062 127.169 67.4574 127.639 68.4561C128.109 69.4548 129.401 70.6298 130.459 71.1585C131.634 71.746 132.985 71.981 134.101 71.746C135.1 71.511 136.568 70.6298 137.508 69.7486C138.742 68.5149 139.095 67.6336 139.095 65.6362C139.095 63.9325 138.683 62.6988 137.802 61.7001C137.038 60.8776 135.629 59.9964 134.571 59.7027C133.357 59.3502 132.123 59.4285 130.87 59.9377ZM34.5233 66.5174C33.2309 67.1636 32.0559 68.4561 31.3509 69.9248C30.2935 72.0397 30.2935 72.5097 31.0572 74.5659C31.5272 75.8583 32.6434 77.4445 33.5246 78.0908C34.5233 78.8545 36.1095 79.3245 37.4607 79.3245C38.8119 79.3245 40.3981 78.8545 41.3968 78.0908C42.278 77.4445 43.3943 75.8583 43.8642 74.5659C44.628 72.5097 44.5692 72.0397 43.5705 69.9836C42.983 68.6911 41.9256 67.3399 41.2793 66.9287C40.6331 66.5174 39.3406 65.9887 38.3419 65.8124C37.2257 65.5775 35.8158 65.8712 34.5233 66.5174ZM199.781 66.6937C199.135 66.9874 197.96 68.1036 197.314 69.1611C196.609 70.2185 196.08 71.6872 196.08 72.3922C196.08 73.1559 196.491 74.6246 196.961 75.6234C197.431 76.6808 198.665 78.0908 199.723 78.6782C201.191 79.5007 202.249 79.677 204.011 79.442C205.304 79.207 206.949 78.4433 207.712 77.7383C208.476 76.9746 209.298 75.6234 209.533 74.6246C209.768 73.6259 209.768 72.0985 209.533 71.0998C209.24 70.101 208.241 68.6323 207.242 67.6924C205.95 66.5174 204.892 66.1062 203.306 66.1649C202.072 66.1649 200.486 66.3999 199.781 66.6937ZM116.947 67.8686C115.889 68.5149 114.773 69.5723 114.421 70.2185C114.127 70.8648 113.833 72.3335 113.833 73.4497C113.833 74.8009 114.362 76.1521 115.302 77.2683C116.535 78.7957 117.182 79.0307 119.59 79.0307C121.118 79.0307 122.763 78.6782 123.233 78.267C123.761 77.8558 124.643 76.9158 125.171 76.0933C125.7 75.2709 126.17 74.0372 126.17 73.2734C126.17 72.5685 125.759 71.2173 125.289 70.2185C124.819 69.2198 123.644 68.0449 122.645 67.5749C121.705 67.1049 120.413 66.6937 119.884 66.6937C119.297 66.6937 117.945 67.2224 116.947 67.8686ZM19.7188 75.4471C18.7789 76.1521 17.6627 77.4445 17.1927 78.4433C16.7227 79.442 16.3114 80.7344 16.3114 81.3807C16.3114 82.0269 16.6639 83.1431 17.0752 83.8481C17.4277 84.553 18.0739 85.4343 18.3676 85.7867C18.7201 86.198 19.5426 86.7855 20.3063 87.138C21.0113 87.5492 22.5387 87.8429 23.6549 87.8429C25.0649 87.8429 26.2986 87.3142 27.5323 86.198C28.4723 85.3168 29.5297 83.7306 29.8822 82.6731C30.2347 81.3219 30.176 80.2644 29.5885 78.8545C29.1772 77.8558 28.296 76.5046 27.7085 75.9171C27.0623 75.3296 25.4174 74.7421 23.9487 74.5659C21.8338 74.2721 21.0113 74.4484 19.7188 75.4471ZM48.4466 75.3884C47.5654 75.9171 46.4491 77.327 45.9204 78.4433C45.3329 79.7357 45.0979 81.2044 45.3329 82.3794C45.5679 83.5543 46.5079 85.023 47.7416 86.0805C49.269 87.3729 50.3853 87.8429 52.1477 87.8429C53.9101 87.8429 54.9676 87.4317 56.3188 86.198C57.2588 85.3168 58.3162 83.7306 58.6687 82.6731C59.0212 81.3219 58.9625 80.2644 58.4337 78.8545C57.9637 77.8558 56.8475 76.3871 55.9076 75.6234C54.8501 74.8009 53.4401 74.3309 52.1477 74.3309C51.0315 74.3309 49.3865 74.8009 48.4466 75.3884ZM103.552 75.1534C102.612 75.5646 101.496 76.5633 101.085 77.327C100.732 78.0908 100.262 79.207 100.086 79.7357C99.9098 80.3232 100.086 81.6744 100.497 82.6731C100.908 83.7306 101.907 85.0818 102.73 85.6693C103.493 86.198 105.138 86.668 106.372 86.668C107.841 86.668 109.133 86.198 110.308 85.1993C111.366 84.318 112.129 83.0256 112.306 82.0269C112.364 81.0869 112.129 79.3832 111.718 78.2083C111.189 76.9158 110.191 75.7408 109.133 75.2121C108.193 74.7421 106.901 74.3309 106.372 74.3309C105.785 74.3896 104.551 74.7421 103.552 75.1534ZM129.636 75.3884C128.873 76.0346 127.874 77.2683 127.463 78.2083C126.934 79.2657 126.816 80.5582 127.051 81.6744C127.286 82.6731 128.226 84.1418 129.166 85.023C130.224 86.0805 131.516 86.668 132.632 86.668C133.631 86.668 134.982 86.3742 135.746 86.0217C136.451 85.6692 137.508 84.788 138.037 84.0831C138.625 83.3781 139.095 81.8506 139.095 80.3232C139.095 78.3258 138.742 77.5033 137.332 76.0933C135.981 74.7421 135.041 74.3309 133.337 74.3309C132.045 74.3309 130.459 74.8009 129.636 75.3884ZM184.037 76.3283C182.509 77.9145 182.098 78.8545 182.039 80.9107C181.981 82.2619 182.392 84.0243 182.862 84.7293C183.332 85.493 184.566 86.4917 185.506 86.9617C186.504 87.4317 188.09 87.8429 189.089 87.8429C190.44 87.8429 191.557 87.2554 193.202 85.6105C194.846 84.0243 195.434 82.9668 195.493 81.4981C195.493 80.4994 195.14 78.9132 194.67 77.9733C194.259 77.0921 193.202 75.9171 192.32 75.3296C191.498 74.8009 189.735 74.3309 188.384 74.3309C186.445 74.3309 185.623 74.6834 184.037 76.3283ZM214.351 75.0946C213.528 75.5059 212.295 76.7396 211.531 77.8558C210.767 78.972 210.18 80.4994 210.18 81.2044C210.18 81.9681 210.591 83.3193 211.061 84.318C211.531 85.3168 212.765 86.4917 213.705 86.9617C214.703 87.4317 216.466 87.8429 217.758 87.8429C219.344 87.8429 220.402 87.4317 221.401 86.4917C222.164 85.728 223.163 84.2005 223.633 83.0843C224.338 81.3806 224.338 80.7932 223.574 79.0307C223.163 77.9145 221.871 76.3871 220.754 75.6234C219.638 74.9184 218.052 74.3309 217.229 74.3309C216.407 74.3309 215.114 74.6834 214.351 75.0946ZM76.5281 75.7996C75.5881 76.2696 74.2957 77.4445 73.7669 78.4433C73.1795 79.3832 72.7095 80.8519 72.7095 81.6744C72.7095 82.4969 73.5319 84.0243 74.6482 85.1993C75.6469 86.3155 77.2918 87.3729 78.2905 87.5492C79.4655 87.7842 80.6992 87.4904 81.9916 86.668C82.9904 86.0217 84.2828 84.553 84.7528 83.4368C85.2228 82.3206 85.5165 80.7932 85.3403 80.0294C85.164 79.3245 84.2828 78.032 83.4016 77.1508C82.5204 76.2696 81.0517 75.3884 80.053 75.2121C79.0542 75.0359 77.5268 75.2709 76.5281 75.7996ZM158.07 75.7996C157.013 76.2696 155.72 77.4445 155.25 78.4433C154.78 79.442 154.369 80.7344 154.369 81.3807C154.369 82.0269 154.839 83.3781 155.427 84.318C155.955 85.3168 157.365 86.4917 158.481 87.0205C159.774 87.6079 161.066 87.7842 162.006 87.5492C162.829 87.3142 164.18 86.3742 165.12 85.4343C166.236 84.2005 166.706 83.1431 166.706 81.4981C166.706 80.3232 166.295 78.737 165.825 77.9733C165.355 77.2683 164.18 76.2696 163.181 75.7996C162.241 75.3296 161.066 74.9184 160.714 74.9184C160.303 74.9771 159.069 75.3296 158.07 75.7996ZM116.888 83.0256C115.654 83.6718 114.656 84.8468 114.127 86.198C113.363 88.0779 113.363 88.7241 114.009 90.3103C114.421 91.3678 115.419 92.719 116.242 93.3065C117.005 93.8352 118.65 94.3052 119.884 94.3052C121.353 94.3052 122.645 93.8352 123.82 92.8365C124.878 91.9553 125.641 90.6628 125.818 89.6641C125.876 88.7241 125.641 87.0205 125.23 85.8455C124.643 84.3768 123.82 83.4956 122.351 82.8493C121.235 82.3794 119.943 81.9681 119.59 81.9681C119.179 81.9681 117.945 82.4381 116.888 83.0256ZM33.2309 83.9068C32.3496 84.6118 31.3509 85.963 30.9984 86.9617C30.6459 88.0192 30.5872 89.5466 30.8222 90.7216C31.0572 91.8378 31.9971 93.3652 32.9371 94.129C33.8183 94.8339 35.1108 95.6564 35.8745 95.8326C36.5795 96.0089 37.8132 96.0676 38.6357 95.8914C39.4581 95.7151 40.8093 95.0102 41.7493 94.3639C42.6305 93.659 43.5705 92.1903 43.923 90.8978C44.393 89.1354 44.2755 88.2542 43.3355 86.3742C42.748 85.0818 41.5731 83.6718 40.7506 83.2606C39.9281 82.9081 38.2244 82.5556 37.0495 82.5556C35.5808 82.5556 34.2296 83.0256 33.2309 83.9068ZM62.4286 83.8481C61.4886 84.6118 60.4312 85.963 60.0199 86.9617C59.5499 88.1367 59.4912 89.3116 59.8437 90.4866C60.1374 91.4853 61.0774 92.8365 61.9586 93.5415C63.0161 94.4227 64.426 94.8927 65.836 94.8927C67.3047 94.8927 68.5971 94.4227 69.7721 93.424C70.8295 92.5428 71.652 91.1916 71.887 90.0166C72.0632 89.0179 71.9457 87.4317 71.5933 86.4917C71.2408 85.6105 70.0658 84.3768 69.0671 83.7306C68.0096 83.0843 66.4234 82.5556 65.601 82.5556C64.7785 82.5556 63.3098 83.1431 62.4286 83.8481ZM144.264 83.4368C143.324 83.9068 142.385 84.8468 142.032 85.493C141.738 86.1392 141.445 87.7254 141.445 89.0179C141.445 90.8391 141.856 91.779 143.207 93.1302C144.617 94.5402 145.498 94.8927 147.378 94.8927C149.199 94.8927 150.139 94.4814 151.432 93.2477C152.313 92.3665 153.253 90.8978 153.488 89.8991C153.723 88.7829 153.605 87.4904 153.077 86.433C152.665 85.4343 151.549 84.2006 150.55 83.6131C149.611 83.0256 148.142 82.5556 147.319 82.5556C146.497 82.6144 145.146 82.9668 144.264 83.4368ZM198.9 84.2593C197.843 85.1405 196.785 86.7267 196.55 87.7842C196.256 88.9591 196.374 90.3103 196.961 91.6615C197.431 92.7778 198.724 94.2464 199.781 94.8927C200.78 95.5389 202.542 96.0676 203.6 96.0676C204.892 96.0676 206.126 95.4802 207.595 94.129C209.298 92.6015 209.71 91.779 209.827 89.8404C209.827 88.4891 209.475 86.7267 209.005 85.7867C208.535 84.9055 207.419 83.7893 206.537 83.3781C205.597 82.9081 203.952 82.5556 202.836 82.5556C201.485 82.5556 200.193 83.0843 198.9 84.2593ZM89.9226 83.6718C89.2176 83.9656 88.1014 84.9643 87.3965 85.9042C86.6915 86.8442 86.2215 88.3717 86.2215 89.6054C86.2215 90.7216 86.574 92.0728 86.9852 92.5428C87.3965 93.0715 88.3364 93.9527 89.1589 94.4814C89.9814 95.0102 91.5088 95.4802 92.5663 95.4802C94.0937 95.4802 95.0924 94.9514 96.6786 93.3652C98.6761 91.3678 98.8523 91.0741 98.4411 88.7829C98.2061 87.4904 97.3836 85.7867 96.6786 85.023C95.9149 84.318 94.3875 83.6131 93.2713 83.4368C92.155 83.2606 90.6276 83.3781 89.9226 83.6718ZM170.584 84.4355C169.644 85.1405 168.527 86.668 168.057 87.7254C167.411 89.3116 167.411 89.8991 168.175 91.6615C168.645 92.8365 169.82 94.129 170.819 94.5989C171.759 95.0689 173.403 95.4802 174.343 95.4802C175.46 95.4802 176.811 94.8339 178.045 93.7765C179.631 92.3078 179.924 91.6615 179.924 89.3704C179.924 87.3142 179.572 86.3742 178.456 85.1993C177.575 84.2593 176.047 83.5543 174.637 83.3781C172.757 83.0843 171.935 83.3193 170.584 84.4355ZM74.7657 92.7777C73.4145 94.1877 72.827 95.3627 72.7682 96.7726C72.7682 98.0063 73.297 99.4163 74.1782 100.65C75.2356 101.942 76.2931 102.647 77.8793 102.882C79.1717 103.117 80.6992 102.941 81.6979 102.412C82.6379 102.001 83.8128 101.002 84.3416 100.18C84.8115 99.3575 85.2228 97.8301 85.164 96.8314C85.1053 95.7739 84.694 94.3052 84.2241 93.6002C83.7541 92.8365 82.6966 91.8965 81.8741 91.544C81.0517 91.1328 79.5242 90.7803 78.5255 90.7803C77.2331 90.7803 76.1756 91.3678 74.7657 92.7777ZM156.602 92.484C154.957 93.9527 154.663 94.5989 154.663 96.8901C154.663 98.9463 155.015 99.8863 156.132 101.061C157.013 101.942 158.599 102.765 160.009 103C162.3 103.411 162.594 103.294 164.591 101.237C166.236 99.475 166.706 98.5351 166.706 96.8314C166.706 95.5977 166.236 94.0115 165.649 93.3652C165.12 92.6603 164.063 91.779 163.358 91.4266C162.594 91.0741 161.243 90.7803 160.244 90.7803C159.128 90.7803 157.776 91.4265 156.602 92.484ZM90.5101 98.2413C89.7464 98.3588 88.5127 99.2988 87.6902 100.239C86.6327 101.414 86.2215 102.647 86.2215 104.292C86.2215 106.114 86.6327 107.053 87.9839 108.405C89.3351 109.756 90.2751 110.167 92.0963 110.167C93.3887 110.167 94.9749 109.932 95.6212 109.58C96.2674 109.227 97.2074 108.228 97.6773 107.23C98.1473 106.231 98.5586 104.939 98.5586 104.292C98.5586 103.646 98.1473 102.354 97.6773 101.355C97.2074 100.356 95.9149 99.1813 94.74 98.7113C93.6237 98.2413 92.5075 97.8888 92.2725 97.8888C91.9788 97.9476 91.2151 98.1238 90.5101 98.2413ZM172.287 98.2413C171.641 98.4176 170.525 99.1225 169.761 99.7688C169.056 100.474 168.234 101.707 167.94 102.53C167.705 103.352 167.705 104.88 167.999 105.937C168.234 106.936 169.174 108.346 170.114 108.992C171.112 109.756 172.581 110.167 174.05 110.167C175.342 110.167 176.811 109.815 177.281 109.403C177.81 108.992 178.691 108.052 179.219 107.23C179.748 106.407 180.218 105.174 180.218 104.469C180.218 103.705 179.866 102.412 179.396 101.531C178.985 100.591 177.633 99.4163 176.458 98.8875C175.283 98.3001 174.167 97.8888 173.932 97.8888C173.638 97.9476 172.933 98.0651 172.287 98.2413ZM13.6678 99.5338C12.6691 100.18 11.4354 101.296 10.8479 102.06C10.3192 102.765 9.84917 104.41 9.84917 105.644C9.84917 107.112 10.3192 108.405 11.3179 109.58C12.1403 110.578 13.6678 111.577 14.7253 111.812C15.724 112.106 17.4277 112.106 18.3676 111.871C19.3663 111.577 20.835 110.578 21.775 109.58C22.8325 108.405 23.3612 107.191 23.3612 105.937C23.3612 104.88 23.0087 103.352 22.5975 102.53C22.245 101.766 20.9525 100.474 19.8363 99.7688C18.7201 99.005 17.2514 98.4176 16.6052 98.4176C15.959 98.4176 14.6078 98.9463 13.6678 99.5338ZM60.9599 100.474C59.7849 101.766 59.08 103.117 59.1387 103.999C59.1387 104.821 59.6087 106.231 60.0787 107.23C60.5486 108.228 61.8411 109.403 62.8986 109.932C64.0735 110.52 65.4835 110.755 66.7172 110.52C67.7746 110.343 69.2433 109.403 70.0658 108.405C71.1233 107.171 71.5345 105.937 71.5345 104.292C71.5345 102.471 71.1233 101.531 69.7721 100.18C68.3621 98.77 67.5397 98.4176 65.4247 98.4176C63.1923 98.4176 62.5461 98.7113 60.9599 100.474ZM115.713 100.532C113.657 102.53 113.539 102.824 113.951 105.409C114.244 107.406 114.773 108.463 116.007 109.403C117.064 110.285 118.474 110.755 119.884 110.755C121.353 110.755 122.645 110.285 123.82 109.286C124.878 108.405 125.7 107.054 125.935 105.937C126.111 104.88 125.994 103.294 125.641 102.412C125.289 101.472 124.114 100.239 123.115 99.5925C122.058 98.9463 120.413 98.4176 119.532 98.4176C118.357 98.4176 117.123 99.1225 115.713 100.532ZM142.972 100.062C142.091 100.944 141.268 102.177 141.033 102.824C140.857 103.47 140.916 104.88 141.092 105.937C141.268 106.995 142.091 108.346 143.089 109.051C143.971 109.697 145.322 110.402 146.144 110.578C146.967 110.755 148.377 110.52 149.317 110.05C150.257 109.638 151.549 108.64 152.137 107.817C152.724 106.995 153.253 105.644 153.194 104.762C153.194 103.822 152.9 102.53 152.548 101.825C152.195 101.061 151.314 100.004 150.609 99.475C149.904 98.8875 148.377 98.4176 146.967 98.4176C145.087 98.4176 144.206 98.77 142.972 100.062ZM204.305 99.2988C203.482 99.7688 202.366 100.826 201.779 101.649C201.25 102.471 200.78 104.057 200.78 105.174C200.78 106.29 201.132 107.935 201.544 108.757C201.896 109.58 203.306 110.755 204.599 111.401C206.655 112.4 207.242 112.458 209.298 111.812C210.826 111.283 212.06 110.343 212.941 108.992C213.705 107.876 214.292 106.29 214.292 105.467C214.292 104.645 213.763 103.117 213.117 102.119C212.471 101.061 211.002 99.7688 209.886 99.2988C208.77 98.8288 207.36 98.4176 206.831 98.4176C206.244 98.4763 205.127 98.8288 204.305 99.2988ZM29.941 100.18C28.9423 100.826 27.7673 102.06 27.4148 103C27.0623 103.881 26.9448 105.644 27.1211 106.936C27.2973 108.581 27.9435 109.756 29.1772 110.931C30.411 111.988 31.6447 112.517 33.0546 112.517C34.1708 112.517 35.9333 112.106 36.8732 111.636C37.8719 111.166 39.0469 109.991 39.5169 108.992C39.9869 107.993 40.3981 106.584 40.3981 105.761C40.3981 104.939 39.9869 103.529 39.5169 102.53C39.0469 101.531 37.8719 100.356 36.8732 99.8863C35.9333 99.4163 34.4058 99.005 33.5246 99.005C32.5846 99.005 30.9984 99.5338 29.9997 100.18H29.941ZM221.459 99.5338C220.754 99.8275 219.638 100.826 218.933 101.766C218.169 102.824 217.699 104.292 217.758 105.937C217.758 107.935 218.111 108.757 219.814 110.461C221.518 112.165 222.282 112.517 224.279 112.517C226.218 112.517 227.099 112.165 228.627 110.637C229.684 109.58 230.741 107.935 230.976 106.936C231.211 105.937 231.094 104.527 230.741 103.705C230.389 102.882 229.508 101.649 228.803 100.885C227.98 100.121 226.453 99.475 225.102 99.2988C223.809 99.1225 222.164 99.24 221.459 99.5338ZM74.4132 108.111C73.2382 109.403 72.5332 110.755 72.592 111.636C72.592 112.458 73.062 113.868 73.5319 114.867C74.0019 115.866 75.2944 117.041 76.3518 117.569C77.5268 118.157 78.9368 118.392 80.1705 118.157C81.2279 117.981 82.6966 117.041 83.5191 116.042C84.5766 114.808 84.9878 113.575 84.9878 111.93C84.9878 110.108 84.5766 109.168 83.2254 107.817C81.8154 106.407 80.9929 106.055 78.878 106.055C76.6456 106.055 75.9994 106.349 74.4132 108.111ZM102.495 107.758C100.85 109.227 100.556 109.873 100.556 112.223C100.556 114.573 100.85 115.219 102.495 116.688C103.67 117.746 105.021 118.392 106.137 118.392C107.136 118.392 108.487 118.098 109.251 117.804C109.956 117.452 111.013 116.394 111.601 115.454C112.129 114.456 112.599 113.046 112.599 112.223C112.599 111.401 112.129 109.991 111.601 108.992C111.013 108.052 109.956 106.995 109.251 106.642C108.487 106.349 107.136 106.055 106.137 106.055C105.021 106.055 103.67 106.701 102.495 107.758ZM156.425 107.7C155.544 108.581 154.722 109.815 154.487 110.461C154.31 111.107 154.369 112.517 154.545 113.575C154.722 114.632 155.544 115.983 156.543 116.688C157.424 117.334 158.775 118.039 159.598 118.216C160.42 118.392 161.83 118.157 162.77 117.687C163.71 117.276 165.003 116.277 165.59 115.454C166.236 114.632 166.706 113.046 166.647 111.812C166.647 110.108 166.177 109.11 164.885 107.817C163.475 106.407 162.653 106.055 160.538 106.055C158.54 106.055 157.659 106.407 156.425 107.7ZM129.107 108.17C127.933 109.227 127.11 110.637 126.934 111.93C126.699 113.457 126.934 114.514 127.991 116.042C128.755 117.158 130.165 118.274 131.105 118.568C132.104 118.862 133.514 118.979 134.336 118.803C135.159 118.627 136.568 117.746 137.45 116.806C138.742 115.513 139.095 114.632 139.036 112.693C139.036 110.931 138.625 109.697 137.743 108.64C136.745 107.582 135.629 107.054 133.69 106.819C131.34 106.525 130.752 106.701 129.107 108.17ZM5.38433 114.045C4.44436 114.514 3.15191 115.513 2.62318 116.218C1.97695 116.982 1.56571 118.509 1.62446 120.154C1.62446 121.623 1.9182 123.209 2.32944 123.679C2.74067 124.208 3.68064 125.089 4.50311 125.618C5.32558 126.205 7.08802 126.617 8.49797 126.617C10.3779 126.617 11.4354 126.205 12.7866 125.03C14.1378 123.797 14.6665 122.739 14.9015 120.742C15.1365 118.568 14.9602 117.804 13.7853 116.394C13.0803 115.454 11.5529 114.338 10.5541 113.868C9.49669 113.457 8.26298 113.105 7.91049 113.105C7.49926 113.105 6.38305 113.516 5.38433 114.045ZM21.8338 114.221C20.835 114.867 19.6013 115.983 19.0139 116.747C18.4851 117.452 18.0151 118.979 18.0151 120.037C18.0151 121.036 18.3676 122.622 18.8376 123.562C19.2488 124.443 20.6588 125.618 21.8925 126.264C23.4787 126.969 24.7124 127.204 25.9461 126.91C26.9448 126.675 28.5898 125.618 29.6472 124.502C31.0572 122.974 31.5272 121.975 31.5272 120.331C31.5859 118.979 31.1159 117.452 30.3522 116.512C29.706 115.572 28.4135 114.456 27.4148 113.986C26.4748 113.516 25.1824 113.105 24.6537 113.105C24.0662 113.105 22.7737 113.633 21.8338 114.221ZM38.7532 114.279C37.6957 114.926 36.3445 116.159 35.8158 117.099C35.2283 117.981 34.817 119.449 34.817 120.448C34.8758 121.447 35.4045 122.974 35.992 123.914C36.5795 124.854 37.8132 125.97 38.7532 126.382C39.6344 126.852 41.1618 127.204 42.1605 127.204C43.5117 127.204 44.628 126.617 46.2729 125.03C48.0353 123.268 48.5053 122.387 48.5641 120.624C48.5641 119.214 48.0941 117.687 47.2716 116.512C46.5079 115.513 45.0392 114.279 44.0405 113.868C42.983 113.457 41.7493 113.105 41.3968 113.105C40.9856 113.105 39.7519 113.633 38.7532 114.279ZM195.61 114.279C194.553 114.926 193.26 116.218 192.79 117.217C192.32 118.216 191.909 119.567 191.909 120.331C191.909 121.036 192.438 122.504 193.084 123.562C193.73 124.56 195.199 125.853 196.315 126.323C197.901 127.028 198.9 127.087 200.721 126.617C202.131 126.264 203.541 125.383 204.246 124.443C204.892 123.503 205.597 122.093 205.832 121.27C206.009 120.331 205.774 118.803 205.186 117.569C204.657 116.394 203.659 115.043 202.954 114.573C202.19 114.103 200.662 113.575 199.546 113.398C198.078 113.163 196.961 113.398 195.61 114.279ZM212.765 113.927C211.825 114.338 210.532 115.396 210.003 116.218C209.416 117.099 208.946 118.862 208.946 120.154C208.946 121.505 209.416 123.268 210.121 124.267C210.826 125.324 212.177 126.264 213.528 126.675C215.291 127.204 216.113 127.145 217.934 126.382C219.109 125.853 220.637 124.56 221.283 123.562C221.929 122.504 222.458 120.977 222.458 120.154C222.458 119.332 221.929 117.804 221.283 116.806C220.637 115.748 219.168 114.456 218.052 113.986C216.936 113.516 215.643 113.105 215.291 113.105C214.879 113.163 213.763 113.516 212.765 113.927ZM231.211 113.575C230.448 113.692 229.096 114.338 228.215 114.926C227.275 115.572 226.277 117.041 225.924 118.274C225.337 120.096 225.395 120.801 226.335 122.798C227.099 124.384 228.157 125.5 229.684 126.205C230.859 126.734 232.563 127.087 233.503 126.91C234.384 126.793 235.794 126.088 236.734 125.442C237.615 124.795 238.555 123.385 238.849 122.387C239.142 121.329 239.26 119.802 239.084 118.979C238.966 118.157 238.379 116.923 237.85 116.218C237.321 115.513 235.911 114.573 234.736 114.162C233.561 113.751 231.975 113.457 231.211 113.575ZM115.537 115.983C114.303 117.276 113.833 118.333 113.833 120.096C113.774 121.858 114.186 122.974 115.243 124.267C116.065 125.265 117.534 126.205 118.65 126.382C119.825 126.617 121.235 126.382 122.469 125.794C123.468 125.265 124.76 124.09 125.23 123.092C125.7 122.093 126.111 120.683 126.111 119.861C126.111 118.979 125.289 117.569 124.055 116.336C122.351 114.632 121.529 114.279 119.59 114.279C117.71 114.279 116.829 114.632 115.537 115.983ZM76.8806 121.564C75.8231 122.034 74.4132 123.15 73.7669 124.032C73.1207 124.972 72.592 126.323 72.6507 127.087C72.6507 127.792 73.062 129.143 73.5319 130.141C74.0019 131.14 75.2944 132.315 76.3518 132.844C77.4681 133.431 78.9368 133.666 79.9942 133.431C80.9929 133.255 82.4616 132.374 83.4016 131.493C84.2828 130.611 85.1053 129.26 85.2815 128.555C85.4578 127.792 85.164 126.264 84.694 125.148C84.2241 124.032 83.2254 122.739 82.5204 122.269C81.7567 121.799 80.6404 121.329 79.9942 121.153C79.348 120.918 77.938 121.153 76.8806 121.564ZM104.668 121.74C104.022 121.917 102.906 122.622 102.142 123.268C101.437 123.973 100.556 125.207 100.204 126.029C99.7335 127.145 99.7923 128.027 100.497 129.73C101.026 130.905 102.318 132.433 103.376 133.079C104.668 133.901 105.785 134.195 107.018 133.96C108.017 133.784 109.486 132.903 110.426 132.021C111.307 131.14 112.129 129.73 112.306 128.849C112.482 127.909 112.247 126.323 111.777 125.324C111.248 124.149 110.073 122.974 108.839 122.387C107.664 121.799 106.548 121.388 106.313 121.388C106.02 121.447 105.315 121.564 104.668 121.74ZM130.4 121.917C129.754 122.21 128.579 123.327 127.933 124.384C127.228 125.442 126.699 127.028 126.699 127.968C126.699 129.025 127.404 130.318 128.814 131.786C130.87 133.843 131.105 133.96 133.69 133.549C135.57 133.314 136.803 132.726 137.743 131.669C138.625 130.611 139.036 129.436 139.036 127.674C139.036 126.264 138.683 124.737 138.272 124.267C137.861 123.738 136.921 122.857 136.098 122.328C135.276 121.799 133.984 121.329 133.161 121.388C132.339 121.388 131.105 121.623 130.4 121.917ZM156.719 122.798C155.603 123.679 154.78 125.03 154.545 126.205C154.369 127.204 154.487 128.79 154.839 129.73C155.192 130.611 156.19 131.786 157.072 132.374C157.953 132.903 159.715 133.373 160.949 133.373C162.77 133.373 163.534 133.02 164.944 131.493C166.236 130.024 166.647 128.966 166.647 127.204C166.647 125.383 166.236 124.443 164.885 123.092C163.534 121.74 162.594 121.329 160.831 121.329C159.245 121.329 157.953 121.799 156.719 122.798ZM12.4341 129.554C11.2004 130.611 10.2604 132.021 10.0254 133.255C9.79043 134.43 10.0254 135.899 10.6129 137.191C11.0829 138.307 12.3753 139.776 13.4328 140.364C14.9015 141.186 15.959 141.362 17.7214 141.127C19.0139 140.892 20.5413 140.246 21.1875 139.717C21.775 139.13 22.6562 137.779 23.0675 136.78C23.6549 135.37 23.7137 134.313 23.3612 132.961C23.0087 131.904 21.9512 130.318 21.0113 129.436C19.6601 128.203 18.6026 127.792 16.8402 127.792C15.1365 127.792 14.0203 128.262 12.4341 129.554ZM29.7647 128.673C28.9423 129.143 27.826 130.2 27.2386 131.023C26.7098 131.845 26.2398 133.49 26.2398 134.724C26.2398 136.251 26.7098 137.485 27.826 138.836C29.0597 140.246 30.1172 140.892 31.8209 141.127C33.3875 141.323 34.8171 141.108 36.1095 140.481C37.1082 139.952 38.4007 138.777 38.8707 137.779C39.3406 136.78 39.7519 135.37 39.7519 134.548C39.7519 133.725 39.3406 132.315 38.8707 131.316C38.4007 130.318 37.2257 129.143 36.227 128.673C35.287 128.203 33.7596 127.792 32.8784 127.792C31.9384 127.85 30.5872 128.203 29.7647 128.673ZM204.129 128.673C203.189 129.143 202.072 130.318 201.602 131.316C201.132 132.315 200.721 133.96 200.721 135.018C200.721 136.075 201.367 137.72 202.19 138.836C203.13 140.011 204.364 140.834 205.597 141.069C206.596 141.304 208.3 141.245 209.24 141.01C210.18 140.775 211.707 139.835 212.647 138.895C213.822 137.602 214.233 136.604 214.233 134.841C214.233 133.549 213.763 131.786 213.235 130.964C212.647 130.083 211.472 129.025 210.591 128.614C209.651 128.144 208.241 127.792 207.36 127.792C206.42 127.85 205.01 128.203 204.129 128.673ZM219.521 129.436C218.522 130.318 217.406 131.963 217.053 133.079C216.642 134.489 216.642 135.605 217.112 136.604C217.464 137.426 218.404 138.719 219.286 139.541C220.461 140.716 221.401 141.01 223.692 141.01C226.159 141.01 226.805 140.716 228.45 139.071C230.154 137.426 230.389 136.78 230.33 134.371C230.271 131.963 229.978 131.375 228.098 129.73C226.453 128.262 225.454 127.792 223.692 127.792C221.988 127.792 220.872 128.262 219.521 129.436ZM63.486 129.201C62.4286 129.671 61.1949 130.67 60.6661 131.375C60.1374 132.139 59.7262 133.784 59.7262 135.018C59.7262 136.427 60.1962 137.72 61.0774 138.836C61.8411 139.717 63.3098 140.599 64.3085 140.892C65.6597 141.186 66.8347 141.01 68.3034 140.305C69.4783 139.717 70.8295 138.542 71.2408 137.661C71.7108 136.721 72.0632 135.487 72.0632 134.841C72.0632 134.195 71.652 132.903 71.182 131.904C70.712 130.905 69.4196 129.73 68.2446 129.26C67.1284 128.79 66.0122 128.379 65.7772 128.379C65.4835 128.438 64.4848 128.79 63.486 129.201ZM89.9226 129.789C88.8651 130.259 87.6314 131.258 87.1027 131.963C86.574 132.726 86.1627 134.313 86.1627 135.429C86.104 136.604 86.6327 138.19 87.3377 139.13C87.9839 140.011 89.4526 140.951 90.7451 141.304C92.39 141.715 93.3887 141.597 94.8574 141.01C95.8562 140.54 97.1486 139.365 97.6186 138.366C98.0886 137.367 98.4998 136.075 98.4998 135.429C98.4998 134.783 98.0886 133.49 97.6186 132.491C97.1486 131.493 95.8562 130.318 94.6812 129.848C93.565 129.378 92.4488 128.966 92.2138 128.966C91.92 129.025 90.9213 129.378 89.9226 129.789ZM117.299 130.024C116.007 130.611 114.832 131.845 114.244 133.255C113.304 135.253 113.246 135.605 114.068 137.485C114.538 138.601 115.83 140.07 116.888 140.716C118.122 141.539 119.355 141.832 120.413 141.597C121.294 141.421 122.704 140.834 123.526 140.305C124.349 139.717 125.289 138.307 125.641 137.191C126.111 135.605 126.053 134.665 125.348 133.079C124.76 131.786 123.644 130.611 122.351 130.024C121.177 129.436 120.06 128.966 119.825 128.966C119.532 128.966 118.415 129.436 117.299 130.024ZM143.148 130.67C141.915 131.963 141.445 133.02 141.445 134.783C141.386 136.604 141.797 137.602 143.031 139.012C144.264 140.422 145.146 140.775 146.967 140.834C148.259 140.834 149.904 140.481 150.668 140.07C151.373 139.6 152.372 138.307 152.9 137.191C153.488 135.957 153.664 134.548 153.429 133.666C153.253 132.844 152.372 131.493 151.49 130.553C150.257 129.26 149.376 128.966 147.378 128.966C145.322 128.966 144.499 129.319 143.148 130.67ZM172.111 129.378C171.406 129.495 170.29 130.2 169.644 130.905C168.997 131.61 168.175 132.961 167.881 133.96C167.529 135.194 167.587 136.31 168.175 137.661C168.645 138.66 169.702 140.011 170.642 140.54C171.524 141.127 172.933 141.539 173.756 141.597C174.578 141.597 175.93 141.245 176.693 140.834C177.457 140.422 178.573 139.306 179.161 138.366C179.689 137.367 180.159 136.075 180.159 135.429C180.159 134.783 179.748 133.49 179.278 132.491C178.808 131.493 177.516 130.318 176.341 129.848C175.225 129.378 174.108 129.025 173.873 129.025C173.58 129.084 172.816 129.26 172.111 129.378ZM76.0581 137.485C75.1181 137.955 74.0019 139.13 73.5319 140.129C73.062 141.127 72.6507 142.537 72.6507 143.36C72.6507 144.182 73.4732 145.71 74.5894 146.885C76.1756 148.588 76.8806 148.882 78.9955 148.941C81.0517 148.941 81.8742 148.588 83.2841 147.178C84.2241 146.18 85.0465 144.828 85.0465 144.123C85.1053 143.36 85.0465 142.244 84.9878 141.597C84.929 140.951 84.4003 139.835 83.8716 139.13C83.3428 138.425 82.3441 137.602 81.6392 137.25C80.8754 136.897 79.7005 136.604 78.9955 136.604C78.2318 136.662 76.9393 137.015 76.0581 137.485ZM156.66 138.307C154.839 139.776 154.604 140.305 154.604 142.772C154.604 145.122 154.898 145.768 156.543 147.237C157.953 148.53 159.01 148.941 160.773 148.941C162.594 148.941 163.534 148.53 164.885 147.178C166.236 145.827 166.647 144.887 166.647 143.066C166.647 141.186 166.236 140.305 164.591 138.66C163.064 137.132 162.006 136.604 160.596 136.604C159.363 136.604 158.011 137.191 156.66 138.307ZM36.5207 144.065C35.8745 144.241 34.6996 144.828 33.8771 145.416C33.0546 145.945 31.9971 147.237 31.5272 148.236C30.9397 149.47 30.8222 150.762 31.0572 151.996C31.2922 153.053 32.1146 154.522 32.8196 155.168C33.5833 155.873 34.7583 156.754 35.522 157.107C36.227 157.459 37.3432 157.753 37.9894 157.753C38.6357 157.753 39.8694 157.4 40.8093 156.93C41.6906 156.519 42.8655 155.462 43.453 154.581C43.9817 153.758 44.5105 152.054 44.5105 150.879C44.5692 149.646 44.2167 148.001 43.688 147.178C43.218 146.356 42.1605 145.416 41.3968 145.005C40.6331 144.652 39.5169 144.182 38.8707 144.065C38.2244 143.947 37.167 143.947 36.5207 144.065ZM199.488 145.005C198.254 145.827 197.196 147.237 196.668 148.647C195.904 150.821 195.904 151.173 196.961 153.347C197.784 154.933 198.9 156.049 200.486 156.813C202.542 157.812 203.012 157.812 205.069 157.107C206.302 156.637 207.83 155.579 208.417 154.698C209.063 153.699 209.533 151.996 209.533 150.586C209.533 149.117 209.122 147.472 208.535 146.65C207.947 145.827 206.596 144.828 205.597 144.417C204.54 144.006 203.189 143.653 202.601 143.653C202.014 143.653 200.604 144.241 199.488 145.005ZM61.1949 146.356C59.9024 147.766 59.2562 149.058 59.1974 150.468C59.1387 151.996 59.6087 152.936 61.0774 154.522C62.4286 155.991 63.486 156.519 64.896 156.578C65.8947 156.578 67.3634 156.284 68.1271 155.932C68.8321 155.579 69.8896 154.698 70.4183 153.993C71.0058 153.288 71.4758 151.761 71.417 150.409C71.417 149.058 71.0058 147.531 70.4183 146.826C69.8896 146.18 68.8321 145.298 68.1271 144.946C67.3634 144.535 65.9535 144.241 64.9547 144.241C63.6035 144.241 62.6048 144.77 61.1949 146.356ZM87.9252 146.062C86.4565 147.472 86.104 148.295 86.104 150.174C86.1627 151.819 86.6327 152.936 87.8077 154.169C88.6889 155.109 90.2164 156.049 91.1563 156.284C92.2725 156.519 93.565 156.402 94.6224 155.873C95.6212 155.462 96.8549 154.287 97.4424 153.347C98.0298 152.407 98.4998 150.938 98.4998 150.116C98.4998 149.293 98.0298 148.001 97.5011 147.178C96.9724 146.356 96.0911 145.416 95.5624 145.005C95.0924 144.593 93.565 144.241 92.2138 144.241C90.2751 144.241 89.3939 144.593 87.9252 146.062ZM143.031 145.945C141.386 147.413 141.092 148.06 141.092 150.409C141.092 152.759 141.386 153.406 143.031 154.874C144.382 156.108 145.498 156.578 147.026 156.578C148.671 156.578 149.611 156.108 151.138 154.522C152.489 153.112 153.135 151.937 153.135 150.703C153.135 149.763 152.665 148.177 152.137 147.178C151.549 146.238 150.492 145.181 149.787 144.828C149.023 144.535 147.672 144.241 146.673 144.241C145.557 144.241 144.206 144.887 143.031 145.945ZM170.055 145.592C169.174 146.297 168.175 147.59 167.822 148.53C167.411 149.704 167.47 150.644 167.999 152.054C168.469 153.053 169.585 154.522 170.525 155.286C171.465 155.991 172.816 156.637 173.58 156.578C174.285 156.578 175.695 156.167 176.635 155.697C177.633 155.227 178.808 153.993 179.278 153.053C179.748 152.113 180.159 150.879 180.159 150.409C180.159 149.939 179.748 148.647 179.278 147.648C178.808 146.591 177.751 145.357 176.928 145.005C176.106 144.593 174.578 144.241 173.58 144.241C172.463 144.241 170.995 144.828 170.055 145.592ZM116.065 146.767C115.008 147.648 114.303 149.058 114.009 150.821C113.481 153.406 113.539 153.582 115.713 155.638C117.299 157.165 118.415 157.753 119.825 157.753C121.059 157.753 122.41 157.165 123.761 156.049C125.583 154.581 125.818 154.052 125.818 151.584C125.818 149.235 125.524 148.588 123.938 147.12C122.528 145.886 121.412 145.416 119.825 145.416C118.357 145.416 117.064 145.886 116.065 146.767ZM76.3518 152.466C75.6469 152.701 74.5307 153.699 73.8257 154.639C73.1795 155.521 72.592 157.165 72.6507 158.223C72.6507 159.574 73.2382 160.69 74.7069 162.159C76.1169 163.569 77.2918 164.215 78.5255 164.215C79.5242 164.215 80.8754 163.921 81.6392 163.569C82.3441 163.217 83.4016 162.335 83.9303 161.63C84.5178 160.925 84.9878 159.398 84.929 158.047C84.929 156.754 84.6353 155.286 84.2241 154.816C83.8128 154.287 82.8729 153.406 82.0504 152.877C81.2279 152.348 79.9355 151.878 79.113 151.937C78.2905 151.937 77.0568 152.172 76.3518 152.466ZM158.011 152.407C157.307 152.701 156.249 153.464 155.662 154.228C155.015 155.051 154.604 156.461 154.604 158.164C154.604 160.397 154.898 161.043 156.543 162.512C157.894 163.745 159.01 164.215 160.538 164.215C162.183 164.215 163.123 163.745 164.65 162.159C166.001 160.749 166.647 159.574 166.647 158.34C166.647 157.4 166.295 155.932 165.942 155.109C165.531 154.287 164.298 153.229 163.299 152.759C162.241 152.289 160.89 151.878 160.361 151.937C159.774 151.937 158.716 152.172 158.011 152.407ZM18.0151 154.522C16.5464 156.108 16.1352 157.107 16.194 158.634C16.194 159.75 16.8402 161.513 17.6039 162.57C18.3089 163.569 19.7776 164.803 20.835 165.214C22.1275 165.743 23.3025 165.801 24.6537 165.449C25.6524 165.096 27.2386 164.039 28.1785 163.099C29.3535 161.748 29.7647 160.69 29.7647 158.928C29.7647 157.165 29.3535 156.049 28.0023 154.522C26.4161 152.642 25.9461 152.466 23.0675 152.466C20.1888 152.466 19.7188 152.642 18.0151 154.522ZM47.6829 154.463C46.0967 156.108 45.7442 156.93 45.6854 159.163C45.6267 161.513 45.9204 162.159 47.6829 163.922C49.269 165.508 50.209 165.978 51.7952 165.978C52.9114 165.978 54.5564 165.625 55.4963 165.155C56.3775 164.744 57.5525 163.334 58.1987 162.1C58.9037 160.573 59.1387 159.182 58.9037 157.929C58.6687 156.754 57.7287 155.286 56.495 154.228C54.9088 152.877 53.8514 152.466 52.0302 152.466C50.0915 152.466 49.269 152.818 47.6829 154.463ZM184.154 154.169C183.097 155.051 182.039 156.637 181.804 157.694C181.511 158.81 181.628 160.22 182.098 161.454C182.568 162.453 183.684 163.921 184.624 164.685C185.623 165.449 187.092 166.036 188.267 165.978C189.265 165.978 190.969 165.508 191.909 164.979C192.908 164.391 194.083 163.04 194.553 162.042C195.023 160.984 195.434 159.692 195.434 159.222C195.434 158.752 195.023 157.459 194.553 156.461C194.083 155.403 192.908 154.052 191.909 153.523C190.969 152.936 189.207 152.466 188.09 152.466C186.739 152.466 185.447 152.994 184.154 154.169ZM215.114 153.171C214.468 153.523 213.352 154.346 212.588 155.051C211.883 155.697 211.12 157.224 210.943 158.34C210.767 159.515 210.943 161.102 211.413 162.1C211.825 163.04 212.823 164.333 213.646 164.92C214.586 165.625 216.054 166.036 217.641 165.978C219.814 165.978 220.578 165.625 222.223 163.922C223.75 162.394 224.22 161.337 224.22 159.809C224.22 158.693 223.809 156.93 223.339 155.991C222.869 154.992 221.577 153.817 220.402 153.347C219.286 152.877 217.876 152.466 217.347 152.466C216.759 152.466 215.761 152.818 215.114 153.171ZM102.847 154.111C102.142 154.639 101.261 155.697 100.908 156.461C100.556 157.165 100.262 158.282 100.262 158.928C100.262 159.574 100.673 160.925 101.143 161.865C101.613 162.864 102.906 164.039 104.081 164.509C105.667 165.155 106.607 165.273 108.193 164.803C109.309 164.45 110.778 163.51 111.424 162.629C112.188 161.63 112.658 160.103 112.599 158.81C112.599 157.107 112.129 156.108 110.837 154.816C109.427 153.406 108.604 153.053 106.607 153.053C105.08 153.053 103.552 153.523 102.847 154.111ZM131.575 153.464C130.811 153.582 129.46 154.639 128.461 155.756C127.521 156.872 126.699 158.223 126.699 158.81C126.699 159.339 126.934 160.632 127.286 161.572C127.639 162.512 128.52 163.745 129.225 164.274C129.93 164.803 131.046 165.331 131.692 165.39C132.339 165.449 133.455 165.508 134.219 165.449C134.982 165.449 136.392 164.568 137.332 163.628C138.566 162.335 139.036 161.278 139.036 159.692C139.036 158.458 138.566 156.813 138.037 156.049C137.45 155.227 136.098 154.228 135.1 153.817C134.042 153.406 133.102 153.112 133.044 153.112C132.926 153.171 132.28 153.347 131.575 153.464ZM34.6408 161.219C33.9358 161.454 32.9959 162.218 32.4671 162.805C31.9971 163.452 31.2922 164.744 30.9984 165.684C30.7047 166.624 30.5872 168.093 30.7634 168.915C30.8809 169.738 31.6447 171.206 32.4671 172.146C33.7008 173.615 34.5233 173.967 36.9907 174.085C39.3994 174.261 40.3981 174.026 41.6906 173.086C42.5718 172.381 43.5705 170.854 43.9817 169.679C44.4517 167.975 44.4517 166.976 43.9817 165.684C43.5705 164.744 42.6893 163.334 41.9843 162.57C41.1618 161.807 39.6344 161.16 38.2832 160.984C36.9907 160.808 35.3458 160.925 34.6408 161.219ZM117.475 161.278C116.77 161.513 115.654 162.512 114.949 163.452C114.244 164.391 113.716 165.978 113.716 167.153C113.716 168.328 114.244 169.914 114.949 170.854C115.595 171.735 117.064 172.675 118.18 173.027C119.767 173.497 120.648 173.439 121.999 172.734C122.998 172.264 124.29 171.147 124.936 170.266C125.641 169.326 126.17 168.034 126.111 167.329C126.111 166.565 125.7 165.155 125.23 164.215C124.76 163.275 123.585 162.042 122.586 161.572C121.647 161.102 120.354 160.69 119.825 160.749C119.238 160.749 118.18 160.984 117.475 161.278ZM199.135 161.865C198.078 162.512 196.903 163.745 196.55 164.685C196.198 165.566 196.08 167.329 196.256 168.621C196.433 170.031 197.138 171.559 198.078 172.44C199.311 173.674 200.134 173.909 202.836 173.909C205.774 173.909 206.302 173.732 207.83 172.029C209.122 170.56 209.533 169.503 209.533 167.74C209.533 166.448 209.063 164.685 208.535 163.863C207.947 162.982 206.772 161.924 205.891 161.513C204.951 161.043 203.541 160.69 202.66 160.69C201.72 160.69 200.134 161.219 199.135 161.865ZM102.788 169.444C101.555 170.208 100.615 171.441 100.262 172.734C99.7923 174.32 99.9098 175.26 100.556 176.846C101.026 178.021 102.201 179.313 103.2 179.783C104.198 180.253 105.785 180.665 106.725 180.665C107.723 180.665 109.251 180.018 110.249 179.196C111.248 178.373 112.188 177.022 112.364 176.141C112.541 175.201 112.306 173.556 111.836 172.44C111.366 171.324 110.661 170.031 110.191 169.62C109.721 169.268 108.311 168.739 107.018 168.563C105.256 168.328 104.198 168.563 102.788 169.444ZM129.107 169.796C128.05 170.678 127.169 172.029 126.934 173.204C126.699 174.379 126.934 175.789 127.521 177.022C128.05 178.021 129.342 179.313 130.4 179.842C131.575 180.43 132.926 180.665 134.042 180.43C135.041 180.195 136.51 179.313 137.45 178.432C138.683 177.199 139.036 176.317 139.036 174.379C139.036 172.381 138.683 171.5 137.273 170.09C135.922 168.739 134.982 168.328 133.22 168.328C131.634 168.328 130.341 168.798 129.107 169.796ZM18.6026 171.206C17.0752 172.792 16.3702 174.026 16.3114 175.319C16.3114 176.317 16.6052 177.845 17.0752 178.785C17.4864 179.666 18.5439 180.841 19.4251 181.428C20.2476 181.957 22.01 182.427 23.3025 182.427C25.1236 182.427 26.0636 182.016 27.7085 180.547C29.3535 178.961 29.706 178.197 29.7647 176.141C29.7647 174.672 29.3535 172.969 28.766 172.087C28.1785 171.206 27.0036 170.149 26.1224 169.738C25.1824 169.268 23.6549 168.915 22.6562 168.915C21.305 168.915 20.2476 169.503 18.6026 171.206ZM49.269 169.738C48.2116 170.149 46.8016 171.324 46.1554 172.205C45.5092 173.145 44.9804 174.79 45.0392 175.847C45.0392 176.846 45.4504 178.432 45.9204 179.372C46.4491 180.253 47.4479 181.311 48.1528 181.781C48.8578 182.192 50.6202 182.545 52.0889 182.545C54.3801 182.545 55.0263 182.192 56.6713 180.43C57.9637 178.961 58.5512 177.727 58.5512 176.435C58.5512 175.377 58.1987 173.85 57.7875 173.086C57.435 172.322 56.4363 171.206 55.6138 170.619C54.7914 170.031 53.4989 169.444 52.6764 169.268C51.854 169.091 50.3265 169.268 49.269 169.738ZM186.152 169.738C185.094 170.208 183.684 171.324 183.038 172.205C182.392 173.204 181.863 174.849 181.922 176.141C181.922 177.669 182.392 178.902 183.684 180.371C185.271 182.251 185.741 182.427 188.443 182.427C191.087 182.427 191.674 182.192 193.437 180.371C194.964 178.785 195.434 177.786 195.434 176.141C195.493 174.672 195.023 173.321 194.141 172.205C193.378 171.265 191.909 170.149 190.91 169.679C189.853 169.268 188.795 168.915 188.56 168.915C188.267 168.974 187.209 169.326 186.152 169.738ZM215.584 169.326C214.821 169.444 213.47 170.501 212.471 171.617C211.12 173.145 210.708 174.202 210.708 175.965C210.708 177.845 211.12 178.726 212.765 180.371C214.527 182.133 215.232 182.427 217.464 182.427C219.521 182.427 220.519 182.075 221.929 180.841C223.104 179.725 223.809 178.432 224.044 176.846C224.338 175.201 224.162 174.026 223.457 172.91C222.928 171.97 221.577 170.736 220.578 170.09C219.521 169.444 218.228 168.974 217.758 168.974C217.288 169.033 216.289 169.209 215.584 169.326ZM116.3 177.14C114.949 177.962 114.186 179.02 113.774 180.547C113.422 182.075 113.481 183.191 114.009 184.483C114.421 185.423 115.478 186.716 116.3 187.303C117.182 187.832 118.827 188.302 119.943 188.302C121.294 188.302 122.645 187.773 123.761 186.833C124.76 186.011 125.7 184.542 125.876 183.426C126.111 182.31 125.876 180.841 125.348 179.783C124.878 178.843 123.82 177.551 122.939 176.964C122.116 176.435 120.707 175.965 119.825 175.965C118.885 175.965 117.299 176.494 116.3 177.14ZM34.7583 177.845C34.1121 178.256 33.2896 178.785 32.9371 179.137C32.5846 179.49 31.9971 180.371 31.6447 181.076C31.2334 181.84 30.9397 183.367 30.9397 184.483C30.9397 186.011 31.4684 187.068 32.8784 188.596C34.5233 190.299 35.1695 190.593 37.5782 190.652C39.8106 190.652 40.6918 190.358 42.1605 189.007C43.3942 187.949 44.0405 186.657 44.2755 185.071C44.4713 183.504 44.2559 182.075 43.6292 180.782C43.1005 179.783 41.9256 178.491 40.9268 178.021C39.9869 177.551 38.4594 177.14 37.5782 177.14C36.6382 177.14 35.4045 177.492 34.7583 177.845ZM199.253 178.197C198.313 178.785 197.138 180.195 196.668 181.311C196.198 182.486 195.963 184.131 196.198 185.364C196.433 186.598 197.314 188.067 198.371 189.066C199.664 190.241 200.721 190.652 202.484 190.652C203.776 190.652 205.539 190.182 206.361 189.594C207.242 189.066 208.3 187.891 208.711 186.951C209.181 186.069 209.533 184.66 209.533 183.72C209.533 182.838 209.005 181.311 208.358 180.371C207.712 179.431 206.596 178.315 205.832 177.904C205.127 177.492 203.776 177.199 202.777 177.14C201.837 177.14 200.251 177.61 199.253 178.197ZM61.4886 182.133C60.6661 182.603 59.5499 183.661 58.9625 184.483C58.4337 185.306 57.9637 187.009 57.9637 188.302C57.9637 190.182 58.375 191.063 60.0199 192.708C61.6061 194.294 62.5461 194.764 64.1323 194.764C65.2485 194.764 67.0109 194.353 67.9509 193.883C68.9496 193.413 70.1246 192.414 70.5945 191.651C71.0645 190.946 71.4758 189.477 71.4758 188.419C71.4758 187.421 71.0645 185.717 70.5945 184.777C70.1246 183.837 68.9496 182.603 67.9509 182.133C67.0109 181.663 65.4835 181.252 64.6023 181.252C63.6623 181.311 62.3111 181.663 61.4886 182.133ZM78.7605 181.781C78.0555 182.016 76.9393 182.897 76.2344 183.661C75.5881 184.425 74.8244 186.011 74.6482 187.127C74.4132 188.478 74.5894 189.829 75.2356 191.122C75.7644 192.121 76.8806 193.472 77.8205 194C78.7018 194.529 80.4055 194.94 81.6392 194.882C82.8141 194.823 84.3416 194.412 84.9878 194C85.5753 193.648 86.5152 192.591 87.044 191.651C87.5139 190.769 87.9252 189.124 87.9252 188.008C87.9252 186.892 87.4552 185.247 86.9265 184.366C86.339 183.543 84.9878 182.486 83.9891 182.016C82.9316 181.605 81.5804 181.252 81.0517 181.311C80.4642 181.311 79.4067 181.546 78.7605 181.781ZM155.955 182.133C155.015 182.603 153.899 183.837 153.429 184.777C152.959 185.717 152.548 187.479 152.548 188.596C152.548 190.123 153.077 191.181 154.487 192.708C156.132 194.47 156.719 194.705 159.186 194.764C161.713 194.764 162.3 194.529 164.063 192.708C165.59 191.181 166.06 190.123 166.06 188.596C166.06 187.479 165.649 185.717 165.179 184.777C164.709 183.778 163.416 182.603 162.241 182.133C161.125 181.663 159.598 181.252 158.893 181.252C158.129 181.311 156.837 181.663 155.955 182.133ZM172.698 182.427C171.641 183.073 170.525 184.131 170.172 184.777C169.879 185.423 169.585 187.009 169.585 188.302C169.585 190.182 169.996 191.063 171.641 192.708C173.227 194.294 174.167 194.764 175.753 194.764C176.87 194.764 178.632 194.353 179.572 193.883C180.571 193.413 181.746 192.179 182.216 191.239C182.686 190.299 183.097 188.831 183.097 188.008C183.097 187.186 182.686 185.717 182.216 184.777C181.746 183.837 180.571 182.603 179.572 182.133C178.632 181.663 177.105 181.252 176.223 181.252C175.283 181.252 173.697 181.781 172.698 182.427ZM116.242 193.472C114.773 194.647 114.186 195.704 113.951 197.408C113.833 198.7 113.951 200.463 114.303 201.344C114.655 202.284 115.83 203.518 116.888 204.164C117.887 204.81 119.473 205.339 120.413 205.339C121.294 205.339 122.821 204.928 123.761 204.458C124.76 203.988 125.935 202.754 126.405 201.814C126.875 200.874 127.286 199.405 127.286 198.583C127.286 197.76 126.934 196.409 126.464 195.469C126.053 194.588 124.995 193.413 124.114 192.825C123.291 192.297 121.588 191.827 120.354 191.827C118.827 191.827 117.593 192.297 116.242 193.413V193.472ZM164.944 196.233C163.828 196.644 162.535 197.467 162.124 198.113C161.713 198.7 161.184 200.286 160.949 201.579C160.714 203.341 160.89 204.399 161.713 205.868C162.3 206.925 163.71 208.159 164.767 208.629C165.766 209.099 167.059 209.51 167.529 209.51C167.999 209.51 169.291 209.099 170.349 208.629C171.347 208.159 172.698 206.984 173.286 205.985C173.815 205.045 174.285 203.341 174.285 202.284C174.343 201.168 173.756 199.699 172.992 198.7C172.228 197.76 170.76 196.644 169.761 196.174C168.704 195.763 167.646 195.41 167.411 195.41C167.117 195.469 166.06 195.822 164.944 196.233ZM52.5589 196.879C51.619 197.349 50.5028 198.583 50.0328 199.523C49.5628 200.463 49.1515 201.931 49.1515 202.754C49.1515 203.576 49.5628 204.928 50.0328 205.809C50.5615 206.749 51.7365 207.924 52.6764 208.452C53.6751 209.04 55.0851 209.51 55.9076 209.51C56.73 209.51 58.1987 209.099 59.1387 208.629C60.1374 208.159 61.3124 206.866 61.8411 205.809C62.4677 204.555 62.6832 203.146 62.4873 201.579C62.2523 199.993 61.6061 198.7 60.3724 197.584C59.0212 196.468 57.9637 195.998 56.3775 195.998C55.1438 196.057 53.4402 196.409 52.5589 196.879ZM69.7133 196.997C68.5971 197.584 67.3634 198.7 66.9522 199.523C66.5409 200.345 66.1885 201.873 66.1885 202.871C66.1885 203.929 66.6584 205.574 67.2459 206.573C67.7746 207.512 68.8321 208.57 69.5958 208.922C70.3008 209.216 71.9457 209.51 73.2382 209.51C75.0006 209.51 76.0581 209.099 77.5268 207.806C79.1717 206.279 79.4067 205.691 79.4067 203.106C79.4067 200.58 79.113 199.875 77.6443 198.348C76.5868 197.29 75.0594 196.468 73.8257 196.233C72.4745 196.057 71.0645 196.292 69.7133 196.997ZM87.514 196.409C86.7502 196.527 85.399 197.584 84.4003 198.7C83.0491 200.228 82.6379 201.285 82.6379 203.048C82.6379 204.928 83.0491 205.809 84.694 207.454C86.4565 209.216 87.1615 209.51 89.4526 209.51C91.7438 209.51 92.4488 209.216 94.1525 207.454C95.6799 205.926 96.1499 204.869 96.1499 203.341C96.1499 202.225 95.8562 200.698 95.5037 199.934C95.1512 199.229 94.3287 198.23 93.6237 197.702C92.9188 197.173 91.5676 196.585 90.5688 196.468C89.6289 196.292 88.2189 196.292 87.514 196.409ZM147.731 196.879C146.791 197.349 145.674 198.583 145.204 199.523C144.734 200.463 144.323 202.108 144.323 203.048C144.323 203.988 144.793 205.515 145.381 206.338C145.909 207.219 147.084 208.276 148.024 208.687C148.906 209.157 150.257 209.51 151.079 209.51C151.902 209.51 153.37 209.099 154.31 208.629C155.309 208.159 156.484 206.925 156.954 205.985C157.424 205.045 157.835 203.4 157.835 202.46C157.835 201.52 157.365 199.993 156.837 199.17C156.249 198.289 155.074 197.232 154.193 196.82C153.253 196.35 151.843 195.998 150.962 195.998C150.022 196.057 148.612 196.409 147.731 196.879ZM181.628 197.114C180.629 197.702 179.396 198.818 178.808 199.582C178.28 200.345 177.81 201.99 177.81 203.165C177.81 204.928 178.221 205.809 179.866 207.454C181.569 209.157 182.392 209.51 184.448 209.51C185.976 209.569 187.444 209.157 188.384 208.452C189.207 207.865 190.205 206.573 190.617 205.633C191.087 204.634 191.263 203.048 191.087 201.873C190.91 200.756 190.147 199.229 189.442 198.583C188.678 197.878 187.503 196.997 186.798 196.644C186.034 196.292 184.977 195.998 184.448 195.998C183.861 195.998 182.568 196.468 181.628 197.114ZM102.73 200.874C102.025 201.285 100.85 202.695 100.204 203.988C99.3223 205.574 99.0285 206.866 99.2635 208.041C99.4985 208.981 100.38 210.567 101.261 211.449C102.201 212.33 103.846 213.211 104.962 213.387C106.137 213.564 107.723 213.387 108.722 212.917C109.662 212.506 110.954 211.507 111.542 210.685C112.247 209.745 112.658 208.276 112.599 206.69C112.599 204.693 112.247 203.87 110.543 202.166C108.898 200.521 108.017 200.11 106.313 200.11C105.08 200.11 103.493 200.463 102.73 200.874ZM130.694 201.873C129.754 202.519 128.755 204.046 128.403 205.221C128.05 206.455 127.933 208.1 128.109 208.922C128.285 209.745 129.342 211.272 130.517 212.271C131.927 213.622 133.161 214.21 134.512 214.21C135.511 214.21 137.273 213.681 138.331 213.035C139.33 212.389 140.622 210.92 141.092 209.804C141.738 208.276 141.856 207.219 141.445 205.809C141.092 204.81 140.035 203.224 139.095 202.284C137.685 201.05 136.686 200.698 134.806 200.698C133.279 200.756 131.634 201.168 130.694 201.873ZM115.83 210.92C114.421 212.389 113.892 213.505 113.833 215.032C113.774 216.207 114.068 217.793 114.362 218.616C114.714 219.438 115.83 220.613 116.888 221.259C117.887 221.906 119.355 222.434 120.119 222.434C120.824 222.434 122.293 222.023 123.35 221.553C124.349 221.083 125.7 219.908 126.288 218.91C126.816 217.97 127.286 216.501 127.286 215.678C127.286 214.856 126.875 213.387 126.405 212.447C125.935 211.507 124.936 210.274 124.231 209.804C123.468 209.334 121.705 208.922 120.354 208.922C118.18 208.922 117.475 209.275 115.83 210.92ZM62.7811 210.567C62.0761 210.802 60.6661 211.684 59.7262 212.565C58.2575 213.916 57.9637 214.68 57.9637 216.853C57.9637 218.381 58.375 220.143 59.0212 221.025C59.5499 221.847 60.8424 222.904 61.7824 223.374C62.7811 223.844 64.0148 224.197 64.6023 224.197C65.131 224.197 66.4234 223.786 67.3634 223.316C68.3621 222.846 69.6546 221.553 70.3008 220.496C70.947 219.497 71.4758 217.97 71.4758 217.147C71.4758 216.325 70.947 214.797 70.3008 213.74C69.6546 212.741 68.1859 211.449 67.0697 210.979C65.9535 210.509 64.8373 210.097 64.6023 210.156C64.3085 210.215 63.5448 210.391 62.7811 210.567ZM78.7605 210.626C78.0555 210.861 76.8218 211.801 76.1169 212.682C75.1181 213.857 74.7069 215.032 74.7069 216.853C74.7069 218.498 75.1181 219.967 75.8819 221.025C76.5281 221.906 77.9968 222.904 79.113 223.316C80.4054 223.727 81.8741 223.844 83.1079 223.492C84.1066 223.257 85.634 222.199 86.4565 221.259C87.5139 219.967 87.9252 218.792 87.9252 216.971C87.9252 215.62 87.5139 213.916 87.044 213.152C86.574 212.447 85.399 211.449 84.4003 210.979C83.4603 210.509 82.0504 210.097 81.3454 210.156C80.5817 210.156 79.4067 210.391 78.7605 210.626ZM154.604 212.095C153.077 213.681 152.665 214.621 152.607 216.618C152.548 218.322 152.9 219.732 153.605 220.672C154.193 221.494 155.485 222.493 156.425 222.904C157.424 223.374 159.01 223.551 160.185 223.374C161.301 223.198 162.829 222.434 163.475 221.729C164.18 220.966 165.061 219.791 165.414 219.027C165.766 218.322 166.06 217.206 166.06 216.56C166.06 215.913 165.649 214.562 165.179 213.622C164.709 212.682 163.534 211.449 162.535 210.979C161.595 210.509 159.833 210.097 158.658 210.097C157.013 210.097 156.073 210.567 154.604 212.095ZM173.697 210.861C172.522 211.272 171.112 212.389 170.349 213.622C169.585 214.738 168.997 216.325 168.997 217.147C168.997 217.97 169.35 219.262 169.761 220.085C170.114 220.848 171.406 222.141 172.522 222.846C173.638 223.609 175.107 224.256 175.753 224.197C176.4 224.197 177.751 223.844 178.691 223.374C179.689 222.904 180.923 221.847 181.511 221.025C182.039 220.202 182.509 218.557 182.509 217.441C182.509 216.325 182.039 214.562 181.511 213.622C180.923 212.624 179.513 211.449 178.28 210.979C177.046 210.509 175.988 210.097 175.93 210.156C175.812 210.156 174.813 210.45 173.697 210.861ZM103.258 217.558C102.142 218.146 100.673 219.38 100.027 220.261C99.3223 221.201 98.7936 222.669 98.8523 223.492C98.8523 224.373 99.2635 225.842 99.7335 226.782C100.204 227.722 101.496 229.014 102.612 229.602C104.14 230.424 105.197 230.6 106.725 230.307C107.841 230.072 109.486 229.249 110.426 228.485C111.307 227.722 112.188 226.253 112.364 225.196C112.541 224.079 112.364 222.434 111.777 221.083C111.248 219.908 110.249 218.557 109.544 218.087C108.781 217.617 107.547 217.088 106.725 216.853C105.843 216.677 104.433 216.971 103.258 217.558ZM132.162 217.147C131.457 217.382 130.282 218.381 129.636 219.321C128.931 220.202 128.226 221.494 128.05 222.141C127.874 222.787 128.05 224.314 128.403 225.489C128.814 226.841 129.754 228.192 130.811 228.897C131.927 229.602 133.572 230.072 135.159 230.072C137.156 230.072 138.037 229.719 139.271 228.427C140.152 227.546 141.092 225.959 141.386 224.902C141.856 223.433 141.738 222.552 140.975 220.848C140.387 219.673 139.153 218.205 138.155 217.617C137.215 217.03 135.746 216.56 134.924 216.618C134.101 216.618 132.867 216.853 132.162 217.147ZM115.83 227.369C114.421 228.838 113.892 229.954 113.833 231.482C113.774 232.657 114.186 234.419 114.655 235.359C115.125 236.299 116.359 237.533 117.299 238.003C118.298 238.473 119.884 238.884 120.824 238.884C121.94 238.884 123.35 238.238 124.643 237.121C126.053 235.888 126.816 234.713 127.051 233.127C127.228 231.834 127.11 230.248 126.581 229.249C126.17 228.309 125.113 227.076 124.231 226.488C123.291 225.842 121.529 225.372 120.178 225.372C118.239 225.372 117.417 225.724 115.83 227.369Z" fill="#FEFEFE"/>
</svg>
