<svg width="241" height="240" viewBox="0 0 241 240" fill="none" xmlns="http://www.w3.org/2000/svg">
<path d="M117.655 0.287012C116.789 0.541539 115.466 1.30512 114.6 1.91598C113.735 2.57775 112.615 4.10491 112.106 5.37754L111.139 7.61737C107.524 5.83569 105.794 5.32664 104.928 5.32664C104.063 5.32664 102.383 5.83569 101.161 6.49746C99.8886 7.10832 98.3105 8.43186 97.6488 9.39906C96.5798 10.9771 96.478 11.6389 96.6307 15.1005C96.7834 19.0202 96.7834 19.0711 95.5108 19.0711C94.7981 19.0711 93.3218 19.631 92.2019 20.2419C91.082 20.9037 89.6567 22.2781 89.0458 23.398C88.3331 24.6197 87.875 26.2996 87.875 27.6232C87.875 28.794 88.1804 30.5248 88.5367 31.441C88.944 32.3064 89.9112 33.63 90.7766 34.3426C91.642 35.0553 92.7619 35.8698 93.2709 36.1752C94.1872 36.7352 94.1872 36.837 92.8128 37.8551C92.0492 38.4151 91.082 39.6877 90.6238 40.5531C90.1657 41.4694 89.7076 43.1493 89.6057 44.2692C89.5039 45.3891 89.453 46.3563 89.453 46.4581C89.4021 46.509 88.6385 46 87.7222 45.2873C86.8569 44.5746 85.1261 43.811 83.9553 43.6074L81.8681 43.2511C82.4281 36.4298 82.3772 35.9716 81.1046 33.9354C80.2392 32.561 78.9665 31.441 77.5412 30.7793C76.3704 30.2193 74.6396 29.7612 73.7233 29.7612C72.8579 29.7612 71.2798 30.1175 70.3126 30.5248C69.3454 30.932 67.971 31.8992 67.2583 32.7137C66.0366 34.0372 65.9857 34.0372 65.6803 33.07C65.5275 32.5101 65.1203 31.3901 64.8149 30.5757C64.4585 29.7612 63.4404 28.4376 62.5241 27.6232C61.6587 26.8596 59.9789 25.9433 58.859 25.6888C57.5015 25.3494 56.144 25.3494 54.7865 25.6888C53.6666 25.9433 52.0376 26.8087 51.1213 27.6232C50.256 28.3867 49.2379 29.7612 48.8306 30.6775C48.4743 31.5429 48.1688 32.9682 48.1688 33.8336C48.1688 34.699 47.9143 35.3608 47.6598 35.3608C47.4053 35.3608 46.2853 34.8517 45.2163 34.2408C43.7401 33.3755 42.7729 33.2227 40.533 33.3754C38.6496 33.5282 37.1733 34.0372 36.0025 34.8517C35.0353 35.5644 33.8136 37.0406 33.3045 38.1605C32.7954 39.2805 32.3882 40.9603 32.3882 41.8766C32.3882 42.742 32.7445 44.371 33.1518 45.44C33.6099 46.4581 33.9154 47.3744 33.9154 47.4762C33.9154 47.5271 33.6099 47.578 33.2536 47.578C32.9482 47.578 31.6755 48.0362 30.4538 48.5961C29.0285 49.3088 27.9085 50.3269 27.0431 51.8032C26.1778 53.2794 25.7705 54.7048 25.7705 56.4864C25.7705 58.2172 26.1269 59.5917 26.8904 60.8134C27.4504 61.7806 28.4685 63.0023 29.0285 63.4605C29.6393 63.9695 30.6065 64.4786 31.2174 64.6313L32.3882 64.8858C29.9957 68.0929 29.5375 69.3655 29.4357 71.1981C29.283 73.1325 29.5884 74.3542 30.4538 76.085C31.2174 77.5612 32.3373 78.783 33.6608 79.4956C34.8826 80.2083 36.5624 80.6665 37.886 80.6665C39.0568 80.6665 40.584 80.4628 41.2966 80.1574C42.5184 79.6484 42.5693 79.6993 42.5693 81.9391C42.5693 83.2117 42.8747 84.9934 43.231 85.9097C43.6383 86.7751 44.3509 87.895 44.8091 88.3023C45.2672 88.7095 45.6745 89.2186 45.6236 89.4731C45.6236 89.6767 45.1654 89.8294 44.6055 89.8294C44.0455 89.8294 42.8238 90.1858 41.9075 90.6439C41.0421 91.1021 39.9222 91.8147 39.5149 92.1711C38.8532 92.7819 38.6496 92.6801 38.1405 91.5093C37.7842 90.6948 36.8679 89.4731 36.1043 88.7095C35.2898 87.9459 34.0681 87.0805 33.2536 86.826C32.49 86.5206 30.9119 86.266 29.6902 86.266C28.4176 86.266 26.7377 86.7242 25.516 87.4369C24.3961 88.0477 23.0216 89.4731 22.3599 90.593C21.749 91.7129 21.189 93.4437 21.189 94.4109C21.2399 95.3781 21.0872 96.2944 20.9345 96.4471C20.7818 96.5998 19.8146 96.2944 18.7456 95.7853C17.7275 95.3272 15.9967 94.9199 14.9277 94.9199C13.9096 94.9199 12.2806 95.2254 11.3643 95.5817C10.4989 95.989 9.17539 96.9562 8.46272 97.7706C7.75004 98.5851 6.83375 100.163 6.47741 101.283C6.07017 102.505 5.96836 104.032 6.17198 105.101C6.3247 106.068 7.03737 107.748 7.75004 108.817C8.41181 109.835 8.97177 110.802 8.97177 110.955C8.97177 111.108 8.10638 111.413 7.03737 111.668C6.01926 111.973 4.49211 112.686 3.67762 113.348C2.86314 114.009 1.74322 115.435 1.23417 116.555C0.776019 117.675 0.317871 119.354 0.317871 120.271C0.317871 121.136 0.572398 122.511 0.877829 123.325C1.13236 124.089 2.15046 125.463 3.01585 126.379C3.93215 127.296 5.4084 128.263 6.27379 128.517L7.95366 129.026C6.3756 132.234 5.91745 134.168 5.91745 135.542C5.91745 137.222 6.22288 138.444 7.08827 139.717C7.69914 140.684 9.02268 142.058 9.98988 142.669C11.517 143.738 12.2806 143.84 15.4367 143.687L19.1019 143.534C19.9164 146.894 20.7818 148.574 21.5454 149.49C22.3599 150.356 23.7343 151.374 24.5997 151.781C25.516 152.137 27.145 152.443 28.1631 152.443C29.2321 152.443 31.1156 151.934 32.3373 151.272C33.6099 150.61 34.9844 149.389 35.5952 148.37C36.1552 147.403 36.7151 146.538 36.817 146.487C36.9188 146.385 37.7842 147.149 38.7514 148.116C39.8204 149.185 41.3984 150.101 42.6711 150.458C43.8928 150.763 45.2672 150.865 45.7254 150.712C46.2344 150.559 46.6417 150.559 46.6417 150.814C46.6417 151.018 46.0308 151.985 45.369 152.952C44.6564 153.919 43.8928 155.701 43.6892 156.872C43.3837 158.653 43.1801 158.908 42.4165 158.501C41.9584 158.246 40.3803 158.042 39.0059 158.042C37.5805 158.042 35.8498 158.348 35.0353 158.755C34.2717 159.162 33.1518 160.028 32.5918 160.69C31.981 161.3 31.2174 162.42 30.861 163.133C30.5047 163.846 30.1993 165.424 30.1993 166.696C30.1993 167.969 30.5047 169.547 30.861 170.26C31.2174 170.972 32.0828 172.143 32.8464 172.907L34.1699 174.332C31.981 175.096 31.2683 175.35 31.1156 175.35C30.9629 175.35 30.1993 175.808 29.3339 176.368C28.4685 176.928 27.3486 178.303 26.7886 179.423C26.2287 180.543 25.7705 182.426 25.7705 183.648C25.7705 184.92 26.2287 186.6 26.9413 187.822C27.6031 188.942 28.9775 190.367 30.0975 190.978C31.2174 191.64 32.7954 192.149 33.6608 192.149C34.5262 192.098 35.2898 192.251 35.4425 192.404C35.5952 192.556 35.188 193.727 34.5262 195.102C33.9154 196.425 33.4063 198.258 33.4063 199.174C33.4063 200.039 33.6608 201.414 33.9663 202.228C34.2208 202.992 35.0862 204.264 35.8498 205.079C36.6133 205.893 37.9878 206.861 38.8532 207.217C39.7695 207.624 41.3475 207.93 42.3147 207.93C43.2819 207.93 44.9618 207.573 45.9799 207.166C47.0489 206.708 47.9652 206.403 48.0161 206.403C48.1179 206.403 48.1688 206.912 48.1688 207.573C48.1688 208.184 48.6779 209.508 49.2888 210.475C49.9505 211.442 51.2741 212.766 52.2413 213.377C53.5648 214.242 54.7356 214.547 56.67 214.547C58.1463 214.547 60.0298 214.191 60.8952 213.784C61.7606 213.377 62.9823 212.257 63.644 211.391C64.2549 210.475 64.9676 209.253 65.1712 208.693C65.4766 207.675 65.5275 207.675 66.6475 208.795C67.2583 209.406 68.3782 210.119 69.1418 210.424C69.9563 210.729 71.3817 210.984 72.3489 210.984C73.3161 210.984 74.8941 210.679 75.7595 210.322C76.6758 209.915 77.9993 208.948 78.712 208.133C79.4247 207.319 80.341 205.741 80.6973 204.621C81.0536 203.501 81.2573 202.025 81.1046 201.312C80.9518 200.599 80.6973 199.479 80.4937 198.767C80.1883 197.494 80.2392 197.494 83.1917 197.494C85.6351 197.494 86.5005 197.24 88.0277 196.12L89.9112 194.694C90.2675 196.883 90.9802 198.359 91.6929 199.428C92.4055 200.447 92.9655 201.414 92.9655 201.567C92.9655 201.719 92.1001 202.228 91.082 202.737C90.0639 203.195 88.6894 204.417 88.0786 205.384C87.4168 206.352 86.7551 207.981 86.6023 208.948C86.3987 210.017 86.5005 211.544 86.9078 212.766C87.2641 213.886 88.1804 215.464 88.8931 216.278C89.6057 217.093 90.9293 218.06 91.7947 218.467C92.711 218.823 94.289 219.129 95.2562 219.129C96.478 219.129 97.0379 219.383 97.0379 219.892C97.0379 220.3 96.8343 220.758 96.5289 220.911C96.2234 221.063 95.7653 222.132 95.4598 223.354C95.0526 224.983 95.0526 226.052 95.5617 227.783C95.9689 229.055 96.987 230.837 97.9033 231.753C98.8705 232.67 100.55 233.637 101.721 233.942C102.943 234.248 104.572 234.35 105.437 234.197C106.303 234.044 107.83 233.331 108.848 232.619C109.917 231.906 110.986 231.346 111.291 231.346C111.597 231.346 111.902 232.161 112.055 233.128C112.208 234.146 113.022 235.724 113.938 236.793C114.855 237.811 116.382 238.931 117.247 239.338C118.164 239.695 119.742 240 120.709 240C121.676 240 123.407 239.542 124.527 238.982C125.647 238.422 127.021 237.353 127.632 236.589C128.192 235.775 128.854 234.553 129.006 233.739C129.21 232.975 129.414 232.364 129.465 232.364C129.566 232.364 130.381 232.822 131.246 233.382C132.366 234.044 133.792 234.4 135.471 234.4C137.151 234.4 138.678 233.993 140.053 233.23C141.122 232.619 142.598 231.193 143.209 230.073C144.125 228.495 144.38 227.426 144.227 225.492C144.125 224.118 143.922 222.539 143.718 222.081C143.413 221.318 143.718 221.114 145.245 220.911C146.314 220.758 147.943 220.147 148.91 219.536C149.878 218.874 151.15 217.551 151.71 216.584C152.372 215.464 152.728 213.886 152.728 212.257C152.728 210.628 152.372 209.05 151.71 207.93C151.15 206.962 149.878 205.639 148.91 204.977C147.943 204.366 146.976 203.755 146.671 203.654C146.365 203.603 146.925 202.839 147.892 202.025C148.859 201.21 149.929 199.785 150.336 198.919C150.692 198.003 150.998 196.629 150.998 195.865C150.998 195.051 151.099 194.287 151.252 194.083C151.405 193.829 152.372 194.236 153.39 194.949C154.459 195.661 156.19 196.425 157.259 196.629C158.684 196.883 159.091 197.189 158.837 197.749C158.684 198.156 158.43 199.428 158.277 200.548C158.124 201.77 158.328 203.45 158.837 204.774C159.295 205.944 160.415 207.472 161.28 208.184C162.197 208.897 163.877 209.66 164.996 209.966C166.371 210.271 167.745 210.22 169.323 209.813C170.698 209.457 172.276 208.541 173.243 207.573L174.923 205.893C175.33 208.693 176.145 210.22 177.061 211.289C177.977 212.308 179.352 213.478 180.115 213.835C180.93 214.242 182.457 214.547 183.577 214.547C184.697 214.547 186.377 214.242 187.242 213.886C188.158 213.478 189.533 212.46 190.296 211.595C191.111 210.679 191.976 208.999 192.282 207.828C192.587 206.606 192.943 205.333 193.045 205.028C193.198 204.57 193.656 204.672 194.623 205.384C195.438 205.995 196.965 206.555 198.085 206.759C199.205 206.912 200.936 206.81 201.903 206.504C202.87 206.199 204.295 205.486 205.059 204.875C205.873 204.315 206.841 203.094 207.299 202.228C207.808 201.21 208.113 199.479 208.062 198.003C208.011 196.629 207.655 194.847 207.248 194.083C206.841 193.269 206.637 192.556 206.841 192.454C207.095 192.353 207.961 192.098 208.775 191.895C209.59 191.691 210.862 191.131 211.575 190.673C212.287 190.164 213.357 188.738 213.967 187.517C214.629 186.295 215.138 184.513 215.138 183.648C215.138 182.732 214.884 181.357 214.578 180.594C214.324 179.779 213.458 178.506 212.695 177.743C211.931 176.928 210.709 175.961 209.895 175.554L208.52 174.841C210.149 172.652 210.862 171.125 211.117 170.005C211.422 168.885 211.473 167.256 211.32 166.442C211.117 165.627 210.455 164.151 209.844 163.184C209.284 162.268 208.062 161.046 207.248 160.588C206.433 160.079 204.906 159.519 203.939 159.315C202.921 159.111 201.292 159.264 200.07 159.671L197.983 160.333C198.034 156.414 197.678 154.53 197.22 153.716C196.812 152.901 196.049 151.781 195.591 151.323C194.827 150.458 194.878 150.407 196.405 150.152C197.321 150.05 198.95 149.338 199.968 148.625C201.037 147.912 202.005 147.352 202.157 147.352C202.31 147.352 202.412 147.709 202.412 148.116C202.412 148.523 203.277 149.796 204.295 150.865C205.364 151.934 207.146 153.105 208.266 153.461C209.386 153.817 211.117 153.97 212.084 153.817C213.051 153.614 214.629 152.952 215.596 152.341C216.564 151.679 217.836 150.356 218.396 149.389C218.956 148.421 219.465 146.589 219.516 145.316C219.618 144.044 219.669 142.924 219.669 142.771C219.669 142.618 220.076 142.873 220.585 143.382C221.094 143.84 222.418 144.502 223.538 144.858C225.116 145.316 226.083 145.367 227.712 144.909C228.934 144.553 230.613 143.687 231.53 142.924C232.395 142.109 233.413 140.735 233.82 139.869C234.177 138.953 234.482 137.273 234.482 136.153C234.482 135.033 234.024 133.201 233.464 132.081C232.904 130.961 232.242 129.943 231.937 129.79C231.632 129.637 231.53 129.383 231.632 129.179C231.733 128.925 232.65 128.619 233.668 128.416C234.737 128.161 236.315 127.194 237.486 126.125C238.758 124.852 239.675 123.376 240.082 121.9C240.54 120.22 240.54 119.1 240.133 117.726C239.827 116.657 238.809 114.977 237.893 113.959C237.027 112.991 235.5 111.871 234.584 111.566C233.413 111.108 233.006 110.751 233.26 110.192C233.464 109.784 233.973 108.461 234.431 107.29C235.144 105.457 235.144 104.796 234.584 102.708C234.177 101.283 233.21 99.5523 232.293 98.5851C231.377 97.6688 229.85 96.7016 228.883 96.3453C227.915 96.0399 226.185 95.938 225.065 96.0908C223.945 96.1926 222.621 96.498 222.112 96.6507C221.45 96.9053 221.247 96.6507 221.247 95.6835C221.247 94.9708 220.941 93.6473 220.585 92.7819C220.178 91.8656 219.16 90.4912 218.294 89.7276C217.378 88.9131 215.749 88.0986 214.629 87.7932C213.255 87.4369 211.88 87.4369 210.404 87.7932C209.233 88.0986 207.655 88.9131 206.841 89.5749C206.077 90.2876 205.11 91.6111 204.652 92.5274L203.786 94.1564C202.157 92.0692 200.834 91.0002 199.867 90.3894C198.798 89.7785 197.22 89.3204 195.896 89.3204H193.758C196.201 85.4516 196.812 83.8226 196.812 82.8554C196.812 81.4809 196.965 81.2264 197.678 81.4809C198.187 81.6337 199.307 81.8882 200.121 82.0409C200.936 82.1936 202.514 82.1936 203.532 81.99C204.652 81.8373 206.281 80.9719 207.35 80.0556C208.368 79.1393 209.488 77.6121 209.895 76.7468C210.251 75.8305 210.557 74.2524 210.557 73.2852C210.557 72.318 210.353 70.9436 210.048 70.2309C209.742 69.5182 208.877 68.1947 208.062 67.3293L206.535 65.6494C208.673 65.0894 210.048 64.4277 211.015 63.7659C211.982 63.1041 213.255 61.7806 213.815 60.8134C214.476 59.6935 214.833 58.1154 214.833 56.4864C214.833 54.8066 214.476 53.3303 213.815 52.1595C213.204 51.1923 211.931 49.8688 211.015 49.2579C210.048 48.647 208.317 47.9853 207.095 47.7307C205.924 47.5271 204.957 47.2726 204.957 47.2217C204.957 47.1199 205.415 46.3054 205.975 45.44C206.637 44.371 207.044 42.7929 207.044 41.2149C207.095 39.8404 206.841 38.1096 206.484 37.397C206.128 36.6843 205.364 35.5644 204.754 34.9535C204.194 34.2917 202.972 33.3755 202.157 32.9682C201.343 32.5101 199.561 32.2046 198.187 32.2555C196.863 32.2555 195.081 32.6628 194.267 33.07C192.791 33.8336 192.74 33.8336 192.536 32.4592C192.384 31.6447 191.773 30.2193 191.111 29.2521C190.449 28.2849 188.922 26.9614 187.649 26.2996C186.377 25.6887 184.646 25.1797 183.831 25.1797C183.017 25.1797 181.286 25.6887 180.014 26.2996C178.741 26.9614 177.214 28.2849 176.552 29.2521C175.941 30.2193 175.33 31.2883 175.279 31.5429C175.178 31.8483 174.414 31.5429 173.599 30.8811C172.785 30.2193 171.258 29.5066 170.189 29.2012C168.967 28.8958 167.593 28.9467 166.269 29.2521C165.149 29.5576 163.418 30.5248 162.4 31.441C161.433 32.3064 160.364 33.8845 160.059 34.8517C159.753 35.8189 159.651 37.5497 159.753 38.6696C159.855 39.7895 160.059 41.0112 160.211 41.4185C160.364 41.9784 159.753 42.1821 157.615 42.3348C155.63 42.4366 154.255 42.8438 152.881 43.7601C151.863 44.4728 150.896 45.0328 150.743 45.0328C150.59 45.0328 150.488 44.5237 150.488 43.9128C150.488 43.2511 149.979 41.9275 149.419 40.9603C148.809 39.9931 148.045 39.0259 147.74 38.8732C147.434 38.6696 148.198 38.0078 149.47 37.3461C150.896 36.5825 152.168 35.3608 152.881 34.0881C153.594 32.8664 154.052 31.1865 154.052 29.9139C154.052 28.6922 153.797 27.1141 153.492 26.3505C153.186 25.536 152.474 24.3652 151.863 23.7034C151.252 23.0417 149.827 22.0745 148.707 21.5654C147.587 21.0564 145.907 20.5982 144.991 20.5982H143.362C144.94 17.4421 145.398 15.6604 145.398 14.6423C145.398 13.5733 144.889 11.6898 144.278 10.4172C143.514 8.89001 142.445 7.77009 141.071 7.00651C139.849 6.29384 138.169 5.83569 136.846 5.83569C135.675 5.83569 133.944 6.14112 133.028 6.49746C132.163 6.9047 131.043 7.61737 130.635 8.07552C130.228 8.53367 129.719 8.94091 129.465 8.89001C129.261 8.89001 128.905 7.97371 128.599 6.85379C128.294 5.73388 127.479 4.10491 126.665 3.23952C125.901 2.32322 124.73 1.35602 124.018 0.999686C123.305 0.643349 121.931 0.236107 120.963 0.0833909C119.996 -0.0693249 118.52 -0.0184194 117.655 0.287012Z" fill="black"/>
<path d="M91.1329 50.4797C90.9293 50.6833 90.7766 51.7014 90.8275 52.7704C90.8784 53.8394 90.6238 55.3157 90.2166 56.0793C89.8603 56.8938 88.8931 58.0646 88.0786 58.8282C87.2641 59.5408 86.0424 60.3044 85.3297 60.508L84.0571 60.9153C86.6023 63.206 87.7222 64.6823 88.1295 65.6495C88.5367 66.6167 88.8931 68.1947 88.8931 69.0601C88.8931 69.9764 88.384 71.7581 87.7731 73.0307C87.0096 74.507 85.8896 75.7287 84.5661 76.4923C82.988 77.3577 81.8681 77.6122 79.6283 77.5104L76.7776 77.3577C77.2357 81.7355 77.083 82.9573 76.4213 84.2299C75.9631 85.1971 75.0468 86.5206 74.436 87.1824C73.876 87.8442 72.3488 88.6587 71.0762 89.0659C69.6509 89.4731 68.1237 89.575 67.0038 89.3713C66.0366 89.1677 64.5094 88.6077 63.6949 88.2005C62.8295 87.7933 61.7096 86.7752 61.2006 85.9607L60.2334 84.4844C58.7571 87.4369 57.5863 88.8623 56.67 89.575C55.8046 90.2876 54.1756 90.9494 53.1066 91.1021L51.2231 91.3566C53.8193 94.8182 54.0229 95.5818 54.0229 98.4325C54.0229 100.265 53.7684 102.25 53.5139 102.759C53.0557 103.676 53.1575 103.727 54.532 103.421C55.3465 103.268 56.9245 103.319 57.9426 103.574C59.0117 103.879 60.5897 104.694 61.506 105.457C62.3714 106.272 63.3895 107.646 63.7967 108.512C64.1531 109.428 64.4585 111.108 64.4585 112.228C64.4585 113.348 64.0513 115.129 63.5422 116.148C63.0841 117.166 61.9133 118.54 60.997 119.202L59.368 120.373C61.8623 122.154 62.9823 123.478 63.5422 124.445C64.0513 125.463 64.4585 127.245 64.4585 128.619C64.4585 129.994 64.1531 131.674 63.7458 132.437C63.3895 133.252 62.4223 134.423 61.6078 135.135C60.7933 135.848 59.2153 136.764 58.0954 137.12C56.8227 137.528 55.3974 137.63 54.2775 137.426C52.6485 137.07 52.5467 137.12 52.9539 137.986C53.2085 138.546 53.5139 139.971 53.6666 141.244C53.8193 142.771 53.6666 144.095 53.0557 145.316C52.5976 146.283 52.3431 147.607 52.4958 148.218C52.6655 148.998 53.1236 149.389 53.8702 149.389C54.532 149.389 55.9573 149.949 57.0773 150.61C58.2481 151.323 59.5207 152.647 60.1316 153.767C60.6915 154.886 61.2006 155.854 61.2515 156.006C61.3024 156.159 62.0151 155.497 62.7786 154.581C63.5422 153.665 65.1203 152.545 66.2402 152.087C67.5977 151.578 69.0739 151.425 70.669 151.628C72.2979 151.832 73.6724 152.392 74.6905 153.308C75.6068 154.123 76.7776 155.65 77.3376 156.77C78.0502 158.195 78.2539 159.468 78.1011 161.097L77.8975 163.388C82.4281 163.082 83.548 163.337 85.3297 164.304C86.9077 165.169 87.9768 166.187 88.7912 167.765C89.4021 168.987 89.9112 170.871 89.9112 171.889C89.9112 172.958 89.453 174.739 88.8931 175.859C88.3331 176.979 87.2132 178.405 86.3478 179.016L84.8206 180.186C88.1804 182.07 89.5548 183.088 90.013 183.699C90.522 184.259 91.082 185.633 91.2856 186.702C91.5401 187.72 91.8456 188.586 92.0492 188.586C92.3037 188.586 93.1691 188.077 94.0345 187.415C95.2562 186.55 96.2743 186.295 98.7178 186.346C100.449 186.346 102.332 186.55 102.892 186.753C103.808 187.059 103.91 186.906 103.757 184.921C103.656 183.393 103.961 182.019 104.776 180.441C105.539 178.965 106.659 177.743 107.983 177.03C109.204 176.318 110.884 175.859 112.157 175.859C113.378 175.859 115.109 176.165 115.975 176.521C116.891 176.928 118.316 178.048 119.182 179.066L120.709 180.899C123.051 178.048 124.527 176.878 125.392 176.521C126.308 176.165 128.039 175.859 129.21 175.859C130.534 175.859 132.213 176.318 133.435 177.03C134.555 177.692 135.98 179.117 136.642 180.186C137.508 181.764 137.762 182.884 137.66 184.921C137.508 187.109 137.66 187.517 138.271 187.262C138.678 187.059 140.053 186.804 141.326 186.651C143.005 186.448 144.227 186.702 146.06 187.466C147.383 188.077 148.452 188.738 148.452 188.942C148.452 189.197 148.758 189.349 149.063 189.4C149.521 189.4 149.674 188.891 149.572 187.873C149.47 186.957 149.929 185.328 150.59 184.004C151.252 182.732 152.576 181.204 153.543 180.543C154.51 179.932 155.528 179.321 155.834 179.27C156.139 179.168 155.477 178.252 154.408 177.234C153.186 175.961 152.423 174.689 152.219 173.416C152.016 172.398 151.965 170.616 152.117 169.496C152.219 168.376 152.779 166.747 153.39 165.933C153.95 165.118 155.528 163.846 156.903 163.184C158.837 162.217 159.906 162.013 161.688 162.217L163.978 162.522C163.52 160.028 163.571 158.501 163.724 157.534C163.877 156.566 164.386 155.141 164.895 154.326C165.353 153.563 166.524 152.494 167.389 151.934C168.305 151.374 169.782 150.763 170.596 150.61C171.411 150.458 172.989 150.458 174.007 150.61C175.279 150.814 176.705 151.628 178.079 152.952C179.301 154.021 180.37 154.988 180.523 154.988C180.675 154.988 181.133 154.276 181.541 153.359C181.948 152.494 183.221 151.069 184.34 150.305C185.46 149.49 186.835 148.88 187.446 148.88C188.006 148.88 188.667 148.778 188.82 148.625C189.024 148.472 188.617 147.505 187.904 146.436C187.191 145.418 186.478 143.636 186.326 142.516C186.122 141.193 186.326 139.768 186.835 138.444C187.293 137.324 187.649 136.408 187.649 136.408C187.649 136.408 186.275 136.408 184.646 136.408C182.355 136.408 181.235 136.153 180.166 135.339C179.403 134.779 178.232 133.506 177.57 132.539C176.959 131.572 176.297 129.994 176.094 129.027C175.941 128.059 176.094 126.379 176.399 125.31C176.705 124.292 177.825 122.562 178.945 121.493L180.93 119.609C177.825 116.657 176.705 114.926 176.399 113.857C176.094 112.839 175.941 111.159 176.094 110.192C176.297 109.224 176.959 107.646 177.57 106.679C178.232 105.712 179.403 104.439 180.166 103.879C181.235 103.116 182.457 102.759 184.748 102.709C187.089 102.658 187.853 102.454 187.7 101.945C187.598 101.589 187.344 100.469 187.14 99.5015C186.937 98.5343 186.937 96.9053 187.191 95.9381C187.446 94.9709 188.107 93.5456 188.667 92.7311C189.227 91.9675 189.686 91.3057 189.686 91.2039C189.686 91.153 188.718 90.9494 187.548 90.7967C186.326 90.644 184.493 90.0331 183.424 89.4222C182.253 88.7096 181.133 87.4878 180.472 86.1134L179.454 83.9754C176.908 86.4697 175.687 87.4369 175.025 87.7424C174.414 88.0478 172.683 88.3023 171.207 88.3023C169.273 88.3023 168.102 87.9969 166.778 87.1315C165.811 86.5206 164.487 85.1971 163.826 84.2299C162.858 82.7536 162.655 81.9392 162.808 79.4957L162.96 76.4923C159.804 76.8995 158.124 76.7977 157.208 76.5432C156.343 76.2887 154.866 75.4742 154.001 74.6597C153.085 73.8961 152.067 72.6744 151.71 71.8599C151.303 71.0963 150.998 69.3146 150.998 67.9402C150.998 66.5149 151.354 64.7332 151.761 63.8678C152.168 63.0024 153.288 61.7807 154.154 61.1189L155.834 59.8972C153.492 58.7263 152.016 57.5555 151.099 56.5374C150.234 55.5193 149.47 54.4503 149.47 54.1958C149.47 53.9413 149.267 53.1268 148.961 52.4141L148.452 51.1415C146.263 52.9741 144.736 53.6867 143.616 53.8903C142.445 54.094 140.715 54.0431 139.544 53.7376C138.424 53.4322 137.406 53.1777 137.253 53.1777C137.1 53.1777 136.948 54.3994 136.897 55.8247C136.846 57.9119 136.489 58.9809 135.37 60.5589C134.453 61.8316 133.028 62.9515 131.603 63.5623C129.872 64.275 128.803 64.4277 126.817 64.1223C124.73 63.8169 123.916 63.3587 122.083 61.5261L119.945 59.2863C116.789 62.6461 115.364 63.5623 113.837 63.9696C112.004 64.4277 111.088 64.4277 109.255 63.9187C107.932 63.5114 106.252 62.4933 105.285 61.5261C104.419 60.5589 103.452 58.8791 103.147 57.7591C102.841 56.6392 102.739 54.9594 102.892 54.0431L103.147 52.4141C99.3286 53.5849 98.2596 53.6358 96.5289 53.1777C95.2562 52.8722 93.6273 52.1087 92.8637 51.396C92.1001 50.7342 91.3365 50.327 91.1329 50.4797Z" fill="black"/>
<path d="M117.146 2.88324C116.586 3.23958 115.619 4.10497 115.008 4.81764C114.397 5.53031 113.735 6.90476 113.582 7.87196C113.328 9.14459 113.531 10.2645 114.142 11.6389C114.702 12.708 115.873 14.0315 116.891 14.6424C118.266 15.4059 119.182 15.6096 120.964 15.355C122.745 15.1514 123.611 14.6933 124.934 13.2679C126.309 11.6899 126.563 11.0281 126.563 8.89006C126.563 6.75204 126.309 6.03937 124.883 4.51221C123.509 2.98505 122.847 2.62871 120.709 2.476C119.182 2.32328 117.757 2.476 117.146 2.88324ZM102.23 8.38101C100.958 8.99187 99.787 10.01 99.3288 10.9263C98.9216 11.7408 98.5653 13.3188 98.5653 14.3369C98.6162 15.4059 98.8707 16.7804 99.227 17.3912C99.5834 18.0021 100.398 18.9184 101.111 19.4784C101.823 20.0383 103.198 20.6492 104.165 20.8019C105.387 21.0564 106.506 20.8528 107.728 20.2419C108.695 19.7329 110.019 18.5112 110.681 17.544C111.648 16.1695 111.852 15.3041 111.597 13.7261C111.444 12.6061 110.884 11.1299 110.375 10.4172C109.866 9.70455 108.848 8.89006 108.186 8.53373C107.525 8.22829 106.405 7.82105 105.692 7.66834C104.928 7.46472 103.554 7.77015 102.23 8.38101ZM133.283 8.89006C132.417 9.45002 131.297 10.6208 130.89 11.4353C130.483 12.2498 130.127 13.8788 130.127 14.9987C130.127 16.5768 130.483 17.4422 131.756 18.8675C133.181 20.3947 133.843 20.751 135.981 20.9546C137.966 21.1073 138.882 20.9037 140.155 20.1401C141.071 19.5293 142.191 18.2566 142.598 17.2894C143.006 16.3222 143.362 14.9987 143.362 14.3369C143.362 13.7261 142.955 12.4025 142.395 11.4353C141.886 10.4681 140.664 9.2464 139.748 8.73735C138.78 8.2792 137.304 7.87196 136.49 7.87196C135.675 7.87196 134.199 8.3301 133.283 8.89006ZM123.712 18.7148C123.153 18.9693 122.593 19.5802 122.44 20.0383C122.287 20.4965 122.338 21.3619 122.542 21.9727C122.796 22.6345 123.458 23.2454 124.018 23.3981C124.578 23.5508 125.443 23.449 125.952 23.1944C126.41 22.9908 126.97 22.38 127.225 21.9218C127.429 21.4637 127.378 20.5983 127.123 19.9365C126.92 19.3256 126.258 18.6639 125.698 18.5112C125.138 18.3584 124.222 18.4094 123.712 18.7148ZM114.651 19.122C113.99 19.4275 113.684 20.1401 113.735 21.0055C113.786 21.7691 114.091 22.6854 114.448 23.0417C114.804 23.3981 115.568 23.6526 116.128 23.6526C116.688 23.7035 117.604 23.1944 118.164 22.6345C119.131 21.6164 119.131 21.4637 118.418 20.191C117.96 19.4275 117.146 18.7657 116.637 18.7148C116.077 18.613 115.16 18.8166 114.651 19.122ZM93.5256 21.9727C92.6093 22.4818 91.3876 23.7035 90.8785 24.6707C90.3186 25.6379 89.9114 26.9614 89.9114 27.5723C89.9114 28.2341 90.3186 29.6085 90.8277 30.6266C91.2858 31.6447 92.3548 32.9174 93.2202 33.4264C94.3401 34.1391 95.4091 34.3427 97.2926 34.19C99.4306 33.9864 100.092 33.63 101.518 32.1029C102.79 30.6266 103.147 29.8121 103.147 28.0814C103.147 26.8596 102.739 25.2816 102.129 24.2635C101.569 23.3981 100.449 22.2782 99.5834 21.8709C98.718 21.4637 97.4453 21.1073 96.6309 21.1073C95.8673 21.1073 94.4928 21.5146 93.5256 21.9727ZM141.122 24.7216C139.748 25.9942 139.137 27.0123 138.933 28.4886C138.73 29.7612 138.882 31.1866 139.34 32.2556C139.748 33.2228 140.613 34.3936 141.326 34.8518C142.038 35.3608 143.413 35.9208 144.38 36.1244C145.653 36.3789 146.722 36.2262 148.147 35.5644C149.216 35.0045 150.54 33.8337 151.15 32.8155C151.965 31.4411 152.118 30.5248 151.863 28.7431C151.659 27.1142 151.1 25.9942 149.98 24.9252C148.707 23.7035 147.892 23.3472 145.704 23.1944C143.209 23.0417 142.802 23.1435 141.122 24.7216ZM107.728 24.6707C107.168 25.2307 106.71 26.0451 106.71 26.4524C106.71 26.8596 107.168 27.6741 107.728 28.2341C108.288 28.794 108.899 29.2522 109.103 29.2522C109.357 29.2522 110.019 28.8958 110.63 28.4886C111.342 28.0304 111.801 27.216 111.801 26.4524C111.801 25.6888 111.342 24.8743 110.63 24.4162C110.019 24.0089 109.357 23.6526 109.103 23.6526C108.899 23.6526 108.288 24.1107 107.728 24.6707ZM129.108 25.1798C128.854 25.7397 128.701 26.656 128.854 27.216C129.007 27.7759 129.516 28.4377 129.974 28.6413C130.483 28.8958 131.196 28.9977 131.501 28.8958C131.857 28.794 132.366 28.7431 132.672 28.7431C132.977 28.7431 133.486 28.1832 133.792 27.4705C134.352 26.4015 134.301 26.096 133.435 25.1798C132.875 24.6198 131.806 24.1107 131.043 24.1616C130.177 24.1616 129.465 24.5689 129.108 25.1798ZM116.993 26.7069C116.128 27.2669 115.008 28.2341 114.6 28.8449C114.193 29.5067 113.735 30.6775 113.531 31.5429C113.379 32.4083 113.48 33.8846 113.786 34.8518C114.091 35.819 115.008 37.2952 115.924 38.1606C117.146 39.3823 118.011 39.7387 120.098 39.8405C122.083 39.9423 123.153 39.7387 124.374 38.9751C125.291 38.3642 126.461 37.2952 126.92 36.4807C127.429 35.7171 127.785 34.1391 127.785 32.8155C127.785 31.2884 127.429 29.9648 126.665 28.8449C126.054 27.9795 124.832 26.8596 124.018 26.4524C123.203 26.0451 121.625 25.6888 120.556 25.6888C119.538 25.6888 117.909 26.147 116.993 26.7069ZM53.3614 28.7431C52.496 29.3031 51.3761 30.423 50.9688 31.2884C50.5616 32.1538 50.2052 33.4264 50.2052 34.19C50.2052 35.0045 50.6125 36.4298 51.1724 37.397C51.6815 38.3642 52.9032 39.5859 53.8195 40.095C54.7867 40.5532 56.1611 40.9604 56.9247 40.9604C57.7392 40.9604 59.0118 40.6041 59.8772 40.1968C60.7426 39.7896 61.8625 38.6697 62.4225 37.7534C62.9825 36.888 63.4406 35.3099 63.4406 34.3427C63.4406 33.3246 62.9825 31.7974 62.2698 30.7793C61.6589 29.8121 60.539 28.6922 59.8772 28.3868C59.1646 28.0305 57.7901 27.725 56.8229 27.725C55.8557 27.725 54.2777 28.1832 53.3614 28.7431ZM180.268 28.7431C179.454 29.3031 178.487 30.2703 178.13 30.9321C177.774 31.5429 177.519 33.121 177.468 34.4445C177.468 36.5316 177.723 37.1425 179.097 38.6187C180.065 39.5859 181.541 40.5022 182.559 40.7059C183.832 41.0113 184.901 40.8077 186.326 40.1459C187.446 39.5859 188.82 38.5169 189.38 37.7534C190.093 36.7862 190.449 35.5135 190.449 34.0882C190.449 32.6119 190.093 31.3902 189.38 30.423C188.82 29.6594 187.751 28.6922 187.09 28.3868C186.428 28.0305 184.952 27.725 183.832 27.725C182.661 27.725 181.185 28.1323 180.268 28.7431ZM164.844 32.3065C163.979 32.8665 162.859 33.9864 162.451 34.8518C162.044 35.7171 161.688 36.9898 161.688 37.8043C161.688 38.5678 162.095 39.9932 162.655 40.9604C163.164 41.9276 164.386 43.1493 165.302 43.6584C166.269 44.1165 167.746 44.5238 168.56 44.5238C169.374 44.5238 170.851 44.0656 171.716 43.5057C172.632 42.9457 173.752 41.724 174.211 40.8586C174.77 39.6878 174.974 38.466 174.77 36.888C174.567 35.1063 174.109 34.2409 172.683 32.9683C171.207 31.6447 170.393 31.2884 168.662 31.2884C167.44 31.2884 165.862 31.6956 164.844 32.3065ZM71.6364 32.3574C70.6692 32.561 69.3456 33.4264 68.6839 34.19C67.9712 35.0554 67.3603 36.5316 67.2076 37.9061C67.004 39.6369 67.2076 40.6041 67.9712 41.8767C68.582 42.7421 69.651 43.9129 70.4146 44.371C71.2291 44.8292 72.6545 45.2364 73.6217 45.2364C74.5889 45.1855 76.116 44.7783 77.0323 44.2183C77.9486 43.7093 79.0176 42.6403 79.4758 41.8767C79.883 41.0622 80.2393 39.5859 80.2393 38.5678C80.2393 37.4988 79.8321 36.0226 79.3231 35.259C78.8649 34.4954 77.9995 33.5791 77.4396 33.1719C76.8796 32.7646 75.7088 32.3065 74.8943 32.1538C74.0289 32.0011 72.6036 32.1029 71.6364 32.3574ZM106.201 33.3246C105.641 33.8846 105.183 34.4954 105.183 34.7499C105.183 34.9536 105.539 35.6153 105.947 36.2771C106.405 36.9389 107.219 37.397 107.983 37.397C108.746 37.397 109.561 36.9389 110.019 36.2771C110.426 35.6153 110.783 34.9536 110.783 34.7499C110.783 34.4954 110.324 33.8846 109.764 33.3246C109.204 32.7646 108.39 32.3065 107.983 32.3065C107.575 32.3065 106.761 32.7646 106.201 33.3246ZM131.501 33.4264C131.043 34.0882 130.89 35.0045 131.043 35.5644C131.246 36.0735 131.603 36.7352 131.908 36.9898C132.163 37.2443 132.977 37.3461 133.639 37.2952C134.301 37.1934 135.166 36.6843 135.522 36.1244C136.082 35.3099 136.082 34.8518 135.573 33.8337C135.166 33.0701 134.403 32.5101 133.588 32.4083C132.672 32.3065 132.061 32.6119 131.501 33.4264ZM194.878 35.3608C194.013 35.9208 192.893 37.0407 192.486 37.9061C192.078 38.7715 191.722 40.1968 191.722 41.1131C191.722 41.9785 192.231 43.5057 192.893 44.371C193.504 45.2873 194.776 46.4073 195.642 46.8145C196.558 47.2217 197.78 47.5781 198.34 47.5781C198.9 47.5781 200.172 47.2217 201.139 46.8145C202.107 46.4073 203.379 45.2873 203.99 44.371C204.754 43.0984 204.957 42.1821 204.805 40.1968C204.601 38.0588 204.245 37.397 202.717 35.9717C201.241 34.699 200.427 34.3427 198.696 34.3427C197.474 34.3427 195.896 34.7499 194.878 35.3608ZM38.2425 36.0735C37.3771 36.4298 36.3081 37.397 35.7481 38.2115C35.2391 39.026 34.6791 40.3495 34.5264 41.2149C34.3737 42.1312 34.6791 43.5057 35.2391 44.7274C35.799 45.7964 36.868 47.1199 37.7334 47.629C38.5479 48.138 40.0751 48.5962 41.0423 48.5962C42.1113 48.5962 43.5366 48.138 44.6056 47.4254C45.5728 46.8145 46.6928 45.6946 46.9982 45.0328C47.3545 44.3201 47.66 42.8439 47.66 41.724C47.7109 40.4513 47.3036 39.1787 46.6419 38.2624C46.0819 37.4988 44.9111 36.5316 44.0966 36.1244C43.2312 35.7171 41.9586 35.3608 41.1441 35.3608C40.3805 35.4117 39.057 35.7171 38.2425 36.0735ZM95.1037 38.8733C94.2383 39.4841 93.1184 40.6041 92.7111 41.4694C92.3039 42.3348 91.9476 43.9638 91.9476 45.1855C91.9985 46.9672 92.3039 47.629 93.882 49.207C95.46 50.836 96.1218 51.0905 98.0562 51.1414C99.4815 51.1414 100.958 50.7342 101.976 50.1233C102.892 49.5634 104.012 48.3417 104.47 47.4254C105.03 46.3563 105.234 45.1346 105.03 43.7602C104.827 42.3857 104.165 41.164 103.045 40.095C101.823 38.8733 100.754 38.3642 99.0743 38.1606C97.2926 37.9061 96.4272 38.0588 95.1037 38.8733ZM138.933 39.2805C138.068 39.7387 136.897 40.8586 136.286 41.6731C135.624 42.6403 135.217 44.0147 135.217 45.2873C135.217 46.4073 135.675 47.9853 136.184 48.8507C136.693 49.7161 138.068 50.7851 139.239 51.2942C140.918 52.0068 141.733 52.0577 143.362 51.6505C144.584 51.3451 145.907 50.5306 146.671 49.6143C147.383 48.7489 148.096 47.4763 148.249 46.6618C148.452 45.8982 148.452 44.5238 148.249 43.6075C148.045 42.6403 147.231 41.3676 146.162 40.4513C145.194 39.5859 144.075 38.9242 143.718 38.8733C143.413 38.8733 142.547 38.7715 141.835 38.6187C141.122 38.5169 139.849 38.8224 138.933 39.2805ZM110.324 40.7059C109.561 41.2658 109.154 41.9785 109.204 42.793C109.204 43.5057 109.764 44.3201 110.528 44.7783C111.648 45.4401 111.953 45.4401 113.073 44.7783C113.888 44.2692 114.346 43.5566 114.346 42.7421C114.346 41.9785 113.888 41.164 113.175 40.7059C112.564 40.2986 111.953 39.9423 111.801 39.9423C111.648 39.9423 110.986 40.2986 110.324 40.7059ZM127.072 40.5531C126.665 40.9095 126.41 41.6731 126.461 42.3348C126.512 42.9966 126.919 43.862 127.327 44.2692C127.734 44.6765 128.498 45.0328 128.956 45.0328C129.465 45.0837 130.279 44.6765 130.737 44.1674C131.246 43.6584 131.654 42.8439 131.654 42.3857C131.654 41.8767 131.297 41.1131 130.89 40.7059C130.483 40.2986 129.617 39.9423 128.956 39.9423C128.294 39.9423 127.479 40.1968 127.072 40.5531ZM118.927 43.6075C118.52 43.9129 118.266 44.6765 118.317 45.2873C118.367 45.8473 118.775 46.7127 119.284 47.1708C119.793 47.6799 120.556 48.0871 120.964 48.0871C121.371 48.0871 122.185 47.629 122.745 47.069C123.56 46.2036 123.662 45.7455 123.254 44.6256C122.847 43.6075 122.338 43.2002 121.218 43.0984C120.353 42.9966 119.335 43.2511 118.927 43.6075ZM60.5899 44.1165C60.0299 44.4219 59.47 45.1346 59.2664 45.7455C59.0628 46.3054 59.1137 47.2217 59.4191 47.7308C59.6736 48.1889 60.3354 48.698 60.8953 48.8507C61.4553 49.0034 62.3716 48.7998 62.9316 48.4944C63.4915 48.138 64.0515 47.5272 64.2042 47.2217C64.3569 46.8654 64.2042 46.1018 63.9497 45.5419C63.6442 44.9819 63.0334 44.3201 62.5243 44.0656C61.9643 43.8111 61.2008 43.862 60.5899 44.1165ZM176.45 44.1165C176.043 44.4729 175.789 45.1855 175.839 45.7964C175.89 46.3563 176.399 47.2726 176.959 47.8326C177.876 48.698 178.181 48.7489 179.25 48.2398C179.963 47.8835 180.675 47.1708 180.828 46.7127C181.032 46.2036 180.879 45.2873 180.574 44.6765C180.217 43.862 179.556 43.5057 178.588 43.5057C177.825 43.5057 176.858 43.7602 176.45 44.1165ZM50.9688 45.7964C50.307 46.9163 50.307 47.2217 50.9688 48.3417C51.4779 49.1561 52.1905 49.6143 53.005 49.6143C53.7686 49.6143 54.5831 49.1561 55.0412 48.4435C55.4485 47.8326 55.8048 47.1708 55.8048 46.9163C55.8048 46.7127 55.3467 46.1018 54.7867 45.5419C54.2267 44.9819 53.3105 44.5238 52.7505 44.5238C52.1905 44.5238 51.427 45.0837 50.9688 45.7964ZM154.561 45.2873C153.848 45.6946 152.932 46.5091 152.474 47.1708C152.016 47.8326 151.507 49.1052 151.354 49.9706C151.15 50.9887 151.252 52.3123 151.71 53.2795C152.067 54.1958 152.932 55.4684 153.594 56.1302C154.256 56.741 155.732 57.4028 156.852 57.5555C158.226 57.81 159.397 57.6064 160.517 57.0465C161.433 56.5883 162.655 55.6211 163.215 54.8575C163.928 53.9412 164.284 52.6686 164.233 51.2942C164.233 50.0724 163.877 48.4944 163.469 47.7308C163.011 46.9163 161.993 45.8982 161.179 45.4401C160.313 44.931 158.786 44.5238 157.717 44.5238C156.699 44.5747 155.274 44.8801 154.561 45.2873ZM184.901 45.6946C184.493 46.3054 184.341 47.2217 184.493 47.7817C184.697 48.2907 185.308 48.9525 185.868 49.207C186.547 49.5464 187.259 49.5294 188.006 49.1561C188.668 48.8507 189.278 48.138 189.431 47.5781C189.584 47.0181 189.431 46.1018 189.177 45.5419C188.82 44.8801 188.159 44.5238 187.14 44.5238C186.156 44.5238 185.41 44.914 184.901 45.6946ZM78.814 46.56C77.9486 47.1199 76.8287 48.2398 76.4215 49.1052C76.0142 49.9706 75.6579 51.396 75.6579 52.3123C75.6579 53.1777 76.116 54.7048 76.676 55.6211C77.2359 56.4865 78.3559 57.6064 79.2212 58.0137C80.0357 58.4209 81.4102 58.7772 82.2756 58.7772C83.09 58.7772 84.4645 58.4209 85.3299 58.0137C86.1444 57.6064 87.3152 56.4865 87.8751 55.6211C88.4351 54.7048 88.8932 53.1268 88.8932 52.1595C88.8932 51.1924 88.4351 49.6143 87.8751 48.7489C87.3152 47.8326 86.1444 46.7127 85.3299 46.3054C84.4645 45.8982 83.0391 45.5419 82.1228 45.5419C81.2575 45.5419 79.7303 46 78.814 46.56ZM67.5639 48.8507C66.8513 49.3598 66.3931 50.1233 66.3931 50.7851C66.444 51.396 66.7494 52.2105 67.1058 52.5668C67.4621 52.9231 68.3275 53.1777 69.0402 53.1777C69.8038 53.1777 70.6182 52.8722 70.9746 52.5668C71.3309 52.2105 71.5854 51.396 71.5854 50.7851C71.5854 50.1233 71.0764 49.2579 70.4146 48.8507C69.8038 48.4435 69.1929 48.0871 69.0402 48.0871C68.8875 48.0871 68.2257 48.4435 67.5639 48.8507ZM169.884 48.8507C169.12 49.4107 168.713 50.1233 168.764 50.9378C168.764 51.6505 169.324 52.465 170.087 52.9231C171.207 53.5849 171.513 53.5849 172.632 52.9231C173.447 52.4141 173.905 51.7014 173.905 50.8869C173.905 50.1233 173.447 49.3089 172.734 48.8507C172.123 48.4435 171.513 48.0871 171.36 48.0871C171.207 48.0871 170.545 48.4435 169.884 48.8507ZM108.492 49.7161C107.932 50.0724 107.219 50.5306 106.914 50.836C106.608 51.1414 106.099 51.905 105.794 52.5668C105.437 53.1777 105.183 54.5012 105.183 55.4684C105.183 56.4356 105.488 57.8609 105.896 58.6754C106.252 59.439 107.219 60.508 108.034 61.0171C108.848 61.5261 110.426 61.9843 111.546 62.0352C112.666 62.0352 114.193 61.6788 114.957 61.1698C115.771 60.7116 116.84 59.5408 117.4 58.6754C117.96 57.7591 118.418 56.3847 118.418 55.6211C118.418 54.8066 118.062 53.534 117.655 52.6686C117.247 51.8032 116.28 50.6833 115.466 50.1233C114.55 49.4107 113.328 49.1052 111.801 49.1052C110.528 49.1052 109.052 49.4107 108.492 49.7161ZM123.763 50.7851C122.847 51.6505 121.931 53.2286 121.727 54.1958C121.422 55.5193 121.625 56.5374 122.287 57.9627C122.847 59.0827 123.916 60.4571 124.68 61.0171C125.63 61.7297 126.818 62.0691 128.243 62.0352C129.414 61.9843 131.043 61.5261 131.857 61.0171C132.672 60.508 133.639 59.439 133.995 58.6754C134.403 57.8609 134.708 56.4356 134.708 55.4684C134.708 54.5012 134.352 53.0249 133.944 52.1595C133.537 51.2942 132.468 50.2761 131.654 49.8688C130.788 49.4616 129.058 49.1052 127.785 49.1052C125.85 49.1052 125.189 49.3598 123.763 50.7851ZM31.8793 50.2761C30.9121 50.6324 29.6904 51.5487 29.0795 52.3632C28.3669 53.3813 28.0614 54.5521 28.0614 56.4865C28.0614 58.7263 28.316 59.4899 29.4359 60.6607C30.1485 61.4243 31.6757 62.3406 32.7447 62.6969C33.9664 63.0533 35.2391 63.1042 36.2063 62.8497C37.0208 62.5951 38.497 61.577 39.3624 60.6098C40.7368 59.1336 41.0423 58.37 41.0423 56.4865C41.0423 54.7048 40.7368 53.8394 39.6169 52.5668C38.8533 51.7014 37.4789 50.6833 36.5626 50.2761C35.6972 49.9197 34.6282 49.6143 34.2719 49.6143C33.9664 49.6652 32.8465 49.9197 31.8793 50.2761ZM204.194 50.1742C203.328 50.4288 202.259 51.0396 201.699 51.5487C201.19 52.0068 200.478 53.0249 200.07 53.8394C199.663 54.603 199.358 55.7738 199.358 56.4865C199.358 57.1992 199.714 58.4209 200.121 59.2863C200.529 60.1517 201.496 61.2716 202.259 61.8316C203.074 62.4424 204.346 63.0024 205.212 63.1551C206.077 63.3078 207.553 63.1042 208.622 62.646C209.691 62.1879 211.015 61.068 211.575 60.2026C212.135 59.2863 212.593 57.6573 212.593 56.6392C212.593 55.5702 212.237 54.043 211.83 53.1777C211.422 52.3123 210.455 51.3451 209.641 50.9378C208.877 50.5815 207.706 50.1233 206.993 50.0215C206.281 49.8688 205.008 49.9197 204.194 50.1742ZM191.467 50.9378C191.009 51.3451 190.653 52.1595 190.653 52.7195C190.704 53.2286 191.06 54.043 191.467 54.4503C191.875 54.8575 192.689 55.2139 193.198 55.2139C193.758 55.2139 194.573 54.8575 194.98 54.4503C195.438 54.043 195.794 53.2286 195.794 52.6686C195.794 52.1086 195.438 51.2942 195.031 50.8869C194.624 50.4797 193.809 50.1233 193.3 50.1233C192.74 50.1233 191.926 50.4797 191.467 50.9378ZM45.6238 51.5487C44.7075 52.2105 44.5547 52.7195 44.8093 53.8394C44.962 54.603 45.5728 55.4684 46.1328 55.7229C46.8964 56.0793 47.5072 56.0284 48.4235 55.4684C49.1871 55.0102 49.6962 54.2467 49.6962 53.5849C49.7471 52.9231 49.3398 52.0068 48.8308 51.5487C48.3217 51.0396 47.66 50.6324 47.3545 50.6324C47.0491 50.6324 46.2346 51.0396 45.6238 51.5487ZM55.4994 52.1086C54.634 52.6686 53.2595 54.0939 52.496 55.3157C51.2742 57.1992 51.1215 57.81 51.4779 59.5408C51.7324 60.8644 52.496 62.2388 53.7177 63.4096C54.7358 64.4786 56.3139 65.4458 57.332 65.6495C58.6555 65.9549 59.6736 65.7513 61.4044 64.9877C63.0334 64.2241 64.0515 63.3078 64.9169 61.7297C65.7822 60.1517 66.0877 59.0318 65.8841 57.7591C65.7822 56.7919 65.1714 55.3157 64.6114 54.4503C64.0515 53.5849 62.7788 52.5159 61.7098 52.0577C60.6917 51.5487 59.2664 51.1414 58.4519 51.1414C57.6883 51.1414 56.3648 51.5996 55.4994 52.1086ZM177.977 52.3123C176.908 52.974 175.839 54.3485 175.178 55.8756L174.16 58.2682C175.839 62.1879 176.908 63.5623 177.977 64.275C179.199 65.0895 180.523 65.3949 182.152 65.3949C184.086 65.3949 184.952 65.0895 186.173 64.0205C187.09 63.206 188.108 61.9843 188.464 61.2207C188.871 60.4062 189.177 59.0318 189.177 58.1664C189.177 57.2501 188.719 55.7229 188.159 54.8575C187.599 53.9412 186.377 52.7195 185.461 52.1595C184.544 51.5996 182.915 51.1414 181.744 51.1414C180.472 51.1414 179.047 51.5487 177.977 52.3123ZM69.2947 58.0137C68.6329 59.1336 68.6329 59.439 69.2947 60.5589C69.8038 61.3734 70.5164 61.8316 71.3309 61.8316C72.1454 61.8316 72.8581 61.3734 73.3671 60.5589C74.0289 59.439 74.0289 59.1336 73.3671 58.0137C72.8581 57.1992 72.1454 56.741 71.3309 56.741C70.5164 56.741 69.8038 57.1992 69.2947 58.0137ZM166.575 57.9118C165.964 58.8281 165.964 59.2863 166.422 60.2026C166.778 60.8644 167.44 61.4752 167.898 61.577C168.407 61.7297 169.273 61.6279 169.833 61.3225C170.393 61.0171 170.953 60.3553 171.105 59.7953C171.258 59.2354 171.105 58.3191 170.851 57.7591C170.494 57.0974 169.833 56.741 168.815 56.741C167.847 56.741 167.084 57.1483 166.575 57.9118ZM191.976 60.0499C191.315 61.1698 191.315 61.4752 191.976 62.5951C192.486 63.4096 193.198 63.8678 194.013 63.8678C194.827 63.8678 195.54 63.4096 196.049 62.5951C196.711 61.4752 196.711 61.1698 196.049 60.0499C195.54 59.2354 194.827 58.7772 194.013 58.7772C193.198 58.7772 192.486 59.2354 191.976 60.0499ZM44.402 60.2026C43.7912 60.7625 43.5875 61.5261 43.7912 62.4933C43.9948 63.4605 44.5038 63.9696 45.471 64.1732C46.2855 64.3768 47.2527 64.275 47.66 64.0205C48.0672 63.715 48.5254 62.9515 48.5763 62.2897C48.6781 61.6279 48.4235 60.6607 47.9654 60.2026C47.5072 59.6935 46.7437 59.2863 46.1837 59.2863C45.6747 59.2863 44.8602 59.6935 44.402 60.2026ZM156.801 62.0861C155.986 62.4933 154.765 63.5623 154.154 64.4786C153.492 65.4967 153.034 66.973 153.034 68.1947C153.034 69.7728 153.39 70.6891 154.663 72.2162C156.139 73.947 156.648 74.2015 159.143 74.4052C161.535 74.6088 162.146 74.4561 163.419 73.438C164.233 72.8271 165.2 71.5036 165.608 70.6382C165.964 69.7219 166.269 68.4492 166.269 67.8384C166.269 67.1766 165.862 65.8531 165.302 64.8859C164.793 63.9187 163.571 62.6969 162.655 62.1879C161.688 61.7297 160.364 61.3225 159.652 61.3225C158.939 61.3734 157.666 61.6788 156.801 62.0861ZM77.3886 62.7988C76.7778 63.0024 75.8106 63.766 75.1997 64.4277C74.5889 65.0895 73.9271 66.4639 73.7235 67.4311C73.4689 68.3983 73.4689 69.8746 73.6726 70.74C73.8762 71.6054 74.8943 73.0307 75.8615 73.947C77.3377 75.2196 78.1522 75.576 79.8321 75.576C81.1047 75.576 82.6828 75.1687 83.65 74.5579C84.719 73.8961 85.6353 72.7762 86.1444 71.3508C86.8061 69.671 86.857 68.8565 86.3989 67.4311C86.0935 66.4639 85.2281 64.9877 84.4645 64.2241C83.4464 63.206 82.3774 62.7478 80.7484 62.5951C79.4758 62.4424 77.9486 62.5442 77.3886 62.7988ZM66.6476 64.7332C66.2913 64.8859 65.7822 65.3949 65.4768 65.9549C65.1714 66.5148 65.1205 67.3802 65.4259 68.0929C65.6295 68.7038 66.2913 69.3655 66.8004 69.5692C67.3603 69.7219 68.2766 69.5692 68.8875 69.1619C69.5492 68.7547 70.0583 67.9402 70.0583 67.3293C70.0583 66.6676 69.8547 65.904 69.651 65.5985C69.4474 65.2931 68.8366 64.8859 68.2766 64.7332C67.7167 64.5804 66.9531 64.5804 66.6476 64.7332ZM171.36 65.4967C170.953 65.8531 170.698 66.7694 170.749 67.5329C170.8 68.4492 171.258 69.1619 171.971 69.5183C172.632 69.8237 173.549 69.9764 174.007 69.7728C174.516 69.6201 175.229 68.9074 175.534 68.1947C176.094 67.1257 176.043 66.8203 175.178 65.904C174.618 65.344 173.701 64.835 173.091 64.8859C172.531 64.8859 171.767 65.1404 171.36 65.4967ZM34.6791 66.3112C33.8137 66.8203 32.7447 68.0929 32.2357 69.111C31.7775 70.1291 31.3703 71.4527 31.3703 72.0126C31.3703 72.5726 31.8284 73.8961 32.3375 74.9651C32.8974 75.9832 34.0173 77.2559 34.8827 77.7649C35.7481 78.2231 37.1226 78.6303 37.988 78.6303C38.8024 78.6303 40.1769 78.274 41.0423 77.8667C41.8568 77.4595 43.0276 76.4923 43.5875 75.7287C44.3002 74.7615 44.6566 73.5398 44.6056 71.9108C44.6056 69.8746 44.3002 69.1619 42.9258 67.6348C41.5513 66.1076 40.8896 65.7513 38.7515 65.5476C36.868 65.3949 35.799 65.5985 34.6791 66.3112ZM188.108 66.7185C187.446 67.1766 187.039 67.9911 187.09 68.7547C187.09 69.4673 187.649 70.2818 188.413 70.74C189.329 71.2999 189.94 71.3508 190.704 70.9945C191.264 70.6891 191.824 70.0782 191.976 69.6201C192.129 69.111 192.129 68.3474 191.976 67.9402C191.875 67.5329 191.162 66.9221 190.5 66.5658C189.482 66.1076 189.024 66.1076 188.108 66.7185ZM49.4417 67.2275C48.9835 67.6348 48.6272 68.4492 48.6272 69.0092C48.6781 69.5183 49.0344 70.3327 49.4417 70.74C49.8489 71.1472 50.5616 71.5036 50.9688 71.5036C51.3761 71.5036 52.1905 71.2999 52.7505 70.9945C53.4292 70.6551 53.7686 69.9764 53.7686 68.9583C53.7686 67.9402 53.4292 67.2615 52.7505 66.9221C52.1905 66.6167 51.427 66.413 51.0197 66.413C50.6125 66.413 49.8998 66.7694 49.4417 67.2275ZM198.238 67.6857C197.423 68.0929 196.456 69.111 196.049 69.9764C195.642 70.8418 195.285 72.5217 195.285 73.7943C195.285 75.576 195.591 76.4414 196.66 77.6631C197.474 78.4776 198.9 79.4448 199.867 79.7502C200.885 80.0047 202.31 80.0556 203.176 79.852C203.99 79.6484 205.365 78.8848 206.128 78.1721C206.943 77.4595 207.808 76.1868 208.063 75.3215C208.419 74.3033 208.419 73.0816 208.063 71.7581C207.757 70.6382 206.943 69.1619 206.23 68.4492C205.212 67.482 204.245 67.1257 202.259 67.0239C200.63 66.973 199.103 67.1766 198.187 67.6857H198.238ZM179.301 69.2637C178.843 69.671 178.487 70.4855 178.487 71.0454C178.537 71.5545 178.894 72.3689 179.301 72.7762C179.708 73.1834 180.574 73.5398 181.235 73.5398C181.897 73.5398 182.661 73.2343 183.017 72.9289C183.373 72.5726 183.628 71.7072 183.628 70.9945C183.628 70.2818 183.373 69.4164 183.017 69.0601C182.661 68.7038 181.846 68.4492 181.235 68.4492C180.625 68.4492 179.759 68.8056 179.301 69.2637ZM57.841 69.9255C56.772 70.74 56.6702 71.0963 57.1283 72.2671C57.3829 73.0307 58.0956 73.8452 58.6555 74.0997C59.3173 74.3543 60.0809 74.2524 60.7935 73.7434C61.4553 73.3361 61.9644 72.5217 61.9644 71.9108C62.0153 71.249 61.608 70.3327 61.099 69.8746C60.5899 69.3655 59.9281 68.9583 59.6227 68.9583C59.3173 68.9583 58.5028 69.4164 57.841 69.9255ZM167.949 74.0488C167.084 74.6088 165.964 75.7287 165.557 76.5941C165.149 77.4595 164.793 78.8848 164.793 79.8011C164.793 80.6665 165.251 82.1937 165.811 83.11C166.371 83.9754 167.491 85.0953 168.356 85.5025C169.171 85.9098 170.545 86.2661 171.411 86.2661C172.225 86.2661 173.6 85.9098 174.465 85.5025C175.28 85.0953 176.45 83.9754 177.01 83.11C177.57 82.1937 178.028 80.6156 178.028 79.6484C178.028 78.6812 177.57 77.1031 177.01 76.2377C176.45 75.3215 175.28 74.2015 174.465 73.7943C173.6 73.3871 172.174 73.0307 171.258 73.0307C170.393 73.0307 168.865 73.4889 167.949 74.0488ZM65.5786 74.7106C64.6114 75.0669 63.4406 75.9323 63.0334 76.5432C62.5752 77.2049 62.1171 78.9357 61.9644 80.412C61.7098 83.0081 61.7607 83.1609 63.746 85.1462C65.5277 86.9788 66.0877 87.2333 68.073 87.2842C69.4983 87.2842 70.9746 86.877 71.9927 86.2661C72.909 85.7061 74.0289 84.4335 74.4361 83.4663C74.8434 82.4991 75.1997 81.2265 75.1997 80.6665C75.1997 80.1066 74.8434 78.8848 74.4361 78.0194C73.978 77.1031 73.0108 75.8814 72.2472 75.3724C71.4836 74.8124 70.0583 74.3034 69.0911 74.2015C68.1239 74.0997 66.5458 74.3543 65.5786 74.7106ZM186.224 75.6269C185.257 75.8814 183.933 76.6959 183.272 77.4595C182.61 78.274 181.948 79.8011 181.744 80.921C181.541 82.3973 181.744 83.5172 182.406 84.9426C183.119 86.3679 183.984 87.2333 185.41 87.8951C186.53 88.3532 187.802 88.8114 188.209 88.8114C188.617 88.8114 189.889 88.3532 191.009 87.7933C192.129 87.2842 193.453 86.1134 193.911 85.248C194.42 84.4335 194.827 83.0591 194.827 82.1937C194.827 81.3283 194.471 79.9029 194.064 79.0375C193.656 78.1212 192.689 77.0013 191.926 76.5432C191.111 76.085 189.94 75.576 189.228 75.4742C188.515 75.3215 187.191 75.3724 186.224 75.6269ZM47.2018 77.5104C46.3364 78.274 45.3692 79.6993 45.0638 80.6665C44.8093 81.6846 44.7584 83.11 44.962 83.9753C45.1656 84.8407 45.8783 86.1134 46.5401 86.9279C47.2018 87.6914 48.5763 88.5568 49.5944 88.8623C51.0197 89.2695 52.0378 89.2695 53.4123 88.8623C54.5322 88.5568 55.9066 87.5896 56.6193 86.6733C57.4338 85.5534 57.9428 84.2808 57.9428 82.9572C57.9937 81.8373 57.6374 80.1575 57.1793 79.2921C56.7211 78.3758 55.6521 77.2559 54.8376 76.8486C53.9722 76.4414 52.2923 76.085 51.0706 76.085C49.3398 76.085 48.4235 76.3905 47.2018 77.5104ZM26.8906 89.1677C25.9743 89.6767 24.7526 90.8985 24.2435 91.8657C23.6836 92.8329 23.2763 94.1564 23.2763 94.8182C23.2763 95.429 23.5818 96.7017 23.9381 97.618C24.3453 98.5343 25.4653 99.756 26.6361 100.469C28.265 101.487 29.0795 101.639 30.9121 101.385C32.6938 101.181 33.5592 100.723 34.8318 99.2978C36.1554 97.8216 36.5117 97.0071 36.5117 95.3272C36.5117 94.0546 36.1045 92.4765 35.4936 91.5093C34.9336 90.593 33.7628 89.4731 32.9483 89.0659C32.0829 88.6586 30.8103 88.3023 29.9958 88.3023C29.2323 88.3023 27.8578 88.7095 26.8906 89.1677ZM208.266 91.5093C206.739 92.8838 206.383 93.5455 206.179 95.6836C206.026 97.5671 206.23 98.6361 206.943 99.756C207.452 100.621 208.724 101.69 209.742 102.199C210.76 102.658 212.135 103.065 212.797 103.065C213.408 103.065 214.68 102.658 215.647 102.199C216.564 101.69 217.785 100.469 218.294 99.5015C218.854 98.5343 219.262 97.1089 219.262 96.3453C219.262 95.5309 218.905 94.2582 218.498 93.3928C218.091 92.5274 217.124 91.4075 216.36 90.8476C215.393 90.1349 214.171 89.7786 212.491 89.8295C210.506 89.8295 209.793 90.1349 208.266 91.5093ZM193.045 92.0693C192.231 92.4256 191.009 93.4946 190.398 94.4618C189.737 95.429 189.228 97.0071 189.228 98.127C189.228 99.1451 189.635 100.672 190.144 101.487C190.602 102.352 191.62 103.37 192.435 103.778C193.198 104.236 194.776 104.592 195.998 104.592C197.372 104.643 198.645 104.287 199.561 103.574C200.325 103.014 201.292 101.894 201.699 101.029C202.107 100.163 202.463 98.8906 202.463 98.127C202.463 97.3125 202.056 95.8872 201.496 94.92C200.987 93.9528 199.765 92.7311 198.849 92.222C197.881 91.7639 196.558 91.3566 195.845 91.3566C195.133 91.4075 193.86 91.713 193.045 92.0693ZM42.824 92.6292C42.0095 93.0365 40.7878 94.1055 40.1769 95.0218C39.4133 96.1417 39.057 97.4652 39.057 98.9924C39.1079 100.927 39.3624 101.589 40.9914 103.167C42.6203 104.796 43.2312 105.05 45.1656 105.05C46.4382 105.101 48.0163 104.796 48.729 104.439C49.3907 104.134 50.5107 103.014 51.1215 102.047C51.7833 101.08 52.2923 99.6033 52.2923 98.7379C52.2923 97.8725 51.8851 96.3962 51.3251 95.429C50.8161 94.4618 49.5944 93.2401 48.6781 92.7311C47.7109 92.2729 46.3873 91.8657 45.6747 91.8657C44.962 91.9166 43.6894 92.222 42.824 92.6292ZM11.7208 97.9743C10.8045 98.5343 9.63371 99.6033 9.17557 100.418C8.71742 101.181 8.31018 102.607 8.36108 103.574C8.36108 104.541 8.76832 106.119 9.22647 107.035C9.68462 107.901 10.7536 109.021 11.5681 109.428C12.4335 109.835 13.9607 110.192 15.0297 110.192C16.1496 110.192 17.6258 109.784 18.6949 109.021C19.8657 108.257 20.6802 107.188 21.1383 105.865C21.4946 104.745 21.6474 103.268 21.5456 102.556C21.3928 101.843 20.782 100.672 20.222 99.9087C19.6621 99.0942 18.5421 98.127 17.6767 97.7198C16.8623 97.3125 15.5387 96.9562 14.7751 96.9562C13.9607 96.9562 12.5862 97.4143 11.7208 97.9743ZM223.589 98.5343C223.029 98.8906 222.061 99.6033 221.4 100.214C220.738 100.774 220.025 102.149 219.771 103.218C219.363 104.745 219.465 105.559 220.28 107.392C220.942 108.868 221.858 109.937 222.825 110.446C223.64 110.853 225.167 111.21 226.134 111.21C227.101 111.21 228.526 110.904 229.341 110.497C230.105 110.141 231.072 109.275 231.53 108.614C231.988 107.952 232.548 106.577 232.701 105.61C232.955 104.388 232.752 103.319 232.141 102.098C231.632 101.13 230.664 99.9087 229.952 99.3997C229.239 98.8906 227.763 98.3306 226.643 98.1779C225.523 98.0761 224.149 98.2288 223.589 98.5343ZM33.7119 105.356C32.7447 106.272 32.5411 106.883 32.8465 107.697C33.0501 108.308 33.6101 109.021 34.1192 109.224C34.5773 109.479 35.4427 109.581 36.0027 109.428C36.5626 109.275 37.2753 108.715 37.5298 108.155C37.8692 107.477 37.8692 106.798 37.5298 106.119C37.2753 105.559 36.5626 104.847 36.0027 104.592C35.1882 104.134 34.7809 104.287 33.7119 105.356ZM182.61 105.152C181.897 105.457 180.828 106.17 180.166 106.781C179.505 107.392 178.792 108.766 178.537 109.835C178.13 111.362 178.232 112.177 179.047 114.009C179.708 115.486 180.625 116.555 181.592 117.064C182.406 117.471 183.933 117.827 184.901 117.827C185.868 117.827 187.293 117.522 188.108 117.115C188.871 116.758 189.94 115.791 190.449 114.977C191.009 114.162 191.467 112.584 191.467 111.464C191.467 110.344 191.111 108.817 190.602 108.054C190.144 107.239 188.973 106.17 188.108 105.61C187.191 105.05 185.868 104.592 185.155 104.643C184.442 104.643 183.323 104.897 182.61 105.152ZM203.481 105.712C203.074 106.068 202.819 106.883 202.87 107.595C202.921 108.359 203.227 109.224 203.583 109.581C203.939 109.937 204.703 110.192 205.263 110.192C205.823 110.242 206.688 109.835 207.146 109.326C207.655 108.817 208.063 108.054 208.063 107.646C208.063 107.239 207.706 106.475 207.197 106.017C206.688 105.508 205.823 105.101 205.263 105.101C204.652 105.101 203.888 105.356 203.481 105.712ZM52.1396 106.628C51.3761 107.188 50.4089 108.308 50.0016 109.173C49.5944 110.039 49.238 111.464 49.238 112.381C49.238 113.246 49.7471 114.824 50.4089 115.791C51.1724 116.962 52.2923 117.827 53.7177 118.336C55.6012 118.998 56.0593 118.998 57.9937 118.286C59.3682 117.776 60.5899 116.86 61.3535 115.74C61.9643 114.773 62.4734 113.246 62.4734 112.381C62.4734 111.464 62.1171 110.039 61.7098 109.173C61.3026 108.308 60.3354 107.188 59.5209 106.628C58.6046 105.916 57.3829 105.559 55.8048 105.61C54.2777 105.61 53.005 105.966 52.1396 106.628ZM25.3634 106.883C24.5999 107.443 24.1926 108.155 24.2435 108.97C24.2435 109.683 24.8035 110.497 25.5671 110.955C26.687 111.617 26.9924 111.617 28.1123 110.955C28.9268 110.446 29.385 109.733 29.385 108.919C29.385 108.155 28.9268 107.341 28.2651 106.883C27.6033 106.475 26.9924 106.119 26.8397 106.119C26.687 106.119 26.0252 106.475 25.3634 106.883ZM211.88 107.799C211.371 108.512 211.27 109.275 211.473 109.886C211.728 110.395 212.288 111.057 212.746 111.261C213.255 111.515 214.12 111.617 214.68 111.464C215.24 111.311 215.902 110.752 216.207 110.192C216.564 109.428 216.513 108.817 215.953 107.901C215.444 107.086 214.731 106.628 213.917 106.628C213.204 106.628 212.339 107.086 211.88 107.799ZM40.8387 109.784C40.3296 110.395 39.9733 111.159 40.0242 111.464C40.0242 111.719 40.4314 112.381 40.9405 112.839C41.4495 113.348 42.3658 113.755 43.0276 113.755C43.6384 113.755 44.4529 113.246 44.8602 112.635C45.2674 111.973 45.471 111.108 45.3183 110.701C45.1656 110.293 44.6566 109.632 44.1984 109.275C43.7403 108.919 42.9767 108.664 42.5185 108.664C42.0604 108.664 41.2968 109.173 40.8387 109.784ZM196.049 109.988C195.133 110.904 194.929 111.515 195.234 112.279C195.438 112.89 196.1 113.602 196.762 113.806C197.423 114.111 198.289 114.06 198.9 113.755C199.46 113.45 200.019 112.788 200.172 112.228C200.325 111.668 200.223 110.802 199.969 110.344C199.765 109.835 199.001 109.275 198.391 109.072C197.525 108.817 196.914 109.072 196.049 109.988ZM30.963 112.788C29.9958 113.042 28.6214 114.009 27.8578 114.926C27.0942 115.791 26.3306 117.471 26.127 118.591C25.8216 120.067 25.9234 121.136 26.5343 122.409C26.9415 123.376 28.0614 124.75 28.9777 125.412C29.894 126.074 31.4721 126.736 32.4393 126.888C33.5592 127.041 34.9336 126.787 36.2063 126.176C37.2753 125.616 38.6497 124.496 39.2097 123.681C39.8206 122.867 40.3805 121.238 40.4823 120.118C40.635 118.591 40.3805 117.675 39.4642 116.351C38.8534 115.384 37.7334 114.213 37.0208 113.704C36.3081 113.195 35.0864 112.686 34.221 112.584C33.4065 112.431 31.9302 112.533 30.963 112.788ZM19.7639 113.5C19.0003 114.06 18.593 114.773 18.6439 115.588C18.6439 116.3 19.2039 117.115 19.9675 117.573C21.0874 118.235 21.3928 118.235 22.5128 117.573C23.3272 117.064 23.7854 116.351 23.7854 115.537C23.7854 114.773 23.3272 113.959 22.6655 113.5C22.0037 113.093 21.3928 112.737 21.2401 112.737C21.0874 112.737 20.4256 113.093 19.7639 113.5ZM203.634 114.264C202.717 114.824 201.598 115.995 201.19 116.809C200.783 117.675 200.427 119.304 200.427 120.525C200.427 121.696 200.885 123.325 201.394 124.191C201.903 125.005 203.176 126.125 204.194 126.634C205.212 127.092 206.739 127.499 207.553 127.499C208.419 127.499 209.895 127.092 210.913 126.634C211.931 126.125 213.204 125.005 213.713 124.191C214.273 123.274 214.629 121.696 214.629 120.373C214.629 118.998 214.273 117.42 213.662 116.453C213.102 115.537 211.982 114.417 211.117 114.009C210.302 113.602 208.622 113.246 207.452 113.246C206.179 113.246 204.601 113.653 203.634 114.264ZM217.48 114.162C217.022 114.62 216.716 115.588 216.818 116.249C216.869 116.911 217.327 117.675 217.735 117.98C218.142 118.235 219.109 118.336 219.923 118.133C220.891 117.929 221.349 117.42 221.552 116.555C221.705 115.74 221.451 114.875 220.891 114.213C220.432 113.653 219.618 113.195 219.16 113.246C218.702 113.246 217.938 113.653 217.48 114.162ZM228.068 114.264C227.152 114.824 226.032 115.995 225.625 116.809C225.218 117.675 224.861 118.947 224.861 119.762C224.861 120.525 225.269 121.951 225.828 122.918C226.338 123.885 227.559 125.107 228.476 125.616C229.443 126.074 230.715 126.481 231.377 126.481C231.988 126.481 233.312 126.125 234.279 125.718C235.246 125.31 236.519 124.191 237.129 123.325C237.893 122.002 238.097 121.085 237.944 119.1C237.74 116.962 237.384 116.3 235.857 114.926C234.381 113.602 233.566 113.246 231.886 113.246C230.614 113.246 229.035 113.653 228.068 114.264ZM5.96853 114.519C5.25586 114.926 4.23775 115.893 3.7287 116.657C3.16874 117.471 2.7106 118.998 2.7106 120.22C2.65969 121.594 3.01603 122.816 3.7287 123.783C4.28866 124.547 5.6631 125.616 6.78302 126.176C8.20837 126.838 9.22647 127.041 10.55 126.736C11.5681 126.532 13.0444 125.616 14.0116 124.649C15.3351 123.223 15.6405 122.511 15.6405 120.627C15.6405 119.355 15.2842 117.675 14.877 116.809C14.4697 115.995 13.4516 114.926 12.5862 114.519C11.7717 114.111 10.1937 113.755 9.17557 113.755C8.10656 113.806 6.68121 114.111 5.96853 114.519ZM43.8421 117.878C43.0785 118.693 42.9767 119.151 43.3839 120.271C43.7912 121.289 44.3002 121.696 45.4201 121.798C46.2855 121.849 47.2527 121.645 47.6091 121.289C47.9654 120.933 48.2708 120.118 48.2199 119.507C48.2199 118.845 47.8636 117.98 47.4563 117.573C47.0491 117.166 46.2855 116.809 45.7256 116.809C45.2165 116.809 44.3511 117.267 43.8421 117.878ZM193.3 118.845C192.74 119.405 192.282 120.22 192.282 120.627C192.282 121.034 192.638 121.747 193.045 122.154C193.453 122.562 194.369 122.918 195.082 122.918C195.845 122.918 196.66 122.46 197.067 121.798C197.474 121.136 197.678 120.271 197.525 119.864C197.372 119.456 196.863 118.795 196.405 118.438C195.947 118.082 195.285 117.827 194.929 117.827C194.624 117.827 193.86 118.286 193.3 118.845ZM20.4256 121.798C20.1202 122.002 19.6112 122.612 19.3057 123.172C18.8476 123.936 18.8985 124.445 19.4584 125.361C19.9675 126.125 20.7311 126.481 21.7492 126.481C22.7673 126.481 23.446 126.142 23.7854 125.463C24.0908 124.903 24.2944 124.241 24.2944 123.936C24.2944 123.631 23.8363 122.969 23.2763 122.409C22.7164 121.849 21.9528 121.391 21.6474 121.391C21.291 121.391 20.7311 121.594 20.4256 121.798ZM181.592 122.154C180.879 122.562 179.861 123.529 179.352 124.292C178.69 125.209 178.385 126.481 178.436 128.008C178.487 129.281 178.843 130.808 179.301 131.47C179.708 132.081 180.828 133.048 181.694 133.608C182.61 134.168 183.984 134.626 184.748 134.626C185.562 134.626 186.682 134.372 187.293 134.066C187.955 133.761 188.973 132.997 189.635 132.386C190.297 131.826 191.009 130.452 191.264 129.434C191.671 127.856 191.569 127.041 190.755 125.209C190.093 123.732 189.177 122.663 188.209 122.154C187.395 121.747 185.817 121.391 184.748 121.391C183.73 121.442 182.304 121.747 181.592 122.154ZM52.8523 122.816C51.8851 123.325 50.7143 124.496 50.2052 125.616C49.6453 126.634 49.238 128.059 49.238 128.772C49.238 129.485 49.5944 130.757 50.0016 131.572C50.4089 132.386 51.3761 133.557 52.1396 134.117C53.1068 134.83 54.3286 135.186 55.8557 135.186C57.6883 135.186 58.5028 134.83 60.0809 133.506C61.6589 132.132 62.1171 131.368 62.3716 129.536C62.5752 127.754 62.3716 126.838 61.608 125.463C61.0481 124.496 59.7245 123.274 58.7064 122.816C57.6883 122.307 56.3648 121.9 55.703 121.9C55.0921 121.9 53.8195 122.307 52.8523 122.816ZM217.48 123.172C216.818 124.292 216.818 124.598 217.48 125.718C217.887 126.43 218.702 126.99 219.262 126.99C219.822 126.99 220.738 126.532 221.298 125.972C221.858 125.412 222.316 124.801 222.316 124.598C222.316 124.343 221.96 123.681 221.552 123.071C221.094 122.358 220.28 121.9 219.516 121.9C218.702 121.9 217.989 122.358 217.48 123.172ZM41.3477 126.787C40.8896 127.194 40.5332 128.008 40.5332 128.568C40.5841 129.077 40.9405 129.892 41.3477 130.299C41.755 130.706 42.5694 131.063 43.0785 131.063C43.6384 131.063 44.4529 130.706 44.8602 130.299C45.3183 129.892 45.6747 129.077 45.6747 128.517C45.6747 127.958 45.3183 127.143 44.9111 126.736C44.5038 126.329 43.6894 125.972 43.1803 125.972C42.6203 125.972 41.8059 126.329 41.3477 126.787ZM196.303 126.939C195.234 127.754 195.133 128.11 195.591 129.383C195.998 130.452 196.507 130.859 197.627 130.961C198.492 131.012 199.46 130.808 199.816 130.452C200.172 130.096 200.478 129.332 200.478 128.772C200.478 128.212 200.07 127.347 199.561 126.888C199.052 126.379 198.391 125.972 198.085 125.972C197.78 125.972 196.965 126.43 196.303 126.939ZM11.5681 129.485C10.6009 129.994 9.37919 131.215 8.81923 132.132C8.10656 133.404 7.95384 134.422 8.15746 136.153C8.36108 137.935 8.87013 138.8 10.2446 140.124C11.8226 141.498 12.4844 141.753 14.6224 141.753C16.7605 141.753 17.4222 141.498 19.0003 140.124C20.2729 138.902 20.8838 137.884 21.0874 136.408C21.2401 135.288 21.1383 133.659 20.8329 132.844C20.4765 132.03 19.5093 130.757 18.593 130.096C17.6768 129.434 16.0987 128.772 15.1315 128.67C14.0625 128.568 12.6371 128.874 11.5681 129.485ZM24.8035 129.128C24.3962 129.485 24.1417 130.197 24.1926 130.757C24.2435 131.368 24.7526 132.284 25.3125 132.844C26.3306 133.812 26.4834 133.812 27.756 133.099C28.5705 132.641 29.1813 131.775 29.2832 131.063C29.3341 130.35 29.1304 129.485 28.7741 129.128C28.4178 128.772 27.5524 128.467 26.8397 128.517C26.0761 128.517 25.2107 128.772 24.8035 129.128ZM211.88 129.79C211.219 130.91 211.219 131.215 211.88 132.335C212.389 133.15 213.102 133.608 213.917 133.608C214.731 133.608 215.444 133.15 215.953 132.335C216.615 131.215 216.615 130.91 215.953 129.79C215.444 128.976 214.731 128.517 213.917 128.517C213.102 128.517 212.389 128.976 211.88 129.79ZM33.9155 130.401C33.2538 130.808 32.8465 131.623 32.8974 132.386C32.8974 133.099 33.4574 133.913 34.221 134.372C35.1373 134.932 35.7481 134.982 36.5117 134.626C37.0717 134.321 37.6316 133.659 37.7843 133.099C37.9371 132.539 37.8352 131.674 37.5807 131.215C37.3771 130.706 36.6644 130.146 36.0536 129.994C35.4427 129.79 34.5264 129.943 33.9155 130.401ZM222.978 130.401C222.112 130.859 220.891 131.979 220.28 132.794C219.414 134.066 219.262 134.881 219.414 136.917C219.618 139.055 219.974 139.717 221.502 141.142C223.029 142.466 223.741 142.771 225.778 142.771C227.407 142.822 228.628 142.466 229.595 141.753C230.359 141.193 231.326 140.022 231.733 139.208C232.141 138.393 232.497 137.07 232.497 136.306C232.497 135.491 232.09 134.066 231.53 133.099C231.021 132.132 229.799 130.91 228.883 130.401C227.916 129.943 226.592 129.536 225.879 129.536C225.167 129.536 223.894 129.943 222.978 130.401ZM203.736 131.368C203.277 131.775 202.921 132.59 202.921 133.15C202.972 133.659 203.328 134.473 203.736 134.881C204.143 135.288 204.957 135.644 205.466 135.644C206.026 135.644 206.841 135.288 207.248 134.881C207.706 134.473 208.063 133.761 208.063 133.353C208.063 132.946 207.859 132.132 207.553 131.572C207.248 130.961 206.535 130.554 205.823 130.554C205.11 130.554 204.194 130.91 203.736 131.368ZM192.486 135.339C191.569 135.746 190.347 136.815 189.686 137.731C189.024 138.749 188.566 140.226 188.566 141.244C188.566 142.211 188.973 143.789 189.431 144.705C189.889 145.571 190.958 146.691 191.773 147.098C192.638 147.505 194.165 147.861 195.234 147.861C196.252 147.861 197.881 147.403 198.798 146.843C199.663 146.283 200.783 145.011 201.19 144.044C201.699 142.822 201.852 141.651 201.598 140.378C201.394 139.309 200.783 137.884 200.172 137.222C199.612 136.51 198.391 135.695 197.525 135.288C196.609 134.932 195.438 134.626 194.98 134.626C194.471 134.677 193.351 134.982 192.486 135.339ZM42.3149 135.848C41.5004 136.255 40.2787 137.375 39.6678 138.291C39.0061 139.258 38.5479 140.786 38.5479 141.906C38.5479 142.924 38.9552 144.451 39.4642 145.316C39.9224 146.131 40.9405 147.149 41.755 147.607C42.5185 148.014 43.9948 148.371 45.0638 148.371C46.0819 148.371 47.7109 147.912 48.6272 147.352C49.4926 146.792 50.6125 145.469 51.0706 144.451C51.5797 143.28 51.7324 141.855 51.5797 140.887C51.427 139.971 50.5107 138.393 49.6453 137.375C48.3726 136.051 47.4563 135.542 45.9292 135.339C44.7075 135.237 43.2312 135.441 42.3149 135.848ZM24.7017 138.088C23.9381 138.546 22.9709 139.564 22.5128 140.378C22.1055 141.142 21.7492 142.771 21.7492 144.044C21.7492 145.927 22.0546 146.64 23.429 148.065C24.2944 149.032 25.7707 149.949 26.5852 150.152C27.4506 150.356 28.8759 150.407 29.7922 150.203C30.7594 150 32.032 149.185 32.9483 148.116C33.8137 147.149 34.6282 145.571 34.7809 144.705C34.9845 143.585 34.7809 142.364 34.1701 141.04C33.6101 139.92 32.5411 138.597 31.6757 138.088C30.8612 137.579 29.2322 137.171 28.1123 137.171C26.9924 137.171 25.4653 137.579 24.7017 138.088ZM208.113 139.055C207.146 139.564 205.874 140.633 205.314 141.396C204.601 142.313 204.245 143.585 204.245 144.96C204.296 146.131 204.703 147.709 205.161 148.523C205.619 149.287 206.637 150.305 207.452 150.763C208.215 151.221 209.641 151.628 210.608 151.578C211.575 151.578 213.153 151.17 214.069 150.712C214.935 150.254 216.055 149.185 216.462 148.371C216.869 147.556 217.225 145.978 217.225 144.96C217.225 143.891 216.767 142.262 216.207 141.396C215.647 140.48 214.782 139.513 214.324 139.258C213.815 139.004 212.593 138.648 211.626 138.495C210.404 138.24 209.284 138.444 208.113 139.055ZM185.664 152.036C184.697 152.647 183.628 154.021 183.221 154.988C182.763 156.057 182.61 157.533 182.813 158.704C183.017 159.824 183.73 161.199 184.646 162.115C185.511 162.929 186.937 163.795 187.853 163.948C188.719 164.151 190.093 164.151 190.907 163.948C191.671 163.795 193.045 162.98 193.962 162.166C195.438 160.791 195.591 160.435 195.591 157.584C195.591 154.836 195.438 154.326 194.064 152.901C192.893 151.679 191.976 151.272 189.991 151.069C187.904 150.865 187.14 151.018 185.664 152.036ZM49.9507 151.883C49.3398 152.087 48.3726 152.85 47.7618 153.512C47.2018 154.174 46.4891 155.446 46.2346 156.261C45.9292 157.177 45.9292 158.501 46.1837 159.57C46.4382 160.537 47.3036 161.962 48.0672 162.777C49.0344 163.693 50.2561 164.253 51.7833 164.508C53.4123 164.711 54.5322 164.558 55.6012 163.948C56.4666 163.489 57.5356 162.42 58.0446 161.606C58.5028 160.741 58.9609 159.468 59.0627 158.704C59.1646 157.89 59.0628 156.719 58.8591 156.006C58.6046 155.294 57.6374 153.97 56.6193 153.105C55.2449 151.781 54.3795 151.425 52.9541 151.476C51.8851 151.476 50.5107 151.679 49.9507 151.883ZM169.527 153.308C168.662 153.766 167.491 154.886 166.88 155.701C166.269 156.617 165.811 158.093 165.811 159.213C165.811 160.231 166.218 161.759 166.727 162.624C167.186 163.438 168.204 164.457 169.018 164.915C169.782 165.322 171.411 165.678 172.683 165.678C174.465 165.678 175.33 165.373 176.552 164.304C177.367 163.489 178.334 162.064 178.639 161.097C178.945 160.13 179.047 158.602 178.843 157.788C178.69 156.974 177.927 155.65 177.163 154.886C176.349 154.123 175.127 153.257 174.363 153.003C173.549 152.697 172.531 152.443 172.072 152.443C171.563 152.443 170.444 152.85 169.527 153.308ZM67.8694 153.817C67.1058 153.919 65.7313 154.632 64.9169 155.395C64.1024 156.159 63.2879 157.584 63.0843 158.552C62.8806 159.519 62.7788 160.944 62.8297 161.759C62.9316 162.522 63.746 163.897 64.6623 164.813C65.5277 165.729 67.004 166.646 67.8185 166.798C68.6839 167.002 70.1601 166.951 71.1273 166.696C72.0945 166.442 73.418 165.729 74.0289 165.067C74.6398 164.406 75.3524 163.286 75.6579 162.522C75.9633 161.708 76.116 160.333 75.9124 159.468C75.7597 158.552 75.3015 157.279 74.8943 156.668C74.538 156.006 73.6726 155.192 73.0617 154.785C72.3999 154.428 71.3309 153.97 70.6183 153.868C69.9056 153.766 68.6838 153.716 67.8694 153.817ZM34.6791 161.759C33.2538 163.031 32.7956 163.897 32.592 165.678C32.3884 167.256 32.592 168.478 33.152 169.649C33.6101 170.514 34.73 171.736 35.6463 172.296C36.5117 172.856 37.8862 173.314 38.7006 173.314C39.4642 173.314 40.8896 172.958 41.8568 172.551C42.824 172.143 44.0966 171.023 44.6566 170.158C45.2165 169.242 45.6747 167.664 45.6747 166.696C45.6747 165.729 45.2165 164.151 44.6566 163.286C44.0966 162.369 42.9767 161.25 42.1113 160.842C41.2968 160.435 39.6678 160.079 38.5479 160.079C36.9699 160.079 36.1045 160.435 34.6791 161.759ZM200.681 161.657C199.867 161.911 198.747 162.522 198.187 163.031C197.678 163.489 196.965 164.508 196.558 165.322C196.151 166.086 195.845 167.256 195.845 167.969C195.845 168.682 196.202 169.954 196.609 170.769C197.016 171.583 197.983 172.754 198.798 173.314C199.561 173.925 200.885 174.485 201.699 174.638C202.667 174.841 203.939 174.587 205.212 174.027C206.332 173.467 207.655 172.347 208.164 171.532C208.673 170.718 209.081 169.14 209.081 168.122C209.081 167.053 208.724 165.577 208.317 164.813C207.859 163.998 206.892 163.031 206.128 162.573C205.365 162.115 204.194 161.606 203.481 161.453C202.768 161.351 201.547 161.402 200.681 161.657ZM157.921 165.169C156.801 165.729 155.477 166.849 155.019 167.715C154.51 168.529 154.103 170.107 154.103 171.176C154.103 172.194 154.51 173.62 154.968 174.332C155.426 175.045 156.19 175.91 156.648 176.216C157.055 176.572 158.124 177.081 158.939 177.336C159.855 177.641 161.179 177.641 162.248 177.387C163.215 177.132 164.742 176.216 165.557 175.35C166.88 173.976 167.084 173.365 167.084 171.023C167.084 168.834 166.829 168.02 165.811 166.951C165.098 166.187 163.775 165.22 162.91 164.864C161.993 164.457 160.924 164.151 160.619 164.151C160.262 164.151 159.041 164.609 157.921 165.169ZM78.4577 165.933C77.6432 166.34 76.4215 167.409 75.8106 168.325C75.1488 169.293 74.6907 170.82 74.6907 171.94C74.6907 172.958 75.047 174.536 75.4543 175.35C75.8615 176.165 76.9305 177.234 77.745 177.641C78.6104 178.048 80.1375 178.405 81.2065 178.405C82.2247 178.405 83.8536 177.947 84.7699 177.387C85.6353 176.827 86.7552 175.554 87.1625 174.587C87.5697 173.62 87.926 172.296 87.926 171.685C87.926 171.023 87.4679 169.751 86.9079 168.885C86.348 167.969 85.1263 166.747 84.2609 166.187C83.3446 165.627 82.021 165.169 81.3084 165.169C80.5957 165.22 79.3231 165.526 78.4577 165.933ZM179.301 166.798C178.792 167.409 178.436 168.173 178.487 168.478C178.487 168.733 178.894 169.394 179.403 169.853C179.912 170.362 180.828 170.769 181.49 170.769C182.101 170.769 182.915 170.26 183.323 169.649C183.73 168.987 183.933 168.122 183.781 167.715C183.628 167.307 183.119 166.646 182.661 166.289C182.203 165.933 181.439 165.678 180.981 165.678C180.523 165.678 179.759 166.187 179.301 166.798ZM58.5028 166.747C57.8919 167.002 57.2811 167.664 57.1283 168.224C56.9756 168.784 57.1283 169.7 57.3829 170.26C57.6883 170.82 58.0446 171.278 58.2992 171.329C58.5028 171.329 59.0627 171.431 59.5718 171.583C60.0809 171.685 60.8444 171.278 61.4553 170.514C62.2189 169.547 62.3716 168.987 61.9644 168.224C61.7098 167.664 61.0481 167.002 60.539 166.747C59.979 166.493 59.1137 166.493 58.5028 166.747ZM49.4926 169.649C49.0344 170.107 48.729 171.074 48.8308 171.787C48.9326 172.601 49.4926 173.212 50.3579 173.569C51.4779 173.976 51.936 173.874 52.8014 173.06C53.3614 172.5 53.8704 171.634 53.8195 171.176C53.8195 170.667 53.4632 169.903 53.0559 169.496C52.6487 169.089 51.8342 168.733 51.3251 168.733C50.7652 168.733 49.9507 169.14 49.4926 169.649ZM187.191 169.751C186.937 170.311 186.784 171.227 186.937 171.787C187.09 172.347 187.7 173.009 188.362 173.263C188.973 173.467 189.94 173.518 190.449 173.365C190.958 173.212 191.569 172.601 191.773 172.041C191.976 171.482 191.875 170.514 191.569 169.853C191.162 168.987 190.602 168.682 189.38 168.733C188.26 168.733 187.548 169.038 187.191 169.751ZM65.5277 170.871C65.1205 171.176 64.8659 171.94 64.9169 172.5C64.9678 173.11 65.375 173.976 65.8841 174.434C66.3931 174.943 67.1567 175.35 67.5639 175.35C67.9712 175.35 68.7857 174.892 69.3456 174.332C70.1601 173.467 70.2619 173.009 69.8547 171.889C69.4474 170.871 68.9384 170.463 67.8185 170.362C66.9531 170.26 65.935 170.514 65.5277 170.871ZM171.156 171.176C170.647 171.685 170.24 172.449 170.342 172.856C170.393 173.263 170.698 173.976 171.054 174.434C171.411 174.943 172.225 175.299 172.989 175.35C173.701 175.35 174.516 175.045 174.872 174.739C175.229 174.383 175.483 173.569 175.483 172.958C175.483 172.296 175.127 171.431 174.72 171.023C174.312 170.616 173.549 170.26 172.989 170.26C172.48 170.26 171.665 170.667 171.156 171.176ZM56.4157 174.841C55.4485 175.096 54.1249 175.961 53.4632 176.725C52.8014 177.539 52.0887 178.965 51.8851 179.932C51.6306 180.899 51.6306 182.528 51.8342 183.495C52.0378 184.513 52.9541 185.939 53.9213 186.855C55.0412 187.873 56.3648 188.535 57.8919 188.789C59.6736 189.095 60.5899 188.942 61.9644 188.178C62.9316 187.669 64.2551 186.448 64.9169 185.48C65.6295 184.411 66.0368 182.986 66.0368 181.866C66.0368 180.797 65.6804 179.219 65.2732 178.405C64.866 177.59 63.8988 176.419 63.1352 175.859C62.3207 175.299 60.8953 174.739 59.9281 174.638C58.9609 174.485 57.3829 174.587 56.4157 174.841ZM178.639 175.299C177.723 175.808 176.501 176.928 175.941 177.692C175.28 178.659 174.923 179.983 174.974 181.459C174.974 182.833 175.381 184.411 175.992 185.43C176.552 186.295 177.774 187.415 178.69 187.873C179.556 188.331 181.134 188.738 182.101 188.738C183.068 188.738 184.646 188.331 185.562 187.873C186.428 187.415 187.65 186.295 188.209 185.43C188.871 184.361 189.228 182.833 189.228 181.357C189.228 179.423 188.922 178.557 187.853 177.336C187.039 176.419 185.817 175.401 185.053 175.045C184.239 174.638 182.864 174.332 181.999 174.332C181.083 174.332 179.556 174.79 178.639 175.299ZM193.453 175.91C192.791 176.165 192.18 176.827 192.027 177.387C191.875 177.947 192.027 178.863 192.282 179.423C192.638 180.186 193.198 180.39 194.369 180.339C195.285 180.237 196.303 179.728 196.711 179.168C197.322 178.252 197.271 177.997 196.354 176.776C195.794 175.961 195.183 175.35 194.98 175.401C194.725 175.401 194.064 175.605 193.453 175.91ZM44.6566 176.979C44.2493 177.336 43.9948 178.099 44.0457 178.761C44.0966 179.423 44.7075 180.288 45.4201 180.695C46.54 181.357 46.8455 181.357 47.9654 180.695C48.729 180.237 49.238 179.474 49.238 178.812C49.238 178.15 48.9835 177.336 48.6272 176.979C48.2708 176.623 47.4054 176.368 46.6928 176.368C45.9292 176.368 45.0638 176.623 44.6566 176.979ZM31.0648 177.845C30.1485 178.456 29.0286 179.728 28.6214 180.695C28.2141 181.663 27.8578 182.935 27.8578 183.495C27.8578 184.055 28.265 185.379 28.825 186.448C29.4359 187.618 30.5049 188.688 31.6248 189.247C32.6429 189.706 34.0173 190.113 34.73 190.113C35.4427 190.113 36.7153 189.757 37.5298 189.349C38.3952 188.942 39.5151 187.975 40.0751 187.211C40.7878 186.244 41.1441 185.022 41.0932 183.393C41.0932 181.357 40.7878 180.644 39.4642 179.117C38.0389 177.59 37.3771 177.234 35.2391 177.03C33.2538 176.877 32.3375 177.081 31.0648 177.845ZM203.685 177.336C203.074 177.539 202.107 178.303 201.547 178.965C200.936 179.626 200.223 180.899 199.918 181.713C199.612 182.528 199.51 183.953 199.714 184.768C199.918 185.582 200.376 186.753 200.783 187.313C201.19 187.873 202.107 188.738 202.87 189.197C203.634 189.706 205.161 190.113 206.281 190.113C207.401 190.113 208.877 189.706 209.59 189.247C210.302 188.789 211.168 188.026 211.473 187.568C211.829 187.16 212.339 185.99 212.593 185.022C212.899 183.953 212.899 182.63 212.644 181.713C212.389 180.899 211.524 179.525 210.76 178.761C209.742 177.743 208.673 177.285 207.044 177.132C205.772 176.979 204.245 177.081 203.685 177.336ZM109.052 178.863C108.237 179.372 107.117 180.695 106.557 181.764C105.896 183.19 105.692 184.259 105.947 185.531C106.15 186.499 106.71 187.924 107.27 188.738C107.83 189.502 109.154 190.367 110.223 190.673C111.241 190.978 112.971 191.131 114.04 190.927C115.313 190.724 116.382 190.062 117.451 188.84C118.673 187.415 118.978 186.6 118.978 184.666C119.029 182.986 118.673 181.764 117.96 180.848C117.4 180.034 116.28 179.066 115.415 178.659C114.6 178.252 113.124 177.896 112.259 177.896C111.342 177.896 109.917 178.354 109.052 178.863ZM125.85 178.863C124.985 179.423 123.916 180.39 123.407 181.052C122.898 181.714 122.542 183.139 122.542 184.513C122.508 186.04 122.847 187.279 123.56 188.229C124.12 188.993 125.291 189.96 126.105 190.367C126.97 190.775 128.396 191.131 129.312 191.131C130.177 191.131 131.756 190.622 132.723 189.96C133.894 189.197 134.759 188.077 135.268 186.651C135.93 184.819 135.93 184.31 135.319 182.63C134.912 181.561 134.148 180.288 133.639 179.83C133.13 179.321 132.265 178.71 131.705 178.405C131.145 178.099 129.923 177.896 129.058 177.896C128.141 177.896 126.665 178.354 125.85 178.863ZM70.1092 179.016C69.702 179.372 69.4474 180.186 69.4983 180.899C69.6001 181.663 70.0074 182.477 70.5164 182.833C70.9746 183.19 71.7382 183.495 72.1454 183.495C72.5527 183.495 73.3162 183.139 73.7744 182.63C74.2834 182.121 74.6907 181.306 74.6907 180.848C74.6907 180.339 74.3343 179.575 73.9271 179.168C73.5199 178.761 72.6545 178.405 71.9927 178.405C71.3309 178.405 70.5164 178.659 70.1092 179.016ZM167.338 179.016C166.931 179.372 166.677 180.085 166.727 180.644C166.778 181.255 167.186 182.121 167.695 182.579C168.204 183.088 168.967 183.495 169.374 183.495C169.782 183.495 170.545 183.139 171.003 182.63C171.513 182.121 171.92 181.255 171.92 180.695C171.92 180.135 171.665 179.372 171.309 179.016C170.953 178.659 170.087 178.405 169.374 178.405C168.611 178.405 167.746 178.659 167.338 179.016ZM156.394 181.561C155.579 181.764 154.357 182.477 153.696 183.139C153.034 183.75 152.321 185.073 152.067 186.04C151.761 187.211 151.761 188.433 152.067 189.604C152.372 190.571 153.085 191.895 153.747 192.556C154.357 193.218 155.681 193.931 156.648 194.185C157.819 194.491 159.041 194.491 160.212 194.185C161.179 193.88 162.502 193.167 163.164 192.505C163.826 191.895 164.538 190.571 164.793 189.604C165.098 188.484 165.098 187.16 164.793 186.04C164.538 185.073 163.826 183.75 163.164 183.19C162.502 182.579 161.535 181.968 160.975 181.764C160.415 181.612 159.499 181.357 158.939 181.255C158.379 181.154 157.259 181.306 156.394 181.561ZM79.1194 183.495C78.3559 184.055 77.3887 185.226 76.9814 186.04C76.5742 186.855 76.2178 188.128 76.2178 188.84C76.2178 189.553 76.6251 190.927 77.1341 191.945C77.6432 193.116 78.7122 194.185 79.9339 194.745C80.952 195.305 82.2756 195.712 82.8355 195.712C83.3955 195.712 84.6681 195.356 85.6353 194.949C86.6025 194.542 87.8751 193.422 88.4351 192.556C89.046 191.487 89.4532 190.011 89.4532 188.586C89.4023 186.651 89.1478 185.99 87.5188 184.411C85.8389 182.732 85.3299 182.528 83.0391 182.477C81.2066 182.477 80.0357 182.783 79.1194 183.495ZM191.518 185.124C191.009 185.735 190.653 186.499 190.704 186.804C190.704 187.059 191.111 187.72 191.62 188.178C192.129 188.688 192.995 189.095 193.605 189.095C194.165 189.095 194.878 188.789 195.234 188.484C195.591 188.128 195.845 187.211 195.845 186.448C195.845 185.531 195.489 184.819 194.827 184.513C194.267 184.208 193.453 184.004 193.045 184.004C192.689 184.004 191.976 184.513 191.518 185.124ZM46.3873 185.022C45.8274 185.226 45.2674 185.837 45.1147 186.346C44.962 186.855 44.962 187.771 45.1656 188.331C45.3692 188.891 45.9801 189.502 46.4891 189.655C46.9982 189.807 47.9654 189.757 48.6272 189.553C49.238 189.298 49.8489 188.637 50.0016 188.077C50.1543 187.517 50.0525 186.651 49.798 186.142C49.5944 185.684 48.9326 185.124 48.3726 184.971C47.7618 184.819 46.8964 184.819 46.3873 185.022ZM67.3094 187.822C66.6476 188.942 66.6476 189.247 67.3094 190.367C67.8185 191.182 68.5311 191.64 69.3456 191.64C70.1601 191.64 70.8728 191.182 71.3818 190.367C72.0436 189.247 72.0436 188.942 71.3818 187.822C70.8728 187.008 70.1601 186.549 69.3456 186.549C68.5311 186.549 67.8185 187.008 67.3094 187.822ZM169.884 187.568C169.324 188.128 168.865 188.738 168.865 188.993C168.865 189.197 169.222 189.858 169.629 190.52C170.087 191.182 170.902 191.64 171.665 191.64C172.48 191.64 173.192 191.182 173.701 190.367C174.363 189.247 174.363 188.942 173.701 187.822C173.294 187.109 172.48 186.549 171.92 186.549C171.36 186.549 170.444 187.008 169.884 187.568ZM95.7146 189.095C94.7983 189.655 93.6274 190.724 93.1693 191.538C92.5584 192.556 92.4057 193.574 92.6093 195.458C92.8639 197.545 93.2202 198.309 94.7474 199.683C96.2236 200.956 97.0381 201.312 98.7689 201.312C99.9397 201.312 101.62 200.905 102.434 200.396C103.299 199.887 104.368 198.614 104.878 197.596C105.336 196.578 105.743 195.203 105.743 194.542C105.743 193.931 105.336 192.607 104.776 191.64C104.267 190.673 103.045 189.451 102.129 188.942C101.161 188.484 99.7361 188.077 98.8707 188.077C98.0562 188.077 96.5799 188.535 95.7146 189.095ZM139.544 189.349C138.73 189.757 137.508 190.826 136.846 191.742C135.93 193.116 135.777 193.931 135.93 195.967C136.133 198.105 136.49 198.767 138.017 200.141C139.544 201.567 140.257 201.821 142.395 201.821C144.431 201.821 145.245 201.567 146.518 200.396C147.333 199.632 148.3 198.207 148.605 197.24C148.911 196.272 149.012 194.745 148.809 193.931C148.656 193.116 147.892 191.793 147.129 191.029C146.314 190.266 145.093 189.4 144.329 189.146C143.515 188.84 142.497 188.586 142.038 188.586C141.529 188.637 140.409 188.942 139.544 189.349ZM186.224 190.876C185.461 191.436 185.053 192.149 185.104 192.964C185.104 193.676 185.664 194.491 186.428 194.949C187.548 195.611 187.853 195.611 188.973 194.949C189.788 194.44 190.246 193.727 190.246 192.913C190.246 192.149 189.788 191.335 189.126 190.876C188.464 190.469 187.853 190.113 187.7 190.113C187.548 190.113 186.886 190.469 186.224 190.876ZM51.7833 191.233C51.376 191.589 51.1215 192.353 51.1724 193.014C51.2233 193.676 51.6306 194.542 52.0378 194.949C52.4451 195.356 53.2086 195.712 53.7177 195.712C54.1758 195.763 54.9903 195.356 55.4485 194.847C55.9575 194.338 56.3648 193.524 56.3648 193.065C56.3648 192.556 56.0084 191.793 55.6012 191.385C55.1939 190.978 54.3286 190.622 53.6668 190.622C53.005 190.622 52.1905 190.876 51.7833 191.233ZM177.265 191.945C176.807 192.353 176.45 193.167 176.45 193.727C176.501 194.236 176.858 195.051 177.265 195.458C177.672 195.865 178.487 196.221 178.996 196.221C179.556 196.221 180.37 195.865 180.777 195.458C181.235 195.051 181.592 194.134 181.592 193.422C181.592 192.658 181.185 191.945 180.574 191.64C180.014 191.335 179.25 191.131 178.843 191.131C178.436 191.131 177.723 191.487 177.265 191.945ZM197.423 191.691C196.507 191.945 195.183 192.862 194.522 193.676C193.86 194.542 193.147 196.069 192.995 197.138C192.74 198.512 192.893 199.479 193.605 200.752C194.114 201.719 195.234 202.992 195.998 203.552C196.965 204.265 198.187 204.621 199.561 204.57C200.783 204.57 202.361 204.112 203.176 203.552C203.99 203.043 204.957 201.974 205.314 201.21C205.721 200.396 206.026 198.97 206.026 198.003C206.026 197.036 205.67 195.509 205.263 194.694C204.855 193.88 203.888 192.862 203.125 192.455C202.31 192.098 201.139 191.64 200.427 191.538C199.714 191.385 198.391 191.436 197.423 191.691ZM60.4372 192.251C60.03 192.607 59.7754 193.422 59.8263 194.134C59.8263 194.898 60.1827 195.763 60.539 196.12C60.8953 196.476 61.7607 196.68 62.4734 196.629C63.1861 196.527 64.0515 195.916 64.5096 195.102C65.2223 193.829 65.2223 193.676 64.2551 192.658C63.6951 192.098 62.7788 191.589 62.2189 191.64C61.608 191.64 60.8444 191.895 60.4372 192.251ZM118.011 192.811C117.706 193.116 117.502 194.083 117.553 194.949C117.655 196.069 118.062 196.578 119.08 196.985C120.2 197.392 120.658 197.291 121.524 196.476C122.083 195.916 122.593 195.051 122.542 194.542C122.542 194.083 122.185 193.32 121.778 192.913C121.371 192.505 120.455 192.149 119.793 192.149C119.131 192.149 118.317 192.455 118.011 192.76V192.811ZM39.057 193.473C38.3443 193.88 37.3262 194.847 36.8171 195.611C36.2572 196.374 35.799 197.952 35.799 199.072C35.7481 200.243 36.1554 201.77 36.6644 202.534C37.1226 203.297 38.2934 204.366 39.2097 204.926C40.0751 205.486 41.4495 205.944 42.264 205.944C43.0276 205.944 44.1475 205.69 44.8093 205.384C45.4201 205.079 46.4382 204.315 47.1 203.705C47.7618 203.145 48.4744 201.77 48.729 200.701C49.1362 199.174 49.0344 198.36 48.2199 196.527C47.5582 195.051 46.6419 193.982 45.6747 193.473C44.8602 193.065 43.2821 192.709 42.264 192.709C41.195 192.76 39.7696 193.065 39.057 193.473ZM110.273 195.611C109.51 196.069 109.204 196.832 109.255 197.85C109.306 198.767 109.663 199.53 110.324 199.836C110.884 200.141 111.801 200.243 112.361 200.09C112.921 199.938 113.633 199.276 113.888 198.563C114.193 197.8 114.193 196.934 113.939 196.374C113.735 195.916 113.022 195.356 112.411 195.203C111.801 195 110.884 195.152 110.273 195.611ZM126.869 196.018C126.207 197.138 126.207 197.443 126.869 198.563C127.378 199.378 128.09 199.836 128.905 199.836C129.719 199.836 130.432 199.378 130.941 198.563C131.603 197.443 131.603 197.138 130.941 196.018C130.432 195.203 129.719 194.745 128.905 194.745C128.09 194.745 127.378 195.203 126.869 196.018ZM164.437 195.254C163.775 195.458 162.706 196.374 161.993 197.24C161.281 198.105 160.568 199.581 160.415 200.447C160.212 201.567 160.415 202.788 161.026 204.112C161.586 205.232 162.706 206.555 163.52 207.064C164.386 207.573 166.015 207.981 167.287 207.981C169.171 207.981 169.782 207.675 171.462 206.046C173.192 204.366 173.396 203.857 173.447 201.617C173.447 199.785 173.192 198.665 172.429 197.647C171.869 196.883 170.749 195.916 169.884 195.509C169.069 195.102 167.746 194.745 166.982 194.796C166.167 194.796 165.048 195 164.437 195.254ZM69.0911 196.527C68.3784 196.934 67.4112 197.749 66.9531 198.41C66.5458 199.072 65.9859 200.396 65.8332 201.363C65.5786 202.585 65.7822 203.705 66.3931 204.926C66.9022 205.894 68.1239 207.217 69.0911 207.879C70.5164 208.846 71.28 209.05 72.909 208.795C74.0289 208.642 75.4542 208.133 76.116 207.726C76.7269 207.319 77.6432 206.352 78.1013 205.537C78.5595 204.774 78.9667 203.348 78.9158 202.381C78.9158 201.414 78.5086 199.836 78.0504 198.919C77.5923 198.054 76.5742 196.934 75.7088 196.527C74.8943 196.12 73.3162 195.763 72.2981 195.763C71.2291 195.814 69.8038 196.12 69.0911 196.527ZM53.4632 200.345C52.5469 200.905 51.427 202.076 51.0197 202.89C50.6125 203.705 50.2561 205.181 50.2561 206.046C50.2561 206.963 50.7143 208.49 51.2742 209.355C51.8342 210.271 53.005 211.391 53.8195 211.799C54.6849 212.206 56.0593 212.562 56.8738 212.562C57.7392 212.562 59.1137 212.206 59.9281 211.799C60.7935 211.391 61.9134 210.271 62.4734 209.355C63.0334 208.49 63.4915 206.912 63.4915 205.944C63.4915 204.977 63.0334 203.45 62.4734 202.636C61.9134 201.821 60.7935 200.701 60.03 200.243C59.2664 199.734 57.841 199.327 56.8738 199.327C55.9066 199.327 54.3286 199.785 53.4632 200.345ZM180.574 200.09C179.861 200.498 178.843 201.465 178.334 202.228C177.774 203.043 177.316 204.57 177.316 205.792C177.282 207.217 177.621 208.405 178.334 209.355C178.945 210.119 180.116 211.188 181.032 211.646C182.203 212.308 183.17 212.46 184.799 212.257C186.275 212.002 187.446 211.442 188.464 210.322C189.329 209.457 190.195 207.93 190.398 206.963C190.653 205.639 190.5 204.621 189.737 203.145C189.228 202.025 188.057 200.701 187.191 200.192C186.377 199.734 184.799 199.327 183.781 199.327C182.712 199.378 181.286 199.683 180.574 200.09ZM117.146 200.599C116.28 200.956 114.957 202.127 114.193 203.246C113.328 204.519 112.87 205.843 112.87 207.217C112.87 208.49 113.277 209.915 113.99 211.035C114.651 212.002 116.077 213.224 117.197 213.784C118.724 214.496 119.742 214.598 121.269 214.344C122.389 214.089 124.069 213.224 125.036 212.358C126.512 210.984 126.767 210.373 127.021 207.726C127.225 204.824 127.174 204.57 125.545 202.737C124.527 201.617 123.051 200.599 122.033 200.294C121.065 200.039 119.895 199.836 119.487 199.836C119.08 199.887 118.011 200.192 117.146 200.599ZM105.743 203.399C105.183 203.959 104.776 204.926 104.878 205.537C104.928 206.148 105.539 206.963 106.252 207.319C107.27 207.828 107.728 207.828 108.543 207.268C109.103 206.912 109.663 205.995 109.764 205.283C109.968 204.366 109.663 203.806 108.746 203.196C108.085 202.737 107.372 202.381 107.168 202.381C106.914 202.381 106.303 202.839 105.743 203.399ZM130.941 203.297C130.432 203.806 130.025 204.672 130.076 205.232C130.127 205.741 130.432 206.504 130.788 206.861C131.145 207.217 132.01 207.472 132.774 207.472C133.486 207.472 134.301 207.166 134.657 206.81C135.013 206.504 135.268 205.741 135.268 205.181C135.319 204.621 134.912 203.755 134.403 203.297C133.894 202.788 133.13 202.381 132.672 202.381C132.214 202.381 131.45 202.788 130.941 203.297ZM92.253 204.672C91.4385 205.079 90.2677 206.148 89.7586 207.064C89.1987 207.981 88.7914 209.559 88.7405 210.526C88.7405 211.493 89.1478 212.918 89.6059 213.682C90.0641 214.496 91.2349 215.566 92.1512 216.176C93.3729 216.94 94.2892 217.144 95.8164 216.94C96.9363 216.787 98.4125 216.227 99.1252 215.718C99.8379 215.209 100.805 213.987 101.314 213.02C101.925 211.799 102.129 210.73 101.874 209.508C101.721 208.541 101.161 207.166 100.703 206.504C100.245 205.843 99.2779 204.977 98.5143 204.621C97.6999 204.214 96.3254 203.908 95.46 203.908C94.5437 203.908 93.1184 204.265 92.253 204.672ZM141.478 206.148C140.562 206.555 139.34 207.522 138.78 208.286C138.22 209.101 137.661 210.322 137.508 211.035C137.355 211.748 137.457 213.122 137.711 214.089C138.017 215.056 138.984 216.482 139.799 217.245C141.02 218.365 141.886 218.671 143.667 218.671C144.94 218.671 146.671 218.314 147.485 217.907C148.351 217.5 149.369 216.431 149.776 215.616C150.183 214.802 150.54 213.224 150.54 212.155C150.54 211.137 150.081 209.508 149.521 208.591C148.961 207.726 148.096 206.759 147.638 206.504C147.129 206.301 145.907 205.944 144.94 205.792C143.922 205.588 142.446 205.792 141.478 206.148ZM107.525 211.849C107.066 212.257 106.71 213.071 106.71 213.631C106.761 214.14 107.117 214.955 107.525 215.362C107.932 215.769 108.746 216.125 109.255 216.125C109.815 216.125 110.63 215.769 111.037 215.362C111.495 214.955 111.852 214.242 111.852 213.835C111.852 213.427 111.648 212.613 111.342 212.053C111.037 211.442 110.324 211.035 109.612 211.035C108.899 211.035 107.983 211.391 107.525 211.849ZM129.414 211.951C128.905 212.46 128.498 213.224 128.548 213.631C128.599 214.038 129.007 214.751 129.516 215.209C130.025 215.718 130.941 216.125 131.603 216.125C132.214 216.125 132.926 215.667 133.232 215.107C133.537 214.547 133.741 213.631 133.741 213.071C133.741 212.511 133.283 211.849 132.723 211.544C132.163 211.239 131.399 211.035 130.992 211.035C130.636 211.035 129.923 211.442 129.414 211.951ZM123.102 216.889C122.338 217.449 121.931 218.162 121.982 218.976C121.982 219.689 122.542 220.503 123.305 220.961C124.425 221.623 124.731 221.623 125.85 220.961C126.665 220.452 127.123 219.74 127.123 218.925C127.123 218.162 126.665 217.347 126.003 216.889C125.341 216.482 124.731 216.125 124.578 216.125C124.425 216.125 123.763 216.482 123.102 216.889ZM114.142 217.449C113.684 217.856 113.328 218.671 113.328 219.231C113.379 219.74 113.735 220.554 114.142 220.961C114.55 221.369 115.364 221.725 115.873 221.725C116.433 221.725 117.247 221.369 117.655 220.961C118.113 220.554 118.469 219.74 118.469 219.18C118.469 218.62 118.113 217.805 117.706 217.398C117.298 216.991 116.484 216.635 115.975 216.635C115.415 216.635 114.6 216.991 114.142 217.449ZM101.67 219.332C100.652 219.689 99.4306 220.707 98.7689 221.725C98.0053 222.794 97.5981 224.27 97.5981 225.39C97.5981 226.459 97.9544 228.037 98.3616 228.852C98.7689 229.666 99.6343 230.633 100.296 230.99C100.907 231.295 101.976 231.753 102.689 231.957C103.401 232.161 104.827 232.11 105.896 231.855C106.965 231.601 108.339 230.735 109.052 229.87C109.764 229.055 110.477 227.579 110.63 226.663C110.884 225.543 110.63 224.372 110.019 223.049C109.459 221.929 108.492 220.605 107.779 220.096C107.066 219.587 105.845 219.078 104.979 218.925C104.165 218.823 102.638 218.976 101.67 219.332ZM132.926 219.638C132.315 219.842 131.246 220.656 130.636 221.471C129.821 222.387 129.363 223.609 129.261 225.187C129.159 226.51 129.414 228.139 129.77 228.852C130.127 229.514 131.246 230.633 132.214 231.244C133.232 231.957 134.759 232.415 135.777 232.415C136.744 232.415 138.271 232.008 139.086 231.499C139.951 230.99 141.02 229.717 141.529 228.699C141.987 227.681 142.395 226.357 142.395 225.797C142.395 225.238 141.987 223.914 141.529 222.896C141.02 221.878 139.951 220.605 139.086 220.096C138.271 219.587 136.744 219.18 135.777 219.231C134.81 219.231 133.486 219.434 132.926 219.638ZM117.604 225.288C116.993 225.492 116.026 226.357 115.415 227.172C114.855 227.935 114.244 229.412 114.091 230.379C113.939 231.397 114.091 232.771 114.499 233.637C114.855 234.451 115.72 235.622 116.433 236.233C117.146 236.844 118.418 237.506 119.233 237.709C120.149 237.913 121.574 237.811 122.796 237.404C124.12 236.946 125.189 236.131 125.952 234.96C126.716 233.891 127.123 232.415 127.123 231.244C127.123 230.226 126.767 228.648 126.36 227.834C125.952 227.019 124.934 225.95 124.069 225.543C123.254 225.136 121.676 224.779 120.658 224.83C119.589 224.83 118.215 225.034 117.604 225.288Z" fill="#FEFEFE"/>
</svg>
