<svg version="1.2" xmlns="http://www.w3.org/2000/svg" viewBox="0 0 1600 1527" width="1600" height="1527"><style>.a{fill:#969543}.b{fill:#9b9b9b}.c{fill:#f8fafa}.d{fill:#e2e023}.e{fill:#f7f9f8}.f{fill:#e2e025}.g{fill:#e2151f}</style><path fill-rule="evenodd" class="a" d="m1121 335c9.1 0 14.5 0.5 20 1.9 4.1 1 10 3.1 13 4.6 3 1.5 8 4.7 11 7.1 3 2.3 7.5 6.7 9.8 9.6 2.4 2.9 5.5 7.1 6.8 9.3 1.3 2.2 3.3 6.6 4.4 9.8 1.1 3.1 2.4 9.4 2.8 13.9 0.5 4.6 0.5 12 0 16.6-0.4 4.7-2 11.3-3.6 15.4-1.5 4-4.8 10.2-7.3 13.8-2.5 3.6-6.8 8.5-9.5 10.9-2.7 2.3-7.8 6-11.4 8.1-3.6 2.1-9.4 4.9-13 6.1-5.6 2-8.6 2.3-21.5 2.3-13 0.1-16-0.2-22.5-2.2-4.1-1.3-9.5-3.5-12-4.9-2.5-1.5-7.1-4.7-10.3-7.2-3.2-2.5-7.8-7.1-10.1-10.1-2.4-3-5.7-8.3-7.5-11.8-1.7-3.4-3.8-9-4.6-12.5-0.8-3.4-1.5-10.7-1.5-16.2 0-6.9 0.6-12.5 2-18 1.2-4.4 3.5-10.5 5.2-13.5 1.7-3 7-9.3 11.7-14 5.2-5.2 11-9.8 14.6-11.7 3.3-1.8 9.4-4.1 13.5-5.2 5.5-1.5 10.9-2 20-2.1zm-15 35.2c-2.5 1.4-6.2 4.5-8.3 6.9-2.1 2.4-4.7 6.9-5.9 9.9-1.3 3.6-2 7.8-2 12 0 3.6 0.7 8.5 1.4 11 0.8 2.5 2.9 6.7 4.7 9.5 1.8 2.7 4.7 6.1 6.5 7.5 1.7 1.4 5.6 3.5 8.6 4.7 3.2 1.3 7.7 2.3 10.8 2.3 2.8 0 7.6-0.9 10.5-2 2.8-1 7-3.5 9.2-5.3 2.2-1.9 5.3-5.8 6.9-8.8 1.6-3 3.5-7.7 4.3-10.4 0.7-2.8 1.3-6.6 1.3-8.5 0-1.9-0.6-5.5-1.4-8-0.7-2.5-2.3-6.4-3.5-8.8-1.1-2.3-3.8-5.8-5.8-7.8-2.1-2-6-4.7-8.8-6-2.7-1.3-7.5-2.6-10.5-2.9-3.1-0.3-7.2 0.1-9.5 0.8-2.2 0.7-6 2.4-8.5 3.9zm-643.5-34.2c39.8 0 51.3 0.2 52.3 1.2 0.9 0.9 1.2 5 1.2 13.8 0 8.5-0.4 12.9-1.2 13.7-0.9 1-5.9 1.3-34.8 1.3v47.3c0 35.7-0.3 47.5-1.2 48.5-0.8 0.8-5.5 1.2-16.3 1.2-10.8 0-15.4-0.3-16.3-1.2-1-1-1.2-11.7-1.2-95.8h-16.7c-12.3 0-17.1-0.3-18.1-1.2-0.8-0.9-1.3-5.3-1.4-13.9-0.2-9.6 0.1-12.8 1.2-13.7 1-0.9 14.2-1.2 52.5-1.2z"/><path fill-rule="evenodd" class="b" d="m477 1190.5c5.2 0.3 12 1.2 15 2.1 3 0.9 8 2.9 11 4.4 3 1.5 7.9 4.8 10.8 7.1 4.3 3.6 5.2 5 5.2 7.4-0.1 2.2-1.9 5.2-7 11.3-5.3 6.2-7.6 8.2-9.5 8.2-1.4 0-4.4-1.6-6.8-3.6-2.3-1.9-6.7-4.7-9.7-6.2-4.2-2-7-2.7-11.5-2.7-4.3 0.1-7.5 0.8-11.5 2.7-3 1.4-6.9 4.3-8.7 6.4-1.8 2.2-4.1 6.5-5.2 9.6-1.2 3.2-2.1 8.1-2.1 10.8 0 2.7 1 7.6 2.1 10.8 1.4 3.7 3.7 7.3 6.8 10.3 3.1 3 6.4 5.1 10.1 6.3 3.6 1.2 7.3 1.7 10.5 1.4 2.7-0.2 7.5-1.6 10.5-2.9 3-1.4 7.1-4 9-5.7 1.9-1.7 4.4-3.1 5.5-3.2 1.2 0 5.3 3.3 10.2 8.3 4.5 4.5 8.4 8 8.7 7.7 0.2-0.3 8.9-19.8 19.2-43.5 10.3-23.7 19.2-43.6 19.8-44.3 0.8-0.9 4.9-1.3 15.1-1.3 12.1 0 14.2 0.3 15.6 1.8 0.9 1 11.4 24.8 23.3 52.8 11.9 28 21.6 52.1 21.6 53.5 0 1.4-0.5 3.1-1.2 3.7-0.8 0.9-5.4 1.3-15.5 1.3-10.3 0-14.5-0.3-15.1-1.2-0.4-0.7-2.3-5.3-8-19.3h-42.4l-3.4 8.5c-1.9 4.7-4.3 9.3-5.2 10.3-1.5 1.5-3.5 1.8-15.2 1.7-9.5 0-13.9-0.3-14.8-1.2-0.7-0.7-1.2-2.3-1.2-3.6 0-1.2 0.9-4 2-6.2 1.1-2.2 1.9-4.2 1.7-4.4-0.1-0.3-2.5 1.3-5.2 3.4-2.8 2.1-7.7 5.2-11 6.9-3.3 1.6-8.7 3.7-12 4.5-3.5 0.9-10 1.6-15.5 1.6-5.2 0-12.4-0.7-16-1.6-3.6-0.8-9.2-3-12.5-4.7-3.3-1.8-8.7-5.7-12-8.8-3.3-3.1-7.7-8.5-9.8-12-2.1-3.5-4.7-9.6-5.9-13.4-1.7-5.3-2.2-9.5-2.2-17.5 0-7.1 0.6-12.4 1.8-16.5 1-3.3 2.9-8.3 4.3-11 1.4-2.8 6.2-8.6 10.7-13 5.9-5.9 10-9 15.1-11.5 3.9-1.8 10.1-3.9 14-4.6 4.2-0.8 10.8-1.2 16.5-0.9zm87.4 65.3c-0.3 0.9 2.1 1.2 9.6 1.2 7.5 0 9.9-0.3 9.6-1.2-0.2-0.7-2.1-6.1-4.3-12-2.1-6-4.3-10.8-4.9-10.8-0.6 0-3 4.8-5.4 10.8-2.3 5.9-4.4 11.3-4.6 12zm237.1-65.4c7.3 0.3 12.1 1.1 17.8 3 4.2 1.4 10.1 4.1 12.9 6 2.9 1.8 8 6.2 11.4 9.7 3.4 3.5 7.6 9.3 9.4 12.9 1.8 3.6 3.9 9.4 4.6 13 0.8 3.6 1.4 9.4 1.4 13 0 3.6-0.7 9.7-1.6 13.5-0.8 3.8-3 9.9-4.9 13.5-1.9 3.6-5.4 8.7-7.8 11.4-2.3 2.7-7.1 7-10.7 9.5-3.6 2.5-9.6 5.6-13.5 7-5.4 1.9-9.7 2.5-19 2.9-10 0.4-13.4 0.1-20.5-1.7-4.7-1.2-11-3.6-14-5.4-3-1.8-7.7-5.3-10.5-7.8-2.7-2.5-6.8-7.2-9-10.5-2.1-3.2-5.1-8.8-6.4-12.4-2.2-5.8-2.5-8-2.5-20 0-11.4 0.4-14.4 2.3-19.5 1.2-3.3 3.5-8 5.1-10.5 1.5-2.5 6.1-7.7 10.2-11.6 4.9-4.7 9.6-8.1 14.3-10.4 3.9-1.8 10.1-3.9 14-4.6 4.1-0.8 11.1-1.2 17-1zm-16.2 31.8c-1.5 0.9-4.1 2.9-5.7 4.4-1.6 1.6-4.2 5.6-5.7 8.9-2.2 4.5-2.9 7.5-2.9 12 0 3.3 0.7 8 1.5 10.5 0.9 2.5 3.1 6.6 5 9.3 2.5 3.3 5.2 5.5 9.2 7.5 4.5 2.1 7.3 2.7 12.3 2.7 5 0 7.7-0.6 11.4-2.5 3-1.5 6.5-4.5 8.8-7.5 2.2-2.8 4.6-7.4 5.5-10.5 1-3.5 1.4-7.7 1.1-11.5-0.3-3.6-1.5-8-3.1-11-1.4-2.7-3.7-6.2-5.1-7.7-1.4-1.6-5-3.9-7.9-5.3-3.7-1.8-6.8-2.5-10.7-2.4-3 0-6.7 0.4-8.2 0.8-1.5 0.5-4 1.5-5.5 2.3zm123.5-32.1c8.1-0.1 13.4 0.5 19.2 1.9 4.4 1.1 10.6 3.2 13.7 4.6 3.2 1.4 7 3.4 8.5 4.5 1.7 1.1 2.8 2.8 2.8 4.2-0.1 1.2-2.4 6.7-5.3 12.2-4 7.8-5.7 10.1-7.5 10.3-1.2 0.1-5-1.1-8.5-2.7-3.4-1.6-9.3-3.9-13.2-5-3.9-1.2-9-2.1-11.5-2.1-2.5 0-5.5 0.7-6.8 1.5-1.2 0.8-2.2 2.4-2.2 3.5 0 1.1 1 2.9 2.2 4 1.3 1.1 8.6 4.1 16.3 6.6 7.7 2.5 15.6 5.4 17.5 6.4 1.9 1 5.9 3.6 8.7 5.9 3.5 2.7 6.2 5.9 7.9 9.4 2.3 4.8 2.5 6 2.2 15.7-0.3 8.2-0.9 11.4-2.5 14.5-1.1 2.2-4.4 6.1-7.2 8.8-2.8 2.6-7.6 5.8-10.6 7.2-3 1.4-8.5 3-12.3 3.6-3.7 0.7-11.1 0.9-16.7 0.7-7.6-0.4-12.3-1.3-19.5-3.8-5.2-1.7-11.3-4.2-13.5-5.5-2.2-1.3-5.9-4-8.3-5.9-2.3-2.1-4.2-4.5-4.2-5.6 0-1.1 1.8-5.7 4.1-10.2 2.3-4.6 4.9-9.1 5.8-10.1 0.9-1 2.7-1.8 4.1-1.8 1.4 0 3.2 0.7 4 1.6 0.8 0.9 3.5 3 6 4.6 2.5 1.5 7.4 4 11 5.4 3.6 1.4 9.4 2.9 13 3.2 4.9 0.4 7.3 0.2 9.7-1.1 1.8-0.9 3.5-2.5 3.8-3.6 0.3-1.1 0-2.9-0.5-4-0.5-1.1-2.7-2.9-4.8-3.9-2-1-8.7-3.3-14.7-5.1-6-1.8-13.7-4.6-17-6.3-3.3-1.6-8-5.1-10.5-7.6-2.5-2.5-5.2-6.4-6-8.6-0.9-2.5-1.5-7.4-1.4-13 0-7 0.5-10 2.2-13.5 1.1-2.5 4.3-6.6 6.9-9.1 2.6-2.5 6.7-5.5 9-6.7 2.4-1.2 6.7-2.8 9.5-3.6 3.1-0.9 10.1-1.5 16.5-1.5z"/><path fill-rule="evenodd" class="a" d="m559 336.3c27.5 0.3 34.6 0.7 39.5 2.1 3.3 0.9 8 2.7 10.5 3.9 2.5 1.2 6.9 4.4 9.8 7.2 3.4 3.2 6.6 7.4 8.5 11.5 3.1 6.3 3.2 6.8 3.2 20.5 0 12.4-0.3 14.7-2.4 20-1.8 4.4-4.3 7.9-16.6 20.4l11.3 17.6c6.1 9.6 11.2 18.3 11.2 19.2 0 1-0.5 2.4-1.2 3-0.9 1-5.8 1.3-17.8 1.3-9.1 0-17-0.4-17.7-0.8-0.6-0.4-5.2-7.9-19-32.7l-20.3-0.5v15.7c0 11.1-0.3 16.2-1.2 17-0.8 0.9-5.5 1.3-16.3 1.3-10.8 0-15.4-0.3-16.3-1.2-1-1-1.3-14.6-1.4-62.4-0.2-52.2 0-61.2 1.2-62.3 1.2-1 8.7-1.2 35-0.8zm-1 62.7c25.5-0.5 28.1-0.8 31.5-2.6 2.2-1.2 4.9-3.6 6-5.5 1.3-2.3 2-5.2 2-9.1 0-4.2-0.5-6.4-2.1-8.5-1.2-1.5-3.6-3.7-5.5-4.8-2.9-1.7-5.6-2.1-17.6-2.3l-14.1-0.4zm105.2-63c11.8 0 15.1 0.3 16.3 1.5 1.3 1.3 1.5 9.6 1.5 62.3 0 46.3-0.3 61-1.2 62-0.9 0.9-5.6 1.2-16.3 1.2-10.8 0-15.4-0.3-16.3-1.2-1-1-1.3-14.6-1.4-62.3-0.2-51.3 0-61.3 1.2-62.3 0.9-0.8 6.1-1.2 16.2-1.2zm51.2 0c11.1-0.1 15.4 0.3 16.3 1.2 0.8 1 1.3 12 1.8 80.3l2.5 5c1.6 3.2 4.1 6.1 6.8 8 3.5 2.4 5.7 3.1 10.5 3.4 3.9 0.2 7.7-0.3 10.2-1.2 2.2-0.9 5.5-3.2 7.2-5.1 1.9-2 4-5.9 4.8-8.8 1.2-4.3 1.5-12.3 1.5-42.8 0-28.1 0.3-37.8 1.2-38.7 0.8-0.9 5.5-1.3 16.2-1.3 10.9 0 15.4 0.3 16.4 1.2 0.9 1 1.2 10.2 1.2 40.8 0 30.9-0.4 41-1.5 46.5-0.8 3.9-2.8 9.7-4.4 13-1.7 3.4-5.6 8.6-8.9 12-3.4 3.4-8.7 7.4-12.3 9.3-3.5 1.8-9.6 3.9-13.4 4.7-3.9 0.8-11.2 1.5-16.3 1.5-5 0-12.4-0.7-16.2-1.5-3.9-0.8-9.6-2.7-12.8-4.2-3.2-1.5-8.7-5.5-12.5-9.3-4.5-4.2-7.9-8.5-9.8-12.5-1.6-3.3-3.6-9.1-4.4-13-1.1-5.4-1.5-16.2-1.7-46.5-0.2-32.9 0-39.8 1.2-40.8 0.9-0.8 6.2-1.2 16.4-1.2zm143.6 0l50.5 68.4 0.3-32.5c0.2-29 0.4-32.6 2-34.2 1.5-1.5 3.5-1.7 15.4-1.7 10.9 0 14.1 0.3 15.3 1.5 1.3 1.3 1.5 9.6 1.5 62.3 0.1 48.4-0.2 61-1.2 61.9-0.9 0.9-5.4 1.2-30.3 0.8l-5.6-7.5c-3.2-4.1-14.5-19.4-44.9-60.5v33c0 24.6-0.3 33.3-1.2 34.3-0.9 0.8-5.5 1.2-15.8 1.2-10.4 0-14.9-0.3-15.8-1.2-1-1-1.3-14.6-1.4-62.3-0.2-51.3 0-61.3 1.2-62.3 0.9-0.8 6-1.2 30-1.2zm194 0l1.5 2.3c1.1 1.6 1.5 5 1.5 12.7 0 7.7-0.4 11.1-1.5 12.8-1.5 2.2-1.6 2.2-57.5 2.2v22h25.7c19.5 0 26.1 0.3 27.1 1.2 0.8 0.9 1.2 5 1.2 13.3 0 8.1-0.4 12.4-1.2 13.3-0.9 0.9-7.7 1.2-52.8 1.2v21.8c0 15.7-0.3 22.1-1.2 23-0.9 0.9-5.6 1.2-16.3 1.2-10.8 0-15.4-0.3-16.3-1.2-1-1-1.3-14.6-1.4-62.3-0.2-51.3 0-61.3 1.2-62.3 1-0.9 12.7-1.2 90-1.2z"/><path fill-rule="evenodd" class="b" d="m674.5 1192.2c32.2 0.3 33.1 0.4 39 2.7 3.9 1.6 7.7 4.2 10.8 7.3 2.6 2.6 5.4 6.5 6.4 8.5 1 2.4 1.6 6.6 1.6 11.3 0.1 5.7-0.4 8.6-2.1 12-1.1 2.5-3.5 5.8-8.2 10.5l4.2 3.5c2.2 1.9 5.2 5.5 6.7 8 2 3.6 2.6 6.2 2.9 13 0.3 5.4-0.1 10.2-0.9 13-0.9 2.7-3.3 6.5-6.4 9.9-2.8 2.9-7.3 6.5-10 7.9-2.8 1.3-8.4 3.1-12.5 3.8-5 0.9-16.9 1.3-36 1.4-21.7 0-28.8-0.3-29.8-1.2-1-1-1.3-13.3-1.4-55.4-0.2-46.1 0-54.2 1.2-55.3 1.2-0.9 9.1-1.1 34.5-0.9zm-4.5 41.8c16.7 0 22.9-0.4 24.5-0.9 1.7-0.6 3.6-2.2 4.3-3.8 0.8-1.5 1.1-3.8 0.8-5.1-0.3-1.2-1.6-2.9-2.9-3.7-1.5-1.1-5.9-1.7-14.3-2.2l-12.1-0.6zm0 44c21.3-0.5 26.5-1.1 28.4-2.1 1.6-0.7 3.5-2.6 4.2-4.1 1-2 1.1-3.5 0.4-5.3-0.5-1.4-2.2-3.3-3.7-4.2-2.1-1.4-5.4-1.9-15.9-2.1l-13.2-0.4z"/><path fill-rule="evenodd" class="c" d="m477.5 1194.6c4.4 0.4 10.3 1.3 13 2.1 2.8 0.8 7.9 3 11.5 4.9 3.6 1.9 8 4.8 9.8 6.4 1.7 1.7 3.2 3.2 3.2 3.5 0 0.3-2.8 3.9-6.3 8-3.4 4.2-6.3 7.6-6.5 7.5-0.1 0-2.1-1.6-4.5-3.6-2.3-1.9-6.5-4.6-9.2-6-2.8-1.3-7.3-2.7-10-3-2.8-0.4-7.4-0.1-10.5 0.6-3 0.7-7.3 2.2-9.5 3.5-2.2 1.2-5.7 4.2-7.7 6.6-2 2.4-4.6 7.1-5.8 10.4-1.3 3.8-2 8.5-2 12.8 0 4.3 0.7 8.7 2.1 12.5 1.5 4.1 3.8 7.3 7.8 11.3 4.1 4 7.1 6 11.1 7.3 3.9 1.3 7.5 1.7 12.5 1.4 4.7-0.2 8.8-1.2 12.5-2.9 3-1.4 7.1-4 12.5-8.8l14.7 14.4-5.6 4.5c-3 2.5-8.3 5.9-11.8 7.7-3.5 1.7-9 3.9-12.3 4.7-3.3 0.9-9.4 1.6-13.5 1.6-4.1 0-10.4-0.7-14-1.6-3.6-0.8-9.2-3-12.4-4.7-3.3-1.8-8.3-5.3-11-7.8-2.8-2.6-6.8-7.5-8.9-11-2.1-3.5-4.7-9.3-5.8-12.9-1.4-4.5-2.1-9.3-2.2-15.5 0-5.9 0.6-11.1 1.7-15 1-3.3 3-8.2 4.3-11 1.4-2.7 5.8-8.2 9.7-12 4.9-4.9 9.3-8.1 14.1-10.4 3.9-1.9 10.1-4 14-4.7 4.2-0.8 10.1-1.1 15-0.8zm324.5 0c5.2 0.3 11.4 1.5 15.8 2.9 3.9 1.4 9.6 4 12.5 5.9 2.8 1.8 7.6 5.8 10.5 9 2.8 3.1 6.8 8.9 8.7 12.9 2 4.2 4 10.3 4.7 14.7 0.9 5.8 0.9 9.3 0 15.5-0.7 4.6-2.5 10.8-4.3 14.5-1.7 3.6-4.8 8.9-7 11.8-2.1 2.8-6.9 7.3-10.6 9.9-3.8 2.6-9.9 5.8-13.8 7.2-4.9 1.7-10 2.5-17 2.9-8.1 0.4-11.6 0-18.5-1.7-4.7-1.2-10.7-3.5-13.5-5.1-2.7-1.5-7-4.6-9.5-6.8-2.5-2.1-6.3-6.5-8.5-9.8-2.1-3.2-5-8.8-6.4-12.4-2.1-5.6-2.5-8.2-2.4-18 0-9.3 0.4-12.6 2.2-17.5 1.2-3.3 3.6-8.2 5.4-10.9 1.8-2.7 6-7.5 9.5-10.8 3.6-3.4 9-7.1 13-9 3.7-1.7 9.8-3.7 13.7-4.4 4.2-0.8 10.4-1.1 15.5-0.8zm-16.7 27.6c-1.5 0.9-4.1 2.9-5.7 4.4-1.6 1.6-4.2 5.6-5.7 8.9-2.2 4.5-2.9 7.5-2.9 12 0 3.3 0.7 8 1.5 10.5 0.9 2.5 3.1 6.6 5 9.3 2.5 3.3 5.2 5.5 9.3 7.5 4.4 2.1 7.2 2.7 12.2 2.7 5 0 7.7-0.6 11.4-2.5 3-1.5 6.5-4.5 8.8-7.5 2.2-2.8 4.6-7.4 5.5-10.5 1-3.5 1.4-7.7 1.1-11.5-0.3-3.6-1.5-8-3.1-11-1.4-2.7-3.7-6.2-5.1-7.7-1.4-1.6-5-3.9-7.8-5.3-3.8-1.8-6.9-2.5-10.8-2.4-3 0-6.7 0.4-8.2 0.8-1.5 0.5-4 1.5-5.5 2.3zm123.5-28.1c6.2-0.1 11.9 0.6 17.4 2 4.6 1.1 11.6 3.6 22.8 8.9l-4.6 9.3c-2.6 5-4.8 9.3-5 9.5-0.2 0.1-1.9-0.7-3.6-1.7-1.8-1.1-7.5-3.3-12.5-5-6.7-2.2-11.2-3.1-16-3.1-4.8 0-7.6 0.5-9.3 1.7-1.4 0.9-2.8 2.2-3.2 2.7-0.4 0.6-0.8 2.6-0.8 4.4 0 1.7 0.5 4.1 1 5.2 0.5 1.1 3.1 3.1 5.8 4.4 2.6 1.3 9.9 4 16.2 6.1 6.3 2 12.9 4.4 14.5 5.2 1.6 0.9 5.2 3.2 7.9 5.2 3.3 2.5 5.6 5.3 7.4 9.1 2.2 4.9 2.5 6.4 2 13.5-0.3 5.3-1.2 9.4-2.5 12-1.1 2.2-4 5.8-6.4 7.9-2.4 2.2-6.8 5-9.6 6.3-2.9 1.3-8.3 2.8-12 3.4-3.8 0.7-10.4 0.9-14.8 0.6-5-0.3-11.5-1.7-17.5-3.7-5.2-1.7-11.1-4.1-13-5.2-1.9-1.2-5.2-3.4-11-7.8l4.5-9c2.5-4.9 5-9 5.5-9 0.5 0 1.2 0.5 1.5 1 0.3 0.6 3.3 2.8 6.8 5 3.4 2.3 9.7 5.2 14 6.5 4.9 1.6 10.1 2.5 14.2 2.5 3.8 0 7.8-0.6 9.5-1.5 1.6-0.8 3.7-2.5 4.5-3.7 0.8-1.3 1.5-3.6 1.5-5.3 0.1-1.7-0.8-4.2-2-5.7-1.1-1.6-3.7-3.7-5.7-4.7-2.1-1-8.8-3.3-14.8-5.1-6-1.8-13.6-4.5-16.7-6.1-3.2-1.6-7.6-4.8-9.8-7.1-2.3-2.4-4.6-5.9-5.3-7.8-0.6-1.9-1.1-6.7-1.1-10.5 0.1-5.2 0.7-8.3 2.5-11.9 1.3-2.7 4.1-6.4 6.2-8.3 2-1.8 5.5-4.2 7.7-5.3 2.2-1.1 6.4-2.6 9.3-3.4 2.8-0.8 9.4-1.5 14.5-1.5zm-346.3 1.8l24.8 0.6 21.9 51.5c12 28.3 21.8 51.8 21.8 52.3 0 0.4-5.5 0.7-24.5 0.7l-8.1-20.5h-48.7l-8.2 20-12.3 0.3c-6.7 0.1-12.1-0.2-11.9-0.6 0.1-0.5 10.3-24.2 22.7-52.6zm1.9 59.8c-0.3 1 2.1 1.3 9.6 1.3 7.6 0 9.9-0.3 9.6-1.3-0.2-0.7-2.1-6.1-4.2-12-2.2-5.9-4.4-10.7-5-10.7-0.6 0-3 4.8-5.4 10.7-2.3 5.9-4.4 11.3-4.6 12z"/><path fill-rule="evenodd" class="d" d="m1128.5 339.1c3.8 0.4 9.7 1.4 13 2.4 3.3 0.9 8.5 3 11.5 4.5 3 1.5 7.9 4.7 10.7 7.1 2.9 2.4 7.2 6.9 9.4 9.9 2.3 3 5.4 8.2 6.9 11.5 1.5 3.3 3.3 8.2 3.9 11 0.7 2.7 1.2 9 1.2 14 0 4.9-0.5 11.2-1.1 14-0.7 2.7-3.1 8.8-5.4 13.5-3 6.1-5.9 10.2-10.6 15-3.6 3.6-9.5 8.2-13 10.3-3.6 2.1-9.7 4.8-13.5 6-5.9 1.8-9.2 2.2-20.5 2.1-11-0.1-14.7-0.5-20-2.2-3.6-1.2-9.7-4.1-13.5-6.4-3.8-2.3-9.5-6.8-12.5-9.9-3-3.2-7.1-8.4-9-11.6-1.9-3.2-4.5-9.4-5.8-13.8-1.6-5.6-2.2-10.6-2.2-16.8 0-4.8 0.5-11.1 1.1-14 0.6-2.8 2.7-8.6 4.6-12.7 2.8-5.7 5.5-9.4 11.7-15.6 5.2-5.2 10.3-9.2 14.1-11.2 3.3-1.6 8.7-3.8 12-4.7 3.3-1 9.2-2 13-2.4 3.8-0.3 10.2-0.3 14 0zm-22.5 31.1c-2.5 1.4-6.2 4.5-8.3 6.9-2.1 2.4-4.7 6.9-5.9 9.9-1.3 3.6-2 7.8-2 12 0 3.6 0.7 8.5 1.4 11 0.8 2.5 2.9 6.7 4.7 9.5 1.8 2.7 4.7 6.1 6.5 7.5 1.7 1.4 5.6 3.5 8.6 4.7 3.2 1.3 7.7 2.3 10.8 2.3 2.8 0 7.6-0.9 10.5-2 2.8-1 7-3.5 9.2-5.3 2.2-1.9 5.3-5.8 6.9-8.8 1.6-3 3.5-7.7 4.3-10.4 0.7-2.8 1.3-6.6 1.3-8.5 0-1.9-0.6-5.5-1.4-8-0.7-2.5-2.3-6.4-3.5-8.8-1.1-2.3-3.8-5.8-5.8-7.8-2.1-2-6-4.7-8.8-6-2.7-1.3-7.5-2.6-10.5-2.9-3.1-0.3-7.2 0.1-9.5 0.8-2.2 0.7-6 2.4-8.5 3.9zm-693-30.2h99v22h-36v97h-27v-97h-36z"/><path fill-rule="evenodd" class="a" d="m1121.8 361.1c2.3-0.1 6.8 0.7 10 1.7 3.1 1 8 3.4 10.7 5.3 2.8 2 6.5 5.8 8.3 8.5 1.8 2.7 4.2 8 5.4 11.9 1.6 5.4 2 8.5 1.5 13.5-0.3 3.6-1.6 9.2-2.8 12.5-1.3 3.3-4 8.1-6.1 10.7-2.1 2.7-5.7 6-8 7.5-2.4 1.4-6.3 3.3-8.8 4.1-3 1-7.1 1.3-12 1.1-5.4-0.3-9.1-1.2-13-3.1-3-1.4-7.3-4.3-9.5-6.5-2.2-2.2-5.4-6.7-7.2-9.9-1.7-3.3-3.7-8.8-4.3-12.4-0.9-4.9-0.9-8.1 0-13 0.7-3.6 2.4-9 4-12 1.5-3 4.8-7.4 7.4-9.8 2.5-2.3 6.4-5.1 8.6-6.2 2.2-1.1 5.7-2.4 7.8-2.9 2-0.5 5.6-0.9 8-1zm-15.8 9.1c-2.5 1.4-6.2 4.5-8.3 6.9-2.1 2.4-4.7 6.9-5.9 9.9-1.3 3.6-2 7.8-2 12 0 3.6 0.7 8.5 1.4 11 0.8 2.5 2.9 6.7 4.7 9.5 1.8 2.7 4.7 6.1 6.5 7.5 1.7 1.4 5.6 3.5 8.6 4.7 3.2 1.3 7.7 2.3 10.8 2.3 2.8 0 7.6-0.9 10.5-2 2.8-1 7-3.5 9.2-5.3 2.2-1.9 5.3-5.8 6.9-8.8 1.6-3 3.5-7.7 4.3-10.4 0.7-2.8 1.3-6.6 1.3-8.5 0-1.9-0.6-5.5-1.4-8-0.7-2.5-2.3-6.4-3.5-8.8-1.1-2.3-3.8-5.8-5.8-7.8-2.1-2-6-4.7-8.8-6-2.7-1.3-7.5-2.6-10.5-2.9-3.1-0.3-7.2 0.1-9.5 0.8-2.2 0.7-6 2.4-8.5 3.9z"/><path fill-rule="evenodd" class="b" d="m802 1214.6c2.5 0.3 7.2 1.8 10.5 3.4 3.6 1.7 7.2 4.3 9.1 6.6 1.7 2.2 4.1 5.8 5.3 8.2 1.1 2.3 2.5 6.6 2.9 9.5 0.5 2.9 0.5 7.8 0 11.2-0.5 3.3-1.7 7.8-2.7 10-1 2.2-3.6 6-5.8 8.5-2.2 2.5-6.2 5.6-8.9 7-3.4 1.7-7 2.6-11.9 2.8-5.5 0.3-8.3-0.1-13-1.9-3.9-1.5-7.6-3.8-10.5-6.8-2.5-2.5-5.6-6.6-6.8-9.1-1.2-2.5-2.6-7.2-3.1-10.5-0.4-3.3-0.4-8.4 0.1-11.2 0.4-2.9 1.9-7.5 3.3-10.3 1.4-2.7 4.2-6.6 6.3-8.6 2-2 5.1-4.3 6.7-5.2 1.6-0.9 5.5-2.1 8.5-2.8 3-0.7 7.5-1 10-0.8zm-16.7 7.6c-1.5 0.9-4.1 2.9-5.7 4.4-1.6 1.6-4.2 5.6-5.7 8.9-2.2 4.5-2.9 7.5-2.9 12 0 3.3 0.7 8 1.5 10.5 0.9 2.5 3.1 6.6 5 9.3 2.5 3.3 5.2 5.5 9.3 7.5 4.4 2.1 7.2 2.7 12.2 2.7 5 0 7.7-0.6 11.4-2.5 3-1.5 6.5-4.5 8.8-7.5 2.2-2.8 4.6-7.4 5.5-10.5 1-3.5 1.4-7.7 1.1-11.5-0.3-3.6-1.5-8-3.1-11-1.4-2.7-3.7-6.2-5.1-7.7-1.4-1.6-5-3.9-7.9-5.3-3.7-1.8-6.8-2.5-10.7-2.4-3 0-6.7 0.4-8.2 0.8-1.5 0.5-4 1.5-5.5 2.3zm-210.9-1.2c0.5 0 4.3 8.7 8.3 19.3 4 10.5 7.3 19.5 7.3 20 0 0.4-7.2 0.7-16 0.7-8.8 0-16-0.3-16-0.7 0-0.5 3.4-9.5 7.6-20 4.3-10.6 8.2-19.3 8.8-19.3zm-10 34.8c-0.3 0.9 2.1 1.2 9.6 1.2 7.5 0 9.9-0.3 9.6-1.2-0.2-0.7-2.1-6.1-4.3-12-2.1-6-4.3-10.8-4.9-10.8-0.6 0-3 4.8-5.4 10.8-2.3 5.9-4.4 11.3-4.6 12z"/><path fill-rule="evenodd" class="c" d="m643.1 1195.9l31.2 0.3c30.3 0.3 31.4 0.4 37.2 2.8 3.3 1.3 7.7 4.1 9.7 6.2 2.1 2.1 4.5 5.5 5.4 7.5 0.9 2.1 1.6 6.3 1.6 9.3 0 3.1-0.8 7.5-1.9 9.9-1 2.5-3.6 6-5.8 7.8-2.2 1.9-5 3.6-6.3 3.8-1.2 0.3-2.2 0.8-2.2 1.2 0 0.5 1.2 1.1 2.7 1.5 1.6 0.3 4.7 2 7 3.7 2.4 1.7 5.5 5.2 7 7.8 1.8 3.2 2.8 6.8 3.1 10.8 0.3 3.6 0 8-0.9 10.9-0.8 3-3 6.7-5.4 9.4-2.2 2.5-6.3 5.6-9 7-2.8 1.3-8.4 3.1-12.5 3.8-5 0.9-16.6 1.3-61 1.4zm26.9 38.1c16.6 0.1 22.8-0.4 24.5-0.9 1.7-0.6 3.5-2.2 4.3-3.8 0.7-1.5 1.1-3.8 0.8-5-0.4-1.3-1.6-3-2.9-3.8-1.5-1.1-6-1.7-14.3-2.1l-12.1-0.7zm0 44c21.3-0.5 26.4-1.1 28.3-2 1.6-0.8 3.5-2.7 4.3-4.2 1-2 1.1-3.4 0.4-5.3-0.6-1.3-2.2-3.3-3.7-4.2-2.2-1.4-5.5-1.8-15.9-2.1l-13.2-0.4z"/><path fill-rule="evenodd" class="d" d="m527.2 339.8l32.2 0.5c23.8 0.3 33.4 0.8 37.1 1.9 2.7 0.8 7 2.4 9.5 3.5 2.5 1.2 6.7 4.1 9.5 6.6q5 4.4 8 10.8c2.8 6 3 7.1 3 18.9 0 11.6-0.2 12.9-2.8 18.2-1.5 3.2-5.1 8.3-8 11.3-2.8 3.1-6.5 6.1-8 6.8-1.5 0.7-2.6 1.6-2.4 2.2 0.2 0.6 5.6 8.9 11.9 18.5 6.2 9.6 11.7 18.1 12.1 18.7 0.5 1-2.6 1.3-29.8 1.2l-18.5-33.9h-27v34h-27zm30.8 59.2c25.5-0.5 28.1-0.8 31.5-2.6 2.2-1.1 4.9-3.6 6-5.5 1.3-2.3 2-5.2 2-9.1 0-4.2-0.5-6.4-2.1-8.5-1.2-1.5-3.6-3.7-5.5-4.8-2.9-1.7-5.6-2-17.6-2.3l-14.1-0.4zm92-59h27v119h-27zm51 0h27v37.8c0 30.7 0.2 38.7 1.5 43 0.8 2.9 2.7 6.6 4.2 8.4 1.5 1.7 4.6 4.3 6.8 5.7 3.2 1.9 5.6 2.6 12 2.9 5.7 0.3 9.2 0 12-1.1 2.2-0.9 5.9-3.6 8.2-6.1 2.8-3 4.8-6.4 5.8-9.8 1.2-4.3 1.5-12.3 1.5-80.8h26.6l-0.1 41.3c-0.1 38.4-0.2 41.6-2.1 46.7-1.1 3-3.1 7.5-4.6 10-1.4 2.5-4.6 6.5-7.1 9-2.4 2.5-7.1 5.9-10.3 7.7-3.3 1.7-9.2 3.8-13.2 4.7-4 0.9-10.7 1.6-15 1.6-4.2 0-10.9-0.7-14.7-1.5-3.9-0.8-9.9-2.9-13.4-4.7-3.7-1.9-8.6-5.6-11.6-8.8-2.9-3-6.5-8-8-11-1.5-3-3.4-8.4-4.1-12-1-4.8-1.4-16.4-1.4-44.7zm130 0h24.5l57 76.9 1-76.4 25.5-0.5v119h-25l-56.5-76.5-0.5 76.5h-26zm134-0.1l85.5 0.6v21l-58.5 0.5v30h54v21h-54v46h-27z"/><path fill-rule="evenodd" class="a" d="m554 362h15.3c8.3 0 16.9 0.5 18.9 1 2.1 0.6 5.6 2.7 7.8 4.8 3.1 2.8 4.3 4.9 5.2 8.7 0.6 2.8 0.8 7 0.4 9.5-0.3 2.5-1.6 6.1-2.9 8-1.2 1.9-4.3 4.6-6.7 6-4.2 2.4-5.5 2.5-38 3zm4 37c25.5-0.5 28.1-0.8 31.5-2.6 2.2-1.2 4.9-3.6 6-5.5 1.3-2.3 2-5.2 2-9.1 0-4.2-0.5-6.4-2.1-8.5-1.2-1.5-3.6-3.7-5.5-4.8-2.9-1.7-5.6-2.1-17.6-2.3l-14.1-0.4z"/><path fill-rule="evenodd" class="b" d="m677.9 1214.1c5.8 0 12.9 0.4 15.6 0.9 3.7 0.6 5.7 1.6 7.8 3.9 1.8 2.1 2.7 4.2 2.7 6.6 0 1.9-0.7 4.9-1.5 6.5-0.8 1.7-3 3.7-5 4.5-2.6 1.1-7.3 1.5-31.5 1.5l-0.2-11.3c-0.1-6.3 0.2-11.7 0.7-12 0.5-0.4 5.6-0.7 11.4-0.6zm-7.9 19.9c16.7 0 22.9-0.4 24.5-0.9 1.7-0.6 3.6-2.2 4.3-3.8 0.8-1.5 1.1-3.8 0.8-5-0.3-1.3-1.6-3-2.8-3.8-1.6-1.1-6-1.7-14.4-2.2l-12.1-0.6zm10.9 22c7.5 0 15.2 0.4 17.1 1 1.9 0.5 4.8 2.2 6.3 3.7 1.7 1.8 2.9 4.3 3.3 6.8 0.4 3 0 4.8-1.5 7.3-1.2 1.7-3.6 4-5.3 4.9-2.7 1.4-6.3 1.8-34.8 2.3l-0.2-12.3c0-6.8 0.3-12.7 0.7-13 0.5-0.4 7-0.7 14.4-0.7zm-10.9 22c21.3-0.5 26.5-1.1 28.4-2.1 1.6-0.7 3.5-2.6 4.2-4.1 1-2 1.1-3.5 0.4-5.3-0.5-1.4-2.2-3.3-3.7-4.2-2.1-1.4-5.4-1.9-15.9-2.1l-13.2-0.4z"/><path class="e" d="m1047.5 935.5c-1.7 0.9-5.1 3.5-7.8 6l-4.7 4.5v316c9 8.2 12.5 10.4 15.3 11.1 2.3 0.6 6.2 0.8 8.7 0.5 2.5-0.4 6.1-1.7 8-3.1 1.9-1.3 4.6-3.9 6-5.7l2.5-3.3c1-73.6 1.3-144.6 1.4-205.3l0.1-110.2c-14-12-14-12-20.3-12-3.4 0-7.5 0.7-9.2 1.5z"/><path class="f" d="m161 908.4c-1.9 0.7-4.8 3.1-6.4 5.2-1.6 2.1-3.5 5.4-4.3 7.2-0.7 1.7-1.3 5.1-1.3 7.5 0 2.6 1 6.2 2.7 9.7 2.3 4.5 19.9 22.2 105.3 106 56.4 55.3 108.1 106 115 112.6 9.5 9.2 13.3 12.2 16 12.7 1.9 0.4 5.2 0.7 7.3 0.7 2 0 4.8-0.5 6.2-1 1.4-0.5 5-3.4 8.1-6.2 3.9-3.8 5.8-6.5 6.5-9.3 0.6-2.2 0.7-5.8 0.4-8-0.4-2.2-1.5-5.3-2.6-7-1-1.7-23.5-24.6-50.1-51.1-26.6-26.4-71-70.3-98.8-97.4-27.8-27.1-58.2-56.5-67.5-65.3-9.3-8.8-18-16.4-19.2-16.8-1.3-0.5-4.9-0.9-8-0.9-3.2 0.1-7.4 0.7-9.3 1.4z"/><path class="f" d="m1164.5 899.5c-1.7 0.8-5.3 3.7-8 6.5l-5 5.1c-0.5 249.9-0.4 331.1-0.1 341.6l0.6 19.3c7.1 6.6 10.4 9.3 11.8 10.3 2.2 1.4 3.9 1.7 8.4 1.3 3.2-0.3 7.5-1.4 9.5-2.5 2.1-1 5.7-4 8-6.7l4.3-4.9v-356c-7.3-9.4-10.6-12.2-13.3-13.5-2.3-1.1-6.2-2-8.7-2-2.5 0-5.8 0.7-7.5 1.5z"/><path class="e" d="m650 828.8c-1.9 0.4-4.9 1.6-6.5 2.7-1.6 1-4.9 3.7-7.3 5.9l-4.3 4.1 0.1 15c77.9 77.7 119 118.3 141.5 140.4l41 40.1h18l12.5-12.5v-16c-42.9-42.6-74.8-74.2-98.5-97.6-23.6-23.4-51.2-50.4-61.3-60-10.1-9.6-19.8-18.4-21.5-19.7-1.8-1.2-4.8-2.4-6.7-2.6-1.9-0.3-5.1-0.1-7 0.2z"/><path class="g" d="m207.5 818.1c-2.8 0.5-6 1.6-7.3 2.4-1.6 1.1-2.2 2.5-2.2 5.2 0 3.3 0.8 4.5 6.3 9.8 3.4 3.3 15.3 14.1 26.2 24 11 9.9 29 26.3 39.9 36.5 11 10.2 23.4 21.6 27.6 25.5 4.2 3.8 18.8 17.1 32.4 29.5 13.7 12.4 35.2 32 47.9 43.5 12.7 11.5 30.6 27.7 39.8 36 9.2 8.2 23.6 21.5 32.1 29.4 8.4 7.9 18.2 16.8 21.8 19.7 3.6 2.8 9.6 6.9 13.5 9l7 3.8c69.5-1.4 77.4-1.8 79.3-3 1.3-0.8 2.2-2.4 2.2-3.9 0-1.4-1-4.4-2.1-6.8-1.2-2.3-3.6-6-5.3-8.1-1.7-2.2-20.2-19.5-41.1-38.6-20.9-19-46.3-41.9-56.5-51-10.1-9.1-25.2-23-33.5-31-8.3-8-20.2-19.3-26.5-25.1-6.3-5.8-14.6-13.3-18.5-16.6-3.9-3.3-16.9-15.2-29-26.4-12.1-11.3-30.8-28.5-41.5-38.3-10.7-9.7-22-19.3-25-21.3-4.2-2.8-7.1-3.8-12-4.4-3.6-0.5-20.9-0.8-38.5-0.7-17.6 0-34.2 0.4-37 0.9z"/><path class="f" d="m683.7 719.7l-5.7 5.8v20c45.3 45 94.2 93.1 137.9 136 43.7 42.9 84.6 82.9 91 88.9 6.4 5.9 12.9 11.7 14.6 12.7 2.2 1.4 4.9 1.9 10.5 1.9h7.5l13.5-13.5-0.5-17.3c-88.4-87.2-141.2-139.1-174.5-171.7-33.3-32.5-62.7-61.2-65.4-63.6l-4.9-4.4-18.3-0.7z"/><path class="g" d="m92.1 512.4c-1.9 0.7-4.4 2.6-5.5 4.2-1.2 1.6-4.6 9-7.5 16.4-3 7.4-6.7 17.3-8.3 22-1.6 4.7-4.5 15-6.4 23-1.9 8-5.7 23.7-8.4 35-2.7 11.3-5.4 23.4-5.9 27-0.6 3.6-1.7 13.3-2.6 21.5-0.8 8.3-2.8 32.5-4.5 54-1.6 21.5-3 46-3 54.5 0 8.5 0.7 25 1.5 36.5 0.8 11.5 2.6 32.7 3.9 47 1.4 14.3 3.1 30.3 3.7 35.5 0.6 5.2 3.9 20.8 7.4 34.5 3.5 13.8 7.8 31.3 9.6 39 1.7 7.7 6 22.1 9.6 32 3.6 9.9 8.5 23 10.8 29 2.4 6 7 17.3 10.3 25 3.3 7.7 8.5 19.6 11.6 26.5 3.1 6.9 10.9 22.2 17.3 34 6.4 11.8 14.9 27.6 19 35 4.1 7.4 10.1 17.3 13.4 22 3.2 4.7 9.4 13.7 13.7 20 4.4 6.3 15.2 20.7 24.2 32 8.9 11.3 22.1 27 29.5 35 7.3 8 24.2 25.3 37.7 38.5 13.4 13.2 28.6 27.6 33.7 32 5.2 4.4 12.4 10.6 16 13.9 3.6 3.2 14.5 11.6 24.1 18.6 9.6 6.9 21.8 15.6 27 19.1 5.2 3.5 11.8 7.8 14.5 9.5 2.8 1.8 13.4 8.4 23.8 14.8 12.8 8 30.2 17.3 55.5 29.7 23 11.3 41.4 19.7 49.2 22.4 6.9 2.3 18.4 6.5 25.5 9.3 7.1 2.8 17 6.2 22 7.6 5 1.3 16.2 5 25 8.1 8.8 3 21.2 6.7 27.5 8 6.3 1.4 24.5 5.2 40.5 8.6 16 3.3 32.8 6.7 37.5 7.4 4.7 0.8 14.8 1.9 22.5 2.5 7.7 0.5 28.6 1.5 46.5 2 17.9 0.5 43.3 1 56.5 1 13.2 0 33.9-0.7 46-1.5 12.1-0.8 26.7-2 32.5-2.6 5.8-0.5 15.7-1.9 22-3 6.3-1 21.9-4.1 34.5-6.8 12.6-2.7 27.7-5.9 33.5-7 5.8-1.2 18.6-4.6 28.5-7.7 9.9-3 22.3-6.6 27.5-7.9 5.2-1.3 12-3.3 15-4.4 3-1 9.5-3.8 14.5-6.1 5-2.3 14.6-6.5 21.5-9.2 6.9-2.7 13-5.3 13.5-5.8 0.5-0.4 7.5-3.5 15.5-6.9 8-3.3 18.5-8.4 23.5-11.2 5-2.9 13.5-7.3 19-9.9 5.9-2.8 14.3-8 20.5-12.7 9.6-7.2 10.8-8.5 14-14.8l3.5-7c0-27.8-0.4-32-1.8-35.7-1-2.8-3.1-5.9-5-7.4-2.5-2-3.9-2.4-6.7-2-1.9 0.4-10 4.3-18 8.7-8 4.5-20.6 11.5-28 15.6-7.4 4.1-16.2 9.2-19.5 11.2-3.3 2.1-11.2 5.8-17.5 8.4-6.3 2.5-16.9 7-23.5 10-6.6 3-15.6 6.8-20 8.5-4.4 1.7-13.2 5.1-19.5 7.6-6.3 2.4-17.6 6.3-25 8.6-7.4 2.3-20.3 6.4-28.5 9.1-10.8 3.5-20.3 5.7-34 7.9-10.5 1.7-26 4.4-34.5 6-8.5 1.6-22 4-30 5.4-8 1.4-22.1 3.2-31.5 4-11.1 1-27.4 1.6-47 1.5-16.5 0-42.1-0.4-57-0.9-22.2-0.7-29.3-1.3-40-3.4-7.1-1.4-18.4-3.6-25-5-6.6-1.3-19.9-3.6-29.5-5-9.6-1.5-20-3.1-23-3.7-3-0.6-12.9-3.5-22-6.4-9.1-3-22.6-7-30-9-7.4-2-18-5.4-23.5-7.7-5.5-2.2-15.6-6.2-22.5-8.8-6.9-2.6-19.3-7.8-27.5-11.5-8.3-3.7-17.5-7.9-20.5-9.4-3-1.6-15.9-8.4-28.5-15.3-12.6-6.9-25.8-14.2-29.2-16.4-3.4-2.1-14.9-9.7-25.5-16.9-10.6-7.1-24.7-17-31.3-22-6.6-4.9-20.1-15.9-30-24.4-9.9-8.5-27.2-24.5-38.3-35.5-11.2-11.1-25.2-25.5-31.2-32.1-5.9-6.6-16.5-19.3-23.6-28.1-7.1-8.9-16.8-21.5-21.6-28-4.7-6.6-13.5-19.6-19.5-28.9-6-9.3-15.5-24.9-21.1-34.5-5.5-9.6-12.1-22-14.6-27.5-2.4-5.5-6.5-13.6-9-18-2.5-4.4-6.2-12.7-8.4-18.5-2.2-5.8-6-15.5-8.5-21.5-2.5-6-5.9-15-7.7-20-1.7-5-6-18.5-9.4-30-3.5-11.5-7.3-25.3-8.5-30.5-1.1-5.2-4.6-21-7.7-35-3-14-6-27.7-6.5-30.5-0.6-2.7-1.7-13.5-2.5-24-0.9-11.1-1.8-37.9-2.1-64.5-0.4-30.2-0.2-51.2 0.6-62.5 0.7-9.3 1.9-23.1 2.7-30.5 0.9-7.4 2.7-19.1 4-26 1.4-6.9 4.8-22.2 7.6-34 2.7-11.8 5.7-23.1 6.5-25 0.8-1.9 2.6-4.8 4.1-6.3 1.5-1.6 4.5-3.9 6.7-5l4-2.2c294.5 0 330.6 0.3 336.5 1.3 4.1 0.7 11.6 2.2 16.5 3.4 4.9 1.1 10.8 3 13 4.1 2.2 1.1 8.1 4.3 13 7.2 5 2.9 11.3 7 14.2 9.2 2.8 2.1 6.8 5.8 8.9 8.3 2.1 2.5 6 7 8.7 10 2.7 3 6.9 9.3 9.2 14 2.3 4.7 6.3 13.7 8.8 20 2.7 6.8 5 14.8 5.7 19.5 0.7 4.4 1.3 14.3 1.3 22 0 13.2-0.1 14.5-3.2 23.5-1.8 5.2-5.7 14.7-8.7 21-3.1 6.3-7.7 14.2-10.4 17.5-2.6 3.3-9.4 10.5-15.1 16-5.7 5.6-12.7 11.6-15.4 13.5-2.8 1.9-8.8 5.2-13.5 7.3-4.7 2.2-12.3 5.5-17 7.4-4.8 1.9-11.8 3.8-16 4.4-4.1 0.5-21.7 1.4-39 1.9-17.3 0.6-35.3 1.5-40 2.1-4.7 0.6-9.7 1.7-11.3 2.5-2.1 1.1-2.7 2.1-2.7 4.7 0.1 2.7 1.7 4.8 11.3 14.5 6.2 6.3 17.7 17.3 25.7 24.5 7.9 7.3 22.7 20.9 32.9 30.2 10.2 9.4 23.7 22 30.1 28 6.3 6.1 17.1 16 24 22 6.9 6 21.7 19.3 32.9 29.5 11.2 10.2 23.4 21.2 27 24.4 3.6 3.2 15.6 14.3 26.6 24.6 11 10.2 26.3 24.5 34 31.6 7.7 7.1 18.4 16.5 23.7 20.9 5.2 4.4 12.4 9.7 15.9 11.8l6.4 3.8c72.3-0.6 76.4-0.8 78.8-2.3 2.2-1.4 2.7-2.6 2.7-5.5 0-2.1-0.9-5.6-1.9-7.8-1-2.2-5.6-7.6-10.2-12.1-4.6-4.4-12.9-12.3-18.4-17.5-5.5-5.2-16.3-14.8-24-21.4-7.7-6.5-20.5-18-28.5-25.5-8-7.5-21.3-19.4-29.5-26.5-8.3-7.1-23.5-20.8-33.8-30.4-10.4-9.7-23.5-21.9-29.1-27.1-5.6-5.2-15.5-14.2-22-20-6.5-5.8-12.4-11.7-13.2-13.2-0.8-1.6-1.4-4.1-1.4-5.8 0-2 1.1-4.3 3.2-6.7 1.8-2 10.9-9.3 20.3-16.2 9.4-7 20.6-16.3 25-20.6 4.4-4.4 13.2-14.5 19.6-22.5 6.4-8 12.7-16.5 13.9-19 1.3-2.5 4.4-10.1 7.1-17 2.6-6.9 6.6-17.2 8.9-23 2.2-5.8 4.5-13.2 5.1-16.5 0.6-3.7 0.9-19.2 0.7-40l-0.3-34c-5.2-14.7-8.7-24-11.2-30-2.4-6-6-14-7.9-17.7-1.9-3.8-6.1-10.5-9.3-15-3.2-4.6-9.5-12.6-13.9-17.8-4.3-5.2-11-12.4-14.8-16-3.8-3.6-10.5-9.4-14.9-13-4.4-3.6-14.5-10.2-22.5-14.8-8-4.6-17.2-9.8-20.5-11.4-3.4-1.7-10.1-3.8-15.5-4.9-5.2-1-14.9-3-21.5-4.4-9.5-2.1-16.4-2.8-33.5-3.5-11.8-0.5-98.2-0.9-192-0.9-139.4 0-171.1 0.2-173.9 1.3z"/><path class="e" d="m361.1 254.8l-6.4 5.7 1.2 19 11.6 11.7c692.3-0.6 840.6-1.1 841.6-1.7 0.9-0.6 3.9-3.5 6.6-6.5 4.8-5.3 5-5.8 5.7-13l0.7-7.5-13.5-12c-87.7-1-276.9-1.3-477.1-1.4l-364-0.1z"/><path class="e" d="m749.5 29c-6 0.5-17.8 1.4-26 2-8.3 0.7-20.4 2.1-27 3.2-6.6 1-18.3 2.8-26 3.8-7.7 1-21.6 3.5-31 5.5-9.4 2-26.2 5.9-37.5 8.7-11.3 2.7-33.2 9.2-48.8 14.4-15.5 5.2-29.9 10.3-32 11.3-2 1.1-8.2 3.6-13.7 5.6-5.5 1.9-18.1 7.2-28 11.7-9.9 4.5-19.1 8.9-20.5 9.8-1.4 0.9-4.5 2.5-7 3.4-2.5 1-13.5 6.8-24.5 12.9-11 6-24.7 13.9-30.5 17.5-5.8 3.5-17.3 11-25.5 16.5-8.3 5.5-20.2 13.8-26.5 18.5-6.3 4.7-16.9 12.8-23.5 18-6.6 5.3-17.6 14.3-24.5 20.1-6.9 5.8-24.7 22.7-39.6 37.6-14.9 14.8-31.5 32.2-36.8 38.5-5.4 6.3-14 16.7-19 23-5.1 6.3-13.3 17.1-18.3 24-4.9 6.9-11.6 16.3-14.8 21-3.7 5.6-5.5 9.1-5.1 10.2 0.4 1.2 2 2 4.3 2.3 2.1 0.2 11.2 0.7 20.3 1.1 9.1 0.3 21.3 0.4 27.2 0l10.8-0.6c20.7-26 31.8-39.4 38.1-46.5 6.2-7.1 20.3-22 31.3-33 11.1-11 26.6-25.8 34.6-32.9 8-7.1 20.1-17.3 27-22.6 6.9-5.4 18.8-14.3 26.5-20 7.7-5.6 23.4-16.1 35-23.3 11.6-7.2 23.9-14.7 27.5-16.7 3.6-2.1 13.4-7.4 21.7-11.9 8.4-4.4 24-12 34.5-16.7 10.6-4.8 25.4-11 32.8-13.9 7.4-2.9 22.5-8.2 33.5-11.8 11-3.6 27.9-8.8 37.5-11.6 9.6-2.7 22.5-6.1 28.5-7.5 6-1.4 15.7-3.4 21.5-4.5 5.8-1.1 17.5-3.2 26-4.5 8.5-1.4 27-3.7 41-5 14-1.4 35-3.1 46.5-3.7 11.8-0.7 29.4-0.9 40-0.5 10.5 0.3 26.6 1.3 36 2.1 9.4 0.8 23.5 2.1 31.5 3 8 0.8 19.7 2.2 26 3.1 6.3 0.8 15.1 2.4 19.5 3.4 4.4 1 13.3 2.8 19.7 3.9 6.5 1.2 16.4 3.4 22 5 5.7 1.6 15.7 4.3 22.3 6.1 6.6 1.8 20.3 5.9 30.5 9.2 10.2 3.3 24.6 8.4 32 11.3 7.4 2.9 18.9 7.7 25.5 10.5 6.6 2.9 20.5 9.5 31 14.7 10.5 5.2 24 12.2 30 15.5 6 3.3 13.7 7.7 17 9.6 3.3 1.9 12.1 7.4 19.5 12.1 7.4 4.7 20.5 13.4 29 19.5 8.5 6 19.3 13.9 24 17.5 4.7 3.6 14.3 11.2 21.5 17 7.8 6.3 25.5 23 44.1 41.5 17.1 17.1 35.6 36.5 41 43.1 5.4 6.6 14 17.2 19 23.5 5 6.3 15.2 20.5 22.6 31.5 7.5 11 17.7 27 22.8 35.5 5.1 8.5 14.6 25.9 21.1 38.5 6.5 12.6 13.9 27.7 16.5 33.5 2.5 5.8 7.2 17 10.4 25 3.2 8 8.7 23.3 12.3 34 3.6 10.7 8.3 26 10.6 34 2.2 8 5.9 22.6 8.1 32.5 2.2 9.9 5.6 27.5 7.5 39 2 11.5 4.2 26.4 5 33 0.8 6.6 2 25.3 2.6 41.5 0.9 22.4 0.9 37 0 61-0.6 17.3-1.6 37.1-2.2 44-0.5 6.9-2.6 22-4.5 33.5-1.9 11.5-4.6 26.4-6 33-1.4 6.6-4.3 19-6.4 27.5-2.1 8.5-5.2 20.2-6.9 26-1.6 5.8-5.5 17.9-8.6 27-3.1 9.1-8.4 23.3-11.7 31.5-3.4 8.2-9.5 22.2-13.6 31-4.1 8.8-9.9 21-12.9 27-3.1 6-8.9 17.1-13.1 24.5-4.1 7.4-9.3 16.4-11.5 20-2.2 3.6-7.6 11.9-12 18.5-4.4 6.6-11.9 17.6-16.8 24.5-4.8 6.9-9.7 13.3-10.8 14.2-1.6 1.4-2.6 1.6-4.1 0.8-1.1-0.5-2.6-2-3.3-3.3-0.9-1.7-1.3-32.9-1.8-141.7-0.4-76.7-0.7-212.2-0.8-301 0-88.8-0.4-174.7-0.9-190.8-0.7-28.3-0.8-29.2-2.7-29.2-1.1 0-4 1.2-6.5 2.8-2.5 1.6-12.4 10.5-22 19.8-9.7 9.3-26.3 25-37 35-10.7 9.9-24.3 22.5-30.2 28-5.8 5.4-18.2 17.1-27.5 25.9-9.3 8.8-27.9 26.4-41.3 39.1-13.5 12.6-31.7 29.7-40.5 37.9-8.8 8.2-23.7 22.1-33 31-9.3 8.9-25.8 24.4-36.5 34.5-10.7 10.1-21.6 20-24.3 22.1-3.4 2.9-5.6 3.9-8.2 3.9-2.9 0-4.8-1.2-10.7-6.3-4-3.4-14.3-12.7-22.8-20.7-8.5-7.9-24.1-22.6-34.6-32.5-10.4-9.9-25.5-24.1-33.5-31.6-7.9-7.4-25.7-24-39.4-36.9-13.8-12.8-31.5-29.5-39.5-37.1-8-7.5-24-22.7-35.5-33.6-11.6-10.9-30.3-28.4-41.5-38.9-11.3-10.5-26.4-24.4-33.5-30.9-7.1-6.5-13.9-12.4-15-13.2-1.1-0.7-3.8-1.7-6-2.3-2.2-0.5-22.9-1-46-1.1-23.1 0-42.8 0.2-43.8 0.5-0.9 0.3-1.7 1.4-1.7 2.3 0.1 1 4 5.8 8.8 10.7 4.8 4.9 43.6 41.5 86.2 81.4 42.6 39.9 83.4 78.3 90.5 85.3 7.1 6.9 16.6 16 21.1 20 4.5 4.1 28.5 26.5 53.3 49.9 24.9 23.4 53.9 50.6 64.4 60.4 10.6 9.8 30 28.1 43.2 40.6 13.2 12.5 25.8 24.3 28 26.2 2.2 1.9 5.6 3.8 7.5 4.2 3.4 0.7 3.8 0.5 11.5-7.1 4.4-4.4 20.6-19.6 35.9-33.9 15.3-14.2 37-34.4 48.1-44.9 11.2-10.5 29.9-28 41.6-39 11.8-11 33.3-31.3 47.9-45 14.6-13.8 30.5-28.7 35.3-33.3 5.8-5.4 10-8.6 12.7-9.5 3.6-1.1 4.2-1 5.8 0.6 1.6 1.7 1.7 20 2.5 325 0.4 177.8 1 324.7 1.2 326.4 0.3 2 1.3 3.7 2.5 4.3 1.5 0.8 2.9 0.5 5.7-1.3 2.1-1.3 8.8-6.8 14.8-12.2 6-5.5 21.8-20.7 35-34 13.3-13.2 29.9-30.7 36.9-39 7.1-8.2 17.2-20.6 22.6-27.5 5.4-6.9 14.2-18.8 19.7-26.5 5.4-7.7 14.4-21 20-29.5 5.5-8.5 13.3-21.1 17.2-28 4-6.9 13.2-24.4 20.5-39 7.4-14.6 17-35 21.4-45.5 4.4-10.5 10.1-24.9 12.6-32 2.6-7.1 7.3-21.5 10.6-32 3.3-10.5 7.7-25.7 9.9-34 2.2-8.2 5.6-22.4 7.5-31.5 1.9-9.1 4.6-23.5 6-32 1.4-8.5 3.4-23.1 4.5-32.5 1.1-9.4 2.6-23.7 3.2-32 0.6-8.2 1.1-33 1.1-55 0-22-0.5-47.4-1.2-56.5-0.6-9.1-2.7-27.5-4.6-41-1.8-13.5-4.6-30.8-6-38.5-1.4-7.7-4.5-22.5-7-33-2.4-10.5-6.7-26.6-9.5-36-2.8-9.4-7.9-25.1-11.4-35-3.4-9.9-9.5-26.1-13.5-36-4-9.9-13.7-30.8-21.5-46.5-7.8-15.7-18.1-35-22.7-43-4.7-8-12.8-21.2-17.9-29.5-5.2-8.2-14.3-21.5-20.3-29.5-6-8-14.8-19.4-19.5-25.5-4.7-6-11.9-15-16-20-4.2-4.9-12.7-14.6-19-21.5-6.3-6.9-16-17.2-21.5-22.8-5.6-5.7-15.5-15.4-22.1-21.5-6.6-6.2-21.4-19.1-32.9-28.7-11.5-9.6-25-20.5-30-24.2-5-3.7-18.1-12.7-29.1-20.1-11-7.4-25.8-17-33-21.4-7.2-4.5-19.3-11.5-27-15.7-7.7-4.2-22.1-11.7-32-16.6-9.9-4.9-26.8-12.5-37.5-16.8-10.7-4.4-25.6-10.2-33-13-7.4-2.8-16.9-6.2-21-7.5-4.1-1.4-18.1-5.5-31-9.1-12.9-3.6-26.4-7.3-30-8.1-3.6-0.8-14.8-3.3-25-5.6-10.2-2.2-26.1-5.1-35.5-6.4-9.4-1.3-21-3.1-26-4-5-0.8-18.2-2.2-29.5-3.1-11.3-0.8-38.3-1.7-60-1.9-21.7-0.2-44.5 0-50.5 0.5z"/></svg>