<svg width="235" height="240" viewBox="0 0 235 240" fill="none" xmlns="http://www.w3.org/2000/svg">
<path d="M114.549 2.30769C112.01 4.26923 110.741 4.38462 107.626 3.46154C104.626 2.53846 103.241 2.76923 100.472 4.38462C98.3948 5.65385 96.8948 7.61538 96.664 9.23077C96.4333 11.6538 95.741 12.1154 91.9333 12.2308C89.5102 12.3462 86.6256 13.2692 85.5871 14.3077C84.5487 15.3462 83.741 17.8846 83.741 19.8462C83.741 22.7308 83.0487 24.1154 80.8564 25.3846C79.241 26.3077 77.5102 28.3846 76.9333 30C76.241 31.9231 76.4333 34.1538 77.5102 36.6923C78.8948 39.9231 78.8948 40.6154 77.2794 42.4615C76.1256 43.6154 75.5487 45.8077 75.7794 48.1154C76.241 51.8077 76.241 51.8077 73.3564 49.9615C71.5102 48.8077 69.3179 48.4615 67.241 48.9231C64.8179 49.5 64.1256 49.1538 64.1256 47.5385C64.241 46.5 63.3179 44.6538 62.1641 43.6154C61.0102 42.4615 58.3564 41.5385 56.2794 41.5385C54.3179 41.5385 51.664 42.2308 50.3948 42.9231C48.664 44.1923 47.8564 44.0769 45.5487 41.7692C44.0487 40.3846 41.6256 39.2308 40.1256 39.2308C38.741 39.2308 36.2025 40.7308 34.3564 42.4615C31.5871 45.3462 30.8948 45.5769 28.0102 44.4231C25.4717 43.5 24.0871 43.6154 21.664 45C19.4717 46.2692 18.4333 47.8846 18.2025 50.5385C17.9717 53.7692 17.5102 54.2308 14.741 54.2308C12.7794 54.3462 10.4717 55.6154 8.39481 57.6923C6.66405 59.6538 5.27943 61.8462 5.27943 62.6538C5.27943 63.3462 5.85635 64.6154 6.43328 65.1923C7.35635 66 6.66405 67.5 4.24097 70.1538C2.27943 72.1154 0.664044 75 0.664044 76.5C0.664044 77.8846 1.70251 80.1923 2.97174 81.6923C4.58712 83.4231 4.93328 84.6923 4.12558 85.7308C3.43328 86.4231 3.08712 89.1923 3.20251 91.7308C3.54866 95.6538 4.12558 96.5769 7.35635 98.0769C10.3564 99.4615 11.0487 100.5 11.0487 103.269C11.0487 105.346 11.9717 107.769 13.5871 109.269C15.2025 110.885 17.741 111.923 19.9333 111.923C23.0487 111.923 23.8564 112.5 24.3179 114.808C24.664 116.423 25.3564 117.692 26.0487 117.692C26.6256 117.692 27.2025 118.962 27.2025 120.577C27.2025 122.192 26.6256 123.692 26.0487 124.038C25.3564 124.385 24.8948 125.654 24.8948 126.923C24.8948 128.654 24.3179 129.115 22.241 128.654C20.8564 128.423 18.4333 128.538 16.9333 129C15.4333 129.462 13.4717 131.192 12.664 133.038C11.741 134.769 11.2794 137.192 11.6256 138.462C12.0871 140.192 11.5102 141 9.54866 141.462C8.16405 141.923 6.08712 143.077 4.93328 144.115C3.77943 145.154 2.85635 147.115 2.97174 148.615C2.97174 150 3.66405 152.077 4.35635 153.346C5.62558 155.192 5.39481 156 3.20251 158.769C1.81789 160.615 0.54866 162.808 0.664044 163.615C0.664044 164.308 1.70251 166.5 2.97174 168.462C4.24097 170.423 6.08712 171.923 7.0102 171.923C8.5102 171.923 8.5102 172.269 7.0102 174.577C6.08712 175.962 5.27943 177.462 5.27943 178.038C5.27943 178.5 6.54866 180.346 8.16404 182.308C10.0102 184.5 12.0871 185.769 13.9333 185.769C16.3564 185.769 16.9333 186.462 17.3948 189.577C17.741 191.769 18.8948 193.846 20.5102 194.885C22.241 195.808 24.7794 196.154 27.4333 195.692C31.241 195.115 32.0487 195.346 33.5487 197.885C34.9333 200.077 36.2025 200.769 39.5487 200.769C42.5487 200.885 44.6256 200.077 45.8948 198.462C47.8564 196.269 48.2025 196.269 50.5102 198C52.3564 199.154 54.5487 199.615 57.4333 199.154C60.8948 198.577 62.164 197.769 63.2025 195C64.5871 191.885 65.2794 191.538 69.5487 191.538C72.3179 191.538 74.5102 191.077 74.5102 190.385C74.5102 189.692 74.9717 189.231 75.6641 189.231C76.241 189.231 76.8179 190.731 76.8179 192.692C76.8179 194.654 77.2794 196.154 77.9717 196.154C78.5487 196.154 79.1256 196.962 79.1256 197.885C79.1256 198.808 78.4333 199.846 77.6256 199.962C76.8179 200.192 76.241 202.269 76.241 205.038C76.241 207.808 77.0487 210.346 78.2025 211.5C79.3564 212.538 80.741 213.462 81.4333 213.462C82.1256 213.462 82.241 215.192 81.8948 217.846C81.2025 221.654 81.4333 222.346 84.7794 224.769C86.741 226.154 89.5102 227.308 90.8948 227.308C92.8564 227.308 93.664 228 93.7794 229.846C93.8948 231.346 95.164 233.423 96.664 234.692C98.6256 236.308 100.472 236.654 103.933 236.077C107.626 235.615 108.895 235.846 110.279 237.692C111.549 239.423 113.395 240 116.856 240C120.433 240 122.279 239.308 123.549 237.692C124.933 235.846 125.741 235.615 127.587 236.538C128.856 237.231 131.049 237.692 132.433 237.692C133.933 237.692 136.241 236.885 137.626 235.962C139.241 234.923 140.279 233.077 140.279 231.346C140.279 228.923 140.741 228.577 143.164 229.038C144.895 229.385 147.433 228.692 149.51 227.308C152.395 225.346 152.972 224.192 152.972 220.385C152.972 217.385 153.549 215.769 154.356 215.769C155.164 215.885 156.779 214.962 157.818 213.808C158.972 212.654 159.895 209.885 159.895 207.462C159.895 204.923 159.318 202.846 158.395 202.615C157.356 202.385 157.587 201.231 159.203 198.346C160.472 196.038 161.049 193.5 160.587 192.115C160.01 190.269 160.241 190.038 161.626 190.731C162.549 191.192 164.741 191.538 166.472 191.538C168.779 191.538 170.279 192.462 171.549 194.654C172.818 196.731 174.895 198.231 177.318 198.692C180.087 199.385 182.049 199.038 183.779 197.885C186.203 196.269 186.664 196.385 188.395 198.462C189.779 199.846 191.972 200.654 194.741 200.769C197.972 200.769 199.703 200.077 201.087 198.115C202.818 195.923 204.087 195.577 208.587 195.808C213.779 196.154 214.241 195.923 216.433 192.462C217.703 190.385 218.51 187.962 218.164 187.269C217.818 186.231 218.626 185.769 220.703 185.769C222.549 185.769 225.203 184.615 226.703 183.231C228.779 181.154 229.356 179.654 228.895 176.538C228.433 173.308 228.895 172.154 231.087 170.538C233.049 169.038 233.741 167.308 233.741 164.192C233.741 161.192 233.049 159.231 231.549 158.077C229.472 156.577 229.472 156.115 230.972 154.038C231.895 152.769 232.587 150.692 232.587 149.423C232.587 148.154 231.779 145.962 230.856 144.577C229.818 142.962 227.972 141.923 226.241 141.923C223.587 141.923 223.472 141.577 224.049 138.231C224.51 135.462 224.164 133.731 222.549 131.885C221.164 130.154 219.203 129.346 216.087 129.231C213.433 129.231 211.818 128.654 211.818 127.846C211.933 127.038 210.549 124.962 208.933 123.231C206.164 120.115 206.049 119.885 208.01 116.885C209.626 114.346 211.01 113.654 214.703 113.423C217.703 113.308 219.779 112.5 220.818 111.115C221.626 109.962 222.203 107.654 222.203 105.923C222.203 104.077 222.779 102.692 223.587 102.692C224.395 102.808 226.472 101.769 228.203 100.385C230.626 98.6538 231.433 97.0385 231.433 94.3846C231.433 92.3077 230.856 90 230.164 89.4231C229.356 88.6154 229.703 87.6923 231.664 86.1923C233.51 84.8077 234.318 83.0769 234.318 80.0769C234.318 77.0769 233.51 75.4615 231.433 73.8462C228.664 71.8846 228.664 71.5385 230.279 68.6538C231.779 66 231.779 65.3077 230.049 62.5385C229.01 60.8077 226.587 58.8462 224.626 58.2692C222.203 57.4615 221.049 56.4231 221.049 54.8077C221.049 53.5385 219.664 50.8846 218.049 49.0385C215.395 45.9231 214.703 45.6923 210.549 46.5C207.779 46.9615 206.049 46.8462 206.049 46.1538C206.049 45.5769 205.241 44.1923 204.318 43.2692C203.395 42.3462 200.856 41.1923 198.779 40.8462C196.01 40.2692 194.51 40.6154 192.895 42.2308C191.164 44.0769 190.472 44.1923 188.626 43.0385C187.472 42.2308 184.356 41.5385 181.818 41.5385C177.895 41.5385 176.856 42.1154 175.126 45C173.51 48 172.703 48.3462 169.703 47.8846C167.51 47.4231 165.318 47.8846 163.587 48.9231C162.203 49.9615 160.818 50.7692 160.472 50.7692C160.126 50.7692 159.895 49.9615 159.895 49.0385C159.895 48.1154 159.203 46.1538 158.395 44.8846C157.241 42.9231 157.241 42.3462 158.395 42C159.203 41.7692 160.241 39.8077 160.587 37.8462C160.933 35.7692 160.703 32.8846 160.01 31.5C159.318 30 157.703 28.6154 156.433 28.2692C154.472 27.8077 154.241 27 154.818 24C155.279 21.2308 154.818 19.3846 153.318 17.5385C152.049 15.8077 149.741 14.6538 147.203 14.4231C143.972 14.1923 143.049 13.6154 142.818 11.4231C142.587 9.92308 141.549 7.73077 140.51 6.46154C138.895 4.84615 137.51 4.5 133.356 5.07692C128.856 5.65385 127.818 5.30769 125.279 2.76923C123.664 1.26923 121.356 0 119.972 0C118.587 0 116.164 1.03846 114.549 2.30769Z" fill="black"/>
<path d="M113.279 227.423C111.664 228.231 111.087 229.731 111.203 232.5C111.433 235.731 112.01 236.769 114.664 237.692C117.087 238.615 118.356 238.5 120.433 237.115C121.933 236.077 122.972 234.231 122.972 232.5C122.972 230.769 121.933 228.923 120.433 227.885C118.933 226.962 117.318 226.154 116.626 226.154C115.933 226.154 114.433 226.731 113.279 227.423ZM127.703 225.577C126.203 226.615 125.049 228.346 125.049 229.385C125.164 230.423 126.087 232.269 127.241 233.308C128.395 234.462 130.587 235.385 132.318 235.385C133.933 235.385 135.779 234.692 136.587 234C137.395 233.192 137.972 231.231 137.972 229.615C137.972 228 137.395 226.038 136.587 225.231C135.779 224.423 134.049 223.846 132.779 223.846C131.51 223.846 129.203 224.654 127.703 225.577ZM97.1256 225.346C96.0871 226.731 95.6256 228.923 95.8564 230.192C96.2025 231.462 97.7025 233.192 99.3179 234C101.164 234.808 103.01 235.038 104.279 234.346C105.318 233.885 106.587 232.5 107.164 231.462C107.626 230.423 107.972 228.808 107.972 227.885C107.972 226.962 107.164 225.346 106.241 224.423C105.318 223.5 103.241 222.692 101.626 222.692C100.01 222.692 98.0487 223.731 97.1256 225.346ZM109.126 220.962C109.126 221.885 110.164 222.692 111.433 222.692C112.703 222.692 113.741 221.885 113.741 220.962C113.741 220.038 112.703 219.231 111.433 219.231C110.164 219.231 109.126 220.038 109.126 220.962ZM119.626 217.731C118.703 217.962 118.01 219.115 118.126 220.154C118.126 221.308 119.049 222.808 120.087 223.615C121.472 224.769 122.164 224.769 123.549 223.615C124.587 222.808 125.51 221.308 125.626 220.269C125.741 219.231 124.933 217.962 123.779 217.615C122.741 217.269 121.703 216.923 121.587 217.038C121.356 217.038 120.433 217.385 119.626 217.731ZM129.895 216.692C129.895 217.154 130.472 218.308 131.049 219.231C132.087 220.731 132.318 220.731 133.241 219.231C133.818 218.308 134.164 217.154 133.818 216.692C133.587 216.115 132.549 215.769 131.626 215.769C130.703 215.769 129.895 216.115 129.895 216.692ZM142.472 215.538C141.549 215.885 140.164 216.808 139.472 217.731C138.664 218.538 138.203 220.5 138.549 222.115C138.895 223.731 140.395 225.692 142.01 226.5C144.433 227.654 145.356 227.538 147.779 226.154C149.626 225 150.779 223.385 150.779 221.538C150.779 219.923 150.087 218.077 149.279 217.385C148.472 216.692 146.972 215.885 145.933 215.538C144.895 215.192 143.395 215.192 142.472 215.538ZM85.241 215.192C84.4333 216.115 83.741 217.846 83.741 219C83.6256 220.038 84.5487 221.885 85.7025 222.923C86.8564 224.077 88.8179 225 90.0871 225C91.3564 225 93.3179 224.192 94.3564 223.038C95.5102 221.885 96.4333 219.923 96.4333 218.654C96.4333 217.385 95.8564 215.654 95.0487 214.846C94.241 214.038 92.0487 213.462 90.0871 213.462C88.241 213.577 85.9333 214.269 85.241 215.192ZM100.356 212.885C99.2025 213.692 98.2794 215.192 98.5102 216.231C98.6256 217.269 99.8948 218.423 101.395 218.769C102.779 219.115 104.51 218.769 105.433 217.846C106.356 216.923 106.587 215.538 106.01 214.269C105.549 213.115 104.51 212.077 103.818 211.846C103.01 211.615 101.51 212.077 100.356 212.885ZM110.51 210C109.818 211.269 109.126 212.538 109.126 212.885C109.126 213.231 110.279 214.269 111.779 215.192C113.279 216.231 115.126 216.577 116.395 216.115C118.01 215.423 118.472 214.269 118.126 211.731C117.895 209.077 117.203 208.154 114.895 207.923C112.972 207.692 111.51 208.385 110.51 210ZM135.087 207.462C134.741 208.5 134.856 210.346 135.318 211.5C135.895 212.769 137.164 213.462 138.433 213.231C139.587 213 141.203 212.077 141.895 211.038C142.933 209.538 142.703 208.731 141.203 207.231C140.049 206.192 138.318 205.385 137.51 205.385C136.587 205.385 135.433 206.308 135.087 207.462ZM122.395 208.038C120.779 210.346 120.895 210.808 122.972 212.885C124.933 214.846 125.626 214.962 128.164 213.808C129.779 213 131.049 211.385 131.049 210.346C131.049 209.192 130.472 207.577 129.664 206.769C128.856 205.962 127.241 205.385 126.203 205.385C125.164 205.385 123.433 206.538 122.395 208.038ZM94.7025 207.115C94.3564 208.038 94.3564 209.308 94.7025 210C95.0871 210.769 95.8564 210.769 97.0102 210C97.9333 209.308 98.5102 208.038 98.164 207.115C97.8179 206.192 97.0102 205.385 96.4333 205.385C95.741 205.385 94.9333 206.192 94.7025 207.115ZM147.433 204.231C146.049 205.5 145.01 207.346 145.241 208.385C145.356 209.423 146.741 211.269 148.356 212.538C150.664 214.269 151.818 214.5 154.472 213.462C157.01 212.538 157.587 211.615 157.587 208.269C157.587 205.385 156.895 203.885 155.279 203.077C154.01 202.385 152.279 201.923 151.472 201.923C150.549 201.923 148.818 202.962 147.433 204.231ZM101.626 201.577C101.049 201.923 100.703 203.538 100.818 205.038C101.049 206.885 101.972 207.923 104.279 208.385C106.241 208.846 107.972 208.5 108.895 207.462C109.818 206.654 110.164 204.808 109.818 203.423C109.356 201.462 108.318 200.769 105.895 200.769C104.049 200.769 102.203 201.115 101.626 201.577ZM140.279 200.769C140.279 202.038 140.626 203.077 141.203 203.077C141.664 203.192 142.703 202.5 143.395 201.692C144.203 200.885 144.549 199.846 143.972 199.269C143.51 198.808 142.472 198.462 141.779 198.462C140.972 198.462 140.279 199.5 140.279 200.769ZM80.2794 200.769C78.7794 202.154 77.6256 203.885 77.741 204.808C77.8564 205.731 78.5487 207.577 79.1256 208.846C79.9333 210.462 81.4333 211.154 84.3179 211.154C87.3179 211.154 88.7025 210.462 89.6256 208.615C90.3179 207.115 90.664 204.923 90.3179 203.654C89.9717 202.385 88.7025 201 87.5487 200.423C86.3948 199.962 84.8948 199.385 84.2025 199.038C83.6256 198.692 81.7794 199.5 80.2794 200.769ZM128.164 198.808C127.587 200.538 128.164 202.038 129.779 203.654L132.203 205.962C136.241 202.038 136.818 200.538 136.356 198.808C135.779 196.846 134.856 196.154 132.318 196.154C129.779 196.154 128.626 196.846 128.164 198.808ZM92.3948 195.808C91.8179 196.154 91.4717 197.308 91.5871 198.346C91.7025 199.385 92.3948 200.769 93.2025 201.577C94.3564 202.615 95.164 202.615 96.664 201.577C97.8179 200.769 98.6256 199.269 98.741 198.231C98.741 197.077 97.9333 195.923 97.0102 195.577C96.0871 195.231 94.8179 195 94.3564 195C93.7794 195 92.9717 195.346 92.3948 195.808ZM113.626 196.038C112.933 197.308 112.356 199.038 112.472 199.846C112.472 200.654 113.395 202.269 114.549 203.423C115.703 204.577 117.664 205.385 118.933 205.154C120.087 204.923 121.933 203.423 122.972 201.692C124.587 198.808 124.587 198.462 122.395 196.154C121.126 194.885 118.933 193.731 117.549 193.846C116.164 193.846 114.433 194.885 113.626 196.038ZM102.779 190.154C101.626 191.308 100.703 193.038 100.818 193.962C100.933 194.885 102.087 196.269 103.356 197.077C104.856 197.885 106.472 198.115 107.741 197.423C108.779 196.962 110.049 195.577 110.626 194.538C111.164 193.308 110.587 191.923 108.895 190.385C107.395 189.115 105.895 188.077 105.549 188.077C105.203 188.077 103.933 189 102.779 190.154ZM190.472 188.769C189.433 189.692 188.626 191.654 188.626 193.038C188.626 194.423 189.318 196.269 190.126 197.077C190.933 197.885 193.241 198.462 195.087 198.462C197.049 198.346 199.126 197.538 199.933 196.385C200.741 195.346 201.433 193.731 201.433 193.038C201.433 192.231 200.395 190.5 199.126 189.231C197.856 187.962 195.779 186.923 194.626 186.923C193.356 186.923 191.51 187.731 190.472 188.769ZM148.472 189.346C147.087 190.846 145.933 192.923 146.049 194.077C146.049 195.231 147.203 196.962 148.703 197.885C150.087 198.808 152.164 199.615 153.203 199.615C154.241 199.615 155.972 198.692 157.01 197.654C158.395 196.154 158.741 194.538 158.279 192.115C157.818 190.154 157.356 188.538 157.241 188.423C157.126 188.308 155.626 187.962 154.01 187.5C151.703 186.923 150.433 187.385 148.472 189.346ZM35.8564 188.769C34.8179 189.692 34.0102 191.654 34.0102 193.038C34.0102 194.423 34.9333 196.385 36.0871 197.308C37.241 198.115 39.3179 198.923 40.7025 199.038C42.0871 199.038 44.0487 198 44.9717 196.731C46.0102 195.462 46.8179 193.962 46.8179 193.269C46.8179 192.577 45.7794 190.962 44.5102 189.577C43.241 188.077 41.164 186.923 40.0102 186.923C38.741 186.923 36.8948 187.731 35.8564 188.769ZM136.703 187.154C135.895 187.962 135.318 189.692 135.433 191.192C135.664 193.385 136.241 193.846 138.779 193.615C141.203 193.385 142.126 192.577 142.241 190.731C142.472 189.115 141.779 187.615 140.395 186.923C138.933 186.231 137.703 186.308 136.703 187.154ZM95.5102 187.269C94.8179 188.077 94.4717 189.346 94.8179 190.154C95.0487 190.846 96.0871 191.538 97.0102 191.538C97.9333 191.538 98.741 190.5 98.8564 189.346C98.9717 188.077 98.5102 186.808 97.8179 186.462C97.241 186.115 96.2025 186.462 95.5102 187.269ZM50.9717 188.423C49.9333 189.808 49.4717 192 49.7025 193.269C50.0487 194.538 51.5487 196.269 53.1641 197.077C55.4717 198.231 56.3948 198.231 58.0102 197.077C59.164 196.269 60.4333 195.115 60.8948 194.423C61.3564 193.731 61.8179 192.346 61.8179 191.308C61.8179 190.154 61.0102 188.423 60.0871 187.5C59.1641 186.577 57.0871 185.769 55.4717 185.769C53.8564 185.769 51.8948 186.808 50.9717 188.423ZM177.203 185.308C176.279 185.654 174.779 186.923 173.972 188.423C172.587 190.5 172.587 191.423 173.972 193.615C174.779 195 176.395 196.5 177.433 196.731C178.587 197.077 180.433 197.077 181.472 196.731C182.626 196.5 184.126 195.115 184.818 193.615C185.856 191.769 185.856 190.269 184.933 188.654C184.356 187.385 183.779 186.231 183.664 186.231C183.549 186.115 182.51 185.769 181.241 185.538C179.972 185.192 178.126 185.077 177.203 185.308ZM124.356 185.538C123.549 186 122.972 187.846 123.203 189.808C123.433 192.577 124.126 193.385 126.433 193.615C128.049 193.731 130.01 193.269 130.818 192.462C131.626 191.654 132.318 190.269 132.203 189.577C132.203 188.769 131.395 187.269 130.472 186.346C129.549 185.423 128.049 184.615 127.241 184.615C126.549 184.615 125.164 185.077 124.356 185.538ZM80.5102 186.115C79.8179 186.808 79.241 188.308 79.1256 189.231C79.0102 190.154 78.8948 191.885 79.0102 193.038C79.0102 194.077 80.2794 195.462 81.664 196.038C83.164 196.615 85.3564 196.962 86.6256 196.615C87.8948 196.385 89.6256 194.885 90.3179 193.269C91.4717 190.962 91.4717 190.038 90.3179 188.423C89.6256 187.269 88.4717 186 87.7794 185.538C87.0871 185.077 85.4717 184.615 84.2025 184.615C82.8179 184.615 81.2025 185.308 80.5102 186.115ZM204.895 184.615C203.626 185.885 202.587 187.269 202.587 187.846C202.587 188.308 203.395 189.808 204.318 191.308C205.472 193.038 207.203 193.846 209.741 193.846C212.626 193.962 213.895 193.269 214.933 190.962C216.087 188.654 216.087 187.731 214.933 186.115C214.241 184.962 213.087 183.692 212.395 183.231C211.703 182.769 210.318 182.308 209.164 182.308C208.126 182.308 206.164 183.346 204.895 184.615ZM112.587 183.115C111.779 183.346 111.087 184.731 111.203 186.115C111.318 187.5 112.01 189.346 112.818 190.154C113.626 190.962 115.126 191.538 116.049 191.538C116.972 191.423 118.356 190.615 119.164 189.462C119.972 188.423 120.664 187.154 120.664 186.692C120.664 186.115 119.856 184.962 118.933 184.038C118.01 183.115 116.51 182.308 115.703 182.423C115.01 182.423 113.51 182.769 112.703 183.115H112.587ZM22.9333 182.538C21.5487 183.231 20.0487 184.962 19.5871 186.231C19.1256 187.615 19.3564 189.808 20.0487 191.308C20.9717 193.154 22.3564 193.846 25.3564 193.846C28.241 193.846 29.741 193.154 30.5487 191.538C31.1256 190.269 31.7025 188.423 31.7025 187.5C31.7025 186.577 30.5487 184.731 29.0487 183.462C27.664 182.192 26.2794 181.154 25.9333 181.154C25.5871 181.269 24.2025 181.846 22.9333 182.538ZM131.279 181.269C130.703 182.077 131.049 183 132.087 183.577C133.01 184.038 134.279 184.154 134.856 183.692C135.318 183.231 135.433 182.192 135.087 181.5C134.741 180.692 133.933 180 133.241 180C132.664 180 131.741 180.577 131.279 181.269ZM197.164 180.346C196.818 181.038 197.049 182.192 197.741 182.885C198.587 183.654 199.433 183.654 200.279 182.885C200.972 182.192 201.203 181.038 200.856 180.346C200.51 179.538 199.703 178.846 199.01 178.846C198.433 178.846 197.626 179.538 197.164 180.346ZM34.4717 180.346C34.1256 181.038 34.3564 182.192 35.0487 182.885C35.8948 183.654 36.741 183.654 37.5871 182.885C38.2794 182.192 38.5102 181.038 38.164 180.346C37.8179 179.538 37.0102 178.846 36.3179 178.846C35.741 178.846 34.9333 179.538 34.4717 180.346ZM186.433 178.5C185.51 178.731 184.818 179.885 184.933 180.923C185.049 182.077 185.741 183.577 186.549 184.385C187.356 185.192 188.741 185.769 189.549 185.769C190.241 185.769 191.395 184.731 192.087 183.462C192.895 181.731 192.779 180.692 191.51 179.423C190.587 178.5 189.433 177.692 188.856 177.808C188.395 177.808 187.241 178.154 186.433 178.5ZM102.203 178.5C101.164 178.731 100.587 180.231 100.703 181.846C100.818 183.346 101.741 184.962 102.664 185.538C103.818 186 105.203 185.538 106.472 184.269C107.856 182.769 108.087 181.731 107.279 180.346C106.587 179.308 105.664 178.385 104.972 178.154C104.279 178.038 103.01 178.154 102.203 178.5ZM64.0102 180.231C62.6256 181.615 61.5871 183.346 61.5871 183.923C61.5871 184.615 62.9717 186.462 64.5871 188.077C67.241 190.846 67.5871 190.846 70.9333 189.231C72.8948 188.308 74.5102 186.692 74.6256 185.769C74.6256 184.846 74.6256 183.231 74.3948 182.308C74.2794 181.385 73.3564 179.885 72.3179 179.077C71.2794 178.269 69.4333 177.692 68.3948 177.692C67.241 177.692 65.2794 178.846 64.0102 180.231ZM54.8948 179.308C54.7794 180.462 55.7025 181.154 57.0871 181.154C58.3564 181.154 59.2794 180.462 59.0487 179.769C58.8179 178.962 57.7794 178.154 56.8564 177.923C55.8179 177.692 54.8948 178.269 54.8948 179.308ZM43.9333 178.962C42.664 179.538 41.741 180.577 41.8564 181.154C41.9717 181.846 42.8948 183.231 43.9333 184.385C45.4333 185.885 46.241 186.115 47.741 185.077C48.7794 184.385 49.7025 182.885 49.8179 181.731C49.8179 180.577 49.3564 179.308 48.664 178.731C47.8564 178.154 47.0487 177.692 46.7025 177.692C46.3564 177.808 45.0871 178.269 43.9333 178.962ZM176.51 177.346C175.933 177.692 175.587 178.731 175.703 179.654C175.818 180.462 176.972 181.154 178.241 181.154C179.51 181.154 180.549 180.923 180.549 180.577C180.549 180.231 180.318 179.192 179.972 178.269C179.626 177.346 178.933 176.538 178.472 176.538C177.895 176.538 177.087 176.885 176.51 177.346ZM162.087 178.846C160.587 180.231 159.433 182.308 159.549 183.462C159.664 184.731 160.933 186.577 162.318 187.5C163.818 188.423 165.779 189.231 166.703 189.231C167.626 189.346 169.356 188.423 170.395 187.269C171.549 186.115 172.472 184.038 172.472 182.654C172.472 181.154 171.318 179.192 169.818 178.269C168.433 177.346 166.703 176.538 166.01 176.538C165.433 176.538 163.587 177.577 162.087 178.846ZM111.318 177.115C111.318 178.038 112.356 178.846 113.626 178.846C114.895 178.846 115.933 178.038 115.933 177.115C115.933 176.192 114.895 175.385 113.626 175.385C112.356 175.385 111.318 176.192 111.318 177.115ZM141.549 175.962C140.856 176.885 140.164 178.731 140.164 180C140.164 181.269 140.972 183.115 141.895 184.038C142.818 184.962 144.779 185.769 146.164 185.769C147.664 185.885 149.741 184.962 150.779 183.808C151.933 182.654 152.741 180.923 152.741 180C152.741 179.077 152.164 177.346 151.356 176.308C150.549 175.154 148.472 174.346 146.51 174.346C144.549 174.346 142.356 175.038 141.549 175.962ZM121.703 175.615C120.779 176.423 120.203 177.923 120.318 179.077C120.433 180.231 121.356 181.385 122.279 181.731C123.203 182.077 125.049 181.846 126.318 181.154C127.587 180.462 128.626 179.308 128.626 178.615C128.51 177.808 127.703 176.538 126.549 175.731C125.51 174.923 124.356 174.231 123.895 174.231C123.549 174.231 122.626 174.808 121.703 175.615ZM215.741 174C214.587 175.154 213.664 177 213.779 178.038C213.895 179.077 214.818 180.808 215.741 181.731C216.664 182.654 218.972 183.462 220.933 183.462C223.472 183.462 224.741 182.654 225.779 180.692C227.049 178.269 226.933 177.346 225.203 174.923C224.049 173.077 222.087 171.923 220.472 171.923C219.087 171.923 216.895 172.846 215.741 174ZM204.203 172.731C203.626 173.077 203.279 174.692 203.395 176.192C203.626 178.385 204.318 178.846 207.087 178.846C209.395 178.846 210.741 178.192 211.126 176.885C211.472 175.731 211.01 174.115 210.318 173.308C209.51 172.5 208.01 171.808 206.972 171.923C205.933 171.923 204.779 172.269 204.203 172.731ZM87.7794 173.192C86.2794 173.885 85.5871 175.385 85.7025 177.462C85.8179 179.192 86.5102 181.269 87.3179 182.077C88.1256 182.885 90.2025 183.462 91.9333 183.462C94.1256 183.462 95.741 182.538 96.8948 180.577C98.3948 178.038 98.3948 177.346 96.8948 174.808C95.8564 173.077 94.1256 171.923 92.5102 171.923C91.1256 171.923 88.9333 172.5 87.7794 173.192ZM24.3179 173.654C23.9717 174.577 23.8564 176.192 24.2025 177.115C24.5487 178.038 26.0487 178.846 27.664 178.846C29.2794 178.846 30.7794 178.038 31.1256 177.115C31.4717 176.192 31.4717 174.577 31.1256 173.654C30.7794 172.731 29.2794 171.923 27.7794 171.923C26.2794 171.923 24.664 172.731 24.3179 173.654ZM10.0102 173.654C9.31789 174.577 8.62558 176.423 8.62558 177.692C8.62558 178.962 9.43328 180.808 10.3564 181.731C11.2794 182.654 13.4717 183.346 15.2025 183.231C17.2794 183 18.8948 181.846 19.8179 180C20.9717 177.692 20.9717 176.654 19.7025 174.808C18.8948 173.538 16.7025 172.385 14.8564 172.269C13.0102 172.038 10.8179 172.731 10.0102 173.654ZM191.856 170.538C191.626 171.577 191.51 173.423 191.741 174.577C191.972 175.962 193.126 176.538 195.549 176.538C197.856 176.538 199.203 175.885 199.587 174.577C199.933 173.423 199.933 171.577 199.587 170.538C199.241 169.154 197.856 168.462 195.664 168.462C193.433 168.462 192.164 169.154 191.856 170.538ZM35.6256 169.962C35.2794 170.654 35.164 172.385 35.3948 173.654C35.6256 175.385 36.664 175.962 39.0871 175.962C40.9333 175.962 43.0102 175.154 43.7025 174C44.6256 172.615 44.5102 171.692 43.241 170.192C42.3179 169.154 40.3564 168.346 38.8564 168.462C37.4717 168.462 35.9717 169.154 35.6256 169.962ZM169.126 168.115C168.203 168.346 167.51 169.615 167.626 170.885C167.741 172.038 168.895 173.538 170.164 174.231C171.895 175.038 172.933 174.923 174.203 173.654C175.126 172.731 175.933 171.462 175.933 170.769C175.933 170.077 174.895 169.154 173.626 168.462C172.356 167.769 171.203 167.308 171.087 167.423C170.856 167.423 169.933 167.769 169.126 168.115ZM60.8948 169.038C59.2794 170.308 59.0487 171.115 60.0871 172.731C60.7794 173.885 62.3948 174.923 63.5487 175.154C64.7025 175.385 66.0871 174.923 66.5487 174C67.0102 173.192 67.4717 171.923 67.4717 171.115C67.5871 170.308 66.5487 169.154 65.3948 168.577C63.664 167.769 62.5102 167.885 60.8948 169.038ZM180.549 167.538C179.626 168.231 179.049 170.077 179.164 171.577C179.279 173.423 180.318 174.462 182.626 174.923C184.933 175.5 186.087 175.154 187.126 173.538C188.395 171.808 188.279 170.885 187.01 169.038C186.203 167.769 184.703 166.615 183.895 166.385C182.972 166.269 181.472 166.731 180.549 167.538ZM49.241 167.885C47.741 168.577 46.7025 170.077 46.7025 171.692C46.7025 173.192 47.741 174.808 49.5871 175.731C51.8948 176.885 52.7025 176.769 54.2025 175.385C55.241 174.462 56.0487 172.846 56.0487 171.923C56.0487 171 55.0102 169.385 53.8564 168.462C52.241 167.077 51.2025 166.962 49.241 167.885ZM212.164 166.5C211.818 167.192 212.049 168.346 212.741 169.038C213.587 169.808 214.433 169.808 215.279 169.038C215.972 168.346 216.203 167.192 215.856 166.5C215.51 165.692 214.703 165 214.01 165C213.433 165 212.626 165.692 212.164 166.5ZM73.3564 167.192C71.9717 168.577 70.9333 170.654 70.9333 171.923C70.9333 173.192 71.741 175.038 72.6641 175.962C73.5871 176.885 75.3179 177.692 76.4717 177.692C77.5102 177.692 79.5871 176.885 81.0871 175.962C82.4717 175.038 83.6256 173.192 83.6256 171.923C83.6256 170.654 82.9333 168.923 82.241 168.115C81.4333 167.192 79.5871 166.154 78.2025 165.692C76.4717 165.115 74.9717 165.577 73.3564 167.192ZM19.5871 165.692C19.0102 166.154 18.664 166.962 18.7794 167.538C18.8948 168 20.0487 168.462 21.3179 168.462C22.5871 168.462 23.3948 167.769 23.2794 167.077C23.0487 166.269 22.3564 165.462 21.664 165.231C21.0871 165.115 20.164 165.346 19.5871 165.692ZM155.741 165.231C154.356 165.923 152.972 167.423 152.51 168.577C152.049 169.846 152.395 172.038 153.433 173.654C154.587 175.5 156.203 176.538 158.164 176.538C159.779 176.538 161.856 175.731 162.779 174.808C163.703 173.885 164.395 172.038 164.395 170.769C164.395 169.5 163.241 167.423 161.856 166.154C160.356 164.885 158.972 163.846 158.626 163.846C158.279 163.962 157.01 164.538 155.741 165.231ZM130.356 165.923C129.203 167.077 128.279 169.269 128.51 170.885C128.626 172.385 129.549 174.231 130.703 175.038C131.741 175.846 133.587 176.538 134.741 176.538C135.895 176.538 137.626 175.731 138.549 174.808C139.472 173.885 140.164 171.808 140.164 170.192C140.164 168.577 139.356 166.5 138.433 165.577C137.51 164.654 135.779 163.846 134.51 163.846C133.356 163.846 131.51 164.769 130.356 165.923ZM101.049 163.846C98.741 164.769 98.2794 165.692 98.3948 169.038C98.5102 171.808 99.3179 173.423 100.933 174.231C102.203 174.923 104.395 175.038 105.895 174.577C107.279 174.231 109.126 173.192 109.933 172.269C110.626 171.462 111.318 170.077 111.318 169.385C111.318 168.577 110.626 167.077 109.818 166.038C109.01 165 107.395 163.846 106.126 163.5C104.856 163.154 102.549 163.269 101.049 163.846ZM165.203 161.192C164.741 161.654 164.741 162.462 164.972 163.038C165.318 163.5 166.587 163.846 167.856 163.846C169.126 163.846 170.049 163.154 169.818 162.462C169.587 161.654 168.664 160.846 167.741 160.615C166.818 160.5 165.664 160.731 165.203 161.192ZM115.356 162.231C114.318 163.154 113.51 165.231 113.51 166.846C113.626 168.346 114.779 170.423 116.279 171.346C118.356 172.846 119.279 172.846 122.049 171.692C124.587 170.538 125.279 169.385 125.164 166.5C125.164 163.846 124.472 162.346 122.856 161.538C121.587 160.846 119.856 160.385 118.933 160.385C118.01 160.385 116.395 161.192 115.356 162.231ZM65.6256 161.885C65.2794 162.577 65.3948 163.731 65.8564 164.308C66.4333 164.769 67.5871 164.885 68.3948 164.538C69.0871 164.192 69.7794 163.038 69.7794 162.115C69.7794 161.192 68.9717 160.385 68.0487 160.385C67.241 160.385 66.0871 161.077 65.6256 161.885ZM200.741 160.846C199.472 161.654 198.549 163.038 198.779 163.962C198.895 164.885 199.587 166.269 200.395 167.077C201.203 167.885 202.933 168.462 204.203 168.462C205.472 168.462 207.087 167.538 207.895 166.5C208.933 164.885 208.933 163.846 207.549 161.885C206.626 160.385 205.241 159.231 204.549 159.231C203.741 159.231 202.01 160.038 200.741 160.846ZM27.7794 161.885C26.5102 163.615 26.3948 165 27.0871 166.5C27.8948 167.769 29.3948 168.346 31.4717 168.231C33.8948 168 34.7025 167.192 34.9333 165C35.0487 163.385 34.5871 161.423 33.7794 160.615C32.9717 159.808 31.7025 159.115 30.8948 159.231C30.0871 159.231 28.7025 160.385 27.7794 161.769V161.885ZM220.933 160.731C219.549 162.115 218.51 163.962 218.626 164.769C218.626 165.577 220.241 167.308 222.087 168.577C225.087 170.538 226.01 170.654 228.433 169.385C230.049 168.692 231.433 167.192 231.433 166.269C231.549 165.346 231.549 163.731 231.318 162.808C231.203 161.885 230.279 160.385 229.241 159.577C228.203 158.769 226.356 158.192 225.318 158.192C224.164 158.192 222.203 159.346 220.933 160.731ZM173.626 159C172.241 160.385 172.241 161.192 173.164 162.692C173.856 163.731 175.241 165 176.279 165.692C177.549 166.5 178.587 166.385 179.972 165.115C181.01 164.192 181.818 162.577 181.818 161.654C181.703 160.731 181.126 159.231 180.318 158.423C179.51 157.615 178.01 157.038 177.087 157.038C176.164 157.154 174.549 157.962 173.626 159ZM54.7794 158.423C53.8564 159.231 53.2794 160.615 53.3948 161.538C53.5102 162.577 54.2025 164.077 55.0102 164.885C55.8179 165.692 57.4333 166.269 58.5871 166.269C59.6256 166.269 61.1256 165.231 61.7025 163.962C62.6256 162.231 62.3948 161.077 60.8948 159.346C59.741 157.962 58.241 156.923 57.6641 157.038C56.9717 157.038 55.7025 157.615 54.7794 158.423ZM5.85635 159.462C4.0102 160.731 2.74097 162.577 2.74097 163.5C2.85635 164.423 3.54866 165.808 4.35635 166.615C5.04866 167.538 6.89481 168.577 8.39482 168.923C9.77943 169.385 11.9717 169.269 13.241 168.577C14.7794 167.808 15.5487 166.269 15.5487 163.962C15.5487 161.654 14.7025 159.923 13.0102 158.769C11.5102 157.846 10.0102 157.038 9.66404 157.038C9.31789 157.038 7.58712 158.077 5.85635 159.462ZM186.664 156.462C185.856 157.385 185.164 159.115 185.164 160.154C185.049 161.308 185.972 163.154 187.126 164.192C188.279 165.346 190.01 166.154 190.933 166.154C191.856 166.154 193.587 165.577 194.626 164.769C195.779 163.962 196.587 162.115 196.703 160.5C196.703 158.885 196.126 156.923 195.318 156.115C194.51 155.308 192.549 154.731 190.933 154.731C189.318 154.846 187.356 155.538 186.664 156.462ZM39.4333 157.731C38.3948 159.923 38.3948 161.192 39.3179 162.577C40.0102 163.615 41.5102 165 42.4333 165.692C43.7025 166.5 45.0871 166.385 47.2794 165.115C49.241 163.962 50.1641 162.462 50.1641 160.5C50.1641 158.885 49.241 157.038 48.0871 156.231C47.0487 155.423 44.9717 154.731 43.4717 154.731C41.8564 154.731 40.3564 155.769 39.4333 157.731ZM212.164 155.077C210.895 156 210.433 157.269 210.895 158.423C211.356 159.577 212.51 160.731 213.433 161.077C214.356 161.423 215.972 160.846 216.895 159.923C217.933 158.885 218.279 157.5 217.818 156.462C217.241 155.423 216.318 154.385 215.51 154.154C214.703 153.923 213.203 154.385 212.164 155.077ZM19.1256 154.385C18.2025 154.615 17.5102 155.769 17.6256 156.808C17.6256 157.846 18.5487 159.462 19.5871 160.154C20.9717 161.308 21.664 161.308 23.0487 160.154C24.0871 159.462 25.0102 157.962 25.1256 156.923C25.241 155.885 24.4333 154.615 23.2794 154.269C22.241 153.923 21.2025 153.577 21.0871 153.692C20.8564 153.692 19.9333 154.038 19.1256 154.385ZM114.895 153.808C114.203 154.615 113.856 156.231 114.203 157.269C114.549 158.423 115.472 159.346 116.279 159.346C116.972 159.462 118.356 158.654 119.164 157.615C120.318 156.231 120.318 155.538 119.164 154.154C118.356 153.115 117.318 152.308 116.972 152.423C116.51 152.423 115.587 153.115 114.895 153.808ZM74.3948 153.462C73.0102 154.615 71.8564 156.346 71.9717 157.154C72.0871 158.077 73.3564 159.692 74.741 160.846C76.1256 162 78.2025 162.808 79.3564 162.808C80.3948 162.808 82.3564 161.654 83.6256 160.154C84.8948 158.769 85.9333 157.385 85.9333 157.038C85.9333 156.692 84.8948 155.308 83.6256 153.808C82.3564 152.423 80.3948 151.269 79.241 151.269C78.0871 151.269 75.8948 152.192 74.3948 153.462ZM152.279 151.731C150.895 152.654 150.087 154.385 150.318 156C150.433 157.5 151.126 159.462 151.933 160.269C152.741 161.077 154.703 161.654 156.433 161.654C158.049 161.654 159.895 160.962 160.703 160.154C161.51 159.462 162.087 157.5 162.087 155.885C161.972 154.269 161.164 152.423 160.01 151.615C158.972 150.808 157.241 150.231 156.318 150.231C155.395 150.231 153.549 150.923 152.279 151.731ZM199.241 150.923C198.664 152.077 198.433 153.923 198.895 155.077C199.241 156.231 200.164 157.269 200.741 157.5C201.433 157.846 203.049 157.615 204.549 157.269C206.741 156.577 207.203 155.769 206.856 153C206.626 150.231 205.933 149.423 203.51 149.192C201.433 148.962 200.049 149.538 199.241 150.923ZM166.241 150.923C165.779 152.192 166.241 153.808 167.51 154.962C169.01 156.462 170.164 156.692 171.664 155.885C172.818 155.192 173.51 153.692 173.395 152.077C173.164 150.346 172.126 149.423 170.049 149.192C167.972 148.962 166.818 149.538 166.241 150.923ZM122.279 150.115C121.933 150.808 121.933 152.077 122.279 153C122.626 153.923 124.126 154.731 125.741 154.731C128.049 154.731 128.626 154.154 128.626 151.846C128.626 149.538 128.049 148.962 125.741 148.962C124.241 148.962 122.741 149.423 122.279 150.115ZM105.895 150.692C105.433 151.731 105.433 153 106.126 153.692C106.818 154.385 108.318 154.731 109.587 154.5C110.972 154.269 111.895 153.231 111.895 151.846C111.895 150.346 110.972 149.423 109.356 149.192C107.856 148.962 106.472 149.538 105.895 150.692ZM63.0871 151.269C62.0487 153.115 62.0487 153.923 63.2025 155.308C63.8948 156.346 65.5102 157.154 66.664 157.038C67.7025 157.038 68.9717 156.115 69.4333 154.962C69.7794 153.923 69.5487 152.192 68.9717 151.269C68.2794 150.346 67.1256 149.423 66.2025 149.192C65.2794 149.077 63.8948 150 63.0871 151.269ZM29.3948 150.346C28.4717 151.154 27.8948 152.654 28.0102 153.808C28.1256 154.962 29.3948 156.346 30.8948 156.923C32.2794 157.385 34.1256 157.731 34.9333 157.5C35.6256 157.269 36.5487 156 36.664 154.731C36.8948 153.346 36.5487 151.5 35.8564 150.577C35.164 149.654 33.7794 148.846 32.8564 148.962C31.8179 148.962 30.3179 149.538 29.3948 150.346ZM177.549 148.038C177.203 148.846 177.087 150.577 177.318 151.846C177.549 153.346 178.703 154.269 180.549 154.5C182.164 154.731 184.01 154.154 184.933 153.115C185.626 152.077 186.087 150.231 185.741 148.962C185.279 147.346 184.241 146.654 181.703 146.654C179.741 146.654 177.895 147.346 177.549 148.038ZM50.1641 148.962C49.5871 150.231 49.241 152.077 49.5871 153C49.9333 153.923 51.3179 155.077 52.8179 155.423C54.2025 155.769 56.0487 155.423 56.8564 154.5C57.8948 153.577 58.241 151.846 57.7794 149.769C57.2025 147.462 56.3948 146.654 54.2025 146.654C52.5871 146.654 50.8564 147.577 50.1641 148.962ZM210.549 146.654C209.395 147.346 209.203 148.077 209.972 148.846C210.664 149.538 211.818 149.654 212.856 148.962C214.01 148.269 214.241 147.577 213.433 146.769C212.626 146.077 211.587 145.962 210.549 146.654ZM22.4717 147.231C22.4717 148.154 22.8179 149.192 23.3948 149.423C23.8564 149.769 25.0102 149.423 25.9333 148.846C27.4333 147.923 27.4333 147.692 25.9333 146.654C25.0102 146.077 23.8564 145.5 23.3948 145.5C22.8179 145.5 22.4717 146.308 22.4717 147.231ZM113.856 146.077C113.395 147.231 113.856 148.5 115.356 149.538C117.318 150.923 117.895 150.923 119.395 149.538C120.433 148.5 120.779 147.231 120.318 146.077C119.741 145.154 118.356 144.346 117.087 144.346C115.818 144.346 114.318 145.154 113.856 146.077ZM219.895 145.385C218.626 146.769 217.472 148.615 217.472 149.538C217.472 150.462 218.51 152.308 219.779 153.577C221.395 155.192 223.01 155.654 225.318 155.192C227.049 154.846 228.779 153.923 229.241 153.231C229.703 152.423 230.164 150.808 230.164 149.538C230.164 148.269 229.703 146.654 229.241 145.846C228.779 145.154 227.049 144.231 225.433 143.769C223.126 143.192 221.741 143.654 219.895 145.385ZM6.89481 145.269C5.74097 146.423 4.81789 148.385 4.93328 149.654C5.04866 150.808 5.74097 152.538 6.54866 153.346C7.35635 154.154 9.66405 154.731 11.6256 154.731C13.4717 154.731 15.664 154.038 16.4717 153.231C17.2794 152.538 17.8564 150.692 17.8564 149.192C17.8564 147.808 17.0487 145.846 16.1256 144.923C15.2025 144 13.1256 143.192 11.6256 143.192C10.241 143.192 8.04866 144.115 6.89481 145.269ZM190.472 143.423C188.856 144.577 188.51 145.731 189.087 148.038C189.433 149.885 190.587 151.5 191.51 151.846C192.433 152.192 194.049 151.731 194.972 150.923C196.01 150.231 196.818 148.5 196.818 147.231C196.703 145.962 196.126 144.231 195.318 143.423C194.51 142.615 193.587 142.038 193.241 142.038C192.895 142.038 191.626 142.731 190.472 143.423ZM172.472 143.423C172.472 144.231 172.818 145.269 173.279 145.731C173.856 146.192 174.895 146.308 175.703 145.962C176.395 145.731 177.087 144.692 177.087 143.769C177.087 142.846 176.049 142.038 174.779 142.038C173.51 142.038 172.472 142.731 172.472 143.423ZM59.3948 144.346C59.3948 145.615 59.741 146.654 60.3179 146.654C60.7794 146.769 61.8179 146.077 62.5102 145.269C63.3179 144.462 63.664 143.423 63.0871 142.846C62.6256 142.385 61.5871 142.038 60.8948 142.038C60.0871 142.038 59.3948 143.077 59.3948 144.346ZM39.7794 144.346C37.7025 146.423 37.5871 146.885 39.2025 149.538C40.1256 151.154 41.6256 152.423 42.4333 152.423C43.241 152.423 44.5102 151.731 45.3179 150.923C46.1256 150.231 46.7025 148.5 46.7025 147.231C46.7025 145.962 46.1256 144.231 45.3179 143.423C44.5102 142.615 43.4717 142.038 43.0102 142.038C42.4333 142.038 41.0487 143.077 39.7794 144.346ZM139.126 141.462C138.203 142.731 138.203 143.654 139.356 144.923C140.049 145.962 141.433 146.769 142.241 146.654C142.933 146.654 143.856 145.846 144.203 144.923C144.549 144 144.087 142.385 143.395 141.462C142.587 140.423 141.549 139.615 141.203 139.731C140.741 139.731 139.818 140.538 139.126 141.462ZM122.395 141.692C121.933 142.846 122.279 144.462 123.087 145.269C124.241 146.423 125.049 146.423 126.779 145.269C128.164 144.231 128.741 143.077 128.279 141.692C127.818 140.654 126.433 139.731 125.279 139.731C124.01 139.731 122.741 140.654 122.395 141.692ZM106.126 141.462C105.779 142.385 106.241 144 107.049 144.923C107.741 145.962 109.126 146.769 109.933 146.654C110.626 146.654 111.664 145.615 112.126 144.346C112.472 143.077 112.472 141.577 112.126 140.885C111.664 140.308 110.279 139.731 109.01 139.731C107.741 139.731 106.356 140.538 106.126 141.462ZM90.664 141.462C89.9717 142.385 89.6256 144 89.9717 144.923C90.3179 145.846 91.5871 146.654 92.8564 146.654C94.1256 146.654 95.3948 145.846 95.741 144.923C96.0871 144 95.6256 142.385 94.9333 141.462C94.1256 140.423 93.0871 139.615 92.741 139.731C92.2794 139.731 91.3564 140.538 90.664 141.462ZM200.51 139.154C199.703 140.077 199.241 141.577 199.587 142.269C199.818 143.077 200.856 144.115 201.895 144.577C202.818 145.154 204.433 145.154 205.472 144.577C206.626 144.115 207.087 142.615 206.856 140.885C206.626 139.038 205.703 137.885 204.203 137.769C202.933 137.538 201.203 138.231 200.51 139.154ZM69.0871 139.731C67.241 141.808 67.1256 142.5 68.3948 144.923C69.0871 146.538 70.7025 148.154 71.8564 148.5C72.8948 148.962 74.9717 148.962 76.4717 148.5C77.8564 148.154 79.3564 146.654 79.7025 145.154C80.0487 143.769 79.8179 141.462 79.1256 139.962C78.2025 138.231 76.8179 137.423 74.5102 137.423C72.7794 137.423 70.241 138.462 69.0871 139.731ZM29.2794 139.269C28.1256 140.538 28.0102 141.577 28.8179 142.846C29.5102 143.885 30.664 144.923 31.4717 145.038C32.164 145.269 33.664 144.692 34.5871 143.769C35.8564 142.5 35.9717 141.462 35.1641 139.731C34.5871 138.462 33.3179 137.423 32.3948 137.423C31.4717 137.423 30.0871 138.231 29.2794 139.269ZM157.587 138.231C155.51 139.731 155.049 141 155.51 143.192C155.856 144.808 157.356 146.769 158.856 147.692C161.164 148.962 161.972 148.962 164.741 147.346C166.703 146.192 167.856 144.577 167.856 142.846C167.856 141.462 167.395 139.731 166.933 138.923C166.472 138.231 164.856 137.308 163.241 136.846C161.164 136.385 159.318 136.846 157.587 138.231ZM131.51 137.077C130.933 137.423 130.587 138.808 130.703 139.962C130.818 141.115 131.856 142.038 133.01 142.038C134.049 142.154 135.664 141.462 136.356 140.654C137.51 139.5 137.51 138.808 136.356 137.654C135.664 136.846 134.395 136.269 133.703 136.269C133.01 136.269 132.087 136.615 131.51 137.077ZM81.8948 137.423C81.5487 138.115 81.5487 139.385 81.8948 140.308C82.241 141.231 83.5102 142.038 84.7794 142.038C86.0487 142.038 87.4333 141.231 88.0102 140.192C88.4717 139.038 88.1256 138 87.0871 137.308C86.1641 136.731 84.7794 136.269 83.9717 136.269C83.164 136.269 82.3564 136.731 81.8948 137.423ZM192.664 135.808C192.087 136.269 191.741 137.308 191.856 138.231C191.972 139.038 193.126 139.731 194.395 139.731C195.895 139.731 196.587 139.038 196.472 137.769C196.241 136.731 195.549 135.692 194.856 135.462C194.164 135.231 193.241 135.462 192.664 135.808ZM181.356 137.077C179.741 138.808 179.626 139.5 180.895 141.231C181.703 142.5 183.318 143.192 184.587 142.962C185.972 142.731 187.126 141.462 187.356 139.846C187.587 138.346 187.126 136.615 186.203 136.154C185.279 135.577 184.241 135.115 183.895 135.115C183.549 135.115 182.395 136.038 181.356 137.077ZM147.664 137.192C146.279 138.808 146.279 139.5 147.433 140.654C148.126 141.462 149.741 142.038 150.895 142.038C152.164 142.038 152.856 141.115 152.856 139.269C152.741 137.769 152.049 136.269 151.126 135.923C150.203 135.577 148.703 136.154 147.664 137.192ZM114.664 136.846C113.279 138.462 113.395 139.038 115.126 140.654C116.972 142.5 117.203 142.5 119.164 140.654C120.318 139.385 120.779 138 120.318 136.846C119.741 135.923 118.703 135.115 117.779 135.115C116.856 135.115 115.472 135.923 114.664 136.846ZM98.741 136.615C98.0487 137.308 97.7025 138.923 98.0487 139.962C98.3948 141.115 99.6641 142.038 100.933 142.038C102.203 142.038 103.472 141.231 103.818 140.308C104.164 139.385 104.395 138.346 104.51 138C104.51 137.769 103.472 136.962 102.203 136.385C100.587 135.462 99.664 135.577 98.741 136.615ZM49.4717 136.962C48.0871 138 47.6256 139.154 48.2025 140.308C48.664 141.231 49.8179 142.269 50.741 142.615C51.6641 142.962 53.2794 142.5 54.2025 141.692C55.241 141 56.0487 139.731 56.0487 138.923C56.0487 138.115 55.1256 136.962 53.8564 136.385C52.3564 135.692 50.9717 135.808 49.4717 136.962ZM39.7794 137.423C39.7794 138.692 40.4717 139.731 41.2794 139.731C42.2025 139.731 43.241 139.385 43.5871 138.808C44.0487 138.346 43.7025 137.308 42.8948 136.5C42.2025 135.692 41.1641 135 40.7025 135.115C40.1256 135.115 39.7794 136.154 39.7794 137.423ZM138.895 133.5C137.51 135.115 137.626 135.577 139.587 136.962C140.856 137.769 142.587 138.115 143.395 137.654C144.318 137.192 144.779 135.808 144.549 134.538C144.318 133.269 143.395 132.115 142.356 131.885C141.318 131.769 139.818 132.462 138.895 133.5ZM90.5487 132.808C89.1641 133.615 89.164 134.308 90.0871 135.923C90.7794 137.077 92.0487 138 92.8564 138C93.6641 138 94.9333 137.077 95.6256 135.923C96.5487 134.308 96.5487 133.615 95.1641 132.808C94.241 132.231 93.2025 131.654 92.8564 131.654C92.5102 131.654 91.4717 132.231 90.5487 132.808ZM211.703 133.154C210.203 134.654 209.049 136.731 209.164 137.769C209.279 138.808 210.549 140.538 212.049 141.462C213.433 142.385 215.395 143.192 216.318 143.192C217.241 143.192 218.626 142.731 219.433 142.269C220.126 141.808 221.049 140.192 221.51 138.577C222.087 136.385 221.626 135.115 219.664 133.038C218.164 131.654 216.318 130.5 215.626 130.5C214.933 130.5 213.203 131.654 211.703 133.154ZM15.4333 133.385C12.8948 136.038 12.7794 136.5 14.3948 139.154C15.3179 140.769 16.9333 142.269 17.8564 142.5C18.7794 142.731 20.741 142.615 22.241 142.269C23.9717 141.692 25.0102 140.423 25.241 138.808C25.3564 137.423 24.7794 135 23.9717 133.385C23.164 131.769 21.5487 130.5 20.3948 130.5C19.241 130.5 16.9333 131.769 15.4333 133.385ZM147.203 128.769C146.51 129.692 146.164 130.962 146.51 131.654C146.856 132.346 148.356 132.808 149.972 132.808C152.279 132.808 152.856 132.231 152.856 129.923C152.856 127.846 152.279 127.038 150.664 127.038C149.51 127.038 147.895 127.846 147.203 128.769ZM131.049 129.808C130.933 131.769 131.626 133.038 133.01 133.385C134.049 133.731 135.433 133.615 135.895 133.154C136.472 132.577 136.703 131.192 136.472 129.923C136.241 128.654 135.087 127.5 133.587 127.269C131.626 126.923 131.049 127.5 131.049 129.808ZM114.318 128.654C113.856 129.692 113.856 130.962 114.203 131.654C114.549 132.346 116.049 132.808 117.664 132.808C119.972 132.808 120.549 132.346 120.318 130.154C120.087 128.538 119.049 127.5 117.433 127.269C115.933 127.038 114.664 127.615 114.318 128.654ZM98.0487 128.769C97.7025 129.692 97.7025 130.962 98.0487 131.654C98.3948 132.346 99.6641 132.808 100.933 132.808C102.203 132.808 103.472 132.115 103.703 131.308C103.818 130.615 103.818 129.231 103.703 128.423C103.472 127.731 102.203 127.038 100.933 127.038C99.6641 127.038 98.2794 127.846 98.0487 128.769ZM81.8948 127.846C81.3179 128.192 80.9717 129.577 81.0871 130.731C81.2025 131.885 82.241 133.038 83.3948 133.385C84.4333 133.731 86.0487 133.385 86.8564 132.577C87.664 131.769 88.0102 130.154 87.6641 129C87.3179 127.962 86.1641 127.038 85.0102 127.038C83.8564 127.038 82.4717 127.385 81.8948 127.846ZM58.241 128.423C57.3179 129.231 56.741 131.308 56.8564 133.038C56.9717 135.346 58.1256 136.731 60.5487 138C63.7794 139.615 64.241 139.5 66.8948 137.423C68.5102 136.154 69.7794 133.962 69.7794 132.462C69.6641 131.077 68.8564 129.346 67.7025 128.538C66.664 127.731 64.4717 127.038 62.8564 127.038C61.1256 127.038 59.1641 127.615 58.241 128.423ZM168.433 127.731C167.395 128.654 166.587 130.731 166.587 132.346C166.703 133.846 167.856 135.923 169.356 136.846C170.741 137.769 172.472 138.577 173.049 138.577C173.741 138.692 175.356 137.769 176.741 136.615C178.126 135.462 179.279 133.385 179.395 131.885C179.395 130.5 178.241 128.538 176.856 127.615C175.356 126.692 173.279 125.885 172.241 125.885C171.203 125.885 169.472 126.692 168.433 127.731ZM199.126 124.269C197.395 125.308 196.472 127.038 196.587 128.885C196.587 130.385 197.51 132.462 198.433 133.385C199.356 134.308 201.549 135.115 203.164 135.115C204.779 135.115 206.856 134.308 207.779 133.385C208.703 132.462 209.395 130.731 209.395 129.577C209.395 128.538 208.818 126.808 208.01 125.769C207.203 124.615 205.472 123.462 204.203 123.115C202.818 122.769 200.626 123.231 199.126 124.269ZM138.895 124.154C137.51 125.769 137.51 126.231 139.01 127.731C140.164 128.769 141.549 129.115 142.818 128.538C144.087 127.962 144.779 126.692 144.549 125.308C144.318 124.038 143.395 122.885 142.356 122.654C141.318 122.538 139.818 123.115 138.895 124.154ZM122.395 124.385C121.933 125.538 122.395 127.269 123.318 128.192C124.818 129.692 125.279 129.692 126.895 128.192C127.933 127.269 128.741 125.538 128.626 124.385C128.626 123.077 127.703 122.423 125.856 122.423C124.241 122.423 122.741 123.231 122.395 124.385ZM106.126 124.154C105.779 125.077 105.779 126.346 106.126 127.038C106.472 127.615 107.626 128.192 108.779 128.192C109.818 128.308 111.433 127.615 112.126 126.808C113.279 125.654 113.279 124.962 112.126 123.808C111.433 123 109.818 122.423 108.664 122.423C107.51 122.423 106.356 123.231 106.126 124.154ZM90.4333 124.154C89.0487 125.769 89.164 126.346 90.8948 127.962C92.741 129.808 92.9717 129.808 94.9333 127.962C96.0871 126.692 96.5487 125.308 96.0871 124.154C95.5102 123.231 94.4717 122.423 93.5487 122.423C92.6256 122.423 91.241 123.231 90.4333 124.154ZM29.3948 124.385C27.2025 125.654 26.6256 127.038 26.8564 129.462C26.9717 131.423 28.0102 133.269 29.3948 133.962C30.664 134.654 32.6256 135.115 33.7794 135.115C34.8179 135.231 36.664 134.308 37.7025 133.154C38.8564 132 39.7794 130.154 39.7794 129C39.7794 127.962 38.6256 126 37.241 124.731C35.741 123.462 34.1256 122.423 33.4333 122.423C32.8564 122.538 31.0102 123.346 29.3948 124.385ZM183.549 122.538C181.933 123.346 181.356 124.846 181.472 127.615C181.703 130.731 182.395 131.885 184.587 132.808C186.203 133.5 188.049 133.962 188.626 133.962C189.318 133.962 190.818 132.808 192.087 131.308C193.356 129.923 194.395 128.192 194.395 127.615C194.395 126.923 193.356 125.308 192.087 123.808C190.818 122.423 188.856 121.269 187.818 121.269C186.664 121.269 184.703 121.846 183.549 122.538ZM44.5102 123C42.7794 124.269 41.8564 125.885 41.9717 127.731C41.9717 129.346 43.3564 131.308 45.0871 132.462C47.8564 134.308 48.4333 134.423 51.2025 132.808C53.0487 131.654 54.3179 129.808 54.5487 127.846C54.664 125.654 53.9717 124.154 52.241 123C50.741 122.077 49.1256 121.269 48.4333 121.269C47.8564 121.269 46.0102 122.077 44.5102 123ZM114.664 119.538C113.279 121.154 113.395 121.731 115.126 123.346C116.972 125.192 117.203 125.192 119.164 123.346C120.318 122.077 120.779 120.692 120.318 119.538C119.741 118.615 118.703 117.808 117.779 117.808C116.856 117.808 115.472 118.615 114.664 119.538ZM139.126 114.923C138.203 116.192 138.203 117.115 139.356 118.385C140.049 119.423 141.433 120.231 142.241 120.115C142.933 120.115 143.856 119.308 144.203 118.385C144.549 117.462 144.087 115.846 143.395 114.923C142.587 113.885 141.549 113.077 141.203 113.192C140.741 113.192 139.818 114 139.126 114.923ZM122.741 114.923C121.356 116.538 121.356 117 122.856 118.5C123.779 119.423 125.51 119.885 126.664 119.538C127.703 119.192 128.741 117.923 128.856 116.769C129.087 115.615 128.279 114.231 127.126 113.885C126.087 113.538 124.933 113.192 124.703 113.192C124.472 113.192 123.549 114 122.741 114.923ZM106.818 114.923C106.126 115.846 105.779 117.462 106.126 118.385C106.472 119.308 107.741 120.115 109.01 120.115C110.279 120.115 111.549 119.308 111.895 118.385C112.241 117.462 112.241 115.846 111.895 114.923C111.549 114 110.626 113.192 109.703 113.192C108.779 113.192 107.51 114 106.818 114.923ZM90.5487 114.577C89.6256 115.385 89.0487 116.654 89.164 117.462C89.2794 118.269 90.5487 119.308 92.0487 119.654C93.4333 120 95.1641 119.769 95.741 118.962C96.5102 118.115 96.5102 117.077 95.741 115.846C95.1641 114.808 94.0102 113.769 93.4333 113.538C92.741 113.308 91.4717 113.769 90.5487 114.577ZM130.933 112.615C130.933 114.577 131.51 115.5 133.01 115.5C134.164 115.5 135.664 114.808 136.356 114C137.164 113.308 137.51 111.923 137.164 111.115C136.933 110.423 135.433 109.731 133.818 109.731C131.51 109.731 130.933 110.308 130.933 112.615ZM81.5487 112.269C81.7794 114.231 82.5871 114.923 84.7794 114.923C86.8564 114.923 87.6641 114.346 87.6641 112.615C87.6641 111 86.741 110.192 84.4333 109.962C81.7794 109.615 81.3179 109.962 81.5487 112.269ZM147.203 110.538C146.395 112.038 146.51 113.077 147.433 114.115C148.241 114.923 149.741 115.5 150.895 115.5C152.164 115.5 152.972 114.462 153.087 112.731C153.318 111 152.626 109.731 151.356 109.269C150.318 108.923 149.164 108.577 148.818 108.577C148.587 108.577 147.779 109.5 147.203 110.538ZM114.779 109.731C113.395 110.538 113.395 111.231 114.318 112.846C115.01 114 116.626 114.923 117.779 114.923C119.049 114.923 119.972 114 120.087 112.731C120.203 111.577 119.741 110.192 119.049 109.615C118.241 109.038 117.433 108.577 117.087 108.577C116.741 108.577 115.703 109.154 114.779 109.731ZM98.741 109.962C98.0487 110.769 97.7025 112.385 98.0487 113.423C98.3948 114.577 99.6641 115.5 100.933 115.5C102.203 115.5 103.472 114.577 103.818 113.423C104.164 112.385 103.703 110.769 103.01 109.962C102.203 109.154 101.164 108.462 100.818 108.577C100.356 108.577 99.4333 109.269 98.741 109.962ZM195.087 109.962C193.933 111.692 193.587 113.654 194.164 115.269C194.626 116.769 196.01 118.269 197.279 118.615C198.549 118.962 200.626 118.846 201.895 118.5C203.164 118.154 204.895 116.769 205.703 115.5C206.856 113.654 206.741 112.615 205.356 110.308C204.087 108.231 202.587 107.423 200.164 107.423C197.856 107.423 196.164 108.269 195.087 109.962ZM179.972 109.269C178.933 110.192 178.126 111.808 178.126 112.731C178.241 113.654 178.587 115.154 179.164 116.192C179.626 117.231 180.895 118.615 182.049 119.077C183.203 119.769 185.164 119.538 186.895 118.615C188.51 117.923 190.126 116.308 190.356 115.154C190.703 114.115 190.126 111.923 189.203 110.308C188.164 108.462 186.433 107.423 184.703 107.423C183.087 107.423 181.01 108.231 179.972 109.269ZM42.6641 109.269C41.6256 110.192 40.8179 111.923 40.8179 112.962C40.8179 114 41.741 116.077 42.8948 117.462C44.0487 118.846 46.0102 120 47.2794 120.115C48.5487 120.115 50.741 118.962 52.1256 117.577C53.6256 116.077 54.7794 114.115 54.7794 113.192C54.7794 112.269 53.9717 110.538 52.8179 109.5C51.664 108.346 49.3564 107.423 47.6256 107.423C45.8948 107.423 43.7025 108.231 42.6641 109.269ZM138.549 107.077C138.087 108.231 138.433 109.5 139.241 109.962C140.049 110.538 141.549 110.769 142.472 110.538C143.395 110.423 144.203 109.154 144.203 107.654C144.318 105.808 143.626 105.115 141.779 105.115C140.395 105.115 138.895 106.038 138.549 107.077ZM89.6256 106.962C89.1641 108.115 89.5102 109.154 90.5487 109.846C91.4717 110.423 92.5102 110.885 92.8564 110.885C93.2025 110.885 94.241 110.423 95.1641 109.846C96.2025 109.154 96.5487 108.115 96.0871 106.962C95.5102 105.923 94.1256 105.115 92.8564 105.115C91.5871 105.115 90.0871 105.923 89.6256 106.962ZM27.0871 107.654C25.7025 109.038 24.664 110.769 24.664 111.346C24.7794 112.038 25.5871 113.769 26.5102 115.154C27.664 116.885 29.3948 117.808 31.5871 117.808C33.4333 117.808 35.8564 117 36.7794 116.077C37.8179 115.154 38.6256 113.192 38.6256 111.692C38.741 110.308 37.8179 108.231 36.664 107.192C35.5102 106.038 33.4333 105.115 32.0487 105.115C30.664 105.115 28.3564 106.269 27.0871 107.654ZM57.0871 104.192C56.1641 105 55.5871 106.615 55.7025 108C55.8179 109.269 56.741 111.462 57.6641 112.846C58.5871 114.346 60.4333 115.5 61.7025 115.5C63.0871 115.5 65.3948 114.231 66.8948 112.615C68.5102 111 69.7794 109.385 69.7794 108.808C69.7794 108.346 68.9717 106.846 67.8179 105.462C66.5487 103.846 64.4717 102.923 62.2794 102.808C60.3179 102.808 58.0102 103.385 57.0871 104.192ZM166.241 102.923C164.741 103.615 164.049 105.231 164.164 107.192C164.279 108.923 165.203 111.115 166.356 112.038C167.51 112.846 169.587 113.654 170.972 113.769C172.356 113.769 174.318 112.731 175.241 111.462C176.279 110.192 177.087 108.231 177.087 107.077C177.087 106.038 175.933 104.308 174.549 103.385C173.049 102.462 171.087 101.654 170.164 101.654C169.241 101.654 167.395 102.231 166.241 102.923ZM208.703 102.808C206.856 104.885 206.741 105.577 208.01 108C208.703 109.615 210.433 111.462 211.703 112.038C213.549 112.962 214.703 112.615 217.241 110.423C220.01 108 220.241 107.308 219.203 104.308C218.279 101.885 217.126 100.962 214.472 100.731C212.164 100.5 210.318 101.192 208.703 102.808ZM146.972 102.346C145.587 103.846 145.587 104.308 147.087 105.231C148.01 105.808 149.626 106.154 150.549 105.923C151.472 105.808 152.279 104.538 152.395 103.038C152.472 101.346 151.856 100.5 150.549 100.5C149.395 100.5 147.779 101.308 146.972 102.346ZM130.933 103.385C130.933 105 131.741 106.5 132.664 106.846C133.587 107.192 134.972 106.615 135.549 105.692C136.241 104.769 136.472 103.154 136.126 102.231C135.779 101.308 134.51 100.5 133.241 100.5C131.51 100.5 130.933 101.308 130.933 103.385ZM114.895 102.231C113.972 103.5 113.972 104.423 115.126 105.692C115.818 106.731 116.741 107.538 117.087 107.423C117.433 107.423 118.356 106.962 119.164 106.5C120.203 106.038 120.549 104.654 120.087 103.038C119.741 101.654 118.703 100.5 117.779 100.5C116.856 100.5 115.587 101.308 114.895 102.231ZM98.0487 102.231C97.7025 103.154 97.7025 104.538 98.0487 105.115C98.3948 105.692 99.6641 106.269 100.933 106.269C102.203 106.269 103.472 105.692 103.818 105.115C104.164 104.538 104.164 103.154 103.818 102.231C103.472 101.308 102.203 100.5 100.933 100.5C99.6641 100.5 98.2794 101.308 98.0487 102.231ZM81.5487 102.231C81.0871 103.385 81.5487 104.885 82.8179 106.038C84.5487 107.769 85.0102 107.769 86.5102 106.269C87.5487 105.346 88.0102 103.615 87.6641 102.462C87.3179 101.423 86.0487 100.5 84.7794 100.5C83.5102 100.5 82.0102 101.308 81.5487 102.231ZM200.51 100.038C199.703 100.269 199.241 100.962 199.587 101.654C199.933 102.231 200.972 102.808 201.895 102.808C202.818 102.808 203.626 102 203.626 101.077C203.626 100.154 203.279 99.3462 202.818 99.4615C202.241 99.4615 201.203 99.6923 200.51 100.038ZM179.395 101.654C179.395 102.923 179.741 103.962 180.318 103.962C180.779 103.962 181.933 103.5 182.856 102.923C183.779 102.346 184.241 101.308 183.779 100.615C183.203 99.9231 182.049 99.3462 181.126 99.3462C180.203 99.3462 179.395 100.385 179.395 101.654ZM50.2794 101.538C50.164 103.269 50.741 103.846 52.241 103.615C53.2794 103.5 54.2025 102.577 54.2025 101.654C54.2025 100.731 53.3948 99.8077 52.241 99.5769C51.0102 99.3462 50.3564 100 50.2794 101.538ZM189.203 99.9231C187.703 100.962 187.241 102.231 187.818 103.385C188.279 104.308 189.433 105.462 190.356 105.923C191.51 106.5 192.895 106.038 194.164 104.769C195.549 103.269 195.779 102.231 194.972 100.846C194.395 99.8077 193.356 98.8846 192.664 98.6538C192.087 98.4231 190.472 99 189.203 99.9231ZM38.741 99.9231C38.0487 100.846 37.7025 102.462 38.0487 103.385C38.3948 104.308 39.4333 105.462 40.3564 105.923C41.5102 106.5 42.8948 106.154 43.9333 105.115C45.0871 104.077 45.4333 102.346 45.0871 100.731C44.6256 99.2308 43.4717 98.1923 42.2025 98.1923C41.0487 98.1923 39.4333 99 38.741 99.9231ZM29.3948 98.1923C27.8948 99.1154 27.8948 99.5769 29.741 101.308C31.4717 103.154 31.9333 103.154 32.8564 101.654C33.4333 100.731 33.7794 99.3462 33.5487 98.7692C33.4333 98.0769 32.741 97.5 32.164 97.3846C31.5871 97.1539 30.3179 97.6154 29.3948 98.1923ZM15.664 98.7692C13.8179 100.038 13.0102 101.654 13.0102 103.731C13.1256 105.462 13.8179 107.538 14.6256 108.346C15.4333 109.154 17.5102 109.731 19.3564 109.731C21.3179 109.731 23.164 108.808 24.2025 107.077C25.5871 105.115 25.7025 103.846 24.7794 101.308C24.2025 99.5769 23.164 98.1923 22.4717 98.1923C21.8948 98.1923 20.6256 97.9615 19.8179 97.6154C19.0102 97.2692 17.164 97.8462 15.664 98.7692ZM138.895 97.6154C137.51 99.2308 137.626 99.8077 139.356 101.423C141.203 103.269 141.433 103.269 143.395 101.423C144.549 100.154 145.01 98.7692 144.549 97.6154C143.972 96.6923 142.933 95.8846 142.01 95.8846C141.087 95.8846 139.703 96.6923 138.895 97.6154ZM123.087 97.2692C122.279 98.1923 122.049 99.6923 122.51 100.846C123.087 102.115 124.356 102.808 125.741 102.577C127.356 102.346 128.049 101.308 128.049 99.3462C128.049 97.6154 127.356 96.3462 126.203 96.1154C125.164 96 123.779 96.4615 123.087 97.2692ZM107.279 97.3846C106.01 98.3077 105.433 99.4615 105.895 100.731C106.356 101.885 107.626 102.808 108.779 102.808C109.818 102.923 111.433 102.231 112.126 101.423C113.279 100.269 113.164 99.5769 111.549 97.9615C109.818 96.2308 109.01 96.1154 107.279 97.3846ZM90.4333 97.6154C89.0487 99.2308 89.164 99.8077 90.8948 101.423C92.741 103.269 92.9717 103.269 94.9333 101.423C96.0871 100.154 96.5487 98.7692 96.0871 97.6154C95.5102 96.6923 94.4717 95.8846 93.5487 95.8846C92.6256 95.8846 91.241 96.6923 90.4333 97.6154ZM114.779 93.4615C113.741 94.1538 113.395 95.1923 113.972 96.3462C114.433 97.3846 115.933 98.0769 117.433 97.8462C119.126 97.6923 119.972 96.8462 119.972 95.3077C119.972 94.0385 119.164 92.8846 118.241 92.7692C117.318 92.5385 115.703 92.8846 114.779 93.4615ZM56.5102 94.9615C56.0487 96.6923 56.3948 98.1923 57.5487 99.3462C59.0487 100.615 59.8564 100.731 61.4717 99.8077C62.5102 99.1154 63.5487 97.5 63.7794 96.3462C64.0102 95.1923 63.5487 93.8077 62.6256 93.3462C61.8179 92.8846 60.2025 92.4231 59.164 92.4231C58.1256 92.4231 56.8564 93.5769 56.5102 94.9615ZM69.3179 93.9231C66.7794 95.8846 66.2025 97.1538 66.664 99.3462C67.0102 100.962 68.6256 102.923 70.5871 103.731C73.241 105 74.2794 105 76.4717 103.731C77.8564 102.923 79.1256 101.423 79.1256 100.5C79.241 99.5769 79.241 97.9615 79.1256 97.0385C79.0102 96.1154 77.741 94.3846 76.3564 93.2308C74.9717 92.0769 73.5871 91.1538 73.241 91.2692C72.8948 91.2692 71.1641 92.4231 69.3179 93.9231ZM206.626 91.8462C206.279 92.7692 205.933 94.0385 205.933 94.7308C205.933 95.3077 206.856 96.3462 208.01 96.9231C209.279 97.6154 210.664 97.5 212.049 96.3462C213.203 95.4231 213.779 93.8077 213.433 92.4231C213.087 90.9231 211.933 90.1154 210.087 90.1154C208.587 90.1154 206.972 90.9231 206.626 91.8462ZM171.318 91.5C170.395 92.3077 169.818 94.0385 169.933 95.5385C170.164 97.5 170.856 98.1923 173.049 98.1923C174.779 98.1923 176.279 97.3846 176.741 96.1154C177.087 95.0769 176.972 93.4615 176.395 92.5385C175.818 91.6154 174.779 90.6923 174.203 90.4615C173.51 90.2308 172.241 90.6923 171.318 91.5ZM155.741 92.1923C154.587 93.3462 153.664 95.0769 153.779 96C153.895 96.9231 154.818 98.8846 155.972 100.385C157.587 102.577 158.741 102.923 161.279 102.346C163.01 102 164.972 100.5 165.664 99C166.703 97.0385 166.587 95.7692 165.087 93.2308C163.933 91.2692 162.318 90.1154 160.472 90.1154C159.087 90.1154 156.895 91.0385 155.741 92.1923ZM218.626 90.1154C217.356 91.3846 216.318 93.3462 216.318 94.3846C216.203 95.5385 217.126 97.3846 218.279 98.4231C219.433 99.5769 221.395 100.385 222.664 100.385C223.933 100.385 225.895 99.8077 226.933 99C228.087 98.1923 228.895 96.1154 228.895 94.1538C228.895 92.1923 228.087 90.1154 226.933 89.3077C225.895 88.5 224.049 87.8077 223.01 87.8077C221.856 87.8077 219.895 88.8462 218.626 90.1154ZM193.933 90.1154C192.549 91.8462 192.433 93 193.241 94.7308C193.933 96 195.087 97.2692 195.895 97.5C196.587 97.7308 198.203 97.3846 199.356 96.9231C200.395 96.3462 201.318 94.7308 201.318 93.2308C201.318 91.8462 200.741 90 199.933 89.1923C199.126 88.3846 197.856 87.8077 197.164 87.8077C196.472 87.8077 195.087 88.8462 193.933 90.1154ZM183.318 88.7308C182.626 89.1923 181.703 90.5769 181.356 91.8462C180.779 93.3462 181.241 94.8462 182.51 96.2308C183.664 97.3846 185.049 98.3077 185.51 98.1923C186.087 98.1923 187.241 97.3846 188.164 96.4615C189.087 95.5385 189.779 93.8077 189.779 92.6539C189.779 91.6154 189.203 90 188.395 89.1923C187.587 88.3846 186.433 87.8077 185.741 87.8077C185.164 87.8077 184.01 88.2692 183.318 88.7308ZM122.279 89.5385C121.933 90.4615 121.933 91.8462 122.279 92.4231C122.626 93 124.126 93.5769 125.741 93.5769C128.049 93.5769 128.626 93 128.626 90.6923C128.626 88.3846 128.049 87.8077 125.741 87.8077C124.126 87.8077 122.51 88.6154 122.279 89.5385ZM106.126 88.5C105.664 88.9615 105.203 90.3462 105.318 91.5C105.549 93 106.356 93.4615 108.779 93.2308C111.087 93.1154 111.895 92.4231 111.895 90.6923C111.895 89.1923 110.972 88.2692 109.587 88.0385C108.203 87.8077 106.703 88.0385 106.126 88.5ZM46.0102 88.7308C45.3179 89.1923 44.3948 90.4615 44.0487 91.5C43.5871 92.7692 44.0487 94.5 45.3179 96C46.7025 97.7308 48.0871 98.3077 49.9333 97.7308C51.3179 97.3846 52.7025 96 53.0487 94.7308C53.3948 93.4615 53.1641 91.3846 52.4717 90.1154C51.8948 88.8462 50.3948 87.8077 49.3564 87.8077C48.2025 87.8077 46.7025 88.2692 46.0102 88.7308ZM21.2025 89.6538C19.9333 91.0385 19.9333 91.9615 20.8564 93.3462C21.5487 94.5 23.2794 95.4231 24.664 95.5385C26.2794 95.7692 27.3179 95.0769 27.7794 93.2308C28.241 91.8462 28.241 90 27.7794 89.1923C27.4333 88.5 26.164 87.8077 24.8948 87.8077C23.741 87.8077 22.0102 88.6154 21.2025 89.6538ZM33.4333 88.5C32.3948 89.4231 31.5871 90.8077 31.5871 91.3846C31.7025 91.9615 31.9333 93.2308 32.2794 94.1538C32.6256 95.1923 34.241 95.8846 36.3179 95.8846C39.2025 95.8846 39.8948 95.3077 40.4717 92.6539C41.0487 90.3462 40.7025 89.1923 39.0871 88.0385C37.8179 87.2308 36.5487 86.6538 36.0871 86.6538C35.6256 86.6538 34.4717 87.4615 33.4333 88.5ZM64.1256 87.6923C64.0102 89.5385 64.5871 90 66.664 89.7692C68.0487 89.6539 69.2025 88.7308 69.2025 87.8077C69.2025 86.8846 68.0487 85.9615 66.664 85.7308C64.8179 85.3846 64.1256 85.9615 64.1256 87.6923ZM166.126 85.1539C165.549 85.5 165.203 86.3077 165.318 86.8846C165.433 87.3462 166.587 87.8077 167.856 87.8077C169.126 87.8077 170.164 87 170.164 86.0769C170.164 85.1538 169.472 84.3462 168.664 84.3462C167.741 84.3462 166.703 84.6923 166.126 85.1539ZM8.5102 85.5C6.31789 86.0769 5.62558 87 5.39481 90.6923C5.04866 94.7308 5.39481 95.5385 7.93328 96.6923C9.54866 97.5 11.2794 98.1923 11.8564 98.1923C12.3179 98.1923 13.8179 97.1538 15.3179 95.8846C16.7025 94.6154 17.8564 92.5385 17.8564 91.2692C17.8564 90 17.164 88.2692 16.4717 87.4615C15.664 86.6539 14.164 85.7308 13.1256 85.3846C12.0871 85.0385 10.0102 85.0385 8.5102 85.5ZM211.703 84C211.587 84.5769 212.279 85.6154 213.087 86.3077C213.895 87.1154 215.049 87.4615 215.51 86.8846C215.972 86.4231 216.318 85.3846 216.318 84.5769C216.318 83.8846 215.279 83.1923 214.01 83.1923C212.741 83.1923 211.703 83.5385 211.703 84ZM113.856 84.9231C113.395 86.0769 113.856 87.5769 115.126 88.7308C116.972 90.5769 117.203 90.5769 119.164 88.7308C120.318 87.4615 120.779 86.0769 120.318 84.9231C119.741 84 118.356 83.1923 117.087 83.1923C115.818 83.1923 114.318 84 113.856 84.9231ZM52.4717 84.3462C52.4717 87.2308 53.0487 87.9231 55.7025 88.5C57.664 88.9615 59.3948 88.6154 60.3179 87.5769C61.241 86.7692 61.5871 84.9231 61.241 83.4231C60.6641 81.4615 59.741 80.8846 56.5102 80.8846C52.8179 80.8846 52.4717 81.1154 52.4717 84.3462ZM18.0871 82.8462C18.3179 84 19.241 84.9231 20.164 84.9231C21.0871 84.9231 21.8948 84 21.8948 82.8462C21.8948 81.6923 21.0871 80.8846 19.8179 80.8846C18.3564 80.8846 17.7794 81.5385 18.0871 82.8462ZM173.51 82.2692C172.356 84.5769 172.587 85.2692 174.664 86.8846C176.51 88.5 177.664 88.7308 179.395 87.8077C180.779 87.1154 181.703 85.5 181.703 83.7692C181.703 82.1538 180.895 80.6538 179.972 80.3077C179.049 79.9615 177.433 79.7308 176.51 79.7308C175.587 79.7308 174.203 80.8846 173.51 82.2692ZM201.433 80.3077C200.741 81.2308 200.279 82.8462 200.51 83.8846C200.626 84.9231 201.664 86.4231 202.818 87.1154C204.203 88.0385 205.356 88.0385 206.856 87.1154C207.895 86.4231 208.933 84.9231 209.164 83.8846C209.279 82.8462 208.587 81.2308 207.664 80.3077C206.741 79.3846 205.241 78.5769 204.318 78.5769C203.395 78.5769 202.126 79.3846 201.433 80.3077ZM73.5871 80.3077C72.7794 81.2308 72.0871 83.0769 72.0871 84.3462C72.0871 85.6154 72.8948 87.4615 73.8179 88.3846C74.741 89.3077 77.164 90 79.1256 89.7692C81.2025 89.6539 83.3948 88.6154 84.0871 87.5769C85.0102 86.1923 85.0102 84.5769 84.2025 82.3846C83.2794 79.8462 82.241 79.1538 79.0102 78.9231C76.5871 78.6923 74.3948 79.2692 73.5871 80.3077ZM25.8179 79.6154C25.1256 80.8846 24.664 82.1538 24.664 82.5C24.7794 82.8462 26.0487 84 27.664 84.9231C29.741 86.1923 31.1256 86.3077 32.8564 85.5C34.241 84.8077 35.1641 83.1923 35.1641 81.4615C35.1641 79.8462 34.3564 78.3462 33.4333 78C32.5102 77.6538 30.664 77.4231 29.3948 77.4231C28.1256 77.4231 26.6256 78.4615 25.8179 79.6154ZM152.049 78C151.241 78.9231 150.549 80.8846 150.549 82.2692C150.549 83.7692 151.126 85.6154 151.933 86.4231C152.741 87.2308 154.703 87.8077 156.433 87.8077C158.049 87.8077 159.895 87.1154 160.703 86.3077C161.51 85.6154 162.087 83.7692 162.087 82.2692C162.087 80.8846 161.279 78.9231 160.356 78C159.433 77.0769 157.472 76.2692 156.087 76.2692C154.587 76.3846 152.741 77.0769 152.049 78ZM187.587 76.8462C186.087 77.8846 184.933 79.6154 184.933 80.6538C185.049 81.6923 186.203 83.6538 187.472 84.9231C189.433 86.7692 190.472 87 193.01 86.0769C195.087 85.2692 196.356 83.8846 196.587 81.8077C197.049 79.6154 196.472 78.3462 194.279 76.9615C192.779 75.9231 191.279 75.1154 190.933 75.1154C190.587 75.1154 189.087 75.9231 187.587 76.8462ZM220.933 77.0769C218.856 79.9615 218.741 80.5385 220.241 82.6154C221.049 83.8846 222.779 85.1538 223.933 85.2692C225.203 85.5 227.279 85.3846 228.779 85.0385C230.164 84.6923 231.549 83.3077 231.895 82.0385C232.241 80.7692 231.664 78.4615 230.741 76.8462C229.703 75 227.972 73.9615 226.241 73.9615C224.51 73.9615 222.433 75.2308 220.933 77.0769ZM63.8948 75.8077C62.6256 77.1923 62.6256 78.1154 63.5487 79.5C64.241 80.6538 65.5102 81.5769 66.4333 81.8077C67.3564 81.9231 68.9717 81.4615 70.241 80.6538C72.0871 79.3846 72.2025 78.8077 70.8179 76.5C69.8948 75.1154 68.3948 73.9615 67.3564 73.9615C66.3179 73.9615 64.7025 74.7692 63.8948 75.8077ZM41.2794 75.4615C40.0102 76.1538 38.5102 78 38.0487 79.6154C37.3564 82.0385 37.7025 83.0769 39.8948 84.6923C41.3948 85.8462 43.241 86.7692 43.8179 86.7692C44.5102 86.6538 46.1256 85.8462 47.6256 84.9231C49.0102 83.8846 50.1641 81.9231 50.1641 80.3077C50.2794 78.3462 49.241 76.9615 46.9333 75.9231C44.5102 74.6538 43.0102 74.5385 41.2794 75.4615ZM166.126 73.6154C164.626 73.9615 163.933 74.8846 164.164 76.3846C164.279 77.5385 165.433 79.1538 166.703 79.7308C168.318 80.5385 169.587 80.4231 170.741 79.3846C171.779 78.6923 172.703 77.1923 172.818 76.1538C172.933 75.1154 172.126 73.8461 170.972 73.5C169.933 73.1538 168.895 72.9231 168.779 72.9231C168.549 73.0385 167.395 73.2692 166.126 73.6154ZM210.549 73.0385C209.626 73.8462 209.049 75.1154 209.164 75.9231C209.279 76.7308 210.433 78 211.703 78.5769C213.433 79.3846 214.472 79.2692 215.741 78C217.01 76.7308 217.126 75.6923 216.318 73.9615C215.741 72.6923 214.472 71.6538 213.664 71.6538C212.856 71.6538 211.472 72.2308 210.549 73.0385ZM4.24097 72.8077C3.43328 74.0769 2.85635 76.0385 2.85635 77.0769C2.74097 78.2308 3.66405 80.0769 4.81789 81.1154C5.97174 82.2692 7.93328 83.0769 9.20251 83.0769C10.4717 83.0769 12.4333 82.5 13.4717 81.6923C14.6256 80.8846 15.4333 78.8077 15.5487 76.8462C15.5487 74.8846 14.9717 72.6923 14.164 71.8846C13.3564 71.0769 11.0487 70.5 9.08712 70.5C6.89481 70.5 5.16405 71.3077 4.24097 72.8077ZM197.856 69.5769C196.933 70.3846 196.356 71.7692 196.472 72.6923C196.472 73.7308 197.395 75.3461 198.433 76.2692C199.933 77.6538 200.741 77.7692 203.049 76.5C204.664 75.8077 205.933 74.1923 205.933 73.0385C205.933 72 205.356 70.3846 204.549 69.5769C203.741 68.7692 202.241 68.1923 201.318 68.1923C200.279 68.1923 198.779 68.7692 197.856 69.5769ZM176.626 70.1538C175.356 71.5385 175.01 72.9231 175.587 74.4231C176.164 75.5769 177.318 76.9615 178.241 77.4231C179.164 78 180.895 77.7692 181.933 77.0769C183.087 76.2692 183.895 74.6538 184.01 73.3846C184.01 72.1154 183.433 70.3846 182.626 69.5769C181.818 68.7692 180.549 68.1923 179.856 68.1923C179.164 68.1923 177.664 69.1154 176.626 70.1538ZM112.818 69.9231C112.01 70.8461 111.318 73.0385 111.318 74.7692C111.318 76.6154 111.895 78.6923 112.703 79.5C113.51 80.3077 115.241 80.8846 116.51 80.8846C117.779 81 119.741 80.0769 120.779 78.9231C121.933 77.7692 122.856 75.8077 122.856 74.5385C122.856 73.2692 122.049 71.3077 120.895 70.2692C119.741 69.1154 117.779 68.3077 116.51 68.3077C115.241 68.3077 113.51 69 112.818 69.9231ZM53.1641 69.5769C51.8948 70.5 51.3179 72.1154 51.5487 73.8462C51.7794 75.3462 52.8179 77.1923 53.9717 77.8846C55.3564 78.8077 56.5102 78.8077 58.0102 77.8846C59.0487 77.1923 60.2025 75.3461 60.4333 73.9615C60.7794 72.1154 60.0871 70.6154 58.7025 69.6923C57.5487 68.8846 56.2794 68.1923 55.9333 68.1923C55.5871 68.1923 54.3179 68.8846 53.1641 69.5769ZM19.7025 70.1538C18.664 71.3077 18.0871 73.1538 18.4333 74.1923C18.8179 75.5769 20.164 76.2692 22.4717 76.2692C25.0102 76.2692 26.0487 75.5769 26.5102 73.9615C26.8564 72.6923 26.2794 70.8461 25.3564 69.9231C24.4333 69 23.164 68.1923 22.5871 68.1923C22.1256 68.1923 20.741 69.1154 19.7025 70.1538ZM127.126 67.9615C125.664 69.2692 125.164 70.8846 125.626 72.8077C125.972 74.4231 127.472 76.3846 128.856 77.1923C131.049 78.4615 132.087 78.4615 134.741 77.1923C137.164 76.0385 137.972 74.8846 137.856 72.4615C137.856 70.7308 137.049 68.5385 136.126 67.6154C135.203 66.6923 133.241 65.8846 131.856 66C130.356 66 128.279 66.9231 127.126 67.9615ZM62.2794 66.6923C61.7025 67.0385 61.3564 68.0769 61.4717 69C61.5871 69.8077 62.741 70.5 64.0102 70.5C65.5487 70.5 66.3179 69.7308 66.3179 68.1923C66.3179 66.9231 65.6256 65.8846 64.8179 65.8846C63.8948 65.8846 62.8564 66.2308 62.2794 66.6923ZM31.1256 67.7308C30.0871 68.6538 29.2794 70.1538 29.2794 70.8462C29.2794 71.6538 30.2025 73.1538 31.3564 74.1923C32.5102 75.3462 34.0102 76.2692 34.5871 76.2692C35.2794 76.2692 36.7794 75.2308 38.0487 73.9615C40.1256 71.7692 40.241 71.4231 38.6256 68.7692C37.7025 67.1538 35.9717 65.8846 34.9333 65.8846C33.8948 65.8846 32.164 66.6923 31.1256 67.7308ZM170.626 66.1154C170.279 66.9231 170.51 68.0769 171.203 68.7692C172.049 69.5385 172.895 69.5385 173.741 68.7692C174.433 68.0769 174.664 66.9231 174.318 66.1154C173.972 65.4231 173.164 64.7308 172.472 64.7308C171.895 64.7308 171.087 65.4231 170.626 66.1154ZM96.8948 67.2692C95.6256 69.1154 95.3948 70.7308 96.0871 72.8077C96.664 74.4231 98.164 76.0385 99.3179 76.3846C100.472 76.8461 102.779 76.6154 104.395 75.8077C106.126 75 107.395 73.3846 107.626 71.6538C107.856 70.0385 107.049 67.8461 105.895 66.6923C104.741 65.5385 102.664 64.6154 101.279 64.7308C99.7794 64.7308 97.8179 65.8846 96.8948 67.2692ZM207.664 64.2692C207.087 64.7308 206.741 65.7692 206.856 66.6923C206.972 67.5 208.01 68.0769 209.164 67.8461C210.203 67.7308 211.126 66.8077 211.126 66C211.126 65.0769 210.549 64.1538 209.856 63.9231C209.164 63.6923 208.241 63.9231 207.664 64.2692ZM186.779 66.6923C186.203 69.1154 186.549 70.2692 188.164 71.4231C189.433 72.2308 190.703 72.8077 191.279 72.8077C191.741 72.8077 192.895 71.5385 193.818 69.9231C195.203 67.6154 195.318 66.6923 194.164 65.3077C193.356 64.2692 191.51 63.4615 190.126 63.5769C188.279 63.5769 187.241 64.5 186.779 66.6923ZM73.8179 64.5C73.241 64.9615 71.9717 66.2308 71.2794 67.2692C70.1256 68.8846 70.1256 69.9231 71.0487 71.8846C71.8564 73.3846 73.0102 74.8846 73.7025 75.3462C74.3948 75.8077 76.0102 76.2692 77.2794 76.2692C78.5487 76.2692 80.5102 75.4615 81.5487 74.3077C82.7025 73.1538 83.6256 71.1923 83.6256 69.9231C83.6256 68.6538 82.8179 66.6923 81.664 65.6538C80.5102 64.5 78.5487 63.5769 77.2794 63.5769C76.0102 63.5769 74.5102 64.0385 73.8179 64.5ZM41.5102 64.2692C41.0487 64.7308 40.5871 66.1154 40.7025 67.2692C40.8179 68.4231 41.741 70.1538 42.6641 71.0769C44.0487 72.4615 44.8564 72.5769 47.3948 71.3077C49.5871 70.2692 50.2794 69.2308 49.9333 67.0385C49.7025 64.7308 48.8948 64.0385 46.1256 63.8077C44.1641 63.5769 42.0871 63.8077 41.5102 64.2692ZM155.164 63.5769C153.895 64.8461 152.856 66.8077 152.856 67.8461C152.741 69 153.664 70.8462 154.818 71.8846C155.972 73.0385 158.049 73.9615 159.549 73.9615C160.933 73.9615 162.895 72.8077 163.818 71.3077C164.741 69.9231 165.549 68.0769 165.549 67.2692C165.549 66.5769 164.395 64.8461 163.01 63.5769C161.51 62.3077 159.664 61.2692 158.972 61.2692C158.164 61.2692 156.433 62.3077 155.164 63.5769ZM109.241 63.2308C109.472 64.3846 110.395 65.3077 111.318 65.3077C112.241 65.3077 113.049 64.3846 113.049 63.2308C113.049 62.0769 112.241 61.2692 110.972 61.2692C109.51 61.2692 108.933 61.9231 109.241 63.2308ZM25.3564 61.9615C24.8948 62.4231 24.4333 63.4615 24.5487 64.3846C24.664 65.1923 26.0487 65.8846 27.664 65.8846C29.741 65.8846 30.4333 65.3077 30.2025 63.8077C30.0871 62.7692 29.164 61.7308 28.1256 61.5C27.2025 61.3846 25.9333 61.5 25.3564 61.9615ZM217.933 61.0385C217.241 61.5 216.318 63 215.856 64.3846C215.395 66.2308 215.856 67.7308 217.472 69.3461C218.741 70.6154 220.587 71.6538 221.51 71.6538C222.433 71.6538 224.626 70.3846 226.472 68.8846C229.472 66.2308 229.587 66.1154 227.626 63.1154C226.241 61.0385 224.51 60.1154 222.433 60.1154C220.587 60.1154 218.626 60.5769 217.933 61.0385ZM119.51 59.7692C118.472 60 117.895 61.5 118.01 63.1154C118.126 64.6154 118.933 66.1154 119.741 66.2308C120.433 66.4615 122.049 66.4615 123.203 66.2308C124.241 66.1154 125.164 64.9615 125.164 63.8077C125.164 62.7692 124.587 61.1538 123.779 60.3461C122.972 59.5385 122.049 58.9615 121.703 59.0769C121.356 59.0769 120.318 59.4231 119.51 59.7692ZM177.203 59.7692C176.279 61.3846 176.51 62.3077 178.01 63.8077C179.51 65.3077 180.318 65.4231 181.933 64.3846C183.087 63.5769 183.895 62.0769 184.01 60.9231C184.01 59.8846 183.203 58.7308 182.279 58.3846C181.356 58.0385 180.087 57.8077 179.395 57.8077C178.818 57.8077 177.779 58.7308 177.203 59.7692ZM130.241 59.1923C129.895 60 130.126 61.1538 130.818 61.8461C131.664 62.6154 132.51 62.6154 133.356 61.8461C134.049 61.1538 134.279 60 133.933 59.1923C133.587 58.5 132.779 57.8077 132.087 57.8077C131.51 57.8077 130.703 58.5 130.241 59.1923ZM53.741 58.6154C52.8179 58.8461 52.1256 60 52.241 61.0385C52.3564 62.0769 53.0487 63.6923 53.8564 64.5C54.664 65.3077 56.2794 65.8846 57.4333 65.8846C58.4717 65.8846 59.6256 64.8461 59.9717 63.5769C60.3179 62.3077 59.8564 60.4615 59.164 59.5385C58.3564 58.5 57.2025 57.8077 56.5102 57.8077C55.9333 57.9231 54.5487 58.2692 53.741 58.6154ZM197.972 57.4615C196.933 57.6923 196.356 59.1923 196.472 60.8077C196.587 62.3077 197.51 63.8077 198.433 64.1538C199.356 64.5 200.972 64.5 201.895 64.1538C202.818 63.8077 203.626 62.6538 203.626 61.5C203.626 60.4615 203.049 58.8461 202.241 58.0385C201.433 57.2308 200.51 56.6538 200.164 56.7692C199.818 56.7692 198.779 57.1154 197.972 57.4615ZM187.472 57.4615C187.356 58.0385 188.049 59.0769 188.856 59.7692C189.664 60.5769 190.818 60.9231 191.279 60.3461C191.741 59.8846 192.087 58.8461 192.087 58.0385C192.087 57.3461 191.049 56.6538 189.779 56.6538C188.51 56.6538 187.472 57 187.472 57.4615ZM140.164 58.9615C138.664 60.3461 137.51 62.4231 137.626 63.5769C137.741 64.8461 139.126 66.6923 140.741 67.6154C142.356 68.6538 144.664 69 146.279 68.6538C147.664 68.1923 149.164 67.2692 149.626 66.5769C150.087 65.8846 150.549 64.1538 150.549 62.6538C150.549 61.2692 149.395 59.3077 148.01 58.3846C146.51 57.4615 144.779 56.6538 144.087 56.6538C143.51 56.6538 141.664 57.6923 140.164 58.9615ZM33.3179 58.0385C32.8564 58.8461 32.9717 60.4615 33.3179 61.5C33.7794 62.7692 35.1641 63.5769 36.8948 63.5769C38.8179 63.5769 39.9717 62.8077 40.3564 61.2692C40.7025 60 40.7025 58.3846 40.3564 57.8077C40.0102 57.1154 38.5102 56.6538 36.8948 56.6538C35.2794 56.6538 33.664 57.3461 33.3179 58.0385ZM10.1256 58.3846C9.31789 59.3077 8.62558 61.3846 8.62558 63C8.62558 64.7308 9.66405 66.5769 11.2794 67.6154C13.241 69 14.5102 69.1154 17.0487 68.1923C18.7794 67.6154 20.3948 66 20.741 64.7308C21.0871 63.4615 20.5102 61.1538 19.5871 59.5385C18.4333 57.5769 16.8179 56.6538 14.741 56.6538C12.8948 56.7692 10.8179 57.4615 10.1256 58.3846ZM44.8564 56.8846C44.5102 57.6923 44.8564 59.0769 45.664 59.8846C47.0487 61.1538 47.6256 61.0385 49.0102 59.5385C50.5102 57.8077 50.5102 57.4615 49.0102 56.5385C48.0871 55.9615 46.9333 55.5 46.4717 55.5C46.0102 55.5 45.3179 56.1923 44.8564 56.8846ZM99.3179 56.0769C98.9717 57 98.8564 58.6154 99.2025 59.5385C99.5487 60.4615 101.049 61.2692 102.664 61.2692C104.279 61.2692 105.779 60.4615 106.126 59.5385C106.472 58.6154 106.472 57 106.126 56.0769C105.779 55.1538 104.279 54.3461 102.779 54.3461C101.279 54.3461 99.664 55.1538 99.3179 56.0769ZM87.5487 55.7308C86.1641 56.4231 84.664 58.3846 84.3179 60C83.6256 62.1923 83.9717 63.5769 85.5871 65.0769C86.741 66.2308 88.4717 67.1538 89.3948 67.0385C90.3179 67.0385 92.2794 66.2308 93.7794 65.3077C95.164 64.3846 96.3179 62.5385 96.3179 61.2692C96.3179 60 95.164 57.9231 93.7794 56.6538C92.2794 55.3846 90.8948 54.3461 90.5487 54.3461C90.2025 54.4615 88.8179 55.0385 87.5487 55.7308ZM63.3179 54C61.5871 56.8846 61.5871 57.5769 62.9717 60.1154C64.241 62.3077 65.6256 63 68.6256 63C71.6256 63 73.0102 62.3077 74.3948 60C76.0102 57.2308 75.8948 56.6538 74.164 53.8846C72.664 51.8077 71.0487 50.8846 68.741 50.8846C66.3179 50.8846 64.8179 51.8077 63.3179 54ZM164.741 51.4615C162.895 52.6154 162.203 54.1154 162.433 56.3077C162.549 58.5 163.703 60 165.895 60.9231C168.433 62.1923 169.472 62.0769 171.895 60.6923C173.626 59.6538 174.779 57.9231 174.779 56.3077C174.895 54.9231 173.972 52.8461 172.818 51.8077C171.664 50.6538 169.933 49.7308 169.01 49.7308C168.087 49.7308 166.126 50.5385 164.741 51.4615ZM110.856 52.0385C109.356 54 109.241 54.6923 110.51 56.6538C111.203 57.9231 112.703 58.9615 113.741 58.9615C114.664 58.9615 116.049 58.2692 116.856 57.4615C117.664 56.7692 118.241 54.9231 118.241 53.4231C118.241 52.0385 117.433 50.6538 116.51 50.3077C115.587 49.9615 114.318 49.7308 113.741 49.7308C113.279 49.7308 112.01 50.7692 110.856 52.0385ZM207.779 50.3077C206.626 51.3461 205.818 53.0769 205.818 54.1154C205.933 55.1538 206.741 57.2308 207.664 58.6154C208.587 60.1154 210.318 61.2692 211.472 61.2692C212.51 61.2692 214.703 60 216.318 58.3846C219.087 55.5 219.087 55.1538 217.472 52.2692C216.318 50.4231 214.472 49.0385 212.626 48.8077C211.01 48.5769 208.818 49.2692 207.779 50.3077ZM134.972 49.3846C134.395 49.7308 134.049 51.1154 134.164 52.2692C134.279 53.4231 135.318 54.8077 136.472 55.5C137.972 56.3077 139.01 56.0769 140.741 54.3461C142.818 52.2692 142.818 51.9231 141.318 50.3077C140.395 49.2692 138.779 48.4615 137.741 48.5769C136.703 48.5769 135.549 48.9231 134.972 49.3846ZM94.0102 50.3077C94.0102 51.2308 94.8179 51.9231 95.9717 51.6923C97.0102 51.5769 98.0487 50.7692 98.2794 49.9615C98.5102 49.2692 97.5871 48.5769 96.3179 48.5769C95.0487 48.5769 94.0102 49.3846 94.0102 50.3077ZM123.203 49.1538C120.779 50.6538 120.664 51.2308 122.049 53.7692C122.856 55.5 124.356 56.6538 125.856 56.6538C127.126 56.6538 128.741 55.9615 129.549 55.1538C130.356 54.4615 130.933 52.8461 130.933 51.6923C130.933 50.6538 129.895 49.1538 128.626 48.5769C127.356 47.8846 126.203 47.4231 126.087 47.4231C125.856 47.4231 124.587 48.2308 123.203 49.1538ZM20.741 48.3461C19.5871 49.5 18.664 51.2308 18.7794 52.1538C18.8948 53.0769 19.8179 54.9231 20.741 56.3077C22.0102 58.2692 23.3948 58.8461 26.0487 58.6154C28.3564 58.5 30.2025 57.3461 31.4717 55.2692C33.3179 52.5 33.3179 52.0385 31.4717 49.2692C30.0871 47.1923 28.3564 46.2692 26.0487 46.2692C24.3179 46.2692 21.8948 47.1923 20.741 48.3461ZM147.087 46.2692C145.587 47.6538 144.433 49.2692 144.549 50.0769C144.664 50.8846 145.587 52.6154 146.741 54C147.895 55.3846 149.972 56.5385 151.472 56.6538C152.972 56.6538 154.933 55.8461 155.856 54.9231C156.779 54 157.472 51.9231 157.472 50.3077C157.472 48.6923 156.664 46.6154 155.741 45.6923C154.818 44.7692 153.087 43.9615 151.933 43.9615C150.779 43.9615 148.587 45 147.087 46.2692ZM193.241 44.1923C192.318 45 191.741 46.8461 191.856 48.5769C191.972 50.1923 192.664 52.1538 193.472 52.9615C194.279 53.7692 196.241 54.3461 197.972 54.3461C199.587 54.3461 201.433 53.6538 202.241 52.8461C203.049 52.1538 203.626 50.0769 203.626 48.2308C203.626 46.2692 202.818 44.6538 201.318 43.9615C200.049 43.3846 198.087 42.8077 196.933 42.8077C195.779 42.8077 194.164 43.3846 193.241 44.1923ZM178.241 44.7692C176.164 46.5 175.818 47.5385 176.395 50.5385C176.856 53.3077 177.895 54.4615 179.741 54.9231C181.126 55.1538 183.318 55.1538 184.587 54.8077C185.856 54.5769 187.241 53.1923 187.703 51.6923C188.164 50.3077 188.626 48.8077 188.626 48.2308C188.626 47.7692 187.587 46.3846 186.318 45.1154C185.049 43.8461 183.318 42.8077 182.395 42.8077C181.587 42.8077 179.626 43.7308 178.241 44.7692ZM53.1641 43.7308C52.241 43.9615 50.8564 45.2308 50.2794 46.6154C49.7025 48 49.3564 50.1923 49.7025 51.4615C49.9333 52.7308 51.664 54.4615 53.3948 55.2692C56.0487 56.4231 56.9717 56.4231 59.164 54.9231C60.664 53.8846 61.7025 51.9231 61.7025 49.9615C61.8179 48.2308 61.1256 46.2692 60.3179 45.5769C59.5102 44.8846 58.0102 44.0769 56.9717 43.8461C55.8179 43.5 54.2025 43.5 53.1641 43.7308ZM102.664 43.2692C101.395 44.0769 100.472 45.4615 100.703 46.3846C100.818 47.3077 101.51 48.6923 102.318 49.5C103.126 50.3077 104.972 50.8846 106.472 50.8846C107.856 50.8846 109.241 50.0769 109.587 49.1538C109.933 48.2308 110.164 46.8461 110.164 46.2692C110.164 45.6923 109.356 44.3077 108.433 43.3846C107.51 42.4615 106.356 41.6538 105.895 41.6538C105.318 41.6538 103.933 42.4615 102.664 43.2692ZM78.6641 44.6538C77.5102 47.0769 77.6256 48.1154 79.0102 50.6538C80.1641 52.6154 81.7794 53.7692 83.5102 53.7692C85.1256 53.7692 87.3179 52.5 88.7025 50.6538C91.0102 47.6538 91.0102 47.4231 89.164 44.6538C87.664 42.5769 86.0487 41.6538 83.6256 41.6538C80.9717 41.6538 79.8179 42.3461 78.6641 44.6538ZM36.8948 42.5769C36.3179 43.0385 35.0487 44.3077 34.3564 45.3461C33.0871 47.0769 33.2025 48 35.1641 50.8846C36.5487 52.9615 38.5102 54.3461 40.1256 54.3461C41.5102 54.4615 43.5871 53.5385 44.6256 52.3846C45.7794 51.2308 46.7025 49.1538 46.7025 47.6538C46.7025 46.2692 45.8948 44.3077 44.9717 43.3846C44.0487 42.4615 42.0871 41.6538 40.7025 41.6538C39.2025 41.6538 37.5871 42.1154 36.8948 42.5769ZM140.164 42.2308C140.164 43.1538 140.51 44.1923 141.087 44.4231C141.549 44.7692 142.703 44.5385 143.626 43.9615C144.549 43.5 145.01 42.4615 144.549 41.7692C143.972 41.0769 142.818 40.5 141.895 40.5C140.972 40.5 140.164 41.3077 140.164 42.2308ZM128.741 39.9231C128.049 40.8461 127.703 42.6923 128.049 43.9615C128.51 45.5769 129.549 46.2692 132.087 46.2692C134.626 46.2692 135.664 45.6923 135.895 43.9615C136.126 42.5769 135.779 40.7308 135.087 39.8077C134.395 38.8846 133.01 38.0769 131.972 38.1923C130.933 38.1923 129.433 39 128.741 39.9231ZM92.2794 37.8461C91.7025 38.1923 91.3564 39.8077 91.4717 41.3077C91.7025 43.2692 92.3948 43.9615 94.5871 43.9615C96.2025 43.9615 97.7025 43.1538 98.0487 42.2308C98.3948 41.3077 97.9333 39.6923 97.241 38.7692C96.4333 37.7308 95.1641 36.9231 94.4717 37.0385C93.7794 37.0385 92.8564 37.3846 92.2794 37.8461ZM114.203 37.7308C113.164 38.6538 112.356 40.5 112.356 41.7692C112.472 42.9231 113.279 44.7692 114.203 45.6923C115.126 46.6154 116.972 47.4231 118.126 47.4231C119.395 47.4231 121.241 46.6154 122.164 45.6923C123.203 44.7692 124.01 42.9231 124.01 41.6538C124.01 40.3846 123.203 38.5385 122.279 37.6154C121.356 36.6923 119.51 35.8846 118.356 35.8846C117.087 35.8846 115.241 36.6923 114.203 37.7308ZM101.972 33.1154C100.703 34.5 100.703 35.4231 101.626 36.8077C102.318 37.9615 104.164 38.8846 105.664 39.1154C107.395 39.3461 108.895 38.7692 109.818 37.3846C110.856 35.7692 110.856 34.8461 109.818 33.2308C109.01 32.1923 107.279 31.2692 106.01 31.2692C104.626 31.2692 102.779 32.0769 101.972 33.1154ZM148.241 31.2692C146.972 32.5385 145.933 34.5 145.933 35.5385C145.818 36.6923 146.741 38.5385 147.895 39.5769C149.049 40.7308 151.126 41.6538 152.51 41.6538C153.895 41.6538 155.856 40.8461 156.779 39.9231C157.818 39 158.626 37.2692 158.626 36.1154C158.626 35.0769 157.818 33 156.664 31.6154C155.51 30.2308 153.664 29.0769 152.626 28.9615C151.472 28.9615 149.51 30 148.241 31.2692ZM136.126 29.6538C135.664 30.1154 135.203 31.2692 135.318 32.3077C135.433 33.3461 136.241 34.8461 137.279 35.5385C138.664 36.6923 139.356 36.6923 140.856 35.5385C141.779 34.8461 142.472 33.1154 142.241 31.8461C142.01 30.5769 140.856 29.4231 139.587 29.1923C138.203 28.9615 136.703 29.1923 136.126 29.6538ZM94.8179 29.7692C94.3564 30.3461 94.7025 31.3846 95.5102 32.1923C96.2025 33 97.241 33.6923 97.8179 33.5769C98.2794 33.5769 98.6256 32.5385 98.6256 31.2692C98.6256 30 97.9333 28.9615 97.1256 28.9615C96.2025 28.9615 95.1641 29.3077 94.8179 29.7692ZM124.01 28.0385C123.087 28.8461 122.51 30.4615 122.626 31.8461C122.856 33.1154 123.779 34.7308 124.933 35.5385C125.972 36.3461 127.241 37.0385 127.818 37.0385C128.279 37.0385 129.549 35.7692 130.703 34.1538C132.549 31.3846 132.549 31.1538 130.356 28.8461C129.087 27.5769 127.472 26.5385 126.895 26.6538C126.203 26.6538 124.933 27.2308 124.01 28.0385ZM79.5871 29.1923C78.4333 30.5769 77.6256 32.3077 77.741 33C77.741 33.5769 78.6641 35.3077 79.8179 36.6923C80.9717 38.0769 83.0487 39.2308 84.5487 39.3461C86.0487 39.3461 88.0102 38.0769 89.3948 36.1154C90.7794 34.3846 91.8179 32.6538 91.7025 32.0769C91.7025 31.6154 90.6641 30.2308 89.3948 28.9615C88.1256 27.6923 85.8179 26.6538 84.2025 26.6538C82.7025 26.6538 80.6256 27.8077 79.5871 29.1923ZM112.472 25.7308C111.549 26.5385 110.972 27.9231 111.087 28.9615C111.203 29.8846 111.895 31.3846 112.703 32.1923C113.51 33 115.01 33.5769 115.933 33.5769C116.856 33.6923 118.472 32.4231 119.395 30.8077C121.01 28.2692 120.895 27.8077 119.164 26.1923C118.01 25.1538 116.395 24.3461 115.587 24.3461C114.779 24.3461 113.395 24.9231 112.472 25.7308ZM131.51 22.8461C130.933 23.1923 130.587 24.2308 130.703 25.1538C130.818 25.9615 131.972 26.6538 133.241 26.6538C134.779 26.6538 135.549 25.8846 135.549 24.3461C135.549 23.0769 134.856 22.0385 134.049 22.0385C133.126 22.0385 132.087 22.3846 131.51 22.8461ZM102.203 20.5385C101.164 20.7692 100.587 22.2692 100.703 23.8846C100.818 25.3846 101.741 26.8846 102.664 27.2308C103.587 27.5769 105.203 27.5769 106.126 27.2308C107.049 26.8846 107.856 25.7308 107.856 24.5769C107.856 23.5385 107.279 21.9231 106.472 21.1154C105.664 20.3077 104.741 19.7308 104.395 19.8461C104.049 19.8461 103.01 20.1923 102.203 20.5385ZM120.779 20.5385C121.01 22.6923 121.895 23.8846 123.433 24.1154C124.703 24.3461 126.433 23.7692 127.241 22.9615C127.933 22.1538 128.395 20.5385 128.049 19.3846C127.703 18.1154 126.318 17.4231 123.895 17.4231C120.779 17.4231 120.433 17.7692 120.779 20.5385ZM111.549 19.3846C111.779 20.5385 112.703 21.4615 113.626 21.4615C114.549 21.4615 115.356 20.5385 115.356 19.3846C115.356 18.2308 114.549 17.4231 113.279 17.4231C111.818 17.4231 111.241 18.0769 111.549 19.3846ZM142.01 17.5385C140.51 18.2308 139.818 19.7308 139.933 21.8077C140.049 23.5385 140.741 25.6154 141.549 26.4231C142.356 27.2308 144.318 27.8077 145.933 27.8077C147.549 27.9231 149.741 27 150.779 25.8461C151.933 24.6923 152.856 22.8461 152.856 21.6923C152.856 20.6538 151.703 18.9231 150.318 18C148.818 17.0769 146.856 16.2692 145.933 16.2692C145.01 16.2692 143.164 16.8461 142.01 17.5385ZM87.8948 15.3461C86.5102 16.3846 85.9333 18 86.1641 20.0769C86.3948 22.1538 87.6641 24.1154 89.6256 25.2692C92.6256 27.1154 92.8564 27.1154 95.741 24.3461C97.3564 22.7308 98.6256 20.8846 98.6256 20.3077C98.6256 19.6154 97.5871 18 96.3179 16.5C95.0487 15.1154 93.0871 13.9615 91.9333 13.9615C90.7794 13.9615 88.9333 14.6538 87.8948 15.3461ZM131.279 7.61538C129.318 8.88461 128.741 10.2692 128.972 13.0385C129.087 15.9231 129.895 17.0769 132.433 18C134.626 18.8077 136.241 18.8077 137.626 17.8846C138.664 17.1923 139.703 15 139.933 12.9231C140.049 10.2692 139.472 8.88461 137.626 7.61538C136.126 6.6923 134.741 5.88461 134.395 5.88461C134.049 5.88461 132.664 6.6923 131.279 7.61538ZM100.356 6.34615C98.8564 7.38461 98.1641 8.99999 98.2794 11.1923C98.3948 13.0385 99.2025 15.2308 100.01 16.0385C100.818 16.8461 103.01 17.3077 104.972 17.1923C107.279 16.9615 108.895 15.8077 110.164 13.6154C111.779 10.5 111.779 10.2692 108.779 7.49999C106.933 5.99999 104.856 4.73076 104.164 4.73076C103.356 4.73076 101.626 5.53845 100.356 6.34615ZM115.356 4.03845C113.856 5.07691 113.164 6.57691 113.395 8.88461C113.626 10.7308 114.549 12.8077 115.703 13.6154C116.741 14.4231 118.472 15 119.395 15C120.318 15 121.933 14.4231 122.972 13.6154C124.01 12.8077 125.164 11.1923 125.626 9.92307C126.087 8.42307 125.626 6.6923 124.356 5.07691C123.203 3.6923 121.241 2.53845 119.972 2.53845C118.703 2.53845 116.626 3.23076 115.356 4.03845Z" fill="#FEFEFE"/>
</svg>
