<svg width="274" height="240" viewBox="0 0 274 240" fill="none" xmlns="http://www.w3.org/2000/svg">
<path d="M188.529 0.752701C187.166 1.32065 184.667 3.59245 182.963 5.63707L180.009 9.38555C171.717 1.32065 170.581 0.866291 165.356 0.866291C161.04 0.7527 158.427 1.43424 156.269 3.13809C154.452 4.38758 152.293 7.00016 151.385 8.8176C150.476 10.7486 149.681 13.9292 149.681 15.9738C149.681 17.9048 150.476 21.1989 151.385 23.0164C152.407 24.8338 153.089 26.5376 153.089 26.7648C153.089 26.8784 151.271 26.992 149.113 26.992C146.387 26.992 144.001 28.0143 141.616 30.1725C139.571 31.8764 137.527 34.489 136.959 36.0792C135.936 38.919 135.936 38.919 133.892 34.3754C132.642 31.7628 130.257 29.0366 128.212 27.9007C126.281 26.7648 123.214 25.8561 121.283 25.8561C118.557 25.8561 117.989 25.5153 118.557 23.9251C118.898 22.7892 119.466 20.631 119.807 19.0407C120.147 17.4504 119.92 14.3835 119.239 12.2253C118.557 10.0671 116.399 6.88657 114.581 5.18271C112.65 3.36527 109.356 1.66142 107.425 1.32065C104.813 0.866291 101.973 1.43424 98.3381 3.0245C94.5896 4.61476 92.3178 6.5458 91.0683 9.15837L89.2509 12.7932C85.9568 7.11375 83.2306 4.61476 81.2996 3.59245C78.687 2.22937 75.9608 1.8886 72.4395 2.34296C68.6911 2.79732 66.3057 4.04681 63.5795 6.77297C61.0805 9.27196 59.6039 11.9981 59.1495 15.0651C58.6951 18.132 59.0359 20.8581 60.399 23.5843C61.4213 25.7425 62.2164 27.6736 62.2164 27.7871C62.2164 28.0143 61.1941 28.1279 59.831 28.1279C58.5815 28.1279 55.6282 29.0366 53.47 30.0589C51.3118 31.1948 48.472 33.6938 47.3361 35.5113C46.2002 37.3287 45.1779 40.85 45.1779 43.1218C45.1779 45.5072 45.973 49.0285 46.8818 50.8459C47.7905 52.6634 50.2895 55.2759 52.3341 56.5254C54.2651 57.7749 57.9 58.7972 60.2854 58.7972C62.5572 58.7972 64.4882 59.138 64.4882 59.5924C64.4882 60.1603 63.6931 61.5234 62.7844 62.7729C61.7621 64.0224 61.0805 66.8621 61.0805 69.0203C61.0805 71.1786 61.8757 74.4727 62.7844 76.4037C63.8067 78.3347 64.4882 79.925 64.4882 80.0386C64.4882 80.2658 62.7844 80.1522 60.8533 79.8114C58.3544 79.357 55.7418 79.8114 53.1292 81.1745C50.971 82.3104 48.0177 84.923 46.6546 86.854L44.042 90.6025C41.6566 85.7181 39.044 83.4463 36.7722 82.3104C34.5004 81.2881 31.2063 80.3794 29.2753 80.3794C27.4579 80.3794 24.3909 81.1745 22.4599 82.0832C20.6425 82.9919 18.0299 85.2637 16.7804 87.1948C15.3037 89.353 14.5086 92.5335 14.5086 95.714C14.5086 98.5538 15.3037 102.075 16.2124 103.665C17.9163 106.391 17.8027 106.505 14.8494 106.505C13.0319 106.505 9.8514 107.641 7.69319 109.004C5.53498 110.481 2.80881 113.661 1.55932 116.16C0.0826511 119.454 -0.371709 121.84 0.309831 124.679C0.764192 126.951 2.9224 130.473 5.30779 132.858C8.82909 136.493 10.0786 137.061 14.8494 137.174H20.1881C17.1212 142.059 16.326 145.58 16.2124 148.193C16.2124 151.26 17.0076 154.099 18.5978 156.144C19.8473 157.848 22.6871 160.233 24.8453 161.255C27.0035 162.391 30.2976 163.3 32.1151 163.3C34.0461 163.3 37.2266 162.278 39.2712 161.028C41.2023 159.779 43.9284 157.053 45.0643 155.008C47.2225 151.373 47.2225 151.373 48.472 153.872C49.1536 155.349 51.4254 157.507 53.47 158.757C55.401 160.006 59.0359 161.028 61.4213 161.028C63.6931 161.028 65.5105 161.369 65.2834 161.937C65.0562 162.391 64.0339 164.777 62.898 167.276C61.5349 170.343 61.1941 172.955 61.7621 175.227C62.2164 177.158 63.2387 179.771 64.0339 181.247C65.5105 183.633 65.5105 183.746 61.9892 183.746C59.9446 183.746 56.7641 184.655 54.8331 185.791C53.0156 186.927 50.5166 189.88 49.2672 192.379C47.7905 195.446 47.3361 198.059 47.9041 200.785C48.2448 202.943 49.3807 205.896 50.2895 207.373C51.1982 208.736 53.6972 210.894 55.7418 212.144C57.6728 213.393 61.0805 214.416 63.1251 214.416H66.76C63.6931 221.685 63.3523 224.298 63.9203 227.479C64.3746 230.318 66.0785 233.272 68.3503 235.43C70.2813 237.361 73.8026 239.292 76.188 239.746C79.2549 240.314 81.7539 239.973 85.5024 238.27C88.9101 236.793 91.1819 234.748 92.4314 232.249L94.2488 228.614C99.3604 234.294 102.087 236.452 103.677 237.134C105.267 237.815 107.766 238.27 109.356 238.27C110.947 238.27 114.014 237.361 116.285 236.225C118.557 235.203 121.397 232.817 122.533 230.886C123.669 228.955 124.577 225.434 124.577 222.935C124.577 220.436 123.896 217.142 122.987 215.552C122.078 213.961 121.397 212.371 121.283 211.803C121.283 211.349 122.646 211.008 124.464 211.008C126.168 211.008 129.235 209.986 131.279 208.736C133.21 207.487 135.709 204.988 136.618 203.057C137.527 201.126 138.322 198.286 138.435 196.468C138.549 194.197 138.776 194.537 139.571 198.172C140.139 200.898 141.502 204.42 142.638 206.01C143.661 207.714 145.932 209.758 147.75 210.554C149.454 211.462 152.634 212.144 154.792 212.144C158.086 212.144 158.654 212.485 158.086 214.075C157.746 215.211 156.837 217.596 156.269 219.527C155.36 221.913 155.474 224.184 156.269 226.911C156.951 229.069 159.109 232.363 161.04 234.294C163.766 236.906 165.924 237.815 169.9 238.042C174.103 238.383 176.147 237.929 179.214 235.771C181.372 234.294 183.871 231.681 184.667 229.977L186.03 226.911C193.186 234.521 195.571 235.998 197.957 236.111C199.888 236.225 202.614 236.225 204.204 236.111C205.794 235.998 208.18 235.089 209.656 234.18C211.019 233.272 213.178 230.886 214.427 228.842C215.677 226.911 216.699 223.389 216.699 221.231C216.699 219.073 215.904 215.779 214.995 213.848C213.973 211.917 213.291 210.326 213.291 210.213C213.291 209.986 214.314 209.872 215.563 209.872C216.813 209.872 219.198 209.191 221.015 208.282C222.719 207.373 225.218 205.442 226.695 203.965C228.058 202.602 229.535 199.308 229.875 196.809C230.33 193.856 229.989 190.789 228.74 187.949C227.717 185.677 225.218 182.724 223.287 181.475C221.243 180.225 217.835 179.203 215.904 179.203C212.837 179.203 212.269 178.862 212.95 177.158C213.291 176.136 213.859 173.41 214.2 171.251C214.541 168.866 213.973 165.686 212.837 163.3C211.815 161.142 211.019 159.324 211.019 159.324C211.019 159.324 212.95 159.324 215.336 159.324C217.721 159.324 221.015 158.416 222.719 157.393C224.423 156.258 226.695 153.872 227.831 151.941C228.853 150.124 229.989 148.533 230.33 148.533C230.671 148.533 231.579 149.669 232.374 151.032C233.17 152.509 235.328 154.554 237.145 155.576C239.076 156.712 242.825 157.621 245.778 157.621C250.322 157.621 251.571 157.053 255.32 153.304C257.819 150.919 259.977 147.398 260.431 145.126C261.113 142.286 260.772 139.901 259.182 136.379C257.364 132.29 257.251 131.608 258.727 131.495C259.636 131.495 262.589 130.473 265.316 129.223C268.269 127.746 270.768 125.588 271.904 123.203C272.926 121.272 273.835 117.75 273.835 115.592C273.835 113.434 272.812 109.686 271.449 107.3C269.746 104.347 267.474 102.529 264.18 101.28C261.453 100.258 258.614 99.6897 257.932 100.144C257.137 100.485 256.455 100.485 256.455 99.9168C256.455 99.4625 257.023 97.645 257.591 95.714C258.5 93.3286 258.5 90.9432 257.705 87.4219C256.91 84.4686 255.206 81.5153 253.048 79.8114C251.23 78.2211 247.936 76.6309 246.005 76.2901C243.961 75.9493 240.326 76.1765 238.054 76.8581C235.328 77.6532 232.488 79.6978 230.443 82.3104C227.149 86.6268 227.149 86.6268 225.9 84.0142C225.218 82.6512 222.946 80.4929 221.015 79.2435C218.971 77.994 215.336 76.9717 213.064 76.9717H208.748C211.815 72.0873 212.61 68.6796 212.61 66.1806C212.61 63.6816 211.815 60.2739 210.679 58.4565C209.656 56.7526 208.748 55.1624 208.748 54.8216C208.748 54.4808 210.565 54.2536 212.837 54.2536C216.017 54.2536 217.948 53.3449 221.356 49.9372C225.218 46.1887 225.673 45.1664 225.786 40.0549C225.786 36.5336 224.991 33.1259 223.742 30.9677C222.606 29.1502 219.766 26.6512 217.494 25.5153C215.222 24.493 212.269 23.5843 211.019 23.5843C209.77 23.5843 208.748 23.4707 208.748 23.2435C208.748 23.1299 209.202 21.1989 209.884 19.0407C210.565 16.5417 210.565 13.5884 209.884 11.0894C209.316 8.93119 207.271 5.52348 205.34 3.70604C202.5 1.09347 200.569 0.18475 196.48 0.0711599C193.527 -0.15602 190.005 0.18475 188.529 0.752701Z" fill="#1B1B1B"/>
<path d="M189.778 3.02449C188.415 3.59244 186.597 4.95552 185.575 6.09142C184.666 7.34092 183.417 9.72631 182.849 11.6573C182.167 13.8155 182.281 16.4281 183.076 19.0407C183.871 21.4261 185.916 23.9251 188.301 25.5153C190.459 26.992 193.413 28.1279 194.776 28.1279C196.253 28.1279 198.865 27.3328 200.796 26.424C202.614 25.5153 204.999 23.5843 205.908 22.1076C206.816 20.7445 207.612 17.564 207.612 15.065C207.612 12.5661 206.816 9.38554 205.908 7.90886C204.999 6.54578 202.614 4.61475 200.796 3.70603C198.865 2.79731 196.253 2.00218 194.776 2.11577C193.413 2.11577 191.141 2.57013 189.778 3.02449ZM99.9282 4.72834C97.8836 5.63706 95.1574 7.79528 93.9079 9.49913C92.6584 11.4302 91.6361 14.6107 91.7497 16.9961C91.7497 20.4038 92.6584 22.2212 95.7253 25.2881C98.9059 28.4687 100.61 29.2638 104.245 29.2638C106.857 29.2638 110.151 28.3551 112.196 26.992C114.241 25.6289 116.058 23.0163 116.853 20.4038C117.875 16.9961 117.762 15.4058 116.285 11.8845C115.263 9.61272 113.332 7.00014 111.855 6.09142C110.492 5.29629 108.107 4.27398 106.516 3.93321C104.926 3.59244 101.973 3.93321 99.9282 4.72834ZM156.382 6.20501C153.77 8.59041 152.748 10.635 152.293 14.4971C151.725 18.9271 152.066 20.063 154.906 23.3571C156.723 25.4017 159.677 27.6735 161.608 28.2415C163.879 28.923 166.151 28.923 168.423 28.1279C170.24 27.4464 172.967 25.7425 174.443 24.3794C175.806 23.0163 177.283 20.063 177.624 17.9048C177.965 15.633 177.624 12.5661 176.715 10.635C175.92 8.81759 173.989 6.3186 172.399 5.1827C170.581 3.81962 167.741 3.02449 164.788 3.13808C161.153 3.13808 159.109 3.93321 156.382 6.20501ZM69.1453 5.75065C67.555 6.54578 65.1696 8.93118 63.5793 11.0894C61.5347 14.1563 61.0804 15.9738 61.5347 19.0407C61.8755 21.6533 63.5793 24.2658 66.1919 26.6512C68.9181 29.2638 71.3035 30.3997 73.8025 30.3997C75.8471 30.3997 79.2548 29.3774 81.1858 28.1279C83.2304 26.8784 85.3886 24.6066 86.0702 23.0163C86.6381 21.4261 87.2061 18.9271 87.2061 17.3368C87.2061 15.7466 86.411 12.9068 85.5022 11.0894C84.5935 9.15836 82.0945 6.88655 79.8227 5.97783C77.6645 5.06911 74.9384 4.27398 73.8025 4.27398C72.7801 4.27398 70.6219 4.95552 69.1453 5.75065ZM205.794 27.5599C203.863 28.3551 201.478 30.2861 200.455 31.7628C199.547 33.2395 198.297 35.6248 197.956 37.2151C197.388 39.0325 197.956 41.6451 199.206 44.4849C200.455 46.8703 202.727 49.5964 204.431 50.3916C206.249 51.3003 209.429 51.9818 211.701 51.9818C214.881 51.9818 216.699 51.0731 219.652 48.0062C222.605 45.0528 223.514 43.0082 223.514 40.0549C223.514 37.8966 222.833 34.7161 221.924 33.0123C221.129 31.1948 218.516 28.923 216.244 27.9007C213.973 26.7648 211.474 25.8561 210.679 25.8561C209.997 25.9697 207.725 26.6512 205.794 27.5599ZM111.628 31.99C108.675 35.0569 107.879 36.8743 107.766 40.5092C107.652 43.4626 108.447 46.4159 109.924 48.5741C111.287 50.6187 113.786 52.4362 116.172 53.1177C118.822 53.875 121.472 53.875 124.123 53.1177C126.281 52.5498 129.121 50.6187 130.37 48.9149C131.961 46.7567 132.756 44.0305 132.642 40.3956C132.642 35.6248 132.188 34.4889 128.666 31.5356C125.6 28.923 123.555 28.1279 120.034 28.1279C116.285 28.1279 114.695 28.8094 111.628 31.99ZM176.942 28.923C176.034 29.2638 174.103 30.6269 172.626 31.99C171.263 33.2395 169.559 35.9656 168.877 37.7831C168.082 40.1684 168.196 42.2131 168.991 44.5985C169.672 46.5295 171.376 49.1421 172.739 50.6187C174.103 51.9818 177.056 53.4585 179.214 53.7993C181.486 54.14 184.553 53.7993 186.484 52.8905C188.301 52.0954 190.8 50.1644 191.936 48.5741C193.186 46.8703 194.094 43.9169 193.981 41.1908C193.981 38.6918 193.186 35.5113 192.277 34.1482C191.368 32.6715 188.983 30.7405 187.165 29.8317C185.234 28.923 182.622 28.1279 181.145 28.2415C179.782 28.2415 177.851 28.5823 176.942 28.923ZM142.297 33.1259C139.571 35.9656 138.549 38.1238 138.435 41.0772C138.322 43.349 139.003 46.5295 139.912 48.3469C140.707 50.0508 143.433 52.3226 145.819 53.5721C149.567 55.2759 150.93 55.5031 154.451 54.3672C156.837 53.6857 159.79 51.7546 161.04 50.0508C162.289 48.2333 163.652 45.5072 163.879 43.8033C164.22 41.9859 163.539 38.8054 162.403 36.5336C161.38 34.2618 159.109 31.6492 157.291 30.8541C155.587 29.9453 152.407 29.2638 150.135 29.2638C146.954 29.2638 145.137 30.1725 142.297 33.1259ZM55.8552 31.422C54.4921 31.8764 52.3339 33.5802 50.9708 35.0569C49.7214 36.5336 48.2447 39.6005 47.9039 41.7587C47.4496 44.3713 47.7903 46.9838 49.0398 49.4828C50.0621 51.4139 52.3339 53.9128 54.265 54.8216C56.0824 55.7303 58.9222 56.5254 60.5124 56.5254C62.1027 56.5254 64.8288 55.7303 66.7599 54.8216C68.5773 53.9128 70.9627 51.641 71.8714 49.71C72.7801 47.8926 73.5753 44.8256 73.5753 42.8946C73.5753 40.6228 72.3258 38.1617 69.8268 35.5113C67.3278 32.7851 64.9424 31.3084 62.2163 30.9676C60.0581 30.6269 57.1047 30.8541 55.8552 31.422ZM82.0945 34.2618C79.1412 37.3287 78.3461 39.1461 78.2325 42.781C78.1189 46.6431 78.8004 48.1198 82.0945 51.4139C85.2751 54.5944 86.9789 55.3895 90.6138 55.3895C93.2264 55.3895 96.5205 54.4808 98.5651 53.1177C100.61 51.7546 102.427 49.2557 103.109 46.8703C103.866 44.2198 103.866 41.5694 103.109 38.919C102.427 36.5336 100.61 34.0346 98.5651 32.6715C96.5205 31.3084 93.2264 30.3997 90.5002 30.3997C86.7517 30.3997 85.1615 31.0812 82.0945 34.2618ZM192.05 54.14C190.687 54.708 188.528 56.639 187.165 58.4564C185.689 60.5011 184.78 63.3408 184.894 66.5213C184.894 70.1562 185.689 72.0873 187.96 74.5862C189.778 76.4037 192.391 78.2211 193.981 78.6755C195.571 79.1298 198.297 79.1298 200.228 78.6755C202.046 78.2211 204.999 76.4037 206.703 74.5862C209.202 71.9737 209.883 70.1562 209.883 66.1806C209.883 62.2049 209.202 60.2739 206.703 57.5477C204.545 55.0487 202.386 54.0264 199.092 53.6857C196.593 53.3449 193.413 53.5721 192.05 54.14ZM99.701 56.8662C98.6787 57.6613 96.9748 59.4788 95.9525 61.069C94.9302 62.6593 94.0215 65.8398 94.0215 68.2252C94.0215 71.5193 94.8166 73.2232 97.9971 76.4037C101.178 79.5842 102.882 80.3793 106.176 80.3793C108.561 80.3793 112.196 79.357 114.127 78.1075C116.512 76.6309 118.33 74.3591 119.011 71.8601C119.769 69.2096 119.769 66.5592 119.011 63.9088C118.33 61.7506 116.512 58.9108 114.695 57.6613C112.65 56.0711 109.924 55.3895 106.516 55.3895C103.677 55.3895 100.61 56.0711 99.701 56.8662ZM158.2 59.2516C155.247 62.3185 154.451 64.136 154.338 67.7708C154.224 71.6329 154.906 73.1096 158.2 76.4037C161.494 79.6978 163.084 80.3793 166.946 80.3793C170.127 80.4929 172.967 79.6978 174.898 78.1075C176.715 76.858 178.533 74.0183 179.214 71.8601C179.971 69.2096 179.971 66.5592 179.214 63.9088C178.533 61.7506 176.715 58.9108 174.898 57.6613C172.853 56.0711 170.127 55.2759 166.833 55.3895C162.744 55.3895 161.267 56.0711 158.2 59.2516ZM69.2588 58.7972C66.8735 60.2739 65.1696 62.5457 64.3745 65.3854C63.6929 67.6572 63.4658 70.8378 63.9201 72.428C64.2609 74.0183 65.9647 76.6309 67.6686 78.4483C69.3724 80.1522 72.2122 81.856 74.1432 82.1968C76.0743 82.5375 79.3684 82.0832 81.7538 81.0609C84.3663 79.925 86.7517 77.8804 87.774 75.8357C88.6828 73.9047 89.4779 71.1785 89.4779 69.5883C89.4779 67.998 88.6828 65.2719 87.774 63.3408C86.8653 61.5234 84.4799 59.138 82.6625 58.2293C80.7315 57.3205 77.8917 56.5254 76.0743 56.5254C74.3704 56.5254 71.3035 57.5477 69.2588 58.7972ZM237.372 79.6978C235.328 80.4929 233.169 81.856 232.601 82.7647C232.033 83.6734 231.011 86.1724 230.443 88.3306C229.648 91.1704 229.648 93.215 230.784 95.714C231.579 97.645 233.737 100.258 235.555 101.734C237.713 103.438 240.326 104.347 243.165 104.233C246.687 104.233 248.39 103.438 251.457 100.258C254.638 96.9635 255.319 95.3732 255.319 91.5112C255.319 88.6714 254.524 85.4909 253.388 83.9006C252.253 82.3104 249.64 80.3793 247.595 79.5842C245.664 78.7891 243.279 78.1075 242.484 78.1075C241.802 78.2211 239.417 78.9027 237.372 79.6978ZM206.135 80.9473C204.431 81.856 202.273 84.1278 201.364 86.0588C200.455 87.9899 199.66 90.716 199.66 92.3063C199.66 93.8966 200.342 96.5091 201.251 98.3266C202.046 100.03 204.658 102.302 206.93 103.438C209.202 104.46 211.814 105.369 212.723 105.369C213.632 105.369 216.131 104.574 218.062 103.665C220.106 102.757 222.719 100.485 223.741 98.5537C224.877 96.7363 225.786 93.8966 225.786 92.3063C225.786 90.716 224.991 87.9899 224.082 86.0588C223.173 84.1278 220.788 81.856 218.971 80.9473C217.04 80.0386 214.2 79.2434 212.382 79.2434C210.679 79.357 207.952 80.0386 206.135 80.9473ZM54.265 83.4463C52.1067 84.5822 49.267 87.3083 48.1311 89.4665C46.2001 92.9878 46.0865 94.0101 47.2224 98.3266C48.2447 101.734 49.6078 103.779 52.2203 105.369C54.265 106.619 57.8998 107.641 60.2852 107.641C63.8065 107.641 65.5104 106.846 68.5773 103.665C71.5307 100.712 72.4394 98.6673 72.4394 95.714C72.4394 93.5558 71.7578 90.3753 70.9627 88.785C70.2812 87.1947 68.5773 85.2637 67.3278 84.4686C66.0783 83.6734 63.4658 82.6511 61.6483 82.1968C59.3765 81.7424 56.8775 82.1968 54.265 83.4463ZM114.695 83.787C112.764 85.0365 110.265 87.7627 109.243 89.8073C108.107 91.9655 107.652 94.8053 108.107 96.8499C108.447 98.7809 110.151 101.734 111.855 103.438C113.559 105.256 116.285 106.959 117.875 107.3C119.466 107.641 122.192 107.641 124.123 107.187C125.94 106.846 128.666 105.369 130.143 104.006C131.506 102.529 132.983 99.3489 133.324 96.8499C133.892 93.783 133.437 91.1704 132.188 88.6714C131.165 86.3996 128.78 84.2414 126.395 83.2191C124.236 82.3104 121.51 81.5152 120.374 81.5152C119.352 81.5152 116.74 82.5375 114.695 83.787ZM142.297 85.3773C139.344 88.4442 138.549 90.2617 138.435 93.8966C138.322 97.7586 139.003 99.2353 142.297 102.529C145.591 105.824 147.182 106.505 151.044 106.505C154.224 106.619 157.064 105.824 158.995 104.233C160.812 102.984 162.63 100.144 163.311 97.9858C164.069 95.3354 164.069 92.6849 163.311 90.0345C162.63 87.6491 160.812 85.1501 158.768 83.787C156.723 82.424 153.429 81.5152 150.703 81.5152C146.954 81.5152 145.364 82.1968 142.297 85.3773ZM22.6869 84.8093C20.7559 86.1724 18.4841 88.4442 17.9161 90.0345C17.2346 91.6247 16.7802 94.2373 16.7802 96.0548C16.7802 97.7586 17.6889 100.598 18.8248 102.529C19.9607 104.46 22.3461 106.619 24.2772 107.414C26.2082 108.322 29.2751 108.663 31.7741 108.322C34.6139 107.868 36.9993 106.505 38.9303 104.233C40.5206 102.302 42.1108 99.4625 42.4516 97.7586C42.7924 95.9412 42.5652 93.3286 41.8836 91.7383C41.2021 90.1481 39.4982 87.7627 38.1352 86.286C36.6585 84.9229 33.5916 83.4463 30.979 83.1055C27.5713 82.6511 25.5267 83.1055 22.6869 84.8093ZM249.981 106.278C248.05 107.982 246.232 110.935 245.778 112.753C245.21 114.911 245.551 117.637 246.687 120.477C247.709 122.748 249.64 125.361 251.003 126.27C252.48 127.178 254.638 127.974 255.887 128.087C257.137 128.201 259.409 128.314 260.772 128.201C262.248 128.201 265.202 126.27 267.36 124.112C270.427 120.931 271.222 119.227 271.222 115.592C271.222 111.957 270.427 110.254 267.246 107.073C263.952 103.779 262.476 103.097 258.273 103.097C254.411 103.097 252.593 103.779 249.981 106.278ZM223.969 105.937C222.038 106.732 219.652 108.663 218.63 110.14C217.721 111.617 216.472 114.002 216.131 115.592C215.563 117.41 216.131 120.022 217.38 122.862C218.63 125.247 220.902 127.974 222.605 128.769C224.423 129.677 227.603 130.359 229.875 130.359C233.056 130.359 234.873 129.45 237.827 126.383C240.78 123.43 241.689 121.385 241.689 118.432C241.689 116.274 241.007 113.093 240.098 111.389C239.303 109.572 236.691 107.3 234.419 106.278C232.147 105.142 229.648 104.233 228.853 104.233C228.171 104.347 225.9 105.028 223.969 105.937ZM192.504 107.073C190.8 107.982 188.642 110.367 187.733 112.185C186.825 114.116 186.029 116.955 186.029 118.773C186.029 120.477 186.938 123.43 188.074 125.247C189.21 127.178 191.595 129.337 193.526 130.132C195.457 131.041 198.524 131.381 200.796 131.041C203.182 130.7 206.135 128.996 208.18 126.951C210.906 124.112 211.587 122.408 211.587 118.432C211.587 114.343 210.906 112.639 208.18 109.913C205.908 107.527 203.295 106.278 200.228 105.937C197.388 105.483 194.549 105.937 192.504 107.073ZM68.1229 108.209C66.7599 109.118 64.8288 111.617 63.8065 113.661C62.557 116.047 62.2163 118.659 62.6706 121.272C63.0114 123.43 64.4881 126.383 65.9647 127.86C67.3278 129.223 69.9404 130.927 71.8714 131.608C74.2568 132.404 76.3014 132.29 78.6868 131.495C80.5043 130.813 83.2304 129.109 84.7071 127.746C86.0702 126.383 87.5469 123.43 87.8876 121.272C88.2284 119 87.8876 115.933 86.9789 114.002C86.1838 112.185 84.2527 109.686 82.6625 108.55C80.9586 107.3 78.0053 106.391 75.2791 106.505C72.7801 106.505 69.5996 107.3 68.1229 108.209ZM158.768 109.686C157.064 111.389 155.247 114.343 154.792 116.16C154.338 118.091 154.338 120.817 154.792 122.408C155.247 123.998 157.064 126.61 158.881 128.428C161.494 130.813 163.311 131.495 167.287 131.495C171.376 131.495 173.194 130.813 176.034 128.201C179.328 125.247 179.782 124.225 179.782 119C179.782 113.775 179.328 112.753 176.034 109.799C173.194 107.187 171.376 106.505 167.174 106.505C163.084 106.505 161.38 107.187 158.768 109.686ZM40.6341 109.686C38.4759 110.708 35.7498 113.434 34.5003 115.592C32.91 118.546 32.5692 120.59 33.2508 123.544C33.7052 125.702 35.5226 128.882 37.34 130.7C39.9526 133.085 41.6565 133.767 45.8593 133.767C50.2893 133.767 51.6524 133.199 54.9465 129.791C57.8998 126.724 58.8086 124.793 58.8086 121.613C58.9222 118.773 58.0134 116.16 56.3096 114.002C54.8329 112.185 51.9932 110.026 49.9485 109.118C48.0175 108.322 45.9729 107.641 45.4049 107.641C44.9506 107.641 42.7924 108.55 40.6341 109.686ZM102.086 109.118C99.9282 109.913 97.5428 111.617 96.6341 112.866C95.8389 114.002 94.8166 116.842 94.4759 119C94.0215 121.65 94.4001 124.225 95.6118 126.724C96.6341 128.655 98.9059 131.154 100.837 132.063C102.654 132.972 105.494 133.767 107.084 133.767C108.675 133.767 111.174 133.312 112.764 132.631C114.354 132.063 116.626 129.791 117.875 127.86C119.125 125.815 120.147 122.408 120.147 120.477C120.147 117.864 119.011 115.592 116.399 112.753C114.354 110.481 111.287 108.55 109.356 108.209C107.425 107.868 104.245 108.322 102.086 109.118ZM129.234 110.821C127.303 112.525 125.259 115.592 124.577 117.637C123.782 120.363 124.009 122.294 125.486 125.588C126.849 128.428 129.007 130.473 132.074 131.949C135.936 133.767 137.299 133.88 140.821 132.744C143.206 132.063 146.159 130.132 147.409 128.428C148.999 126.383 149.794 123.544 149.681 120.477C149.681 116.501 148.999 114.911 145.705 111.617C142.524 108.436 140.821 107.641 137.299 107.641C134.005 107.641 131.847 108.55 129.234 110.821ZM9.0561 111.049C7.12507 112.298 4.85327 114.343 4.28532 115.592C3.60377 116.842 3.14941 119.909 3.14941 122.408C3.14941 125.815 3.94454 127.86 6.44353 130.7C9.39687 133.88 10.5328 134.335 15.5307 134.335C20.1879 134.335 21.8918 133.767 24.1636 131.495C25.7538 129.905 27.4577 127.178 28.0256 125.247C28.5936 123.089 28.48 120.363 27.6849 117.864C26.8897 115.479 24.8451 112.98 22.4597 111.389C20.3015 109.913 17.2346 108.777 15.6443 108.777C14.0541 108.777 11.1007 109.799 9.0561 111.049ZM238.167 131.836C235.782 133.426 233.737 136.038 232.829 138.651C231.693 142.059 231.806 143.535 233.056 146.602C233.851 148.533 235.668 151.26 237.145 152.509C238.962 154.099 241.234 154.781 245.323 154.781C250.208 154.781 251.344 154.326 254.297 151.146C256.796 148.193 257.591 146.262 257.591 142.627C257.591 139.787 256.796 136.606 255.66 135.016C254.524 133.426 251.912 131.495 249.867 130.7C247.936 129.905 245.323 129.223 244.188 129.223C243.052 129.223 240.326 130.359 238.167 131.836ZM148.545 133.312C146.387 134.107 143.66 136.379 142.524 138.31C141.502 140.128 140.593 143.535 140.593 145.694C140.593 148.761 141.502 150.578 144.569 153.645C147.75 156.825 149.453 157.621 152.748 157.621C155.133 157.621 158.768 156.598 160.699 155.349C163.198 153.872 164.902 151.6 165.697 148.874C166.719 145.353 166.606 143.763 165.129 140.355C164.107 137.97 162.176 135.357 160.699 134.448C159.336 133.653 156.95 132.631 155.36 132.29C153.77 131.949 150.703 132.404 148.545 133.312ZM206.476 134.675C203.977 136.72 202.727 139.105 202.273 142.286C201.932 145.239 202.273 148.079 203.295 150.237C204.317 152.168 206.93 154.554 209.429 155.803C213.178 157.507 214.541 157.734 218.062 156.598C220.447 155.917 223.401 153.986 224.764 152.282C226.013 150.464 227.376 148.079 227.717 146.83C228.058 145.58 227.717 142.627 227.036 140.355C226.24 137.515 224.537 135.243 222.038 133.767C220.106 132.517 216.472 131.495 214.2 131.495C211.133 131.495 208.975 132.404 206.476 134.675ZM57.1047 133.994C55.8552 134.675 53.697 136.266 52.2203 137.629C50.8573 138.878 49.3806 141.491 49.0398 143.422C48.5855 145.58 49.0398 148.42 50.4029 151.26C51.6524 153.759 54.0378 156.371 55.9688 157.393C58.127 158.416 60.9668 158.756 63.9201 158.416C66.987 157.961 69.486 156.712 71.5306 154.326C73.6889 151.941 74.7112 149.556 74.7112 146.83C74.7112 144.671 74.0296 141.491 73.1209 139.787C72.3258 137.97 69.7132 135.698 67.4414 134.675C65.1696 133.539 62.4434 132.631 61.3075 132.631C60.2852 132.631 58.3542 133.312 57.1047 133.994ZM116.399 135.811C114.695 136.834 112.537 139.56 111.514 141.718C110.378 144.103 109.924 147.057 110.265 149.101C110.719 151.032 112.423 153.986 114.127 155.69C115.944 157.393 119.125 159.097 121.283 159.438C123.555 159.779 126.735 159.438 128.553 158.529C130.484 157.734 132.869 155.576 134.005 153.645C135.141 151.714 136.05 148.874 136.05 147.17C136.05 145.353 135.255 142.513 134.346 140.582C133.437 138.651 131.052 136.379 129.234 135.471C127.303 134.562 124.464 133.767 122.646 133.767C120.942 133.767 118.216 134.675 116.399 135.811ZM23.0277 138.765C20.0743 141.832 19.2792 143.649 19.1656 147.284C19.052 150.237 19.8472 153.191 21.3238 155.349C22.6869 157.393 25.1859 159.211 27.5713 159.892C30.1839 160.574 32.7964 160.688 35.1818 159.892C37.2264 159.324 39.839 157.961 40.8613 156.825C41.9972 155.69 43.3603 152.963 43.9283 150.805C44.7234 147.965 44.7234 145.921 43.5875 143.422C42.7924 141.491 40.6341 138.878 38.8167 137.402C36.6585 135.698 34.0459 134.789 31.0926 134.903C27.6849 134.903 25.981 135.698 23.0277 138.765ZM163.766 159.211C161.721 160.12 159.336 162.051 158.313 163.414C157.291 164.89 156.496 168.298 156.496 171.024C156.496 175 157.178 176.477 160.472 179.771C163.766 183.065 165.242 183.746 169.105 183.746C172.967 183.746 174.443 183.065 177.624 179.771C180.804 176.477 181.486 174.886 181.486 171.024C181.486 168.184 180.691 165.004 179.555 163.414C178.419 161.823 175.806 159.892 173.762 159.097C171.831 158.302 169.445 157.621 168.65 157.621C167.969 157.734 165.697 158.416 163.766 159.211ZM190.346 160.915C187.052 163.868 186.597 164.89 186.597 170.115C186.597 175.341 187.052 176.363 190.232 179.316C193.072 181.815 195.117 182.61 198.752 182.61C201.818 182.724 204.658 181.929 206.476 180.566C208.066 179.43 209.997 176.931 210.792 175.113C211.814 173.182 212.042 170.115 211.701 167.617C211.246 164.777 209.883 162.391 207.612 160.46C205.113 158.416 202.841 157.621 199.092 157.621C195.117 157.621 193.186 158.302 190.346 160.915ZM100.269 160.801C98.3379 161.937 96.1797 164.322 95.3846 166.253C94.4758 168.071 94.1351 171.251 94.4759 173.523C94.8166 175.681 96.5205 178.862 98.2243 180.679C99.9282 182.383 103.222 184.087 105.381 184.541C107.993 184.996 110.492 184.541 112.764 183.292C114.581 182.27 117.08 179.884 118.103 178.067C119.238 176.136 120.147 173.41 120.147 171.819C120.147 170.229 119.352 167.503 118.443 165.572C117.535 163.641 115.149 161.369 113.332 160.46C111.401 159.552 108.561 158.756 106.744 158.756C105.04 158.756 102.086 159.665 100.269 160.801ZM68.4637 163.754C65.5104 166.821 64.7152 168.639 64.6017 172.274C64.4881 175.227 65.2832 178.18 66.7599 180.339C68.2365 182.497 70.5083 184.087 73.2345 184.769C76.1878 185.564 78.8004 185.45 81.413 184.541C83.5712 183.746 86.2974 181.929 87.4333 180.339C88.6828 178.748 89.7051 175.681 89.8187 173.41C89.9323 171.138 89.3643 168.071 88.5692 166.594C87.774 165.118 85.6158 162.959 83.7984 161.937C81.8674 160.801 78.5732 159.892 76.3014 159.892C73.1209 159.892 71.3035 160.801 68.4637 163.754ZM207.498 184.087C204.999 185.791 203.295 188.063 202.614 190.562C202.046 192.72 201.932 195.9 202.386 197.718C202.727 199.422 204.431 202.034 206.135 203.625C207.952 205.215 210.679 206.805 212.382 207.032C214.2 207.373 217.494 206.691 219.766 205.669C222.265 204.42 224.991 201.921 226.24 199.649C228.171 196.128 228.285 195.105 227.149 190.902C226.127 187.381 224.764 185.337 222.038 183.746C220.106 182.497 216.812 181.474 214.881 181.474C212.95 181.474 209.656 182.61 207.498 184.087ZM119.352 183.406C117.875 183.633 115.263 185.677 113.445 187.949C110.719 191.357 110.265 192.947 110.492 197.264C110.833 201.466 111.628 203.17 114.354 205.669C116.74 207.714 119.125 208.736 121.851 208.736C124.009 208.736 127.303 207.941 129.234 207.032C131.052 206.124 133.437 203.852 134.346 201.921C135.255 200.103 136.05 197.377 136.05 196.014C136.05 194.537 135.028 191.698 133.778 189.767C132.529 187.722 129.689 185.223 127.531 184.314C125.372 183.406 123.214 182.724 122.646 182.724C122.192 182.838 120.715 183.178 119.352 183.406ZM150.135 185.45C148.204 186.245 145.819 188.176 144.796 189.653C143.888 191.13 142.638 193.515 142.297 195.105C141.729 196.923 142.297 199.535 143.547 202.375C144.796 204.76 147.068 207.487 148.772 208.282C150.589 209.19 153.77 209.872 156.042 209.872C159.222 209.872 161.04 208.963 163.993 205.896C166.946 202.943 167.855 200.898 167.855 197.945C167.855 195.787 167.174 192.606 166.265 190.902C165.47 189.085 162.857 186.813 160.585 185.791C158.313 184.655 155.815 183.746 155.019 183.746C154.338 183.86 152.066 184.541 150.135 185.45ZM176.829 186.927C174.216 189.199 173.194 191.243 172.739 195.105C172.171 199.649 172.512 200.671 175.352 203.965C177.169 206.01 180.123 208.055 182.054 208.623C184.212 209.19 186.938 209.077 189.437 208.282C191.823 207.487 194.322 205.442 195.912 203.057C197.388 200.898 198.524 197.945 198.524 196.582C198.524 195.105 197.729 192.493 196.821 190.562C195.912 188.631 193.981 186.359 192.504 185.45C191.141 184.541 187.847 183.746 185.234 183.746C181.599 183.746 179.555 184.541 176.829 186.927ZM86.8653 186.586C85.1615 187.495 83.0033 189.88 82.0945 191.698C81.1858 193.629 80.3907 196.355 80.3907 197.945C80.3907 199.535 81.1858 202.375 82.0945 204.193C83.0033 206.124 85.2751 208.395 87.2061 209.304C89.0235 210.213 91.8633 211.008 93.4535 211.008C95.0438 211.008 97.77 210.213 99.701 209.304C101.518 208.395 103.904 206.124 104.813 204.193C105.721 202.261 106.516 199.535 106.516 197.945C106.516 196.355 105.608 193.515 104.472 191.698C103.449 189.767 100.837 187.495 98.7923 186.586C96.8612 185.677 94.0215 184.882 92.5448 184.882C91.1817 184.996 88.6828 185.677 86.8653 186.586ZM56.196 188.063C54.4921 189.085 52.3339 191.698 51.4252 193.742C50.5165 195.673 49.9485 198.74 50.2893 200.558C50.5165 202.261 51.8796 204.988 53.1291 206.805C54.3785 208.509 57.2183 210.326 59.3765 211.008C62.0269 211.765 64.6774 211.765 67.3278 211.008C69.7132 210.326 72.2122 208.509 73.5753 206.464C74.9384 204.533 75.8471 201.126 75.8471 198.513C75.8471 194.878 75.0519 193.174 71.8714 189.994C68.6909 186.813 66.987 186.018 63.5793 186.018C61.3075 186.018 58.0134 186.927 56.196 188.063ZM192.618 212.03C189.324 214.984 188.869 216.006 188.869 221.231C188.869 226.456 189.324 227.478 192.504 230.432C195.344 232.931 197.388 233.726 201.023 233.726C204.09 233.84 206.93 233.044 208.747 231.681C210.338 230.545 212.269 228.046 213.064 226.229C214.086 224.298 214.313 221.231 213.973 218.732C213.518 215.892 212.155 213.507 209.883 211.576C207.384 209.531 205.113 208.736 201.364 208.736C197.388 208.736 195.457 209.418 192.618 212.03ZM102.768 211.576C101.064 212.485 98.9059 214.756 97.9971 216.687C97.0884 218.618 96.2933 221.572 96.2933 223.503C96.2933 225.661 97.5428 228.387 99.701 230.886C101.746 233.272 104.585 235.089 106.744 235.543C109.129 235.998 111.969 235.543 114.468 234.407C116.626 233.499 119.352 231.113 120.374 229.182C121.51 227.365 122.419 224.525 122.419 222.935C122.419 221.345 121.624 218.618 120.715 216.687C119.806 214.756 117.421 212.485 115.604 211.576C113.673 210.667 110.833 209.872 109.015 209.872C107.312 209.986 104.585 210.667 102.768 211.576ZM166.038 210.894C164.675 211.349 162.516 213.053 161.267 214.529C160.017 216.006 158.768 218.618 158.313 220.436C157.973 222.14 158.2 224.866 158.881 226.683C159.563 228.387 161.153 230.886 162.516 232.363C163.879 233.726 166.833 235.203 168.991 235.543C171.263 235.884 174.33 235.543 176.261 234.635C178.078 233.84 180.577 231.908 181.713 230.318C182.963 228.614 183.871 225.661 183.758 222.935C183.758 220.436 182.963 217.255 182.054 215.892C181.145 214.416 178.76 212.485 176.942 211.576C175.011 210.667 172.399 209.872 170.922 209.986C169.559 209.986 167.287 210.44 166.038 210.894ZM71.0763 214.756C69.3724 216.119 67.4414 218.732 66.7599 220.663C66.0783 222.594 65.8511 225.093 66.1919 226.343C66.6463 227.592 67.555 229.864 68.2365 231.341C69.0317 232.817 70.9627 234.748 72.6666 235.543C74.484 236.452 77.6645 237.134 79.9363 237.134C83.1168 237.134 84.9343 236.225 87.8876 233.158C90.841 230.205 91.7497 228.16 91.7497 225.207C91.7497 223.048 91.1817 220.095 90.5002 218.732C89.8187 217.255 88.1148 215.211 86.7517 214.188C85.2751 212.939 82.4353 212.144 79.2548 212.144C75.6199 212.144 73.2345 212.939 71.0763 214.756Z" fill="#FEFEFE"/>
</svg>
