<svg width="218" height="240" viewBox="0 0 218 240" fill="none" xmlns="http://www.w3.org/2000/svg">
<path d="M107.133 0.212257C106.056 0.382319 104.356 1.06257 103.449 1.68613C102.542 2.36638 101.181 3.6135 100.501 4.5205C99.8774 5.4275 99.1404 6.95806 98.9137 7.86506C98.6869 8.77206 98.4035 9.9058 98.2901 10.3026C98.1201 10.7561 97.5532 10.5294 96.3628 9.56568C95.4558 8.77206 93.5851 7.86506 92.2246 7.52493C90.4106 7.07143 89.2202 7.07143 87.2928 7.63831C85.8756 8.09181 83.8915 9.16887 82.8145 10.1326C81.7374 11.0396 80.547 12.6835 80.0935 13.6472C79.6967 14.6675 79.3565 16.8784 79.3565 18.4656C79.4132 20.1095 79.7534 22.0936 80.2069 22.8872C80.6604 23.6808 81.0005 24.5878 81.0572 24.8713C81.0572 25.1547 80.2068 25.4382 79.2432 25.4948C78.2228 25.4948 76.5222 26.005 75.4451 26.6286C74.3681 27.1955 72.7808 28.6126 71.9305 29.6897C70.9668 30.8801 70.1732 32.6941 69.9464 34.2247C69.7197 35.6419 69.7197 37.7393 69.9464 38.8731C70.1732 40.2903 71.0235 41.8208 72.384 43.1813C73.5744 44.4284 75.0483 45.6756 75.6719 45.959C76.7489 46.5826 76.7489 46.6392 74.9916 48.6233C73.8579 49.8137 73.0075 51.5144 72.7808 52.7615C72.6107 53.9519 72.384 55.2557 72.2139 55.5959C72.0439 56.1627 71.4203 55.9927 69.8331 55.1424C68.5293 54.3487 66.6586 53.8952 64.8446 53.8385L61.8968 53.7819C61.9535 49.8137 61.4433 47.6596 60.8198 46.4125C60.1962 45.1654 58.9491 43.5214 58.0421 42.7278C57.1351 41.9342 55.151 40.9138 53.5638 40.517C51.1829 39.8934 50.3326 39.8934 48.1785 40.517C46.7613 40.9138 44.7205 42.1609 43.5868 43.2947C42.453 44.3717 41.376 45.6756 41.2059 46.1291C40.9225 46.8093 40.7524 46.7526 40.1855 45.8456C39.7887 45.2221 38.7117 43.9749 37.748 43.0113C36.7276 42.0476 34.6869 40.9705 33.1563 40.517C30.8321 39.8368 29.8684 39.8368 27.771 40.4036C26.3538 40.8004 24.5398 41.7074 23.6895 42.331C22.8392 43.0113 21.4787 44.9953 20.6284 46.6959C19.4379 49.1335 19.1545 50.2672 19.438 51.9679L19.8348 54.0653C13.1457 53.3284 12.4654 53.4417 10.1979 54.7455C8.78072 55.5392 7.02341 57.0697 6.22979 58.1468C5.32279 59.4506 4.75591 60.9812 4.64254 63.1353C4.47248 64.8359 4.52916 66.9333 4.75591 67.7836C4.92597 68.6906 5.7196 70.1078 6.51322 71.0715L7.93041 72.7721C4.69923 74.3027 2.99861 75.7199 2.03492 76.967C0.674425 78.6676 0.220925 79.8014 0.0508633 82.3523C-0.119199 84.8466 0.107551 86.0937 1.18461 88.3045C2.03492 90.1185 3.33873 91.649 4.75591 92.556C6.28647 93.5764 7.76035 94.0299 9.46097 94.0299C11.3883 94.0299 11.8985 94.2567 11.8985 94.9936C11.8985 95.5605 11.6718 96.1274 11.3317 96.2974C10.9915 96.4675 10.5947 97.6579 10.4247 98.9617C10.1979 100.436 10.368 102.306 10.8215 103.667C11.2183 104.914 12.352 106.785 13.259 107.862C14.2227 108.882 15.6966 110.129 16.6036 110.526C17.4539 110.979 19.608 111.32 21.422 111.32C23.4061 111.32 25.1067 111.036 25.7869 110.469C26.4105 110.016 27.3742 109.619 27.9411 109.619C28.5079 109.619 28.9048 110.016 28.9048 110.753C28.9048 111.376 29.1882 112.453 29.5283 113.134C29.8684 113.871 30.8321 115.174 31.6824 116.081C32.4761 116.932 33.7232 117.895 34.4601 118.179C35.1404 118.462 35.7072 118.859 35.7072 119.086C35.7072 119.369 34.8569 119.993 33.8932 120.56C32.8729 121.127 31.5124 122.374 30.8321 123.394C30.1519 124.414 29.4716 126.058 29.2449 127.022C29.0748 128.042 28.678 128.893 28.3379 128.893C27.9978 128.893 26.9774 128.326 26.0137 127.589C24.8799 126.795 23.236 126.285 21.3086 126.172C19.0978 126.002 17.8507 126.285 15.8666 127.305C14.4495 128.099 12.5788 129.8 11.6151 131.103C10.1412 133.201 9.91447 134.051 9.91447 137.112C9.91447 139.72 10.1979 140.967 10.8782 141.704C11.445 142.328 11.8985 143.121 11.8985 143.461C11.8985 143.858 10.9348 144.312 9.8011 144.482C8.61066 144.652 6.79666 145.275 5.83298 145.899C4.8126 146.522 3.16867 148.223 2.26167 149.697C1.01455 151.624 0.561046 153.098 0.561046 154.799C0.561046 156.159 1.01454 158.2 1.6381 159.334C2.20498 160.524 3.56548 162.282 4.58586 163.245C5.66292 164.152 6.91004 165.059 7.36354 165.229C8.04378 165.513 7.87372 165.966 6.51322 167.497C5.54954 168.574 4.41579 170.558 4.01898 171.975C3.39542 174.186 3.39542 174.923 4.13236 177.36C4.75592 179.231 5.77628 180.875 7.30684 182.292C8.66734 183.539 10.6514 184.73 12.0686 185.07C13.6558 185.467 15.1297 185.467 16.4335 185.127C17.5106 184.843 18.8144 184.503 19.2679 184.39C19.8915 184.22 20.0615 184.616 20.0048 185.864C19.9481 186.771 20.1182 188.528 20.4016 189.662C20.7418 190.852 21.6488 192.609 22.5558 193.63C23.4061 194.593 25.1067 195.897 26.3538 196.407C27.6009 196.974 29.6417 197.484 30.8888 197.484C32.1359 197.484 34.2901 196.918 35.6505 196.181C37.0677 195.5 38.655 194.367 39.2219 193.63C39.7887 192.949 40.3556 192.383 40.5257 192.383C40.6957 192.383 41.4894 193.176 42.3963 194.197C43.2467 195.16 44.9473 196.464 46.1944 196.974C47.4415 197.541 49.3689 198.051 50.446 198.051C51.523 198.051 53.4504 197.541 54.6975 196.974C55.9446 196.407 57.8153 195.047 58.8357 193.913C59.8561 192.723 60.8198 190.909 60.9898 189.662C61.2166 188.528 61.2166 186.657 61.1032 185.58L60.8198 183.596C66.8286 184.05 68.1324 183.823 69.3229 183.143C70.1732 182.632 70.9668 182.179 71.1369 182.179C71.3069 182.179 71.2502 183.653 71.0802 185.41C70.7967 188.074 70.9101 189.151 71.8171 190.965C72.4974 192.213 73.4044 193.63 73.9145 194.083C74.4247 194.537 74.8782 195.104 74.8215 195.33C74.8215 195.614 74.5948 195.784 74.2547 195.784C73.9146 195.784 72.7808 196.464 71.6471 197.314C70.57 198.221 69.1528 199.922 68.5292 201.169C67.9624 202.416 67.4522 204.514 67.4522 205.817C67.4522 207.178 67.9624 209.219 68.5292 210.352C69.0961 211.543 70.2299 213.073 70.9668 213.697C71.6471 214.377 73.1209 215.341 74.1413 215.851C75.105 216.361 76.9757 216.758 78.2228 216.758C79.4699 216.758 80.4903 216.928 80.4903 217.155C80.4336 217.438 80.0935 218.232 79.64 219.026C79.1865 219.819 78.8464 221.35 78.8464 222.427C78.8464 223.504 79.1865 225.205 79.5266 226.168C79.9234 227.132 80.8304 228.662 81.624 229.683C82.4177 230.647 84.2317 231.95 85.7622 232.574C87.2361 233.254 89.0501 233.764 89.8437 233.764C90.6373 233.764 92.4513 233.197 93.9819 232.517C95.4558 231.837 96.7596 231.157 96.9296 231.1C97.0997 230.987 97.3831 231.61 97.6099 232.461C97.8366 233.368 98.857 235.068 99.8774 236.259C100.898 237.506 102.598 238.81 103.619 239.263C104.582 239.66 106.793 240 108.437 240C110.705 240 111.952 239.66 113.936 238.413C115.636 237.392 116.94 235.975 117.734 234.331C118.471 232.914 119.038 231.213 119.038 230.477C119.038 229.796 119.264 229.229 119.605 229.229C119.945 229.229 120.285 229.456 120.455 229.796C120.625 230.136 121.702 230.76 122.892 231.213C124.026 231.724 125.784 232.064 126.691 232.064C127.598 232.064 129.808 231.383 131.509 230.533C134.23 229.173 134.854 228.492 136.271 225.545C137.801 222.427 137.915 221.917 137.348 219.593C137.064 218.175 136.611 216.588 136.384 216.021C136.101 215.284 136.327 215.058 137.461 215.058C138.255 215.058 139.842 214.547 141.032 213.98C142.166 213.357 143.81 212.166 144.66 211.259C145.511 210.409 146.474 208.992 146.758 208.085C147.098 207.235 147.381 205.421 147.381 204.003C147.381 202.586 146.871 200.432 146.248 199.185C145.624 197.938 144.037 196.124 142.733 195.217C141.373 194.253 139.785 193.516 139.162 193.516C138.085 193.573 138.085 193.516 139.048 192.269C139.559 191.532 140.522 190.172 141.146 189.265C141.826 188.244 142.28 186.6 142.28 185.127C142.28 183.596 142.506 182.746 143.016 182.746C143.357 182.746 144.037 183.029 144.434 183.426C144.887 183.879 146.474 184.106 148.402 184.106C150.159 184.05 152.143 183.936 152.767 183.823C153.787 183.596 153.9 183.879 153.73 186.147C153.617 187.621 153.9 189.548 154.411 190.682C154.921 191.759 155.771 193.176 156.281 193.856C156.848 194.48 158.322 195.614 159.569 196.237C160.93 197.031 162.857 197.484 164.388 197.484C165.805 197.484 168.016 196.974 169.376 196.351C170.68 195.727 171.984 194.707 172.324 194.083C172.664 193.46 173.231 192.949 173.628 192.949C173.968 193.006 174.818 193.8 175.442 194.82C176.065 195.84 177.709 197.201 179.126 197.938C180.544 198.618 182.698 199.185 183.945 199.185C185.192 199.185 187.233 198.675 188.48 198.108C189.727 197.598 191.428 196.294 192.335 195.33C193.185 194.31 194.149 192.439 194.489 191.079C194.829 189.775 194.942 188.018 194.772 187.111L194.432 185.58C199.591 186.147 201.801 186.034 202.935 185.693C204.012 185.353 205.883 184.163 207.073 183.029C208.434 181.725 209.454 180.025 210.021 178.211C210.758 175.716 210.758 175.036 210.078 172.655C209.624 171.181 208.831 169.594 208.32 169.141C207.81 168.687 207.413 167.95 207.47 167.553C207.47 167.213 208.434 166.42 209.568 165.853C210.701 165.343 212.402 163.982 213.309 162.905C214.499 161.431 215.01 160.127 215.236 157.803C215.406 155.819 215.236 153.892 214.783 152.475C214.329 151.284 213.025 149.414 211.892 148.393C210.701 147.316 208.717 146.239 207.47 145.899C206.223 145.559 204.919 145.445 204.636 145.615C204.352 145.786 203.955 145.672 203.785 145.332C203.615 144.992 203.899 144.085 204.466 143.178C204.976 142.271 205.373 140.457 205.373 138.813C205.373 137.226 204.976 135.128 204.409 134.108C203.899 133.144 202.652 131.557 201.688 130.593C200.668 129.686 198.684 128.609 197.266 128.269C195.452 127.759 194.092 127.759 192.448 128.156C191.201 128.496 189.727 128.893 189.16 129.119C188.366 129.403 188.026 128.949 187.403 126.739C186.893 125.095 185.872 123.451 184.682 122.43C183.661 121.523 182.131 120.56 181.28 120.333C180.373 120.049 179.693 119.596 179.693 119.256C179.693 118.916 180.203 118.576 180.827 118.406C181.451 118.235 182.981 116.932 184.228 115.401C185.759 113.7 186.552 112.17 186.496 111.15C186.496 110.299 186.666 109.619 186.893 109.619C187.176 109.562 187.743 109.959 188.196 110.469C188.65 110.979 190.18 111.773 191.598 112.283C193.355 112.907 194.942 113.077 196.699 112.793C198.117 112.567 200.101 111.83 201.178 111.15C202.255 110.469 203.729 108.769 204.522 107.351C205.769 105.141 205.94 104.234 205.713 100.946L205.486 97.0344C209.227 96.8076 210.928 96.1274 212.572 94.9936C213.989 94.0299 215.52 92.386 216.03 91.3656C216.54 90.3452 217.164 88.5879 217.39 87.5109C217.617 86.3204 217.504 84.6198 217.05 83.2593C216.653 82.0122 215.52 80.1415 214.613 79.0644C213.649 77.9874 212.005 76.7969 210.985 76.3434L209.171 75.6065C212.232 72.0919 213.422 69.9945 213.762 68.634C214.102 67.3301 214.216 65.3461 213.989 64.269C213.819 63.192 213.196 61.4347 212.572 60.471C211.948 59.4506 210.475 57.92 209.341 57.0697C207.64 55.7659 206.62 55.4825 203.842 55.4258L200.384 55.3691C200.724 49.1335 200.498 48.3399 199.08 46.1291C198.06 44.4851 196.586 43.1246 194.942 42.331C193.468 41.5941 191.428 41.0272 189.897 41.0272C188.366 41.0272 186.382 41.5374 184.909 42.331C183.548 43.0113 181.961 44.4284 181.337 45.4488C180.77 46.4125 180.033 47.2628 179.693 47.2628C179.353 47.2628 179.126 46.9227 179.126 46.5826C179.183 46.1857 178.163 44.8252 176.972 43.5781C175.668 42.2176 173.798 41.0272 172.267 40.517C170.907 40.1202 168.866 39.8934 167.789 40.1202C166.712 40.2903 164.728 41.1406 163.424 41.9909C162.063 42.8979 160.476 44.4851 159.909 45.5622C159.116 46.866 158.776 48.6233 158.719 50.8341C158.719 53.6685 158.606 54.0086 157.755 53.6685C157.188 53.4984 155.488 53.215 153.9 53.1016C152.37 52.9315 150.443 53.1016 149.649 53.4417C148.855 53.7819 147.722 54.5755 147.098 55.199C146.474 55.8226 145.624 56.3895 145.284 56.3328C144.83 56.3328 144.604 55.7659 144.774 54.8022C144.887 53.8952 144.49 52.1946 143.98 50.9475C143.413 49.7004 142.506 48.2832 141.996 47.8297C141.486 47.3762 141.089 46.8093 141.146 46.5826C141.146 46.2991 142.11 45.6756 143.243 45.1654C144.434 44.5985 146.134 43.0112 147.098 41.7074C148.572 39.5533 148.799 38.7597 148.742 35.7553C148.742 32.8642 148.402 31.8438 147.041 29.8031C145.964 28.2158 144.434 26.9687 142.45 26.005C140.295 24.9847 138.992 24.7012 137.915 24.9847C136.497 25.3248 136.384 25.2681 136.724 24.2477C136.951 23.6808 137.461 22.0936 137.858 20.7898C138.482 18.8057 138.482 18.0121 137.801 16.2548C137.404 15.0644 136.497 13.307 135.817 12.2867C135.194 11.2663 133.606 9.9058 132.359 9.16887C130.772 8.26187 129.185 7.92174 126.974 7.92174C124.82 7.92174 123.346 8.26187 122.269 8.99881C120.852 9.96249 120.568 10.0192 120.115 9.28224C119.831 8.82874 119.605 8.03512 119.605 7.58162C119.605 7.12812 119.094 5.881 118.471 4.91731C117.847 3.89694 116.373 2.42307 115.24 1.68613C114.049 0.949193 112.179 0.212256 111.101 0.0988816C110.024 -0.0711806 108.21 -0.0144928 107.133 0.212257Z" fill="black"/>
<path d="M105.206 3.95361C104.072 4.80392 102.769 5.88098 102.315 6.39117C101.862 6.90136 101.408 8.20516 101.181 9.28223C101.011 10.3593 101.125 12.1733 101.465 13.2503C101.805 14.3274 102.598 15.858 103.335 16.5382C104.016 17.2751 105.49 18.2388 106.567 18.6923C107.757 19.2025 109.231 19.3726 110.251 19.1458C111.158 18.9758 112.802 18.2955 113.766 17.7287C114.786 17.1618 116.033 15.858 116.487 14.951C116.94 14.044 117.337 12.1733 117.337 10.8128C117.337 9.28223 116.94 7.75167 116.09 6.44785C115.353 5.37079 113.879 4.0103 112.802 3.50011C111.725 2.93324 110.024 2.47974 109.061 2.47974C108.097 2.47974 106.397 3.15999 105.206 3.95361ZM86.2725 10.8128C85.2521 11.323 83.8349 12.5134 83.1547 13.4771C82.2477 14.7242 81.9075 16.0847 81.9075 18.1821C81.9075 20.2229 82.2477 21.5834 83.098 22.7171C83.7215 23.5675 85.4789 24.928 87.0661 25.6649C89.6737 26.912 90.0138 26.9687 92.0546 26.2318C93.3017 25.7783 94.9456 24.8146 95.7393 24.021C96.5329 23.2273 97.5533 21.4133 98.0068 20.0528C98.7437 17.672 98.687 17.3318 97.4399 14.951C96.703 13.5905 95.1724 11.8332 94.0953 11.1529C92.9049 10.3593 91.3177 9.8491 90.1272 9.8491C89.0502 9.8491 87.2929 10.3026 86.2725 10.8128ZM123.119 11.5497C122.156 12.1733 120.795 13.5338 120.115 14.4975C119.208 15.9713 119.038 17.0484 119.208 19.486C119.435 22.3203 119.661 22.7738 121.929 24.7579C124.026 26.5719 124.82 26.912 126.974 26.8553C128.505 26.8553 130.262 26.4018 131.339 25.7216C132.359 25.098 133.72 23.7375 134.343 22.7171C134.967 21.6968 135.477 19.9395 135.477 18.6356C135.477 17.3885 134.967 15.5745 134.4 14.6675C133.833 13.7038 132.473 12.4 131.452 11.7198C130.262 10.9262 128.618 10.4727 127.257 10.416C125.954 10.416 124.196 10.9262 123.119 11.5497ZM101.181 23.9076C100.614 24.4745 100.161 25.3248 100.218 25.7783C100.274 26.2318 100.728 27.0254 101.295 27.5356C101.862 28.1024 102.655 28.5559 102.995 28.5559C103.392 28.5559 104.129 27.9891 104.583 27.2521C105.036 26.5719 105.433 25.8349 105.433 25.5515C105.433 25.3248 104.923 24.6445 104.299 24.021C103.676 23.3974 102.939 22.8872 102.655 22.8872C102.428 22.8872 101.748 23.3407 101.181 23.9076ZM112.292 23.7942C111.555 24.2477 110.988 25.098 110.988 25.6082C111.045 26.1184 111.498 27.0254 112.065 27.5356C112.632 28.1024 113.312 28.5559 113.652 28.5559C113.936 28.5559 114.673 28.1591 115.24 27.5923C115.807 27.0254 116.203 26.1184 116.09 25.4948C115.977 24.9279 115.41 24.0776 114.73 23.6808C113.766 23.0006 113.369 23.0573 112.292 23.7942ZM134.343 28.4993C133.266 29.0661 131.906 30.1432 131.339 30.8801C130.772 31.6171 130.149 33.3744 129.978 34.7916C129.752 36.4922 129.922 37.9094 130.545 39.0431C130.999 40.0068 132.019 41.3106 132.756 42.0475C133.436 42.7278 134.967 43.5214 136.044 43.7482C137.121 44.0316 138.935 44.0316 140.012 43.8049C141.089 43.5214 142.847 42.501 143.867 41.4807C145.454 39.9501 145.794 39.0998 146.078 36.4922C146.304 33.8279 146.134 33.0909 145.001 31.3903C144.207 30.3133 142.676 28.9528 141.543 28.3859C140.409 27.8757 138.765 27.4222 137.858 27.4222C137.008 27.4222 135.42 27.8757 134.343 28.4993ZM76.4089 29.1228C75.5585 29.6897 74.3114 30.8801 73.6879 31.7871C72.8942 32.8642 72.5541 34.2814 72.5541 36.3221C72.5541 38.8164 72.8376 39.6667 74.1414 41.1405C75.0484 42.1609 76.5222 43.3514 77.4292 43.7482C78.5063 44.2584 79.9802 44.4284 81.6241 44.145C83.0413 43.9749 84.6852 43.3514 85.3655 42.8412C85.989 42.331 87.1228 40.9705 87.7463 39.8934C88.4266 38.8164 88.9935 37.2291 88.9935 36.3221C88.9935 35.4718 88.4833 33.7712 87.8597 32.5241C87.2362 31.2769 85.8757 29.7464 84.8553 29.1228C83.7215 28.4426 82.0776 28.0458 80.4904 28.0458C79.0165 28.0458 77.3159 28.4993 76.4089 29.1228ZM120.398 31.3336C119.831 31.9005 119.435 32.7508 119.491 33.261C119.548 33.7712 120.228 34.5648 121.022 34.9049C122.326 35.5852 122.609 35.4718 123.743 34.3381C124.65 33.3744 124.877 32.8642 124.423 32.1839C124.083 31.6738 123.289 31.0502 122.609 30.7668C121.702 30.4833 121.079 30.5967 120.398 31.3336ZM93.1883 31.9572C92.1113 33.0909 92.1113 33.0909 93.245 34.2814C93.8686 34.9049 94.889 35.3584 95.4558 35.2451C96.0227 35.1317 96.8163 34.6215 97.1565 34.0546C97.61 33.3744 97.61 32.8075 97.1565 32.0706C96.8163 31.5604 96.0227 31.0502 95.3991 30.9368C94.8323 30.8234 93.8119 31.2769 93.1883 31.9572ZM104.583 32.6374C103.109 33.4877 101.862 34.8482 101.011 36.4922C99.9908 38.5329 99.8208 39.4966 100.104 41.3106C100.388 42.8412 101.295 44.3717 102.825 45.959C104.979 48.2265 105.376 48.3965 108.267 48.3965C110.591 48.3965 111.838 48.1131 113.312 47.1494C114.389 46.4125 115.693 44.9386 116.317 43.8615C116.884 42.7845 117.337 41.1972 117.337 40.2902C117.337 39.4399 116.997 37.9094 116.6 36.889C116.203 35.9253 114.843 34.3381 113.596 33.3744C112.235 32.354 110.535 31.6738 109.117 31.5037C107.53 31.3903 106.17 31.7304 104.583 32.6374ZM121.589 41.3673C121.079 41.8208 120.682 42.501 120.682 42.7845C120.738 43.0679 120.965 43.8049 121.305 44.4284C121.645 45.052 122.439 45.5622 123.176 45.5622C123.913 45.5622 124.763 45.222 125.16 44.8252C125.557 44.4851 125.84 43.6348 125.84 43.0112C125.84 42.3877 125.557 41.5374 125.16 41.1405C124.763 40.7437 123.97 40.4603 123.459 40.4603C122.949 40.4603 122.099 40.8571 121.589 41.3673ZM91.6578 42.501C91.1476 43.5781 91.1476 44.2017 91.6011 44.8819C91.9412 45.3921 92.8482 45.9023 93.5852 46.0157C94.3221 46.0724 95.2858 45.8456 95.6826 45.4488C96.0794 45.052 96.4195 44.2584 96.3628 43.6915C96.3628 43.1813 95.966 42.331 95.5125 41.8775C95.059 41.424 94.152 41.0272 93.5285 41.0272C92.8482 41.0272 92.1113 41.6507 91.6578 42.501ZM26.1838 43.8615C25.2201 44.4851 23.8596 45.8456 23.1794 46.8093C22.2724 48.2832 22.1023 49.3035 22.3291 51.5143C22.4425 53.0449 23.066 54.9723 23.6896 55.7659C24.2565 56.5595 25.617 57.6933 26.694 58.2601C28.1679 59.0538 29.2449 59.2238 31.2857 58.9404C33.0997 58.7136 34.6114 58.0523 35.8207 56.9563C36.8411 56.106 37.9748 54.3487 38.3716 53.1583C38.8251 51.571 38.8251 50.3806 38.4283 48.9634C38.1449 47.8864 37.2946 46.3558 36.671 45.6755C35.9907 44.9386 34.7436 43.9749 33.8366 43.5214C32.9863 43.0679 31.3424 42.7278 30.1519 42.7278C29.0182 42.7278 27.2042 43.238 26.1838 43.8615ZM47.0448 43.6915C45.9677 44.2584 44.7773 45.222 44.3805 45.8456C43.9837 46.4692 43.4168 47.8864 43.1334 48.9634C42.7932 50.0405 42.7365 51.7978 42.9633 52.8748C43.19 53.8952 44.1537 55.5958 45.0607 56.5595C46.0244 57.5232 47.8951 58.657 49.1989 58.9971C51.2963 59.6206 51.9199 59.6206 53.9607 58.7136C55.3212 58.1468 56.9651 56.8996 57.6453 55.9927C58.2689 55.0857 59.0058 53.4417 59.2326 52.3647C59.4593 51.0608 59.2893 49.587 58.7224 48.1131C58.2122 46.866 57.0218 45.222 56.0014 44.4851C54.8676 43.6348 53.167 43.0112 51.5798 42.8979C49.8792 42.7467 48.3675 43.0112 47.0448 43.6915ZM165.238 43.7482C164.331 44.315 162.914 45.7889 162.177 47.036C161.043 48.85 160.873 49.7003 161.157 51.7978C161.327 53.215 161.95 54.9723 162.517 55.7659C163.141 56.5595 164.728 57.75 166.145 58.4302C168.242 59.5073 168.979 59.6206 170.907 59.1671C172.211 58.827 174.025 57.75 175.158 56.5595C177.029 54.6888 177.142 54.3487 177.142 50.9475C177.142 47.8864 176.916 47.1494 175.725 45.8456C174.932 44.9953 173.628 43.9749 172.721 43.5214C171.87 43.0679 170.227 42.7278 169.036 42.7278C167.902 42.7278 166.145 43.1813 165.238 43.7482ZM184.342 45.959C182.868 47.4328 182.018 48.85 181.734 50.3806C181.507 51.7411 181.564 53.3283 181.961 54.3487C182.301 55.3124 183.265 56.7296 184.115 57.6366C184.965 58.4869 186.553 59.4506 187.63 59.7907C188.707 60.1308 190.464 60.2442 191.428 60.0741C192.448 59.9041 194.092 59.0538 195.056 58.1468C196.076 57.2965 197.21 55.936 197.607 55.029C198.06 54.1787 198.4 52.9315 198.4 52.1946C198.4 51.5143 198.06 49.9838 197.55 48.7933C197.096 47.6596 195.849 46.0724 194.829 45.2787C193.412 44.2017 192.335 43.8615 189.727 43.8615C186.723 43.8615 186.326 44.0316 184.342 45.959ZM129.808 47.7163C128.731 48.2265 127.541 49.1902 127.144 49.8137C126.747 50.4373 126.18 51.8545 125.84 52.9315C125.5 54.2353 125.5 55.5958 125.84 56.8996C126.124 57.9767 127.257 59.7907 128.391 60.8678C130.035 62.455 130.999 62.9085 133.096 63.0219C134.91 63.1353 136.384 62.8518 137.745 62.1149C138.822 61.548 140.296 60.0175 140.976 58.827C141.713 57.6366 142.28 55.936 142.28 55.029C142.28 54.1787 141.826 52.5347 141.203 51.3443C140.636 50.2105 139.219 48.68 138.085 47.943C136.951 47.2628 135.137 46.6959 133.89 46.6959C132.756 46.6959 130.885 47.1494 129.808 47.7163ZM80.0369 47.8863C78.9031 48.2265 77.5993 49.2469 76.6923 50.5507C75.7853 51.7411 75.0484 53.6118 74.935 54.9156C74.8216 56.3895 75.105 57.8633 75.842 59.1671C76.4655 60.2442 77.5426 61.6047 78.2796 62.1716C79.0165 62.7385 80.547 63.362 81.6241 63.6454C82.9468 63.91 84.2695 63.7777 85.5922 63.2486C86.6693 62.7951 88.1998 61.8881 88.9935 61.1512C89.7871 60.4143 90.7508 58.827 91.2043 57.6366C91.8845 55.8226 91.8845 55.1423 91.261 53.4984C90.8642 52.4213 89.9572 50.8908 89.3336 50.1538C88.6533 49.4169 87.2929 48.4532 86.2725 48.0564C85.3088 47.6029 83.8916 47.2628 83.1547 47.3195C82.4744 47.3195 81.0572 47.6029 80.0369 47.8863ZM116.714 50.6073C116.373 51.2309 116.147 51.9678 116.147 52.308C116.203 52.6481 116.827 53.385 117.621 53.8952C118.981 54.8589 119.094 54.8589 120.228 53.7818C120.852 53.1583 121.362 52.1946 121.305 51.6277C121.305 51.1175 120.795 50.3806 120.172 50.0972C119.548 49.757 118.641 49.5303 118.187 49.5303C117.734 49.5303 117.11 50.0405 116.714 50.6073ZM97.4966 50.7774C97.0431 51.1742 96.7596 51.9678 96.8163 52.6481C96.8163 53.2717 97.2698 54.1787 97.78 54.6322C98.517 55.3124 98.9138 55.3691 100.048 54.7455C100.898 54.3487 101.465 53.5551 101.465 52.7615C101.465 52.0812 101.181 51.1742 100.784 50.7774C100.388 50.3806 99.6507 50.0972 99.1405 50.0972C98.687 50.0972 97.9501 50.3806 97.4966 50.7774ZM107.7 53.3283C106.68 54.122 106.51 54.6888 106.793 55.8793C106.963 56.7863 107.587 57.5799 108.267 57.75C108.891 57.92 109.911 57.75 110.535 57.4665C111.328 57.0697 111.612 56.4462 111.498 55.4258C111.442 54.5755 110.875 53.5551 110.195 53.1016C109.174 52.4213 108.834 52.478 107.7 53.3283ZM151.633 55.5958C151.01 55.7659 149.649 56.5595 148.572 57.4098C147.495 58.2035 146.248 59.7907 145.794 60.8678C145.341 62.0582 145.114 63.7021 145.341 64.9493C145.511 66.1397 146.134 67.7836 146.645 68.5773C147.211 69.4276 148.629 70.5613 149.762 71.1282C150.953 71.7518 152.71 72.2052 153.617 72.2052C154.524 72.2052 155.998 71.8651 156.848 71.4116C157.755 71.0148 159.116 69.8811 159.966 68.8607C161.27 67.4435 161.553 66.5932 161.553 64.0989C161.553 62.2283 161.157 60.5276 160.476 59.4506C159.909 58.4869 158.322 57.1831 156.962 56.5028C155.601 55.7659 154.071 55.2557 153.617 55.2557C153.164 55.3124 152.257 55.4825 151.633 55.5958ZM13.6559 56.3328C12.2387 56.5028 10.8215 57.2398 9.68779 58.3168C8.66742 59.2805 7.64704 60.9245 7.30691 62.0015C6.9101 63.192 6.85342 64.8926 7.13686 66.2531C7.4203 67.6703 8.21391 69.0874 9.29097 70.1078C10.2547 71.0148 11.9553 71.9785 13.0323 72.3186C14.5062 72.7721 15.64 72.7721 17.3973 72.3186C19.0412 71.8651 20.4017 70.9581 21.5355 69.4843C22.896 67.8403 23.2361 66.8199 23.2361 64.6658C23.2361 63.1919 22.896 61.3213 22.4425 60.4143C22.0456 59.564 21.0253 58.4302 20.175 57.8633C19.3813 57.3531 18.0775 56.6729 17.2839 56.4461C16.547 56.2194 14.903 56.1627 13.6559 56.3328ZM60.7632 57.8633C59.346 58.827 57.9288 60.3576 57.2485 61.7181C56.3415 63.6455 56.2848 64.3257 56.795 66.2531C57.1352 67.5002 58.3256 69.4843 59.4593 70.618C61.2733 72.4887 61.7835 72.7154 64.4478 72.7721C66.6586 72.7721 67.9624 72.432 69.3796 71.4683C70.4567 70.7881 71.7605 69.5409 72.214 68.6339C72.7242 67.7836 73.121 66.0263 73.121 64.6658C73.121 63.1353 72.7242 61.6047 71.8739 60.3576C71.1369 59.2805 69.6631 57.9767 68.586 57.3531C67.5089 56.7863 65.8083 56.3328 64.9013 56.3328C63.9376 56.3328 62.1236 57.013 60.7632 57.8633ZM200.101 58.4302C199.647 58.6003 198.627 59.2805 197.947 59.9608C197.21 60.5843 196.246 61.8315 195.793 62.6818C195.339 63.5888 194.999 65.0059 194.999 65.9696C194.999 66.9333 195.452 68.5773 195.963 69.711C196.529 70.9014 197.607 72.2619 198.4 72.8288C199.194 73.3957 200.724 74.0192 201.801 74.246C202.878 74.4727 204.749 74.3027 205.883 73.9626C207.187 73.5658 208.717 72.4887 209.738 71.1849C211.155 69.4276 211.438 68.5773 211.438 66.083C211.438 63.362 211.212 62.9085 209.001 60.5843C206.79 58.2601 206.393 58.0901 203.785 58.0901C202.198 58.0901 200.554 58.2601 200.101 58.4302ZM37.6914 60.9811C37.1245 61.6614 36.7277 62.5117 36.7844 62.8518C36.7844 63.1353 37.2379 63.8722 37.8047 64.3824C38.3716 64.9493 39.2786 65.4028 39.8455 65.4028C40.3557 65.4028 41.1493 64.8359 41.6028 64.0989C42.0563 63.4187 42.283 62.455 42.113 62.0015C41.9429 61.548 41.3761 60.8111 40.8659 60.4143C40.3557 60.0175 39.6754 59.734 39.2786 59.734C38.8818 59.734 38.2016 60.3009 37.6914 60.9811ZM94.8323 61.0378C93.8119 61.7181 92.5648 63.192 92.0546 64.269C91.431 65.5161 91.2043 67.2168 91.3177 68.9174C91.4877 70.6747 91.9979 72.0352 92.9616 73.0556C93.7552 73.9059 95.2291 74.9829 96.2495 75.3797C97.2131 75.8332 98.7437 76.1734 99.6507 76.1734C100.501 76.1167 101.975 75.6632 102.995 75.153C103.959 74.6428 105.319 73.5091 105.943 72.6021C106.623 71.7517 107.304 69.9944 107.474 68.6339C107.7 66.8766 107.474 65.7429 106.68 64.269C106.113 63.192 104.753 61.7181 103.676 60.9811C102.315 60.0741 100.955 59.734 99.1972 59.734C97.5533 59.7907 95.966 60.2442 94.8323 61.0378ZM116.373 60.7544C115.637 60.9811 114.276 61.9448 113.256 62.9085C112.235 63.8155 111.215 65.5161 110.932 66.5932C110.705 67.6703 110.705 69.4276 110.932 70.5046C111.158 71.5817 112.122 73.2823 113.086 74.246C113.993 75.2664 115.693 76.2867 116.77 76.6269C118.017 77.0237 119.491 77.0237 120.908 76.6836C122.042 76.4001 123.686 75.4364 124.593 74.5861C125.443 73.6791 126.464 71.8651 126.861 70.4479C127.541 68.1238 127.484 67.7836 126.294 65.4595C125.557 64.0423 124.366 62.455 123.573 61.8881C122.779 61.2646 121.135 60.6977 119.888 60.5843C118.641 60.471 117.054 60.5276 116.373 60.7544ZM177.029 60.6977C176.632 60.8111 176.065 61.4346 175.725 62.0582C175.272 62.8518 175.385 63.4187 176.179 64.269C176.689 64.9493 177.709 65.4594 178.446 65.4028C179.126 65.4028 179.92 64.8926 180.26 64.269C180.657 63.4187 180.6 62.7385 179.977 61.7181C179.523 60.9245 178.786 60.3009 178.446 60.3576C178.049 60.3576 177.369 60.5276 177.029 60.6977ZM48.9155 64.0989C48.5187 64.2123 47.9518 64.8359 47.6117 65.4595C47.2149 66.1964 47.2715 66.8766 47.7817 67.6703C48.1218 68.2938 48.9722 68.804 49.5957 68.804C50.276 68.804 51.0696 68.4639 51.4664 68.0671C51.8632 67.7269 52.1467 66.99 52.1467 66.5365C52.2033 66.083 51.7498 65.2327 51.183 64.7225C50.6161 64.1556 50.0492 63.7588 49.8792 63.7588C49.7091 63.7588 49.2556 63.9289 48.9155 64.0989ZM28.0545 65.2894C27.4876 65.8563 27.0341 66.6499 27.0908 66.99C27.1475 67.3868 27.7711 68.0671 28.508 68.5206C29.1883 68.9741 30.0953 69.3709 30.4921 69.3709C30.8322 69.3709 31.5691 68.7473 32.0226 67.9537C32.8163 66.6499 32.7596 66.4231 31.9093 65.4028C31.3424 64.7225 30.4921 64.2123 29.9819 64.269C29.4717 64.269 28.6214 64.7225 28.0545 65.2894ZM166.372 65.2894C165.805 65.8563 165.351 66.6499 165.408 66.99C165.465 67.3868 166.145 68.1238 166.939 68.6339C168.299 69.5976 168.413 69.5976 169.546 68.5206C170.17 67.897 170.68 66.9333 170.623 66.3664C170.623 65.8563 170.113 65.176 169.49 64.8359C168.866 64.4958 168.129 64.269 167.846 64.269C167.619 64.269 166.939 64.7225 166.372 65.2894ZM186.269 65.6862C185.702 66.1964 185.305 66.9333 185.305 67.2734C185.305 67.6703 185.872 68.4639 186.496 69.0874C187.403 69.9378 187.913 70.0511 188.593 69.6543C189.047 69.3142 189.784 68.6339 190.124 68.0671C190.577 67.3868 190.577 66.8199 190.124 66.083C189.784 65.5728 188.99 65.0626 188.366 64.9493C187.743 64.8359 186.779 65.176 186.269 65.6862ZM36.5576 70.2212C35.6506 70.7314 34.4035 71.5817 33.8366 72.0919C33.2697 72.6021 32.4194 74.1893 31.9093 75.6065C31.1723 77.6472 31.1156 78.5542 31.6258 80.1415C31.9659 81.2185 32.9863 82.8625 33.8366 83.7695C34.7436 84.6765 36.2742 85.8102 37.2946 86.207C38.2582 86.6038 39.5621 86.944 40.1289 86.944C40.6391 86.944 42.1697 86.4338 43.5302 85.8102C45.2308 85.0166 46.3079 83.9395 47.4416 81.9555C48.632 79.8014 48.8588 78.8377 48.5754 77.0237C48.4053 75.7766 47.7817 74.1326 47.2148 73.3957C46.648 72.6588 45.5709 71.5817 44.7773 70.9581C43.9837 70.3346 42.2264 69.7677 40.8092 69.5976C39.1086 69.4276 37.6914 69.5976 36.5576 70.2212ZM173.628 71.0715C172.607 71.6951 171.247 73.0556 170.623 74.0192C169.943 75.153 169.49 76.9103 169.49 78.4409C169.49 79.9714 169.943 81.7287 170.623 82.8058C171.247 83.8262 172.607 85.1867 173.628 85.8102C174.705 86.4905 176.405 86.944 177.993 86.944C179.693 86.944 181.167 86.5094 182.414 85.6402C183.435 84.9599 184.795 83.2593 185.475 81.8421C186.326 80.0281 186.553 78.7243 186.326 77.3071C186.099 76.2301 185.475 74.6995 184.909 73.9059C184.342 73.1122 182.981 71.9218 181.904 71.1849C180.657 70.3913 179.126 69.9378 177.709 69.9378C176.462 69.9378 174.591 70.4479 173.628 71.0715ZM22.9526 74.3594C22.3858 74.9262 21.9323 75.7766 21.989 76.2301C22.0456 76.6836 22.3858 77.3638 22.7826 77.7606C23.1794 78.1574 24.0297 78.4409 24.71 78.4409C25.3335 78.4409 26.1271 78.1007 26.524 77.7039C26.9208 77.3638 27.2042 76.4568 27.2042 75.7199C27.2042 75.0396 26.694 74.246 26.0704 73.9059C25.4469 73.5657 24.71 73.339 24.4265 73.339C24.1998 73.339 23.5195 73.7925 22.9526 74.3594ZM160.703 74.3594C160.136 74.9262 159.683 75.6632 159.739 75.9466C159.796 76.2301 160.25 76.9103 160.816 77.4205C161.383 77.9874 162.234 78.4409 162.687 78.4409C163.141 78.4409 164.048 77.9874 164.671 77.3638C165.748 76.2301 165.748 76.1167 164.841 74.7562C164.274 73.9626 163.367 73.339 162.744 73.339C162.177 73.339 161.27 73.7925 160.703 74.3594ZM52.7135 75.0396C52.3167 75.8899 52.3734 76.5702 52.997 77.5906C53.4505 78.3842 54.3008 79.0077 54.8676 79.0077C55.3778 79.0644 56.2848 78.6109 56.795 78.0441C57.3619 77.4772 57.8154 76.6269 57.8154 76.1734C57.8154 75.7199 57.532 74.9829 57.1351 74.5861C56.7383 74.1893 55.718 73.9059 54.8676 73.9059C53.904 73.9059 53.1103 74.3594 52.7135 75.0396ZM144.547 75.4364C143.47 76.0033 141.996 77.3638 141.259 78.4409C140.466 79.688 140.012 81.2752 140.012 82.6924C140.012 83.9395 140.522 85.8102 141.146 86.7739C141.769 87.7943 143.13 89.1548 144.15 89.7783C145.114 90.4019 146.871 90.9121 147.948 90.9121C149.025 90.9121 150.839 90.4586 151.917 89.8917C152.994 89.3815 154.467 88.021 155.204 86.944C155.941 85.7535 156.451 84.1096 156.451 82.8058C156.451 81.672 156.111 80.0281 155.658 79.1211C155.204 78.2708 154.241 77.0237 153.504 76.3434C152.653 75.4931 151.18 74.9262 149.366 74.7562C147.268 74.4727 146.021 74.6428 144.547 75.4364ZM191.031 75.7199C190.351 76.4001 189.84 77.0804 189.84 77.2504C189.84 77.4205 190.521 78.2141 191.258 79.0077C192.675 80.3682 192.731 80.4249 194.149 79.4045C194.942 78.8944 195.566 77.9874 195.566 77.4205C195.622 76.9103 195.169 76.0033 194.602 75.4931C194.035 74.9262 193.298 74.4727 192.901 74.4727C192.505 74.4727 191.654 75.0396 191.031 75.7199ZM6.9101 76.3434C5.20948 77.1937 4.07573 78.2708 3.3388 79.858C2.48848 81.502 2.31843 82.7491 2.60187 84.393C2.77193 85.6402 3.28211 87.2274 3.73561 87.9077C4.18911 88.6446 5.37955 89.7217 6.39992 90.3452C7.53367 91.0255 9.1776 91.479 10.7648 91.479C12.4088 91.4223 13.996 91.0255 15.2432 90.1752C16.4336 89.4382 17.624 87.9643 18.2476 86.4905C18.9278 84.9599 19.1546 83.486 18.9278 82.2389C18.7578 81.2752 17.9641 79.5746 17.2272 78.5542C16.4903 77.5906 15.1298 76.3434 14.1661 75.8899C13.2591 75.4364 11.7852 75.0396 10.9349 75.0396C10.0279 75.0396 8.2706 75.6065 6.9101 76.3434ZM66.6019 76.7969C65.6949 77.0804 64.051 78.1574 63.0873 79.1778C62.0103 80.1982 61.1033 81.8421 60.8765 82.9759C60.7065 84.0529 60.8198 85.8669 61.16 86.944C61.5001 88.021 62.4638 89.6083 63.3141 90.4586C64.2211 91.3089 65.8083 92.2726 66.8854 92.6127C68.2459 93.0095 69.5497 92.9528 71.1369 92.556C72.3841 92.1592 74.0847 91.2522 74.8783 90.4019C75.7286 89.6083 76.6923 87.7943 77.0324 86.3771C77.656 84.0529 77.5993 83.5994 76.4089 81.2752C75.4452 79.4045 74.4248 78.3842 72.5541 77.4205C71.1369 76.7402 69.6064 76.1734 69.1529 76.2301C68.6994 76.2301 67.5656 76.5135 66.6019 76.7969ZM202.482 78.951C201.461 79.5179 200.101 80.7651 199.477 81.6154C198.684 82.7491 198.343 84.1663 198.4 86.207C198.4 88.9847 198.57 89.3815 200.951 91.7624C203.275 94.0866 203.785 94.3133 206.223 94.3133C208.094 94.3133 209.511 93.9732 210.871 93.0662C211.948 92.3293 213.309 90.8554 213.819 89.7783C214.386 88.7013 214.84 87.0574 214.84 86.0937C214.84 85.13 214.386 83.486 213.819 82.409C213.309 81.3319 211.948 79.858 210.871 79.1211C209.624 78.3275 208.037 77.874 206.62 77.874C205.373 77.874 203.502 78.3842 202.482 78.951ZM105.603 79.858C104.639 80.4816 104.356 81.1619 104.469 82.4657C104.526 83.6561 105.036 84.4497 106.17 85.13C107.757 86.0937 107.814 86.037 109.174 84.5064C109.911 83.6561 110.535 82.4657 110.535 81.8421C110.535 81.2185 109.968 80.3115 109.288 79.858C108.551 79.4045 107.757 79.0077 107.417 79.0077C107.133 79.0077 106.283 79.4045 105.603 79.858ZM113.766 83.9962C112.916 84.5064 112.122 85.4134 111.952 85.9236C111.782 86.4905 112.179 87.5675 112.802 88.3612C113.426 89.1548 114.389 89.7783 114.956 89.7783C115.466 89.7783 116.487 89.3815 117.224 88.928C117.904 88.4745 118.471 87.5108 118.471 86.7739C118.528 86.0937 118.074 85.13 117.507 84.6198C116.94 84.1096 116.203 83.5427 115.863 83.3727C115.523 83.2026 114.559 83.486 113.766 83.9962ZM25.2201 84.5631C24.6533 85.13 24.1998 86.1504 24.2565 86.8306C24.3131 87.5109 24.8233 88.3045 25.3902 88.6446C26.0705 88.9847 26.7507 88.928 27.6577 88.3612C28.3946 87.851 28.9048 86.944 28.9048 86.0937C28.9048 85.2434 28.4513 84.4497 27.7711 84.1096C27.1475 83.7695 26.524 83.5427 26.4106 83.5427C26.3539 83.5427 25.787 83.9962 25.2201 84.5631ZM51.0129 84.6765C49.9925 85.6969 49.9925 85.9803 50.6728 87.0573C51.0696 87.7943 51.8065 88.4178 52.2033 88.5312C52.6568 88.6446 53.6205 88.1911 54.4142 87.6242C55.7747 86.5472 55.8313 86.4905 54.8676 85.0166C54.3008 84.223 53.4505 83.5427 52.997 83.5427C52.5435 83.5427 51.6365 84.0529 51.0129 84.6765ZM97.2131 84.9599C96.4762 85.6969 95.8526 86.5472 95.796 86.7739C95.796 87.0007 96.1928 87.851 96.7597 88.5879C97.4399 89.4382 98.3469 89.8917 99.4806 89.8917C100.501 89.8917 101.465 89.4382 101.918 88.8147C102.315 88.2478 102.598 87.4542 102.598 87.0573C102.598 86.7172 101.975 85.7535 101.181 84.9599C100.388 84.1663 99.4806 83.5427 99.1972 83.5427C98.8571 83.5427 97.9501 84.1663 97.2131 84.9599ZM162.404 84.5631C161.837 85.13 161.383 85.9803 161.44 86.4338C161.497 86.8873 161.837 87.5675 162.234 87.9644C162.63 88.3612 163.481 88.6446 164.161 88.6446C164.785 88.6446 165.578 88.3045 165.975 87.9077C166.372 87.5675 166.655 86.8306 166.655 86.3771C166.712 85.9236 166.258 85.0733 165.692 84.5631C165.125 83.9962 164.388 83.5427 164.048 83.5427C163.707 83.5427 162.971 83.9962 162.404 84.5631ZM188.48 85.4701C187.46 86.2637 187.403 86.4338 188.196 87.851C188.65 88.7013 189.33 89.4949 189.614 89.6083C189.954 89.7217 190.804 89.3248 191.598 88.758C192.901 87.7376 192.958 87.5109 192.335 86.1504C191.938 85.3567 191.144 84.6765 190.577 84.6765C190.01 84.6765 189.103 85.0166 188.48 85.4701ZM106.283 88.8147C105.66 89.1548 104.979 89.7217 104.753 90.0618C104.526 90.3452 104.299 91.0822 104.299 91.5923C104.299 92.1592 104.696 93.0095 105.149 93.463C105.603 93.9165 106.793 94.3133 107.7 94.3133C108.891 94.3133 109.628 93.9165 110.251 92.8962C110.875 91.8758 110.931 91.1955 110.535 90.3452C110.251 89.7217 109.458 88.9847 108.834 88.6446C108.211 88.3045 107.644 88.0777 107.587 88.0777C107.474 88.0777 106.907 88.4178 106.283 88.8147ZM33.1564 90.7987C32.5895 91.3656 32.136 92.2159 32.1927 92.6694C32.2494 93.1229 32.7029 93.9165 33.2697 94.4267C33.8366 94.9936 34.5736 95.4471 34.857 95.4471C35.1971 95.4471 35.8774 95.0503 36.3876 94.4834C36.9544 93.9165 37.4079 93.0095 37.4079 92.4427C37.4079 91.9325 37.0111 91.0822 36.5576 90.6287C36.1041 90.1752 35.3672 89.7783 34.9137 89.7783C34.5169 89.7783 33.7232 90.2318 33.1564 90.7987ZM43.7002 90.6287C42.9633 91.1388 42.3964 91.9892 42.3964 92.4993C42.4531 93.0095 43.02 93.9732 43.6435 94.5968C44.6639 95.5605 45.004 95.6171 46.1945 94.9936C47.0448 94.5968 47.6117 93.8031 47.6117 93.0095C47.6684 92.3293 47.2148 91.3089 46.648 90.7987C46.0811 90.2318 45.5142 89.7783 45.3442 89.7783C45.1741 89.7783 44.4372 90.1752 43.7002 90.6287ZM170.623 91.0255C169.943 91.7057 169.433 92.556 169.433 92.8395C169.433 93.1796 169.886 93.9165 170.453 94.4267C171.02 94.9936 171.927 95.4471 172.494 95.4471C173.004 95.4471 173.911 94.8235 174.478 94.0299C175.442 92.6127 175.385 92.556 174.025 91.1388C173.231 90.4019 172.437 89.7783 172.211 89.7783C171.984 89.7783 171.247 90.3452 170.623 91.0255ZM180.26 91.5923C179.807 91.9892 179.523 92.6694 179.58 93.1229C179.637 93.6331 180.09 94.4834 180.657 95.0503C181.224 95.6172 182.131 96.014 182.754 95.9006C183.321 95.7872 184.172 95.2203 184.568 94.5968C185.249 93.6331 185.192 93.293 184.512 92.1592C184.058 91.479 183.095 90.9121 182.358 90.9121C181.621 90.9121 180.714 91.1955 180.26 91.5923ZM155.318 92.6694C154.524 93.0095 153.164 93.9165 152.313 94.7668C151.463 95.6172 150.499 97.2044 150.216 98.2815C149.932 99.3585 149.876 101.002 150.102 101.966C150.386 102.873 151.009 104.29 151.576 105.084C152.087 105.878 153.22 106.955 154.071 107.465C155.034 108.088 156.735 108.485 158.606 108.485C161.27 108.485 161.78 108.258 163.707 106.331C164.898 105.197 166.032 103.44 166.202 102.533C166.428 101.569 166.372 99.812 166.032 98.5649C165.748 97.3178 164.955 95.6738 164.274 94.9936C163.537 94.2566 162.29 93.293 161.44 92.8395C160.533 92.386 159.172 92.0458 158.322 92.1025C157.415 92.1025 156.111 92.386 155.318 92.6694ZM17.1705 93.7465C16.1502 94.37 14.7897 95.7305 14.1661 96.6942C13.5425 97.7146 13.0323 99.4719 13.0323 100.549C13.0323 101.626 13.3725 103.383 13.8827 104.347C14.3362 105.367 15.5266 106.728 16.4336 107.351C17.3973 107.975 19.2113 108.599 20.5718 108.825C22.2724 108.995 23.5195 108.825 24.9367 108.088C26.0138 107.522 27.4876 106.161 28.2246 105.084C29.3583 103.44 29.5284 102.59 29.3016 99.9821C29.0749 97.1477 28.8481 96.6942 26.5806 94.7101C24.4832 92.8962 23.6896 92.556 21.5355 92.6127C20.0049 92.6127 18.2476 93.0662 17.1705 93.7465ZM54.1874 93.9165C52.997 94.5968 51.5231 96.0706 50.9562 97.1477C50.3327 98.2248 49.8792 99.9821 49.8792 100.946C49.8792 101.966 50.2193 103.497 50.6728 104.347C51.1263 105.254 52.09 106.501 52.8269 107.125C53.5072 107.805 55.0377 108.599 56.1148 108.995C57.6453 109.449 58.609 109.449 60.3096 108.882C61.5001 108.542 63.3708 107.238 64.3911 106.048C65.9784 104.347 66.3185 103.497 66.3185 101.399C66.3185 99.9821 65.9217 98.0547 65.4682 97.1477C65.0147 96.184 63.5975 94.8235 62.3504 94.0299C61.1033 93.2363 59.2326 92.6127 58.2689 92.6127C57.2485 92.6127 55.3778 93.1796 54.1874 93.9165ZM81.1706 93.0095C80.7738 93.1796 80.2069 93.9165 79.9235 94.6535C79.5267 95.5605 79.5267 96.4108 79.9235 97.1477C80.2636 97.7713 81.0005 98.5082 81.6241 98.8483C82.3044 99.1885 83.1547 99.1885 83.7782 98.905C84.2884 98.6216 85.1387 97.7146 85.5922 96.921C86.3858 95.5605 86.3292 95.3904 85.0254 94.0299C84.2317 93.2363 83.2114 92.6127 82.7579 92.6694C82.3044 92.6694 81.5674 92.8395 81.1706 93.0095ZM97.6666 93.9732C96.2495 95.1636 96.1361 95.5038 96.6463 96.9776C96.9864 97.8846 97.8934 98.7916 98.7437 99.1318C99.9908 99.5853 100.501 99.4719 101.465 98.5649C102.088 97.9413 102.655 96.8643 102.598 96.1273C102.598 95.4471 102.088 94.37 101.465 93.7465C100.841 93.1229 100.104 92.6127 99.8208 92.6127C99.4806 92.6127 98.5736 93.2363 97.6666 93.9732ZM112.972 94.0866C112.009 95.4471 112.009 95.6172 112.916 97.0343C113.426 97.8846 114.389 98.735 115.07 98.9617C115.92 99.3018 116.6 99.0184 117.621 97.998C118.414 97.2044 119.038 96.184 119.038 95.7305C119.038 95.277 118.528 94.37 117.904 93.7465C117.28 93.1229 116.147 92.6127 115.353 92.6127C114.503 92.6127 113.596 93.1796 112.972 94.0866ZM129.525 93.6331C128.958 94.2 128.505 95.3904 128.561 96.184C128.618 97.0343 129.242 98.1114 129.978 98.5649C130.659 99.0184 131.566 99.4152 131.963 99.4152C132.303 99.4152 133.153 98.8483 133.777 98.1114C134.4 97.4311 134.91 96.3541 134.967 95.7305C134.967 95.107 134.513 94.1433 133.947 93.6331C133.38 93.0662 132.416 92.6127 131.736 92.6127C131.056 92.6127 130.092 93.0662 129.525 93.6331ZM192.165 94.37C191.371 94.7102 190.01 95.6172 189.16 96.4675C188.31 97.3178 187.346 98.905 187.063 99.9821C186.723 101.116 186.723 102.703 187.006 103.667C187.233 104.574 187.913 106.104 188.537 107.011C189.103 107.918 190.294 108.995 191.201 109.392C192.051 109.846 193.808 110.186 195.169 110.186C196.7 110.186 198.23 109.789 199.477 108.939C200.554 108.202 201.915 106.615 202.538 105.367C203.389 103.667 203.559 102.533 203.275 100.832C203.049 99.4719 202.198 97.828 201.235 96.6942C200.271 95.7305 198.91 94.6535 198.117 94.3133C197.323 93.9732 196.019 93.7465 195.169 93.8032C194.262 93.8032 192.958 94.0866 192.165 94.37ZM90.0705 97.0343C89.617 97.1477 88.8234 97.7146 88.2565 98.2248C87.6897 98.735 87.2362 99.5286 87.2362 99.9821C87.2362 100.436 87.8597 101.399 88.54 102.08C89.2769 102.816 90.2406 103.383 90.6941 103.383C91.1476 103.383 92.168 102.76 92.9616 101.966C94.2087 100.719 94.3221 100.379 93.6985 99.1318C93.3017 98.3381 92.5081 97.4878 91.9412 97.2044C91.3743 96.9777 90.524 96.8643 90.0705 97.0343ZM137.461 97.998C136.724 98.735 136.101 99.5853 136.044 99.812C136.044 100.039 136.498 100.946 137.178 101.796C137.801 102.703 138.765 103.383 139.332 103.383C139.842 103.383 140.862 102.987 141.599 102.533C142.336 102.023 142.847 101.116 142.847 100.266C142.847 99.4719 142.28 98.3381 141.599 97.7146C140.862 97.091 139.955 96.5808 139.559 96.5808C139.162 96.5808 138.198 97.2044 137.461 97.998ZM72.5541 98.4515C71.8172 99.1885 71.2503 100.152 71.307 100.606C71.3637 101.059 71.9306 101.966 72.5541 102.646C73.1777 103.383 74.1981 103.95 74.8216 103.95C75.4452 103.95 76.4656 103.27 77.0891 102.363C77.7694 101.513 78.2795 100.662 78.2229 100.379C78.2229 100.152 77.5993 99.3585 76.8057 98.5649C76.0121 97.7713 75.0484 97.1477 74.6516 97.1477C74.1981 97.1477 73.2911 97.7146 72.5541 98.4515ZM105.716 98.5649C104.979 99.3018 104.356 100.266 104.299 100.662C104.299 101.059 104.696 101.966 105.149 102.646C105.716 103.516 106.567 103.95 107.7 103.95C108.834 103.95 109.684 103.516 110.251 102.646C110.705 101.966 111.102 100.946 111.102 100.379C111.102 99.8687 110.421 98.905 109.571 98.2815C108.664 97.6012 107.757 97.091 107.53 97.1477C107.304 97.1477 106.453 97.7713 105.716 98.5649ZM121.929 97.998C120.965 98.6783 120.625 99.4152 120.682 100.606C120.682 101.626 121.192 102.59 122.042 103.1C122.722 103.553 123.629 103.95 124.026 103.95C124.366 103.95 125.217 103.44 125.84 102.816C126.464 102.193 126.974 101.229 126.974 100.662C126.974 100.152 126.464 99.1318 125.84 98.3948C125.217 97.7146 124.366 97.1477 124.026 97.1477C123.629 97.1477 122.666 97.5445 121.929 97.998ZM35.7073 101.173C34.5736 101.796 33.1564 103.1 32.4194 104.12C31.5691 105.311 31.1723 106.785 31.1723 108.485C31.1723 110.016 31.6258 111.773 32.3061 112.85C32.9296 113.87 34.0067 115.004 34.7436 115.401C35.4239 115.741 36.7844 116.251 37.6914 116.535C38.7684 116.818 40.1289 116.762 41.3761 116.365C42.4531 116.025 43.927 115.174 44.6639 114.494C45.4008 113.87 46.3645 112.51 46.818 111.603C47.2715 110.639 47.6117 109.109 47.6117 108.202C47.6117 107.238 47.0448 105.594 46.4779 104.517C45.8544 103.44 44.3805 101.966 43.1901 101.286C42.0563 100.606 40.3557 100.039 39.392 100.039C38.485 100.039 36.7844 100.549 35.7073 101.173ZM172.324 101.286C171.247 101.683 169.886 102.703 169.206 103.61C168.356 104.801 168.072 106.048 168.072 108.769C168.072 111.83 168.299 112.567 169.49 113.87C170.283 114.721 171.587 115.741 172.494 116.195C173.344 116.648 174.988 116.988 176.179 116.988C177.312 116.988 179.126 116.478 180.147 115.855C181.111 115.231 182.471 113.87 183.095 112.85C183.718 111.83 184.228 110.016 184.228 108.769C184.228 107.295 183.718 105.764 182.811 104.347C182.018 103.213 180.487 101.853 179.41 101.399C178.333 100.946 176.746 100.549 175.895 100.549C174.988 100.606 173.401 100.889 172.324 101.286ZM81.1139 102.533C80.1502 103.213 79.8101 103.95 79.8668 105.141C79.8668 106.161 80.377 107.125 81.2273 107.635C81.9075 108.088 82.8145 108.485 83.2113 108.485C83.5515 108.485 84.4018 107.918 85.0254 107.181C85.6489 106.501 86.1591 105.537 86.1591 105.084C86.1591 104.63 85.6489 103.667 85.0254 102.93C84.4018 102.25 83.5515 101.683 83.2113 101.683C82.8145 101.683 81.8509 102.08 81.1139 102.533ZM129.808 102.816C129.185 103.44 128.675 104.404 128.675 104.914C128.675 105.481 129.242 106.501 129.922 107.181C130.659 107.918 131.679 108.485 132.246 108.485C132.756 108.485 133.72 107.805 134.343 106.898C135.024 106.048 135.534 105.141 135.534 104.801C135.534 104.46 134.91 103.667 134.23 102.987C133.493 102.25 132.473 101.683 131.963 101.683C131.396 101.683 130.432 102.193 129.808 102.816ZM88.71 107.465C88.1432 108.145 87.7463 109.109 87.803 109.619C87.803 110.072 88.2565 110.923 88.8234 111.433C89.3903 112 90.354 112.453 90.9775 112.453C91.6011 112.453 92.5648 112.056 93.075 111.49C93.6418 110.923 94.0953 109.959 94.0953 109.336C94.0953 108.712 93.6985 107.748 93.1316 107.238C92.5648 106.671 91.5444 106.218 90.8641 106.218C90.1839 106.218 89.2202 106.785 88.71 107.465ZM137.461 107.918C136.724 109.449 136.724 109.789 137.461 111.036C138.141 112.17 138.708 112.397 140.126 112.283C141.429 112.227 142.223 111.716 142.847 110.696C143.64 109.335 143.583 109.052 142.733 107.692C141.996 106.671 141.203 106.218 140.012 106.218C138.708 106.218 138.141 106.615 137.461 107.918ZM72.3274 108.202C71.7227 109.147 71.5904 109.94 71.9306 110.583C72.214 111.149 72.8376 111.943 73.3477 112.283C73.8579 112.68 74.8783 112.907 75.6719 112.737C76.4656 112.567 77.4292 111.83 77.826 111.093C78.3929 109.902 78.3362 109.449 77.5426 108.258C76.8057 107.238 76.0121 106.785 74.8783 106.785C73.7446 106.785 72.9509 107.238 72.3274 108.202ZM105.49 107.635C104.526 108.315 104.186 109.052 104.242 110.243C104.242 111.263 104.753 112.227 105.603 112.737C106.283 113.19 107.19 113.587 107.587 113.587C107.927 113.587 108.777 113.02 109.401 112.283C110.024 111.603 110.535 110.639 110.535 110.186C110.535 109.732 110.024 108.769 109.401 108.032C108.777 107.351 107.927 106.785 107.587 106.785C107.19 106.785 106.226 107.181 105.49 107.635ZM121.532 107.975C120.682 108.882 120.568 109.392 121.022 110.639C121.362 111.433 122.269 112.397 123.119 112.737C124.366 113.19 124.877 113.077 125.84 112.17C126.464 111.546 127.031 110.583 126.974 110.016C126.974 109.506 126.747 108.542 126.407 107.918C126.067 107.181 125.273 106.785 124.196 106.785C123.346 106.785 122.156 107.295 121.532 107.975ZM130.092 112.17C129.355 112.907 128.731 113.87 128.731 114.267C128.675 114.664 129.412 115.684 130.262 116.535C131.679 118.009 131.906 118.009 133.38 117.272C134.23 116.762 135.08 115.741 135.25 114.834C135.534 113.644 135.307 113.02 134.117 112C133.323 111.32 132.359 110.753 132.076 110.753C131.736 110.753 130.829 111.376 130.092 112.17ZM80.7738 112.34C80.2069 112.907 79.7534 113.87 79.8101 114.494C79.8668 115.061 80.3203 115.968 80.8872 116.478C81.4541 116.988 82.2477 117.555 82.6445 117.725C82.9846 117.952 83.9483 117.612 84.7419 116.988C85.5355 116.365 86.1591 115.288 86.1591 114.551C86.2158 113.87 85.7623 112.85 85.1954 112.34C84.6285 111.773 83.6648 111.32 82.9846 111.32C82.3044 111.32 81.3407 111.773 80.7738 112.34ZM97.2131 112.793C96.4762 113.644 95.8526 114.551 95.8526 114.777C95.796 115.061 96.1928 115.911 96.6463 116.705C97.2698 117.725 98.0068 118.122 99.1972 118.122C100.331 118.122 101.181 117.687 101.748 116.818C102.202 116.138 102.598 115.231 102.598 114.834C102.598 114.494 101.975 113.53 101.181 112.737C100.388 111.943 99.4806 111.32 99.1972 111.32C98.8571 111.32 97.9501 112 97.2131 112.793ZM112.859 112.567C111.838 113.587 111.725 114.097 112.122 115.004C112.462 115.628 113.256 116.648 113.879 117.272L115.126 118.405C117.507 116.535 118.244 115.401 118.358 114.664C118.414 113.927 118.074 112.85 117.507 112.283C116.94 111.716 115.977 111.263 115.296 111.32C114.673 111.32 113.539 111.886 112.859 112.567ZM105.773 117.045C104.753 117.782 104.186 118.689 104.242 119.596C104.299 120.39 104.866 121.297 105.716 121.807C106.51 122.26 107.53 122.657 107.984 122.657C108.437 122.657 109.344 121.977 109.968 121.07C110.648 120.219 111.158 119.426 111.158 119.256C111.158 119.086 110.478 118.292 109.684 117.385C108.891 116.535 108.04 115.855 107.814 115.855C107.53 115.855 106.623 116.365 105.773 117.045ZM129.978 121.24C129.015 121.863 128.731 122.544 128.845 123.847C128.901 125.038 129.468 125.888 130.489 126.512C131.963 127.419 132.076 127.419 133.493 126.058C134.287 125.265 134.91 124.074 134.91 123.337C134.91 122.657 134.343 121.693 133.663 121.24C132.926 120.786 132.133 120.39 131.792 120.39C131.509 120.39 130.659 120.786 129.978 121.24ZM36.3876 121.92C35.3672 122.43 33.8933 123.734 33.1564 124.868C32.136 126.285 31.7392 127.646 31.7392 129.46C31.7392 131.047 32.1927 132.634 32.8729 133.711C33.4965 134.618 34.7436 135.865 35.5939 136.375C36.5576 136.999 38.2582 137.396 40.1856 137.396C43.02 137.396 43.3601 137.226 45.8544 134.788C48.4053 132.237 48.462 132.124 48.1785 129.289C48.0085 127.646 47.3282 125.661 46.7614 124.811C46.1378 123.961 44.6072 122.714 43.3601 122.09C42.113 121.467 40.4691 120.956 39.6754 120.956C38.8818 120.956 37.4079 121.41 36.3876 121.92ZM80.2069 122.204C79.64 122.884 79.2432 123.791 79.2999 124.188C79.3566 124.584 79.9802 125.548 80.7738 126.342C81.6808 127.249 82.5311 127.646 83.2113 127.419C83.7215 127.192 84.6285 126.512 85.1387 125.832C85.7056 125.151 86.1591 124.414 86.1591 124.074C86.1591 123.734 85.6489 122.94 85.0254 122.204C84.4018 121.523 83.268 120.956 82.4744 120.956C81.7375 120.956 80.7171 121.523 80.2069 122.204ZM97.2131 121.977C96.6463 122.544 96.1928 123.507 96.2495 124.131C96.3061 124.698 96.7597 125.661 97.3265 126.172C97.8934 126.739 98.8571 127.192 99.4806 127.192C100.104 127.192 101.068 126.795 101.578 126.228C102.145 125.661 102.598 124.811 102.598 124.358C102.598 123.904 102.202 122.94 101.748 122.204C101.295 121.523 100.331 120.956 99.5373 120.956C98.8571 120.956 97.78 121.41 97.2131 121.977ZM112.972 122.43C112.179 123.564 112.122 124.131 112.575 124.868C112.916 125.378 113.879 126.172 114.673 126.625C115.977 127.419 116.203 127.362 117.337 126.342C117.961 125.718 118.584 124.754 118.698 124.188C118.811 123.621 118.528 122.657 118.017 122.033C117.451 121.41 116.373 120.9 115.523 120.956C114.503 120.956 113.596 121.467 112.972 122.43ZM173.514 122.827C171.757 123.677 170.623 124.754 169.83 126.342C169.206 127.589 168.696 129.346 168.696 130.31C168.753 131.217 169.206 132.861 169.83 133.938C170.397 135.015 171.53 136.319 172.324 136.942C173.118 137.509 174.762 138.189 176.009 138.359C177.709 138.586 178.843 138.416 180.544 137.452C181.791 136.772 183.321 135.412 183.888 134.391C184.512 133.428 185.079 131.557 185.192 130.31C185.305 128.666 185.022 127.532 184.058 126.058C183.378 124.981 181.734 123.507 180.544 122.827C179.297 122.09 177.766 121.523 177.142 121.58C176.519 121.58 174.875 122.147 173.514 122.827ZM138.312 125.151C137.518 125.548 136.668 126.398 136.441 126.965C136.157 127.702 136.327 128.496 137.064 129.46C137.688 130.253 138.652 130.933 139.219 131.047C139.785 131.16 140.862 130.82 141.599 130.31C142.336 129.8 142.847 128.893 142.847 128.042C142.847 127.249 142.28 126.115 141.599 125.491C140.862 124.868 140.182 124.358 140.012 124.358C139.842 124.414 139.105 124.754 138.312 125.151ZM72.5541 126.795C71.8172 127.532 71.2503 128.496 71.307 128.949C71.3637 129.403 71.9873 130.31 72.6675 131.047C73.5745 131.954 74.3681 132.294 75.2751 132.067C75.9554 131.897 76.9191 131.103 77.3726 130.31C77.9961 129.289 78.0528 128.609 77.656 127.759C77.3726 127.135 76.5789 126.398 75.9554 126.058C75.3318 125.718 74.5949 125.491 74.3681 125.491C74.0847 125.491 73.2911 126.058 72.5541 126.795ZM88.1432 126.512C87.5763 127.079 87.1228 127.929 87.1795 128.382C87.2362 128.836 87.9164 129.8 88.71 130.593C90.0705 131.897 90.2973 131.954 91.6578 131.16C92.4514 130.707 93.4151 129.913 93.7552 129.403C94.2087 128.666 94.152 128.099 93.4151 126.965C92.6781 125.945 91.8845 125.491 90.7508 125.491C89.9005 125.491 88.71 125.945 88.1432 126.512ZM105.546 126.625C104.866 127.249 104.356 128.326 104.469 128.949C104.526 129.63 105.263 130.707 106.17 131.387L107.7 132.577C110.138 130.707 110.875 129.686 110.988 129.119C111.102 128.553 110.648 127.475 109.968 126.739C109.344 126.058 108.381 125.491 107.814 125.491C107.247 125.491 106.226 126.002 105.546 126.625ZM121.305 126.172C120.852 126.568 120.568 127.589 120.625 128.439C120.682 129.403 121.305 130.423 122.212 130.99C123.516 131.897 123.8 131.954 125.047 131.16C125.84 130.707 126.577 129.856 126.691 129.289C126.861 128.779 126.577 127.702 126.124 126.909C125.557 125.945 124.763 125.491 123.686 125.491C122.836 125.491 121.759 125.775 121.305 126.172ZM17.7941 129.46C16.4903 130.026 14.7897 131.444 13.9393 132.691C12.9757 134.108 12.4655 135.582 12.4655 137.112C12.4655 138.586 12.9757 140.117 13.8827 141.477C14.6763 142.668 16.0935 144.028 17.0005 144.482C17.9642 144.935 19.6648 145.332 20.8552 145.332C21.989 145.332 23.803 144.822 24.8233 144.198C25.787 143.575 27.1475 142.214 27.7711 141.194C28.3946 140.23 28.9048 138.359 28.9048 137.112C28.9048 135.695 28.4513 134.108 27.6577 132.917C26.9208 131.84 25.617 130.537 24.6533 129.97C23.7463 129.46 22.3291 128.893 21.5355 128.723C20.6851 128.496 19.1546 128.836 17.7941 129.46ZM54.4142 129.46C53.2804 130.14 51.8632 131.444 51.1263 132.464C50.276 133.654 49.8792 135.128 49.8792 136.829C49.8792 138.359 50.3327 140.117 51.0129 141.194C51.6365 142.214 52.997 143.575 54.0173 144.198C54.981 144.822 56.7383 145.332 57.8154 145.332C58.9491 145.332 60.6498 144.822 61.7835 144.085C62.8606 143.348 64.3345 141.874 65.0147 140.797C65.7516 139.72 66.3185 138.133 66.3185 137.226C66.3185 136.375 65.9784 134.845 65.5816 133.824C65.1848 132.861 63.9376 131.33 62.8606 130.423C61.7835 129.573 59.9695 128.779 58.6657 128.609C57.0218 128.382 55.8313 128.609 54.4142 129.46ZM152.994 129.63C151.916 130.31 150.613 131.784 150.102 132.861C149.536 133.938 149.082 135.638 149.082 136.545C149.082 137.452 149.536 139.153 150.102 140.23C150.613 141.307 151.973 142.781 153.05 143.518C154.637 144.595 155.601 144.822 157.982 144.652C160.306 144.538 161.27 144.142 162.63 142.781C163.594 141.874 164.728 140.06 165.181 138.813C165.862 136.886 165.805 136.205 165.181 134.278C164.728 133.031 163.934 131.557 163.367 130.933C162.857 130.367 161.723 129.573 160.873 129.119C159.966 128.666 158.322 128.326 157.132 128.326C155.828 128.326 154.184 128.836 152.994 129.63ZM130.035 130.707C129.242 131.33 128.561 132.237 128.618 132.747C128.618 133.258 129.071 134.165 129.638 134.675C130.205 135.242 131.339 135.695 132.246 135.695C133.266 135.695 134.06 135.242 134.627 134.278C135.364 133.088 135.364 132.634 134.74 131.557C134.287 130.877 133.38 130.14 132.699 129.913C131.906 129.686 130.999 129.97 130.035 130.707ZM80.8305 130.99C80.2636 131.614 79.9802 132.691 80.0369 133.711C80.1502 134.845 80.7171 135.638 81.7375 136.262C83.1547 137.056 83.3247 137.056 84.7419 135.695C85.5355 134.902 86.1591 133.824 86.1591 133.258C86.1591 132.747 85.6489 131.784 85.0254 131.16C84.4018 130.537 83.4381 130.026 82.8145 130.026C82.2477 130.026 81.3407 130.48 80.8305 130.99ZM191.201 131.16C190.464 131.387 189.16 132.634 188.196 133.824C186.836 135.525 186.496 136.545 186.496 138.643C186.496 140.173 186.893 142.044 187.403 142.894C187.856 143.801 189.16 145.049 190.237 145.729C191.484 146.579 193.015 147.033 194.602 147.033C195.963 147.033 197.777 146.522 198.854 145.899C199.817 145.275 201.178 143.745 201.801 142.498C202.425 141.251 202.935 139.55 202.935 138.643C202.935 137.793 202.368 136.092 201.631 134.902C200.951 133.711 199.477 132.237 198.4 131.67C197.323 131.047 195.509 130.593 194.432 130.65C193.355 130.65 191.881 130.877 191.201 131.16ZM138.538 134.448C138.198 134.675 137.631 135.412 137.234 136.092C136.781 137.112 136.781 137.679 137.348 138.643C137.801 139.38 138.652 140.117 139.332 140.344C140.296 140.684 140.919 140.457 141.996 139.38C142.79 138.586 143.413 137.566 143.413 137.112C143.413 136.659 142.903 135.752 142.28 135.128C141.656 134.505 140.692 133.995 140.182 133.995C139.615 133.995 138.878 134.221 138.538 134.448ZM89.0502 135.412C88.2565 135.979 87.7463 136.829 87.7463 137.566C87.803 138.246 88.2565 139.266 88.8234 139.777C89.3903 140.344 90.354 140.797 90.9775 140.797C91.6011 140.797 92.5648 140.4 93.075 139.833C93.6418 139.266 94.0953 138.303 94.0953 137.679C94.0953 137.056 93.6985 136.092 93.1316 135.582C92.5648 135.015 91.7145 134.561 91.261 134.561C90.8075 134.561 89.7871 134.958 89.0502 135.412ZM106 134.958C105.49 135.072 104.753 135.752 104.356 136.432C103.789 137.396 103.789 138.019 104.242 138.926C104.583 139.663 105.376 140.457 106 140.797C106.756 141.175 107.511 141.175 108.267 140.797C108.891 140.457 109.684 139.72 109.968 139.096C110.346 138.341 110.346 137.585 109.968 136.829C109.684 136.205 108.891 135.468 108.267 135.128C107.644 134.788 107.077 134.618 107.02 134.618C106.907 134.675 106.453 134.788 106 134.958ZM121.589 135.468C121.079 135.922 120.682 136.829 120.682 137.452C120.738 138.019 121.249 139.04 121.872 139.663C122.496 140.287 123.516 140.797 124.14 140.797C124.763 140.797 125.784 140.173 126.407 139.38C127.371 138.189 127.428 137.736 126.917 136.659C126.521 135.979 125.954 135.242 125.614 135.015C125.273 134.788 124.423 134.561 123.743 134.561C123.063 134.561 122.099 134.958 121.589 135.468ZM72.1573 136.602C71.1936 137.963 71.1936 138.076 72.3274 139.55C73.0076 140.4 74.028 141.137 74.5949 141.251C75.1617 141.307 76.1254 141.08 76.6923 140.684C77.3159 140.287 77.7694 139.323 77.826 138.53C77.8827 137.736 77.4859 136.659 77.0891 136.092C76.6356 135.525 75.5586 135.072 74.7082 135.128C73.6879 135.128 72.7809 135.638 72.1573 136.602ZM113.086 139.72C112.179 140.344 111.442 141.307 111.555 141.817C111.612 142.384 112.065 143.348 112.519 144.028C113.029 144.822 113.936 145.332 114.786 145.332C115.58 145.332 116.714 144.822 117.337 144.198C117.961 143.575 118.471 142.668 118.471 142.214C118.471 141.761 117.791 140.74 116.94 139.947C116.033 139.153 115.24 138.53 115.07 138.53C114.9 138.53 114.049 139.096 113.086 139.72ZM130.092 139.947C129.242 140.684 128.561 141.647 128.618 142.044C128.618 142.441 129.071 143.348 129.525 144.028C130.035 144.879 130.942 145.332 131.963 145.332C132.813 145.389 133.947 144.935 134.457 144.368C135.024 143.801 135.477 142.894 135.477 142.328C135.477 141.817 134.797 140.74 133.947 139.947C133.04 139.153 132.189 138.473 132.019 138.53C131.849 138.53 130.999 139.153 130.092 139.947ZM80.7738 140.684C80.2069 141.251 79.7534 142.214 79.8101 142.838C79.8668 143.405 80.3203 144.368 80.8872 144.879C81.4541 145.445 82.4177 145.899 83.0413 145.899C83.6649 145.899 84.6285 145.502 85.1387 144.935C85.7056 144.368 86.1591 143.348 86.1591 142.611C86.1591 141.931 85.7623 140.967 85.3088 140.514C84.8553 140.06 83.8349 139.663 83.098 139.663C82.4177 139.663 81.3407 140.117 80.7738 140.684ZM96.6463 141.08C96.1928 141.874 95.9093 143.008 96.0794 143.631C96.2495 144.255 96.873 144.992 97.4966 145.332C98.1201 145.672 99.1972 145.786 99.9341 145.615C100.614 145.445 101.521 144.595 101.918 143.745C102.485 142.441 102.485 141.987 101.748 140.91C101.181 140.117 100.331 139.663 99.1972 139.663C98.0068 139.663 97.2698 140.06 96.6463 141.08ZM32.3628 142.271C31.5691 142.781 31.0589 143.631 31.0589 144.368C31.1156 145.049 31.4558 145.956 31.8526 146.352C32.2494 146.749 33.0997 147.033 33.7232 147.089C34.3468 147.089 35.1971 146.749 35.5939 146.352C35.9907 145.956 36.2175 144.992 36.1608 144.255C36.0474 143.518 35.4806 142.554 34.8003 142.158C33.8366 141.477 33.4398 141.534 32.3628 142.271ZM42.7932 142.384C42.2264 142.951 41.7729 143.801 41.8295 144.255C41.8862 144.708 42.3964 145.559 43.0767 146.182C43.7569 146.919 44.5505 147.146 45.0607 146.863C45.5142 146.636 46.2512 145.842 46.648 145.049C47.2148 143.858 47.1582 143.518 46.1945 142.498C45.5709 141.874 44.7773 141.307 44.4372 141.364C44.097 141.364 43.3601 141.817 42.7932 142.384ZM168.413 142.781C167.676 143.291 167.109 144.142 167.109 144.652C167.165 145.162 167.676 146.126 168.299 146.749C169.433 147.826 169.546 147.826 170.907 146.863C171.7 146.352 172.324 145.445 172.324 144.879C172.381 144.368 171.927 143.461 171.36 142.951C170.793 142.384 170.227 141.931 170.056 141.931C169.886 141.931 169.149 142.328 168.413 142.781ZM178.843 143.518C178.276 144.085 177.823 144.992 177.879 145.502C177.936 146.012 178.673 146.919 179.467 147.429C180.827 148.393 180.94 148.393 182.131 147.203C183.151 146.126 183.265 145.672 182.811 144.368C182.471 143.461 181.734 142.724 181.054 142.611C180.43 142.498 179.41 142.951 178.843 143.518ZM104.866 144.879C104.412 145.275 104.129 146.296 104.186 147.146C104.242 148.11 104.866 149.13 105.773 149.697C106.963 150.547 107.417 150.604 108.607 149.98C109.344 149.64 110.138 148.62 110.308 147.713C110.535 146.636 110.308 145.899 109.571 145.162C109.004 144.595 107.927 144.142 107.133 144.198C106.283 144.198 105.319 144.482 104.866 144.879ZM66.0351 146.182C65.1281 146.693 63.881 147.543 63.2574 148.053C62.6905 148.563 61.8969 149.81 61.5001 150.717C61.1033 151.624 60.9332 153.438 61.0466 154.685C61.16 156.103 61.8969 157.747 62.9173 159.05C63.9376 160.354 65.4682 161.488 66.772 161.885C68.3026 162.338 69.493 162.338 71.1369 161.885C72.4974 161.545 74.1414 160.468 75.2751 159.277C76.3522 158.087 77.2025 156.386 77.4292 155.082C77.656 153.608 77.4292 152.305 76.749 150.774C76.1254 149.527 74.935 147.94 73.9713 147.203C73.0643 146.466 71.2503 145.729 70.0032 145.559C68.4915 145.37 67.1688 145.578 66.0351 146.182ZM144.037 146.409C142.676 147.033 140.976 148.336 140.239 149.357C139.332 150.661 138.878 152.078 138.878 153.835C138.878 155.422 139.332 157.066 140.012 158.2C140.636 159.22 141.996 160.581 143.017 161.204C144.037 161.828 145.851 162.338 147.098 162.338C148.345 162.338 150.159 161.828 151.236 161.204C152.2 160.581 153.56 159.22 154.184 158.2C154.808 157.236 155.318 155.366 155.318 154.119C155.318 152.701 154.864 151.114 154.071 149.924C153.334 148.847 152.03 147.543 151.066 146.976C150.159 146.466 148.742 145.899 147.948 145.729C147.098 145.502 145.454 145.842 144.037 146.409ZM7.3636 148.28C6.28654 149.017 4.92605 150.491 4.30249 151.568C3.73561 152.645 3.22542 154.345 3.22542 155.252C3.22542 156.159 3.73561 157.86 4.30249 158.937C4.92605 160.014 6.34323 161.488 7.4203 162.225C8.49736 162.962 10.198 163.472 11.3317 163.472C12.4088 163.472 14.1661 163.018 15.2432 162.452C16.3202 161.941 17.6807 160.864 18.2476 160.071C18.8711 159.277 19.438 157.52 19.6081 156.103C19.8348 154.289 19.6081 152.985 18.8712 151.568C18.3043 150.491 16.9438 149.017 15.8667 148.28C14.6196 147.486 13.0323 147.033 11.5585 147.033C10.1413 147.033 8.55404 147.543 7.3636 148.28ZM113.086 149.187C112.519 149.754 112.065 150.717 112.122 151.341C112.179 151.908 112.632 152.871 113.199 153.382C113.766 153.948 114.9 154.402 115.807 154.402C116.77 154.402 117.564 154.005 117.904 153.268C118.244 152.645 118.471 151.681 118.471 151.114C118.528 150.604 118.074 149.697 117.507 149.187C116.94 148.62 115.977 148.166 115.296 148.166C114.616 148.166 113.652 148.62 113.086 149.187ZM200.554 149.3C199.704 149.867 198.457 151.057 197.833 151.964C197.04 153.042 196.7 154.459 196.7 156.386C196.756 158.143 197.153 159.844 197.777 160.921C198.344 161.828 199.817 163.075 201.008 163.699C202.482 164.379 204.012 164.662 205.486 164.492C206.733 164.379 208.547 163.755 209.454 163.075C210.418 162.452 211.608 160.808 212.175 159.447C212.912 157.747 213.082 156.329 212.855 154.969C212.629 153.892 211.948 152.361 211.325 151.568C210.701 150.774 209.398 149.697 208.434 149.187C207.413 148.677 205.599 148.223 204.352 148.223C203.105 148.223 201.405 148.733 200.554 149.3ZM51.2397 149.924C50.446 150.774 50.3327 151.284 50.7295 151.964C51.0696 152.418 51.7499 153.155 52.26 153.495C52.997 154.005 53.4505 153.892 54.4142 152.985C55.0377 152.361 55.6046 151.511 55.5479 151.114C55.5479 150.774 54.981 150.037 54.3008 149.584C53.5638 149.13 52.8269 148.733 52.6568 148.733C52.4868 148.733 51.8065 149.243 51.2397 149.924ZM96.9297 149.867C96.3061 150.491 95.796 151.341 95.796 151.681C95.796 152.078 96.3061 152.985 96.9297 153.665C97.5533 154.402 98.5736 154.969 99.1972 154.969C99.8208 154.969 100.841 154.459 101.465 153.835C102.088 153.212 102.598 152.361 102.598 151.964C102.598 151.624 102.202 150.717 101.748 149.98C101.238 149.243 100.331 148.733 99.4806 148.733C98.687 148.733 97.5533 149.243 96.9297 149.867ZM24.6533 150.094C23.6896 150.774 23.6329 151.171 24.0864 152.531C24.4265 153.382 25.0501 154.175 25.5036 154.289C25.9571 154.402 26.9774 153.948 27.7711 153.382C29.1316 152.305 29.1883 152.248 28.2246 150.774C27.6577 149.98 26.8641 149.3 26.4673 149.3C26.0704 149.3 25.2768 149.64 24.6533 150.094ZM160.136 150.094C159.116 150.887 159.059 151.057 159.853 152.475C160.306 153.325 160.986 154.119 161.27 154.232C161.61 154.345 162.46 153.948 163.254 153.382C164.558 152.361 164.614 152.134 163.991 150.774C163.594 149.98 162.8 149.3 162.234 149.3C161.667 149.3 160.76 149.64 160.136 150.094ZM36.5576 150.774C35.6506 151.228 34.2901 152.191 33.5532 152.871C32.8162 153.552 31.9659 155.026 31.6258 156.103C31.2857 157.236 31.229 159.05 31.4558 160.354C31.7392 161.885 32.5328 163.245 33.8933 164.606C35.0837 165.739 36.8977 166.817 37.9748 167.043C39.0519 167.27 40.8659 167.213 41.9429 166.873C43.02 166.59 44.7206 165.513 45.6843 164.492C46.7047 163.472 47.7817 161.715 48.1218 160.638C48.5753 159.22 48.632 158.2 48.1785 156.953C47.8384 156.046 47.2715 154.629 46.8747 153.892C46.5346 153.155 45.1741 151.964 43.927 151.227C42.6799 150.491 40.9226 149.867 39.9589 149.867C39.0519 149.867 37.5213 150.264 36.5576 150.774ZM187.063 151.001C186.439 151.624 185.929 152.305 185.929 152.531C185.929 152.815 186.326 153.552 186.779 154.232C187.233 154.969 188.083 155.536 188.65 155.536C189.16 155.592 190.067 155.139 190.577 154.572C191.144 154.005 191.598 153.212 191.598 152.815C191.598 152.475 191.088 151.624 190.464 151.001C189.84 150.377 189.103 149.867 188.763 149.867C188.48 149.867 187.686 150.377 187.063 151.001ZM170.623 152.021C169.546 152.531 168.299 153.608 167.789 154.345C167.279 155.139 166.939 157.01 166.939 159.22C166.939 162.565 167.052 162.962 168.923 164.889C170 165.966 171.814 167.157 172.891 167.497C173.968 167.837 175.725 167.95 176.746 167.78C177.709 167.61 179.467 166.59 180.6 165.569C181.677 164.606 182.868 162.848 183.208 161.771C183.548 160.694 183.661 158.88 183.435 157.803C183.208 156.726 182.584 155.139 181.961 154.232C181.337 153.382 180.09 152.305 179.126 151.851C178.219 151.398 176.349 151.001 175.045 151.001C173.684 151.001 171.7 151.454 170.623 152.021ZM105.66 153.948C104.639 154.685 104.072 155.479 104.129 156.273C104.186 156.953 104.696 157.973 105.263 158.483C105.83 159.05 106.85 159.504 107.587 159.504C108.267 159.504 109.344 158.937 109.968 158.2C110.591 157.52 111.102 156.84 111.102 156.669C111.102 156.499 110.705 155.819 110.251 155.082C109.798 154.402 108.947 153.608 108.324 153.325C107.587 152.928 106.85 153.098 105.66 153.948ZM53.0537 159.561C52.2033 160.184 51.4664 161.034 51.5231 161.375C51.5231 161.771 51.9766 162.508 52.5435 163.018C53.1104 163.585 53.9607 164.039 54.4142 164.039C54.8677 164.039 55.718 163.642 56.2848 163.075C56.8517 162.508 57.2485 161.601 57.1351 160.978C57.0218 160.411 56.4549 159.561 55.7746 159.164C54.7543 158.427 54.4142 158.483 53.0537 159.561ZM23.4628 160.694C22.6692 161.318 22.0456 162.225 22.0456 162.678C22.1023 163.132 22.7259 163.869 23.5195 164.322C24.4265 164.889 25.2768 165.003 25.9571 164.662C26.4673 164.436 27.0908 163.755 27.3743 163.245C27.601 162.735 27.4309 161.828 27.0908 161.204C26.694 160.581 26.0138 159.957 25.6736 159.844C25.2768 159.674 24.3131 160.071 23.4628 160.694ZM157.755 160.921C156.792 162.282 156.792 162.395 157.869 163.529C158.492 164.152 159.513 164.662 160.193 164.606C160.816 164.606 161.61 164.266 162.007 163.869C162.404 163.529 162.687 162.792 162.687 162.338C162.744 161.885 162.29 161.034 161.723 160.524C161.157 159.957 160.25 159.504 159.739 159.504C159.172 159.504 158.265 160.127 157.755 160.921ZM187.913 161.091C187.346 161.658 186.893 162.508 186.949 162.962C187.006 163.415 187.46 164.209 188.026 164.719C188.593 165.286 189.33 165.739 189.614 165.739C189.897 165.739 190.634 165.343 191.144 164.776C191.711 164.209 192.165 163.359 192.165 162.905C192.165 162.452 191.768 161.601 191.201 161.091C190.634 160.524 189.897 160.071 189.557 160.071C189.217 160.071 188.48 160.524 187.913 161.091ZM113.766 163.925C112.632 164.436 111.045 165.796 110.251 166.873C109.231 168.29 108.834 169.594 108.834 171.238C108.834 172.599 109.174 174.356 109.628 175.206C110.081 176.113 110.875 177.247 111.442 177.757C112.065 178.267 113.652 179.004 115.07 179.401C117.337 180.081 117.904 180.025 120.115 179.004C121.589 178.381 123.176 177.077 123.97 175.943C124.82 174.639 125.273 173.166 125.273 171.692C125.273 170.388 124.707 168.517 123.97 167.27C123.289 166.08 121.986 164.776 121.022 164.379C120.115 163.982 118.528 163.472 117.621 163.302C116.544 163.132 115.07 163.359 113.766 163.925ZM92.6782 165.116C91.7145 165.683 90.2973 167.043 89.5603 168.12C88.5967 169.424 88.1998 170.728 88.1998 172.542C88.1998 174.243 88.6155 175.698 89.447 176.907C90.1272 177.927 91.7145 179.288 92.9616 179.911C94.2087 180.535 95.7393 181.045 96.3628 181.045C96.9864 181.045 98.517 180.535 99.7641 179.911C101.011 179.288 102.598 177.927 103.279 176.907C104.129 175.716 104.526 174.243 104.583 172.429C104.583 170.615 104.186 169.311 103.392 168.177C102.769 167.327 101.351 166.023 100.274 165.286C99.1405 164.549 97.4966 164.039 96.3628 164.039C95.2858 164.039 93.5851 164.549 92.6782 165.116ZM61.8402 165.626C60.7631 166.136 59.2326 167.44 58.439 168.517C57.2485 170.104 56.9651 171.011 57.0785 173.336C57.1918 175.433 57.5886 176.737 58.6657 178.041C59.4593 179.061 61.1599 180.308 62.5204 180.818C64.3344 181.499 65.4115 181.555 67.1688 181.102C68.5293 180.818 70.1733 179.798 71.1936 178.664C72.1573 177.587 73.121 175.83 73.3477 174.526C73.6312 172.995 73.5178 171.635 72.9509 170.274C72.4974 169.197 71.5337 167.724 70.7968 166.987C70.0599 166.306 68.4159 165.456 67.1688 165.173C65.9217 164.889 64.6746 164.606 64.3345 164.606C64.051 164.606 62.9173 165.059 61.8402 165.626ZM144.887 166.476C143.697 167.157 142.223 168.631 141.656 169.708C141.033 170.785 140.579 172.372 140.579 173.222C140.579 174.129 140.919 175.66 141.316 176.623C141.713 177.644 142.96 179.174 144.037 180.025C145.568 181.272 146.588 181.555 148.799 181.612C150.556 181.612 152.313 181.215 153.334 180.592C154.297 180.025 155.601 178.437 156.281 177.077C157.245 175.206 157.472 174.016 157.245 172.542C157.018 171.465 156.281 169.708 155.544 168.687C154.808 167.724 153.22 166.476 152.087 166.023C150.896 165.513 149.309 165.173 148.515 165.173C147.722 165.173 146.078 165.739 144.887 166.476ZM10.1413 167.61C9.06422 168.29 7.76041 169.764 7.19354 170.841C6.56998 172.088 6.22986 173.676 6.39992 175.093C6.5133 176.34 7.13686 178.211 7.81711 179.174C8.49735 180.195 9.91454 181.442 10.9349 181.895C11.8986 182.406 13.5992 182.746 14.6196 182.746C15.5833 182.746 17.1138 182.406 18.0208 181.952C18.8712 181.499 20.0616 180.535 20.7418 179.798C21.3654 179.118 22.2724 177.587 22.6692 176.51C23.2928 174.866 23.2928 174.186 22.6125 172.315C22.159 171.125 21.1953 169.481 20.4017 168.687C19.6081 167.95 18.4177 167.1 17.7374 166.817C17.0005 166.533 15.4699 166.306 14.2795 166.306C12.9757 166.306 11.3317 166.817 10.1413 167.61ZM196.416 167.724C195.509 168.234 194.149 169.197 193.412 169.878C192.675 170.558 191.881 172.088 191.598 173.222C191.201 174.583 191.201 176.17 191.598 177.474C191.881 178.664 192.675 180.195 193.412 180.818C194.149 181.499 195.339 182.349 196.133 182.746C196.926 183.143 198.57 183.483 199.817 183.483C201.064 183.483 202.652 183.199 203.332 182.859C204.069 182.462 205.316 181.215 206.166 180.025C207.073 178.834 207.81 176.964 207.924 175.66C208.094 173.959 207.81 172.882 206.79 171.465C206.11 170.388 204.863 169.027 204.069 168.46C203.275 167.894 201.631 167.27 200.384 167.1C198.91 166.93 197.55 167.157 196.416 167.724ZM48.462 168.46C47.8951 169.027 47.4416 169.878 47.4983 170.331C47.555 170.785 48.0652 171.578 48.7454 172.088C49.539 172.825 50.1626 172.939 50.8429 172.599C51.4097 172.372 52.0333 171.692 52.26 171.181C52.5435 170.671 52.7135 170.161 52.7135 169.991C52.7135 169.821 52.1467 169.197 51.4097 168.574C50.7295 167.95 49.9925 167.44 49.8225 167.44C49.6524 167.44 49.0289 167.894 48.462 168.46ZM28.9048 169.708C27.9411 170.671 27.8844 171.011 28.4513 172.259C28.9048 173.109 29.6418 173.676 30.322 173.676C31.0023 173.676 31.7959 173.336 32.1927 172.939C32.5895 172.599 32.8729 171.805 32.8729 171.238C32.8729 170.728 32.4761 169.878 32.0226 169.424C31.5691 168.971 30.8889 168.574 30.6054 168.574C30.2653 168.574 29.5284 169.084 28.9048 169.708ZM163.594 169.197C162.914 169.538 162.517 170.274 162.63 171.011C162.687 171.692 163.084 172.712 163.537 173.222C164.274 174.073 164.614 174.129 165.805 173.506C166.825 173.052 167.222 172.372 167.222 171.238C167.222 170.274 166.825 169.481 166.088 169.141C165.465 168.801 164.898 168.574 164.785 168.574C164.728 168.574 164.161 168.857 163.594 169.197ZM182.811 170.048C182.301 170.501 181.904 171.238 181.904 171.578C181.904 171.975 182.358 172.712 182.925 173.279C183.605 173.959 184.398 174.186 185.192 174.016C186.099 173.789 186.553 173.166 186.666 172.145C186.779 171.352 186.439 170.331 185.929 169.878C185.475 169.481 184.795 169.141 184.398 169.141C184.058 169.141 183.321 169.538 182.811 170.048ZM38.5984 172.259C38.2582 172.712 38.0882 173.732 38.2582 174.526C38.4283 175.32 38.9952 176.113 39.5054 176.283C40.0722 176.51 41.0926 176.34 41.7729 176C42.5665 175.66 43.0767 174.866 43.0767 174.073C43.0767 173.392 42.7932 172.485 42.3964 172.088C41.9996 171.692 41.0926 171.408 40.469 171.408C39.7888 171.408 38.9385 171.805 38.5984 172.259ZM173.231 172.599C172.607 172.939 172.154 173.676 172.211 174.413C172.267 175.093 172.607 176 173.004 176.397C173.401 176.794 174.251 177.077 174.875 177.077C175.555 177.077 176.349 176.737 176.746 176.34C177.142 176 177.426 175.206 177.426 174.639C177.426 174.129 177.029 173.279 176.576 172.825C176.122 172.372 175.385 171.975 174.988 171.975C174.648 171.975 173.798 172.259 173.231 172.599ZM128.164 176.737C127.087 177.134 125.614 178.267 124.877 179.288C124.196 180.251 123.403 182.009 123.233 183.143C123.063 184.39 123.233 186.034 123.629 186.997C124.026 187.904 124.707 189.151 125.217 189.775C125.727 190.342 127.144 191.306 128.391 191.929C130.035 192.779 131.226 193.006 132.643 192.723C133.72 192.553 135.477 191.759 136.441 190.965C137.461 190.172 138.708 188.755 139.162 187.848C139.615 186.941 140.012 185.297 140.012 184.276C140.012 183.313 139.445 181.612 138.765 180.535C138.028 179.458 136.838 178.097 136.044 177.53C135.25 176.964 133.606 176.34 132.359 176.17C131.112 176.057 129.242 176.283 128.164 176.737ZM26.6373 179.798C24.9367 180.856 23.8407 182.028 23.3495 183.313C22.9526 184.39 22.6692 185.977 22.6692 186.827C22.6692 187.734 23.0093 189.095 23.4628 189.945C23.9163 190.852 24.9367 192.156 25.787 192.949C26.9208 194.026 28.1112 194.423 30.6054 194.65C33.8933 194.933 33.8933 194.933 36.5009 192.383C38.8251 190.058 39.0519 189.605 39.1086 186.997C39.1086 184.957 38.7684 183.596 37.8047 182.179C37.1245 181.102 35.6506 179.741 34.5736 179.231C33.4965 178.721 31.7959 178.267 30.8889 178.211C29.9252 178.211 28.0545 178.948 26.6373 179.798ZM48.6887 178.948C47.6117 179.231 46.1378 179.911 45.4009 180.422C44.6639 180.932 43.5869 182.292 43.02 183.426C42.3964 184.616 41.9429 186.26 41.9429 187.111C41.9996 188.018 42.5098 189.605 43.1334 190.682C43.7569 191.759 44.9473 193.176 45.7977 193.743C46.648 194.423 48.5754 194.99 50.1626 195.104C52.4301 195.274 53.3938 195.047 54.981 193.97C56.0581 193.176 57.4186 191.646 57.9288 190.512C58.4957 189.378 58.9491 187.904 58.9491 187.281C58.9491 186.657 58.4957 185.07 57.9288 183.766C57.4186 182.519 56.3415 180.988 55.5479 180.478C54.7543 179.968 53.3371 179.288 52.3734 178.948C51.183 178.608 49.8792 178.608 48.6887 178.948ZM78.2229 179.231C77.1458 179.741 75.6719 181.102 74.935 182.179C74.1981 183.369 73.6879 185.013 73.6879 186.26C73.6879 187.451 74.0847 189.265 74.5382 190.228C74.9917 191.249 76.2388 192.666 77.2592 193.346C78.4685 194.215 79.9235 194.65 81.6241 194.65C83.2114 194.65 84.912 194.197 85.989 193.516C87.0094 192.893 88.3699 191.532 88.9935 190.512C89.6737 189.435 90.1272 187.678 90.1272 186.26C90.1272 184.39 89.7304 183.426 88.2565 181.669C87.2929 180.478 85.6489 179.231 84.7419 178.834C83.8349 178.494 82.4177 178.211 81.6241 178.211C80.8305 178.211 79.2999 178.664 78.2229 179.231ZM161.553 178.834C160.76 179.174 159.683 179.855 159.059 180.365C158.492 180.875 157.529 182.292 156.962 183.426C156.395 184.616 155.885 186.147 155.885 186.827C155.885 187.564 156.451 189.151 157.188 190.398C157.982 191.872 159.343 193.119 160.986 194.026C163.254 195.217 163.821 195.274 165.918 194.707C167.279 194.367 169.149 193.403 170.113 192.496C171.02 191.646 172.097 190.058 172.437 188.981C172.777 187.904 172.834 186.147 172.664 185.127C172.494 184.163 171.644 182.519 170.737 181.499C169.886 180.535 168.356 179.401 167.335 178.948C166.372 178.551 164.955 178.211 164.218 178.267C163.537 178.267 162.347 178.551 161.553 178.834ZM180.26 181.102C179.126 181.725 177.709 183.029 176.972 184.049C176.179 185.24 175.725 186.714 175.725 188.414C175.669 190.228 176.065 191.476 176.972 192.666C177.653 193.573 178.616 194.593 179.126 194.933C179.58 195.274 180.77 195.784 181.677 196.181C182.868 196.634 184.115 196.634 185.646 196.294C187.006 195.954 188.707 194.933 189.897 193.743C191.711 191.929 191.881 191.476 191.881 188.528C191.881 186.374 191.541 184.73 190.861 183.709C190.351 182.859 188.877 181.669 187.63 181.045C186.382 180.422 184.682 179.911 183.775 179.911C182.925 179.968 181.337 180.478 180.26 181.102ZM104.072 182.292C103.335 183.426 103.279 183.766 103.959 184.73C104.356 185.353 105.319 185.92 106.056 186.034C106.793 186.09 107.757 185.863 108.154 185.467C108.551 185.07 108.891 184.22 108.891 183.596C108.834 182.972 108.551 182.122 108.154 181.725C107.757 181.329 106.85 181.045 106.17 181.045C105.489 181.045 104.526 181.612 104.072 182.292ZM114.559 185.297C114.219 185.75 114.049 186.771 114.219 187.564C114.389 188.414 115.013 189.095 115.807 189.321C116.657 189.548 117.394 189.265 118.187 188.471C119.151 187.451 119.208 187.111 118.584 185.864C118.131 184.957 117.451 184.446 116.544 184.446C115.807 184.446 114.9 184.843 114.559 185.297ZM95.0023 186.544C94.3788 187.167 94.152 188.018 94.3221 188.811C94.4921 189.548 95.1157 190.228 95.6826 190.398C96.1928 190.569 97.0998 190.569 97.6666 190.398C98.1768 190.228 98.8004 189.491 99.0838 188.698C99.3673 187.621 99.1972 187.054 98.3469 186.43C97.7233 185.977 96.9297 185.58 96.5896 185.58C96.2495 185.58 95.5125 186.034 95.0023 186.544ZM104.583 191.022C103.335 191.476 101.862 192.269 101.295 192.836C100.728 193.346 99.8774 194.82 99.4239 196.067C98.8004 197.598 98.6303 199.072 98.9138 200.602C99.1783 202.114 100.01 203.55 101.408 204.91C102.882 206.441 104.129 207.121 106 207.405C107.984 207.745 109.061 207.575 110.761 206.781C112.009 206.158 113.596 204.91 114.333 204.003C115.296 202.756 115.693 201.509 115.75 199.468C115.807 197.541 115.523 196.124 114.786 194.933C114.163 194.026 113.256 192.893 112.802 192.496C112.349 192.099 111.442 191.589 110.818 191.305C110.195 191.079 109.061 190.682 108.267 190.512C107.474 190.342 105.83 190.569 104.583 191.022ZM120.172 194.763C119.718 195.16 119.435 195.84 119.491 196.294C119.548 196.804 120.001 197.654 120.568 198.221C121.249 198.902 122.042 199.128 122.893 198.958C123.573 198.788 124.366 198.108 124.707 197.484C125.16 196.634 125.047 196.067 124.31 195.217C123.743 194.537 122.779 194.026 122.099 194.083C121.475 194.083 120.625 194.367 120.172 194.763ZM90.1272 195.897C89.6737 196.294 89.3903 197.144 89.447 197.881C89.5036 198.618 90.1272 199.582 90.8641 200.035C91.9412 200.716 92.2813 200.772 93.245 200.092C93.8686 199.695 94.4921 198.845 94.5488 198.278C94.6622 197.654 94.3788 196.747 93.8686 196.181C93.3584 195.67 92.5081 195.217 91.9412 195.217C91.3743 195.217 90.5807 195.5 90.1272 195.897ZM131.566 197.825C130.262 199.072 128.901 200.829 128.618 201.736C128.278 202.7 128.221 204.457 128.505 205.704C128.731 207.065 129.638 208.709 130.659 209.729C131.566 210.749 133.266 211.77 134.343 212.11C135.591 212.507 137.064 212.507 138.482 212.166C139.615 211.883 141.486 210.749 142.563 209.672C144.377 207.858 144.547 207.405 144.547 204.287C144.547 201.169 144.377 200.716 142.45 198.561C140.522 196.464 139.955 196.181 137.121 195.954C134.06 195.67 133.833 195.727 131.566 197.825ZM75.6719 198.051C74.7649 198.391 73.2344 199.298 72.3841 200.205C71.5338 201.056 70.5701 202.643 70.2866 203.72C69.9465 204.91 69.9465 206.498 70.2866 207.688C70.5701 208.765 71.4771 210.466 72.3841 211.43C73.2911 212.45 74.935 213.47 76.2388 213.81C77.826 214.207 79.1299 214.207 80.4904 213.81C81.5674 213.47 83.268 212.45 84.175 211.43C85.1387 210.466 86.1024 208.765 86.3292 207.688C86.5559 206.611 86.4992 204.797 86.1591 203.72C85.8757 202.643 84.7986 200.942 83.7782 199.922C82.5311 198.675 81.1706 197.995 79.64 197.825C78.3929 197.654 76.5789 197.768 75.6719 198.051ZM118.641 205.081L117.054 206.441C118.811 208.312 119.831 208.879 120.455 208.822C121.135 208.822 121.929 208.482 122.326 208.085C122.722 207.745 123.006 207.008 123.006 206.554C123.063 206.101 122.609 205.251 122.042 204.74C121.475 204.174 120.852 203.72 120.625 203.72C120.398 203.72 119.548 204.344 118.641 205.081ZM92.6215 206.611C91.8278 207.461 91.7145 207.972 92.1113 208.652C92.4514 209.105 93.1317 209.842 93.6418 210.182C94.3788 210.693 94.8323 210.579 95.796 209.672C96.4195 209.049 96.9864 208.255 96.9864 207.972C96.9864 207.631 96.5329 206.951 95.966 206.441C95.3991 205.874 94.6622 205.421 94.3221 205.421C93.982 205.421 93.1883 205.931 92.6215 206.611ZM101.238 212.053C100.728 212.62 100.331 213.527 100.444 214.151C100.558 214.717 101.125 215.568 101.748 215.965C102.769 216.701 103.052 216.645 104.469 215.624C105.319 215.001 106 214.151 106 213.754C106.056 213.414 105.603 212.62 105.036 212.11C104.469 211.543 103.619 211.089 103.109 211.089C102.598 211.089 101.748 211.543 101.238 212.053ZM111.158 211.94C110.818 212.393 110.648 213.244 110.761 213.754C110.931 214.321 111.442 215.171 111.952 215.624C112.689 216.305 113.086 216.361 114.219 215.738C115.07 215.341 115.637 214.547 115.637 213.754C115.637 213.073 115.353 212.166 114.956 211.77C114.559 211.373 113.652 211.089 113.029 211.089C112.349 211.089 111.498 211.486 111.158 211.94ZM122.722 213.867C121.759 214.434 120.398 215.738 119.718 216.701C118.924 217.835 118.471 219.309 118.471 220.84C118.471 222.427 118.868 223.957 119.718 225.205C120.455 226.282 121.815 227.642 122.722 228.209C123.629 228.776 125.217 229.286 126.124 229.343C127.031 229.399 128.845 228.946 130.092 228.322C131.339 227.755 132.926 226.338 133.663 225.261C134.4 224.128 134.91 222.427 134.91 221.293C134.91 220.216 134.457 218.402 133.89 217.325C133.38 216.248 132.019 214.774 130.942 214.037C129.695 213.244 128.108 212.79 126.691 212.79C125.443 212.79 123.629 213.3 122.722 213.867ZM86.726 214.887C86.2725 215.058 85.2521 215.738 84.5719 216.418C83.8349 217.042 82.8712 218.289 82.4177 219.139C81.9642 220.046 81.6241 221.69 81.6241 222.824C81.6241 224.128 82.1343 225.771 82.8712 226.962C83.6082 228.039 85.082 229.399 86.1591 229.966C87.5763 230.703 88.8234 230.873 90.5807 230.703C91.8845 230.476 93.6418 229.91 94.5488 229.286C95.3991 228.719 96.5329 227.245 97.1565 226.055C97.8934 224.468 98.1201 223.221 97.8367 221.577C97.6666 220.329 97.0998 218.742 96.6463 218.005C96.1928 217.325 94.9456 216.248 93.982 215.624C92.8482 214.944 91.2043 214.491 89.8438 214.547C88.5967 214.547 87.1795 214.717 86.726 214.887ZM102.598 223.561C101.351 224.808 100.161 226.508 99.9908 227.359C99.7641 228.266 99.7641 229.853 99.9908 230.93C100.218 232.007 100.841 233.538 101.408 234.331C101.975 235.125 103.562 236.202 104.923 236.769C106.737 237.506 108.04 237.676 109.684 237.392C110.988 237.166 112.745 236.259 113.879 235.238C115.466 233.764 115.807 232.971 116.09 230.363C116.317 227.812 116.147 226.849 115.183 225.091C114.503 223.957 113.086 222.597 112.122 222.143C111.102 221.633 109.061 221.293 107.587 221.293C105.206 221.293 104.583 221.577 102.598 223.561Z" fill="#FEFEFE"/>
</svg>
