<svg width="130" height="130" viewBox="0 0 130 130" fill="none" xmlns="http://www.w3.org/2000/svg">
<path d="M17.3504 8.3098C16.378 8.92157 15.2008 10.349 14.6378 11.4706C14.0236 12.8471 13.8189 14.0706 14.0236 15.2941C14.2283 16.4667 15.3543 18.251 17.248 20.4431C18.8858 22.2784 25.3858 29.5176 31.7323 36.502C38.0276 43.4863 44.0669 50.1137 45.0906 51.2353C46.1142 52.3569 52.3071 59.2392 58.8583 66.5294C65.4095 73.8196 73.7008 82.9961 77.2835 86.9216C80.815 90.8471 85.8819 96.4549 88.4921 99.4118C91.1535 102.369 95.2992 106.957 97.7559 109.608C100.264 112.259 102.72 115.012 103.232 115.725C103.795 116.439 105.28 117.408 106.508 117.918C107.941 118.529 109.374 118.733 110.449 118.58C111.319 118.427 112.803 117.663 113.673 116.898C114.492 116.082 115.465 114.808 115.72 113.941C115.976 113.075 116.079 111.749 115.874 110.882C115.669 110.016 115.055 108.69 114.492 107.824C113.878 106.957 111.421 104.102 109.016 101.451C106.61 98.8 102.567 94.3137 100.059 91.5098C97.5512 88.7059 94.5315 85.3922 93.4055 84.1686C92.2795 82.9451 91.1024 81.6706 90.8465 81.3647C90.5394 81.0588 83.2717 73.0039 74.7244 63.4706C66.1772 53.9373 55.0709 41.651 50.1063 36.1961C45.1417 30.7412 37.5669 22.3804 33.3189 17.5882C29.0197 12.8471 24.7717 8.51372 23.9016 8.00392C22.9803 7.5451 21.5472 7.13725 20.6772 7.13725C19.8071 7.13725 18.3228 7.64706 17.3504 8.3098Z" fill="#CE8650"/>
<path d="M19.4488 13.2549C18.9882 14.1216 19.6536 15.0902 24.4646 20.4431C27.4843 23.8588 31.3228 28.1922 33.0118 30.0784C34.7008 31.9647 39.9725 37.8784 44.7323 43.1294C49.5433 48.4314 54.7126 54.1412 56.248 55.8235C57.8347 57.5059 60.8543 60.8196 62.9528 63.1647C65.0512 65.5098 66.9961 67.702 67.3032 68.0078C67.6102 68.3137 69.6575 70.6588 71.9095 73.1569C74.1614 75.7059 76.1575 77.8471 76.311 78C76.4646 78.1529 80.6102 82.7412 85.5236 88.1961C90.437 93.702 97.6024 101.655 101.492 105.937C105.331 110.22 108.709 113.686 108.965 113.686C109.22 113.686 109.835 113.329 110.244 112.922C110.756 112.463 110.909 111.851 110.705 111.443C110.449 111.035 107.89 107.976 104.921 104.663C101.953 101.349 94.378 92.9372 88.0315 85.9529C81.685 78.9686 72.3701 68.6196 67.3543 63.0118C62.2874 57.3529 54.9173 49.1961 50.9764 44.8627C46.9843 40.5294 42.8386 35.8902 41.7126 34.6157C40.5866 33.3412 35.5709 27.7843 30.6063 22.2784C25.5906 16.7725 21.1378 12.2353 20.7284 12.2353C20.3189 12.2353 19.7559 12.6941 19.4488 13.2549Z" fill="#F7F7F7"/>
</svg>
