<svg width="130" height="130" viewBox="0 0 130 130" fill="none" xmlns="http://www.w3.org/2000/svg">
<path d="M114.537 119.286C114.537 119.457 115.11 119.971 115.769 120.486C116.427 121 117.172 121.429 117.401 121.429C117.63 121.429 117.372 121.143 116.828 120.829C116.284 120.486 115.54 119.943 115.167 119.6C114.824 119.286 114.537 119.114 114.537 119.286Z" fill="#E0E0E0"/>
<path d="M123.414 107.514C123.414 107.629 124.044 108.314 124.817 109.057C125.562 109.829 126.478 110.914 126.822 111.486C127.137 112.086 127.709 113.057 128.053 113.629C128.511 114.429 128.654 115.2 128.683 116.571C128.683 118.114 128.54 118.629 127.938 119.571C127.509 120.2 126.678 121.057 126.077 121.486C125.476 121.914 124.645 122.4 124.187 122.543C123.758 122.714 123.013 122.857 122.555 122.857C122.097 122.857 121.667 122.714 121.61 122.543C121.582 122.371 121.295 122.343 120.98 122.457C120.493 122.6 120.465 122.686 120.837 122.886C121.066 123.029 121.868 123.143 122.641 123.143C123.385 123.143 124.33 122.971 124.76 122.8C125.218 122.6 126.048 122.057 126.678 121.571C127.28 121.114 128.11 120.057 128.482 119.286C129.112 118.029 129.198 117.629 129.026 116.057C128.883 114.657 128.597 113.886 127.623 112.314C126.965 111.229 126.077 109.971 125.676 109.543C125.275 109.086 124.617 108.4 124.187 108C123.758 107.6 123.414 107.371 123.414 107.486V107.514Z" fill="#E0E0E0"/>
<path d="M95.9251 100C95.9251 100.143 96.0969 100.286 96.2974 100.286C96.4692 100.257 97.0418 100.629 97.5 101.086C97.9581 101.543 99.3899 103 100.65 104.314C101.91 105.629 103.284 107.2 103.656 107.771C104.057 108.371 104.458 108.857 104.601 108.857C104.716 108.857 104.802 109.029 104.802 109.229C104.773 109.4 105.059 109.829 105.374 110.143C105.689 110.457 105.947 110.829 105.947 111C105.947 111.171 107.207 112.571 108.725 114.143C110.271 115.714 112.075 117.486 112.762 118.086C113.421 118.657 114.051 119.143 114.194 119.143C114.308 119.143 112.791 117.657 110.844 115.8C108.667 113.743 106.72 111.6 105.861 110.286C105.059 109.114 104.344 108.086 104.229 108C104.143 107.914 103.857 107.6 103.628 107.257C103.399 106.914 101.938 105.286 100.363 103.571C98.7885 101.886 97.1564 100.314 96.7269 100.114C96.2687 99.8571 95.9537 99.8286 95.9251 100Z" fill="#E0E0E0"/>
<path d="M75.5947 83.2286C75.5947 83.3429 76.0242 83.8286 76.5396 84.3143C77.0264 84.8 78.3722 86.0571 79.489 87.1143C80.6057 88.1429 82.9824 90.3429 84.7863 92C86.5617 93.6571 88.5374 95.5428 89.196 96.2286C89.826 96.8857 90.4273 97.4286 90.5419 97.4286C90.685 97.4286 91.1718 97.6857 91.63 98C92.0881 98.3143 92.5463 98.5143 92.6322 98.4286C92.7181 98.3429 92.3744 98.0857 91.9163 97.8571C91.4581 97.6286 90.1123 96.5714 88.967 95.5143C87.8502 94.4857 85.4163 92.2571 83.6123 90.6C81.8084 88.9429 79.2599 86.5429 77.9714 85.2857C76.6542 84.0286 75.5947 83.0857 75.5947 83.2V83.2286Z" fill="#E0E0E0"/>
<path d="M94.2643 80.2C94.2357 80.3143 94.4648 80.6286 94.7511 80.8571C95.0374 81.0857 95.8965 81.8571 96.6696 82.5714C97.4427 83.2857 98.2731 84.1429 98.5022 84.4571C98.7313 84.8 99.3899 85.5714 99.9339 86.1714C100.478 86.8 101.308 87.8 101.795 88.4286C102.253 89.0571 104.258 91.2 106.233 93.1714C108.209 95.1429 111.159 97.7429 112.819 98.9714C114.48 100.171 116.599 101.771 117.544 102.514C118.489 103.257 120.121 104.686 121.209 105.714C122.269 106.743 123.156 107.486 123.128 107.371C123.128 107.229 122.412 106.457 121.524 105.657C120.637 104.829 119.548 103.829 119.119 103.429C118.689 103.029 117.916 102.4 117.401 102C116.885 101.6 116.284 101.114 116.055 100.943C115.855 100.743 115.568 100.571 115.396 100.571C115.225 100.571 115.11 100.457 115.11 100.286C115.11 100.114 114.91 100 114.681 100C114.452 100 114.251 99.9143 114.251 99.8C114.251 99.6571 113.907 99.3429 113.478 99.0857C113.02 98.8286 112.304 98.3143 111.846 97.9429C111.388 97.5714 110.443 96.7714 109.698 96.1429C108.982 95.5143 106.978 93.5429 105.231 91.7714C103.513 89.9714 102.024 88.3714 101.967 88.2C101.91 88 101.165 87.1143 100.335 86.2286C99.4758 85.3143 98.8172 84.4571 98.8458 84.3143C98.8458 84.2 97.8436 83.1429 96.5837 82.0286C95.3238 80.8857 94.293 80.0571 94.2643 80.2Z" fill="#E0E0E0"/>
<path d="M67.5771 75.8C67.5771 75.9143 68.7797 77.1428 70.2401 78.5428C71.6718 79.9428 73.3899 81.5428 74.0198 82.0857C74.6498 82.6571 75.1938 83.0571 75.2511 82.9714C75.2797 82.9143 74.707 82.3143 73.9626 81.6571C73.1894 80.9714 71.4714 79.3429 70.0683 78C68.6938 76.6571 67.5771 75.6571 67.5771 75.7714V75.8Z" fill="#E0E0E0"/>
<path d="M86.7621 73.2286C86.7621 73.3429 87.4493 74.0286 88.2511 74.7714C89.0815 75.5429 90.685 77.0286 91.8018 78.1143C92.9471 79.2 93.8921 80 93.8921 79.9143C93.9207 79.8 93.0617 78.9143 92.0308 77.9143C90.9714 76.9429 89.7115 75.7429 89.2247 75.2857C88.7379 74.8286 87.9648 74.1143 87.5352 73.7143C87.1057 73.3143 86.7621 73.0857 86.7621 73.2V73.2286Z" fill="#E0E0E0"/>
<path d="M60.1608 69.1143C60.1608 69.2857 60.2467 69.4571 60.3899 69.4857C60.533 69.5429 61.8216 70.6571 63.196 72C64.5991 73.3429 66.0881 74.7429 66.5176 75.1429C66.9471 75.5429 67.3194 75.8 67.348 75.7143C67.348 75.6286 65.7731 74.0286 63.7974 72.1714C61.8216 70.3429 60.1894 68.9429 60.1608 69.1143Z" fill="#E0E0E0"/>
<path d="M71.2996 59.0857C71.2996 59.2571 71.4141 59.4571 71.5573 59.4857C71.7004 59.5429 74.0485 61.6286 76.7687 64.1429C79.489 66.6571 82.6388 69.5714 83.7269 70.6286C84.8436 71.6571 85.7885 72.5143 85.8458 72.4857C85.8744 72.4571 84.9868 71.5143 83.8414 70.4C82.696 69.2571 81.1211 67.7714 80.348 67.1143C79.5749 66.4286 78.5441 65.4857 78.0573 65.0286C77.5705 64.6 76.196 63.3143 74.9934 62.1714C73.8194 61.0571 72.5022 59.8286 72.0727 59.4286C71.6432 59.0286 71.2996 58.8857 71.2996 59.0571V59.0857Z" fill="#E0E0E0"/>
<path d="M37.2247 47.8C37.2247 47.9143 38.1696 48.8857 39.315 49.9714C40.4317 51.0571 42.1498 52.6286 43.0661 53.4571C44.011 54.3143 45.7291 55.8857 46.9031 57C48.0771 58.0857 49.652 59.5714 50.4251 60.2857C51.1696 61 52.2291 61.9429 52.7731 62.4286C53.3172 62.8857 55.0925 64.5429 56.7247 66.0857C58.3568 67.6286 59.7313 68.8 59.7599 68.7143C59.8172 68.6286 59.3018 68.0857 58.6145 67.5143C57.9559 66.9143 56.2379 65.3429 54.8348 64C53.4317 62.6571 51.4846 60.8571 50.5396 60C49.5947 59.1714 47.7335 57.4286 46.359 56.1714C45.0132 54.8857 43.2952 53.2857 42.4934 52.6C41.7203 51.9143 40.2313 50.4857 39.1432 49.4571C38.0837 48.4286 37.2247 47.6571 37.2247 47.7714V47.8Z" fill="#E0E0E0"/>
<path d="M55.837 44.6571C55.837 44.7714 56.4956 45.4571 57.326 46.2C58.1564 46.9714 59.7885 48.4857 60.9912 49.6C62.1652 50.7143 63.9692 52.4 65 53.3143C66.0308 54.2286 67.8062 55.8857 68.9515 57C70.0969 58.0857 71.0132 58.9143 71.0132 58.7714C71.0132 58.6571 70.641 58.2286 70.2114 57.7714C69.7533 57.3428 68.0639 55.7714 66.4317 54.2857C64.8282 52.8 62.7379 50.8571 61.8502 50C60.9339 49.1428 59.6454 47.9143 58.9581 47.3143C58.2709 46.6857 57.2687 45.8 56.7533 45.3143C56.2379 44.8286 55.837 44.5143 55.837 44.6286V44.6571Z" fill="#E0E0E0"/>
<path d="M26.2004 36.3429C26.6872 36.8286 27.2026 37.4 27.3458 37.6C27.489 37.8 28.2907 38.7429 29.0639 39.7429C29.8656 40.7429 31.9273 42.9429 33.6454 44.6286C35.3634 46.3429 36.8238 47.6571 36.8811 47.5714C36.9097 47.4857 36.3943 46.9429 35.7357 46.3429C35.0771 45.7714 33.9317 44.7143 33.2159 44C32.5 43.2857 31.326 42 30.6101 41.1429C29.9229 40.2857 29.1498 39.3429 28.9207 39.0857C28.6916 38.8286 27.9758 37.8857 27.3172 37.0286C26.6872 36.1429 25.9714 35.4286 25.7423 35.4286C25.4846 35.4286 25.6564 35.7714 26.2004 36.3429Z" fill="#E0E0E0"/>
<path d="M23.7665 33.8286C24.4824 34.5428 25.1982 35.1143 25.3414 35.1428C25.4846 35.1428 25.0551 34.5714 24.3392 33.8571C23.6233 33.1428 22.9075 32.5714 22.7643 32.5428C22.6211 32.5428 23.0507 33.1143 23.7665 33.8286Z" fill="#E0E0E0"/>
<path d="M39.2291 29.6286C39.63 29.8857 41.6916 31.7143 43.8106 33.6857C45.9295 35.6571 48.3634 37.9143 49.2225 38.7143C50.0815 39.4857 51.8282 41.1429 53.0881 42.3429C54.3767 43.5429 55.4648 44.4857 55.5507 44.4286C55.6366 44.3714 55.1498 43.8286 54.5198 43.2286C53.8612 42.6286 52.3723 41.2286 51.1982 40.1429C50.0242 39.0571 47.7049 36.9143 46.1013 35.4286C44.4692 33.9429 42.6079 32.2 41.978 31.5429C41.3194 30.9143 40.3745 30.1143 39.8877 29.7714C39.3723 29.4286 38.8568 29.1429 38.7423 29.1429C38.5991 29.1429 38.8282 29.3429 39.2291 29.6286Z" fill="#E0E0E0"/>
<path d="M16.1784 27.4286C16.2643 27.5714 16.4648 27.7143 16.6079 27.7143C16.7511 27.7143 17.0661 27.8857 17.2665 28.0857C17.4956 28.2572 18.0969 28.7429 18.641 29.1429C19.1564 29.5429 20.1872 30.4 20.9031 31.0571C21.6189 31.7143 22.2775 32.2571 22.4207 32.2857C22.5352 32.2857 22.0198 31.7429 21.2753 31.0571C20.5022 30.3714 19.2709 29.3143 18.4692 28.6857C17.696 28.0572 16.8084 27.4286 16.5507 27.3429C16.2357 27.2286 16.0925 27.2571 16.1784 27.4286Z" fill="#E0E0E0"/>
<path d="M12.8855 5.85714C12.8855 5.94285 13.315 6.19999 13.8304 6.45714C14.3172 6.74285 15.3194 7.39999 16.0352 7.97142C16.7511 8.51428 18.4692 10.0857 19.8436 11.4286C21.2467 12.7714 22.9648 14.6 23.652 15.5143C24.3392 16.4 24.9119 17.2286 24.9119 17.3428C24.9119 17.4857 25.3128 18.0286 25.7709 18.5714C26.2577 19.1143 27.2026 20.2571 27.8612 21.1143C28.5198 21.9714 29.9229 23.5428 30.9824 24.6286C32.0705 25.6857 33.2445 26.8 33.6454 27.0571C34.0463 27.3428 34.4758 27.4857 34.5903 27.3714C34.7048 27.2571 34.533 27.1143 34.2181 27.0286C33.9031 26.9143 32.5573 25.7428 31.2115 24.3428C29.8656 22.9714 28.3194 21.2857 27.7753 20.5714C27.2313 19.8857 26.4295 18.9143 26 18.4286C25.5705 17.9714 25.2269 17.4286 25.1982 17.2857C25.1982 17.1428 24.8833 16.6 24.4824 16.1428C24.0815 15.6571 23.7665 15.2286 23.7665 15.1428C23.7665 15.0571 22.707 13.9143 21.3899 12.5714C20.0727 11.2286 18.4692 9.68571 17.8678 9.14285C17.2665 8.59999 16.2357 7.74285 15.6057 7.28571C14.9758 6.79999 14.1454 6.25714 13.7445 6.05714C13.3436 5.85714 13 5.71428 12.9427 5.71428C12.9141 5.71428 12.8855 5.77142 12.8855 5.85714Z" fill="#E0E0E0"/>
<path d="M5.01101 5.14285C4.23788 5.6 3.23568 6.48571 2.80617 7.05714C2.37665 7.65714 2.03304 8.37142 2.0044 8.62857C2.0044 8.91428 1.86123 9.2 1.71806 9.28571C1.57489 9.37142 1.43172 9.82857 1.43172 10.2857C1.43172 10.7429 1.57489 11.4857 1.74669 11.9429C1.9185 12.3714 2.23348 13.0286 2.40529 13.4286C2.57709 13.8286 2.80617 14.2857 2.94934 14.4286C3.06388 14.5714 3.6652 15.4857 4.23788 16.4286C4.95374 17.5143 6.52863 19.2 8.61894 21.0571C10.4229 22.6286 12.685 24.5714 13.6872 25.3428C14.6608 26.0857 15.8348 26.9143 16.2643 27.1429C16.7225 27.3714 17.9537 28.2857 19.0705 29.1714C20.1586 30.0571 22.163 31.8571 23.5088 33.1714C24.8546 34.4857 26.6586 36.4 27.5176 37.4286C28.3766 38.4571 29.1211 39.3428 29.207 39.4286C29.2929 39.5143 29.9229 40.2857 30.6388 41.1429C31.326 42 32.5 43.2857 33.2159 44C33.9604 44.7143 35.9648 46.5714 37.6828 48.1714C39.4009 49.7429 41.5198 51.6857 42.3789 52.4571C43.2379 53.2286 45.0418 54.8857 46.3877 56.1714C47.7335 57.4286 49.5947 59.1714 50.5396 60C51.4846 60.8571 53.4317 62.6571 54.8348 64C56.2665 65.3428 58.0705 67 58.8436 67.6857C59.6454 68.4 61.3062 69.9428 62.5661 71.1143C63.826 72.3143 67.1189 75.3428 69.8392 77.8571C72.5881 80.3714 75.9383 83.4571 77.2841 84.7429C78.63 86 80.4053 87.6 81.1784 88.3143C81.9802 89 83.641 90.5428 84.9009 91.7428C86.1608 92.9428 88.1079 94.7428 89.2247 95.7428C90.3414 96.7428 91.6872 97.7714 92.2313 98.0571C92.7753 98.3143 94.1498 98.9428 95.3238 99.4857C97.185 100.314 97.7863 100.8 100.335 103.543C101.938 105.257 103.399 106.914 103.628 107.257C103.857 107.6 104.143 107.914 104.229 108C104.344 108.086 105.059 109.114 105.861 110.286C106.663 111.457 108.524 113.6 109.985 115.029C111.474 116.457 113.507 118.286 114.537 119.143C115.568 119.971 117.286 121.086 118.403 121.629C119.634 122.229 120.665 122.543 121.066 122.429C121.41 122.343 121.696 122.4 121.696 122.571C121.696 122.743 122.097 122.857 122.555 122.857C123.013 122.857 123.758 122.714 124.216 122.543C124.645 122.4 125.476 121.914 126.077 121.486C126.678 121.057 127.509 120.2 127.938 119.571C128.54 118.629 128.683 118.114 128.683 116.571C128.654 115.2 128.511 114.429 128.053 113.629C127.709 113.057 127.165 112.086 126.822 111.486C126.478 110.914 125.104 109.343 123.758 108.057C122.383 106.743 120.093 104.686 118.661 103.486C117.229 102.257 114.767 100.4 113.22 99.2857C111.645 98.1714 108.696 95.6 106.52 93.4286C104.401 91.3143 102.253 89.0571 101.795 88.4286C101.308 87.8 100.478 86.8 99.9339 86.1714C99.3899 85.5714 98.7313 84.8 98.5022 84.4571C98.2731 84.1428 97.4427 83.2857 96.6696 82.5714C95.8965 81.8571 94.9802 81.0286 94.6366 80.7143C94.2929 80.4 93.0617 79.2571 91.8877 78.1428C90.7137 77.0286 88.2225 74.7143 86.3326 72.9714C84.4427 71.2286 82.0661 69.0571 81.0352 68.1143C80.0044 67.2 78.0859 65.4 76.7401 64.1429C75.3943 62.8857 73.5044 61.1429 72.5881 60.3143C71.6432 59.4571 69.9537 57.9143 68.8656 56.8857C67.7775 55.8286 66.0308 54.2286 65 53.3143C63.9692 52.4 62.1652 50.7143 60.9912 49.6C59.7885 48.4857 57.9846 46.8 56.9824 45.8857C55.9515 44.9714 54.1476 43.2857 52.9449 42.1714C51.7709 41.0571 50.0815 39.4857 49.2225 38.7143C48.3634 37.9143 45.8722 35.6 43.6674 33.5429C40.2885 30.3714 39.2863 29.6286 37.2247 28.6286C35.8789 28 34.533 27.4 34.2181 27.3143C33.9031 27.2286 32.6145 26.1714 31.3546 24.9429C30.0947 23.6857 28.5198 22 27.8612 21.1429C27.2026 20.2857 26.2577 19.1143 25.7709 18.5714C25.3128 18.0286 24.9119 17.4857 24.9119 17.3714C24.9119 17.2286 24.3392 16.4 23.652 15.5143C22.9648 14.6 21.2467 12.7714 19.8436 11.4286C18.4692 10.0857 16.7511 8.54285 16.0352 7.97142C15.3194 7.4 14.0308 6.6 13.1718 6.14285C12.3128 5.68571 11.2533 5.17142 10.7952 4.94285C10.3656 4.74285 9.22026 4.51428 8.21806 4.42857C6.61454 4.31428 6.29956 4.37142 5.01101 5.14285Z" fill="#868686"/>
<path d="M121.152 118.771C120.923 118.829 120.751 119.086 120.78 119.314C120.808 119.543 121.009 119.771 121.181 119.829C121.429 119.905 121.314 120.19 120.837 120.686C120.15 121.371 120.093 121.4 119.262 121C118.804 120.771 118.374 120.629 118.317 120.714C118.289 120.8 118.632 121.057 119.119 121.286C119.577 121.514 120.207 121.629 120.465 121.543C120.751 121.457 121.41 120.886 121.896 120.257C122.412 119.657 122.784 119.029 122.698 118.857C122.612 118.714 122.326 118.571 122.04 118.6C121.782 118.6 121.352 118.686 121.123 118.771H121.152Z" fill="#E0E0E0"/>
<path d="M109.412 107.857C108.896 108.686 108.753 108.8 108.381 108.514C108.009 108.2 107.837 108.257 107.293 108.714C106.949 109.029 106.634 109.314 106.577 109.343C106.548 109.4 106.692 109.714 106.863 110.057C107.064 110.4 107.722 111.2 108.295 111.857C108.868 112.486 109.641 113.4 109.985 113.857C110.357 114.314 111.015 115.029 111.416 115.429C111.846 115.829 112.418 116.343 112.705 116.571C113.02 116.8 113.707 117.314 114.251 117.714C114.795 118.086 115.454 118.6 115.683 118.857C115.912 119.086 116.427 119.457 116.828 119.686C117.229 119.914 118.117 120.4 118.833 120.771L120.121 121.429C121.324 120.171 121.438 119.886 121.181 119.829C121.009 119.771 120.837 119.514 120.837 119.286C120.837 119.057 121.009 118.8 121.181 118.743C121.381 118.657 121.324 118.6 121.037 118.6C120.78 118.571 120.551 118.457 120.551 118.286C120.551 118.114 120.407 118 120.264 118C120.093 118 119.978 118.2 119.978 118.429C119.978 118.657 119.892 118.857 119.749 118.857C119.634 118.886 119.377 118.686 119.176 118.429C118.89 118.086 118.918 117.971 119.262 117.771C119.606 117.629 119.262 117.114 117.63 115.571C116.456 114.457 114.824 112.686 113.936 111.571C113.077 110.457 111.932 108.971 111.445 108.2C110.93 107.457 110.414 106.857 110.271 106.857C110.128 106.857 109.727 107.314 109.412 107.857Z" fill="#F7F7F7"/>
<path d="M111.932 103.714C111.559 104.171 111.044 104.571 110.815 104.571C110.586 104.543 110.128 104.371 109.813 104.143C109.498 103.886 109.04 103.714 108.811 103.714C108.496 103.686 108.553 103.829 109.011 104.2C109.326 104.486 109.698 105.029 109.784 105.429C109.87 105.829 110.271 106.371 110.672 106.657C111.073 106.914 111.388 107.343 111.388 107.571C111.388 107.8 111.531 108 111.674 108C111.846 108 111.96 108.171 111.96 108.371C111.96 108.543 112.189 108.971 112.447 109.286C112.733 109.6 113.335 110.371 113.793 111C114.28 111.629 115.626 113.143 116.8 114.371C118.002 115.629 119.548 117.057 120.264 117.6C120.98 118.114 121.782 118.543 122.068 118.571C122.326 118.571 122.641 118.743 122.727 118.914C122.813 119.114 122.469 119.714 121.954 120.2C121.41 120.714 121.066 121.2 121.209 121.286C121.324 121.371 121.667 121.114 121.982 120.714C122.297 120.314 122.641 120 122.784 120C122.899 120 123.156 119.686 123.357 119.286C123.529 118.886 123.901 118.514 124.13 118.429C124.359 118.343 124.559 117.971 124.559 117.571C124.559 117.171 124.273 116.343 123.93 115.686C123.557 115.057 122.24 113.543 120.98 112.343C119.72 111.143 118.26 109.8 117.745 109.343C117.258 108.914 116.828 108.457 116.828 108.286C116.828 108.114 116.742 108.029 116.628 108.057C116.485 108.086 116.112 107.943 115.74 107.714C115.396 107.486 115.11 107.114 115.11 106.914C115.11 106.743 114.996 106.629 114.824 106.714C114.681 106.8 114.28 106.686 113.993 106.486C113.678 106.286 113.535 105.971 113.621 105.743C113.764 105.429 113.678 105.371 113.249 105.543C112.877 105.657 112.533 105.571 112.247 105.286C111.874 104.886 111.874 104.743 112.247 104.114C112.476 103.743 112.762 103.429 112.905 103.429C113.02 103.429 113.106 103.314 113.106 103.143C113.106 102.971 112.991 102.857 112.848 102.857C112.705 102.857 112.275 103.229 111.932 103.714Z" fill="#868686"/>
<path d="M119.491 115.943C120.551 116.914 121.467 117.714 121.553 117.714C121.639 117.714 120.894 116.971 119.949 116.057C118.976 115.171 118.031 114.371 117.859 114.286C117.687 114.229 118.403 114.971 119.463 115.943H119.491Z" fill="#E0E0E0"/>
<path d="M112.304 107.486C112.676 108 113.363 108.829 113.822 109.371C114.28 109.914 114.824 110.571 114.967 110.857C115.139 111.143 115.855 112 116.57 112.743C117.286 113.514 118.747 114.943 119.778 115.943C121.238 117.286 121.896 117.714 122.555 117.714C123.013 117.714 123.443 117.543 123.5 117.371C123.557 117.171 123.471 116.714 123.3 116.4C123.128 116.057 122.469 115.229 121.811 114.543C121.181 113.857 119.949 112.657 119.062 111.857C118.203 111.086 117.086 110.114 116.542 109.714C116.026 109.314 115.454 108.857 115.282 108.714C115.11 108.543 114.366 108 113.621 107.486C112.848 106.971 112.104 106.571 111.932 106.571C111.789 106.571 111.932 106.971 112.304 107.486Z" fill="#F7F7F7"/>
<path d="M111.474 106.6C111.817 107.257 112.619 108.4 113.249 109.143C113.879 109.914 115.024 111.314 115.826 112.257C116.599 113.229 117.372 114 117.544 114.029C117.687 114.029 117.143 113.314 116.313 112.429C115.511 111.571 114.824 110.771 114.824 110.629C114.824 110.514 114.394 109.971 113.879 109.429C113.392 108.857 112.676 108 112.304 107.486C111.96 107 111.789 106.571 111.96 106.571C112.104 106.571 112.848 106.971 113.593 107.486C114.366 108 115.11 108.543 115.282 108.714C115.454 108.857 116.026 109.314 116.542 109.714C117.086 110.114 118.203 111.057 119.062 111.857C119.949 112.629 121.181 113.857 121.811 114.543C122.469 115.229 123.128 116.057 123.3 116.4C123.5 116.714 123.557 117.143 123.443 117.314C123.357 117.514 122.956 117.714 122.555 117.8L121.839 117.914C122.956 118 123.443 117.829 123.615 117.571C123.93 117.229 123.901 116.971 123.5 116.2C123.242 115.714 122.126 114.371 121.009 113.286C119.892 112.171 118.002 110.514 116.828 109.543C115.654 108.6 113.879 107.286 112.877 106.629C111.903 105.971 111.044 105.429 110.987 105.429C110.93 105.429 111.13 105.943 111.474 106.6Z" fill="#E0E0E0"/>
<path d="M106.949 103.143C107.407 103.429 107.923 103.6 108.095 103.514C108.267 103.429 108.123 103.171 107.808 102.943C107.493 102.743 106.978 102.571 106.663 102.571C106.176 102.571 106.233 102.657 106.949 103.143Z" fill="#868686"/>
<path d="M99.3899 101.314C99.4471 101.514 100.278 102.486 101.222 103.486C102.167 104.514 103.399 105.886 103.943 106.571C104.487 107.257 104.974 107.943 105.002 108.114C105.059 108.286 105.346 108.514 105.661 108.629C105.976 108.771 106.233 109.114 106.233 109.429C106.233 109.743 106.348 110 106.52 110C106.663 110 106.806 110.171 106.806 110.343C106.835 110.543 107.751 111.8 108.896 113.114C110.042 114.457 111.703 116.114 112.59 116.829C113.507 117.543 114.623 118.429 115.11 118.771C115.568 119.143 115.969 119.371 115.969 119.286C115.969 119.2 115.797 118.971 115.597 118.771C115.425 118.571 114.795 118.086 114.251 117.714C113.707 117.314 113.02 116.8 112.705 116.571C112.418 116.343 111.846 115.829 111.416 115.429C111.015 115.029 110.357 114.314 109.985 113.857C109.641 113.4 108.868 112.486 108.295 111.857C107.722 111.2 107.064 110.4 106.863 110.057C106.692 109.714 106.548 109.4 106.577 109.343C106.634 109.314 106.949 109.029 107.293 108.714C107.837 108.257 108.009 108.2 108.381 108.486C108.753 108.8 108.896 108.686 109.383 107.857C109.698 107.314 110.07 106.857 110.242 106.857C110.385 106.857 110.93 107.457 111.445 108.2C111.932 108.971 113.077 110.457 113.936 111.571C114.824 112.657 116.456 114.457 117.63 115.571C119.262 117.114 119.606 117.629 119.262 117.771C118.918 117.971 118.89 118.086 119.176 118.429C119.377 118.686 119.634 118.886 119.749 118.857C119.892 118.857 119.978 118.657 119.978 118.429C119.978 118.2 120.093 118 120.264 118C120.407 118 120.551 118.114 120.551 118.286C120.551 118.429 120.78 118.571 121.037 118.571C121.41 118.543 121.324 118.4 120.694 117.943C120.207 117.6 118.833 116.343 117.601 115.143C116.37 113.971 114.824 112.286 114.165 111.429C113.507 110.571 112.733 109.6 112.447 109.286C112.189 108.971 111.96 108.543 111.96 108.343C111.96 108.171 111.817 108 111.674 108C111.502 108 111.388 107.8 111.388 107.571C111.388 107.343 111.073 106.914 110.672 106.629C110.271 106.371 109.87 105.829 109.784 105.429C109.698 105.029 109.326 104.486 109.011 104.229C108.381 103.743 108.381 103.743 109.441 103.8C110.013 103.829 110.586 103.743 110.729 103.629C110.844 103.514 110.815 103.171 110.643 102.914C110.471 102.657 110.156 102.429 109.927 102.429C109.698 102.429 109.555 102.657 109.584 102.914C109.641 103.2 109.498 103.429 109.24 103.429C109.011 103.429 108.753 103.286 108.667 103.143C108.581 102.971 108.438 102.857 108.295 102.857C108.181 102.857 108.066 103.114 108.009 103.429C107.98 103.771 108.181 104.114 108.524 104.286C108.839 104.429 109.211 104.829 109.383 105.143C109.612 105.6 109.498 105.857 108.725 106.571C108.238 107.057 107.579 107.457 107.293 107.429C107.035 107.429 106.778 107.543 106.72 107.686C106.692 107.8 106.377 108 106.004 108.114C105.661 108.2 105.374 108.2 105.374 108.057C105.374 107.943 105.145 107.6 104.888 107.286C104.601 106.971 103.857 106.057 103.227 105.286C102.597 104.514 101.452 103.229 100.678 102.429C99.9053 101.657 99.3326 101.143 99.3899 101.314Z" fill="#E0E0E0"/>
<path d="M109.097 106.8C109.097 106.914 108.524 107.314 107.78 107.714C107.035 108.114 106.634 108.486 106.835 108.543C107.064 108.6 107.264 108.514 107.293 108.314C107.35 108.143 107.694 108 108.095 108C108.553 108 108.954 107.743 109.211 107.286C109.412 106.886 109.469 106.571 109.355 106.571C109.211 106.571 109.097 106.657 109.097 106.771V106.8Z" fill="#868686"/>
<path d="M100.621 102.371C101.423 103.171 102.597 104.486 103.227 105.286C103.857 106.057 104.601 106.971 104.888 107.286C105.145 107.6 105.374 107.943 105.374 108.057C105.374 108.2 105.661 108.2 106.033 108.114C106.377 108 106.692 107.8 106.749 107.686C106.778 107.543 107.035 107.429 107.322 107.429C107.579 107.457 108.238 107.057 108.753 106.571C109.441 105.914 109.612 105.6 109.412 105.2C109.269 104.943 108.839 104.486 108.41 104.2C108.009 103.943 107.465 103.714 107.236 103.714C107.007 103.714 106.806 103.6 106.806 103.429C106.806 103.257 106.52 103.143 106.176 103.143C105.804 103.143 105.231 102.886 104.888 102.571C104.515 102.257 103.914 102 103.513 102C103.112 102 102.74 101.886 102.654 101.714C102.568 101.543 102.196 101.429 101.795 101.429C101.394 101.429 101.022 101.314 100.936 101.143C100.85 100.971 100.421 100.857 99.9625 100.857H99.1608L100.621 102.371Z" fill="#F7F7F7"/>
<path d="M106.806 105.714C106.806 106.029 106.921 106.343 107.093 106.429C107.264 106.514 107.608 106.514 107.894 106.429C108.352 106.286 108.352 106.229 107.808 105.714C107.493 105.371 107.15 105.114 107.007 105.143C106.892 105.143 106.806 105.4 106.806 105.714ZM105.518 103.714C105.432 103.886 105.604 104.2 105.89 104.429C106.148 104.657 106.463 104.857 106.577 104.857C106.72 104.857 106.806 104.686 106.806 104.486C106.806 104.314 106.663 103.971 106.463 103.771C106.262 103.571 106.004 103.429 105.89 103.429C105.775 103.429 105.632 103.543 105.518 103.714Z" fill="#E0E0E0"/>
<path fill-rule="evenodd" clip-rule="evenodd" d="M91.0573 78.2857C91.2863 78.4857 91.4581 78.8286 91.4009 79.0286C91.3722 79.2571 91.5727 79.4286 91.859 79.4286C92.1167 79.4286 92.5749 79.6857 92.8612 80C93.1189 80.3143 93.348 80.6857 93.348 80.8571C93.348 81.0286 93.4625 81.0857 93.6344 81C93.8062 80.9143 94.7797 81.7143 95.8678 82.8C96.9273 83.8571 98.8744 86 100.22 87.5714C101.566 89.1143 103.885 91.6857 105.374 93.2286C106.863 94.7714 109.068 96.8571 110.242 97.8286C111.416 98.8286 112.676 99.7714 113.048 99.9714C113.535 100.2 113.65 100.457 113.535 101.057C113.449 101.686 113.478 101.771 113.736 101.486C113.936 101.314 114.222 101.143 114.394 101.143C114.537 101.143 115.511 101.8 116.542 102.6C117.573 103.4 119.491 105.057 120.837 106.257C122.183 107.457 123.93 109.143 124.76 110C125.59 110.857 126.65 112.343 127.108 113.286C127.709 114.514 127.967 115.457 127.967 116.571C127.996 117.857 127.852 118.4 127.137 119.486C126.478 120.543 126.134 120.829 125.705 120.714C125.323 120.619 125.132 120.714 125.132 121C125.132 121.229 124.874 121.543 124.559 121.714C124.244 121.886 123.357 122 122.555 122C121.782 122 121.123 121.914 121.123 121.771C121.123 121.657 121.467 121.229 121.839 120.771C122.24 120.343 122.641 120 122.784 120C122.899 120 123.156 119.686 123.357 119.286C123.529 118.886 123.901 118.514 124.13 118.429C124.359 118.343 124.559 117.971 124.559 117.571C124.559 117.171 124.273 116.343 123.93 115.686C123.557 115.057 122.24 113.543 120.98 112.343C119.72 111.143 118.26 109.8 117.744 109.343C117.258 108.914 116.828 108.457 116.828 108.286C116.828 108.114 116.742 108.029 116.628 108.057C116.485 108.086 116.112 107.943 115.74 107.714C115.396 107.486 115.11 107.114 115.11 106.914C115.11 106.743 114.996 106.629 114.824 106.714C114.652 106.8 114.28 106.686 113.993 106.486C113.678 106.286 113.507 105.971 113.621 105.714C113.764 105.371 113.678 105.343 113.249 105.514C112.905 105.629 112.533 105.571 112.304 105.371C112.104 105.171 111.932 104.886 111.932 104.714C111.932 104.543 112.218 104.143 112.533 103.771C112.848 103.429 113.02 103.057 112.934 102.914C112.848 102.8 112.447 103.114 112.018 103.629C111.588 104.143 111.015 104.543 110.758 104.571C110.471 104.571 110.185 104.457 110.099 104.286C110.013 104.114 110.242 104.029 110.586 104.057C111.101 104.114 111.474 103.771 112.304 102.571C112.905 101.714 113.392 100.829 113.392 100.629C113.392 100.457 113.22 100.286 113.048 100.286C112.848 100.286 112.275 99.9714 111.817 99.5714C111.359 99.1714 110.471 98.4286 109.841 97.9143C109.24 97.4 107.637 95.9143 106.262 94.5714C104.916 93.2286 103.17 91.4 102.368 90.4857C101.194 89.1714 100.879 88.9143 100.564 89.2C100.316 89.4476 100.096 89.4762 99.9053 89.2857C99.7048 89.0857 99.6762 88.8 99.8766 88.4286C100.077 87.9714 99.9625 87.6571 99.2467 86.8857C98.7599 86.3714 98.1872 86.0286 98.0154 86.1143C97.815 86.2 97.3855 86.1714 97.0705 86C96.7555 85.8286 96.4978 85.6 96.4978 85.4286C96.4978 85.2571 96.6982 85.1429 96.9273 85.1429C97.1564 85.1429 97.3568 85.0286 97.3568 84.8571C97.3568 84.6857 97.1564 84.3714 96.9273 84.1429C96.5551 83.7714 96.4978 83.7714 96.4978 84.2857C96.4978 84.6286 96.2973 84.8571 96.011 84.8571C95.7247 84.8571 95.3238 84.7143 95.1233 84.5143C94.9229 84.3143 94.7797 83.9714 94.7797 83.7714C94.7797 83.6 95.0947 83.4286 95.4956 83.4286C96.1255 83.4286 96.1542 83.3714 95.7819 83C95.5529 82.7714 95.152 82.5714 94.9229 82.5714C94.6938 82.5714 94.4934 82.7714 94.4934 83C94.4934 83.2286 94.3788 83.4857 94.207 83.5714C94.0352 83.6571 93.7203 83.5429 93.4912 83.3429C93.2335 83.1714 93.033 82.8286 93.0617 82.6286C93.0617 82.4571 93.2907 82.3143 93.5485 82.3429C93.8348 82.4 94.0639 82.2286 94.1211 81.9143C94.1784 81.5714 93.978 81.4 93.4339 81.3429C92.804 81.3143 92.6035 81.1143 92.5749 80.4857C92.5176 79.9143 92.3458 79.7143 91.9163 79.7143C91.6013 79.7143 91.1432 79.4 90.9141 79C90.685 78.6 90.5132 78.2 90.5418 78.1143C90.5991 78 90.7996 78.0857 91.0573 78.2857ZM76.0815 81.4286C76.2247 81.4286 76.7114 81.7429 77.1696 82.1714C77.6277 82.5714 78.5154 83.2571 79.1167 83.6571C79.7181 84.0857 80.2621 84.6286 80.348 84.8571C80.4053 85.0857 80.3194 85.3714 80.1189 85.4857C79.9185 85.6 79.8326 85.7143 79.9758 85.7143C80.0903 85.7143 80.4625 85.5714 80.8348 85.4C81.3502 85.1143 81.522 85.1714 81.8084 85.6C82.0088 85.9143 82.0947 86.2286 82.0374 86.3429C81.9515 86.4857 81.6079 86.5714 81.2643 86.5714C80.8921 86.5714 80.663 86.6286 80.7489 86.7143C80.8348 86.8 81.2929 86.9143 81.7511 86.9714C82.2092 87.0286 82.696 86.9429 82.7819 86.7429C82.8965 86.5714 83.1255 86.5143 83.2974 86.6286C83.4692 86.7714 83.6123 87.0571 83.6123 87.2857C83.6123 87.6 83.4119 87.6857 82.8965 87.5714C82.4097 87.4857 82.2092 87.5429 82.2665 87.7714C82.3238 87.9714 82.6674 88.1143 82.9824 88.0571C83.4692 88.0286 83.6696 88.2 83.8414 88.8571C83.9559 89.4286 84.2136 89.7143 84.5573 89.7143C84.815 89.7143 85.2731 90.0857 85.5595 90.5714C85.8172 91.0286 86.2181 91.4286 86.4185 91.4286C86.5903 91.4286 86.8194 91.6571 86.9053 91.9143C86.9912 92.2 87.3921 92.6286 87.7643 92.8571C88.1652 93.0857 88.4802 93.3714 88.4802 93.4857C88.4802 93.6286 89.0815 94.3143 89.8546 95.0571C90.5991 95.8286 91.6872 96.6571 92.2885 96.9143C92.8612 97.2 93.2907 97.4857 93.2048 97.5714C93.1189 97.6571 92.6321 97.5143 92.1454 97.2571C91.6299 97 90.0837 95.6286 88.7092 94.2571C87.3062 92.8571 86.0749 91.7143 85.9031 91.7143C85.7313 91.7143 85.5022 91.3143 85.3304 90.8571C85.1586 90.4 84.8722 90.0286 84.7004 90.0571C84.5 90.0571 84.0991 90 83.8414 89.9143C83.4692 89.7714 83.3833 89.5714 83.5264 89.2C83.6696 88.9143 83.641 88.8 83.4692 88.9143C83.2974 89.0286 82.8392 88.8286 82.4097 88.4857C81.7797 87.9714 81.6938 87.7714 81.9802 87.4571C82.2665 87.1429 82.2092 87.0857 81.7511 87.2571C81.3788 87.3714 81.0066 87.2571 80.6916 86.9429C80.4053 86.6571 80.2907 86.3143 80.4053 86.1429C80.5198 85.9714 80.4626 85.9429 80.3194 86.0571C80.1476 86.1714 79.3458 85.6857 78.544 85C77.7136 84.2857 77.0837 83.6 77.1696 83.4286C77.2555 83.2571 77.141 83.1714 76.9692 83.2C76.7687 83.2571 76.6255 83.1143 76.6828 82.9429C76.7114 82.7429 76.6542 82.6 76.5396 82.6286C76.3965 82.6286 76.0815 82.5714 75.8238 82.4857C75.5374 82.3714 75.3084 82.1143 75.3084 81.9429C75.2797 81.6857 75.4229 81.6857 75.7379 82C75.967 82.2286 76.2533 82.3429 76.3678 82.2286C76.4537 82.0857 76.3965 82 76.2247 82C76.0242 82 75.8811 81.8857 75.8811 81.7143C75.8811 81.5429 75.967 81.4286 76.1101 81.4286H76.0815ZM96.6982 98.8857C97.0418 98.8571 97.6145 98.9714 97.9868 99.1143C98.3304 99.2571 99.0176 99.4857 99.4758 99.5714C100.306 99.7429 100.306 99.7714 99.7621 100.171C99.2181 100.543 99.2753 100.571 100.335 100.543C101.251 100.543 101.366 100.486 100.907 100.286C100.363 100.057 100.363 100.029 100.993 100.029C101.337 100 101.681 100.114 101.767 100.286C101.852 100.457 102.225 100.571 102.626 100.571C103.026 100.571 103.399 100.686 103.485 100.857C103.57 101.029 103.943 101.143 104.344 101.143C104.744 101.143 105.059 101.229 105.059 101.343C105.059 101.486 105.403 101.743 105.861 101.943C106.291 102.143 106.806 102.286 107.007 102.286C107.178 102.286 107.407 102.371 107.465 102.486C107.522 102.629 107.236 102.657 106.062 102.514L106.921 103.114C107.551 103.543 107.637 103.714 107.293 103.714C107.007 103.714 106.778 103.6 106.778 103.429C106.778 103.257 106.491 103.143 106.148 103.143C105.775 103.143 105.203 102.886 104.859 102.571C104.487 102.257 103.885 102 103.485 102C103.084 102 102.711 101.886 102.626 101.714C102.54 101.543 102.167 101.429 101.767 101.429C101.366 101.429 100.965 101.286 100.85 101.114C100.707 100.914 100.22 100.829 99.7335 100.886C99.2467 100.943 98.7026 100.829 98.5022 100.629C98.2731 100.371 98.3018 100.229 98.7026 100.086C99.0463 99.9429 98.7599 99.7714 97.6145 99.4C96.7555 99.1143 96.326 98.8857 96.6982 98.8857Z" fill="#E0E0E0"/>
<path d="M115.139 101.8C115.368 102 116.141 102.6 116.8 103.143C117.487 103.686 118.632 104.657 119.377 105.286C120.093 105.914 121.839 107.6 123.271 109.029C124.674 110.429 126.02 111.829 126.192 112.086C126.392 112.343 126.564 112.686 126.564 112.857C126.564 113.029 126.678 113.2 126.85 113.286C127.022 113.371 127.051 113.229 126.965 112.914C126.85 112.657 126.478 112.029 126.106 111.571C125.762 111.114 124.96 110.2 124.359 109.571C123.758 108.943 122.097 107.4 120.694 106.143C119.262 104.886 117.43 103.314 116.599 102.629C115.797 101.971 115.024 101.429 114.881 101.429C114.767 101.429 114.881 101.6 115.139 101.8Z" fill="#E0E0E0"/>
<path d="M113.965 101.771C113.736 101.971 113.592 102.286 113.621 102.486C113.65 102.686 113.363 103.314 112.963 103.857C112.562 104.4 112.304 105 112.39 105.143C112.476 105.314 112.791 105.371 113.106 105.286C113.507 105.171 113.793 105.343 114.051 105.857C114.251 106.314 114.566 106.514 114.824 106.429C115.081 106.343 115.425 106.543 115.683 107C115.969 107.486 116.284 107.686 116.628 107.571C116.971 107.457 117.229 107.686 117.487 108.286C117.716 108.829 117.974 109.086 118.26 109C118.489 108.943 118.89 108.971 119.119 109.114C119.348 109.257 119.463 109.543 119.348 109.771C119.233 110 119.978 110.971 121.467 112.429C122.727 113.686 123.93 115.029 124.13 115.429C124.33 115.829 124.645 116.486 124.817 116.943C125.104 117.6 125.046 117.829 124.416 118.571C123.93 119.171 123.758 119.657 123.844 120.143C123.958 120.771 123.901 120.829 123.328 120.686C122.899 120.6 122.498 120.743 122.126 121.143L121.553 121.743C123.328 121.714 124.044 121.543 124.302 121.343C124.531 121.143 124.817 120.771 124.932 120.514C125.075 120.171 125.333 120.057 125.705 120.143C126.163 120.257 126.421 120 126.993 118.8C127.394 117.971 127.709 117.057 127.709 116.8C127.709 116.514 127.452 116.229 127.137 116.143C126.736 116.029 126.621 115.857 126.764 115.543C126.907 115.314 127.165 115.171 127.337 115.257C127.537 115.343 127.709 115.371 127.709 115.286C127.709 115.2 127.595 114.914 127.452 114.657C127.308 114.371 127.022 113.743 126.822 113.286C126.593 112.829 126.306 112.257 126.134 112.029C125.963 111.8 124.674 110.429 123.271 109.029C121.868 107.6 120.093 105.914 119.377 105.286C118.632 104.657 117.487 103.686 116.8 103.143C116.141 102.6 115.368 102 115.139 101.8C114.881 101.6 114.623 101.429 114.509 101.429C114.423 101.429 114.194 101.571 113.965 101.771Z" fill="#F7F7F7"/>
<path d="M125.59 113.686C125.504 113.857 125.476 114.143 125.562 114.286C125.648 114.457 125.905 114.571 126.134 114.571C126.363 114.571 126.535 114.371 126.478 114.086C126.449 113.829 126.278 113.571 126.106 113.514C125.934 113.457 125.705 113.543 125.59 113.686ZM123.872 112.229C123.786 112.343 123.958 112.657 124.273 112.943C124.617 113.229 124.903 113.314 124.989 113.143C125.075 113 124.932 112.657 124.703 112.429C124.474 112.2 124.216 112 124.13 112C124.073 112 123.958 112.086 123.872 112.229ZM122.097 111.029C121.954 111.114 121.954 111.429 122.068 111.743C122.183 112.029 122.326 112.286 122.412 112.286C122.498 112.286 122.756 112.229 122.985 112.143C123.328 112.029 123.357 111.914 123.042 111.429C122.87 111.114 122.612 110.857 122.526 110.857C122.441 110.857 122.24 110.943 122.097 111.029ZM120.35 110.486C120.379 110.771 120.637 111.029 120.923 111.086C121.247 111.124 121.381 110.981 121.324 110.657C121.295 110.371 121.037 110.086 120.751 110.057C120.407 109.971 120.293 110.114 120.35 110.486Z" fill="#E0E0E0"/>
<path d="M87.6498 75.4286C87.6498 75.5143 87.9075 75.8571 88.1938 76.2286C88.5088 76.5714 88.8811 76.8571 89.0529 76.8571C89.196 76.8571 89.3965 77.1143 89.4824 77.4286C89.5683 77.7429 89.7974 78 89.9692 78C90.2555 78.0286 90.2269 77.8857 89.9119 77.5143C89.6828 77.2286 89.0815 76.6286 88.5661 76.1428C88.0507 75.6857 87.6498 75.3428 87.6498 75.4286ZM67.2907 74.3429C67.2907 74.4857 67.9493 75.1714 68.7797 75.9143C69.6101 76.6857 71.2996 78.2857 72.5881 79.4857C73.848 80.6857 74.9361 81.6286 75.022 81.5714C75.1079 81.4857 74.707 81.0571 74.163 80.5428C73.6189 80.0571 72.3304 78.8571 71.2996 77.9143C70.2687 76.9429 68.9229 75.6857 68.3502 75.1428C67.7489 74.6 67.2907 74.2286 67.2907 74.3429ZM80.1762 68.3428C80.1762 68.4857 80.978 69.3428 81.9515 70.2571C82.9537 71.1714 84.3855 72.5428 85.1872 73.2571C85.9604 73.9714 86.6476 74.5143 86.6762 74.4286C86.7335 74.3428 86.1608 73.7428 85.4163 73.0571C84.6432 72.4 83.1828 71.0286 82.0947 70C81.0352 68.9714 80.1762 68.2286 80.1762 68.3428ZM59.8744 67.5714C59.8744 67.7429 61.5066 69.3143 63.4537 71.0571C65.4009 72.8286 67.0044 74.2286 67.0044 74.1428C67.0044 74.0571 66.3744 73.4 65.6013 72.6286C64.8568 71.8857 63.5969 70.7143 62.7952 70C62.022 69.2857 61.0485 68.4 60.6189 68C60.1894 67.6 59.8458 67.4 59.8744 67.5714ZM71.6432 60.4857C71.6145 60.6 71.9009 60.9429 72.2445 61.2286C72.5881 61.5143 73.9626 62.8 75.3084 64.0857C76.6542 65.4 77.9714 66.6286 78.2577 66.8571C78.544 67.0857 78.7731 67.2286 78.8018 67.1428C78.8018 67.0571 77.2269 65.4571 75.2511 63.6C73.2753 61.7714 71.6432 60.3428 71.6432 60.4857ZM51.8282 60.0571C51.8282 60.2 52 60.4571 52.2004 60.6286C52.4009 60.8286 54.1476 62.4571 56.0661 64.2C57.9846 65.9714 59.5595 67.3714 59.5595 67.2857C59.5595 67.2 59.0727 66.6571 58.4427 66.0571C57.8414 65.4857 56.5242 64.2286 55.522 63.3143C54.5198 62.3714 53.2599 61.2 52.7445 60.7429C52.2291 60.2571 51.8282 59.9428 51.8282 60.0571ZM63.5683 52.9143C63.5683 53.0571 64.7709 54.2857 66.2026 55.6857C67.663 57.0857 69.3811 58.6857 70.011 59.2571C70.641 59.8286 71.185 60.2286 71.2137 60.1428C71.2709 60.0571 70.7555 59.5143 70.0969 58.9143C69.4383 58.3428 68.7511 57.7429 68.5793 57.5714C68.4075 57.4 67.2048 56.2571 65.9163 55C64.6278 53.7429 63.5683 52.8 63.5683 52.9143ZM56.1233 46.0571C56.1233 46.2 56.6101 46.7714 57.2115 47.3428C57.8414 47.9429 59.3877 49.4286 60.6476 50.6286C61.9361 51.8571 63.0815 52.8 63.196 52.7143C63.3392 52.6571 62.967 52.2286 62.4229 51.8C61.8789 51.3714 60.2181 49.8571 58.7577 48.4286C57.2974 47.0286 56.1233 45.9429 56.1233 46.0571ZM47.7335 39.3714C47.0176 39.4 46.674 39.5714 46.674 39.8571C46.674 40.0857 46.8744 40.3429 47.1035 40.4286C47.3326 40.5143 47.8766 40.4571 48.3062 40.3143C48.7643 40.1714 49.2511 40.1429 49.4515 40.2286C49.6806 40.3619 49.6997 40.5714 49.5088 40.8571C49.2797 41.2286 49.2225 41.2286 48.9648 40.8571C48.7929 40.5714 48.6021 40.5238 48.3921 40.7143C48.1916 40.9143 48.2775 41.1714 48.6784 41.5714C49.1366 42.0286 49.3084 42.0857 49.6806 41.7714C50.0529 41.4857 50.1101 41.5429 50.1674 42.2C50.2247 42.6 50.4537 43.0286 50.6828 43.1143C50.9692 43.2095 51.036 43.1429 50.8833 42.9143C50.7496 42.6857 50.8928 42.5714 51.3128 42.5714C51.9141 42.5429 51.9141 42.6 51.5418 43C51.1696 43.4 51.2555 43.5714 52.4009 44.6C53.4031 45.4857 53.8612 45.7143 54.4053 45.6C54.8062 45.5143 55.2929 45.6 55.4934 45.8C55.6938 46 55.837 46.0571 55.837 45.9143C55.837 45.8 55.3502 45.2857 54.7775 44.7714C54.2048 44.2857 53.6322 43.8857 53.489 43.9143C53.3744 43.9714 53.2885 43.8286 53.3172 43.6286C53.3744 43.4571 53.2026 43.2857 52.9449 43.2857C52.6872 43.2857 52.5154 43.2286 52.5727 43.1429C52.63 43.0571 51.7996 42.1714 50.7401 41.1429C48.9934 39.4571 48.707 39.2857 47.7335 39.3429V39.3714ZM43.0088 34.1429C42.9802 34.2286 43.152 34.6286 43.3811 35.0286C43.6101 35.4286 44.011 35.7429 44.2401 35.7429C44.4692 35.7429 44.6696 35.9143 44.6696 36.0857C44.6696 36.2857 44.9273 36.6857 45.2423 36.9429C45.5573 37.2286 46.0154 37.4571 46.2445 37.4571C46.5022 37.4571 46.6167 37.6286 46.5308 37.8857C46.4449 38.1714 46.7026 38.4571 47.2467 38.7429C47.7048 38.9714 48.1916 39.1143 48.3062 39.0286C48.4493 38.9429 48.2775 38.7143 47.9626 38.4857C47.6476 38.2571 47.2181 38.1714 46.989 38.2857C46.7313 38.4 46.674 38.3143 46.7885 37.9429C46.9031 37.5714 46.7026 37.3429 45.9581 37.0286C45.4141 36.8 44.9559 36.4 44.9559 36.1714C44.9559 35.9429 44.6982 35.6857 44.3833 35.6C44.0683 35.5143 43.8392 35.2857 43.8678 35.0571C43.9251 34.8571 43.7533 34.5143 43.5242 34.3143C43.2665 34.1143 43.0661 34.0286 43.0088 34.1429ZM37.7974 30.0286C38.1982 30.3429 38.685 30.6 38.8568 30.6C39.0573 30.6 39.2291 30.7429 39.2291 30.8857C39.2291 31.0286 39.4295 31.1714 39.6586 31.1714C39.8877 31.1714 40.0881 31.3429 40.0881 31.5429C40.0881 31.7429 40.3458 32.1143 40.6608 32.4C40.9758 32.6571 41.348 32.8857 41.5198 32.8857C41.663 32.8857 41.8634 33.1429 41.9493 33.4571C42.0352 33.7714 42.2643 34.0286 42.4361 34C42.7225 34 42.7225 33.9714 42.4361 33.8571C42.2643 33.8 42.0925 33.5429 42.0925 33.3143C42.0925 33.0857 41.6916 32.6571 41.2335 32.3714C40.7467 32.1143 40.3744 31.7143 40.3744 31.5143C40.3744 31.3429 39.7159 30.8 38.9427 30.3143C38.141 29.8286 37.4251 29.4571 37.2819 29.4571C37.1674 29.4571 37.3965 29.7143 37.7974 30.0286ZM27.0595 25.4571L27.6322 25.7143C26.544 25.7143 26.544 25.7714 26.9163 26.1714C27.1454 26.4286 27.5749 26.6286 27.8326 26.6C28.1189 26.6 28.4053 26.7429 28.4912 26.8857C28.5771 27.0286 29.0925 27.1714 29.6366 27.1714C30.1806 27.1714 30.696 27.3143 30.7819 27.4571C30.8678 27.6 31.3546 27.7429 31.8414 27.7143C32.7004 27.6857 32.7291 27.6571 32.0705 27.4857C31.5932 27.3524 31.4692 27.219 31.6982 27.0857C31.8987 26.9714 32.0132 26.6857 31.9273 26.4571C31.8128 26.1429 31.5264 26.0857 30.8392 26.2C30.3238 26.3143 29.6079 26.2286 29.207 26.0286C28.8062 25.8286 28.2621 25.5714 27.9758 25.4286C27.7181 25.2857 27.2599 25.1714 26.9736 25.2C26.5727 25.2 26.5727 25.2571 27.0595 25.4571Z" fill="#E0E0E0"/>
<path d="M18.9273 23.4571C18.6123 23.7714 18.326 24.0857 18.326 24.2286C18.326 24.3429 18.0683 24.7429 17.7533 25.1429C17.4383 25.5429 17.1806 26.0571 17.1806 26.2857C17.1806 26.5143 17.8965 27.2286 18.7841 27.8571C19.6718 28.4857 20.8458 29.3714 21.4185 29.8571C21.9912 30.3429 23.1652 31.4286 24.0242 32.3143C24.9119 33.1714 26.3436 34.7143 27.2026 35.7429C28.0617 36.7429 28.9207 37.7143 29.0639 37.9143C29.2643 38.1428 29.4361 38.1714 29.6366 37.9429C29.8084 37.7714 30.0947 37.7429 30.3238 37.8857C30.5242 38.0286 30.6674 38.4286 30.6101 38.7714C30.5529 39.1428 30.5815 39.4286 30.7247 39.4286C30.8392 39.4286 31.2115 39.9429 31.5837 40.5714C32.0705 41.4571 32.2709 41.6286 32.4427 41.2857C32.5859 41 32.815 40.9143 33.2159 41.0857C33.5308 41.2 33.8458 41.5143 33.9317 41.8C34.0176 42.0571 34.3326 42.2857 34.6476 42.2857C34.9626 42.2857 35.3348 42.5143 35.5066 42.8C35.6498 43.0571 35.7071 43.3714 35.5925 43.5143C35.5066 43.6286 35.1344 43.7143 34.8194 43.7143C34.4758 43.7143 34.2753 43.7714 34.3612 43.8571C34.4471 43.9429 34.9053 44.0571 35.3634 44.1143C35.8502 44.1714 36.3084 44.0857 36.4229 43.8857C36.5661 43.6571 36.7665 43.7143 37.1388 44.0571C37.6256 44.4857 37.6256 44.5429 37.0242 44.8286C36.652 45 36.3656 45.2571 36.3656 45.4286C36.3656 45.6 36.652 45.7143 37.0242 45.7143C37.3965 45.7143 37.826 45.5429 38.0264 45.3714C38.1982 45.1429 38.5419 45.0857 38.7996 45.2286C39.0286 45.3429 39.2291 45.6286 39.2291 45.8571C39.2291 46.0857 39.1718 46.2857 39.0859 46.2857C39 46.2857 38.685 46.1714 38.37 46C37.9883 45.8095 37.7974 45.8095 37.7974 46C37.7974 46.1714 37.9119 46.5429 38.0837 46.8571C38.2555 47.1714 38.5705 47.4286 38.7996 47.4286C39.0286 47.4286 39.315 47.6571 39.4582 47.9143C39.5727 48.1714 40.6322 49.3714 41.8348 50.5428C43.0088 51.7428 45.0705 53.6857 46.359 54.8571C47.6762 56.0286 49.4802 57.7143 50.3965 58.5714C51.2841 59.4286 53.1167 61.1143 54.4339 62.3143C55.7511 63.5143 57.5551 65.2 58.4427 66.0286C59.3304 66.8857 60.8194 68.2286 61.7357 69.0286C62.6806 69.8571 64.3414 71.4 65.4582 72.4571C66.5749 73.5429 68.5793 75.4286 69.8965 76.6286C71.2137 77.8286 73.1322 79.6 74.163 80.5714C75.1938 81.5143 76.1388 82.2857 76.3106 82.2571C76.4824 82.2571 76.4251 82.2 76.2533 82.1143C76.0529 82.0571 75.8811 81.8857 75.8811 81.7143C75.8811 81.5428 75.967 81.4286 76.1101 81.4286C76.2247 81.4286 76.7115 81.7428 77.1696 82.1714C77.6278 82.5714 78.5154 83.2571 79.1167 83.6571C79.7181 84.0857 80.2621 84.6571 80.348 84.9428C80.4244 85.2667 80.6535 85.3809 81.0352 85.2857C81.4075 85.2 81.7225 85.3428 81.8943 85.6571C82.0375 85.9143 82.0947 86.2286 81.9802 86.3714C81.8943 86.4857 81.522 86.5714 81.2071 86.5714C80.8634 86.5714 80.663 86.6286 80.7489 86.7143C80.8348 86.8 81.293 86.9143 81.7511 86.9714C82.2093 87.0286 82.696 86.9428 82.7819 86.7428C82.8965 86.5714 83.1256 86.5143 83.2974 86.6571C83.4692 86.7714 83.6123 87.0571 83.6123 87.2857C83.6123 87.6 83.4119 87.6857 82.8965 87.5714C82.4097 87.4857 82.2093 87.5428 82.2665 87.8C82.3238 87.9714 82.6674 88.1143 82.9824 88.0857C83.4692 88.0286 83.6696 88.2 83.8414 88.8571C83.9559 89.4286 84.2137 89.7143 84.5573 89.7143C84.815 89.7143 85.2731 90.0857 85.5595 90.5714C85.8172 91.0286 86.2753 91.4857 86.5617 91.5714C86.8194 91.6571 87.0485 91.8857 87.0485 92.0857C87.0485 92.2571 87.3634 92.6286 87.7643 92.8571C88.1652 93.0857 88.4802 93.3714 88.4802 93.5143C88.4802 93.6286 89.1101 94.3143 89.8546 95.0857C90.5991 95.8286 92.0881 96.8571 93.2049 97.4C94.3216 97.9143 95.4383 98.4571 95.7247 98.6C95.9824 98.7429 96.4692 98.8571 96.7841 98.8571C97.0991 98.8571 97.6432 98.9714 98.0154 99.1143C98.359 99.2571 99.2181 99.5143 99.9339 99.7143C100.65 99.9143 101.452 100.171 101.738 100.314C101.996 100.457 102.482 100.571 102.797 100.571C103.112 100.571 103.427 100.686 103.513 100.857C103.599 101.029 103.971 101.143 104.372 101.143C104.773 101.143 105.088 101.229 105.088 101.371C105.088 101.486 105.518 101.743 106.004 101.943C106.52 102.171 107.436 102.571 108.037 102.886C108.61 103.171 109.211 103.429 109.383 103.429C109.555 103.429 109.612 103.229 109.526 103C109.441 102.771 109.498 102.514 109.67 102.429C109.841 102.343 110.156 102.457 110.385 102.657C110.643 102.829 110.844 103.171 110.815 103.371C110.815 103.543 110.586 103.714 110.328 103.743C109.899 103.743 109.899 103.8 110.385 103.971C110.7 104.114 111.044 104.171 111.187 104.114C111.302 104.057 111.846 103.286 112.39 102.429C112.934 101.571 113.392 100.743 113.392 100.571C113.392 100.4 113.22 100.286 113.048 100.286C112.848 100.286 112.275 99.9714 111.817 99.5714C111.359 99.1714 110.471 98.4286 109.841 97.9143C109.24 97.4 107.637 95.9143 106.262 94.5714C104.916 93.2286 103.17 91.4 102.368 90.4857C101.194 89.1714 100.879 88.9143 100.564 89.2C100.316 89.4476 100.096 89.4762 99.9053 89.2857C99.7048 89.0857 99.6762 88.8 99.8767 88.4286C100.077 87.9714 99.9626 87.6571 99.2467 86.8857C98.7599 86.3714 98.1872 86.0286 98.0154 86.1143C97.815 86.2 97.3855 86.1714 97.0705 86C96.7555 85.8286 96.4978 85.6 96.4978 85.4286C96.4978 85.2571 96.6982 85.1428 96.9273 85.1428C97.1564 85.1428 97.3568 85.0286 97.3568 84.8571C97.3568 84.6857 97.1564 84.3714 96.9273 84.1428C96.5551 83.7714 96.4978 83.7714 96.4978 84.2857C96.4978 84.6286 96.2974 84.8571 96.011 84.8571C95.7247 84.8571 95.3238 84.7143 95.1234 84.5143C94.9229 84.3143 94.7797 83.9714 94.7797 83.8C94.7797 83.6 95.0947 83.4286 95.4956 83.4286C96.1256 83.4286 96.1542 83.3714 95.7819 83C95.5529 82.7714 95.152 82.5714 94.9229 82.5714C94.6938 82.5714 94.4934 82.7714 94.4934 83C94.4934 83.2286 94.3789 83.4857 94.2071 83.5714C94.0352 83.6571 93.7203 83.5428 93.4912 83.3714C93.2335 83.1714 93.0331 82.8286 93.0617 82.6571C93.0617 82.4571 93.2908 82.3143 93.5485 82.3714C93.8348 82.4 94.0639 82.2286 94.1212 81.9428C94.1784 81.5714 93.978 81.4 93.4339 81.3714C92.804 81.3143 92.6035 81.1143 92.5749 80.5143C92.5176 79.9428 92.3458 79.7143 91.9163 79.7143C91.5727 79.7143 91.1432 79.3714 90.8568 78.8571C90.5705 78.3714 90.1696 78 89.9978 78C89.7974 78 89.5683 77.7428 89.4824 77.4286C89.3965 77.1143 89.1388 76.8571 88.9097 76.8571C88.6806 76.8571 88.4802 76.7714 88.4802 76.6571C88.5088 76.5143 88.022 75.9428 87.4207 75.3714C86.8194 74.7714 85.0441 73.1143 83.4978 71.6571C81.9516 70.2 80.1762 68.5428 79.6035 68C79.0022 67.4571 78.2005 66.7428 77.7996 66.4286C77.3987 66.1143 75.7379 64.5714 74.0771 63C72.4449 61.4286 70.5837 59.7143 69.9824 59.2C69.3524 58.6571 67.5771 57 65.9736 55.4857C64.3987 53.9429 62.7665 52.4571 62.3656 52.1429C61.9648 51.8286 60.1894 50.2 58.4427 48.5143C55.6079 45.7714 55.1784 45.4571 54.4912 45.6C53.8326 45.7429 53.4604 45.5429 52.4009 44.5143C51.685 43.8571 50.8833 43.2 50.5969 43.0857C50.3106 42.9429 50.1101 42.5429 50.1101 42.0857C50.1388 41.3714 50.0815 41.3429 49.6806 41.7143C49.2797 42.0857 49.1652 42.0857 48.6784 41.5714C48.2775 41.1714 48.1916 40.9143 48.3921 40.7143C48.6021 40.5238 48.793 40.5714 48.9648 40.8571C49.2225 41.2286 49.2797 41.2286 49.5088 40.8571C49.6997 40.5714 49.6806 40.3619 49.4515 40.2286C49.2511 40.1429 48.7643 40.1714 48.3348 40.3143C47.8767 40.4571 47.3326 40.5143 47.1035 40.4286C46.8745 40.3428 46.674 40.0857 46.674 39.8571C46.674 39.5429 46.989 39.4286 47.7621 39.4286H48.8216C46.7885 38.4571 46.4449 38.1429 46.5308 37.8571C46.6167 37.6 46.5022 37.4286 46.2445 37.4286C46.0154 37.4286 45.5573 37.2 45.2423 36.9429C44.9273 36.6571 44.6696 36.2571 44.6696 36.0857C44.6696 35.8857 44.4692 35.7143 44.2401 35.7143C44.011 35.7143 43.5815 35.3429 43.3238 34.8571C43.0374 34.4 42.5793 33.9429 42.3216 33.8571C42.0352 33.7714 41.8062 33.5143 41.8062 33.2857C41.8062 33.0571 41.6916 32.8571 41.5198 32.8571C41.348 32.8571 40.9758 32.6286 40.6608 32.3714C40.3458 32.0857 40.0881 31.6857 40.0881 31.5143C40.0881 31.3143 39.8877 31.1429 39.6586 31.1429C39.4295 31.1429 39.2291 31.0286 39.2291 30.8571C39.2291 30.7143 39 30.5143 38.7423 30.4286C38.456 30.3714 37.6828 29.9714 37.0242 29.5714C36.337 29.1714 35.5925 28.8571 35.3634 28.8571C35.1344 28.8571 34.6762 28.7429 34.3612 28.5714C34.0463 28.4286 33.5308 28.1714 33.2159 28C32.9009 27.8571 32.2709 27.7143 31.7841 27.7143C31.2974 27.7143 30.8678 27.6 30.7819 27.4286C30.696 27.2857 30.2665 27.1429 29.7797 27.1429C29.293 27.1429 28.6916 27.0286 28.4339 26.9143C28.1476 26.7714 27.6322 26.5143 27.2885 26.3429C26.9163 26.1429 26.4582 26 26.2863 26C26.0859 26 25.0837 25.6 24.0529 25.1143C23.022 24.6286 21.9626 24.1143 21.7048 23.9714C21.4185 23.8286 21.0749 23.7143 20.9031 23.7143C20.7313 23.7143 20.7026 23.9714 20.8458 24.3429C20.989 24.8286 20.9604 24.9429 20.6167 24.8C20.3877 24.7143 20.0727 24.4286 19.9009 24.1714C19.7004 23.8286 19.7291 23.6286 20.0441 23.4571C20.4163 23.2571 20.4163 23.2 20.0154 23.0571C19.7577 23 19.2709 23.1714 18.9273 23.4571Z" fill="#F7F7F7"/>
<path fill-rule="evenodd" clip-rule="evenodd" d="M108.066 100.571C108.152 100.571 108.438 100.771 108.667 101C108.896 101.229 109.097 101.543 109.097 101.714C109.097 101.886 108.868 101.971 108.61 101.914C108.324 101.886 108.066 101.571 108.009 101.2C107.952 100.857 107.98 100.571 108.066 100.571ZM102.053 92.3714C102.225 92.4286 102.396 92.6857 102.454 92.9429C102.482 93.2286 102.311 93.4286 102.082 93.4286C101.852 93.4286 101.595 93.3143 101.509 93.1429C101.423 92.9714 101.452 92.7143 101.537 92.5429C101.652 92.4 101.881 92.3143 102.053 92.3714ZM100.936 90.2857C101.165 90.2857 101.452 90.4857 101.595 90.7143C101.709 90.9429 101.738 91.2 101.652 91.2857C101.566 91.3714 101.28 91.3714 101.022 91.2857C100.736 91.2 100.507 90.9429 100.507 90.7143C100.507 90.4857 100.707 90.2857 100.936 90.2857ZM90.5705 89.1429C90.9141 89.1714 91.6586 89.6571 92.2313 90.2286C92.8612 90.8571 93.2049 91.4571 93.0903 91.6571C92.9471 91.9714 92.7753 92 92.2886 91.7429C91.9163 91.5714 91.4582 91.2 91.2863 90.9143C91.0859 90.6 90.6278 90.2286 90.2841 90.0571C89.9119 89.8571 89.6828 89.6 89.7687 89.4286C89.8833 89.2571 90.2269 89.1429 90.5705 89.1429ZM86.5331 89.1429C86.6476 89.1429 86.7621 89.2571 86.7621 89.4286C86.7621 89.6 87.1057 89.6286 87.6212 89.4857C88.3084 89.3429 88.5088 89.3714 88.5088 89.7143C88.5375 89.9429 88.5375 90.3143 88.5088 90.4857C88.5088 90.6857 88.7093 90.8571 88.9956 90.8571C89.2533 90.8857 89.9405 91.3714 90.5132 91.9429C91.2577 92.6857 91.4868 93.1143 91.315 93.4286C91.1145 93.8 91 93.7714 90.4273 93.2857C90.0551 92.9714 89.5683 92.5143 89.3392 92.2571C89.1101 91.9714 88.652 91.7143 88.337 91.6571C87.9361 91.6 87.793 91.3714 87.8502 90.9143C87.8789 90.5714 87.793 90.2286 87.6212 90.1429C87.478 90.0571 87.3348 90.1143 87.3348 90.2857C87.3348 90.4571 87.1344 90.5714 86.9053 90.5714C86.6762 90.5714 86.3612 90.3429 86.1894 90.0571C86.0463 89.8 85.989 89.4857 86.1035 89.3429C86.1894 89.2286 86.3899 89.1429 86.5331 89.1429ZM93.7775 88.5714C94.1784 88.5714 94.5507 88.7714 94.6366 89C94.7225 89.2286 94.7797 89.5429 94.7797 89.7143C94.7797 89.8857 94.6652 90 94.4934 90C94.3502 90 93.8921 89.8 93.4912 89.5714C93.0903 89.3429 92.8326 89.0286 92.9185 88.8571C93.0331 88.6857 93.4053 88.5714 93.7775 88.5714ZM88.3943 87.6286C88.4516 87.9143 88.5947 87.9143 88.967 87.6571C89.3679 87.4 89.5683 87.4286 89.9119 87.8C90.2841 88.2286 90.2841 88.2857 89.9119 88.2857C89.5397 88.2857 89.5397 88.3143 89.9119 88.5714C90.1982 88.7619 90.2269 88.8571 89.9978 88.8571C89.7974 88.8571 89.5397 88.6857 89.4538 88.4857C89.3106 88.2286 89.196 88.2571 89.0242 88.5714C88.7952 88.9429 88.7093 88.9143 88.337 88.4286C88.1079 88.1143 88.022 87.7429 88.1079 87.5714C88.2225 87.4 88.337 87.4286 88.3943 87.6286ZM91.4295 86.8571C91.4582 86.8571 91.9163 87.0286 92.4317 87.2857C92.9185 87.5143 93.348 87.8286 93.348 88C93.348 88.1714 92.8899 88.2857 92.3458 88.2857C91.4582 88.2857 91.3436 88.2 91.3436 87.5714C91.3436 87.1714 91.3723 86.8571 91.4295 86.8571ZM85.0441 86.2857C85.4258 86.2857 85.6167 86.4762 85.6167 86.8571C85.6167 87.1714 85.5308 87.4286 85.4163 87.4286C85.2731 87.4286 85.0154 87.2857 84.815 87.0857C84.6145 86.8857 84.4714 86.6286 84.4714 86.4857C84.4714 86.3714 84.7291 86.2857 85.0441 86.2857ZM86.7048 86.1429C86.9626 86.2571 87.5066 86.3714 87.8789 86.4C88.2511 86.4 88.6234 86.6 88.6806 86.7714C88.7379 87.0286 88.4229 87.1143 87.5639 87.0571C86.5903 87.0286 86.3326 86.8857 86.2753 86.4571C86.2467 86.0571 86.3612 85.9714 86.7048 86.1429ZM89.8833 85.7143C90.0264 85.7143 90.0837 85.8286 90.0264 86C89.9405 86.1714 90.141 86.1714 90.4846 85.9714C90.8282 85.8 91.2577 85.7429 91.4868 85.8286C91.7159 85.9143 91.9163 86.1143 91.9163 86.2857C91.9163 86.4571 91.6586 86.5714 91.3436 86.5714C91.0286 86.5714 90.7137 86.7429 90.6564 86.9429C90.5991 87.1714 90.3701 87.1143 89.9692 86.7143C89.6256 86.4 89.4251 86.0571 89.511 85.9143C89.5969 85.8 89.7687 85.7143 89.8833 85.7143ZM88.5375 84.5714C88.8238 84.5714 89.0529 84.7714 89.0529 85C89.0529 85.2286 88.7952 85.4286 88.4802 85.4286C88.1652 85.4286 87.8502 85.3429 87.7643 85.2C87.7071 85.0857 87.7071 84.9143 87.8216 84.7714C87.9075 84.6571 88.2511 84.5714 88.5375 84.5714ZM86.4758 84.5714C86.7908 84.5714 87.1057 84.8 87.1916 85.0571C87.2775 85.3429 87.2775 85.6 87.1916 85.6286C87.1057 85.6857 86.7908 85.6 86.4758 85.4286C86.1608 85.2571 85.9031 85.0286 85.9031 84.8571C85.9031 84.6857 86.1608 84.5714 86.4758 84.5714ZM84.9868 84.6286C85.2731 84.6857 85.5022 85 85.5595 85.3714C85.5881 85.7143 85.5595 86 85.4736 86C85.3877 86 85.13 85.8 84.9009 85.5714C84.6718 85.3429 84.4714 85 84.5 84.8286C84.5 84.6571 84.7291 84.5714 84.9868 84.6286ZM92.4317 84C92.6894 84.0286 93.4053 84.5429 94.0066 85.1429C94.5793 85.7714 95.0661 86.4 95.0661 86.5714C95.0661 86.7429 95.3238 86.8571 95.6388 86.8571C95.9538 86.8571 96.2687 87.0571 96.3546 87.2857C96.4405 87.5143 96.4978 87.8286 96.4978 88C96.4978 88.1714 96.2687 88.2857 96.011 88.2857C95.7247 88.2857 95.2665 87.9143 95.0088 87.4286C94.7225 86.9714 94.293 86.5714 94.0639 86.5714C93.8348 86.5714 93.5198 86.1714 93.348 85.7143C93.1189 85.0571 92.9185 84.8857 92.489 85C92.0595 85.1143 91.9163 85 91.9163 84.5714C91.9163 84.2 92.1167 84 92.4317 84ZM91.3436 82.2857C91.6586 82.2857 91.9163 82.4857 91.9163 82.7143C91.9163 82.9429 91.9163 83.2286 91.9163 83.3429C91.9163 83.4857 91.5441 83.6 91.0573 83.6286C90.4273 83.6857 90.1123 83.5429 89.9119 83.1429C89.6542 82.6571 89.7115 82.6 90.1982 82.7143C90.5132 82.8 90.7709 82.7429 90.7709 82.5714C90.7709 82.4 91.0286 82.2857 91.3436 82.2857ZM88.7952 81.1429C88.9097 81.1429 88.967 81.6571 88.967 82.2857C88.9383 82.9143 88.7952 83.4286 88.6234 83.4286C88.4802 83.4571 88.1652 83.2571 87.9934 83C87.6784 82.6571 87.7071 82.5429 88.0793 82.3429C88.3084 82.2286 88.4516 82.0286 88.3656 81.8571C88.2797 81.6857 88.3084 81.4857 88.3943 81.3429C88.5088 81.2286 88.6806 81.1429 88.7952 81.1429ZM79.8899 80.5714C80.0617 80.5714 80.6916 81 81.3502 81.4857C82.152 82.1429 82.467 82.5714 82.3524 82.9143C82.2093 83.3143 82.3524 83.4571 83.0397 83.4857C83.5264 83.5429 83.956 83.6857 83.9846 83.8571C84.0132 84.0286 83.6696 84.1714 83.1828 84.1714C82.7247 84.2 82.0947 84 81.8084 83.7429C81.522 83.4857 81.293 83.1143 81.3216 82.9143C81.3216 82.7429 81.2071 82.5714 81.0353 82.5714C80.8921 82.5714 80.4912 82.2857 80.1762 81.9143C79.8899 81.5714 79.6322 81.1143 79.6035 80.9143C79.6035 80.7429 79.7467 80.5714 79.8899 80.5714ZM86.9912 80.0571C87.2775 80.1143 87.4493 80.4571 87.478 81C87.478 81.5429 87.3062 81.8857 87.0485 81.9429C86.8194 82 86.5331 81.8 86.3899 81.5143C86.2753 81.2286 86.2467 80.7714 86.3612 80.4857C86.4758 80.2 86.7621 80 86.9912 80.0571ZM89.826 79.7143C89.9405 79.6857 90.2269 79.8857 90.4273 80.1429C90.6278 80.4 90.6564 80.6286 90.4846 80.7143C90.3414 80.8 90.2555 81.0571 90.3414 81.2857C90.4273 81.5143 90.3128 81.8 90.141 81.8857C89.9405 81.9714 89.6542 81.9143 89.4824 81.7429C89.3106 81.5714 89.2819 81.2571 89.4538 80.9429C89.5969 80.6571 89.6828 80.2571 89.6542 80.0571C89.6256 79.8857 89.7115 79.7143 89.826 79.7143ZM81.3216 79.1429C81.4934 79.1429 81.8943 79.4571 82.2665 79.8571C82.6101 80.2571 83.1256 80.5714 83.4119 80.5714C83.7555 80.5714 83.8987 80.8 83.8987 81.2857C83.8987 81.8857 84.0132 81.9714 84.5573 81.8286C84.9295 81.7143 85.2731 81.8 85.3877 82.0571C85.5022 82.2571 85.6167 82.7429 85.6167 83.1429C85.6454 83.8286 85.6454 83.8286 86.0463 83.2857C86.4185 82.7429 86.4758 82.7429 86.8767 83.2C87.1344 83.4857 87.3348 83.8286 87.3348 84C87.3348 84.1714 86.8194 84.2571 86.2181 84.2C85.5881 84.1714 84.9582 84.0286 84.815 83.8571C84.6432 83.6857 84.4714 83.3143 84.4141 83C84.3568 82.6571 84.0991 82.4286 83.7555 82.4286C83.3737 82.4286 83.2115 82.2571 83.2687 81.9143C83.2974 81.6571 83.1542 81.4286 82.9824 81.4286C82.7819 81.4571 82.2665 81.1143 81.837 80.7143C81.3789 80.3143 81.0353 79.8 81.0353 79.5714C81.0353 79.3429 81.1784 79.1429 81.3216 79.1429ZM88.4515 78.3429C88.7093 78.4 88.9383 78.7714 88.9956 79.2286C89.0242 79.6857 88.8811 80.0857 88.6234 80.2C88.3656 80.3429 88.0507 80.3143 87.9075 80.1429C87.793 79.9714 87.7357 79.4857 87.8502 79.0571C87.9361 78.5429 88.1652 78.2857 88.4515 78.3429ZM83.6982 77.1429C83.8987 77.1429 84.2423 77.4571 84.4714 77.8286C84.7004 78.2286 85.0441 78.4857 85.1872 78.4C85.359 78.3429 85.6454 78.5714 85.8458 78.9143C86.1608 79.4571 86.1608 79.6286 85.8458 79.9714C85.6454 80.1714 85.3018 80.2571 85.13 80.1714C84.9295 80.0857 84.7577 79.6857 84.7577 79.2857C84.7577 78.8 84.6145 78.5714 84.2709 78.5714C83.9846 78.6 83.5837 78.4 83.4119 78.1429C83.2115 77.9143 83.0969 77.6 83.1828 77.4286C83.2974 77.2571 83.4978 77.1429 83.6982 77.1429ZM84.7577 75.4286C84.9295 75.4286 85.3018 75.7714 85.6454 76.2C85.9604 76.6571 86.3326 76.9714 86.4185 76.9714C86.533 76.9429 86.7908 76.9714 86.9912 77.0286C87.163 77.0857 87.3348 77.4571 87.3348 77.8571C87.3348 78.3143 87.163 78.5714 86.9053 78.5714C86.6762 78.5714 86.2753 78.2286 86.0463 77.7714C85.8172 77.3429 85.6454 77.1143 85.6454 77.2857C85.6454 77.4571 85.359 77.3143 85.0441 77C84.7291 76.6857 84.4427 76.2 84.4714 75.9143C84.4714 75.6571 84.6145 75.4286 84.7577 75.4286ZM46.3304 48.5714C46.5881 48.5714 46.989 48.8286 47.1894 49.1429C47.3899 49.5143 47.4185 49.7714 47.2467 49.8571C47.1035 49.9429 46.7027 49.8286 46.3877 49.6286C46.0727 49.4571 45.815 49.1143 45.815 48.9143C45.815 48.7429 46.0441 48.5714 46.3304 48.5714ZM41.9493 46.9143C42.1784 46.9714 42.3502 47.1714 42.3789 47.3714C42.3789 47.5714 42.522 47.9143 42.6652 48.1429C42.837 48.4 43.1234 48.4857 43.3811 48.3429C43.7247 48.2 43.9251 48.3714 44.1828 49.0857C44.3833 49.6286 44.7841 50.0857 45.0991 50.1714C45.4141 50.2286 45.7577 50.5429 45.9009 50.8571C46.0154 51.2 45.9868 51.4286 45.815 51.4286C45.6718 51.4286 45.2709 51.1714 44.956 50.8571C44.641 50.5429 44.0683 50.1714 43.6674 50C43.2665 49.8286 42.9515 49.4857 42.9515 49.2C42.9515 48.8571 42.7511 48.7429 42.2357 48.7714C41.5771 48.8571 41.5198 48.7714 41.5485 47.8286C41.5771 47.1143 41.6916 46.8571 41.9493 46.9143ZM44.956 46.8571C45.2709 46.8571 45.5859 47.0857 45.6432 47.3429C45.7004 47.6286 45.6432 48.0571 45.5 48.2857C45.2709 48.6571 45.1564 48.6286 44.6696 48.0571C44.3546 47.7143 44.1542 47.3143 44.2401 47.1429C44.3546 46.9714 44.6696 46.8571 44.956 46.8571ZM40.4604 45.4286C40.7753 45.4286 40.9185 45.7429 40.9185 46.5714C40.9471 47.4 40.8326 47.7143 40.5176 47.7143C40.2886 47.7143 39.9736 47.4571 39.8018 47.1429C39.5727 46.7143 39.63 46.5429 39.9449 46.4286C40.2027 46.3429 40.2886 46.1143 40.174 45.8571C40.0595 45.5714 40.1454 45.4286 40.4604 45.4286ZM43.5242 45.1429C43.696 45.1429 43.8678 45.3714 43.9538 45.6286C44.0397 45.9143 44.0397 46.3714 43.9538 46.6286C43.8678 46.9143 43.6388 47.1143 43.467 47.0571C43.2665 47 43.0661 46.6286 43.0661 46.2571C43.0375 45.8857 43.0661 45.4857 43.152 45.3429C43.2093 45.2286 43.3811 45.1429 43.5242 45.1429ZM41.7775 43.4286C41.8634 43.4 42.2071 43.6571 42.522 44C43.0661 44.5143 43.0661 44.5714 42.6079 44.7143C42.3216 44.8 42.1212 45.0571 42.1784 45.3143C42.2071 45.6 42.0639 45.8571 41.8921 45.8857C41.6344 45.9714 41.5198 45.6286 41.5771 44.7143C41.5771 44 41.6916 43.4286 41.7775 43.4286ZM39.4582 43.5429C39.9449 43.5429 40.4317 43.6571 40.5749 43.7714C40.6894 43.8857 40.6035 44.2 40.3745 44.4286C40.1454 44.6857 39.6586 44.8857 39.315 44.8571C38.9427 44.8571 38.5991 44.7429 38.5132 44.5714C38.4273 44.4 38.4273 44.1143 38.4846 43.8857C38.5419 43.6571 38.9141 43.5143 39.4582 43.5429ZM45.2996 42.8571C45.4714 42.8571 45.6718 43.2286 45.7291 43.7143C45.7577 44.2 45.9868 44.6 46.1872 44.6C46.359 44.6286 46.7027 44.6286 46.9031 44.6C47.0749 44.6 47.2467 44.6857 47.2467 44.8571C47.2467 45.0286 47.7621 45.6286 48.3921 46.2C49.022 46.8 49.5375 47.4571 49.5375 47.6286C49.5375 47.8286 49.4516 48 49.337 48C49.1938 47.9714 48.478 47.5714 47.7335 47.0571C46.9604 46.5429 46.3877 45.9143 46.3877 45.6286C46.3877 45.3714 46.2731 45.2 46.1013 45.2857C45.9582 45.3714 45.5859 45.2571 45.3282 45.0286C45.0132 44.7714 44.8414 44.2857 44.8701 43.8C44.8987 43.3714 44.9273 42.9714 44.9273 42.9143C44.956 42.8857 45.0991 42.8571 45.2996 42.8571ZM43.6674 42.9143C44.011 42.9714 44.2687 43.2571 44.326 43.6571C44.3546 44 44.326 44.2857 44.2401 44.2857C44.1542 44.2857 43.8965 44.0857 43.6674 43.8571C43.3524 43.5429 43.3524 43.4286 43.6101 43.4286C43.8392 43.4286 43.8106 43.3238 43.5242 43.1143C43.1806 42.8857 43.1806 42.8286 43.6674 42.9143ZM46.7599 41.7714C47.1608 41.8286 47.3899 42.0571 47.3899 42.4286C47.409 42.8095 47.5808 42.9714 47.9053 42.9143C48.163 42.8857 48.3921 42.9714 48.3921 43.1429C48.3921 43.3143 48.9934 44.0286 49.7093 44.7714C50.5683 45.6857 50.9119 46.2286 50.7401 46.4286C50.5492 46.619 50.0529 46.3809 49.2511 45.7143C48.5925 45.1714 47.8767 44.3714 47.6476 43.9143C47.4185 43.4857 47.1894 43.1429 47.1035 43.1429C47.0176 43.1429 47.0176 43.2571 47.1035 43.4286C47.1894 43.6 47.1322 43.7143 46.9604 43.7143C46.8172 43.7143 46.5595 43.4571 46.3877 43.1429C46.2445 42.8286 46.1013 42.3714 46.13 42.1143C46.13 41.8286 46.359 41.7143 46.7599 41.7714ZM40.7181 42.0286C41.0044 42.1714 41.2621 42.4857 41.2621 42.7143C41.2335 42.9429 41.033 43.1429 40.804 43.1429C40.5749 43.1429 40.2599 42.9143 40.0881 42.6286C39.9449 42.3714 39.8877 42.0571 39.9736 41.9429C40.0595 41.8286 40.4031 41.8571 40.7181 42.0286ZM41.663 41.4286C41.7489 41.4286 42.0639 41.5429 42.3789 41.7143C42.6938 41.8857 42.8943 42.1143 42.8084 42.2857C42.7225 42.4571 42.4075 42.5714 42.0925 42.5714C41.7107 42.5714 41.5198 42.3809 41.5198 42C41.5198 41.6857 41.5771 41.4286 41.663 41.4286ZM42.8943 40.0571C43.467 40.1143 43.9251 40.2571 43.8965 40.4286C43.8678 40.6 43.5529 40.8 43.1806 40.8857C42.8084 40.9714 42.3502 41 42.1784 40.9429C41.978 40.8857 41.8062 40.6571 41.8348 40.4C41.8348 40.0857 42.0925 40 42.8943 40.0571ZM40.2026 40.0857C40.3745 40.1429 40.6608 40.4 40.804 40.6571C40.9758 40.9143 41.0044 41.2286 40.8899 41.3429C40.7467 41.4571 40.4031 41.3143 40.0881 41C39.7731 40.6857 39.6013 40.3143 39.6872 40.2C39.8018 40.0857 40.0308 40.0286 40.2026 40.0857ZM38.0837 38.8571C38.7996 38.8571 38.9714 39 39.1145 39.6286C39.2004 40.0857 39.3436 40.6571 39.4009 40.9143C39.4582 41.2286 39.3436 41.4286 39.0859 41.4286C38.7996 41.4286 38.6564 41.1429 38.6564 40.5714C38.6564 39.8571 38.5419 39.7143 37.9405 39.7143C37.4824 39.7143 37.2247 39.5429 37.2247 39.2857C37.2247 39 37.511 38.8571 38.0837 38.8571ZM34.4758 38.8571C34.6476 38.8571 35.0198 39.0857 35.3062 39.3714C35.5925 39.6286 35.8216 40.0286 35.793 40.2C35.793 40.4 36.0507 40.5714 36.3656 40.5714C36.7093 40.5714 36.9956 40.8 37.0815 41.1429C37.1674 41.4571 37.3965 41.7429 37.5969 41.7429C37.7687 41.7714 38.1123 41.7714 38.3128 41.7429C38.4846 41.7429 38.7137 41.9143 38.7996 42.1429C38.8855 42.3714 38.8855 42.6857 38.7996 42.8571C38.7137 43.0286 38.2841 43.1429 37.7974 43.1429C37.0815 43.1429 36.9383 43.0286 36.9383 42.4286C36.9383 41.9143 36.7952 41.7143 36.3656 41.7143C36.022 41.7143 35.6784 41.4286 35.5066 41C35.3634 40.6 35.0485 40.2857 34.8767 40.2857C34.6762 40.2857 34.3326 40.0286 34.1608 39.7143C33.9604 39.4 33.8745 39.0857 33.989 39C34.0749 38.9143 34.304 38.8571 34.4758 38.8571ZM45.5573 38.3429C45.9009 38.3714 46.2445 38.6 46.3018 38.7714C46.359 39 46.1586 39.1143 45.7577 39.0571C45.4141 39.0286 45.0991 38.8286 45.0419 38.6286C44.9655 38.3619 45.1373 38.2667 45.5573 38.3429ZM43.7533 38.3429C44.0397 38.4 44.2687 38.7143 44.326 39.0857C44.3546 39.4286 44.2974 39.7143 44.1828 39.7143C44.0397 39.7143 43.7819 39.5714 43.5815 39.3714C43.3811 39.1714 43.2379 38.8286 43.2665 38.6286C43.2665 38.4 43.4956 38.2857 43.7533 38.3429ZM41.0617 38.3714C41.663 38.4 42.1498 38.6 42.2357 38.8571C42.3216 39.0857 42.2643 39.4 42.0925 39.5714C41.8825 39.7619 41.7107 39.7429 41.5771 39.5143C41.4626 39.3429 41.1189 39.2 40.804 39.2286C40.489 39.2571 40.2027 39.0857 40.1454 38.8C40.0308 38.4 40.2026 38.3143 41.0617 38.3714ZM36.1938 37.1429C36.3656 37.1429 36.7379 37.3143 36.9956 37.5143C37.2819 37.7143 37.4824 38.0286 37.511 38.2C37.511 38.4 37.2819 38.5714 37.0242 38.5714C36.7379 38.6 36.2797 38.3714 35.9934 38.0857C35.7357 37.8 35.5925 37.4857 35.7071 37.3429C35.793 37.2286 36.022 37.1429 36.1938 37.1429ZM42.3216 36.6286C42.5793 36.6857 42.8084 36.9143 42.8084 37.1429C42.8084 37.3714 42.6079 37.5714 42.3789 37.5714C42.1498 37.5714 41.9207 37.3429 41.8921 37.0571C41.8348 36.6857 41.9493 36.5429 42.3216 36.6286ZM37.7974 35.4286C38.1123 35.4286 38.685 35.8 39.0859 36.2857C39.4868 36.7714 40.0022 37.1429 40.2313 37.1429C40.4604 37.1429 40.6608 37.3429 40.6608 37.5714C40.6608 37.8286 40.4031 38 40.0308 38C39.63 38 38.9427 37.5429 38.3128 36.8571C37.7115 36.2286 37.2247 35.6571 37.2247 35.5714C37.2247 35.4857 37.4824 35.4286 37.7974 35.4286ZM29.2643 35.4286C29.3789 35.4286 29.6366 35.6857 29.7797 36C29.9515 36.3143 30.0661 36.6286 30.0661 36.7143C30.0661 36.8 29.8084 36.8571 29.4934 36.8571C29.1784 36.8571 28.8348 36.6 28.7203 36.3143C28.6057 36 28.6057 35.6857 28.7489 35.6C28.8921 35.5143 29.1211 35.4286 29.2643 35.4286ZM28.2908 33.7714C28.5771 33.8286 28.8062 34.1429 28.8634 34.5143C28.8921 34.8571 28.8634 35.1429 28.7775 35.1429C28.6916 35.1429 28.4339 34.9429 28.2049 34.7143C27.9758 34.4857 27.7753 34.1429 27.804 33.9714C27.804 33.8 28.033 33.7143 28.2908 33.7714ZM39.7731 33.4571C40.0308 33.6857 40.4604 34.1143 40.7467 34.4286C41.033 34.7429 41.2335 35.0857 41.2335 35.2C41.2335 35.3429 41.5198 35.4571 41.8634 35.4857C42.2071 35.5429 42.522 35.7429 42.5793 35.9143C42.6366 36.1429 42.3789 36.2857 41.8921 36.2857C41.348 36.2571 40.7467 35.8857 40.0308 35.1429C39.315 34.3714 39 33.8571 39.1145 33.5429C39.2864 33.1429 39.3723 33.1429 39.7731 33.4571ZM27.5463 31.9143C27.8326 32.2 28.0903 32.5143 28.0617 32.6286C28.0617 32.7714 27.8899 32.8571 27.7181 32.8571C27.5176 32.8857 27.174 32.6857 27.0022 32.4286C26.8018 32.2 26.7159 31.8571 26.8304 31.6857C26.9449 31.4857 27.2026 31.5714 27.5463 31.9143ZM25.7137 30C25.8282 30 26.1718 30.1714 26.4868 30.4C27.0308 30.8 27.0308 30.8286 26.5441 31.0571C26.1718 31.2 25.9141 31.1429 25.7423 30.8571C25.5991 30.6286 25.4846 30.3429 25.4846 30.2C25.4846 30.0857 25.5705 30 25.7137 30ZM24.5683 28C24.6828 28.0286 24.9119 28.2286 25.1123 28.5143C25.3128 28.7714 25.4846 29.0857 25.4846 29.2C25.4846 29.3429 25.2269 29.4286 24.9119 29.4286C24.4824 29.4286 24.3392 29.2286 24.3392 28.7143C24.3392 28.3143 24.4251 28 24.5683 28ZM21.9053 25.1429C22.1344 25.1429 22.3921 25.3714 22.478 25.6286C22.5639 25.9143 22.5639 26.1714 22.478 26.2C22.3921 26.2571 22.0771 26.1429 21.7621 26C21.4471 25.8286 21.2467 25.5714 21.3326 25.4286C21.4471 25.2571 21.7049 25.1429 21.9053 25.1429Z" fill="#E0E0E0"/>
<path d="M23.7665 19.2286C23.3656 19.4571 22.7357 19.8 22.3634 20.0286C21.9626 20.2571 21.4185 20.6571 21.1322 20.9429C20.6454 21.4 20.6454 21.4571 21.1322 22.1143C21.3899 22.4857 21.9339 22.9143 22.3348 23.1143C22.7357 23.2857 23.2225 23.4286 23.4229 23.4286C23.5947 23.4286 23.7665 23.5714 23.7665 23.7143C23.7665 23.8857 23.967 24 24.196 24C24.4251 24 25.0551 24.2571 25.5705 24.5714C26.0573 24.8857 26.7159 25.1429 27.0022 25.1429C27.2599 25.1429 27.7467 25.2857 28.0617 25.4286C28.3767 25.6 28.8921 25.8571 29.2071 26C29.522 26.1714 30.0947 26.2857 30.4956 26.2857H31.2115C29.7797 24.8 28.978 23.9143 28.4912 23.3714C28.0044 22.8571 27.174 21.8286 26.63 21.1429C26.0859 20.4286 25.4273 19.6286 25.1982 19.3429C24.9692 19.0857 24.7115 18.8571 24.6256 18.8571C24.5397 18.8571 24.1674 19.0286 23.7665 19.2286Z" fill="#F7F7F7"/>
<path d="M9.53524 15.8857C9.16299 15.9429 8.87665 16.1429 8.87665 16.2857C8.87665 16.4286 9.13436 16.7143 9.44934 16.8571C9.90749 17.0857 10.0793 17.0286 10.3084 16.5714C10.4515 16.2571 10.5947 15.9429 10.5947 15.8571C10.5947 15.7714 10.5088 15.7429 10.3943 15.7429C10.2511 15.7714 9.87885 15.8286 9.53524 15.8857ZM7.44493 13.3429C7.67401 13.6286 8.30396 14.3143 8.81938 14.8571C9.3348 15.4 9.79295 15.8 9.87885 15.7143C9.93612 15.6286 9.4207 14.9714 8.70484 14.2C8.01762 13.4571 7.35903 12.8571 7.24449 12.8571C7.12995 12.8571 7.21586 13.0857 7.44493 13.3429Z" fill="#E0E0E0"/>
<path d="M4.92511 11.0571C4.5815 11.4857 4.29516 12 4.29516 12.1429C4.32379 12.2857 4.4956 12.5714 4.72467 12.7143C4.95375 12.8857 5.03965 13.1714 4.92511 13.3714C4.81058 13.5714 4.4956 13.6571 4.23789 13.5714C3.95155 13.4857 3.72247 13.2286 3.72247 13C3.72247 12.7714 3.60793 12.6286 3.43613 12.7143C3.26432 12.8 3.4934 13.4857 3.92291 14.3429C4.38106 15.2286 5.87005 17 7.44494 18.5714C8.96256 20.0571 10.6234 21.6 11.1388 22C11.6828 22.4 12.3414 22.9143 12.5991 23.1429C12.8855 23.3714 13.4009 23.8 13.7159 24.0571C14.0595 24.3429 14.3745 24.5714 14.4604 24.5714C14.5463 24.5714 14.8899 24.8286 15.2621 25.1429C15.6057 25.4571 16.0066 25.6 16.1784 25.4857C16.3216 25.3714 16.6652 24.7714 16.9229 24.1429C17.1806 23.5143 17.6101 22.8286 17.8678 22.6286C18.1256 22.4571 18.2687 22.1429 18.1828 22C18.0969 21.8286 17.7247 21.8 17.2952 21.9143C16.6938 22.1143 16.5507 22.0286 16.4361 21.4857C16.3502 21.0286 16.1211 20.8571 15.6057 20.8571C15.2048 20.8571 14.8326 20.6571 14.7467 20.4286C14.6608 20.2 14.5463 19.7714 14.4317 19.4857C14.3172 19.0571 14.2599 19.0571 14.0308 19.4286C13.8304 19.8 13.7445 19.8 13.315 19.4286C13.0573 19.2 12.8568 18.7714 12.8855 18.4857C12.8855 18.1143 12.7137 18.0286 12.0837 18.1714C11.5397 18.2857 11.2533 18.2286 11.0815 17.8857C10.967 17.6286 11.0242 17.3714 11.1674 17.2857C11.3392 17.2 11.2533 16.9429 10.9956 16.6286C10.5661 16.1714 10.5088 16.1714 10.2797 16.6286C10.0793 17.0286 9.90749 17.0857 9.44934 16.8571C9.13437 16.6857 8.87666 16.4286 8.87666 16.2857C8.87666 16.1143 9.13437 16 9.44934 16C9.93613 16 9.85022 15.8286 8.93392 14.9143C8.3326 14.3429 7.47357 13.3429 7.01542 12.7143C6.52864 12.0857 6.04185 11.2857 5.87005 10.9143L5.5837 10.2286L4.92511 11.0571Z" fill="#F7F7F7"/>
<path d="M7.04405 15.0857C6.95815 15.2 7.15859 15.5143 7.44493 15.8C7.75991 16.0571 8.13216 16.2286 8.30396 16.1429C8.44714 16.0571 8.5044 15.8 8.36123 15.5429C8.2467 15.3143 7.98899 15.1714 7.78855 15.2571C7.61674 15.3429 7.5022 15.3143 7.55947 15.1429C7.61674 15 7.55947 14.8571 7.4163 14.8571C7.30176 14.8571 7.12996 14.9429 7.04405 15.0857ZM5.35463 13.9143C5.26872 14.0286 5.44053 14.3714 5.72687 14.6571C6.04185 14.9143 6.38546 15.0857 6.5 14.9714C6.64317 14.8857 6.5859 14.6286 6.44273 14.3714C6.27092 14.1143 6.01322 13.8571 5.84141 13.8C5.6696 13.7429 5.44053 13.8 5.35463 13.9143Z" fill="#E0E0E0"/>
<path d="M6.09912 9.02857L5.44053 9.42857C6.67181 11.8857 7.84582 13.3143 9.42071 14.8286C11.3965 16.7429 11.7974 17.2571 11.4537 17.4857C11.1101 17.6857 11.1674 17.7143 11.5969 17.5714C11.9978 17.4571 12.6278 17.7714 13.7445 18.6C14.6035 19.2857 15.348 19.9143 15.3767 20.0571C15.4339 20.1714 15.663 20.2857 15.8921 20.2857C16.1211 20.2857 16.3216 20.4286 16.3216 20.5714C16.3216 20.7143 16.7797 21.0571 17.3238 21.2857C17.8678 21.5143 18.4119 21.8857 18.5264 22.0571C18.641 22.2571 18.5551 22.4571 18.3833 22.4857C18.1828 22.5429 18.0396 22.7714 18.0396 23C18.0396 23.2286 18.1256 23.4286 18.2401 23.4286C18.3833 23.4286 18.6982 23.2286 18.9559 23C19.4141 22.6286 19.6145 22.6571 20.9031 23.2857C21.6762 23.6857 22.5639 24 22.8216 24C23.1366 23.9714 22.9361 23.7714 22.3348 23.4571C21.7907 23.1714 21.1035 22.6 20.8172 22.1714C20.5595 21.7714 20.3304 21.3714 20.3304 21.2857C20.3304 21.2 20.7026 20.7714 21.1894 20.2857C21.6762 19.8 22.2203 19.4286 22.3921 19.4286C22.5925 19.4571 22.9648 19.2571 23.1938 19C23.5661 18.6 23.5661 18.5429 23.1079 18.5714C22.8502 18.5714 22.6211 18.7143 22.6211 18.8571C22.6211 19 22.4493 19.1143 22.2489 19.0857C22.0771 19.0286 21.5617 19.3714 21.1322 19.8C20.7026 20.2286 20.2445 20.5714 20.13 20.5714C20.0154 20.6 19.3568 19.8857 18.6696 19C18.011 18.1429 17.467 17.2857 17.467 17.1429C17.467 17 17.3524 16.8286 17.2379 16.7714C17.1233 16.7429 16.5793 16.1429 16.0352 15.4286C15.4912 14.7429 14.6322 13.7143 14.174 13.1714C13.6872 12.6571 12.3414 11.3714 11.1674 10.3714C9.27753 8.77143 8.87665 8.54286 7.87445 8.57143C7.24449 8.6 6.44273 8.8 6.07048 9.02857H6.09912Z" fill="#868686"/>
<path d="M11.2533 15.6571C11.3106 15.7714 12.4273 16.6571 13.7159 17.6571C14.9758 18.6286 16.0352 19.3143 16.0352 19.1429C16.0352 19 15.9493 18.8571 15.8348 18.8571C15.6916 18.8571 15.348 18.6286 15.033 18.3714C14.6894 18.0857 13.859 17.4 13.1718 16.8571C12.4559 16.3143 11.8546 15.7714 11.826 15.6571C11.7687 15.5429 11.5969 15.4286 11.4251 15.4286C11.2533 15.4286 11.1674 15.5143 11.2533 15.6571Z" fill="#E0E0E0"/>
<path d="M7.01542 9.62857C6.87225 9.71429 6.78635 10.0571 6.81498 10.3429C6.84361 10.6286 6.95815 10.8571 7.07269 10.8571C7.21586 10.8571 7.53084 11.2 7.78855 11.6286C8.04626 12.0857 8.87665 13.1143 9.64978 13.9143C10.3943 14.7429 11.196 15.4286 11.3678 15.4286C11.5683 15.4286 11.7687 15.5143 11.7974 15.6286C11.8546 15.7714 12.2841 16.1714 12.7709 16.5714C13.2577 16.9714 14.0595 17.6 14.6035 18C15.1189 18.4 15.6916 18.8571 15.8634 19C16.0352 19.1714 16.6366 19.6286 17.1806 20C17.7247 20.3714 18.2687 20.8286 18.3833 21C18.4978 21.1429 18.641 21.2286 18.7269 21.1429C18.8128 21.0571 18.5837 20.5714 18.2401 20.0286C17.8965 19.4857 17.4097 18.7429 17.1806 18.4C16.9515 18.0571 15.8348 16.7143 14.7181 15.4C13.6013 14.0857 11.9692 12.3429 11.1101 11.5714C10.2797 10.7714 9.27754 9.97143 8.93392 9.77143C8.59031 9.6 8.07489 9.42857 7.78855 9.42857C7.50221 9.42857 7.15859 9.51429 7.01542 9.62857Z" fill="#F7F7F7"/>
<path d="M6.72907 9.34285C6.5859 9.42857 6.5 9.77143 6.52863 10.0571C6.55727 10.3429 7.15859 11.3143 7.84581 12.2C8.53304 13.1143 9.50661 14.2286 9.99339 14.7143C10.4802 15.1714 10.8811 15.4857 10.8811 15.3429C10.8811 15.2286 10.4515 14.7143 9.93612 14.2C9.44934 13.7143 8.64758 12.7714 8.16079 12.1429C7.70264 11.5143 7.18722 10.9429 7.07269 10.8571C6.92952 10.7714 6.87225 10.4571 6.92952 10.1429C6.98678 9.85714 7.3304 9.51428 7.73128 9.4L8.44714 9.2C7.30176 9.14285 6.87225 9.22857 6.72907 9.34285Z" fill="#E0E0E0"/>
<path d="M10.8811 5.91429C11.4251 6.20001 12.3128 6.74286 12.8282 7.08572C13.315 7.42858 13.8304 7.71429 13.9736 7.71429C14.0881 7.74286 14.8326 8.28572 15.6057 8.94286C16.4075 9.60001 17.6674 10.7143 18.4405 11.4286C19.2137 12.1429 20.2445 13.1143 20.7026 13.5714C21.1608 14.0571 22.1057 15.1714 22.793 16.0857C23.7093 17.2857 23.967 17.7714 23.6806 17.9429C23.5088 18.0857 23.0793 18.3143 22.7643 18.4286C22.4493 18.5429 22.0485 18.6857 21.848 18.6857C21.6762 18.7143 21.2467 19.0571 20.9317 19.5143C20.5881 19.9429 20.1586 20.2286 19.9009 20.1429C19.6718 20.0571 19.4714 19.8286 19.4714 19.6571C19.4714 19.4571 19.0991 18.9143 18.6696 18.4286C18.2115 17.9714 17.8106 17.4286 17.7247 17.2571C17.6674 17.0857 17.152 16.3714 16.6079 15.6857C16.0639 15 14.5176 13.3143 13.1718 11.9429C11.5683 10.2857 10.9097 9.42858 11.2247 9.42858C11.511 9.42858 11.7401 9.28572 11.7401 9.14286C11.7401 9.00001 11.5397 8.80001 11.3106 8.71429C11.0815 8.62858 10.7093 8.68572 10.5088 8.85715C10.2797 9.04763 10.0507 9.01905 9.82159 8.77144C9.62115 8.60001 9.39207 8.48572 9.3348 8.57143C9.2489 8.65715 9.85022 9.25715 10.6806 9.91429C11.511 10.5714 12.7996 11.8 13.6013 12.6286C14.3745 13.4571 15.4912 14.7143 16.0352 15.4286C16.5793 16.1429 17.1234 16.7429 17.2379 16.8C17.3524 16.8286 17.467 17 17.467 17.1429C17.467 17.2857 18.011 18.1429 18.6696 19C19.3568 19.8857 20.0154 20.6 20.13 20.5714C20.2445 20.5714 20.7026 20.2286 21.1322 19.8C21.5617 19.3714 22.0771 19.0286 22.2489 19.0857C22.4493 19.1143 22.6211 19 22.6211 18.8571C22.6211 18.7143 22.8502 18.5714 23.1079 18.5714C23.5661 18.5429 23.5661 18.6 23.1938 19C22.9648 19.2571 22.5925 19.4571 22.3921 19.4286C22.2203 19.4286 21.6762 19.8 21.1894 20.2857C20.7026 20.7714 20.3304 21.2 20.3304 21.2857C20.3304 21.3714 20.5595 21.7714 20.8172 22.1714C21.1035 22.6 21.7908 23.1714 22.3348 23.4571C22.9361 23.7714 23.1366 23.9714 22.8216 24C22.5639 24 21.6762 23.6857 20.9031 23.2857C19.6145 22.6571 19.4141 22.6286 18.9559 23C18.6982 23.2286 18.3833 23.4286 18.2401 23.4286C18.1256 23.4286 18.0397 23.2286 18.0397 23C18.0397 22.7714 18.2115 22.5143 18.3833 22.4857C18.6696 22.4 18.641 22.2571 18.326 21.8857C17.9537 21.4571 17.9537 21.4 18.3833 21.4286C18.6696 21.4286 18.956 21.2857 19.0419 21.1429C19.1278 21 18.7555 20.2286 18.2401 19.4857C17.7533 18.7143 16.8656 17.5429 16.3216 16.8571C15.7775 16.1714 14.0881 14.3429 12.5991 12.8C11.1101 11.2571 9.85022 10.0571 9.79295 10.1429C9.76432 10.2286 10.3943 10.8857 11.196 11.6571C12.0264 12.4 13.6013 14.0857 14.7181 15.4C15.8348 16.7143 16.9515 18.0571 17.1806 18.4C17.4097 18.7429 17.8965 19.4857 18.2401 20.0286C18.5837 20.5714 18.8128 21.0571 18.7269 21.1429C18.641 21.2286 18.4978 21.1429 18.3833 21C18.2687 20.8286 17.7247 20.4 17.1806 20.0286L16.1784 19.3714C17.6388 20.6286 18.0397 21.0857 18.0397 21.2286C18.0397 21.3429 17.8678 21.4286 17.6674 21.4286C17.4956 21.4286 17.0374 21.1714 16.6938 20.8571C16.3216 20.5429 15.8921 20.2857 15.7489 20.2857C15.6057 20.2857 15.4339 20.1714 15.3767 20.0571C15.348 19.9143 14.6035 19.2857 13.7445 18.6C12.6278 17.7714 11.9978 17.4571 11.5969 17.5714C11.1388 17.7143 11.1101 17.6857 11.4537 17.4571C11.826 17.2 11.826 17.1143 11.3678 16.6571C11.0529 16.3429 10.8811 16.2857 10.8811 16.4857C10.8811 16.6857 11.0529 16.8571 11.2533 16.8571C11.511 16.8286 11.511 16.9143 11.2533 17.2C11.0815 17.4 10.9956 17.7429 11.1101 17.9714C11.2438 18.2191 11.5778 18.2857 12.1123 18.1714C12.7137 18.0286 12.8855 18.1143 12.8855 18.4857C12.8568 18.7714 13.0573 19.2 13.315 19.4286C13.7445 19.8 13.8304 19.8 14.0308 19.4286C14.2599 19.0571 14.3172 19.0857 14.4604 19.5714C14.5749 19.8857 14.7181 20.3143 14.7753 20.4857C14.8326 20.6857 15.2048 20.8571 15.6057 20.8571C16.1211 20.8571 16.3502 21.0286 16.4361 21.4857C16.5507 22.0286 16.6938 22.1143 17.2952 21.9143C17.7247 21.8 18.0969 21.8286 18.1828 22C18.2687 22.1429 18.1256 22.4571 17.8678 22.6286C17.6101 22.8286 17.1806 23.5143 16.9229 24.1429C16.6652 24.7714 16.3216 25.3714 16.1784 25.4857C16.0066 25.6 15.6057 25.4571 15.2335 25.1429C14.8899 24.8286 14.5463 24.5714 14.4604 24.5714C14.3745 24.5714 14.0595 24.3429 13.7159 24.0571C13.4009 23.8 12.8855 23.3714 12.5991 23.1429C12.3414 22.9143 11.6828 22.4 11.1388 22C10.6234 21.6 8.99119 20.0857 7.53084 18.6286C6.07049 17.2 4.86784 16.0857 4.86784 16.2C4.86784 16.3429 6.07049 17.6 7.50221 19.0286C8.96256 20.4571 11.4251 22.6 12.9714 23.8C14.489 25.0286 15.8921 26 16.0352 26C16.1784 26 16.3216 25.8571 16.3216 25.7143C16.3216 25.5714 16.4648 25.4286 16.6079 25.4286C16.7511 25.4286 16.8656 25.6 16.8656 25.8C16.837 25.9714 16.837 26.3143 16.8656 26.4857C16.8656 26.6857 17.8965 27.5714 19.0991 28.4571C20.3304 29.3429 22.5639 31.3143 24.0529 32.8286C25.5419 34.3429 27.7467 36.6571 28.9207 37.9714C30.0947 39.2857 31.1542 40.5714 31.2401 40.8286C31.3546 41.0857 32.6145 42.4 34.0463 43.7714C36.022 45.6857 36.7665 46.2286 37.1388 46.0571C37.5396 45.9143 37.5969 45.9714 37.4251 46.3429C37.3106 46.6857 37.3965 47 37.7115 47.2857C37.9978 47.5143 38.456 47.7143 38.7137 47.7143C39.0286 47.7143 39.2291 47.9429 39.2291 48.2857C39.2291 48.6 39.315 48.8571 39.4295 48.8571C39.5727 48.8571 40.9471 50.1143 42.5507 51.6572C44.1256 53.1714 46.8172 55.6857 48.478 57.2C50.1674 58.7429 51.5419 59.9429 51.5419 59.8571C51.5419 59.7714 50.8546 59.0571 50.0242 58.2571C49.2225 57.4571 47.5044 55.8857 46.2731 54.7714C45.0132 53.6286 43.0088 51.7429 41.8348 50.5429C40.6322 49.3714 39.5727 48.1714 39.4295 47.9143C39.315 47.6571 39.0286 47.4286 38.7996 47.4286C38.5705 47.4286 38.2555 47.1714 38.0837 46.8571C37.9119 46.5429 37.7974 46.1714 37.7974 46C37.7974 45.8095 37.9883 45.8095 38.37 46C38.685 46.1714 39 46.2857 39.0859 46.2857C39.1718 46.2857 39.2291 46.0857 39.2291 45.8572C39.2291 45.6286 39.0286 45.3429 38.7996 45.2C38.5419 45.0857 38.1982 45.1429 38.0264 45.3429C37.826 45.5429 37.3965 45.7143 37.0242 45.7143C36.652 45.7143 36.3656 45.6 36.3656 45.4286C36.3656 45.2571 36.652 45 36.9956 44.8286C37.6256 44.5429 37.6256 44.4857 37.1388 44.0571C36.7665 43.7143 36.5661 43.6572 36.4229 43.8857C36.3084 44.0857 35.8502 44.1714 35.3634 44.1143C34.8767 44.0571 34.4471 43.9429 34.3612 43.8572C34.2753 43.7714 34.4758 43.7143 34.8194 43.7143C35.1344 43.7143 35.5066 43.6286 35.5925 43.4857C35.7071 43.3714 35.6498 43.0571 35.5066 42.7714C35.3348 42.5143 34.9626 42.2857 34.6476 42.2857C34.3326 42.2857 33.989 42.0286 33.8458 41.7143C33.7313 41.4 33.4163 41.0857 33.13 41C32.8722 40.9143 32.5573 41.0571 32.4141 41.2857C32.2709 41.6286 32.0705 41.4571 31.5551 40.5714C31.2115 39.9429 30.8392 39.4286 30.696 39.4286C30.5815 39.4286 30.5529 39.1429 30.6101 38.7714C30.6674 38.4286 30.5242 38.0286 30.3238 37.8857C30.0947 37.7429 29.8084 37.7714 29.6366 37.9429C29.4361 38.1714 29.2643 38.1429 29.0639 37.9143C28.9207 37.7143 28.0617 36.7429 27.2026 35.7429C26.3436 34.7143 24.9119 33.1714 24.0242 32.3143C23.1652 31.4286 21.9912 30.3429 21.4185 29.8571C20.8458 29.3714 19.6718 28.4857 18.7841 27.8571C17.8965 27.2286 17.1806 26.5143 17.1806 26.2857C17.1806 26.0571 17.4383 25.5429 17.7533 25.1429C18.0683 24.7429 18.326 24.3429 18.326 24.2C18.326 24.0857 18.6123 23.7714 18.9559 23.4571C19.3282 23.1714 19.815 23 20.0441 23.0571C20.4163 23.2 20.4163 23.2286 20.0441 23.4571C19.7291 23.6286 19.7004 23.8286 19.9009 24.1714C20.0441 24.4286 20.3877 24.7143 20.6167 24.8C20.9604 24.9429 20.989 24.8286 20.8172 24.3429C20.7026 23.9714 20.7313 23.7143 20.9031 23.7143C21.0463 23.7143 21.4185 23.8286 21.6762 23.9714C21.9626 24.1143 23.0507 24.6571 24.1101 25.1714C25.1982 25.7143 26.1432 26.0571 26.2577 25.9143C26.3436 25.8 26.2577 25.7143 26.0573 25.7143C25.7423 25.7143 25.7423 25.6286 26 25.3429C26.2577 25.0857 26.1432 24.8857 25.4846 24.4857C24.9978 24.2286 24.4251 24 24.196 24C23.967 24 23.7665 23.8571 23.7665 23.7143C23.7665 23.5429 23.5947 23.4286 23.3943 23.4286C23.2225 23.4286 22.7357 23.2857 22.3348 23.1143C21.9339 22.9143 21.3899 22.4857 21.1035 22.1143C20.6454 21.4571 20.6454 21.4 21.1322 20.9143C21.4185 20.6571 21.9626 20.2571 22.3634 20.0286C22.7357 19.8 23.3943 19.4286 23.8238 19.2286C24.511 18.9143 24.6828 18.9143 25.141 19.3429C25.3987 19.6286 26.0859 20.4286 26.63 21.1429C27.174 21.8571 27.8899 22.6857 28.2048 23.0286C28.5198 23.3714 29.2357 24.1714 29.7797 24.8C30.3238 25.4571 30.8678 26 30.9824 26C31.1256 26 30.2665 24.9429 29.1211 23.6286C28.0044 22.3429 26.7445 20.8286 26.3436 20.3143C25.9427 19.7714 25.4273 19.1143 25.1982 18.8286C24.9692 18.5429 24.5969 18.3143 24.3965 18.2857C24.2247 18.2857 24.1101 18.1143 24.196 17.9143C24.2819 17.7429 23.5374 16.5429 22.5352 15.2857C21.533 14.0286 19.5 11.9429 18.011 10.6286C16.522 9.31429 14.4031 7.68572 13.315 7.00001C12.1982 6.34286 10.9956 5.68572 10.5947 5.60001C10.1079 5.45715 10.1938 5.57144 10.8811 5.91429Z" fill="#E0E0E0"/>
<path d="M6.04185 5.85715C5.87004 6.08572 5.81277 6.42857 5.92731 6.62857C6.09912 6.88572 5.95595 6.91429 5.44053 6.77143C4.8392 6.6 4.55286 6.77143 3.77973 7.65714C3.09251 8.45714 2.86343 8.97143 2.86343 9.77143C2.86343 10.4571 3.00661 10.8571 3.20705 10.8571C3.40749 10.8286 3.837 10.5429 4.15198 10.1714C4.46696 9.82857 5.18282 9.17143 5.72687 8.77143C6.29956 8.34286 7.10132 8 7.5881 8C8.07489 8 8.61894 7.82857 8.81938 7.62857C9.07709 7.37143 9.2489 7.37143 9.50661 7.62857C9.79295 7.91429 9.73568 8.05714 9.16299 8.25714C8.47577 8.51429 8.47577 8.54286 9.07709 8.54286C9.44934 8.57143 9.79295 8.68572 9.87885 8.85714C9.9743 9.04762 10.1652 9.04762 10.4515 8.85714C10.6806 8.68572 11.0815 8.62857 11.3106 8.71429C11.5396 8.8 11.7401 9 11.7401 9.14286C11.7401 9.28572 11.511 9.42857 11.2247 9.42857C10.9097 9.42857 11.5683 10.2857 13.1718 11.9429C14.5176 13.3143 16.0639 15 16.6079 15.6857C17.152 16.3714 17.6674 17.0857 17.7247 17.2571C17.8106 17.4286 18.2115 17.9714 18.6696 18.4286C19.0991 18.9143 19.4714 19.4571 19.4714 19.6571C19.4714 19.8286 19.6718 20.0571 19.9009 20.1429C20.1586 20.2286 20.5881 19.9429 20.9317 19.4857C21.2467 19.0571 21.6762 18.7143 21.848 18.6857C22.0485 18.6857 22.4493 18.5429 22.7643 18.4286C23.0793 18.3143 23.5088 18.0857 23.6806 17.9429C23.967 17.7714 23.7092 17.2857 22.7929 16.0571C22.1057 15.1714 21.1608 14.0286 20.7026 13.5714C20.2445 13.1143 19.2137 12.1429 18.4405 11.4286C17.6674 10.7143 16.3789 9.6 15.6057 8.94286C14.804 8.28572 14.0881 7.74286 13.9449 7.71429C13.8304 7.71429 13.2004 7.34286 12.5132 6.91429C11.8546 6.48572 10.967 5.97143 10.5088 5.77143C10.0793 5.57143 8.99119 5.42857 8.04625 5.42857C6.87224 5.42857 6.27092 5.57143 6.04185 5.85715Z" fill="#F7F7F7"/>
<path d="M18.6123 15.8571C18.6123 16.0857 18.6696 16.2857 18.7555 16.2857C18.8414 16.2857 19.0991 16.3429 19.3282 16.4286C19.6145 16.5238 19.7577 16.381 19.7577 16C19.7577 15.6191 19.5668 15.4286 19.185 15.4286C18.87 15.4286 18.6123 15.6286 18.6123 15.8571ZM15.5771 12.1714C15.4339 12.2571 15.4339 12.5714 15.5485 12.8857C15.663 13.1714 16.0066 13.4286 16.3216 13.4286C16.6366 13.4286 16.8943 13.2571 16.8943 13.0857C16.8943 12.8857 16.7511 12.5429 16.5507 12.3429C16.3502 12.1429 16.0925 12 16.0066 12C15.9207 12 15.7203 12.0857 15.5771 12.1714ZM6.44273 6.57144C6.35683 6.74286 6.55727 7.00001 6.87225 7.14286C7.18723 7.31429 7.53084 7.37144 7.64538 7.28572C7.78855 7.20001 7.78855 6.94286 7.64538 6.71429C7.53084 6.48572 7.2445 6.28572 7.01542 6.28572C6.81498 6.28572 6.55727 6.42858 6.44273 6.57144Z" fill="#E0E0E0"/>
<path d="M6.01322 4.25715C5.78414 4.4 5.18282 4.68572 4.72467 4.88572C4.23789 5.08572 3.49339 5.65715 3.00661 6.17143C2.51982 6.65715 1.88987 7.71429 1.57489 8.54286C1.14537 9.62858 1.05947 10.3143 1.20264 11.0857C1.31718 11.6571 1.77533 12.8571 2.20485 13.7143C2.60573 14.5714 3.43612 15.9143 4.03745 16.7143C4.61013 17.4857 5.84141 18.8571 6.78634 19.7143C7.70264 20.5714 8.79075 21.5429 9.19163 21.8571C9.59251 22.1714 8.79075 21.3429 7.4163 20C6.01322 18.6571 4.49559 16.9143 4.00881 16.1429C3.52203 15.3429 3.14978 14.5714 3.14978 14.4286C3.14978 14.2857 3.40749 14.4286 3.72247 14.7714C4.03745 15.1429 4.29515 15.6 4.29515 15.7714C4.29515 15.9714 4.38106 16.0571 4.49559 15.9143C4.63877 15.8 4.38106 15.0571 3.95154 14.2857C3.49339 13.4571 3.26432 12.8 3.43612 12.7143C3.60793 12.6286 3.72247 12.7714 3.72247 13C3.72247 13.2286 3.95154 13.4857 4.23789 13.5714C4.49559 13.6571 4.81057 13.5714 4.92511 13.3714C5.03965 13.1714 4.95374 12.8857 4.72467 12.7143C4.49559 12.5714 4.29515 12.2857 4.29515 12.1429C4.29515 12 4.61013 11.4571 4.98238 11L5.69824 10.1429C5.92731 11.2571 6.27093 11.8286 6.5859 12.1429C7.04405 12.6 6.98678 12.3429 6.29956 11.0571L5.44053 9.42858C6.55727 8.77143 7.18722 8.57143 7.58811 8.57143C7.98899 8.57143 8.64758 8.42858 9.10573 8.28572C9.70705 8.05715 9.79295 7.91429 9.53524 7.62858C9.2489 7.37143 9.07709 7.37143 8.81938 7.62858C8.61894 7.82858 8.07489 8 7.61674 8C7.10132 8 6.29956 8.34286 5.72687 8.77143C5.18282 9.17143 4.46696 9.82858 4.15198 10.1714C3.837 10.5429 3.40749 10.8286 3.20705 10.8571C3.00661 10.8571 2.86344 10.4571 2.86344 9.77143C2.86344 8.97143 3.09251 8.45715 3.77974 7.65715C4.55286 6.77143 4.83921 6.6 5.44053 6.77143C5.95595 6.91429 6.09912 6.88572 5.95595 6.62858C5.81278 6.42858 5.89868 6.08572 6.07048 5.85715C6.32819 5.54286 6.95815 5.4 8.16079 5.4C9.79295 5.37143 9.82158 5.37143 8.87665 5.08572C8.18943 4.88572 7.53084 4.91429 6.78634 5.11429C6.21366 5.28572 5.46916 5.65715 5.15418 5.91429C4.81057 6.2 4.15198 6.82858 3.63656 7.31429C3.12115 7.8 2.63436 8.62857 2.51982 9.17143C2.40529 9.71429 2.20485 10.4571 2.09031 10.8286C1.88987 11.4571 1.9185 11.5143 2.57709 11.3143C2.97797 11.2 3.12115 11.2 2.94934 11.3429C2.69163 11.5143 2.663 11.8286 2.86344 12.5714C3.03524 13.1143 3.14978 13.7429 3.14978 13.9143C3.14978 14.1143 3.03524 14.2857 2.86344 14.2857C2.69163 14.2857 2.51982 14.0571 2.43392 13.7714C2.37665 13.5143 2.11894 12.7714 1.88987 12.1429C1.63216 11.5143 1.43172 10.6571 1.43172 10.2C1.43172 9.77143 1.57489 9.37143 1.71806 9.28572C1.86123 9.2 2.00441 8.91429 2.00441 8.62858C2.03304 8.37143 2.37665 7.65715 2.80617 7.02858C3.23568 6.42858 4.26652 5.57143 5.15418 5.08572C6.55727 4.31429 6.90088 4.22858 8.38987 4.4C9.39207 4.51429 10.022 4.45715 10.022 4.28572C10.022 4.11429 9.2489 4 8.21806 4.02858C7.24449 4.02858 6.24229 4.14286 6.01322 4.25715Z" fill="#E0E0E0"/>
</svg>
