<svg width="130" height="130" viewBox="0 0 130 130" fill="none" xmlns="http://www.w3.org/2000/svg">
<path d="M15.8921 5.28571C16.837 6.22857 18.1542 7.74285 18.8414 8.65714C19.5 9.54285 20.1299 10.2857 20.2445 10.2857C20.3877 10.3143 20.1013 9.82857 19.6432 9.22857C19.1564 8.62857 18.2401 7.48571 17.5815 6.71428C16.9229 5.91428 15.8921 4.91428 15.2907 4.42857C14.5176 3.85714 14.7181 4.14285 15.8921 5.28571ZM4.58149 14.6571C5.15418 15.1429 5.98458 15.8857 6.44272 16.2857C7.04405 16.8 7.15858 16.8571 6.87224 16.4286C6.64317 16.1143 6.12775 15.6 5.72687 15.2857C5.32598 14.9714 4.78193 14.4857 4.52422 14.2C4.23788 13.9429 3.9229 13.7143 3.77973 13.7143C3.66519 13.7143 4.03744 14.1429 4.58149 14.6571ZM24.2533 17.3429C24.4251 17.6857 24.5683 18.0857 24.5969 18.2571C24.5969 18.4286 23.6233 19.6286 22.3921 20.9143C21.1608 22.2286 19.6145 23.8571 18.9559 24.5714C18.2401 25.3429 17.6674 25.7429 17.5529 25.5714C17.4097 25.4 15.9207 24.0857 14.174 22.6C12.4559 21.1429 11.9119 20.7714 13.0286 21.7714C14.1167 22.7714 16.2643 24.8 17.7533 26.2857C19.2423 27.7714 22.163 30.7429 24.196 32.8571C26.2577 34.9714 29.2643 38.1714 30.9251 39.9714C32.5859 41.7714 34.3899 43.6857 34.9339 44.2571C35.478 44.8286 37.1388 46.6 38.6277 48.1429C40.1167 49.7143 42.7511 52.4857 44.4978 54.2857C46.2159 56.0857 48.5639 58.5429 49.6806 59.7143C50.7974 60.8857 53.5176 63.7714 55.6938 66.1429C57.87 68.4857 60.848 71.6571 62.2797 73.1429C63.7114 74.6286 66.3172 77.3143 68.0352 79.1143C69.7533 80.8857 71.2709 82.5143 71.4427 82.6857C71.6145 82.8571 72.359 83.7143 73.1321 84.5714C73.9053 85.4286 75.9097 87.5429 77.5705 89.2857C79.2313 91.0286 81.7511 93.6571 83.1828 95.1429C84.6145 96.6286 87.4493 99.6571 89.4824 101.829C91.544 104.029 94.2357 106.857 95.4669 108.114C96.7269 109.4 97.5286 110.171 97.2709 109.857C97.0132 109.543 96.7841 109.114 96.7841 108.943C96.7841 108.743 98.044 107.514 99.5903 106.229C101.108 104.943 102.769 103.486 103.227 102.971L104.086 102.057C106.319 103.6 107.207 104.171 107.522 104.314C107.866 104.486 107.837 104.4 107.379 104.086C107.007 103.8 106.09 103.114 105.346 102.571C104.601 102.029 101.824 99.2571 99.1894 96.4571C96.5264 93.6286 93.7203 90.6286 92.9185 89.7429C92.1167 88.8857 89.7973 86.4286 87.7643 84.3143C85.7026 82.1714 83.1828 79.5429 82.1806 78.4286C81.1498 77.3143 79.0308 75.0857 77.4559 73.4286C75.8811 71.7714 73.304 69.0857 71.7577 67.4286C70.1828 65.7714 67.6057 63.0857 66.0308 61.4286C64.4273 59.7714 61.5352 56.7143 59.5595 54.6C57.5837 52.4857 55.6079 50.3714 55.1211 49.8571C54.6344 49.3714 52.2004 46.8 49.6806 44.1143C47.1608 41.4571 43.6674 37.8 41.9493 36C40.2026 34.2 37.511 31.3714 35.9647 29.7143C34.4185 28.0571 31.6982 25.2286 29.9515 23.4286C28.1762 21.6286 26.2291 19.5143 25.6277 18.7143C24.9978 17.9429 24.3965 17.1429 24.2533 17C24.1101 16.8571 24.1101 17 24.2533 17.3429ZM106.033 121.571C106.72 122.514 107.722 123.6 108.267 123.971C109.097 124.571 109.068 124.486 107.952 123.4C107.236 122.686 106.233 121.6 105.718 121C105.203 120.371 105.317 120.629 106.033 121.571Z" fill="#E79251"/>
<path d="M7.2445 1.91428C6.58591 2 5.95595 2.42857 5.09692 3.4C4.4097 4.14285 3.6652 5.14285 3.43613 5.6C3.20705 6.05714 2.94934 6.48571 2.86344 6.57143C2.77754 6.65714 2.54846 7.17143 2.37666 7.71428C2.17622 8.25714 2.00441 9.05714 2.00441 9.51428C2.00441 9.94285 2.40529 11.0286 2.89208 11.9143C3.37886 12.8286 4.12335 13.8857 4.52423 14.2286C4.95375 14.6 5.87005 15.4571 6.58591 16.0857C7.30177 16.7429 8.64758 17.9429 9.59252 18.7143C10.5374 19.4857 12.6564 21.2857 14.3172 22.7143C15.978 24.1143 17.4097 25.4 17.5529 25.5714C17.6674 25.7429 18.2401 25.3429 18.9559 24.5714C19.6145 23.8571 21.1608 22.2 22.4207 20.8571C24.1674 19 24.6542 18.2857 24.511 17.8571C24.4251 17.5429 23.6806 16.1429 22.9075 14.7143C22.1057 13.2857 20.7885 11.2286 19.9582 10.1429C19.1278 9.02857 17.9537 7.51428 17.3238 6.77143C16.6938 6.02857 15.4626 4.85714 14.6035 4.17143C13.7445 3.48571 12.5132 2.71428 11.8833 2.45714C11.2533 2.2 10.1652 1.94285 9.44934 1.88571C8.73348 1.82857 7.73128 1.82857 7.2445 1.91428ZM103.828 102.343C103.742 102.543 102.11 104.029 100.22 105.629C98.3304 107.257 96.7841 108.686 96.7841 108.857C96.7841 109 97.3282 109.857 97.9868 110.743C98.674 111.629 99.4185 112.629 99.6476 112.971C99.8767 113.286 101.051 114.8 102.225 116.314C103.399 117.829 104.888 119.743 105.518 120.6C106.148 121.457 107.15 122.629 107.722 123.2C108.324 123.8 109.24 124.486 109.727 124.743C110.3 125.029 111.33 125.2 112.304 125.171C113.335 125.143 114.423 124.914 115.167 124.571C115.855 124.229 116.943 123.571 117.601 123.057C118.26 122.543 119.09 121.629 119.405 121C119.892 120.114 120.007 119.514 119.921 118.286C119.835 117.429 119.548 116.2 119.262 115.571C118.976 114.943 118.117 113.6 117.372 112.571C116.599 111.543 115.396 110.2 114.652 109.571C113.907 108.943 112.791 107.971 112.132 107.4C111.502 106.829 109.927 105.771 108.667 105C107.407 104.257 105.976 103.371 105.518 103.029C105.059 102.657 104.515 102.286 104.315 102.171C104.143 102.057 103.914 102.143 103.828 102.343Z" fill="#43413F"/>
<path d="M6.78634 6C5.69823 6.91429 5.41189 7.37143 5.26872 8.37143C5.09691 9.34286 5.21145 9.8 5.78414 10.8571C6.18502 11.5714 7.21585 12.7143 8.04625 13.4571C8.90528 14.1714 10.4229 15.2571 11.4537 15.8857C12.4846 16.5429 13.9736 17.4 14.7467 17.8571C15.5485 18.2857 17.1233 19.1429 18.2687 19.7429C19.7863 20.5714 20.3304 20.7429 20.3304 20.4286C20.3304 20.2 20.044 19.5143 19.7291 18.9143C19.3855 18.3429 18.7269 17.0857 18.2401 16.1429C17.7533 15.2 16.4648 12.9714 15.348 11.1714C14.2313 9.37143 12.6277 7.22858 11.7974 6.4C10.5088 5.05715 10.1652 4.85715 9.22026 4.85715C8.33259 4.85715 7.81718 5.08572 6.78634 6ZM101.652 106.857C101.652 107.029 102.024 107.886 102.482 108.771C102.941 109.686 103.914 111.657 104.659 113.143C105.403 114.629 106.262 116.314 106.606 116.857C106.921 117.4 107.694 118.486 108.267 119.286C108.839 120.057 109.813 121.057 110.414 121.486C111.216 122.057 111.874 122.286 112.733 122.286C113.85 122.286 114.108 122.143 115.54 120.714C116.399 119.857 117.115 118.943 117.115 118.714C117.115 118.486 116.943 117.943 116.714 117.486C116.513 117.057 115.396 115.857 114.28 114.771C113.163 113.714 111.302 112.229 110.156 111.457C109.04 110.714 106.778 109.286 105.145 108.314C103.542 107.371 102.081 106.571 101.938 106.571C101.767 106.571 101.652 106.686 101.652 106.857Z" fill="white"/>
</svg>
