<svg width="130" height="130" viewBox="0 0 130 130" fill="none" xmlns="http://www.w3.org/2000/svg">
<path d="M22.7643 24.4C21.7907 25.4 20.989 26.4286 20.9604 26.6857C20.9317 27 21.1322 27.1429 21.6762 27.1143C22.163 27.1143 22.7357 27.3714 23.1366 27.7714C23.4802 28.1429 23.7665 28.5429 23.7665 28.7143C23.7665 28.8571 23.3943 29.2286 22.9075 29.4857C22.4493 29.7714 21.848 30 21.6189 30C21.3899 30 21.1894 30.0857 21.2181 30.2C21.2181 30.3429 22.0771 31.1429 23.1366 32.0286C24.196 32.8857 25.8568 34.1429 26.8304 34.8C27.8326 35.4571 28.7775 36 28.9207 36C29.0639 36 29.207 36.1143 29.207 36.2857C29.207 36.4571 29.3502 36.5714 29.4934 36.5714C29.6366 36.5714 30.3238 36.9429 31.011 37.4C31.6696 37.8571 33.6454 39.6 35.3634 41.2857C37.1101 42.9714 40.3172 46.0571 42.522 48.1429C44.7269 50.2286 48.2775 53.6571 50.4251 55.7429C52.5441 57.8571 55.2643 60.4571 56.4383 61.5714C57.6123 62.6571 60.7621 65.6857 63.4537 68.2857C66.1454 70.8857 69.6101 74.2 71.185 75.6857C72.7313 77.1714 76.2247 80.5143 78.9163 83.1143C81.6079 85.7143 84.9009 88.8857 86.2181 90.1714C87.5352 91.4286 88.8238 92.8571 89.0529 93.3143C89.2819 93.7714 89.7114 94.4 89.9978 94.7143C90.2555 95.0286 90.4846 95.4571 90.4846 95.6286C90.4846 95.8286 90.5991 96.0286 90.7137 96.0571C90.8568 96.1143 91.315 96.6571 91.7159 97.2857C92.1454 97.9143 93.4339 99.4286 94.5793 100.657C95.696 101.886 96.7269 102.857 96.8414 102.857C96.9846 102.857 97.0705 102.629 97.0705 102.343C97.0705 102.086 97.3568 101.4 97.6718 100.857L98.2731 99.8571C99.6762 101.429 99.9339 102.029 99.9339 102.714C99.9339 103.571 100.02 103.714 100.564 103.714C100.965 103.714 101.852 103.086 102.855 102.057C104.029 100.886 104.487 100.2 104.515 99.6286C104.515 99.2 104.372 98.8571 104.143 98.8571C103.971 98.8571 103.599 98.5428 103.37 98.1429C103.141 97.7429 102.855 97.4286 102.711 97.4286C102.597 97.4286 102.511 97.1714 102.511 96.8571C102.511 96.5429 102.339 96.2857 102.139 96.2857C101.967 96.2571 101.079 95.6286 100.22 94.8286C99.3612 94.0286 97.5 92.6 96.0683 91.6286C94.6652 90.6571 93.2335 89.6 92.8899 89.2857C92.5749 88.9714 90.7709 87.2286 88.8811 85.4286C87.0198 83.6 81.5507 78.3428 76.7401 73.6857C71.9295 69.0571 66.6035 63.8857 64.8568 62.2286C63.1101 60.5714 60.7335 58.2571 59.5595 57.1429C58.3855 56 54.3194 52.0857 50.5396 48.4571C46.7599 44.8286 41.6916 39.8571 39.2291 37.4286C36.7952 35 34.1322 32.0286 33.3018 30.8571C32.5 29.6857 30.8392 27.6571 29.5793 26.3714C28.348 25.0571 27.2026 24 27.0595 24C26.8877 24 26.4009 23.6857 25.9141 23.2857C25.4273 22.8857 24.9405 22.5714 24.7974 22.5714C24.6542 22.5714 23.7379 23.4 22.7643 24.4Z" fill="#CE8650"/>
<path fill-rule="evenodd" clip-rule="evenodd" d="M8.67621 3.42857C9.04846 3.42857 8.4185 3.88572 7.01542 4.57143C5.7555 5.22857 4.49559 5.94286 4.20925 6.22857C3.92291 6.48572 3.29295 7.42857 2.8348 8.28572C2.37665 9.14286 2.0044 10 2.0044 10.1429C2.03304 10.2857 1.86123 10.6 1.63216 10.8286C1.28854 11.1429 1.28854 11.0571 1.54625 10.2571C1.68943 9.71429 2.11894 8.77143 2.46255 8.14286C2.80617 7.51429 3.63656 6.51429 4.32379 5.91429C4.98238 5.34286 5.6696 4.85715 5.84141 4.85715C6.01321 4.88572 6.32819 4.68572 6.52863 4.42857C6.72907 4.2 7.15859 4 7.44493 4C7.75991 4 8.01762 3.88572 8.01762 3.71429C8.01762 3.54286 8.30396 3.42857 8.64758 3.42857H8.67621ZM11.0529 4.05714C11.4347 4.05714 11.4824 4.10476 11.196 4.2C10.967 4.25715 10.5661 4.4 10.337 4.48572C10.1079 4.6 9.50661 4.71429 9.04846 4.77143C8.59031 4.82857 7.67401 5.22857 7.04405 5.62857C6.41409 6.02857 5.5837 6.62857 5.21145 6.97143C4.83921 7.28572 4.20925 8.08572 3.77973 8.71429C3.37885 9.34286 2.86343 10.2571 2.66299 10.7143C2.46255 11.1714 2.31938 12.5429 2.31938 13.7143C2.31938 14.8857 2.49119 16.3143 2.69163 16.8571C2.89207 17.4 3.26432 18.2857 3.55066 18.8C3.80837 19.2857 3.98017 19.7714 3.89427 19.8571C3.80837 19.9429 3.57929 19.6 3.37885 19.1429C3.20705 18.6571 2.94934 18.2857 2.80617 18.2857C2.69163 18.2857 2.60573 18.0286 2.60573 17.7143C2.60573 17.4 2.46255 17.0857 2.31938 17C2.14758 16.9143 2.03304 15.6286 2.03304 14.0571C2.03304 11.7429 2.11894 11.0857 2.66299 9.97143C3.03524 9.25715 3.72247 8.22857 4.18061 7.68572C4.6674 7.14286 5.61233 6.25715 6.29956 5.71429C7.07269 5.11429 8.16079 4.57143 9.01982 4.4C9.82158 4.2 10.7379 4.05714 11.0529 4.05714ZM11.9119 4.08572L12.7709 4.05714C13.2291 4.02857 14.0308 4.2 14.489 4.42857C15.1762 4.74286 15.2335 4.82857 14.7753 4.82857C14.4604 4.85714 14.0595 4.74286 13.9163 4.6C13.7731 4.45715 13.2291 4.28572 12.7709 4.2L11.9119 4.08572ZM18.4978 5.45715C18.8128 5.68572 19.5 6.25715 20.0154 6.71429C20.5595 7.2 21.2467 7.94286 21.533 8.37143C21.8194 8.8 22.0485 9.14286 21.9912 9.14286C21.9626 9.14286 21.0176 8.22857 19.9295 7.08572C18.8414 5.97143 18.1828 5.22857 18.4978 5.45715ZM17.4383 5.68572C17.696 5.82857 18.4978 6.57143 20.5022 8.71429L19.2137 7.57143C18.5264 6.94286 17.8965 6.34286 17.8678 6.22857C17.8106 6.11429 17.5815 6 17.3524 6C17.1233 6 16.9229 5.88572 16.9515 5.71429C16.9515 5.52381 17.1138 5.51429 17.4383 5.68572ZM12.7709 6.08572L11.4824 6.25715C10.7665 6.37143 9.73568 6.68572 9.19163 6.94286C8.64757 7.22857 8.04625 7.45715 7.87445 7.42857C7.70264 7.42857 7.07269 7.94286 6.44273 8.57143C5.84141 9.2 5.26872 9.65715 5.18282 9.57143C5.09691 9.51429 5.64097 8.85715 6.41409 8.14286C7.15859 7.45715 7.84581 6.88572 7.98898 6.91429C8.10352 6.94286 8.5044 6.82857 8.90528 6.65715C9.30617 6.51429 9.82158 6.31429 10.0507 6.2C10.2797 6.11429 10.9956 6.05714 12.7709 6.08572ZM12.7709 6.31429L13.7731 6.42857C14.3172 6.51429 15.1762 6.74286 15.6344 7C16.0925 7.22857 16.8943 7.82857 17.3811 8.34286C17.8965 8.85715 19.0132 10.2 19.8722 11.2857C20.7599 12.4 21.4185 13.3714 21.3326 13.4286C21.2467 13.5143 21.0749 13.4 20.9317 13.1429C20.8172 12.9143 20.0727 11.9429 19.3282 11C18.5551 10.0571 17.5242 8.91429 17.0374 8.42857C16.522 7.97143 15.8062 7.42857 15.4626 7.25715C15.0903 7.05715 14.3172 6.77143 13.7731 6.62857L12.7709 6.31429ZM11.9692 6.97143C12.5991 7 13.2577 7.11429 13.4009 7.22857C13.5154 7.34286 12.9141 7.45715 12.0551 7.45715C11.0051 7.45715 10.0507 7.66667 9.19163 8.08572C8.47577 8.42857 7.53084 9.05715 7.04405 9.51429C6.5859 9.94286 6.12775 10.2857 6.04185 10.2857C5.95595 10.2857 6.35683 9.82857 6.90088 9.28572C7.44493 8.71429 8.36123 8.05715 8.90528 7.82857C9.44934 7.57143 10.1079 7.28572 10.337 7.17143C10.5661 7.05715 11.3106 6.97143 11.9692 6.97143ZM15.9207 8.28572C16.2357 8.51429 16.9802 9.22857 17.5529 9.85715C18.1542 10.4857 18.641 11.1429 18.641 11.2857C18.641 11.4571 18.6123 11.5143 18.5837 11.4286C18.5264 11.3429 17.7819 10.5143 16.9229 9.57143C16.0639 8.65715 15.6057 8.08572 15.9207 8.28572ZM22.0198 10.1429C22.8789 10.9429 23.8238 11.9714 24.1388 12.4286C24.511 12.9429 24.2533 12.8 23.5374 12C22.8502 11.2857 21.9053 10.2571 21.4185 9.71429C20.9031 9.17143 21.1894 9.37143 22.0198 10.1429ZM5.03965 10.0857C5.03965 10.2 4.89647 10.7714 4.69603 11.4286C4.49559 12.0571 4.32379 13.1714 4.32379 13.9429C4.32379 14.6857 4.49559 15.7714 4.7533 16.3714C4.98238 16.9429 5.09691 17.4286 4.95374 17.4286C4.8392 17.4286 4.5815 16.8286 4.35242 16.0857C4.12335 15.2571 4.00881 14.0857 4.09471 13.1429C4.18061 12.2857 4.40969 11.2 4.63876 10.7429C4.83921 10.2857 5.01101 10 5.03965 10.0857ZM5.29735 11.7143C5.35462 11.7143 5.38326 12.6 5.35462 13.6857C5.32599 14.7714 5.24009 15.6 5.09691 15.5429C4.98238 15.4857 4.89647 14.8 4.89647 14C4.89647 13.2286 4.98238 12.3714 5.06828 12.1429C5.15418 11.9143 5.26872 11.7143 5.29735 11.7143ZM25.2841 12.3429C25.6564 12.7714 26.2004 13.5429 26.4868 14.0571C26.7731 14.5714 26.9163 14.8857 26.7445 14.7143C26.6013 14.5714 26.0573 13.8857 25.5705 13.2286C25.0551 12.5429 24.6542 11.9143 24.6542 11.8C24.6542 11.6571 24.9405 11.9143 25.2841 12.3429ZM1.31718 12C1.40308 12 1.46035 12.7429 1.43172 13.6571C1.40308 15.1429 1.37445 15.2286 1.11674 14.4286C0.944932 13.9714 0.887663 13.2286 1.0022 12.8C1.0881 12.3429 1.23128 12 1.31718 12ZM24.9405 13.4286C25.1696 13.4286 25.7137 14.0857 26.1432 14.8571C26.6013 15.6571 26.9449 16.4857 26.9449 16.7143C26.9449 16.9429 27.0881 17.1429 27.2313 17.1429C27.3744 17.1429 27.5176 17.6 27.5176 18.1429C27.5176 18.9143 27.6322 19.1143 27.9758 19.0857C28.2621 19.0286 28.5198 19.1714 28.5485 19.3714C28.6344 19.5714 28.4912 19.6571 28.2335 19.5714C28.0044 19.4857 27.804 19.5714 27.804 19.7143C27.804 19.8857 27.6608 19.9429 27.5176 19.8571C27.3744 19.7714 27.2313 19.2571 27.2313 18.7143C27.2313 18.1429 26.859 17 26.3436 16.0857C25.8568 15.1714 25.2555 14.2 24.9978 13.9143C24.5969 13.4857 24.5683 13.4 24.9405 13.4286ZM24.0815 16.5714C24.2819 16.5714 24.7115 17 25.0551 17.5143C25.37 18 25.7996 18.8857 25.9714 19.4286C26.1718 20.0571 26.2004 20.8 26.0573 21.4286C25.8568 22.2857 25.9141 22.5143 26.4581 22.9429C26.8018 23.2286 27.2313 23.4 27.3744 23.3429C27.5176 23.2857 27.7467 22.5429 28.0044 20.1429L28.033 21.8C28.0903 23.0286 27.9758 23.4571 27.6608 23.5714C27.4317 23.6571 26.859 23.4857 26.3722 23.2286C25.5705 22.7429 25.5418 22.6571 25.685 21C25.8568 19.3429 25.8282 19.2286 24.7974 17.9429C24.2247 17.1714 23.9097 16.5714 24.0815 16.5714ZM6.61454 19.2C7.38766 20.0286 7.93172 20.7714 7.87445 20.8571C7.81718 20.9429 7.18722 20.3714 6.47136 19.5714C5.7555 18.8 5.18282 18.0286 5.21145 17.9143C5.24009 17.7714 5.87004 18.3714 6.61454 19.2ZM6.09912 17.7143C6.24229 17.7143 8.04625 19.4 10.1079 21.4857C12.1982 23.5429 13.7731 25.2 13.5727 25.1143C13.4009 25.0571 12.2841 24.0857 11.1388 22.9429C9.99339 21.8286 8.3326 20.2 7.47357 19.3143C6.61454 18.4286 5.98458 17.7143 6.09912 17.7143ZM2.34802 18.4571C2.51982 18.5429 2.66299 18.8 2.63436 19.0286C2.60572 19.2571 4.23788 21.1143 6.24229 23.1714C8.27533 25.2286 10.5374 27.4 11.3392 27.9429C12.1123 28.5143 13.4009 29.2 14.2026 29.4857C14.9758 29.7714 15.978 30 16.4075 30C16.8656 30 17.2665 30.1429 17.3524 30.2857C17.4383 30.4571 18.2974 30.5714 19.2709 30.5714C20.9604 30.5714 21.1608 30.6286 22.3634 31.7143C23.0793 32.3429 24.6255 33.5714 25.7996 34.4C26.9736 35.2286 28.7489 36.3714 29.7511 36.8857C30.7819 37.4286 32.4714 38.7429 33.6167 39.8857C34.7621 41 35.8502 42.1714 36.0793 42.4571C36.3084 42.7714 35.3634 41.8857 33.9317 40.5143C32.5286 39.1429 31.2115 38 31.011 38C30.8392 38 30.6674 37.9143 30.6674 37.8C30.6674 37.6571 30.3811 37.4286 30.0088 37.2857C29.6652 37.1143 28.8062 36.6571 28.0903 36.2857C27.3744 35.8857 26.7445 35.5143 26.6586 35.4C26.5727 35.3143 25.9427 34.8571 25.2269 34.3714C24.511 33.8857 23.2797 32.8857 22.5066 32.1714C21.2181 31 20.9604 30.8857 20.0727 31.0286C19.5 31.1143 18.3833 30.9714 17.4956 30.7143C16.6366 30.4571 15.4053 30.1143 14.7753 29.9429C14.1454 29.8 13.2291 29.5143 12.7709 29.3143C12.2841 29.1143 11.1388 28.2571 10.2225 27.4C9.27753 26.5429 7.4163 24.7429 6.07048 23.3714C4.72467 22.0286 3.35022 20.5429 3.03524 20.1143C2.72026 19.6571 2.37665 19.0857 2.23348 18.8C2.09985 18.4571 2.13803 18.3429 2.34802 18.4571ZM25.0837 19.8571L25.1696 20.7143C25.2269 21.4571 24.9405 21.8857 22.9648 23.8571C21.7048 25.1143 20.674 26.0571 20.6454 25.9429C20.6454 25.8 21.5617 24.8286 22.6498 23.7143C23.967 22.4 24.7401 21.4 24.8546 20.8L25.0837 19.8571ZM5.4978 21.3429C6.18502 21.9714 7.5022 23.2286 8.4185 24.1143C9.3348 25 10.022 25.7714 9.99339 25.8286C9.96476 25.9143 8.64758 24.6571 7.07269 23.0571C5.4978 21.4571 4.78194 20.6857 5.4978 21.3429ZM8.27533 21.1143C8.47577 21.1143 8.79075 21.3429 8.99119 21.6286C9.19163 21.9143 10.3656 23.0571 11.5683 24.2C12.7996 25.3429 13.6872 26.2857 13.5727 26.2857C13.4581 26.2857 12.141 25.1143 10.652 23.7143C9.13436 22.2857 8.07489 21.1143 8.27533 21.1143ZM28.6344 23.8571C28.6916 24.4 29.1498 25.1429 29.9229 25.8857C30.5815 26.5429 31.2974 27.3143 31.5551 27.6C31.7841 27.9143 32.1564 28.3714 32.4141 28.6571C32.6432 28.9429 32.7577 29.1429 32.7004 29.1429C32.6145 29.1429 31.5551 28.0857 30.3524 26.7714C28.4626 24.7714 28.1762 24.3143 28.348 23.7143C28.5198 23 28.5485 23 28.6344 23.8571ZM14.2885 25.4286C14.489 25.4286 14.8612 25.5429 15.1476 25.6857C15.4339 25.8286 16.1211 26.1429 16.7225 26.4C17.3238 26.6286 17.7533 26.9143 17.7247 27C17.696 27.0571 16.8084 26.7714 15.8062 26.2857C14.7753 25.8286 14.0881 25.4571 14.2885 25.4286ZM15.1189 26.7429C15.7203 26.9714 16.4934 27.2571 16.8084 27.4C17.1233 27.5429 17.5529 27.7143 17.8106 27.8C18.0969 27.8952 18.0492 27.9524 17.6674 27.9714C17.3524 27.9714 16.522 27.7429 15.8634 27.4286C15.2048 27.1143 14.5176 26.8571 14.3744 26.8571C14.2026 26.8571 14.0595 26.7143 14.0595 26.5714C14.0308 26.4286 14.5176 26.4857 15.1189 26.7429ZM20.4449 26.6C20.5595 26.5714 20.674 26.7429 20.674 27C20.674 27.2571 20.8458 27.3714 21.1608 27.2857C21.4471 27.2286 22.0771 27.4286 22.5925 27.7143C23.1079 28.0286 23.4802 28.4286 23.4229 28.6286C23.3943 28.8286 22.9075 29.2 22.3634 29.4857C21.7335 29.7714 20.674 29.9714 19.4427 29.9714C18.3833 29.9714 17.4383 29.8571 17.3811 29.7143C17.2952 29.5429 16.8656 29.4286 16.4361 29.4286C16.0066 29.4286 15.4626 29.2286 15.2335 29C14.8326 28.6 14.9758 28.6 16.2357 29.0286C17.0088 29.2857 18.3546 29.5714 19.2423 29.6286C20.2731 29.7143 21.1608 29.6 21.8767 29.3143C22.478 29.0571 22.9648 28.6857 22.9648 28.4857C22.9361 28.2857 22.6498 28 22.3062 27.8C21.9339 27.6286 21.4758 27.6 21.2467 27.7429C20.989 27.8571 20.3018 27.9714 18.5264 27.8857L19.5859 27.8C20.1872 27.7429 20.5881 27.5714 20.5308 27.4286C20.4449 27.2571 20.0154 27.1143 18.8128 27.0857L19.5286 26.8571C19.9009 26.7143 20.3304 26.6 20.4449 26.6ZM32.8722 29.4286C33.0154 29.4286 33.5881 30.1714 34.1894 31.0571C34.7907 31.9714 35.9075 33.3714 36.7092 34.2C37.4824 35.0286 38.0837 35.7714 38.0551 35.8286C38.0264 35.9143 37.3965 35.3714 36.6806 34.6286C35.9648 33.8857 34.7621 32.4 33.989 31.3429C33.2445 30.2857 32.7577 29.4286 32.8722 29.4286ZM41.2621 38.7143C42.8656 40.2857 44.1542 41.6 44.1542 41.6286C44.1542 41.6571 42.8656 40.5143 41.2907 39.0571C39.6872 37.6 38.3987 36.2857 38.3987 36.1429C38.3987 35.9714 39.6872 37.1429 41.2621 38.7143ZM44.6123 42.1429C44.641 42.1429 46.5595 43.9429 48.8788 46.1429C51.1982 48.3429 54.348 51.3429 55.8656 52.8286C57.3546 54.3143 58.2136 55.2 57.7555 54.8286C57.2687 54.4571 55.8084 53.0857 54.4626 51.8286C53.1167 50.5429 50.3392 47.8571 48.2775 45.8286C46.2159 43.8 44.5551 42.1429 44.6123 42.1429ZM40.2026 46.1429C42.1211 48.0571 45.0132 50.8286 46.5881 52.3429C48.163 53.8571 49.7665 55.3429 50.1674 55.6857C50.5396 56 50.7974 56.3429 50.7401 56.4C50.6542 56.4571 49.5661 55.5429 48.3062 54.3429C47.0462 53.1714 43.8965 50.1429 41.348 47.6571C38.7996 45.1714 36.6806 43.0286 36.6806 42.9143C36.6806 42.8 38.2555 44.2571 40.2026 46.1429ZM62.4802 59.2857C63.0242 59.7429 64.8282 61.4286 66.489 63.0286C68.1211 64.6 70.7841 67.1714 72.359 68.7143C73.9339 70.2571 74.9648 71.3143 74.6498 71.1143C74.3348 70.8857 72.9604 69.6572 71.6432 68.3714C70.2973 67.0857 67.4625 64.3429 65.3436 62.2571C63.196 60.1714 61.9075 58.8286 62.4802 59.2857ZM54.0903 59.7143C54.2048 59.7143 55.4648 60.8286 56.8965 62.2C58.2996 63.5714 60.9912 66.1714 62.8238 67.9714C64.685 69.8 66.174 71.2857 66.1167 71.3143C66.0881 71.3429 64.6278 70 62.8811 68.3143C61.163 66.6572 58.4141 64.0286 56.8106 62.4857C55.207 60.9429 53.9758 59.7143 54.0903 59.7143ZM70.8414 75.5714C72.9317 77.6 76.511 81.1143 78.8018 83.4C81.0639 85.6572 82.0374 86.6857 80.9493 85.6857C79.8612 84.6572 77.2841 82.2286 75.2511 80.2857C73.2181 78.3143 70.5264 75.7143 69.2952 74.4857C68.0639 73.2571 67.033 72.1714 67.033 72.0571C67.033 71.9429 68.7511 73.5143 70.8414 75.5714ZM75.8811 72.2857C75.9956 72.2857 77.7423 73.9429 79.804 75.9429C81.837 77.9714 84.2137 80.2286 85.0727 81C85.9317 81.7714 88.022 83.8 89.7401 85.4857C91.4295 87.1714 92.7181 88.5429 92.6035 88.5429C92.489 88.5429 90.6564 86.8572 88.5374 84.7714C86.3899 82.6857 82.6388 79.0286 80.1762 76.6286C77.7137 74.2286 75.7952 72.2857 75.8811 72.2857ZM85.8744 90.1429C87.4207 91.7143 89.0529 93.6572 89.5396 94.4286C89.9978 95.1714 90.4273 95.9429 90.5132 96.1143C90.5705 96.2857 90.141 95.8 89.5683 95.0572C88.9956 94.3143 88.5088 93.5429 88.5088 93.3429C88.5088 93.1429 87.2775 91.8 85.7885 90.3429C84.2996 88.8857 83.0969 87.6 83.0969 87.4857C83.0969 87.3714 84.3568 88.5714 85.8744 90.1429ZM95.7533 90.7714C96.8987 91.5143 98.0727 92.3143 98.359 92.5714C98.6454 92.8 99.1608 93.2286 99.5044 93.4857C99.848 93.7714 99.9625 94 99.7621 94C99.5617 94 99.3326 93.8571 99.2753 93.7143C99.1894 93.5429 97.9581 92.6 96.4978 91.6286C95.0661 90.6572 93.8348 89.7429 93.7775 89.6286C93.7203 89.5143 94.6079 90.0286 95.7533 90.7714ZM101.051 94.8286C101.251 94.8571 101.48 94.9714 101.566 95.1429C101.623 95.2857 102.11 95.4286 103.57 95.4572L102.711 95.7429C101.967 96 101.767 95.9429 101.28 95.4286C100.907 95.0857 100.85 94.8286 101.051 94.8286ZM103.628 96.2857C104.401 96.3143 104.401 96.3143 103.771 96.5714C103.198 96.8286 103.17 96.9143 103.513 97.4857C103.742 97.8286 104.229 98.1714 104.601 98.2286C104.974 98.2571 105.604 98.1714 106.004 98C106.548 97.7429 106.949 97.7714 107.722 98.0857C108.267 98.3143 109.355 99.0286 110.156 99.6571C110.93 100.314 111.903 101 112.304 101.2C112.676 101.4 113.163 101.714 113.363 101.914C113.564 102.114 113.65 102.286 113.593 102.286C113.507 102.286 112.819 101.857 112.075 101.343C111.33 100.857 110.156 100.029 109.498 99.4857C108.839 98.9714 108.123 98.5429 107.923 98.5429C107.722 98.5429 107.808 98.7714 108.152 99.1429C108.467 99.4857 109.068 99.9714 109.469 100.229C109.899 100.486 110.271 100.829 110.271 100.971C110.3 101.143 109.813 100.886 109.24 100.429C108.639 99.9714 108.095 99.4857 108.066 99.3429C108.037 99.2286 107.665 99.1429 107.293 99.1429C106.892 99.1429 106.233 99.2857 105.861 99.4857C105.46 99.6857 105.088 100.114 105.002 100.429C104.945 100.743 104.458 101.429 103.914 102C103.399 102.543 102.597 103.286 102.11 103.629C101.652 104 101.108 104.286 100.907 104.286C100.678 104.286 100.564 104.686 100.564 105.429C100.564 106.486 100.535 106.543 100.048 106.086C99.7048 105.743 99.6476 105.571 99.9053 105.514C100.106 105.457 100.278 105.171 100.278 104.857C100.278 104.514 100.564 104.171 100.993 104C101.366 103.829 102.396 103 103.284 102.143C104.143 101.257 104.859 100.343 104.859 100.057C104.859 99.7714 105.203 99.4 105.632 99.2C106.062 99 106.577 98.8286 106.778 98.8286C106.978 98.8571 107.092 98.6857 107.035 98.4857C106.978 98.2857 106.749 98.1714 106.52 98.2286C106.319 98.2857 105.689 98.4 105.145 98.4857C104.286 98.6 104.029 98.5143 103.485 97.8C103.112 97.3714 102.826 96.8286 102.826 96.6286C102.826 96.4286 103.198 96.2857 103.628 96.2857ZM109.756 96.8571C109.985 96.8571 110.786 97.2286 111.588 97.6286C112.361 98.0572 113.879 99.0572 114.938 99.8571C115.998 100.629 116.857 101.371 116.857 101.486C116.885 101.6 116.055 101.086 115.081 100.314C114.108 99.5429 112.676 98.6 111.932 98.1714C111.187 97.7429 110.385 97.4286 110.156 97.4286C109.899 97.4286 109.641 97.2857 109.555 97.1429C109.441 96.9714 109.555 96.8571 109.756 96.8571ZM115.425 99.0286C115.998 99.4572 116.599 99.9429 116.771 100.114C116.971 100.286 118.002 101.2 119.09 102.143C120.178 103.086 121.496 104.4 122.04 105.057C122.584 105.743 123.07 106.429 123.099 106.629C123.156 106.829 123.042 106.743 122.841 106.429C122.641 106.114 121.352 104.743 120.007 103.429C118.661 102.086 116.828 100.486 115.941 99.8571C115.053 99.2286 114.337 98.6 114.366 98.4572C114.394 98.3143 114.881 98.5714 115.425 99.0286ZM92.9758 99.5714L96.5551 103V104.771C96.5551 105.743 96.6696 106.629 96.8414 106.714C96.9846 106.771 97.1278 107.114 97.1278 107.429C97.1278 107.743 97.2423 108 97.4141 108C97.5573 108 97.7004 107.686 97.7004 107.343C97.7004 106.829 97.7863 106.886 98.13 107.714C98.359 108.257 98.5595 108.771 98.5595 108.857C98.5595 108.914 98.359 108.743 98.1013 108.429C97.6718 107.857 97.6718 107.886 97.7863 108.714C97.8722 109.171 98.0154 109.943 98.1013 110.429C98.1872 110.886 98.1586 111.029 98.0727 110.714C97.9868 110.4 97.815 110 97.6432 109.857C97.5 109.686 97.3855 109.371 97.4141 109.143C97.4141 108.886 97.1564 108.143 96.8414 107.486C96.4692 106.714 96.2687 105.686 96.2687 104.629C96.2401 103.029 96.2114 102.943 94.6079 101.286L92.9758 99.5714ZM98.3018 100.143L98.989 101C99.3612 101.457 99.6189 101.914 99.533 102C99.4758 102.057 99.1894 101.8 98.5022 100.714L98.044 101.571C97.7577 102.086 97.5859 103.2 97.5859 104.486C97.5573 105.6 97.4427 106.429 97.3282 106.343C97.185 106.229 97.1277 105.286 97.2137 104.286C97.2709 103.257 97.5286 101.914 97.815 101.286L98.3018 100.143ZM99.5044 102.571C99.533 102.571 99.5617 103.457 99.5617 104.571C99.5617 105.657 99.4471 106.571 99.3326 106.571C99.2181 106.571 99.1322 105.857 99.1322 105C99.1322 104.114 99.1894 103.229 99.2753 103C99.3899 102.743 99.4758 102.571 99.5044 102.571ZM119.319 103.686C119.463 103.686 119.978 104.114 120.465 104.629C120.952 105.143 121.581 105.857 121.896 106.2C122.211 106.571 122.383 106.857 122.326 106.857C122.24 106.857 121.467 106.143 120.608 105.257C119.72 104.4 119.148 103.686 119.319 103.686ZM118.174 105.371C118.632 105.686 119.319 106.371 119.663 106.829C120.007 107.314 120.207 107.686 120.093 107.686C119.978 107.657 119.291 107 118.604 106.2C117.544 105.029 117.487 104.857 118.174 105.371ZM118.088 106.543C118.203 106.543 118.604 106.914 118.947 107.343C119.291 107.771 119.749 108.429 119.949 108.829C120.15 109.229 120.322 109.943 120.322 110.429C120.293 110.886 120.436 111.4 120.608 111.571C120.837 111.743 120.837 112.029 120.637 112.429C120.493 112.743 120.207 113.571 119.978 114.286C119.749 115.086 119.148 116.029 118.374 116.771C117.716 117.429 116.971 118 116.742 118C116.485 118 115.998 118.143 115.654 118.314C115.311 118.514 114.251 118.629 113.306 118.571C112.275 118.543 111.159 118.286 110.586 117.971C110.013 117.657 109.126 117.029 108.581 116.571C108.009 116.086 107.665 115.686 107.78 115.686C107.894 115.714 108.61 116.171 109.355 116.743C110.099 117.314 111.015 117.886 111.359 118.029C111.703 118.171 112.648 118.286 113.449 118.286C114.222 118.286 115.425 118.057 116.084 117.8C116.742 117.543 117.773 116.857 118.374 116.314C119.119 115.571 119.548 114.8 119.863 113.714C120.121 112.743 120.207 111.571 120.093 110.714C120.007 109.914 119.749 108.943 119.491 108.571C119.262 108.171 118.804 107.543 118.46 107.2C118.145 106.829 117.974 106.543 118.088 106.543ZM123.185 109.143C123.414 109.514 123.5 109.514 123.729 109.143C123.958 108.743 124.015 108.743 124.187 109.143C124.273 109.371 124.302 109.829 124.216 110.143C124.101 110.629 124.101 110.629 124.073 110.057C124.044 109.714 123.901 109.486 123.758 109.571C123.586 109.629 123.443 110 123.443 110.343C123.414 110.971 123.385 110.971 123.185 110.286C123.042 109.886 122.927 109.371 122.927 109.143C122.899 108.743 122.927 108.743 123.185 109.143ZM103.513 111.486C104.515 112.457 105.89 113.771 106.606 114.4C107.293 115 107.694 115.457 107.522 115.4C107.322 115.314 106.062 114.257 104.687 113C103.313 111.743 102.081 110.486 101.938 110.2C101.795 109.914 102.511 110.514 103.513 111.486ZM121.238 110.086C121.352 110.257 121.438 111.057 121.438 111.857C121.41 112.629 121.324 113.543 121.181 113.857C121.037 114.2 120.98 113.486 120.98 112.086C121.009 110.8 121.123 109.914 121.238 110.086ZM101.566 110.943C101.709 111.086 103.055 112.314 104.573 113.686C106.062 115.086 107.808 116.686 108.438 117.286C109.126 117.943 109.24 118.086 108.725 117.714C108.238 117.371 106.835 116.143 105.604 115.029C104.344 113.914 103.141 112.8 102.883 112.543C102.626 112.314 102.167 111.8 101.852 111.4C101.537 111.029 101.394 110.8 101.566 110.943ZM124.13 110.714L124.244 112.286C124.302 113.143 124.187 114.371 124.015 115C123.815 115.629 123.529 116.257 123.414 116.429C123.271 116.571 123.242 116.257 123.357 115.714C123.443 115.143 123.643 114.571 123.786 114.429C123.93 114.257 124.073 113.371 124.101 112.429L124.13 110.714ZM123.328 112.343C123.414 112.429 123.414 113.086 123.328 113.771C123.242 114.429 122.956 115.257 122.727 115.571C122.355 116.057 122.326 116.086 122.297 115.629C122.297 115.343 122.412 115.143 122.584 115.143C122.727 115.143 122.927 114.457 123.013 113.629C123.128 112.8 123.242 112.229 123.328 112.343ZM100.535 114.057C101.337 114.8 102.654 116.086 103.456 116.914C104.286 117.714 104.659 118.143 104.258 117.829C103.857 117.514 103.341 117.086 103.055 116.857C102.797 116.6 101.795 115.657 100.85 114.714C99.8766 113.771 99.1035 112.914 99.1035 112.857C99.1035 112.771 99.7621 113.314 100.535 114.057ZM103.17 115.286C104.143 116.229 105.088 117.114 105.26 117.286C105.432 117.429 106.062 117.971 106.634 118.486C107.207 119 107.665 119.486 107.608 119.571C107.579 119.657 106.176 118.457 104.487 116.914C102.826 115.4 101.423 114 101.423 113.857C101.394 113.686 102.196 114.343 103.17 115.286ZM120.722 114.571C120.808 114.571 120.866 114.714 120.866 114.914C120.866 115.114 120.207 116 119.377 116.886C118.546 117.743 117.43 118.686 116.914 118.943C116.427 119.2 115.654 119.371 115.196 119.314C114.566 119.257 114.652 119.2 115.711 119C116.714 118.8 117.372 118.4 118.661 117.143C119.577 116.286 120.379 115.343 120.465 115.057C120.551 114.771 120.665 114.571 120.722 114.571ZM122.097 116.286C122.154 116.286 122.126 116.571 122.068 116.914C121.982 117.257 121.467 118.057 120.894 118.629C120.322 119.229 119.72 119.714 119.577 119.714C119.405 119.714 118.689 120.086 117.916 120.571C116.943 121.2 116.256 121.4 114.137 121.343L115.282 121.143C115.912 121 117 120.629 117.716 120.314C118.432 119.971 119.577 119.229 120.264 118.629C120.952 118.057 121.639 117.257 121.753 116.914C121.896 116.571 122.04 116.286 122.097 116.286ZM123.013 116.857C123.099 116.857 123.156 116.971 123.156 117.143C123.156 117.286 122.412 118.2 121.496 119.171C120.608 120.114 119.405 121.086 118.861 121.314C118.317 121.543 117.344 121.914 116.714 122.143C116.084 122.343 114.996 122.543 114.28 122.571C113.564 122.6 112.476 122.543 111.846 122.429C111.216 122.314 110.385 122.086 109.985 121.914C109.584 121.771 108.839 121.429 108.324 121.171C107.808 120.914 107.035 120.371 106.548 120C106.09 119.6 105.718 119.143 105.689 119C105.689 118.829 106.033 119.029 106.463 119.429C106.892 119.857 107.637 120.429 108.123 120.743C108.581 121.057 109.498 121.457 110.128 121.686C110.758 121.886 112.247 122.086 113.421 122.114C114.91 122.171 116.026 122 117.143 121.629C118.002 121.314 119.09 120.829 119.577 120.543C120.035 120.257 120.837 119.6 121.324 119.086C121.811 118.543 122.355 117.829 122.555 117.486C122.727 117.143 122.956 116.857 123.013 116.857ZM111.13 120.971C111.531 121.057 112.361 121.257 112.991 121.4C114.022 121.657 113.993 121.657 112.562 121.514C111.703 121.429 110.844 121.229 110.7 121.086C110.5 120.914 110.672 120.857 111.13 120.971Z" fill="#D8DDDA"/>
<path fill-rule="evenodd" clip-rule="evenodd" d="M11.3106 3.45714C12.5991 3.42857 14.0308 3.65714 15.3194 4.05714C17.2092 4.65714 17.5242 4.88571 20.7026 7.97142C22.5925 9.8 24.7115 12.1143 25.4559 13.1429C26.2004 14.1714 27.0595 15.5143 27.3458 16.1429C27.6322 16.7714 27.9185 17.7143 28.033 18.2286C28.1476 18.8857 28.0903 19.1429 27.8326 19.1429C27.6322 19.1429 27.489 18.7429 27.489 18.1429C27.489 17.6 27.3458 17.1429 27.2026 17.1429C27.0595 17.1429 26.9163 16.9429 26.9163 16.7143C26.9163 16.4857 26.5154 15.6857 26 14.9143C25.4846 14.1714 24.8833 13.3143 24.6255 13C24.3965 12.6857 22.707 10.9143 20.9031 9.05714C19.0991 7.22857 17.3811 5.62857 17.0947 5.57142C16.8084 5.48571 16.6938 5.28571 16.8084 5.08571C16.9611 4.83809 16.9134 4.79047 16.6652 4.94285C16.4934 5.05714 15.7203 4.91428 14.9471 4.6C14.2026 4.31428 13.0859 4 12.4559 3.88571C11.5683 3.74285 11.3965 3.77142 11.7401 4.02857C12.0837 4.28571 12.0837 4.31428 11.5969 4.17142C11.2819 4.05714 10.2511 4.14285 9.30617 4.31428C8.10352 4.57142 7.21586 4.97142 6.29956 5.68571C5.61233 6.25714 4.63877 7.14285 4.15198 7.68571C3.69383 8.22857 2.97797 9.25714 2.63436 9.97142C2.06167 11.1143 1.94714 11.6571 2.0044 14C2.0044 15.4857 2.14758 16.8571 2.31938 17C2.46255 17.1429 2.57709 17.5143 2.57709 17.8C2.57709 18.0571 2.66299 18.2857 2.77753 18.2857C2.9207 18.2857 3.17841 18.6286 3.35022 19.0571C3.55066 19.5143 5.4978 21.6 7.64537 23.7429C9.82158 25.8857 12.141 27.9143 12.7996 28.2571C13.4868 28.5714 14.2885 28.8571 14.6035 28.8571C14.9185 28.8571 15.2335 29 15.3194 29.1429C15.4053 29.2857 15.8348 29.4286 16.3216 29.4286C16.7797 29.4286 17.2379 29.5714 17.3238 29.7143C17.4097 29.8571 18.2974 30 19.3282 30C20.359 30 21.2181 30.0857 21.2467 30.2286C21.304 30.3429 22.163 31.1429 23.1938 32.0286C24.2247 32.9143 25.8568 34.1714 26.8304 34.8C27.8326 35.4571 28.7775 36 28.9207 36C29.0639 36 29.207 36.1429 29.207 36.2857C29.207 36.4571 28.978 36.4571 28.5485 36.2571C28.2048 36.0571 26.9449 35.2286 25.7709 34.4C24.5969 33.5429 23.0507 32.3429 22.3348 31.7143C21.1322 30.6286 20.9317 30.5714 19.2423 30.5714C18.2687 30.5714 17.4097 30.4286 17.3238 30.2857C17.2379 30.1429 16.837 30 16.3789 30C15.9493 30 14.9471 29.7714 14.174 29.4857C13.3722 29.2 12.0837 28.5143 11.3106 27.9429C10.5088 27.3714 8.3326 25.3143 6.44273 23.4C4.52423 21.4571 2.7489 19.4 2.49119 18.8571C2.20484 18.3143 2.0044 17.6286 2.0044 17.3714C2.0044 17.0857 1.86123 16.8 1.71806 16.7143C1.54625 16.6286 1.43172 15.3714 1.43172 13.8571C1.43172 12.3714 1.54625 10.9143 1.68943 10.6571C1.8326 10.3714 2.29075 9.42857 2.72026 8.57142C3.14978 7.71428 3.77973 6.71428 4.12335 6.34285C4.46696 6 5.75551 5.2 7.01542 4.57142C8.99119 3.6 9.56388 3.45714 11.3106 3.45714ZM11.4537 6.31428C11.9978 6.31428 13.0286 6.45714 13.7445 6.65714C14.4604 6.85714 15.4339 7.25714 15.8921 7.54285C16.3789 7.85714 17.1806 8.57142 17.696 9.11428C18.2115 9.68571 19.185 10.8571 19.8436 11.7143C20.5022 12.5714 21.3326 13.6 21.7048 14C22.0485 14.4 22.2775 14.8857 22.1916 15.0857C22.1057 15.2571 22.1916 15.4 22.3921 15.3714C22.5639 15.3143 22.8789 15.6 23.1079 16C23.3084 16.4 23.4802 16.5714 23.4802 16.4286C23.4802 16.2857 23.9956 16.8571 24.6255 17.7143C25.37 18.7429 25.7709 19.6 25.7709 20.1429C25.7709 20.6286 25.7137 21.4286 25.6278 21.9429C25.5132 22.6571 25.37 22.8 25.0551 22.6571C24.7401 22.4857 24.1101 22.9429 22.9075 24.2286C21.9626 25.2 21.1322 25.9714 21.0463 25.9429C20.989 25.8857 21.8766 24.8857 23.0507 23.7143C25.0551 21.7143 25.1982 21.4857 25.1982 20.3714C25.1982 19.3714 25.0264 18.9714 24.2533 18.2C23.7665 17.6571 22.9075 16.7143 22.3921 16.0571C21.848 15.3429 21.5617 14.7143 21.6762 14.5143C21.8289 14.2667 21.7812 14.219 21.533 14.3714C21.304 14.4857 20.8744 14.1143 20.2445 13.2571C19.7577 12.5143 19.3568 11.8 19.3855 11.6857C19.4427 11.5429 19.2709 11.4286 19.0418 11.4286C18.8128 11.4286 18.6123 11.3429 18.6123 11.2286C18.6123 11.0857 18.1255 10.4857 17.5242 9.82857C16.9515 9.2 16.0639 8.42857 15.6057 8.11428C15.1476 7.79999 14.174 7.4 13.4581 7.22857C12.7423 7.08571 11.8546 6.97142 11.4537 7C11.0529 7.02857 10.4802 7.17142 10.1652 7.28571C9.85022 7.4 9.19163 7.65714 8.73348 7.85714C8.27533 8.08571 7.47357 8.68571 6.98678 9.2C6.47136 9.71428 5.81277 10.6857 5.46916 11.3714C5.09692 12.1143 4.86784 13.1143 4.86784 14C4.86784 14.8 4.98238 15.4857 5.15418 15.5714C5.32599 15.6571 5.44053 16.0286 5.44053 16.4286C5.44053 16.9143 6.01322 17.7714 7.21586 19.0857C8.21806 20.1429 10.1366 22.0286 11.4824 23.2857C12.8282 24.5429 13.859 25.7143 13.7731 25.8571C13.6872 26.0286 13.7445 26.0571 13.9736 25.9429C14.1454 25.8 14.9185 26 15.663 26.3429C16.4361 26.6857 17.8392 27.0286 18.8128 27.1143C20.4736 27.2857 20.6167 27.2286 20.6454 26.7143C20.6645 26.3524 20.7122 26.3048 20.7885 26.5714C20.8744 26.8 21.2753 27.0286 21.7048 27.0571C22.1344 27.0857 22.7643 27.4 23.1366 27.7714C23.4802 28.1429 23.7665 28.5714 23.7665 28.7143C23.7665 28.8571 23.3943 29.2286 22.9075 29.5143C22.4493 29.7714 21.8766 30 21.6762 30C21.5044 29.9714 21.7621 29.7429 22.3062 29.4857C22.8502 29.2286 23.337 28.8286 23.3943 28.6571C23.4515 28.4571 23.0507 28.0286 22.5352 27.7429C21.9053 27.3429 21.4471 27.2571 21.0463 27.4286C20.7313 27.5429 19.7004 27.6286 18.7555 27.5714C17.8106 27.5143 16.7797 27.4 16.4648 27.3143C16.1498 27.2 15.2907 26.8286 14.5176 26.4857C13.63 26.0571 11.9405 24.6571 9.56388 22.2857C7.5881 20.3143 5.72687 18.2857 5.41189 17.8C5.12555 17.2857 4.92511 16.8 5.01101 16.7143C5.09692 16.6286 4.95374 16.3714 4.72467 16.1429C4.43832 15.8571 4.29515 15.1714 4.29515 14.2286C4.29515 13.4 4.52423 12.0571 4.78194 11.2571C5.06828 10.4571 5.55506 9.51428 5.87004 9.2C6.18502 8.85714 6.55727 8.65714 6.72907 8.77142C6.87225 8.85714 6.92951 8.82857 6.78634 8.68571C6.6718 8.54285 6.78634 8.2 7.04405 7.94285C7.30176 7.65714 7.64537 7.42857 7.84581 7.42857C8.01762 7.42857 8.67621 7.17142 9.30617 6.88571C9.93612 6.57142 10.9097 6.31428 11.4537 6.31428ZM28.1762 19.4857C28.348 19.5714 28.5198 20.3143 28.5771 21.1714C28.6057 22.0286 28.5198 23.0571 28.348 23.4857C28.0903 24.2286 28.2048 24.4286 30.2092 26.6286C31.3833 27.9429 32.8436 29.7429 33.5022 30.6286C34.1322 31.5429 34.5903 32.2857 34.5044 32.2857C34.4185 32.2857 33.7313 31.4286 32.9868 30.3429C32.2137 29.2857 30.6388 27.4571 29.4648 26.2571C28.2907 25.0857 27.0022 23.9143 26.5441 23.6857C26.1145 23.4857 25.7709 23.2 25.7709 23.0571C25.7709 22.9429 26.1432 23.0857 26.63 23.3429C27.1836 23.6857 27.5653 23.7619 27.7753 23.5714C27.9185 23.4286 28.0903 22.5714 28.1189 21.6571C28.1762 20.7714 28.1189 20.1143 28.0044 20.1714C27.8612 20.2286 27.804 20.0857 27.804 19.8286C27.8326 19.5714 27.9758 19.4286 28.1762 19.4857ZM41.6916 39.5714C45.5573 43.3429 48.707 46.4857 48.6784 46.5714C48.6784 46.6571 47.5617 45.6 46.1872 44.2571C44.7841 42.9143 41.7489 39.9714 39.4295 37.6857C37.0815 35.4286 35.0771 33.3714 34.9339 33.1429C34.7907 32.9143 37.8546 35.8 41.6916 39.5714ZM40.3458 46.1429C41.6916 47.4 43.8392 49.4 45.0991 50.6C46.359 51.8 47.9626 53.4 48.6784 54.1714C49.5661 55.1143 49.337 54.9714 47.9626 53.6857C46.8458 52.6286 44.1542 50 41.9207 47.8286C39.7159 45.6286 39 44.8857 40.3458 46.1429ZM51.4559 49.2C51.6278 49.2571 53.0595 50.4857 54.6057 51.9714C56.152 53.4571 59.5308 56.7429 62.1366 59.2571C64.7423 61.7714 66.7181 63.7714 66.5176 63.7143C66.3458 63.6286 62.9383 60.4286 58.9868 56.5714C55.0066 52.7143 51.6278 49.4571 51.4273 49.3429C51.1982 49.1714 51.1982 49.1143 51.4559 49.2ZM56.2665 61.4286C57.2115 62.2857 59.7885 64.7714 61.9934 66.9143C64.1982 69.0857 65.9449 70.8286 65.859 70.8286C65.7731 70.8286 63.196 68.3714 60.1322 65.3429C57.0396 62.3143 55.2929 60.5714 56.2665 61.4286ZM71.1277 68C72.5595 69.3429 74.1057 70.8286 74.5639 71.2857C75.0507 71.7714 75.652 72.3714 75.8811 72.6571C76.1101 72.9429 76.2533 73.1714 76.1674 73.1429C76.0815 73.1429 74.3348 71.4286 72.3018 69.3714C70.0969 67.1143 69.6101 66.5429 71.1277 68ZM70.011 74.6286C70.9559 75.5143 72.2445 76.7143 72.8744 77.3143C73.5044 77.8857 76.1101 80.4 78.6872 82.9143C81.2357 85.4 83.2401 87.4286 83.0969 87.4286C82.9824 87.4 79.6035 84.1714 75.5947 80.2C71.5573 76.2286 69.0374 73.7143 70.011 74.6286ZM84.4427 80.7143C88.7952 84.9143 92.2885 88.4286 92.2313 88.5143C92.2026 88.6 90.5991 87.1429 88.6806 85.2857C86.7621 83.4 83.2115 79.9429 80.8062 77.5714C78.4009 75.2286 76.4537 73.2286 76.511 73.1714C76.5396 73.1143 80.1189 76.5143 84.4427 80.7143ZM85.4736 89.4286C86.5903 90.4286 87.9075 91.7714 88.3943 92.4C88.9097 93.0571 89.3392 93.6571 89.3392 93.8C89.3392 93.9143 89.5969 94.2857 89.9119 94.6571C90.2269 95 90.4846 95.4 90.4846 95.5714C90.4846 95.7429 90.2269 95.5429 89.8833 95.1429C89.5683 94.7429 89.1101 94.0286 88.8811 93.5714C88.6233 93.1143 87.3062 91.5714 85.9317 90.1714C83.5837 87.7143 83.5551 87.6857 85.4736 89.4286ZM100.707 94.9429C101.738 96 101.852 96.0286 102.797 95.7143C103.341 95.5429 104.63 95.4571 105.661 95.5429C106.692 95.6286 108.295 95.8857 109.24 96.1429C110.185 96.4 111.674 97 112.533 97.4857C113.392 97.9429 114.165 98.4286 114.251 98.5429C114.337 98.6286 115.053 99.2286 115.883 99.8571C116.714 100.486 117.286 101.114 117.172 101.286C117.057 101.457 117.115 101.486 117.315 101.343C117.544 101.229 118.489 101.914 119.892 103.257C121.41 104.686 122.383 105.914 122.956 107.029C123.7 108.514 123.786 109.029 123.815 111.514C123.844 113.086 123.758 114.4 123.643 114.457C123.5 114.514 123.414 114.857 123.414 115.229C123.414 115.571 123.156 116.371 122.813 117C122.498 117.629 121.553 118.771 120.751 119.514C119.921 120.286 119.09 120.829 118.918 120.743C118.718 120.657 118.604 120.657 118.689 120.8C118.747 120.914 118.059 121.257 117.172 121.6C115.998 122.029 114.967 122.171 113.392 122.143C112.218 122.114 110.729 121.914 110.099 121.686C109.469 121.486 108.438 120.943 107.808 120.514C107.178 120.086 106.262 119.371 105.775 118.943C105.289 118.514 103.656 116.971 102.11 115.571C100.535 114.086 99.3899 112.857 99.5044 112.657C99.5903 112.457 99.4758 112.314 99.2753 112.371C99.0749 112.4 98.9603 112.171 99.0176 111.714C99.0749 111.171 99.0463 111.114 98.8172 111.429C98.6167 111.771 98.5308 111.714 98.359 111.143C98.2731 110.743 98.2445 110.4 98.3304 110.371C98.4163 110.314 98.3018 110.086 98.0727 109.857C97.8436 109.629 97.6432 109.114 97.6432 108.714C97.6432 108.314 97.5286 108 97.3568 108C97.185 108 97.0705 107.743 97.0705 107.429C97.0705 107.114 96.9559 106.8 96.7841 106.714C96.6123 106.629 96.4978 105.771 96.4692 103L94.5507 101C93.4912 99.8857 92.1454 98.3143 91.5727 97.4857C90.9714 96.6857 90.5705 96 90.7136 96C90.8282 96 91.2577 96.5429 91.6872 97.2286C92.1167 97.8857 93.4053 99.4286 94.5507 100.657C95.696 101.857 96.7269 102.857 96.87 102.857C96.9846 102.857 97.0705 102.629 97.0705 102.371C97.0705 102.086 97.3568 101.4 98.2731 99.8571L99.1035 100.8C99.6762 101.429 99.9339 102.029 99.9339 102.714C99.9339 103.571 100.02 103.714 100.593 103.714C100.965 103.714 101.852 103.086 102.855 102.057C104.029 100.886 104.487 100.2 104.515 99.6571C104.515 99.2 104.372 98.8571 104.172 98.8571C103.971 98.8571 103.628 98.5714 102.998 97.5714L103.628 98.1429C104.115 98.5714 104.487 98.6571 105.174 98.5143C105.689 98.4286 106.262 98.2857 106.491 98.2286C106.692 98.2 106.921 98.3143 106.978 98.5143C107.035 98.6857 106.921 98.8571 106.749 98.8571C106.548 98.8571 106.033 99 105.604 99.2C105.145 99.4 104.802 99.8 104.802 100.086C104.802 100.343 104.086 101.286 103.227 102.143C102.368 103 101.337 103.829 100.936 104C100.507 104.171 100.22 104.514 100.22 104.857C100.22 105.171 100.048 105.457 99.8766 105.514C99.6189 105.6 99.6476 105.743 100.02 106.086C100.278 106.343 100.507 106.743 100.507 106.943C100.507 107.114 100.678 107.714 100.936 108.229C101.165 108.714 101.28 109.314 101.165 109.514C101.079 109.686 101.108 109.771 101.251 109.629C101.394 109.514 101.709 109.771 101.967 110.2C102.225 110.657 103.542 112.029 104.945 113.286C106.348 114.543 107.952 116 108.496 116.514C109.068 117.029 109.985 117.686 110.529 118C111.101 118.286 112.275 118.543 113.249 118.6C114.194 118.629 115.253 118.514 115.626 118.343C115.969 118.143 116.427 118 116.599 118C116.8 118 117.458 117.629 118.031 117.143C118.632 116.686 119.348 115.771 119.606 115.171C119.892 114.543 120.178 114.086 120.264 114.114C120.35 114.171 120.379 113.914 120.322 113.543C120.293 113.171 120.436 112.657 120.608 112.429C120.923 112.057 120.894 111.914 120.608 111.629C120.407 111.429 120.264 110.886 120.264 110.429C120.264 109.971 120.093 109.171 119.835 108.714C119.606 108.257 119.09 107.514 118.689 107.086C118.289 106.629 117.974 106.171 117.974 106C117.974 105.829 117.888 105.771 117.744 105.857C117.63 105.943 117.2 105.686 116.742 105.286C116.313 104.886 115.941 104.6 115.883 104.629C115.855 104.657 114.595 103.857 113.106 102.857C111.617 101.857 110.128 100.829 109.841 100.571C109.555 100.343 108.896 99.8 108.41 99.3714C107.923 98.9429 107.637 98.5714 107.808 98.5714C107.98 98.5714 108.982 99.2 110.099 100C111.216 100.771 112.39 101.686 112.762 102C113.106 102.314 113.478 102.571 113.593 102.6C113.736 102.629 113.793 102.743 113.736 102.886C113.707 103.029 113.85 103.086 114.022 103C114.222 102.914 115.225 103.486 116.256 104.257C117.286 105.029 118.575 106.143 119.119 106.743C119.663 107.371 120.322 108.229 120.551 108.686C120.837 109.238 120.971 110.286 120.952 111.829C120.923 113.343 120.78 114.457 120.465 115C120.236 115.457 119.405 116.457 118.632 117.2C117.573 118.257 116.885 118.657 115.54 119.029C114.509 119.286 113.335 119.4 112.59 119.314C111.932 119.229 110.901 118.886 110.328 118.571C109.727 118.286 108.782 117.629 108.238 117.114C107.694 116.629 105.919 115 104.286 113.486C102.654 111.943 101.337 110.543 101.366 110.371C101.366 110.171 101.251 110 101.079 110C100.907 110 100.793 109.829 100.793 109.657C100.793 109.457 100.507 108.714 100.163 108C99.6762 107 99.533 106.2 99.533 104.229C99.5044 102.143 99.4185 101.629 98.2731 100.143L97.7577 101.286C97.4714 101.914 97.2136 103.257 97.1564 104.286C97.0705 105.4 97.1564 106.257 97.3282 106.429C97.5 106.6 97.6432 106.943 97.6432 107.229C97.6432 107.486 97.7577 107.943 97.9009 108.229C98.044 108.486 98.2731 109.029 98.4449 109.429C98.5881 109.829 98.9604 110.657 99.2467 111.286C99.533 112 100.936 113.571 102.883 115.429C104.601 117.086 106.749 118.971 107.637 119.629C108.524 120.314 109.498 120.857 109.813 120.857C110.128 120.857 110.557 121 110.758 121.2C111.015 121.457 111.96 121.571 113.764 121.514C116.17 121.486 116.513 121.4 117.83 120.6C118.632 120.114 119.377 119.714 119.548 119.714C119.72 119.714 120.322 119.229 120.923 118.629C121.496 118.057 121.982 117.371 121.982 117.143C121.982 116.914 122.24 116.314 122.555 115.857C122.87 115.4 123.185 114.486 123.271 113.857C123.385 113.229 123.471 111.971 123.5 111.057C123.529 110.171 123.471 109.429 123.357 109.429C123.214 109.429 123.013 108.943 122.87 108.371C122.727 107.771 122.068 106.6 121.438 105.8C120.78 104.971 120.15 104.229 119.978 104.143C119.806 104.057 119.778 103.829 119.892 103.657C120.045 103.41 119.997 103.362 119.749 103.514C119.577 103.629 119.233 103.543 119.004 103.371C118.804 103.171 118.203 102.6 117.659 102.143C117.115 101.657 115.855 100.629 114.824 99.8571C113.793 99.0571 112.333 98.0857 111.531 97.6571C110.758 97.2286 109.87 96.8571 109.612 96.8571C109.326 96.8571 109.154 96.7429 109.24 96.5714C109.326 96.4 108.982 96.2857 108.467 96.2857C107.952 96.2857 106.949 96.2571 106.233 96.2C105.518 96.1429 104.458 96.1714 103.857 96.2571C102.969 96.4 102.797 96.5143 102.912 96.9429C102.998 97.2 102.969 97.4286 102.797 97.4286C102.626 97.4286 102.511 97.1714 102.511 96.8571C102.511 96.5429 102.339 96.2857 102.167 96.2857C101.967 96.2857 101.308 95.8286 100.736 95.2857C100.134 94.7429 99.6476 94.2 99.6476 94.0857C99.6476 93.9429 100.134 94.3428 100.707 94.9429Z" fill="#939B96"/>
</svg>
